<?xml version="1.0" standalone="no"?>
 <!DOCTYPE svg PUBLIC "-//W3C//DTD SVG 1.1//EN" 
 "http://www.w3.org/Graphics/SVG/1.1/DTD/svg11.dtd"> 
<svg
  xmlns:svg="http://www.w3.org/2000/svg"
  xmlns="http://www.w3.org/2000/svg"
  xmlns:xlink="http://www.w3.org/1999/xlink"
  version="1.1"
  width="29.700220cm" height="21.000720cm" viewBox="0 0 297002200 210007200">
<title>SVG Picture created as MiniLFO-F_Mask.svg date 2023/02/28 23:27:59 </title>
  <desc>Picture generated by PCBNEW </desc>
<g style="fill:#000000; fill-opacity:1.000000;stroke:#000000; stroke-opacity:1.000000;
stroke-linecap:round; stroke-linejoin:round;"
 transform="translate(0 0) scale(1 1)">
</g>
<g style="fill:#000000; fill-opacity:0.0; 
stroke:#000000; stroke-width:0.000000; stroke-opacity:1; 
stroke-linecap:round; stroke-linejoin:round;">
<g >
</g>
<g style="fill:#000000; fill-opacity:1.0; 
stroke:#000000; stroke-width:1.000000; stroke-opacity:1; 
stroke-linecap:round; stroke-linejoin:round;">
<circle cx="111231000.000000" cy="78820000.000000" r="800000.000000" /> 
</g>
<g style="fill:#000000; fill-opacity:1.0; 
stroke:#000000; stroke-width:21200.000000; stroke-opacity:1; 
stroke-linecap:round; stroke-linejoin:round;">
</g>
<g style="fill:#000000; fill-opacity:1.0; 
stroke:#000000; stroke-width:1.000000; stroke-opacity:1; 
stroke-linecap:round; stroke-linejoin:round;">
<circle cx="111231000.000000" cy="83820000.000000" r="800000.000000" /> 
</g>
<g style="fill:#000000; fill-opacity:1.0; 
stroke:#000000; stroke-width:21200.000000; stroke-opacity:1; 
stroke-linecap:round; stroke-linejoin:round;">
</g>
<g >
</g>
<g style="fill:#000000; fill-opacity:1.0; 
stroke:#000000; stroke-width:21200.000000; stroke-opacity:1; 
stroke-linecap:round; stroke-linejoin:round;">
</g>
<g style="fill:#000000; fill-opacity:1.0; 
stroke:#000000; stroke-width:1.000000; stroke-opacity:1; 
stroke-linecap:round; stroke-linejoin:round;">
<circle cx="116057000.000000" cy="79985113.000000" r="800000.000000" /> 
</g>
<g style="fill:#000000; fill-opacity:1.0; 
stroke:#000000; stroke-width:21200.000000; stroke-opacity:1; 
stroke-linecap:round; stroke-linejoin:round;">
</g>
<g style="fill:#000000; fill-opacity:1.0; 
stroke:#000000; stroke-width:1.000000; stroke-opacity:1; 
stroke-linecap:round; stroke-linejoin:round;">
<path style="fill:#000000; fill-opacity:1.0; 
stroke:#000000; stroke-width:1.000000; stroke-opacity:1; 
stroke-linecap:round; stroke-linejoin:round;fill-rule:evenodd;"
d="M 116857000.000000,83285113.000000
115257000.000000,83285113.000000
115257000.000000,81685113.000000
116857000.000000,81685113.000000
Z" /> 
</g>
<g >
</g>
<g style="fill:#000000; fill-opacity:1.0; 
stroke:#000000; stroke-width:1.000000; stroke-opacity:1; 
stroke-linecap:round; stroke-linejoin:round;">
<circle cx="116271000.000000" cy="120025000.000000" r="900000.000000" /> 
</g>
<g style="fill:#000000; fill-opacity:1.0; 
stroke:#000000; stroke-width:21200.000000; stroke-opacity:1; 
stroke-linecap:round; stroke-linejoin:round;">
</g>
<g style="fill:#000000; fill-opacity:1.0; 
stroke:#000000; stroke-width:1.000000; stroke-opacity:1; 
stroke-linecap:round; stroke-linejoin:round;">
<circle cx="113771000.000000" cy="120025000.000000" r="900000.000000" /> 
</g>
<g style="fill:#000000; fill-opacity:1.0; 
stroke:#000000; stroke-width:21200.000000; stroke-opacity:1; 
stroke-linecap:round; stroke-linejoin:round;">
</g>
<g style="fill:#000000; fill-opacity:1.0; 
stroke:#000000; stroke-width:1.000000; stroke-opacity:1; 
stroke-linecap:round; stroke-linejoin:round;">
<path style="fill:#000000; fill-opacity:1.0; 
stroke:#000000; stroke-width:1.000000; stroke-opacity:1; 
stroke-linecap:round; stroke-linejoin:round;fill-rule:evenodd;"
d="M 112171000.000000,119125000.000000
112171000.000000,120925000.000000
110371000.000000,120925000.000000
110371000.000000,119125000.000000
Z" /> 
</g>
<g style="fill:#000000; fill-opacity:1.0; 
stroke:#000000; stroke-width:2720000.000000; stroke-opacity:1; 
stroke-linecap:round; stroke-linejoin:round;">
</g>
<g style="fill:#000000; fill-opacity:0.0; 
stroke:#000000; stroke-width:2720000.000000; stroke-opacity:1; 
stroke-linecap:round; stroke-linejoin:round;">
<path d="M118571000 112785000
L118571000 112265000
" />
<path d="M108971000 112785000
L108971000 112265000
" />
</g>
<g >
</g>
<g style="fill:#000000; fill-opacity:0.0; 
stroke:#000000; stroke-width:2720000.000000; stroke-opacity:1; 
stroke-linecap:round; stroke-linejoin:round;">
<path d="M108897000 91449000
L108897000 90929000
" />
<path d="M118497000 91449000
L118497000 90929000
" />
</g>
<g style="fill:#000000; fill-opacity:0.0; 
stroke:#000000; stroke-width:1.000000; stroke-opacity:1; 
stroke-linecap:round; stroke-linejoin:round;">
</g>
<g style="fill:#000000; fill-opacity:1.0; 
stroke:#000000; stroke-width:1.000000; stroke-opacity:1; 
stroke-linecap:round; stroke-linejoin:round;">
<path style="fill:#000000; fill-opacity:1.0; 
stroke:#000000; stroke-width:1.000000; stroke-opacity:1; 
stroke-linecap:round; stroke-linejoin:round;fill-rule:evenodd;"
d="M 112097000.000000,97789000.000000
112097000.000000,99589000.000000
110297000.000000,99589000.000000
110297000.000000,97789000.000000
Z" /> 
<circle cx="113697000.000000" cy="98689000.000000" r="900000.000000" /> 
</g>
<g style="fill:#000000; fill-opacity:1.0; 
stroke:#000000; stroke-width:21200.000000; stroke-opacity:1; 
stroke-linecap:round; stroke-linejoin:round;">
</g>
<g style="fill:#000000; fill-opacity:1.0; 
stroke:#000000; stroke-width:1.000000; stroke-opacity:1; 
stroke-linecap:round; stroke-linejoin:round;">
<circle cx="116197000.000000" cy="98689000.000000" r="900000.000000" /> 
</g>
<g style="fill:#000000; fill-opacity:1.0; 
stroke:#000000; stroke-width:21200.000000; stroke-opacity:1; 
stroke-linecap:round; stroke-linejoin:round;">
</g>
<g >
</g>
<g style="fill:#000000; fill-opacity:1.0; 
stroke:#000000; stroke-width:21200.000000; stroke-opacity:1; 
stroke-linecap:round; stroke-linejoin:round;">
</g>
<g style="fill:#000000; fill-opacity:1.0; 
stroke:#000000; stroke-width:1.000000; stroke-opacity:1; 
stroke-linecap:round; stroke-linejoin:round;">
<path style="fill:#000000; fill-opacity:1.0; 
stroke:#000000; stroke-width:1.000000; stroke-opacity:1; 
stroke-linecap:round; stroke-linejoin:round;fill-rule:evenodd;"
d="M 114862000.000000,152235000.000000
114862000.000000,154065000.000000
112932000.000000,154065000.000000
112932000.000000,152235000.000000
Z" /> 
<circle cx="113897000.000000" cy="164550000.000000" r="1065000.000000" /> 
</g>
<g style="fill:#000000; fill-opacity:1.0; 
stroke:#000000; stroke-width:21200.000000; stroke-opacity:1; 
stroke-linecap:round; stroke-linejoin:round;">
</g>
<g style="fill:#000000; fill-opacity:1.0; 
stroke:#000000; stroke-width:1.000000; stroke-opacity:1; 
stroke-linecap:round; stroke-linejoin:round;">
<circle cx="113897000.000000" cy="156250000.000000" r="1065000.000000" /> 
</g>
<g style="fill:#000000; fill-opacity:1.0; 
stroke:#000000; stroke-width:21200.000000; stroke-opacity:1; 
stroke-linecap:round; stroke-linejoin:round;">
</g>
<g >
</g>
<g style="fill:#000000; fill-opacity:1.0; 
stroke:#000000; stroke-width:21200.000000; stroke-opacity:1; 
stroke-linecap:round; stroke-linejoin:round;">
</g>
<g style="fill:#000000; fill-opacity:1.0; 
stroke:#000000; stroke-width:1.000000; stroke-opacity:1; 
stroke-linecap:round; stroke-linejoin:round;">
<path style="fill:#000000; fill-opacity:1.0; 
stroke:#000000; stroke-width:1.000000; stroke-opacity:1; 
stroke-linecap:round; stroke-linejoin:round;fill-rule:evenodd;"
d="M 162900000.000000,100672500.000000
162918079.000000,100581613.000000
162969562.000000,100504562.000000
163046613.000000,100453079.000000
163137500.000000,100435000.000000
163637500.000000,100435000.000000
163728387.000000,100453079.000000
163805438.000000,100504562.000000
163856921.000000,100581613.000000
163875000.000000,100672500.000000
163875000.000000,101147500.000000
163856921.000000,101238387.000000
163805438.000000,101315438.000000
163728387.000000,101366921.000000
163637500.000000,101385000.000000
163137500.000000,101385000.000000
163046613.000000,101366921.000000
162969562.000000,101315438.000000
162918079.000000,101238387.000000
162900000.000000,101147500.000000
Z" /> 
<path style="fill:#000000; fill-opacity:1.0; 
stroke:#000000; stroke-width:1.000000; stroke-opacity:1; 
stroke-linecap:round; stroke-linejoin:round;fill-rule:evenodd;"
d="M 164725000.000000,100672500.000000
164743079.000000,100581613.000000
164794562.000000,100504562.000000
164871613.000000,100453079.000000
164962500.000000,100435000.000000
165462500.000000,100435000.000000
165553387.000000,100453079.000000
165630438.000000,100504562.000000
165681921.000000,100581613.000000
165700000.000000,100672500.000000
165700000.000000,101147500.000000
165681921.000000,101238387.000000
165630438.000000,101315438.000000
165553387.000000,101366921.000000
165462500.000000,101385000.000000
164962500.000000,101385000.000000
164871613.000000,101366921.000000
164794562.000000,101315438.000000
164743079.000000,101238387.000000
164725000.000000,101147500.000000
Z" /> 
</g>
<g >
</g>
<g style="fill:#000000; fill-opacity:1.0; 
stroke:#000000; stroke-width:1.000000; stroke-opacity:1; 
stroke-linecap:round; stroke-linejoin:round;">
<path style="fill:#000000; fill-opacity:1.0; 
stroke:#000000; stroke-width:1.000000; stroke-opacity:1; 
stroke-linecap:round; stroke-linejoin:round;fill-rule:evenodd;"
d="M 133575000.000000,143275000.000000
133594030.000000,143179329.000000
133648223.000000,143098223.000000
133729329.000000,143044030.000000
133825000.000000,143025000.000000
134500000.000000,143025000.000000
134595671.000000,143044030.000000
134676777.000000,143098223.000000
134730970.000000,143179329.000000
134750000.000000,143275000.000000
134750000.000000,144225000.000000
134730970.000000,144320671.000000
134676777.000000,144401777.000000
134595671.000000,144455970.000000
134500000.000000,144475000.000000
133825000.000000,144475000.000000
133729329.000000,144455970.000000
133648223.000000,144401777.000000
133594030.000000,144320671.000000
133575000.000000,144225000.000000
Z" /> 
<path style="fill:#000000; fill-opacity:1.0; 
stroke:#000000; stroke-width:1.000000; stroke-opacity:1; 
stroke-linecap:round; stroke-linejoin:round;fill-rule:evenodd;"
d="M 135650000.000000,143275000.000000
135669030.000000,143179329.000000
135723223.000000,143098223.000000
135804329.000000,143044030.000000
135900000.000000,143025000.000000
136575000.000000,143025000.000000
136670671.000000,143044030.000000
136751777.000000,143098223.000000
136805970.000000,143179329.000000
136825000.000000,143275000.000000
136825000.000000,144225000.000000
136805970.000000,144320671.000000
136751777.000000,144401777.000000
136670671.000000,144455970.000000
136575000.000000,144475000.000000
135900000.000000,144475000.000000
135804329.000000,144455970.000000
135723223.000000,144401777.000000
135669030.000000,144320671.000000
135650000.000000,144225000.000000
Z" /> 
</g>
<g >
</g>
<g style="fill:#000000; fill-opacity:1.0; 
stroke:#000000; stroke-width:1.000000; stroke-opacity:1; 
stroke-linecap:round; stroke-linejoin:round;">
<path style="fill:#000000; fill-opacity:1.0; 
stroke:#000000; stroke-width:1.000000; stroke-opacity:1; 
stroke-linecap:round; stroke-linejoin:round;fill-rule:evenodd;"
d="M 136625000.000000,129225000.000000
136605970.000000,129320671.000000
136551777.000000,129401777.000000
136470671.000000,129455970.000000
136375000.000000,129475000.000000
135700000.000000,129475000.000000
135604329.000000,129455970.000000
135523223.000000,129401777.000000
135469030.000000,129320671.000000
135450000.000000,129225000.000000
135450000.000000,128275000.000000
135469030.000000,128179329.000000
135523223.000000,128098223.000000
135604329.000000,128044030.000000
135700000.000000,128025000.000000
136375000.000000,128025000.000000
136470671.000000,128044030.000000
136551777.000000,128098223.000000
136605970.000000,128179329.000000
136625000.000000,128275000.000000
Z" /> 
<path style="fill:#000000; fill-opacity:1.0; 
stroke:#000000; stroke-width:1.000000; stroke-opacity:1; 
stroke-linecap:round; stroke-linejoin:round;fill-rule:evenodd;"
d="M 134550000.000000,129225000.000000
134530970.000000,129320671.000000
134476777.000000,129401777.000000
134395671.000000,129455970.000000
134300000.000000,129475000.000000
133625000.000000,129475000.000000
133529329.000000,129455970.000000
133448223.000000,129401777.000000
133394030.000000,129320671.000000
133375000.000000,129225000.000000
133375000.000000,128275000.000000
133394030.000000,128179329.000000
133448223.000000,128098223.000000
133529329.000000,128044030.000000
133625000.000000,128025000.000000
134300000.000000,128025000.000000
134395671.000000,128044030.000000
134476777.000000,128098223.000000
134530970.000000,128179329.000000
134550000.000000,128275000.000000
Z" /> 
</g>
<g >
</g>
<g style="fill:#000000; fill-opacity:1.0; 
stroke:#000000; stroke-width:1.000000; stroke-opacity:1; 
stroke-linecap:round; stroke-linejoin:round;">
<path style="fill:#000000; fill-opacity:1.0; 
stroke:#000000; stroke-width:1.000000; stroke-opacity:1; 
stroke-linecap:round; stroke-linejoin:round;fill-rule:evenodd;"
d="M 109811000.000000,107082000.000000
109753597.000000,107070582.000000
109704934.000000,107038066.000000
109672418.000000,106989403.000000
109661000.000000,106932000.000000
109661000.000000,105282000.000000
109672418.000000,105224597.000000
109704934.000000,105175934.000000
109753597.000000,105143418.000000
109811000.000000,105132000.000000
110111000.000000,105132000.000000
110168403.000000,105143418.000000
110217066.000000,105175934.000000
110249582.000000,105224597.000000
110261000.000000,105282000.000000
110261000.000000,106932000.000000
110249582.000000,106989403.000000
110217066.000000,107038066.000000
110168403.000000,107070582.000000
110111000.000000,107082000.000000
Z" /> 
<path style="fill:#000000; fill-opacity:1.0; 
stroke:#000000; stroke-width:1.000000; stroke-opacity:1; 
stroke-linecap:round; stroke-linejoin:round;fill-rule:evenodd;"
d="M 111081000.000000,107082000.000000
111023597.000000,107070582.000000
110974934.000000,107038066.000000
110942418.000000,106989403.000000
110931000.000000,106932000.000000
110931000.000000,105282000.000000
110942418.000000,105224597.000000
110974934.000000,105175934.000000
111023597.000000,105143418.000000
111081000.000000,105132000.000000
111381000.000000,105132000.000000
111438403.000000,105143418.000000
111487066.000000,105175934.000000
111519582.000000,105224597.000000
111531000.000000,105282000.000000
111531000.000000,106932000.000000
111519582.000000,106989403.000000
111487066.000000,107038066.000000
111438403.000000,107070582.000000
111381000.000000,107082000.000000
Z" /> 
<path style="fill:#000000; fill-opacity:1.0; 
stroke:#000000; stroke-width:1.000000; stroke-opacity:1; 
stroke-linecap:round; stroke-linejoin:round;fill-rule:evenodd;"
d="M 112351000.000000,107082000.000000
112293597.000000,107070582.000000
112244934.000000,107038066.000000
112212418.000000,106989403.000000
112201000.000000,106932000.000000
112201000.000000,105282000.000000
112212418.000000,105224597.000000
112244934.000000,105175934.000000
112293597.000000,105143418.000000
112351000.000000,105132000.000000
112651000.000000,105132000.000000
112708403.000000,105143418.000000
112757066.000000,105175934.000000
112789582.000000,105224597.000000
112801000.000000,105282000.000000
112801000.000000,106932000.000000
112789582.000000,106989403.000000
112757066.000000,107038066.000000
112708403.000000,107070582.000000
112651000.000000,107082000.000000
Z" /> 
<path style="fill:#000000; fill-opacity:1.0; 
stroke:#000000; stroke-width:1.000000; stroke-opacity:1; 
stroke-linecap:round; stroke-linejoin:round;fill-rule:evenodd;"
d="M 113621000.000000,107082000.000000
113563597.000000,107070582.000000
113514934.000000,107038066.000000
113482418.000000,106989403.000000
113471000.000000,106932000.000000
113471000.000000,105282000.000000
113482418.000000,105224597.000000
113514934.000000,105175934.000000
113563597.000000,105143418.000000
113621000.000000,105132000.000000
113921000.000000,105132000.000000
113978403.000000,105143418.000000
114027066.000000,105175934.000000
114059582.000000,105224597.000000
114071000.000000,105282000.000000
114071000.000000,106932000.000000
114059582.000000,106989403.000000
114027066.000000,107038066.000000
113978403.000000,107070582.000000
113921000.000000,107082000.000000
Z" /> 
<path style="fill:#000000; fill-opacity:1.0; 
stroke:#000000; stroke-width:1.000000; stroke-opacity:1; 
stroke-linecap:round; stroke-linejoin:round;fill-rule:evenodd;"
d="M 114891000.000000,107082000.000000
114833597.000000,107070582.000000
114784934.000000,107038066.000000
114752418.000000,106989403.000000
114741000.000000,106932000.000000
114741000.000000,105282000.000000
114752418.000000,105224597.000000
114784934.000000,105175934.000000
114833597.000000,105143418.000000
114891000.000000,105132000.000000
115191000.000000,105132000.000000
115248403.000000,105143418.000000
115297066.000000,105175934.000000
115329582.000000,105224597.000000
115341000.000000,105282000.000000
115341000.000000,106932000.000000
115329582.000000,106989403.000000
115297066.000000,107038066.000000
115248403.000000,107070582.000000
115191000.000000,107082000.000000
Z" /> 
<path style="fill:#000000; fill-opacity:1.0; 
stroke:#000000; stroke-width:1.000000; stroke-opacity:1; 
stroke-linecap:round; stroke-linejoin:round;fill-rule:evenodd;"
d="M 116161000.000000,107082000.000000
116103597.000000,107070582.000000
116054934.000000,107038066.000000
116022418.000000,106989403.000000
116011000.000000,106932000.000000
116011000.000000,105282000.000000
116022418.000000,105224597.000000
116054934.000000,105175934.000000
116103597.000000,105143418.000000
116161000.000000,105132000.000000
116461000.000000,105132000.000000
116518403.000000,105143418.000000
116567066.000000,105175934.000000
116599582.000000,105224597.000000
116611000.000000,105282000.000000
116611000.000000,106932000.000000
116599582.000000,106989403.000000
116567066.000000,107038066.000000
116518403.000000,107070582.000000
116461000.000000,107082000.000000
Z" /> 
<path style="fill:#000000; fill-opacity:1.0; 
stroke:#000000; stroke-width:1.000000; stroke-opacity:1; 
stroke-linecap:round; stroke-linejoin:round;fill-rule:evenodd;"
d="M 117431000.000000,107082000.000000
117373597.000000,107070582.000000
117324934.000000,107038066.000000
117292418.000000,106989403.000000
117281000.000000,106932000.000000
117281000.000000,105282000.000000
117292418.000000,105224597.000000
117324934.000000,105175934.000000
117373597.000000,105143418.000000
117431000.000000,105132000.000000
117731000.000000,105132000.000000
117788403.000000,105143418.000000
117837066.000000,105175934.000000
117869582.000000,105224597.000000
117881000.000000,105282000.000000
117881000.000000,106932000.000000
117869582.000000,106989403.000000
117837066.000000,107038066.000000
117788403.000000,107070582.000000
117731000.000000,107082000.000000
Z" /> 
<path style="fill:#000000; fill-opacity:1.0; 
stroke:#000000; stroke-width:1.000000; stroke-opacity:1; 
stroke-linecap:round; stroke-linejoin:round;fill-rule:evenodd;"
d="M 117431000.000000,102132000.000000
117373597.000000,102120582.000000
117324934.000000,102088066.000000
117292418.000000,102039403.000000
117281000.000000,101982000.000000
117281000.000000,100332000.000000
117292418.000000,100274597.000000
117324934.000000,100225934.000000
117373597.000000,100193418.000000
117431000.000000,100182000.000000
117731000.000000,100182000.000000
117788403.000000,100193418.000000
117837066.000000,100225934.000000
117869582.000000,100274597.000000
117881000.000000,100332000.000000
117881000.000000,101982000.000000
117869582.000000,102039403.000000
117837066.000000,102088066.000000
117788403.000000,102120582.000000
117731000.000000,102132000.000000
Z" /> 
<path style="fill:#000000; fill-opacity:1.0; 
stroke:#000000; stroke-width:1.000000; stroke-opacity:1; 
stroke-linecap:round; stroke-linejoin:round;fill-rule:evenodd;"
d="M 116161000.000000,102132000.000000
116103597.000000,102120582.000000
116054934.000000,102088066.000000
116022418.000000,102039403.000000
116011000.000000,101982000.000000
116011000.000000,100332000.000000
116022418.000000,100274597.000000
116054934.000000,100225934.000000
116103597.000000,100193418.000000
116161000.000000,100182000.000000
116461000.000000,100182000.000000
116518403.000000,100193418.000000
116567066.000000,100225934.000000
116599582.000000,100274597.000000
116611000.000000,100332000.000000
116611000.000000,101982000.000000
116599582.000000,102039403.000000
116567066.000000,102088066.000000
116518403.000000,102120582.000000
116461000.000000,102132000.000000
Z" /> 
<path style="fill:#000000; fill-opacity:1.0; 
stroke:#000000; stroke-width:1.000000; stroke-opacity:1; 
stroke-linecap:round; stroke-linejoin:round;fill-rule:evenodd;"
d="M 114891000.000000,102132000.000000
114833597.000000,102120582.000000
114784934.000000,102088066.000000
114752418.000000,102039403.000000
114741000.000000,101982000.000000
114741000.000000,100332000.000000
114752418.000000,100274597.000000
114784934.000000,100225934.000000
114833597.000000,100193418.000000
114891000.000000,100182000.000000
115191000.000000,100182000.000000
115248403.000000,100193418.000000
115297066.000000,100225934.000000
115329582.000000,100274597.000000
115341000.000000,100332000.000000
115341000.000000,101982000.000000
115329582.000000,102039403.000000
115297066.000000,102088066.000000
115248403.000000,102120582.000000
115191000.000000,102132000.000000
Z" /> 
<path style="fill:#000000; fill-opacity:1.0; 
stroke:#000000; stroke-width:1.000000; stroke-opacity:1; 
stroke-linecap:round; stroke-linejoin:round;fill-rule:evenodd;"
d="M 113621000.000000,102132000.000000
113563597.000000,102120582.000000
113514934.000000,102088066.000000
113482418.000000,102039403.000000
113471000.000000,101982000.000000
113471000.000000,100332000.000000
113482418.000000,100274597.000000
113514934.000000,100225934.000000
113563597.000000,100193418.000000
113621000.000000,100182000.000000
113921000.000000,100182000.000000
113978403.000000,100193418.000000
114027066.000000,100225934.000000
114059582.000000,100274597.000000
114071000.000000,100332000.000000
114071000.000000,101982000.000000
114059582.000000,102039403.000000
114027066.000000,102088066.000000
113978403.000000,102120582.000000
113921000.000000,102132000.000000
Z" /> 
<path style="fill:#000000; fill-opacity:1.0; 
stroke:#000000; stroke-width:1.000000; stroke-opacity:1; 
stroke-linecap:round; stroke-linejoin:round;fill-rule:evenodd;"
d="M 112351000.000000,102132000.000000
112293597.000000,102120582.000000
112244934.000000,102088066.000000
112212418.000000,102039403.000000
112201000.000000,101982000.000000
112201000.000000,100332000.000000
112212418.000000,100274597.000000
112244934.000000,100225934.000000
112293597.000000,100193418.000000
112351000.000000,100182000.000000
112651000.000000,100182000.000000
112708403.000000,100193418.000000
112757066.000000,100225934.000000
112789582.000000,100274597.000000
112801000.000000,100332000.000000
112801000.000000,101982000.000000
112789582.000000,102039403.000000
112757066.000000,102088066.000000
112708403.000000,102120582.000000
112651000.000000,102132000.000000
Z" /> 
<path style="fill:#000000; fill-opacity:1.0; 
stroke:#000000; stroke-width:1.000000; stroke-opacity:1; 
stroke-linecap:round; stroke-linejoin:round;fill-rule:evenodd;"
d="M 111081000.000000,102132000.000000
111023597.000000,102120582.000000
110974934.000000,102088066.000000
110942418.000000,102039403.000000
110931000.000000,101982000.000000
110931000.000000,100332000.000000
110942418.000000,100274597.000000
110974934.000000,100225934.000000
111023597.000000,100193418.000000
111081000.000000,100182000.000000
111381000.000000,100182000.000000
111438403.000000,100193418.000000
111487066.000000,100225934.000000
111519582.000000,100274597.000000
111531000.000000,100332000.000000
111531000.000000,101982000.000000
111519582.000000,102039403.000000
111487066.000000,102088066.000000
111438403.000000,102120582.000000
111381000.000000,102132000.000000
Z" /> 
<path style="fill:#000000; fill-opacity:1.0; 
stroke:#000000; stroke-width:1.000000; stroke-opacity:1; 
stroke-linecap:round; stroke-linejoin:round;fill-rule:evenodd;"
d="M 109811000.000000,102132000.000000
109753597.000000,102120582.000000
109704934.000000,102088066.000000
109672418.000000,102039403.000000
109661000.000000,101982000.000000
109661000.000000,100332000.000000
109672418.000000,100274597.000000
109704934.000000,100225934.000000
109753597.000000,100193418.000000
109811000.000000,100182000.000000
110111000.000000,100182000.000000
110168403.000000,100193418.000000
110217066.000000,100225934.000000
110249582.000000,100274597.000000
110261000.000000,100332000.000000
110261000.000000,101982000.000000
110249582.000000,102039403.000000
110217066.000000,102088066.000000
110168403.000000,102120582.000000
110111000.000000,102132000.000000
Z" /> 
</g>
<g >
</g>
<g style="fill:#000000; fill-opacity:1.0; 
stroke:#000000; stroke-width:1.000000; stroke-opacity:1; 
stroke-linecap:round; stroke-linejoin:round;">
<path style="fill:#000000; fill-opacity:1.0; 
stroke:#000000; stroke-width:1.000000; stroke-opacity:1; 
stroke-linecap:round; stroke-linejoin:round;fill-rule:evenodd;"
d="M 192500000.000000,91992500.000000
192518079.000000,91901613.000000
192569562.000000,91824562.000000
192646613.000000,91773079.000000
192737500.000000,91755000.000000
193237500.000000,91755000.000000
193328387.000000,91773079.000000
193405438.000000,91824562.000000
193456921.000000,91901613.000000
193475000.000000,91992500.000000
193475000.000000,92467500.000000
193456921.000000,92558387.000000
193405438.000000,92635438.000000
193328387.000000,92686921.000000
193237500.000000,92705000.000000
192737500.000000,92705000.000000
192646613.000000,92686921.000000
192569562.000000,92635438.000000
192518079.000000,92558387.000000
192500000.000000,92467500.000000
Z" /> 
<path style="fill:#000000; fill-opacity:1.0; 
stroke:#000000; stroke-width:1.000000; stroke-opacity:1; 
stroke-linecap:round; stroke-linejoin:round;fill-rule:evenodd;"
d="M 194325000.000000,91992500.000000
194343079.000000,91901613.000000
194394562.000000,91824562.000000
194471613.000000,91773079.000000
194562500.000000,91755000.000000
195062500.000000,91755000.000000
195153387.000000,91773079.000000
195230438.000000,91824562.000000
195281921.000000,91901613.000000
195300000.000000,91992500.000000
195300000.000000,92467500.000000
195281921.000000,92558387.000000
195230438.000000,92635438.000000
195153387.000000,92686921.000000
195062500.000000,92705000.000000
194562500.000000,92705000.000000
194471613.000000,92686921.000000
194394562.000000,92635438.000000
194343079.000000,92558387.000000
194325000.000000,92467500.000000
Z" /> 
</g>
<g >
</g>
<g style="fill:#000000; fill-opacity:1.0; 
stroke:#000000; stroke-width:1.000000; stroke-opacity:1; 
stroke-linecap:round; stroke-linejoin:round;">
<path style="fill:#000000; fill-opacity:1.0; 
stroke:#000000; stroke-width:1.000000; stroke-opacity:1; 
stroke-linecap:round; stroke-linejoin:round;fill-rule:evenodd;"
d="M 180300000.000000,95652500.000000
180318079.000000,95561613.000000
180369562.000000,95484562.000000
180446613.000000,95433079.000000
180537500.000000,95415000.000000
181037500.000000,95415000.000000
181128387.000000,95433079.000000
181205438.000000,95484562.000000
181256921.000000,95561613.000000
181275000.000000,95652500.000000
181275000.000000,96127500.000000
181256921.000000,96218387.000000
181205438.000000,96295438.000000
181128387.000000,96346921.000000
181037500.000000,96365000.000000
180537500.000000,96365000.000000
180446613.000000,96346921.000000
180369562.000000,96295438.000000
180318079.000000,96218387.000000
180300000.000000,96127500.000000
Z" /> 
<path style="fill:#000000; fill-opacity:1.0; 
stroke:#000000; stroke-width:1.000000; stroke-opacity:1; 
stroke-linecap:round; stroke-linejoin:round;fill-rule:evenodd;"
d="M 182125000.000000,95652500.000000
182143079.000000,95561613.000000
182194562.000000,95484562.000000
182271613.000000,95433079.000000
182362500.000000,95415000.000000
182862500.000000,95415000.000000
182953387.000000,95433079.000000
183030438.000000,95484562.000000
183081921.000000,95561613.000000
183100000.000000,95652500.000000
183100000.000000,96127500.000000
183081921.000000,96218387.000000
183030438.000000,96295438.000000
182953387.000000,96346921.000000
182862500.000000,96365000.000000
182362500.000000,96365000.000000
182271613.000000,96346921.000000
182194562.000000,96295438.000000
182143079.000000,96218387.000000
182125000.000000,96127500.000000
Z" /> 
</g>
<g >
</g>
<g style="fill:#000000; fill-opacity:1.0; 
stroke:#000000; stroke-width:1.000000; stroke-opacity:1; 
stroke-linecap:round; stroke-linejoin:round;">
<path style="fill:#000000; fill-opacity:1.0; 
stroke:#000000; stroke-width:1.000000; stroke-opacity:1; 
stroke-linecap:round; stroke-linejoin:round;fill-rule:evenodd;"
d="M 162900000.000000,98162500.000000
162918079.000000,98071613.000000
162969562.000000,97994562.000000
163046613.000000,97943079.000000
163137500.000000,97925000.000000
163637500.000000,97925000.000000
163728387.000000,97943079.000000
163805438.000000,97994562.000000
163856921.000000,98071613.000000
163875000.000000,98162500.000000
163875000.000000,98637500.000000
163856921.000000,98728387.000000
163805438.000000,98805438.000000
163728387.000000,98856921.000000
163637500.000000,98875000.000000
163137500.000000,98875000.000000
163046613.000000,98856921.000000
162969562.000000,98805438.000000
162918079.000000,98728387.000000
162900000.000000,98637500.000000
Z" /> 
<path style="fill:#000000; fill-opacity:1.0; 
stroke:#000000; stroke-width:1.000000; stroke-opacity:1; 
stroke-linecap:round; stroke-linejoin:round;fill-rule:evenodd;"
d="M 164725000.000000,98162500.000000
164743079.000000,98071613.000000
164794562.000000,97994562.000000
164871613.000000,97943079.000000
164962500.000000,97925000.000000
165462500.000000,97925000.000000
165553387.000000,97943079.000000
165630438.000000,97994562.000000
165681921.000000,98071613.000000
165700000.000000,98162500.000000
165700000.000000,98637500.000000
165681921.000000,98728387.000000
165630438.000000,98805438.000000
165553387.000000,98856921.000000
165462500.000000,98875000.000000
164962500.000000,98875000.000000
164871613.000000,98856921.000000
164794562.000000,98805438.000000
164743079.000000,98728387.000000
164725000.000000,98637500.000000
Z" /> 
</g>
<g >
</g>
<g style="fill:#000000; fill-opacity:1.0; 
stroke:#000000; stroke-width:1.000000; stroke-opacity:1; 
stroke-linecap:round; stroke-linejoin:round;">
<path style="fill:#000000; fill-opacity:1.0; 
stroke:#000000; stroke-width:1.000000; stroke-opacity:1; 
stroke-linecap:round; stroke-linejoin:round;fill-rule:evenodd;"
d="M 175950000.000000,95652500.000000
175968079.000000,95561613.000000
176019562.000000,95484562.000000
176096613.000000,95433079.000000
176187500.000000,95415000.000000
176687500.000000,95415000.000000
176778387.000000,95433079.000000
176855438.000000,95484562.000000
176906921.000000,95561613.000000
176925000.000000,95652500.000000
176925000.000000,96127500.000000
176906921.000000,96218387.000000
176855438.000000,96295438.000000
176778387.000000,96346921.000000
176687500.000000,96365000.000000
176187500.000000,96365000.000000
176096613.000000,96346921.000000
176019562.000000,96295438.000000
175968079.000000,96218387.000000
175950000.000000,96127500.000000
Z" /> 
<path style="fill:#000000; fill-opacity:1.0; 
stroke:#000000; stroke-width:1.000000; stroke-opacity:1; 
stroke-linecap:round; stroke-linejoin:round;fill-rule:evenodd;"
d="M 177775000.000000,95652500.000000
177793079.000000,95561613.000000
177844562.000000,95484562.000000
177921613.000000,95433079.000000
178012500.000000,95415000.000000
178512500.000000,95415000.000000
178603387.000000,95433079.000000
178680438.000000,95484562.000000
178731921.000000,95561613.000000
178750000.000000,95652500.000000
178750000.000000,96127500.000000
178731921.000000,96218387.000000
178680438.000000,96295438.000000
178603387.000000,96346921.000000
178512500.000000,96365000.000000
178012500.000000,96365000.000000
177921613.000000,96346921.000000
177844562.000000,96295438.000000
177793079.000000,96218387.000000
177775000.000000,96127500.000000
Z" /> 
</g>
<g >
</g>
<g style="fill:#000000; fill-opacity:1.0; 
stroke:#000000; stroke-width:1.000000; stroke-opacity:1; 
stroke-linecap:round; stroke-linejoin:round;">
<path style="fill:#000000; fill-opacity:1.0; 
stroke:#000000; stroke-width:1.000000; stroke-opacity:1; 
stroke-linecap:round; stroke-linejoin:round;fill-rule:evenodd;"
d="M 167250000.000000,98162500.000000
167268079.000000,98071613.000000
167319562.000000,97994562.000000
167396613.000000,97943079.000000
167487500.000000,97925000.000000
168087500.000000,97925000.000000
168178387.000000,97943079.000000
168255438.000000,97994562.000000
168306921.000000,98071613.000000
168325000.000000,98162500.000000
168325000.000000,98637500.000000
168306921.000000,98728387.000000
168255438.000000,98805438.000000
168178387.000000,98856921.000000
168087500.000000,98875000.000000
167487500.000000,98875000.000000
167396613.000000,98856921.000000
167319562.000000,98805438.000000
167268079.000000,98728387.000000
167250000.000000,98637500.000000
Z" /> 
<path style="fill:#000000; fill-opacity:1.0; 
stroke:#000000; stroke-width:1.000000; stroke-opacity:1; 
stroke-linecap:round; stroke-linejoin:round;fill-rule:evenodd;"
d="M 168975000.000000,98162500.000000
168993079.000000,98071613.000000
169044562.000000,97994562.000000
169121613.000000,97943079.000000
169212500.000000,97925000.000000
169812500.000000,97925000.000000
169903387.000000,97943079.000000
169980438.000000,97994562.000000
170031921.000000,98071613.000000
170050000.000000,98162500.000000
170050000.000000,98637500.000000
170031921.000000,98728387.000000
169980438.000000,98805438.000000
169903387.000000,98856921.000000
169812500.000000,98875000.000000
169212500.000000,98875000.000000
169121613.000000,98856921.000000
169044562.000000,98805438.000000
168993079.000000,98728387.000000
168975000.000000,98637500.000000
Z" /> 
</g>
<g >
</g>
<g style="fill:#000000; fill-opacity:1.0; 
stroke:#000000; stroke-width:1.000000; stroke-opacity:1; 
stroke-linecap:round; stroke-linejoin:round;">
</g>
<g style="fill:#000000; fill-opacity:1.0; 
stroke:#000000; stroke-width:1800000.000000; stroke-opacity:1; 
stroke-linecap:round; stroke-linejoin:round;">
</g>
<g style="fill:#000000; fill-opacity:0.0; 
stroke:#000000; stroke-width:1800000.000000; stroke-opacity:1; 
stroke-linecap:round; stroke-linejoin:round;">
<path d="M110797000 65450000
L112197000 65450000
" />
<path d="M110797000 70150000
L112197000 70150000
" />
<path d="M110797000 74850000
L112197000 74850000
" />
<path d="M115597000 65450000
L116997000 65450000
" />
<path d="M115597000 70150000
L116997000 70150000
" />
<path d="M115597000 74850000
L116997000 74850000
" />
</g>
<g >
</g>
<g style="fill:#000000; fill-opacity:0.0; 
stroke:#000000; stroke-width:1800000.000000; stroke-opacity:1; 
stroke-linecap:round; stroke-linejoin:round;">
</g>
<g style="fill:#000000; fill-opacity:0.0; 
stroke:#000000; stroke-width:1.000000; stroke-opacity:1; 
stroke-linecap:round; stroke-linejoin:round;">
</g>
<g style="fill:#000000; fill-opacity:1.0; 
stroke:#000000; stroke-width:1.000000; stroke-opacity:1; 
stroke-linecap:round; stroke-linejoin:round;">
<path style="fill:#000000; fill-opacity:1.0; 
stroke:#000000; stroke-width:1.000000; stroke-opacity:1; 
stroke-linecap:round; stroke-linejoin:round;fill-rule:evenodd;"
d="M 162900000.000000,95652500.000000
162918079.000000,95561613.000000
162969562.000000,95484562.000000
163046613.000000,95433079.000000
163137500.000000,95415000.000000
163637500.000000,95415000.000000
163728387.000000,95433079.000000
163805438.000000,95484562.000000
163856921.000000,95561613.000000
163875000.000000,95652500.000000
163875000.000000,96127500.000000
163856921.000000,96218387.000000
163805438.000000,96295438.000000
163728387.000000,96346921.000000
163637500.000000,96365000.000000
163137500.000000,96365000.000000
163046613.000000,96346921.000000
162969562.000000,96295438.000000
162918079.000000,96218387.000000
162900000.000000,96127500.000000
Z" /> 
<path style="fill:#000000; fill-opacity:1.0; 
stroke:#000000; stroke-width:1.000000; stroke-opacity:1; 
stroke-linecap:round; stroke-linejoin:round;fill-rule:evenodd;"
d="M 164725000.000000,95652500.000000
164743079.000000,95561613.000000
164794562.000000,95484562.000000
164871613.000000,95433079.000000
164962500.000000,95415000.000000
165462500.000000,95415000.000000
165553387.000000,95433079.000000
165630438.000000,95484562.000000
165681921.000000,95561613.000000
165700000.000000,95652500.000000
165700000.000000,96127500.000000
165681921.000000,96218387.000000
165630438.000000,96295438.000000
165553387.000000,96346921.000000
165462500.000000,96365000.000000
164962500.000000,96365000.000000
164871613.000000,96346921.000000
164794562.000000,96295438.000000
164743079.000000,96218387.000000
164725000.000000,96127500.000000
Z" /> 
</g>
<g >
</g>
<g style="fill:#000000; fill-opacity:1.0; 
stroke:#000000; stroke-width:1.000000; stroke-opacity:1; 
stroke-linecap:round; stroke-linejoin:round;">
<circle cx="116550000.000000" cy="175400000.000000" r="2100000.000000" /> 
<circle cx="116550000.000000" cy="52900000.000000" r="2100000.000000" /> 
</g>
<g >
</g>
<g style="fill:#000000; fill-opacity:1.0; 
stroke:#000000; stroke-width:1.000000; stroke-opacity:1; 
stroke-linecap:round; stroke-linejoin:round;">
<path style="fill:#000000; fill-opacity:1.0; 
stroke:#000000; stroke-width:1.000000; stroke-opacity:1; 
stroke-linecap:round; stroke-linejoin:round;fill-rule:evenodd;"
d="M 167250000.000000,95652500.000000
167268079.000000,95561613.000000
167319562.000000,95484562.000000
167396613.000000,95433079.000000
167487500.000000,95415000.000000
167987500.000000,95415000.000000
168078387.000000,95433079.000000
168155438.000000,95484562.000000
168206921.000000,95561613.000000
168225000.000000,95652500.000000
168225000.000000,96127500.000000
168206921.000000,96218387.000000
168155438.000000,96295438.000000
168078387.000000,96346921.000000
167987500.000000,96365000.000000
167487500.000000,96365000.000000
167396613.000000,96346921.000000
167319562.000000,96295438.000000
167268079.000000,96218387.000000
167250000.000000,96127500.000000
Z" /> 
<path style="fill:#000000; fill-opacity:1.0; 
stroke:#000000; stroke-width:1.000000; stroke-opacity:1; 
stroke-linecap:round; stroke-linejoin:round;fill-rule:evenodd;"
d="M 169075000.000000,95652500.000000
169093079.000000,95561613.000000
169144562.000000,95484562.000000
169221613.000000,95433079.000000
169312500.000000,95415000.000000
169812500.000000,95415000.000000
169903387.000000,95433079.000000
169980438.000000,95484562.000000
170031921.000000,95561613.000000
170050000.000000,95652500.000000
170050000.000000,96127500.000000
170031921.000000,96218387.000000
169980438.000000,96295438.000000
169903387.000000,96346921.000000
169812500.000000,96365000.000000
169312500.000000,96365000.000000
169221613.000000,96346921.000000
169144562.000000,96295438.000000
169093079.000000,96218387.000000
169075000.000000,96127500.000000
Z" /> 
</g>
<g >
</g>
<g style="fill:#000000; fill-opacity:1.0; 
stroke:#000000; stroke-width:1.000000; stroke-opacity:1; 
stroke-linecap:round; stroke-linejoin:round;">
<path style="fill:#000000; fill-opacity:1.0; 
stroke:#000000; stroke-width:1.000000; stroke-opacity:1; 
stroke-linecap:round; stroke-linejoin:round;fill-rule:evenodd;"
d="M 184650000.000000,95652500.000000
184668079.000000,95561613.000000
184719562.000000,95484562.000000
184796613.000000,95433079.000000
184887500.000000,95415000.000000
185487500.000000,95415000.000000
185578387.000000,95433079.000000
185655438.000000,95484562.000000
185706921.000000,95561613.000000
185725000.000000,95652500.000000
185725000.000000,96127500.000000
185706921.000000,96218387.000000
185655438.000000,96295438.000000
185578387.000000,96346921.000000
185487500.000000,96365000.000000
184887500.000000,96365000.000000
184796613.000000,96346921.000000
184719562.000000,96295438.000000
184668079.000000,96218387.000000
184650000.000000,96127500.000000
Z" /> 
<path style="fill:#000000; fill-opacity:1.0; 
stroke:#000000; stroke-width:1.000000; stroke-opacity:1; 
stroke-linecap:round; stroke-linejoin:round;fill-rule:evenodd;"
d="M 186375000.000000,95652500.000000
186393079.000000,95561613.000000
186444562.000000,95484562.000000
186521613.000000,95433079.000000
186612500.000000,95415000.000000
187212500.000000,95415000.000000
187303387.000000,95433079.000000
187380438.000000,95484562.000000
187431921.000000,95561613.000000
187450000.000000,95652500.000000
187450000.000000,96127500.000000
187431921.000000,96218387.000000
187380438.000000,96295438.000000
187303387.000000,96346921.000000
187212500.000000,96365000.000000
186612500.000000,96365000.000000
186521613.000000,96346921.000000
186444562.000000,96295438.000000
186393079.000000,96218387.000000
186375000.000000,96127500.000000
Z" /> 
</g>
<g >
</g>
<g style="fill:#000000; fill-opacity:1.0; 
stroke:#000000; stroke-width:1.000000; stroke-opacity:1; 
stroke-linecap:round; stroke-linejoin:round;">
<path style="fill:#000000; fill-opacity:1.0; 
stroke:#000000; stroke-width:1.000000; stroke-opacity:1; 
stroke-linecap:round; stroke-linejoin:round;fill-rule:evenodd;"
d="M 171600000.000000,95652500.000000
171618079.000000,95561613.000000
171669562.000000,95484562.000000
171746613.000000,95433079.000000
171837500.000000,95415000.000000
172337500.000000,95415000.000000
172428387.000000,95433079.000000
172505438.000000,95484562.000000
172556921.000000,95561613.000000
172575000.000000,95652500.000000
172575000.000000,96127500.000000
172556921.000000,96218387.000000
172505438.000000,96295438.000000
172428387.000000,96346921.000000
172337500.000000,96365000.000000
171837500.000000,96365000.000000
171746613.000000,96346921.000000
171669562.000000,96295438.000000
171618079.000000,96218387.000000
171600000.000000,96127500.000000
Z" /> 
<path style="fill:#000000; fill-opacity:1.0; 
stroke:#000000; stroke-width:1.000000; stroke-opacity:1; 
stroke-linecap:round; stroke-linejoin:round;fill-rule:evenodd;"
d="M 173425000.000000,95652500.000000
173443079.000000,95561613.000000
173494562.000000,95484562.000000
173571613.000000,95433079.000000
173662500.000000,95415000.000000
174162500.000000,95415000.000000
174253387.000000,95433079.000000
174330438.000000,95484562.000000
174381921.000000,95561613.000000
174400000.000000,95652500.000000
174400000.000000,96127500.000000
174381921.000000,96218387.000000
174330438.000000,96295438.000000
174253387.000000,96346921.000000
174162500.000000,96365000.000000
173662500.000000,96365000.000000
173571613.000000,96346921.000000
173494562.000000,96295438.000000
173443079.000000,96218387.000000
173425000.000000,96127500.000000
Z" /> 
</g>
<g >
</g>
<g style="fill:#000000; fill-opacity:1.0; 
stroke:#000000; stroke-width:1.000000; stroke-opacity:1; 
stroke-linecap:round; stroke-linejoin:round;">
<path style="fill:#000000; fill-opacity:1.0; 
stroke:#000000; stroke-width:1.000000; stroke-opacity:1; 
stroke-linecap:round; stroke-linejoin:round;fill-rule:evenodd;"
d="M 111622000.000000,150310000.000000
111622000.000000,148510000.000000
113422000.000000,148510000.000000
113422000.000000,150310000.000000
Z" /> 
<circle cx="115062000.000000" cy="149410000.000000" r="900000.000000" /> 
</g>
<g style="fill:#000000; fill-opacity:1.0; 
stroke:#000000; stroke-width:21200.000000; stroke-opacity:1; 
stroke-linecap:round; stroke-linejoin:round;">
</g>
<g >
</g>
<g style="fill:#000000; fill-opacity:1.0; 
stroke:#000000; stroke-width:21200.000000; stroke-opacity:1; 
stroke-linecap:round; stroke-linejoin:round;">
</g>
<g style="fill:#000000; fill-opacity:1.0; 
stroke:#000000; stroke-width:1.000000; stroke-opacity:1; 
stroke-linecap:round; stroke-linejoin:round;">
<path style="fill:#000000; fill-opacity:1.0; 
stroke:#000000; stroke-width:1.000000; stroke-opacity:1; 
stroke-linecap:round; stroke-linejoin:round;fill-rule:evenodd;"
d="M 111757000.000000,140690000.000000
111776030.000000,140594329.000000
111830223.000000,140513223.000000
111911329.000000,140459030.000000
112007000.000000,140440000.000000
113207000.000000,140440000.000000
113302671.000000,140459030.000000
113383777.000000,140513223.000000
113437970.000000,140594329.000000
113457000.000000,140690000.000000
113457000.000000,141890000.000000
113437970.000000,141985671.000000
113383777.000000,142066777.000000
113302671.000000,142120970.000000
113207000.000000,142140000.000000
112007000.000000,142140000.000000
111911329.000000,142120970.000000
111830223.000000,142066777.000000
111776030.000000,141985671.000000
111757000.000000,141890000.000000
Z" /> 
<circle cx="115147000.000000" cy="141290000.000000" r="850000.000000" /> 
</g>
<g style="fill:#000000; fill-opacity:1.0; 
stroke:#000000; stroke-width:21200.000000; stroke-opacity:1; 
stroke-linecap:round; stroke-linejoin:round;">
</g>
<g style="fill:#000000; fill-opacity:1.0; 
stroke:#000000; stroke-width:1.000000; stroke-opacity:1; 
stroke-linecap:round; stroke-linejoin:round;">
<circle cx="112607000.000000" cy="138750000.000000" r="850000.000000" /> 
</g>
<g style="fill:#000000; fill-opacity:1.0; 
stroke:#000000; stroke-width:21200.000000; stroke-opacity:1; 
stroke-linecap:round; stroke-linejoin:round;">
</g>
<g style="fill:#000000; fill-opacity:1.0; 
stroke:#000000; stroke-width:1.000000; stroke-opacity:1; 
stroke-linecap:round; stroke-linejoin:round;">
<circle cx="115147000.000000" cy="138750000.000000" r="850000.000000" /> 
</g>
<g style="fill:#000000; fill-opacity:1.0; 
stroke:#000000; stroke-width:21200.000000; stroke-opacity:1; 
stroke-linecap:round; stroke-linejoin:round;">
</g>
<g style="fill:#000000; fill-opacity:1.0; 
stroke:#000000; stroke-width:1.000000; stroke-opacity:1; 
stroke-linecap:round; stroke-linejoin:round;">
<circle cx="112607000.000000" cy="136210000.000000" r="850000.000000" /> 
</g>
<g style="fill:#000000; fill-opacity:1.0; 
stroke:#000000; stroke-width:21200.000000; stroke-opacity:1; 
stroke-linecap:round; stroke-linejoin:round;">
</g>
<g style="fill:#000000; fill-opacity:1.0; 
stroke:#000000; stroke-width:1.000000; stroke-opacity:1; 
stroke-linecap:round; stroke-linejoin:round;">
<circle cx="115147000.000000" cy="136210000.000000" r="850000.000000" /> 
</g>
<g style="fill:#000000; fill-opacity:1.0; 
stroke:#000000; stroke-width:21200.000000; stroke-opacity:1; 
stroke-linecap:round; stroke-linejoin:round;">
</g>
<g style="fill:#000000; fill-opacity:1.0; 
stroke:#000000; stroke-width:1.000000; stroke-opacity:1; 
stroke-linecap:round; stroke-linejoin:round;">
<circle cx="112607000.000000" cy="133670000.000000" r="850000.000000" /> 
</g>
<g style="fill:#000000; fill-opacity:1.0; 
stroke:#000000; stroke-width:21200.000000; stroke-opacity:1; 
stroke-linecap:round; stroke-linejoin:round;">
</g>
<g style="fill:#000000; fill-opacity:1.0; 
stroke:#000000; stroke-width:1.000000; stroke-opacity:1; 
stroke-linecap:round; stroke-linejoin:round;">
<circle cx="115147000.000000" cy="133670000.000000" r="850000.000000" /> 
</g>
<g style="fill:#000000; fill-opacity:1.0; 
stroke:#000000; stroke-width:21200.000000; stroke-opacity:1; 
stroke-linecap:round; stroke-linejoin:round;">
</g>
<g style="fill:#000000; fill-opacity:1.0; 
stroke:#000000; stroke-width:1.000000; stroke-opacity:1; 
stroke-linecap:round; stroke-linejoin:round;">
<circle cx="112607000.000000" cy="131130000.000000" r="850000.000000" /> 
</g>
<g style="fill:#000000; fill-opacity:1.0; 
stroke:#000000; stroke-width:21200.000000; stroke-opacity:1; 
stroke-linecap:round; stroke-linejoin:round;">
</g>
<g style="fill:#000000; fill-opacity:1.0; 
stroke:#000000; stroke-width:1.000000; stroke-opacity:1; 
stroke-linecap:round; stroke-linejoin:round;">
<circle cx="115147000.000000" cy="131130000.000000" r="850000.000000" /> 
</g>
<g style="fill:#000000; fill-opacity:1.0; 
stroke:#000000; stroke-width:21200.000000; stroke-opacity:1; 
stroke-linecap:round; stroke-linejoin:round;">
</g>
<g >
</g>
<g >
</g>
<g >
</g>
</g> 
</svg>
