<?xml version="1.0" standalone="no"?>
 <!DOCTYPE svg PUBLIC "-//W3C//DTD SVG 1.1//EN" 
 "http://www.w3.org/Graphics/SVG/1.1/DTD/svg11.dtd"> 
<svg
  xmlns:svg="http://www.w3.org/2000/svg"
  xmlns="http://www.w3.org/2000/svg"
  xmlns:xlink="http://www.w3.org/1999/xlink"
  version="1.1"
  width="29.700220cm" height="21.000720cm" viewBox="0 0 297002200 210007200">
<title>SVG Picture created as MiniLFO-F_Fab.svg date 2023/02/28 23:27:59 </title>
  <desc>Picture generated by PCBNEW </desc>
<g style="fill:#000000; fill-opacity:1.000000;stroke:#000000; stroke-opacity:1.000000;
stroke-linecap:round; stroke-linejoin:round;"
 transform="translate(0 0) scale(1 1)">
</g>
<g style="fill:#000000; fill-opacity:0.0; 
stroke:#000000; stroke-width:0.000000; stroke-opacity:1; 
stroke-linecap:round; stroke-linejoin:round;">
</g>
<g style="fill:#000000; fill-opacity:0.0; 
stroke:#000000; stroke-width:100000.000000; stroke-opacity:1; 
stroke-linecap:round; stroke-linejoin:round;">
<circle cx="114046000.000000" cy="70104000.000000" r="3048000.000000" /> 
</g>
<g style="fill:#000000; fill-opacity:0.0; 
stroke:#000000; stroke-width:150000.000000; stroke-opacity:1; 
stroke-linecap:round; stroke-linejoin:round;">
<g transform="rotate(-90.000000 121271000.000000 112525000.000000)">
<text x="121271000.000000" y="113025000.000000"
textLength="4861667.000000" font-size="1333333.000000" lengthAdjust="spacingAndGlyphs"
text-anchor="middle" opacity="0">B100k</text>
</g>
<g class="stroked-text"><desc>B100k</desc>
<path d="M121199571 114286904
L121247190 114144047
L121294809 114096428
L121390047 114048809
L121532904 114048809
L121628142 114096428
L121675761 114144047
L121723380 114239285
L121723380 114620238
L120723380 114620238
L120723380 114286904
L120771000 114191666
L120818619 114144047
L120913857 114096428
L121009095 114096428
L121104333 114144047
L121151952 114191666
L121199571 114286904
L121199571 114620238
" />
<path d="M121723380 113096428
L121723380 113667857
" />
<path d="M121723380 113382142
L120723380 113382142
L120866238 113477380
L120961476 113572619
L121009095 113667857
" />
<path d="M120723380 112477380
L120723380 112382142
L120771000 112286904
L120818619 112239285
L120913857 112191666
L121104333 112144047
L121342428 112144047
L121532904 112191666
L121628142 112239285
L121675761 112286904
L121723380 112382142
L121723380 112477380
L121675761 112572619
L121628142 112620238
L121532904 112667857
L121342428 112715476
L121104333 112715476
L120913857 112667857
L120818619 112620238
L120771000 112572619
L120723380 112477380
" />
<path d="M120723380 111525000
L120723380 111429761
L120771000 111334523
L120818619 111286904
L120913857 111239285
L121104333 111191666
L121342428 111191666
L121532904 111239285
L121628142 111286904
L121675761 111334523
L121723380 111429761
L121723380 111525000
L121675761 111620238
L121628142 111667857
L121532904 111715476
L121342428 111763095
L121104333 111763095
L120913857 111715476
L120818619 111667857
L120771000 111620238
L120723380 111525000
" />
<path d="M121723380 110763095
L120723380 110763095
" />
<path d="M121342428 110667857
L121723380 110382142
" />
<path d="M121056714 110382142
L121437666 110763095
" />
</g><g transform="rotate(-90.000000 121197000.000000 91189000.000000)">
<text x="121197000.000000" y="91689000.000000"
textLength="4861667.000000" font-size="1333333.000000" lengthAdjust="spacingAndGlyphs"
text-anchor="middle" opacity="0">B100k</text>
</g>
<g class="stroked-text"><desc>B100k</desc>
<path d="M121125571 92950904
L121173190 92808047
L121220809 92760428
L121316047 92712809
L121458904 92712809
L121554142 92760428
L121601761 92808047
L121649380 92903285
L121649380 93284238
L120649380 93284238
L120649380 92950904
L120697000 92855666
L120744619 92808047
L120839857 92760428
L120935095 92760428
L121030333 92808047
L121077952 92855666
L121125571 92950904
L121125571 93284238
" />
<path d="M121649380 91760428
L121649380 92331857
" />
<path d="M121649380 92046142
L120649380 92046142
L120792238 92141380
L120887476 92236619
L120935095 92331857
" />
<path d="M120649380 91141380
L120649380 91046142
L120697000 90950904
L120744619 90903285
L120839857 90855666
L121030333 90808047
L121268428 90808047
L121458904 90855666
L121554142 90903285
L121601761 90950904
L121649380 91046142
L121649380 91141380
L121601761 91236619
L121554142 91284238
L121458904 91331857
L121268428 91379476
L121030333 91379476
L120839857 91331857
L120744619 91284238
L120697000 91236619
L120649380 91141380
" />
<path d="M120649380 90189000
L120649380 90093761
L120697000 89998523
L120744619 89950904
L120839857 89903285
L121030333 89855666
L121268428 89855666
L121458904 89903285
L121554142 89950904
L121601761 89998523
L121649380 90093761
L121649380 90189000
L121601761 90284238
L121554142 90331857
L121458904 90379476
L121268428 90427095
L121030333 90427095
L120839857 90379476
L120744619 90331857
L120697000 90284238
L120649380 90189000
" />
<path d="M121649380 89427095
L120649380 89427095
" />
<path d="M121268428 89331857
L121649380 89046142
" />
<path d="M120982714 89046142
L121363666 89427095
" />
</g><text x="113897000.000000" y="161650000.000000"
textLength="7004524.000000" font-size="1333333.000000" lengthAdjust="spacingAndGlyphs"
text-anchor="middle" opacity="0">TRI_OUT1</text>
<g class="stroked-text"><desc>TRI_OUT1</desc>
<path d="M110587476 160602380
L111158904 160602380
" />
<path d="M110873190 161602380
L110873190 160602380
" />
<path d="M112063666 161602380
L111730333 161126190
" />
<path d="M111492238 161602380
L111492238 160602380
L111873190 160602380
L111968428 160650000
L112016047 160697619
L112063666 160792857
L112063666 160935714
L112016047 161030952
L111968428 161078571
L111873190 161126190
L111492238 161126190
" />
<path d="M112492238 161602380
L112492238 160602380
" />
<path d="M112730333 161697619
L113492238 161697619
" />
<path d="M113920809 160602380
L114111285 160602380
L114206523 160650000
L114301761 160745238
L114349380 160935714
L114349380 161269047
L114301761 161459523
L114206523 161554761
L114111285 161602380
L113920809 161602380
L113825571 161554761
L113730333 161459523
L113682714 161269047
L113682714 160935714
L113730333 160745238
L113825571 160650000
L113920809 160602380
" />
<path d="M114777952 160602380
L114777952 161411904
L114825571 161507142
L114873190 161554761
L114968428 161602380
L115158904 161602380
L115254142 161554761
L115301761 161507142
L115349380 161411904
L115349380 160602380
" />
<path d="M115682714 160602380
L116254142 160602380
" />
<path d="M115968428 161602380
L115968428 160602380
" />
<path d="M117111285 161602380
L116539857 161602380
" />
<path d="M116825571 161602380
L116825571 160602380
L116730333 160745238
L116635095 160840476
L116539857 160888095
" />
</g><text x="164300000.000000" y="102840000.000000"
textLength="3052143.000000" font-size="1333333.000000" lengthAdjust="spacingAndGlyphs"
text-anchor="middle" opacity="0">470</text>
<g class="stroked-text"><desc>470</desc>
<path d="M163538095 102125714
L163538095 102792380
" />
<path d="M163300000 101744761
L163061904 102459047
L163680952 102459047
" />
<path d="M163966666 101792380
L164633333 101792380
L164204761 102792380
" />
<path d="M165204761 101792380
L165300000 101792380
L165395238 101840000
L165442857 101887619
L165490476 101982857
L165538095 102173333
L165538095 102411428
L165490476 102601904
L165442857 102697142
L165395238 102744761
L165300000 102792380
L165204761 102792380
L165109523 102744761
L165061904 102697142
L165014285 102601904
L164966666 102411428
L164966666 102173333
L165014285 101982857
L165061904 101887619
L165109523 101840000
L165204761 101792380
" />
</g></g>
<g style="fill:#000000; fill-opacity:0.0; 
stroke:#000000; stroke-width:60000.000000; stroke-opacity:1; 
stroke-linecap:round; stroke-linejoin:round;">
<text x="164300000.000000" y="101110000.000000"
textLength="975952.000000" font-size="533333.000000" lengthAdjust="spacingAndGlyphs"
text-anchor="middle" opacity="0">R1</text>
<g class="stroked-text"><desc>R1</desc>
<path d="M164233333 101090952
L164100000 100900476
" />
<path d="M164004761 101090952
L164004761 100690952
L164157142 100690952
L164195238 100710000
L164214285 100729047
L164233333 100767142
L164233333 100824285
L164214285 100862380
L164195238 100881428
L164157142 100900476
L164004761 100900476
" />
<path d="M164614285 101090952
L164385714 101090952
" />
<path d="M164500000 101090952
L164500000 100690952
L164461904 100748095
L164423809 100786190
L164385714 100805238
" />
</g></g>
<g style="fill:#000000; fill-opacity:0.0; 
stroke:#000000; stroke-width:150000.000000; stroke-opacity:1; 
stroke-linecap:round; stroke-linejoin:round;">
<text x="135200000.000000" y="145930000.000000"
textLength="3744667.000000" font-size="1333333.000000" lengthAdjust="spacingAndGlyphs"
text-anchor="middle" opacity="0">22uF</text>
<g class="stroked-text"><desc>22uF</desc>
<path d="M133557142 144977619
L133604761 144930000
L133700000 144882380
L133938095 144882380
L134033333 144930000
L134080952 144977619
L134128571 145072857
L134128571 145168095
L134080952 145310952
L133509523 145882380
L134128571 145882380
" />
<path d="M134509523 144977619
L134557142 144930000
L134652380 144882380
L134890476 144882380
L134985714 144930000
L135033333 144977619
L135080952 145072857
L135080952 145168095
L135033333 145310952
L134461904 145882380
L135080952 145882380
" />
<path d="M135938095 145215714
L135938095 145882380
" />
<path d="M135509523 145215714
L135509523 145739523
L135557142 145834761
L135652380 145882380
L135795238 145882380
L135890476 145834761
L135938095 145787142
" />
<path d="M136747619 145358571
L136414285 145358571
" />
<path d="M136414285 145882380
L136414285 144882380
L136890476 144882380
" />
</g></g>
<g style="fill:#000000; fill-opacity:0.0; 
stroke:#000000; stroke-width:80000.000000; stroke-opacity:1; 
stroke-linecap:round; stroke-linejoin:round;">
<text x="135200000.000000" y="144000000.000000"
textLength="1171190.000000" font-size="666666.000000" lengthAdjust="spacingAndGlyphs"
text-anchor="middle" opacity="0">C6</text>
<g class="stroked-text"><desc>C6</desc>
<path d="M135116666 143928571
L135092857 143952380
L135021428 143976190
L134973809 143976190
L134902380 143952380
L134854761 143904761
L134830952 143857142
L134807142 143761904
L134807142 143690476
L134830952 143595238
L134854761 143547619
L134902380 143500000
L134973809 143476190
L135021428 143476190
L135092857 143500000
L135116666 143523809
" />
<path d="M135545238 143476190
L135450000 143476190
L135402380 143500000
L135378571 143523809
L135330952 143595238
L135307142 143690476
L135307142 143880952
L135330952 143928571
L135354761 143952380
L135402380 143976190
L135497619 143976190
L135545238 143952380
L135569047 143928571
L135592857 143880952
L135592857 143761904
L135569047 143714285
L135545238 143690476
L135497619 143666666
L135402380 143666666
L135354761 143690476
L135330952 143714285
L135307142 143761904
" />
</g></g>
<g style="fill:#000000; fill-opacity:0.0; 
stroke:#000000; stroke-width:150000.000000; stroke-opacity:1; 
stroke-linecap:round; stroke-linejoin:round;">
<text x="135000000.000000" y="127570000.000000"
textLength="3770667.000000" font-size="1333333.000000" lengthAdjust="spacingAndGlyphs"
text-anchor="middle" opacity="0">22uF</text>
<g class="stroked-text"><desc>22uF</desc>
<path d="M133357142 126617619
L133404761 126570000
L133500000 126522380
L133738095 126522380
L133833333 126570000
L133880952 126617619
L133928571 126712857
L133928571 126808095
L133880952 126950952
L133309523 127522380
L133928571 127522380
" />
<path d="M134309523 126617619
L134357142 126570000
L134452380 126522380
L134690476 126522380
L134785714 126570000
L134833333 126617619
L134880952 126712857
L134880952 126808095
L134833333 126950952
L134261904 127522380
L134880952 127522380
" />
<path d="M135738095 126855714
L135738095 127522380
" />
<path d="M135309523 126855714
L135309523 127379523
L135357142 127474761
L135452380 127522380
L135595238 127522380
L135690476 127474761
L135738095 127427142
" />
<path d="M136547619 126998571
L136214285 126998571
" />
<path d="M136214285 127522380
L136214285 126522380
L136690476 126522380
" />
</g></g>
<g style="fill:#000000; fill-opacity:0.0; 
stroke:#000000; stroke-width:80000.000000; stroke-opacity:1; 
stroke-linecap:round; stroke-linejoin:round;">
<text x="135000000.000000" y="129000000.000000"
textLength="1171190.000000" font-size="666666.000000" lengthAdjust="spacingAndGlyphs"
text-anchor="middle" opacity="0">C3</text>
<g class="stroked-text"><desc>C3</desc>
<path d="M134916666 128928571
L134892857 128952380
L134821428 128976190
L134773809 128976190
L134702380 128952380
L134654761 128904761
L134630952 128857142
L134607142 128761904
L134607142 128690476
L134630952 128595238
L134654761 128547619
L134702380 128500000
L134773809 128476190
L134821428 128476190
L134892857 128500000
L134916666 128523809
" />
<path d="M135083333 128476190
L135392857 128476190
L135226190 128666666
L135297619 128666666
L135345238 128690476
L135369047 128714285
L135392857 128761904
L135392857 128880952
L135369047 128928571
L135345238 128952380
L135297619 128976190
L135154761 128976190
L135107142 128952380
L135083333 128928571
" />
</g></g>
<g style="fill:#000000; fill-opacity:0.0; 
stroke:#000000; stroke-width:150000.000000; stroke-opacity:1; 
stroke-linecap:round; stroke-linejoin:round;">
<g transform="rotate(-90.000000 119051000.000000 103632000.000000)">
<text x="119051000.000000" y="104132000.000000"
textLength="4532571.000000" font-size="1333333.000000" lengthAdjust="spacingAndGlyphs"
text-anchor="middle" opacity="0">TL074</text>
</g>
<g class="stroked-text"><desc>TL074</desc>
<path d="M118503380 105751047
L118503380 105179619
" />
<path d="M119503380 105465333
L118503380 105465333
" />
<path d="M119503380 104370095
L119503380 104846285
L118503380 104846285
" />
<path d="M118503380 103846285
L118503380 103751047
L118551000 103655809
L118598619 103608190
L118693857 103560571
L118884333 103512952
L119122428 103512952
L119312904 103560571
L119408142 103608190
L119455761 103655809
L119503380 103751047
L119503380 103846285
L119455761 103941523
L119408142 103989142
L119312904 104036761
L119122428 104084380
L118884333 104084380
L118693857 104036761
L118598619 103989142
L118551000 103941523
L118503380 103846285
" />
<path d="M118503380 103179619
L118503380 102512952
L119503380 102941523
" />
<path d="M118836714 101703428
L119503380 101703428
" />
<path d="M118455761 101941523
L119170047 102179619
L119170047 101560571
" />
</g><g transform="rotate(-90.000000 113771000.000000 103632000.000000)">
<text x="113771000.000000" y="104122000.000000"
textLength="2155000.000000" font-size="1306666.000000" lengthAdjust="spacingAndGlyphs"
text-anchor="middle" opacity="0">U1</text>
</g>
<g class="stroked-text"><desc>U1</desc>
<path d="M113234333 104378666
L114027666 104378666
L114121000 104332000
L114167666 104285333
L114214333 104192000
L114214333 104005333
L114167666 103912000
L114121000 103865333
L114027666 103818666
L113234333 103818666
" />
<path d="M114214333 102838666
L114214333 103398666
" />
<path d="M114214333 103118666
L113234333 103118666
L113374333 103212000
L113467666 103305333
L113514333 103398666
" />
</g><text x="193900000.000000" y="94160000.000000"
textLength="3861667.000000" font-size="1333333.000000" lengthAdjust="spacingAndGlyphs"
text-anchor="middle" opacity="0">100k</text>
<g class="stroked-text"><desc>100k</desc>
<path d="M192828571 94112380
L192257142 94112380
" />
<path d="M192542857 94112380
L192542857 93112380
L192447619 93255238
L192352380 93350476
L192257142 93398095
" />
<path d="M193447619 93112380
L193542857 93112380
L193638095 93160000
L193685714 93207619
L193733333 93302857
L193780952 93493333
L193780952 93731428
L193733333 93921904
L193685714 94017142
L193638095 94064761
L193542857 94112380
L193447619 94112380
L193352380 94064761
L193304761 94017142
L193257142 93921904
L193209523 93731428
L193209523 93493333
L193257142 93302857
L193304761 93207619
L193352380 93160000
L193447619 93112380
" />
<path d="M194400000 93112380
L194495238 93112380
L194590476 93160000
L194638095 93207619
L194685714 93302857
L194733333 93493333
L194733333 93731428
L194685714 93921904
L194638095 94017142
L194590476 94064761
L194495238 94112380
L194400000 94112380
L194304761 94064761
L194257142 94017142
L194209523 93921904
L194161904 93731428
L194161904 93493333
L194209523 93302857
L194257142 93207619
L194304761 93160000
L194400000 93112380
" />
<path d="M195161904 94112380
L195161904 93112380
" />
<path d="M195257142 93731428
L195542857 94112380
" />
<path d="M195542857 93445714
L195161904 93826666
" />
</g></g>
<g style="fill:#000000; fill-opacity:0.0; 
stroke:#000000; stroke-width:60000.000000; stroke-opacity:1; 
stroke-linecap:round; stroke-linejoin:round;">
<text x="193900000.000000" y="92430000.000000"
textLength="975952.000000" font-size="533333.000000" lengthAdjust="spacingAndGlyphs"
text-anchor="middle" opacity="0">R4</text>
<g class="stroked-text"><desc>R4</desc>
<path d="M193833333 92410952
L193700000 92220476
" />
<path d="M193604761 92410952
L193604761 92010952
L193757142 92010952
L193795238 92030000
L193814285 92049047
L193833333 92087142
L193833333 92144285
L193814285 92182380
L193795238 92201428
L193757142 92220476
L193604761 92220476
" />
<path d="M194176190 92144285
L194176190 92410952
" />
<path d="M194080952 91991904
L193985714 92277619
L194233333 92277619
" />
</g></g>
<g style="fill:#000000; fill-opacity:0.0; 
stroke:#000000; stroke-width:150000.000000; stroke-opacity:1; 
stroke-linecap:round; stroke-linejoin:round;">
<text x="181700000.000000" y="97820000.000000"
textLength="1839905.000000" font-size="1333333.000000" lengthAdjust="spacingAndGlyphs"
text-anchor="middle" opacity="0">1k</text>
<g class="stroked-text"><desc>1k</desc>
<path d="M181580952 97772380
L181009523 97772380
" />
<path d="M181295238 97772380
L181295238 96772380
L181200000 96915238
L181104761 97010476
L181009523 97058095
" />
<path d="M182009523 97772380
L182009523 96772380
" />
<path d="M182104761 97391428
L182390476 97772380
" />
<path d="M182390476 97105714
L182009523 97486666
" />
</g></g>
<g style="fill:#000000; fill-opacity:0.0; 
stroke:#000000; stroke-width:60000.000000; stroke-opacity:1; 
stroke-linecap:round; stroke-linejoin:round;">
<text x="181700000.000000" y="96090000.000000"
textLength="975952.000000" font-size="533333.000000" lengthAdjust="spacingAndGlyphs"
text-anchor="middle" opacity="0">R8</text>
<g class="stroked-text"><desc>R8</desc>
<path d="M181633333 96070952
L181500000 95880476
" />
<path d="M181404761 96070952
L181404761 95670952
L181557142 95670952
L181595238 95690000
L181614285 95709047
L181633333 95747142
L181633333 95804285
L181614285 95842380
L181595238 95861428
L181557142 95880476
L181404761 95880476
" />
<path d="M181861904 95842380
L181823809 95823333
L181804761 95804285
L181785714 95766190
L181785714 95747142
L181804761 95709047
L181823809 95690000
L181861904 95670952
L181938095 95670952
L181976190 95690000
L181995238 95709047
L182014285 95747142
L182014285 95766190
L181995238 95804285
L181976190 95823333
L181938095 95842380
L181861904 95842380
L181823809 95861428
L181804761 95880476
L181785714 95918571
L181785714 95994761
L181804761 96032857
L181823809 96051904
L181861904 96070952
L181938095 96070952
L181976190 96051904
L181995238 96032857
L182014285 95994761
L182014285 95918571
L181995238 95880476
L181976190 95861428
L181938095 95842380
" />
</g></g>
<g style="fill:#000000; fill-opacity:0.0; 
stroke:#000000; stroke-width:150000.000000; stroke-opacity:1; 
stroke-linecap:round; stroke-linejoin:round;">
<text x="164300000.000000" y="100330000.000000"
textLength="3268476.000000" font-size="1333333.000000" lengthAdjust="spacingAndGlyphs"
text-anchor="middle" opacity="0">4.7k</text>
<g class="stroked-text"><desc>4.7k</desc>
<path d="M163371428 99615714
L163371428 100282380
" />
<path d="M163133333 99234761
L162895238 99949047
L163514285 99949047
" />
<path d="M163895238 100187142
L163942857 100234761
L163895238 100282380
L163847619 100234761
L163895238 100187142
L163895238 100282380
" />
<path d="M164276190 99282380
L164942857 99282380
L164514285 100282380
" />
<path d="M165323809 100282380
L165323809 99282380
" />
<path d="M165419047 99901428
L165704761 100282380
" />
<path d="M165704761 99615714
L165323809 99996666
" />
</g></g>
<g style="fill:#000000; fill-opacity:0.0; 
stroke:#000000; stroke-width:60000.000000; stroke-opacity:1; 
stroke-linecap:round; stroke-linejoin:round;">
<text x="164300000.000000" y="98600000.000000"
textLength="975952.000000" font-size="533333.000000" lengthAdjust="spacingAndGlyphs"
text-anchor="middle" opacity="0">R5</text>
<g class="stroked-text"><desc>R5</desc>
<path d="M164233333 98580952
L164100000 98390476
" />
<path d="M164004761 98580952
L164004761 98180952
L164157142 98180952
L164195238 98200000
L164214285 98219047
L164233333 98257142
L164233333 98314285
L164214285 98352380
L164195238 98371428
L164157142 98390476
L164004761 98390476
" />
<path d="M164595238 98180952
L164404761 98180952
L164385714 98371428
L164404761 98352380
L164442857 98333333
L164538095 98333333
L164576190 98352380
L164595238 98371428
L164614285 98409523
L164614285 98504761
L164595238 98542857
L164576190 98561904
L164538095 98580952
L164442857 98580952
L164404761 98561904
L164385714 98542857
" />
</g></g>
<g style="fill:#000000; fill-opacity:0.0; 
stroke:#000000; stroke-width:150000.000000; stroke-opacity:1; 
stroke-linecap:round; stroke-linejoin:round;">
<text x="177350000.000000" y="97820000.000000"
textLength="1839905.000000" font-size="1333333.000000" lengthAdjust="spacingAndGlyphs"
text-anchor="middle" opacity="0">1k</text>
<g class="stroked-text"><desc>1k</desc>
<path d="M177230952 97772380
L176659523 97772380
" />
<path d="M176945238 97772380
L176945238 96772380
L176850000 96915238
L176754761 97010476
L176659523 97058095
" />
<path d="M177659523 97772380
L177659523 96772380
" />
<path d="M177754761 97391428
L178040476 97772380
" />
<path d="M178040476 97105714
L177659523 97486666
" />
</g></g>
<g style="fill:#000000; fill-opacity:0.0; 
stroke:#000000; stroke-width:60000.000000; stroke-opacity:1; 
stroke-linecap:round; stroke-linejoin:round;">
<text x="177350000.000000" y="96090000.000000"
textLength="975952.000000" font-size="533333.000000" lengthAdjust="spacingAndGlyphs"
text-anchor="middle" opacity="0">R7</text>
<g class="stroked-text"><desc>R7</desc>
<path d="M177283333 96070952
L177150000 95880476
" />
<path d="M177054761 96070952
L177054761 95670952
L177207142 95670952
L177245238 95690000
L177264285 95709047
L177283333 95747142
L177283333 95804285
L177264285 95842380
L177245238 95861428
L177207142 95880476
L177054761 95880476
" />
<path d="M177416666 95670952
L177683333 95670952
L177511904 96070952
" />
</g></g>
<g style="fill:#000000; fill-opacity:0.0; 
stroke:#000000; stroke-width:150000.000000; stroke-opacity:1; 
stroke-linecap:round; stroke-linejoin:round;">
<text x="168650000.000000" y="100330000.000000"
textLength="4697048.000000" font-size="1333333.000000" lengthAdjust="spacingAndGlyphs"
text-anchor="middle" opacity="0">100nF</text>
<g class="stroked-text"><desc>100nF</desc>
<path d="M167102380 100282380
L166530952 100282380
" />
<path d="M166816666 100282380
L166816666 99282380
L166721428 99425238
L166626190 99520476
L166530952 99568095
" />
<path d="M167721428 99282380
L167816666 99282380
L167911904 99330000
L167959523 99377619
L168007142 99472857
L168054761 99663333
L168054761 99901428
L168007142 100091904
L167959523 100187142
L167911904 100234761
L167816666 100282380
L167721428 100282380
L167626190 100234761
L167578571 100187142
L167530952 100091904
L167483333 99901428
L167483333 99663333
L167530952 99472857
L167578571 99377619
L167626190 99330000
L167721428 99282380
" />
<path d="M168673809 99282380
L168769047 99282380
L168864285 99330000
L168911904 99377619
L168959523 99472857
L169007142 99663333
L169007142 99901428
L168959523 100091904
L168911904 100187142
L168864285 100234761
L168769047 100282380
L168673809 100282380
L168578571 100234761
L168530952 100187142
L168483333 100091904
L168435714 99901428
L168435714 99663333
L168483333 99472857
L168530952 99377619
L168578571 99330000
L168673809 99282380
" />
<path d="M169435714 99615714
L169435714 100282380
" />
<path d="M169435714 99710952
L169483333 99663333
L169578571 99615714
L169721428 99615714
L169816666 99663333
L169864285 99758571
L169864285 100282380
" />
<path d="M170673809 99758571
L170340476 99758571
" />
<path d="M170340476 100282380
L170340476 99282380
L170816666 99282380
" />
</g></g>
<g style="fill:#000000; fill-opacity:0.0; 
stroke:#000000; stroke-width:60000.000000; stroke-opacity:1; 
stroke-linecap:round; stroke-linejoin:round;">
<text x="168650000.000000" y="98600000.000000"
textLength="975952.000000" font-size="533333.000000" lengthAdjust="spacingAndGlyphs"
text-anchor="middle" opacity="0">C4</text>
<g class="stroked-text"><desc>C4</desc>
<path d="M168583333 98542857
L168564285 98561904
L168507142 98580952
L168469047 98580952
L168411904 98561904
L168373809 98523809
L168354761 98485714
L168335714 98409523
L168335714 98352380
L168354761 98276190
L168373809 98238095
L168411904 98200000
L168469047 98180952
L168507142 98180952
L168564285 98200000
L168583333 98219047
" />
<path d="M168926190 98314285
L168926190 98580952
" />
<path d="M168830952 98161904
L168735714 98447619
L168983333 98447619
" />
</g></g>
<g style="fill:#000000; fill-opacity:0.0; 
stroke:#000000; stroke-width:150000.000000; stroke-opacity:1; 
stroke-linecap:round; stroke-linejoin:round;">
<text x="164300000.000000" y="97820000.000000"
textLength="3744667.000000" font-size="1333333.000000" lengthAdjust="spacingAndGlyphs"
text-anchor="middle" opacity="0">100k</text>
<g class="stroked-text"><desc>100k</desc>
<path d="M163228571 97772380
L162657142 97772380
" />
<path d="M162942857 97772380
L162942857 96772380
L162847619 96915238
L162752380 97010476
L162657142 97058095
" />
<path d="M163847619 96772380
L163942857 96772380
L164038095 96820000
L164085714 96867619
L164133333 96962857
L164180952 97153333
L164180952 97391428
L164133333 97581904
L164085714 97677142
L164038095 97724761
L163942857 97772380
L163847619 97772380
L163752380 97724761
L163704761 97677142
L163657142 97581904
L163609523 97391428
L163609523 97153333
L163657142 96962857
L163704761 96867619
L163752380 96820000
L163847619 96772380
" />
<path d="M164800000 96772380
L164895238 96772380
L164990476 96820000
L165038095 96867619
L165085714 96962857
L165133333 97153333
L165133333 97391428
L165085714 97581904
L165038095 97677142
L164990476 97724761
L164895238 97772380
L164800000 97772380
L164704761 97724761
L164657142 97677142
L164609523 97581904
L164561904 97391428
L164561904 97153333
L164609523 96962857
L164657142 96867619
L164704761 96820000
L164800000 96772380
" />
<path d="M165561904 97772380
L165561904 96772380
" />
<path d="M165657142 97391428
L165942857 97772380
" />
<path d="M165942857 97105714
L165561904 97486666
" />
</g></g>
<g style="fill:#000000; fill-opacity:0.0; 
stroke:#000000; stroke-width:60000.000000; stroke-opacity:1; 
stroke-linecap:round; stroke-linejoin:round;">
<text x="164300000.000000" y="96090000.000000"
textLength="975952.000000" font-size="533333.000000" lengthAdjust="spacingAndGlyphs"
text-anchor="middle" opacity="0">R3</text>
<g class="stroked-text"><desc>R3</desc>
<path d="M164233333 96070952
L164100000 95880476
" />
<path d="M164004761 96070952
L164004761 95670952
L164157142 95670952
L164195238 95690000
L164214285 95709047
L164233333 95747142
L164233333 95804285
L164214285 95842380
L164195238 95861428
L164157142 95880476
L164004761 95880476
" />
<path d="M164366666 95670952
L164614285 95670952
L164480952 95823333
L164538095 95823333
L164576190 95842380
L164595238 95861428
L164614285 95899523
L164614285 95994761
L164595238 96032857
L164576190 96051904
L164538095 96070952
L164423809 96070952
L164385714 96051904
L164366666 96032857
" />
</g></g>
<g style="fill:#000000; fill-opacity:0.0; 
stroke:#000000; stroke-width:150000.000000; stroke-opacity:1; 
stroke-linecap:round; stroke-linejoin:round;">
<text x="114150000.000000" y="56500000.000000"
textLength="4363714.000000" font-size="1333333.000000" lengthAdjust="spacingAndGlyphs"
text-anchor="middle" opacity="0">REF**</text>
<g class="stroked-text"><desc>REF**</desc>
<path d="M112816666 56452380
L112483333 55976190
" />
<path d="M112245238 56452380
L112245238 55452380
L112626190 55452380
L112721428 55500000
L112769047 55547619
L112816666 55642857
L112816666 55785714
L112769047 55880952
L112721428 55928571
L112626190 55976190
L112245238 55976190
" />
<path d="M113245238 55928571
L113578571 55928571
" />
<path d="M113721428 56452380
L113245238 56452380
L113245238 55452380
L113721428 55452380
" />
<path d="M114483333 55928571
L114150000 55928571
" />
<path d="M114150000 56452380
L114150000 55452380
L114626190 55452380
" />
<path d="M115150000 55452380
L115150000 55690476
" />
<path d="M114911904 55595238
L115150000 55690476
L115388095 55595238
" />
<path d="M115007142 55880952
L115150000 55690476
L115292857 55880952
" />
<path d="M115911904 55452380
L115911904 55690476
" />
<path d="M115673809 55595238
L115911904 55690476
L116150000 55595238
" />
<path d="M115769047 55880952
L115911904 55690476
L116054761 55880952
" />
</g><text x="113800000.000000" y="49400000.000000"
textLength="8147381.000000" font-size="1333333.000000" lengthAdjust="spacingAndGlyphs"
text-anchor="middle" opacity="0">Panel_2HP</text>
<g class="stroked-text"><desc>Panel_2HP</desc>
<path d="M110061904 49352380
L110061904 48352380
L110442857 48352380
L110538095 48400000
L110585714 48447619
L110633333 48542857
L110633333 48685714
L110585714 48780952
L110538095 48828571
L110442857 48876190
L110061904 48876190
" />
<path d="M111490476 49352380
L111490476 48828571
L111442857 48733333
L111347619 48685714
L111157142 48685714
L111061904 48733333
" />
<path d="M111490476 49304761
L111395238 49352380
L111157142 49352380
L111061904 49304761
L111014285 49209523
L111014285 49114285
L111061904 49019047
L111157142 48971428
L111395238 48971428
L111490476 48923809
" />
<path d="M111966666 48685714
L111966666 49352380
" />
<path d="M111966666 48780952
L112014285 48733333
L112109523 48685714
L112252380 48685714
L112347619 48733333
L112395238 48828571
L112395238 49352380
" />
<path d="M113252380 49304761
L113157142 49352380
L112966666 49352380
L112871428 49304761
L112823809 49209523
L112823809 48828571
L112871428 48733333
L112966666 48685714
L113157142 48685714
L113252380 48733333
L113300000 48828571
L113300000 48923809
L112823809 49019047
" />
<path d="M113871428 49352380
L113776190 49304761
L113728571 49209523
L113728571 48352380
" />
<path d="M114014285 49447619
L114776190 49447619
" />
<path d="M114966666 48447619
L115014285 48400000
L115109523 48352380
L115347619 48352380
L115442857 48400000
L115490476 48447619
L115538095 48542857
L115538095 48638095
L115490476 48780952
L114919047 49352380
L115538095 49352380
" />
<path d="M115966666 49352380
L115966666 48352380
" />
<path d="M115966666 48828571
L116538095 48828571
" />
<path d="M116538095 49352380
L116538095 48352380
" />
<path d="M117014285 49352380
L117014285 48352380
L117395238 48352380
L117490476 48400000
L117538095 48447619
L117585714 48542857
L117585714 48685714
L117538095 48780952
L117490476 48828571
L117395238 48876190
L117014285 48876190
" />
</g><text x="168650000.000000" y="97820000.000000"
textLength="2909286.000000" font-size="1333333.000000" lengthAdjust="spacingAndGlyphs"
text-anchor="middle" opacity="0">10k</text>
<g class="stroked-text"><desc>10k</desc>
<path d="M168054761 97772380
L167483333 97772380
" />
<path d="M167769047 97772380
L167769047 96772380
L167673809 96915238
L167578571 97010476
L167483333 97058095
" />
<path d="M168673809 96772380
L168769047 96772380
L168864285 96820000
L168911904 96867619
L168959523 96962857
L169007142 97153333
L169007142 97391428
L168959523 97581904
L168911904 97677142
L168864285 97724761
L168769047 97772380
L168673809 97772380
L168578571 97724761
L168530952 97677142
L168483333 97581904
L168435714 97391428
L168435714 97153333
L168483333 96962857
L168530952 96867619
L168578571 96820000
L168673809 96772380
" />
<path d="M169435714 97772380
L169435714 96772380
" />
<path d="M169530952 97391428
L169816666 97772380
" />
<path d="M169816666 97105714
L169435714 97486666
" />
</g></g>
<g style="fill:#000000; fill-opacity:0.0; 
stroke:#000000; stroke-width:60000.000000; stroke-opacity:1; 
stroke-linecap:round; stroke-linejoin:round;">
<text x="168650000.000000" y="96090000.000000"
textLength="975952.000000" font-size="533333.000000" lengthAdjust="spacingAndGlyphs"
text-anchor="middle" opacity="0">R6</text>
<g class="stroked-text"><desc>R6</desc>
<path d="M168583333 96070952
L168450000 95880476
" />
<path d="M168354761 96070952
L168354761 95670952
L168507142 95670952
L168545238 95690000
L168564285 95709047
L168583333 95747142
L168583333 95804285
L168564285 95842380
L168545238 95861428
L168507142 95880476
L168354761 95880476
" />
<path d="M168926190 95670952
L168850000 95670952
L168811904 95690000
L168792857 95709047
L168754761 95766190
L168735714 95842380
L168735714 95994761
L168754761 96032857
L168773809 96051904
L168811904 96070952
L168888095 96070952
L168926190 96051904
L168945238 96032857
L168964285 95994761
L168964285 95899523
L168945238 95861428
L168926190 95842380
L168888095 95823333
L168811904 95823333
L168773809 95842380
L168754761 95861428
L168735714 95899523
" />
</g></g>
<g style="fill:#000000; fill-opacity:0.0; 
stroke:#000000; stroke-width:150000.000000; stroke-opacity:1; 
stroke-linecap:round; stroke-linejoin:round;">
<text x="186050000.000000" y="97820000.000000"
textLength="4697048.000000" font-size="1333333.000000" lengthAdjust="spacingAndGlyphs"
text-anchor="middle" opacity="0">100nF</text>
<g class="stroked-text"><desc>100nF</desc>
<path d="M184502380 97772380
L183930952 97772380
" />
<path d="M184216666 97772380
L184216666 96772380
L184121428 96915238
L184026190 97010476
L183930952 97058095
" />
<path d="M185121428 96772380
L185216666 96772380
L185311904 96820000
L185359523 96867619
L185407142 96962857
L185454761 97153333
L185454761 97391428
L185407142 97581904
L185359523 97677142
L185311904 97724761
L185216666 97772380
L185121428 97772380
L185026190 97724761
L184978571 97677142
L184930952 97581904
L184883333 97391428
L184883333 97153333
L184930952 96962857
L184978571 96867619
L185026190 96820000
L185121428 96772380
" />
<path d="M186073809 96772380
L186169047 96772380
L186264285 96820000
L186311904 96867619
L186359523 96962857
L186407142 97153333
L186407142 97391428
L186359523 97581904
L186311904 97677142
L186264285 97724761
L186169047 97772380
L186073809 97772380
L185978571 97724761
L185930952 97677142
L185883333 97581904
L185835714 97391428
L185835714 97153333
L185883333 96962857
L185930952 96867619
L185978571 96820000
L186073809 96772380
" />
<path d="M186835714 97105714
L186835714 97772380
" />
<path d="M186835714 97200952
L186883333 97153333
L186978571 97105714
L187121428 97105714
L187216666 97153333
L187264285 97248571
L187264285 97772380
" />
<path d="M188073809 97248571
L187740476 97248571
" />
<path d="M187740476 97772380
L187740476 96772380
L188216666 96772380
" />
</g></g>
<g style="fill:#000000; fill-opacity:0.0; 
stroke:#000000; stroke-width:60000.000000; stroke-opacity:1; 
stroke-linecap:round; stroke-linejoin:round;">
<text x="186050000.000000" y="96090000.000000"
textLength="975952.000000" font-size="533333.000000" lengthAdjust="spacingAndGlyphs"
text-anchor="middle" opacity="0">C5</text>
<g class="stroked-text"><desc>C5</desc>
<path d="M185983333 96032857
L185964285 96051904
L185907142 96070952
L185869047 96070952
L185811904 96051904
L185773809 96013809
L185754761 95975714
L185735714 95899523
L185735714 95842380
L185754761 95766190
L185773809 95728095
L185811904 95690000
L185869047 95670952
L185907142 95670952
L185964285 95690000
L185983333 95709047
" />
<path d="M186345238 95670952
L186154761 95670952
L186135714 95861428
L186154761 95842380
L186192857 95823333
L186288095 95823333
L186326190 95842380
L186345238 95861428
L186364285 95899523
L186364285 95994761
L186345238 96032857
L186326190 96051904
L186288095 96070952
L186192857 96070952
L186154761 96051904
L186135714 96032857
" />
</g></g>
<g style="fill:#000000; fill-opacity:0.0; 
stroke:#000000; stroke-width:150000.000000; stroke-opacity:1; 
stroke-linecap:round; stroke-linejoin:round;">
<text x="173000000.000000" y="97820000.000000"
textLength="3744667.000000" font-size="1333333.000000" lengthAdjust="spacingAndGlyphs"
text-anchor="middle" opacity="0">100k</text>
<g class="stroked-text"><desc>100k</desc>
<path d="M171928571 97772380
L171357142 97772380
" />
<path d="M171642857 97772380
L171642857 96772380
L171547619 96915238
L171452380 97010476
L171357142 97058095
" />
<path d="M172547619 96772380
L172642857 96772380
L172738095 96820000
L172785714 96867619
L172833333 96962857
L172880952 97153333
L172880952 97391428
L172833333 97581904
L172785714 97677142
L172738095 97724761
L172642857 97772380
L172547619 97772380
L172452380 97724761
L172404761 97677142
L172357142 97581904
L172309523 97391428
L172309523 97153333
L172357142 96962857
L172404761 96867619
L172452380 96820000
L172547619 96772380
" />
<path d="M173500000 96772380
L173595238 96772380
L173690476 96820000
L173738095 96867619
L173785714 96962857
L173833333 97153333
L173833333 97391428
L173785714 97581904
L173738095 97677142
L173690476 97724761
L173595238 97772380
L173500000 97772380
L173404761 97724761
L173357142 97677142
L173309523 97581904
L173261904 97391428
L173261904 97153333
L173309523 96962857
L173357142 96867619
L173404761 96820000
L173500000 96772380
" />
<path d="M174261904 97772380
L174261904 96772380
" />
<path d="M174357142 97391428
L174642857 97772380
" />
<path d="M174642857 97105714
L174261904 97486666
" />
</g></g>
<g style="fill:#000000; fill-opacity:0.0; 
stroke:#000000; stroke-width:60000.000000; stroke-opacity:1; 
stroke-linecap:round; stroke-linejoin:round;">
<text x="173000000.000000" y="96090000.000000"
textLength="975952.000000" font-size="533333.000000" lengthAdjust="spacingAndGlyphs"
text-anchor="middle" opacity="0">R2</text>
<g class="stroked-text"><desc>R2</desc>
<path d="M172933333 96070952
L172800000 95880476
" />
<path d="M172704761 96070952
L172704761 95670952
L172857142 95670952
L172895238 95690000
L172914285 95709047
L172933333 95747142
L172933333 95804285
L172914285 95842380
L172895238 95861428
L172857142 95880476
L172704761 95880476
" />
<path d="M173085714 95709047
L173104761 95690000
L173142857 95670952
L173238095 95670952
L173276190 95690000
L173295238 95709047
L173314285 95747142
L173314285 95785238
L173295238 95842380
L173066666 96070952
L173314285 96070952
" />
</g></g>
<g style="fill:#000000; fill-opacity:0.0; 
stroke:#000000; stroke-width:150000.000000; stroke-opacity:1; 
stroke-linecap:round; stroke-linejoin:round;">
<text x="113792000.000000" y="152870000.000000"
textLength="17125619.000000" font-size="1333333.000000" lengthAdjust="spacingAndGlyphs"
text-anchor="middle" opacity="0">LED_Dual_Bidirectional</text>
<g class="stroked-text"><desc>LED_Dual_Bidirectional</desc>
<path d="M105982476 152822380
L105506285 152822380
L105506285 151822380
" />
<path d="M106315809 152298571
L106649142 152298571
" />
<path d="M106792000 152822380
L106315809 152822380
L106315809 151822380
L106792000 151822380
" />
<path d="M107220571 152822380
L107220571 151822380
L107458666 151822380
L107601523 151870000
L107696761 151965238
L107744380 152060476
L107792000 152250952
L107792000 152393809
L107744380 152584285
L107696761 152679523
L107601523 152774761
L107458666 152822380
L107220571 152822380
" />
<path d="M107982476 152917619
L108744380 152917619
" />
<path d="M108982476 152822380
L108982476 151822380
L109220571 151822380
L109363428 151870000
L109458666 151965238
L109506285 152060476
L109553904 152250952
L109553904 152393809
L109506285 152584285
L109458666 152679523
L109363428 152774761
L109220571 152822380
L108982476 152822380
" />
<path d="M110411047 152155714
L110411047 152822380
" />
<path d="M109982476 152155714
L109982476 152679523
L110030095 152774761
L110125333 152822380
L110268190 152822380
L110363428 152774761
L110411047 152727142
" />
<path d="M111315809 152822380
L111315809 152298571
L111268190 152203333
L111172952 152155714
L110982476 152155714
L110887238 152203333
" />
<path d="M111315809 152774761
L111220571 152822380
L110982476 152822380
L110887238 152774761
L110839619 152679523
L110839619 152584285
L110887238 152489047
L110982476 152441428
L111220571 152441428
L111315809 152393809
" />
<path d="M111934857 152822380
L111839619 152774761
L111792000 152679523
L111792000 151822380
" />
<path d="M112077714 152917619
L112839619 152917619
" />
<path d="M113411047 152298571
L113553904 152346190
L113601523 152393809
L113649142 152489047
L113649142 152631904
L113601523 152727142
L113553904 152774761
L113458666 152822380
L113077714 152822380
L113077714 151822380
L113411047 151822380
L113506285 151870000
L113553904 151917619
L113601523 152012857
L113601523 152108095
L113553904 152203333
L113506285 152250952
L113411047 152298571
L113077714 152298571
" />
<path d="M114077714 152822380
L114077714 152155714
" />
<path d="M114077714 151822380
L114030095 151870000
L114077714 151917619
L114125333 151870000
L114077714 151822380
L114077714 151917619
" />
<path d="M114982476 152822380
L114982476 151822380
" />
<path d="M114982476 152774761
L114887238 152822380
L114696761 152822380
L114601523 152774761
L114553904 152727142
L114506285 152631904
L114506285 152346190
L114553904 152250952
L114601523 152203333
L114696761 152155714
L114887238 152155714
L114982476 152203333
" />
<path d="M115458666 152822380
L115458666 152155714
" />
<path d="M115458666 151822380
L115411047 151870000
L115458666 151917619
L115506285 151870000
L115458666 151822380
L115458666 151917619
" />
<path d="M115934857 152822380
L115934857 152155714
" />
<path d="M115934857 152346190
L115982476 152250952
L116030095 152203333
L116125333 152155714
L116220571 152155714
" />
<path d="M116934857 152774761
L116839619 152822380
L116649142 152822380
L116553904 152774761
L116506285 152679523
L116506285 152298571
L116553904 152203333
L116649142 152155714
L116839619 152155714
L116934857 152203333
L116982476 152298571
L116982476 152393809
L116506285 152489047
" />
<path d="M117839619 152774761
L117744380 152822380
L117553904 152822380
L117458666 152774761
L117411047 152727142
L117363428 152631904
L117363428 152346190
L117411047 152250952
L117458666 152203333
L117553904 152155714
L117744380 152155714
L117839619 152203333
" />
<path d="M118125333 152155714
L118506285 152155714
" />
<path d="M118268190 151822380
L118268190 152679523
L118315809 152774761
L118411047 152822380
L118506285 152822380
" />
<path d="M118839619 152822380
L118839619 152155714
" />
<path d="M118839619 151822380
L118792000 151870000
L118839619 151917619
L118887238 151870000
L118839619 151822380
L118839619 151917619
" />
<path d="M119458666 152822380
L119363428 152774761
L119315809 152727142
L119268190 152631904
L119268190 152346190
L119315809 152250952
L119363428 152203333
L119458666 152155714
L119601523 152155714
L119696761 152203333
L119744380 152250952
L119792000 152346190
L119792000 152631904
L119744380 152727142
L119696761 152774761
L119601523 152822380
L119458666 152822380
" />
<path d="M120220571 152155714
L120220571 152822380
" />
<path d="M120220571 152250952
L120268190 152203333
L120363428 152155714
L120506285 152155714
L120601523 152203333
L120649142 152298571
L120649142 152822380
" />
<path d="M121553904 152822380
L121553904 152298571
L121506285 152203333
L121411047 152155714
L121220571 152155714
L121125333 152203333
" />
<path d="M121553904 152774761
L121458666 152822380
L121220571 152822380
L121125333 152774761
L121077714 152679523
L121077714 152584285
L121125333 152489047
L121220571 152441428
L121458666 152441428
L121553904 152393809
" />
<path d="M122172952 152822380
L122077714 152774761
L122030095 152679523
L122030095 151822380
" />
</g></g>
<g style="fill:#000000; fill-opacity:0.0; 
stroke:#000000; stroke-width:100000.000000; stroke-opacity:1; 
stroke-linecap:round; stroke-linejoin:round;">
<path d="M109981000 77720000
L109981000 84920000
" />
<path d="M112481000 77720000
L109981000 77720000
" />
<path d="M109981000 84920000
L112481000 84920000
" />
<path d="M112481000 84920000
L112481000 77720000
" />
<path d="M114719500 83118718
L115219500 83118718
" />
<path d="M114969500 83368718
L114969500 82868718
" />
<circle cx="116057000.000000" cy="81235113.000000" r="2500000.000000" /> 
<circle cx="113771000.000000" cy="112525000.000000" r="3500000.000000" /> 
<path d="M118521000 119025000
L109021000 119025000
" />
<path d="M109021000 119025000
L109021000 107675000
" />
<path d="M118521000 107675000
L109021000 107675000
" />
<path d="M118521000 119025000
L118521000 107675000
" />
<path d="M108947000 97689000
L108947000 86339000
" />
<path d="M118447000 86339000
L108947000 86339000
" />
<path d="M118447000 97689000
L118447000 86339000
" />
<path d="M118447000 97689000
L108947000 97689000
" />
<circle cx="113697000.000000" cy="91189000.000000" r="3500000.000000" /> 
<path d="M118397000 155180000
L109397000 155180000
" />
<path d="M109397000 165630000
L109397000 155230000
" />
<path d="M113897000 153150000
L113897000 155180000
" />
<path d="M118397000 165630000
L118397000 155230000
" />
<path d="M118397000 165630000
L109397000 165630000
" />
<circle cx="113897000.000000" cy="159630000.000000" r="1800000.000000" /> 
<path d="M163500000 100497500
L165100000 100497500
" />
<path d="M163500000 101322500
L163500000 100497500
" />
<path d="M165100000 101322500
L163500000 101322500
" />
<path d="M165100000 100497500
L165100000 101322500
" />
<path d="M136200000 143125000
L136200000 144375000
" />
<path d="M136200000 144375000
L134200000 144375000
" />
<path d="M134200000 143125000
L136200000 143125000
" />
<path d="M134200000 144375000
L134200000 143125000
" />
<path d="M134000000 129375000
L134000000 128125000
" />
<path d="M136000000 128125000
L136000000 129375000
" />
<path d="M134000000 128125000
L136000000 128125000
" />
<path d="M136000000 129375000
L134000000 129375000
" />
<path d="M118096000 105582000
L110421000 105582000
" />
<path d="M109446000 101682000
L118096000 101682000
" />
<path d="M110421000 105582000
L109446000 104607000
" />
<path d="M109446000 104607000
L109446000 101682000
" />
<path d="M118096000 101682000
L118096000 105582000
" />
<path d="M193100000 91817500
L194700000 91817500
" />
<path d="M194700000 92642500
L193100000 92642500
" />
<path d="M194700000 91817500
L194700000 92642500
" />
<path d="M193100000 92642500
L193100000 91817500
" />
<path d="M180900000 96302500
L180900000 95477500
" />
<path d="M180900000 95477500
L182500000 95477500
" />
<path d="M182500000 95477500
L182500000 96302500
" />
<path d="M182500000 96302500
L180900000 96302500
" />
<path d="M163500000 97987500
L165100000 97987500
" />
<path d="M165100000 98812500
L163500000 98812500
" />
<path d="M165100000 97987500
L165100000 98812500
" />
<path d="M163500000 98812500
L163500000 97987500
" />
<path d="M178150000 95477500
L178150000 96302500
" />
<path d="M176550000 95477500
L178150000 95477500
" />
<path d="M178150000 96302500
L176550000 96302500
" />
<path d="M176550000 96302500
L176550000 95477500
" />
<path d="M167850000 98000000
L169450000 98000000
" />
<path d="M169450000 98800000
L167850000 98800000
" />
<path d="M167850000 98800000
L167850000 98000000
" />
<path d="M169450000 98000000
L169450000 98800000
" />
<path d="M165100000 96302500
L163500000 96302500
" />
<path d="M163500000 96302500
L163500000 95477500
" />
<path d="M163500000 95477500
L165100000 95477500
" />
<path d="M165100000 95477500
L165100000 96302500
" />
<path d="M167850000 96302500
L167850000 95477500
" />
<path d="M169450000 96302500
L167850000 96302500
" />
<path d="M169450000 95477500
L169450000 96302500
" />
<path d="M167850000 95477500
L169450000 95477500
" />
<path d="M185250000 95490000
L186850000 95490000
" />
<path d="M186850000 96290000
L185250000 96290000
" />
<path d="M185250000 96290000
L185250000 95490000
" />
<path d="M186850000 95490000
L186850000 96290000
" />
<path d="M172200000 96302500
L172200000 95477500
" />
<path d="M173800000 96302500
L172200000 96302500
" />
<path d="M172200000 95477500
L173800000 95477500
" />
<path d="M173800000 95477500
L173800000 96302500
" />
<path d="M112292000 148243810
L112292000 150576190
" />
<path d="M112291444.919901 150575476.062212 A1900000.000000 1900000.000000 0.0 1 0 112291999.816364 148243809.857231" />
<circle cx="113792000.000000" cy="149410000.000000" r="1500000.000000" /> 
<g >
</g>
<g >
</g>
<g >
</g>
<g >
</g>
<g >
</g>
<g >
</g>
<g >
</g>
<g >
</g>
<g >
</g>
<g >
</g>
<g >
</g>
<g >
</g>
<g >
</g>
<g >
</g>
<g >
</g>
<g >
</g>
<g >
</g>
<g >
</g>
<g >
</g>
<g >
</g>
<g >
</g>
<g >
</g>
<g >
</g>
<g >
</g>
<g >
</g>
</g> 
</svg>
