%TF.GenerationSoftware,KiCad,Pcbnew,6.0.10+dfsg-1~bpo11+1*%
%TF.CreationDate,2023-02-04T10:57:42+08:00*%
%TF.ProjectId,MiniLFO,4d696e69-4c46-44f2-9e6b-696361645f70,rev?*%
%TF.SameCoordinates,Original*%
%TF.FileFunction,Drillmap*%
%TF.FilePolarity,Positive*%
%FSLAX45Y45*%
G04 Gerber Fmt 4.5, Leading zero omitted, Abs format (unit mm)*
G04 Created by KiCad (PCBNEW 6.0.10+dfsg-1~bpo11+1) date 2023-02-04 10:57:42*
%MOMM*%
%LPD*%
G01*
G04 APERTURE LIST*
%ADD10C,0.100000*%
%ADD11C,0.200000*%
%ADD12C,0.040000*%
%ADD13C,0.090000*%
%ADD14C,0.122000*%
%ADD15C,0.142000*%
%ADD16C,0.143000*%
%ADD17C,0.320000*%
%ADD18C,0.700000*%
G04 APERTURE END LIST*
D10*
X13000000Y-16600000D02*
X13000000Y-6300000D01*
X14000000Y-6300000D02*
X13995000Y-16600000D01*
X13000000Y-6300000D02*
X14000000Y-6300000D01*
X13995000Y-16600000D02*
X13000000Y-16600000D01*
D11*
D12*
X13055000Y-16430000D02*
X13095000Y-16470000D01*
X13095000Y-16430000D02*
X13055000Y-16470000D01*
X13130000Y-16305000D02*
X13170000Y-16345000D01*
X13170000Y-16305000D02*
X13130000Y-16345000D01*
X13180000Y-12905000D02*
X13220000Y-12945000D01*
X13220000Y-12905000D02*
X13180000Y-12945000D01*
X13180000Y-13105000D02*
X13220000Y-13145000D01*
X13220000Y-13105000D02*
X13180000Y-13145000D01*
X13180000Y-13330000D02*
X13220000Y-13370000D01*
X13220000Y-13330000D02*
X13180000Y-13370000D01*
X13180000Y-13430000D02*
X13220000Y-13470000D01*
X13220000Y-13430000D02*
X13180000Y-13470000D01*
X13180000Y-13655000D02*
X13220000Y-13695000D01*
X13220000Y-13655000D02*
X13180000Y-13695000D01*
X13180000Y-13780000D02*
X13220000Y-13820000D01*
X13220000Y-13780000D02*
X13180000Y-13820000D01*
X13180000Y-13955000D02*
X13220000Y-13995000D01*
X13220000Y-13955000D02*
X13180000Y-13995000D01*
X13180000Y-14730000D02*
X13220000Y-14770000D01*
X13220000Y-14730000D02*
X13180000Y-14770000D01*
X13205000Y-12455000D02*
X13245000Y-12495000D01*
X13245000Y-12455000D02*
X13205000Y-12495000D01*
X13205000Y-14205000D02*
X13245000Y-14245000D01*
X13245000Y-14205000D02*
X13205000Y-14245000D01*
X13205000Y-14280000D02*
X13245000Y-14320000D01*
X13245000Y-14280000D02*
X13205000Y-14320000D01*
X13205000Y-15155000D02*
X13245000Y-15195000D01*
X13245000Y-15155000D02*
X13205000Y-15195000D01*
X13230000Y-12630000D02*
X13270000Y-12670000D01*
X13270000Y-12630000D02*
X13230000Y-12670000D01*
X13230000Y-14455000D02*
X13270000Y-14495000D01*
X13270000Y-14455000D02*
X13230000Y-14495000D01*
X13230000Y-15780000D02*
X13270000Y-15820000D01*
X13270000Y-15780000D02*
X13230000Y-15820000D01*
X13230000Y-16055000D02*
X13270000Y-16095000D01*
X13270000Y-16055000D02*
X13230000Y-16095000D01*
X13255000Y-15455000D02*
X13295000Y-15495000D01*
X13295000Y-15455000D02*
X13255000Y-15495000D01*
X13255000Y-16430000D02*
X13295000Y-16470000D01*
X13295000Y-16430000D02*
X13255000Y-16470000D01*
X13305000Y-14530000D02*
X13345000Y-14570000D01*
X13345000Y-14530000D02*
X13305000Y-14570000D01*
X13305000Y-15680000D02*
X13345000Y-15720000D01*
X13345000Y-15680000D02*
X13305000Y-15720000D01*
X13355000Y-12680000D02*
X13395000Y-12720000D01*
X13395000Y-12680000D02*
X13355000Y-12720000D01*
X13430000Y-14555000D02*
X13470000Y-14595000D01*
X13470000Y-14555000D02*
X13430000Y-14595000D01*
X13655000Y-14555000D02*
X13695000Y-14595000D01*
X13695000Y-14555000D02*
X13655000Y-14595000D01*
X13680000Y-15430000D02*
X13720000Y-15470000D01*
X13720000Y-15430000D02*
X13680000Y-15470000D01*
X13705000Y-15580000D02*
X13745000Y-15620000D01*
X13745000Y-15580000D02*
X13705000Y-15620000D01*
X13705000Y-15880000D02*
X13745000Y-15920000D01*
X13745000Y-15880000D02*
X13705000Y-15920000D01*
X13705000Y-16355000D02*
X13745000Y-16395000D01*
X13745000Y-16355000D02*
X13705000Y-16395000D01*
X13730000Y-15205000D02*
X13770000Y-15245000D01*
X13770000Y-15205000D02*
X13730000Y-15245000D01*
X13730000Y-16055000D02*
X13770000Y-16095000D01*
X13770000Y-16055000D02*
X13730000Y-16095000D01*
X13755000Y-14205000D02*
X13795000Y-14245000D01*
X13795000Y-14205000D02*
X13755000Y-14245000D01*
X13755000Y-15655000D02*
X13795000Y-15695000D01*
X13795000Y-15655000D02*
X13755000Y-15695000D01*
X13780000Y-14405000D02*
X13820000Y-14445000D01*
X13820000Y-14405000D02*
X13780000Y-14445000D01*
X13780000Y-16255000D02*
X13820000Y-16295000D01*
X13820000Y-16255000D02*
X13780000Y-16295000D01*
D13*
X13305000Y-6545000D02*
G75*
G03*
X13305000Y-6545000I-45000J0D01*
G01*
D11*
X13195000Y-6590000D02*
X13325000Y-6590000D01*
X13195000Y-6500000D02*
X13325000Y-6500000D01*
X13325000Y-6590000D02*
G75*
G03*
X13325000Y-6500000I0J45000D01*
G01*
X13195000Y-6500000D02*
G75*
G03*
X13195000Y-6590000I0J-45000D01*
G01*
D13*
X13305000Y-7015000D02*
G75*
G03*
X13305000Y-7015000I-45000J0D01*
G01*
D11*
X13195000Y-7060000D02*
X13325000Y-7060000D01*
X13195000Y-6970000D02*
X13325000Y-6970000D01*
X13325000Y-7060000D02*
G75*
G03*
X13325000Y-6970000I0J45000D01*
G01*
X13195000Y-6970000D02*
G75*
G03*
X13195000Y-7060000I0J-45000D01*
G01*
D13*
X13305000Y-7485000D02*
G75*
G03*
X13305000Y-7485000I-45000J0D01*
G01*
D11*
X13195000Y-7530000D02*
X13325000Y-7530000D01*
X13195000Y-7440000D02*
X13325000Y-7440000D01*
X13325000Y-7530000D02*
G75*
G03*
X13325000Y-7440000I0J45000D01*
G01*
X13195000Y-7440000D02*
G75*
G03*
X13195000Y-7530000I0J-45000D01*
G01*
D13*
X13407500Y-14941000D02*
G75*
G03*
X13407500Y-14941000I-45000J0D01*
G01*
X13661500Y-14941000D02*
G75*
G03*
X13661500Y-14941000I-45000J0D01*
G01*
X13785000Y-6545000D02*
G75*
G03*
X13785000Y-6545000I-45000J0D01*
G01*
D11*
X13675000Y-6590000D02*
X13805000Y-6590000D01*
X13675000Y-6500000D02*
X13805000Y-6500000D01*
X13805000Y-6590000D02*
G75*
G03*
X13805000Y-6500000I0J45000D01*
G01*
X13675000Y-6500000D02*
G75*
G03*
X13675000Y-6590000I0J-45000D01*
G01*
D13*
X13785000Y-7015000D02*
G75*
G03*
X13785000Y-7015000I-45000J0D01*
G01*
D11*
X13675000Y-7060000D02*
X13805000Y-7060000D01*
X13675000Y-6970000D02*
X13805000Y-6970000D01*
X13805000Y-7060000D02*
G75*
G03*
X13805000Y-6970000I0J45000D01*
G01*
X13675000Y-6970000D02*
G75*
G03*
X13675000Y-7060000I0J-45000D01*
G01*
D13*
X13785000Y-7485000D02*
G75*
G03*
X13785000Y-7485000I-45000J0D01*
G01*
D11*
X13675000Y-7530000D02*
X13805000Y-7530000D01*
X13675000Y-7440000D02*
X13805000Y-7440000D01*
X13805000Y-7530000D02*
G75*
G03*
X13805000Y-7440000I0J45000D01*
G01*
X13675000Y-7440000D02*
G75*
G03*
X13675000Y-7530000I0J-45000D01*
G01*
D10*
X13371000Y-13063000D02*
X13371000Y-13163000D01*
X13321000Y-13113000D02*
X13421000Y-13113000D01*
X13371000Y-13317000D02*
X13371000Y-13417000D01*
X13321000Y-13367000D02*
X13421000Y-13367000D01*
X13371000Y-13571000D02*
X13371000Y-13671000D01*
X13321000Y-13621000D02*
X13421000Y-13621000D01*
X13371000Y-13825000D02*
X13371000Y-13925000D01*
X13321000Y-13875000D02*
X13421000Y-13875000D01*
X13371000Y-14079000D02*
X13371000Y-14179000D01*
X13321000Y-14129000D02*
X13421000Y-14129000D01*
X13625000Y-13063000D02*
X13625000Y-13163000D01*
X13575000Y-13113000D02*
X13675000Y-13113000D01*
X13625000Y-13317000D02*
X13625000Y-13417000D01*
X13575000Y-13367000D02*
X13675000Y-13367000D01*
X13625000Y-13571000D02*
X13625000Y-13671000D01*
X13575000Y-13621000D02*
X13675000Y-13621000D01*
X13625000Y-13825000D02*
X13625000Y-13925000D01*
X13575000Y-13875000D02*
X13675000Y-13875000D01*
X13625000Y-14079000D02*
X13625000Y-14179000D01*
X13575000Y-14129000D02*
X13675000Y-14129000D01*
D14*
X13543134Y-15358134D02*
X13543134Y-15271866D01*
X13456866Y-15271866D01*
X13456866Y-15358134D01*
X13543134Y-15358134D01*
D15*
X13500000Y-15696000D02*
X13571000Y-15625000D01*
X13500000Y-15554000D01*
X13429000Y-15625000D01*
X13500000Y-15696000D01*
D16*
X13428500Y-16383500D02*
X13571500Y-16526500D01*
X13571500Y-16383500D02*
X13428500Y-16526500D01*
X13571500Y-16455000D02*
G75*
G03*
X13571500Y-16455000I-71500J0D01*
G01*
D17*
X11495000Y-5130000D02*
X11815000Y-5450000D01*
X11815000Y-5130000D02*
X11495000Y-5450000D01*
X11655000Y-5130000D02*
X11655000Y-5450000D01*
X11495000Y-5290000D02*
X11815000Y-5290000D01*
D11*
X11495000Y-5290000D02*
X11495000Y-5290000D01*
X11815000Y-5290000D02*
X11815000Y-5290000D01*
X11495000Y-5290000D02*
G75*
G03*
X11815000Y-5290000I160000J0D01*
G01*
X11815000Y-5290000D02*
G75*
G03*
X11495000Y-5290000I-160000J0D01*
G01*
D17*
X11495000Y-17380000D02*
X11815000Y-17700000D01*
X11815000Y-17380000D02*
X11495000Y-17700000D01*
X11655000Y-17380000D02*
X11655000Y-17700000D01*
X11495000Y-17540000D02*
X11815000Y-17540000D01*
D11*
X11495000Y-17540000D02*
X11495000Y-17540000D01*
X11815000Y-17540000D02*
X11815000Y-17540000D01*
X11495000Y-17540000D02*
G75*
G03*
X11815000Y-17540000I160000J0D01*
G01*
X11815000Y-17540000D02*
G75*
G03*
X11495000Y-17540000I-160000J0D01*
G01*
D18*
X11045000Y-7024250D02*
X11745000Y-7724250D01*
X11745000Y-7024250D02*
X11045000Y-7724250D01*
X11642490Y-7621740D02*
X11642490Y-7126760D01*
X11147510Y-7126760D01*
X11147510Y-7621740D01*
X11642490Y-7621740D01*
X11045000Y-9025000D02*
X11745000Y-9725000D01*
X11745000Y-9025000D02*
X11045000Y-9725000D01*
X11642490Y-9622490D02*
X11642490Y-9127510D01*
X11147510Y-9127510D01*
X11147510Y-9622490D01*
X11642490Y-9622490D01*
D11*
X13252619Y-16915476D02*
X13252619Y-16715476D01*
X13300238Y-16715476D01*
X13328809Y-16725000D01*
X13347857Y-16744048D01*
X13357381Y-16763095D01*
X13366905Y-16801190D01*
X13366905Y-16829762D01*
X13357381Y-16867857D01*
X13347857Y-16886905D01*
X13328809Y-16905952D01*
X13300238Y-16915476D01*
X13252619Y-16915476D01*
X13452619Y-16915476D02*
X13452619Y-16782143D01*
X13452619Y-16820238D02*
X13462143Y-16801190D01*
X13471667Y-16791667D01*
X13490714Y-16782143D01*
X13509762Y-16782143D01*
X13576428Y-16915476D02*
X13576428Y-16782143D01*
X13576428Y-16715476D02*
X13566905Y-16725000D01*
X13576428Y-16734524D01*
X13585952Y-16725000D01*
X13576428Y-16715476D01*
X13576428Y-16734524D01*
X13700238Y-16915476D02*
X13681190Y-16905952D01*
X13671667Y-16886905D01*
X13671667Y-16715476D01*
X13805000Y-16915476D02*
X13785952Y-16905952D01*
X13776428Y-16886905D01*
X13776428Y-16715476D01*
X14033571Y-16915476D02*
X14033571Y-16715476D01*
X14100238Y-16858333D01*
X14166905Y-16715476D01*
X14166905Y-16915476D01*
X14347857Y-16915476D02*
X14347857Y-16810714D01*
X14338333Y-16791667D01*
X14319286Y-16782143D01*
X14281190Y-16782143D01*
X14262143Y-16791667D01*
X14347857Y-16905952D02*
X14328809Y-16915476D01*
X14281190Y-16915476D01*
X14262143Y-16905952D01*
X14252619Y-16886905D01*
X14252619Y-16867857D01*
X14262143Y-16848810D01*
X14281190Y-16839286D01*
X14328809Y-16839286D01*
X14347857Y-16829762D01*
X14443095Y-16782143D02*
X14443095Y-16982143D01*
X14443095Y-16791667D02*
X14462143Y-16782143D01*
X14500238Y-16782143D01*
X14519286Y-16791667D01*
X14528809Y-16801190D01*
X14538333Y-16820238D01*
X14538333Y-16877381D01*
X14528809Y-16896429D01*
X14519286Y-16905952D01*
X14500238Y-16915476D01*
X14462143Y-16915476D01*
X14443095Y-16905952D01*
X14624048Y-16896429D02*
X14633571Y-16905952D01*
X14624048Y-16915476D01*
X14614524Y-16905952D01*
X14624048Y-16896429D01*
X14624048Y-16915476D01*
X14624048Y-16791667D02*
X14633571Y-16801190D01*
X14624048Y-16810714D01*
X14614524Y-16801190D01*
X14624048Y-16791667D01*
X14624048Y-16810714D01*
D12*
X12955000Y-17225000D02*
X12995000Y-17265000D01*
X12995000Y-17225000D02*
X12955000Y-17265000D01*
D11*
X13290714Y-17135476D02*
X13309762Y-17135476D01*
X13328809Y-17145000D01*
X13338333Y-17154524D01*
X13347857Y-17173571D01*
X13357381Y-17211667D01*
X13357381Y-17259286D01*
X13347857Y-17297381D01*
X13338333Y-17316429D01*
X13328809Y-17325952D01*
X13309762Y-17335476D01*
X13290714Y-17335476D01*
X13271667Y-17325952D01*
X13262143Y-17316429D01*
X13252619Y-17297381D01*
X13243095Y-17259286D01*
X13243095Y-17211667D01*
X13252619Y-17173571D01*
X13262143Y-17154524D01*
X13271667Y-17145000D01*
X13290714Y-17135476D01*
X13443095Y-17316429D02*
X13452619Y-17325952D01*
X13443095Y-17335476D01*
X13433571Y-17325952D01*
X13443095Y-17316429D01*
X13443095Y-17335476D01*
X13624048Y-17202143D02*
X13624048Y-17335476D01*
X13576428Y-17125952D02*
X13528809Y-17268810D01*
X13652619Y-17268810D01*
X13766905Y-17135476D02*
X13785952Y-17135476D01*
X13805000Y-17145000D01*
X13814524Y-17154524D01*
X13824048Y-17173571D01*
X13833571Y-17211667D01*
X13833571Y-17259286D01*
X13824048Y-17297381D01*
X13814524Y-17316429D01*
X13805000Y-17325952D01*
X13785952Y-17335476D01*
X13766905Y-17335476D01*
X13747857Y-17325952D01*
X13738333Y-17316429D01*
X13728809Y-17297381D01*
X13719286Y-17259286D01*
X13719286Y-17211667D01*
X13728809Y-17173571D01*
X13738333Y-17154524D01*
X13747857Y-17145000D01*
X13766905Y-17135476D01*
X13957381Y-17135476D02*
X13976428Y-17135476D01*
X13995476Y-17145000D01*
X14005000Y-17154524D01*
X14014524Y-17173571D01*
X14024048Y-17211667D01*
X14024048Y-17259286D01*
X14014524Y-17297381D01*
X14005000Y-17316429D01*
X13995476Y-17325952D01*
X13976428Y-17335476D01*
X13957381Y-17335476D01*
X13938333Y-17325952D01*
X13928809Y-17316429D01*
X13919286Y-17297381D01*
X13909762Y-17259286D01*
X13909762Y-17211667D01*
X13919286Y-17173571D01*
X13928809Y-17154524D01*
X13938333Y-17145000D01*
X13957381Y-17135476D01*
X14109762Y-17335476D02*
X14109762Y-17202143D01*
X14109762Y-17221190D02*
X14119286Y-17211667D01*
X14138333Y-17202143D01*
X14166905Y-17202143D01*
X14185952Y-17211667D01*
X14195476Y-17230714D01*
X14195476Y-17335476D01*
X14195476Y-17230714D02*
X14205000Y-17211667D01*
X14224048Y-17202143D01*
X14252619Y-17202143D01*
X14271667Y-17211667D01*
X14281190Y-17230714D01*
X14281190Y-17335476D01*
X14376428Y-17335476D02*
X14376428Y-17202143D01*
X14376428Y-17221190D02*
X14385952Y-17211667D01*
X14405000Y-17202143D01*
X14433571Y-17202143D01*
X14452619Y-17211667D01*
X14462143Y-17230714D01*
X14462143Y-17335476D01*
X14462143Y-17230714D02*
X14471667Y-17211667D01*
X14490714Y-17202143D01*
X14519286Y-17202143D01*
X14538333Y-17211667D01*
X14547857Y-17230714D01*
X14547857Y-17335476D01*
X14938333Y-17125952D02*
X14766905Y-17383095D01*
X15195476Y-17135476D02*
X15214524Y-17135476D01*
X15233571Y-17145000D01*
X15243095Y-17154524D01*
X15252619Y-17173571D01*
X15262143Y-17211667D01*
X15262143Y-17259286D01*
X15252619Y-17297381D01*
X15243095Y-17316429D01*
X15233571Y-17325952D01*
X15214524Y-17335476D01*
X15195476Y-17335476D01*
X15176428Y-17325952D01*
X15166905Y-17316429D01*
X15157381Y-17297381D01*
X15147857Y-17259286D01*
X15147857Y-17211667D01*
X15157381Y-17173571D01*
X15166905Y-17154524D01*
X15176428Y-17145000D01*
X15195476Y-17135476D01*
X15347857Y-17316429D02*
X15357381Y-17325952D01*
X15347857Y-17335476D01*
X15338333Y-17325952D01*
X15347857Y-17316429D01*
X15347857Y-17335476D01*
X15481190Y-17135476D02*
X15500238Y-17135476D01*
X15519286Y-17145000D01*
X15528809Y-17154524D01*
X15538333Y-17173571D01*
X15547857Y-17211667D01*
X15547857Y-17259286D01*
X15538333Y-17297381D01*
X15528809Y-17316429D01*
X15519286Y-17325952D01*
X15500238Y-17335476D01*
X15481190Y-17335476D01*
X15462143Y-17325952D01*
X15452619Y-17316429D01*
X15443095Y-17297381D01*
X15433571Y-17259286D01*
X15433571Y-17211667D01*
X15443095Y-17173571D01*
X15452619Y-17154524D01*
X15462143Y-17145000D01*
X15481190Y-17135476D01*
X15738333Y-17335476D02*
X15624048Y-17335476D01*
X15681190Y-17335476D02*
X15681190Y-17135476D01*
X15662143Y-17164048D01*
X15643095Y-17183095D01*
X15624048Y-17192619D01*
X15919286Y-17135476D02*
X15824048Y-17135476D01*
X15814524Y-17230714D01*
X15824048Y-17221190D01*
X15843095Y-17211667D01*
X15890714Y-17211667D01*
X15909762Y-17221190D01*
X15919286Y-17230714D01*
X15928809Y-17249762D01*
X15928809Y-17297381D01*
X15919286Y-17316429D01*
X15909762Y-17325952D01*
X15890714Y-17335476D01*
X15843095Y-17335476D01*
X15824048Y-17325952D01*
X15814524Y-17316429D01*
X15995476Y-17135476D02*
X16128809Y-17135476D01*
X16043095Y-17335476D01*
X16195476Y-17135476D02*
X16195476Y-17173571D01*
X16271667Y-17135476D02*
X16271667Y-17173571D01*
X16566905Y-17411667D02*
X16557381Y-17402143D01*
X16538333Y-17373571D01*
X16528809Y-17354524D01*
X16519286Y-17325952D01*
X16509762Y-17278333D01*
X16509762Y-17240238D01*
X16519286Y-17192619D01*
X16528809Y-17164048D01*
X16538333Y-17145000D01*
X16557381Y-17116429D01*
X16566905Y-17106905D01*
X16624048Y-17135476D02*
X16747857Y-17135476D01*
X16681190Y-17211667D01*
X16709762Y-17211667D01*
X16728809Y-17221190D01*
X16738333Y-17230714D01*
X16747857Y-17249762D01*
X16747857Y-17297381D01*
X16738333Y-17316429D01*
X16728809Y-17325952D01*
X16709762Y-17335476D01*
X16652619Y-17335476D01*
X16633571Y-17325952D01*
X16624048Y-17316429D01*
X16928810Y-17135476D02*
X16833571Y-17135476D01*
X16824048Y-17230714D01*
X16833571Y-17221190D01*
X16852619Y-17211667D01*
X16900238Y-17211667D01*
X16919286Y-17221190D01*
X16928810Y-17230714D01*
X16938333Y-17249762D01*
X16938333Y-17297381D01*
X16928810Y-17316429D01*
X16919286Y-17325952D01*
X16900238Y-17335476D01*
X16852619Y-17335476D01*
X16833571Y-17325952D01*
X16824048Y-17316429D01*
X17176429Y-17335476D02*
X17176429Y-17135476D01*
X17262143Y-17335476D02*
X17262143Y-17230714D01*
X17252619Y-17211667D01*
X17233571Y-17202143D01*
X17205000Y-17202143D01*
X17185952Y-17211667D01*
X17176429Y-17221190D01*
X17385952Y-17335476D02*
X17366905Y-17325952D01*
X17357381Y-17316429D01*
X17347857Y-17297381D01*
X17347857Y-17240238D01*
X17357381Y-17221190D01*
X17366905Y-17211667D01*
X17385952Y-17202143D01*
X17414524Y-17202143D01*
X17433571Y-17211667D01*
X17443095Y-17221190D01*
X17452619Y-17240238D01*
X17452619Y-17297381D01*
X17443095Y-17316429D01*
X17433571Y-17325952D01*
X17414524Y-17335476D01*
X17385952Y-17335476D01*
X17566905Y-17335476D02*
X17547857Y-17325952D01*
X17538333Y-17306905D01*
X17538333Y-17135476D01*
X17719286Y-17325952D02*
X17700238Y-17335476D01*
X17662143Y-17335476D01*
X17643095Y-17325952D01*
X17633571Y-17306905D01*
X17633571Y-17230714D01*
X17643095Y-17211667D01*
X17662143Y-17202143D01*
X17700238Y-17202143D01*
X17719286Y-17211667D01*
X17728810Y-17230714D01*
X17728810Y-17249762D01*
X17633571Y-17268810D01*
X17805000Y-17325952D02*
X17824048Y-17335476D01*
X17862143Y-17335476D01*
X17881190Y-17325952D01*
X17890714Y-17306905D01*
X17890714Y-17297381D01*
X17881190Y-17278333D01*
X17862143Y-17268810D01*
X17833571Y-17268810D01*
X17814524Y-17259286D01*
X17805000Y-17240238D01*
X17805000Y-17230714D01*
X17814524Y-17211667D01*
X17833571Y-17202143D01*
X17862143Y-17202143D01*
X17881190Y-17211667D01*
X17957381Y-17411667D02*
X17966905Y-17402143D01*
X17985952Y-17373571D01*
X17995476Y-17354524D01*
X18005000Y-17325952D01*
X18014524Y-17278333D01*
X18014524Y-17240238D01*
X18005000Y-17192619D01*
X17995476Y-17164048D01*
X17985952Y-17145000D01*
X17966905Y-17116429D01*
X17957381Y-17106905D01*
D13*
X12995000Y-17509000D02*
G75*
G03*
X12995000Y-17509000I-45000J0D01*
G01*
D11*
X13290714Y-17399476D02*
X13309762Y-17399476D01*
X13328809Y-17409000D01*
X13338333Y-17418524D01*
X13347857Y-17437571D01*
X13357381Y-17475667D01*
X13357381Y-17523286D01*
X13347857Y-17561381D01*
X13338333Y-17580429D01*
X13328809Y-17589952D01*
X13309762Y-17599476D01*
X13290714Y-17599476D01*
X13271667Y-17589952D01*
X13262143Y-17580429D01*
X13252619Y-17561381D01*
X13243095Y-17523286D01*
X13243095Y-17475667D01*
X13252619Y-17437571D01*
X13262143Y-17418524D01*
X13271667Y-17409000D01*
X13290714Y-17399476D01*
X13443095Y-17580429D02*
X13452619Y-17589952D01*
X13443095Y-17599476D01*
X13433571Y-17589952D01*
X13443095Y-17580429D01*
X13443095Y-17599476D01*
X13547857Y-17599476D02*
X13585952Y-17599476D01*
X13605000Y-17589952D01*
X13614524Y-17580429D01*
X13633571Y-17551857D01*
X13643095Y-17513762D01*
X13643095Y-17437571D01*
X13633571Y-17418524D01*
X13624048Y-17409000D01*
X13605000Y-17399476D01*
X13566905Y-17399476D01*
X13547857Y-17409000D01*
X13538333Y-17418524D01*
X13528809Y-17437571D01*
X13528809Y-17485190D01*
X13538333Y-17504238D01*
X13547857Y-17513762D01*
X13566905Y-17523286D01*
X13605000Y-17523286D01*
X13624048Y-17513762D01*
X13633571Y-17504238D01*
X13643095Y-17485190D01*
X13766905Y-17399476D02*
X13785952Y-17399476D01*
X13805000Y-17409000D01*
X13814524Y-17418524D01*
X13824048Y-17437571D01*
X13833571Y-17475667D01*
X13833571Y-17523286D01*
X13824048Y-17561381D01*
X13814524Y-17580429D01*
X13805000Y-17589952D01*
X13785952Y-17599476D01*
X13766905Y-17599476D01*
X13747857Y-17589952D01*
X13738333Y-17580429D01*
X13728809Y-17561381D01*
X13719286Y-17523286D01*
X13719286Y-17475667D01*
X13728809Y-17437571D01*
X13738333Y-17418524D01*
X13747857Y-17409000D01*
X13766905Y-17399476D01*
X13957381Y-17399476D02*
X13976428Y-17399476D01*
X13995476Y-17409000D01*
X14005000Y-17418524D01*
X14014524Y-17437571D01*
X14024048Y-17475667D01*
X14024048Y-17523286D01*
X14014524Y-17561381D01*
X14005000Y-17580429D01*
X13995476Y-17589952D01*
X13976428Y-17599476D01*
X13957381Y-17599476D01*
X13938333Y-17589952D01*
X13928809Y-17580429D01*
X13919286Y-17561381D01*
X13909762Y-17523286D01*
X13909762Y-17475667D01*
X13919286Y-17437571D01*
X13928809Y-17418524D01*
X13938333Y-17409000D01*
X13957381Y-17399476D01*
X14109762Y-17599476D02*
X14109762Y-17466143D01*
X14109762Y-17485190D02*
X14119286Y-17475667D01*
X14138333Y-17466143D01*
X14166905Y-17466143D01*
X14185952Y-17475667D01*
X14195476Y-17494714D01*
X14195476Y-17599476D01*
X14195476Y-17494714D02*
X14205000Y-17475667D01*
X14224048Y-17466143D01*
X14252619Y-17466143D01*
X14271667Y-17475667D01*
X14281190Y-17494714D01*
X14281190Y-17599476D01*
X14376428Y-17599476D02*
X14376428Y-17466143D01*
X14376428Y-17485190D02*
X14385952Y-17475667D01*
X14405000Y-17466143D01*
X14433571Y-17466143D01*
X14452619Y-17475667D01*
X14462143Y-17494714D01*
X14462143Y-17599476D01*
X14462143Y-17494714D02*
X14471667Y-17475667D01*
X14490714Y-17466143D01*
X14519286Y-17466143D01*
X14538333Y-17475667D01*
X14547857Y-17494714D01*
X14547857Y-17599476D01*
X14938333Y-17389952D02*
X14766905Y-17647095D01*
X15195476Y-17399476D02*
X15214524Y-17399476D01*
X15233571Y-17409000D01*
X15243095Y-17418524D01*
X15252619Y-17437571D01*
X15262143Y-17475667D01*
X15262143Y-17523286D01*
X15252619Y-17561381D01*
X15243095Y-17580429D01*
X15233571Y-17589952D01*
X15214524Y-17599476D01*
X15195476Y-17599476D01*
X15176428Y-17589952D01*
X15166905Y-17580429D01*
X15157381Y-17561381D01*
X15147857Y-17523286D01*
X15147857Y-17475667D01*
X15157381Y-17437571D01*
X15166905Y-17418524D01*
X15176428Y-17409000D01*
X15195476Y-17399476D01*
X15347857Y-17580429D02*
X15357381Y-17589952D01*
X15347857Y-17599476D01*
X15338333Y-17589952D01*
X15347857Y-17580429D01*
X15347857Y-17599476D01*
X15481190Y-17399476D02*
X15500238Y-17399476D01*
X15519286Y-17409000D01*
X15528809Y-17418524D01*
X15538333Y-17437571D01*
X15547857Y-17475667D01*
X15547857Y-17523286D01*
X15538333Y-17561381D01*
X15528809Y-17580429D01*
X15519286Y-17589952D01*
X15500238Y-17599476D01*
X15481190Y-17599476D01*
X15462143Y-17589952D01*
X15452619Y-17580429D01*
X15443095Y-17561381D01*
X15433571Y-17523286D01*
X15433571Y-17475667D01*
X15443095Y-17437571D01*
X15452619Y-17418524D01*
X15462143Y-17409000D01*
X15481190Y-17399476D01*
X15614524Y-17399476D02*
X15738333Y-17399476D01*
X15671667Y-17475667D01*
X15700238Y-17475667D01*
X15719286Y-17485190D01*
X15728809Y-17494714D01*
X15738333Y-17513762D01*
X15738333Y-17561381D01*
X15728809Y-17580429D01*
X15719286Y-17589952D01*
X15700238Y-17599476D01*
X15643095Y-17599476D01*
X15624048Y-17589952D01*
X15614524Y-17580429D01*
X15919286Y-17399476D02*
X15824048Y-17399476D01*
X15814524Y-17494714D01*
X15824048Y-17485190D01*
X15843095Y-17475667D01*
X15890714Y-17475667D01*
X15909762Y-17485190D01*
X15919286Y-17494714D01*
X15928809Y-17513762D01*
X15928809Y-17561381D01*
X15919286Y-17580429D01*
X15909762Y-17589952D01*
X15890714Y-17599476D01*
X15843095Y-17599476D01*
X15824048Y-17589952D01*
X15814524Y-17580429D01*
X16100238Y-17466143D02*
X16100238Y-17599476D01*
X16052619Y-17389952D02*
X16005000Y-17532810D01*
X16128809Y-17532810D01*
X16195476Y-17399476D02*
X16195476Y-17437571D01*
X16271667Y-17399476D02*
X16271667Y-17437571D01*
X16566905Y-17675667D02*
X16557381Y-17666143D01*
X16538333Y-17637571D01*
X16528809Y-17618524D01*
X16519286Y-17589952D01*
X16509762Y-17542333D01*
X16509762Y-17504238D01*
X16519286Y-17456619D01*
X16528809Y-17428048D01*
X16538333Y-17409000D01*
X16557381Y-17380429D01*
X16566905Y-17370905D01*
X16633571Y-17418524D02*
X16643095Y-17409000D01*
X16662143Y-17399476D01*
X16709762Y-17399476D01*
X16728809Y-17409000D01*
X16738333Y-17418524D01*
X16747857Y-17437571D01*
X16747857Y-17456619D01*
X16738333Y-17485190D01*
X16624048Y-17599476D01*
X16747857Y-17599476D01*
X16985952Y-17599476D02*
X16985952Y-17399476D01*
X17071667Y-17599476D02*
X17071667Y-17494714D01*
X17062143Y-17475667D01*
X17043095Y-17466143D01*
X17014524Y-17466143D01*
X16995476Y-17475667D01*
X16985952Y-17485190D01*
X17195476Y-17599476D02*
X17176429Y-17589952D01*
X17166905Y-17580429D01*
X17157381Y-17561381D01*
X17157381Y-17504238D01*
X17166905Y-17485190D01*
X17176429Y-17475667D01*
X17195476Y-17466143D01*
X17224048Y-17466143D01*
X17243095Y-17475667D01*
X17252619Y-17485190D01*
X17262143Y-17504238D01*
X17262143Y-17561381D01*
X17252619Y-17580429D01*
X17243095Y-17589952D01*
X17224048Y-17599476D01*
X17195476Y-17599476D01*
X17376429Y-17599476D02*
X17357381Y-17589952D01*
X17347857Y-17570905D01*
X17347857Y-17399476D01*
X17528810Y-17589952D02*
X17509762Y-17599476D01*
X17471667Y-17599476D01*
X17452619Y-17589952D01*
X17443095Y-17570905D01*
X17443095Y-17494714D01*
X17452619Y-17475667D01*
X17471667Y-17466143D01*
X17509762Y-17466143D01*
X17528810Y-17475667D01*
X17538333Y-17494714D01*
X17538333Y-17513762D01*
X17443095Y-17532810D01*
X17614524Y-17589952D02*
X17633571Y-17599476D01*
X17671667Y-17599476D01*
X17690714Y-17589952D01*
X17700238Y-17570905D01*
X17700238Y-17561381D01*
X17690714Y-17542333D01*
X17671667Y-17532810D01*
X17643095Y-17532810D01*
X17624048Y-17523286D01*
X17614524Y-17504238D01*
X17614524Y-17494714D01*
X17624048Y-17475667D01*
X17643095Y-17466143D01*
X17671667Y-17466143D01*
X17690714Y-17475667D01*
X17938333Y-17523286D02*
X18090714Y-17523286D01*
X18014524Y-17599476D02*
X18014524Y-17447095D01*
X18424048Y-17399476D02*
X18385952Y-17399476D01*
X18366905Y-17409000D01*
X18357381Y-17418524D01*
X18338333Y-17447095D01*
X18328810Y-17485190D01*
X18328810Y-17561381D01*
X18338333Y-17580429D01*
X18347857Y-17589952D01*
X18366905Y-17599476D01*
X18405000Y-17599476D01*
X18424048Y-17589952D01*
X18433571Y-17580429D01*
X18443095Y-17561381D01*
X18443095Y-17513762D01*
X18433571Y-17494714D01*
X18424048Y-17485190D01*
X18405000Y-17475667D01*
X18366905Y-17475667D01*
X18347857Y-17485190D01*
X18338333Y-17494714D01*
X18328810Y-17513762D01*
X18671667Y-17589952D02*
X18690714Y-17599476D01*
X18728810Y-17599476D01*
X18747857Y-17589952D01*
X18757381Y-17570905D01*
X18757381Y-17561381D01*
X18747857Y-17542333D01*
X18728810Y-17532810D01*
X18700238Y-17532810D01*
X18681190Y-17523286D01*
X18671667Y-17504238D01*
X18671667Y-17494714D01*
X18681190Y-17475667D01*
X18700238Y-17466143D01*
X18728810Y-17466143D01*
X18747857Y-17475667D01*
X18871667Y-17599476D02*
X18852619Y-17589952D01*
X18843095Y-17570905D01*
X18843095Y-17399476D01*
X18976429Y-17599476D02*
X18957381Y-17589952D01*
X18947857Y-17580429D01*
X18938333Y-17561381D01*
X18938333Y-17504238D01*
X18947857Y-17485190D01*
X18957381Y-17475667D01*
X18976429Y-17466143D01*
X19005000Y-17466143D01*
X19024048Y-17475667D01*
X19033571Y-17485190D01*
X19043095Y-17504238D01*
X19043095Y-17561381D01*
X19033571Y-17580429D01*
X19024048Y-17589952D01*
X19005000Y-17599476D01*
X18976429Y-17599476D01*
X19100238Y-17466143D02*
X19176429Y-17466143D01*
X19128810Y-17399476D02*
X19128810Y-17570905D01*
X19138333Y-17589952D01*
X19157381Y-17599476D01*
X19176429Y-17599476D01*
X19233571Y-17589952D02*
X19252619Y-17599476D01*
X19290714Y-17599476D01*
X19309762Y-17589952D01*
X19319286Y-17570905D01*
X19319286Y-17561381D01*
X19309762Y-17542333D01*
X19290714Y-17532810D01*
X19262143Y-17532810D01*
X19243095Y-17523286D01*
X19233571Y-17504238D01*
X19233571Y-17494714D01*
X19243095Y-17475667D01*
X19262143Y-17466143D01*
X19290714Y-17466143D01*
X19309762Y-17475667D01*
X19385952Y-17675667D02*
X19395476Y-17666143D01*
X19414524Y-17637571D01*
X19424048Y-17618524D01*
X19433571Y-17589952D01*
X19443095Y-17542333D01*
X19443095Y-17504238D01*
X19433571Y-17456619D01*
X19424048Y-17428048D01*
X19414524Y-17409000D01*
X19395476Y-17380429D01*
X19385952Y-17370905D01*
D10*
X12945000Y-17723000D02*
X12945000Y-17823000D01*
X12895000Y-17773000D02*
X12995000Y-17773000D01*
D11*
X13357381Y-17863476D02*
X13243095Y-17863476D01*
X13300238Y-17863476D02*
X13300238Y-17663476D01*
X13281190Y-17692048D01*
X13262143Y-17711095D01*
X13243095Y-17720619D01*
X13443095Y-17844429D02*
X13452619Y-17853952D01*
X13443095Y-17863476D01*
X13433571Y-17853952D01*
X13443095Y-17844429D01*
X13443095Y-17863476D01*
X13576428Y-17663476D02*
X13595476Y-17663476D01*
X13614524Y-17673000D01*
X13624048Y-17682524D01*
X13633571Y-17701571D01*
X13643095Y-17739667D01*
X13643095Y-17787286D01*
X13633571Y-17825381D01*
X13624048Y-17844429D01*
X13614524Y-17853952D01*
X13595476Y-17863476D01*
X13576428Y-17863476D01*
X13557381Y-17853952D01*
X13547857Y-17844429D01*
X13538333Y-17825381D01*
X13528809Y-17787286D01*
X13528809Y-17739667D01*
X13538333Y-17701571D01*
X13547857Y-17682524D01*
X13557381Y-17673000D01*
X13576428Y-17663476D01*
X13766905Y-17663476D02*
X13785952Y-17663476D01*
X13805000Y-17673000D01*
X13814524Y-17682524D01*
X13824048Y-17701571D01*
X13833571Y-17739667D01*
X13833571Y-17787286D01*
X13824048Y-17825381D01*
X13814524Y-17844429D01*
X13805000Y-17853952D01*
X13785952Y-17863476D01*
X13766905Y-17863476D01*
X13747857Y-17853952D01*
X13738333Y-17844429D01*
X13728809Y-17825381D01*
X13719286Y-17787286D01*
X13719286Y-17739667D01*
X13728809Y-17701571D01*
X13738333Y-17682524D01*
X13747857Y-17673000D01*
X13766905Y-17663476D01*
X13957381Y-17663476D02*
X13976428Y-17663476D01*
X13995476Y-17673000D01*
X14005000Y-17682524D01*
X14014524Y-17701571D01*
X14024048Y-17739667D01*
X14024048Y-17787286D01*
X14014524Y-17825381D01*
X14005000Y-17844429D01*
X13995476Y-17853952D01*
X13976428Y-17863476D01*
X13957381Y-17863476D01*
X13938333Y-17853952D01*
X13928809Y-17844429D01*
X13919286Y-17825381D01*
X13909762Y-17787286D01*
X13909762Y-17739667D01*
X13919286Y-17701571D01*
X13928809Y-17682524D01*
X13938333Y-17673000D01*
X13957381Y-17663476D01*
X14109762Y-17863476D02*
X14109762Y-17730143D01*
X14109762Y-17749190D02*
X14119286Y-17739667D01*
X14138333Y-17730143D01*
X14166905Y-17730143D01*
X14185952Y-17739667D01*
X14195476Y-17758714D01*
X14195476Y-17863476D01*
X14195476Y-17758714D02*
X14205000Y-17739667D01*
X14224048Y-17730143D01*
X14252619Y-17730143D01*
X14271667Y-17739667D01*
X14281190Y-17758714D01*
X14281190Y-17863476D01*
X14376428Y-17863476D02*
X14376428Y-17730143D01*
X14376428Y-17749190D02*
X14385952Y-17739667D01*
X14405000Y-17730143D01*
X14433571Y-17730143D01*
X14452619Y-17739667D01*
X14462143Y-17758714D01*
X14462143Y-17863476D01*
X14462143Y-17758714D02*
X14471667Y-17739667D01*
X14490714Y-17730143D01*
X14519286Y-17730143D01*
X14538333Y-17739667D01*
X14547857Y-17758714D01*
X14547857Y-17863476D01*
X14938333Y-17653952D02*
X14766905Y-17911095D01*
X15195476Y-17663476D02*
X15214524Y-17663476D01*
X15233571Y-17673000D01*
X15243095Y-17682524D01*
X15252619Y-17701571D01*
X15262143Y-17739667D01*
X15262143Y-17787286D01*
X15252619Y-17825381D01*
X15243095Y-17844429D01*
X15233571Y-17853952D01*
X15214524Y-17863476D01*
X15195476Y-17863476D01*
X15176428Y-17853952D01*
X15166905Y-17844429D01*
X15157381Y-17825381D01*
X15147857Y-17787286D01*
X15147857Y-17739667D01*
X15157381Y-17701571D01*
X15166905Y-17682524D01*
X15176428Y-17673000D01*
X15195476Y-17663476D01*
X15347857Y-17844429D02*
X15357381Y-17853952D01*
X15347857Y-17863476D01*
X15338333Y-17853952D01*
X15347857Y-17844429D01*
X15347857Y-17863476D01*
X15481190Y-17663476D02*
X15500238Y-17663476D01*
X15519286Y-17673000D01*
X15528809Y-17682524D01*
X15538333Y-17701571D01*
X15547857Y-17739667D01*
X15547857Y-17787286D01*
X15538333Y-17825381D01*
X15528809Y-17844429D01*
X15519286Y-17853952D01*
X15500238Y-17863476D01*
X15481190Y-17863476D01*
X15462143Y-17853952D01*
X15452619Y-17844429D01*
X15443095Y-17825381D01*
X15433571Y-17787286D01*
X15433571Y-17739667D01*
X15443095Y-17701571D01*
X15452619Y-17682524D01*
X15462143Y-17673000D01*
X15481190Y-17663476D01*
X15614524Y-17663476D02*
X15738333Y-17663476D01*
X15671667Y-17739667D01*
X15700238Y-17739667D01*
X15719286Y-17749190D01*
X15728809Y-17758714D01*
X15738333Y-17777762D01*
X15738333Y-17825381D01*
X15728809Y-17844429D01*
X15719286Y-17853952D01*
X15700238Y-17863476D01*
X15643095Y-17863476D01*
X15624048Y-17853952D01*
X15614524Y-17844429D01*
X15833571Y-17863476D02*
X15871667Y-17863476D01*
X15890714Y-17853952D01*
X15900238Y-17844429D01*
X15919286Y-17815857D01*
X15928809Y-17777762D01*
X15928809Y-17701571D01*
X15919286Y-17682524D01*
X15909762Y-17673000D01*
X15890714Y-17663476D01*
X15852619Y-17663476D01*
X15833571Y-17673000D01*
X15824048Y-17682524D01*
X15814524Y-17701571D01*
X15814524Y-17749190D01*
X15824048Y-17768238D01*
X15833571Y-17777762D01*
X15852619Y-17787286D01*
X15890714Y-17787286D01*
X15909762Y-17777762D01*
X15919286Y-17768238D01*
X15928809Y-17749190D01*
X16100238Y-17730143D02*
X16100238Y-17863476D01*
X16052619Y-17653952D02*
X16005000Y-17796810D01*
X16128809Y-17796810D01*
X16195476Y-17663476D02*
X16195476Y-17701571D01*
X16271667Y-17663476D02*
X16271667Y-17701571D01*
X16566905Y-17939667D02*
X16557381Y-17930143D01*
X16538333Y-17901571D01*
X16528809Y-17882524D01*
X16519286Y-17853952D01*
X16509762Y-17806333D01*
X16509762Y-17768238D01*
X16519286Y-17720619D01*
X16528809Y-17692048D01*
X16538333Y-17673000D01*
X16557381Y-17644429D01*
X16566905Y-17634905D01*
X16747857Y-17863476D02*
X16633571Y-17863476D01*
X16690714Y-17863476D02*
X16690714Y-17663476D01*
X16671667Y-17692048D01*
X16652619Y-17711095D01*
X16633571Y-17720619D01*
X16871667Y-17663476D02*
X16890714Y-17663476D01*
X16909762Y-17673000D01*
X16919286Y-17682524D01*
X16928810Y-17701571D01*
X16938333Y-17739667D01*
X16938333Y-17787286D01*
X16928810Y-17825381D01*
X16919286Y-17844429D01*
X16909762Y-17853952D01*
X16890714Y-17863476D01*
X16871667Y-17863476D01*
X16852619Y-17853952D01*
X16843095Y-17844429D01*
X16833571Y-17825381D01*
X16824048Y-17787286D01*
X16824048Y-17739667D01*
X16833571Y-17701571D01*
X16843095Y-17682524D01*
X16852619Y-17673000D01*
X16871667Y-17663476D01*
X17176429Y-17863476D02*
X17176429Y-17663476D01*
X17262143Y-17863476D02*
X17262143Y-17758714D01*
X17252619Y-17739667D01*
X17233571Y-17730143D01*
X17205000Y-17730143D01*
X17185952Y-17739667D01*
X17176429Y-17749190D01*
X17385952Y-17863476D02*
X17366905Y-17853952D01*
X17357381Y-17844429D01*
X17347857Y-17825381D01*
X17347857Y-17768238D01*
X17357381Y-17749190D01*
X17366905Y-17739667D01*
X17385952Y-17730143D01*
X17414524Y-17730143D01*
X17433571Y-17739667D01*
X17443095Y-17749190D01*
X17452619Y-17768238D01*
X17452619Y-17825381D01*
X17443095Y-17844429D01*
X17433571Y-17853952D01*
X17414524Y-17863476D01*
X17385952Y-17863476D01*
X17566905Y-17863476D02*
X17547857Y-17853952D01*
X17538333Y-17834905D01*
X17538333Y-17663476D01*
X17719286Y-17853952D02*
X17700238Y-17863476D01*
X17662143Y-17863476D01*
X17643095Y-17853952D01*
X17633571Y-17834905D01*
X17633571Y-17758714D01*
X17643095Y-17739667D01*
X17662143Y-17730143D01*
X17700238Y-17730143D01*
X17719286Y-17739667D01*
X17728810Y-17758714D01*
X17728810Y-17777762D01*
X17633571Y-17796810D01*
X17805000Y-17853952D02*
X17824048Y-17863476D01*
X17862143Y-17863476D01*
X17881190Y-17853952D01*
X17890714Y-17834905D01*
X17890714Y-17825381D01*
X17881190Y-17806333D01*
X17862143Y-17796810D01*
X17833571Y-17796810D01*
X17814524Y-17787286D01*
X17805000Y-17768238D01*
X17805000Y-17758714D01*
X17814524Y-17739667D01*
X17833571Y-17730143D01*
X17862143Y-17730143D01*
X17881190Y-17739667D01*
X17957381Y-17939667D02*
X17966905Y-17930143D01*
X17985952Y-17901571D01*
X17995476Y-17882524D01*
X18005000Y-17853952D01*
X18014524Y-17806333D01*
X18014524Y-17768238D01*
X18005000Y-17720619D01*
X17995476Y-17692048D01*
X17985952Y-17673000D01*
X17966905Y-17644429D01*
X17957381Y-17634905D01*
D14*
X12977134Y-18080134D02*
X12977134Y-17993866D01*
X12890866Y-17993866D01*
X12890866Y-18080134D01*
X12977134Y-18080134D01*
D11*
X13357381Y-18127476D02*
X13243095Y-18127476D01*
X13300238Y-18127476D02*
X13300238Y-17927476D01*
X13281190Y-17956048D01*
X13262143Y-17975095D01*
X13243095Y-17984619D01*
X13443095Y-18108429D02*
X13452619Y-18117952D01*
X13443095Y-18127476D01*
X13433571Y-18117952D01*
X13443095Y-18108429D01*
X13443095Y-18127476D01*
X13528809Y-17946524D02*
X13538333Y-17937000D01*
X13557381Y-17927476D01*
X13605000Y-17927476D01*
X13624048Y-17937000D01*
X13633571Y-17946524D01*
X13643095Y-17965571D01*
X13643095Y-17984619D01*
X13633571Y-18013190D01*
X13519286Y-18127476D01*
X13643095Y-18127476D01*
X13719286Y-17946524D02*
X13728809Y-17937000D01*
X13747857Y-17927476D01*
X13795476Y-17927476D01*
X13814524Y-17937000D01*
X13824048Y-17946524D01*
X13833571Y-17965571D01*
X13833571Y-17984619D01*
X13824048Y-18013190D01*
X13709762Y-18127476D01*
X13833571Y-18127476D01*
X13957381Y-17927476D02*
X13976428Y-17927476D01*
X13995476Y-17937000D01*
X14005000Y-17946524D01*
X14014524Y-17965571D01*
X14024048Y-18003667D01*
X14024048Y-18051286D01*
X14014524Y-18089381D01*
X14005000Y-18108429D01*
X13995476Y-18117952D01*
X13976428Y-18127476D01*
X13957381Y-18127476D01*
X13938333Y-18117952D01*
X13928809Y-18108429D01*
X13919286Y-18089381D01*
X13909762Y-18051286D01*
X13909762Y-18003667D01*
X13919286Y-17965571D01*
X13928809Y-17946524D01*
X13938333Y-17937000D01*
X13957381Y-17927476D01*
X14109762Y-18127476D02*
X14109762Y-17994143D01*
X14109762Y-18013190D02*
X14119286Y-18003667D01*
X14138333Y-17994143D01*
X14166905Y-17994143D01*
X14185952Y-18003667D01*
X14195476Y-18022714D01*
X14195476Y-18127476D01*
X14195476Y-18022714D02*
X14205000Y-18003667D01*
X14224048Y-17994143D01*
X14252619Y-17994143D01*
X14271667Y-18003667D01*
X14281190Y-18022714D01*
X14281190Y-18127476D01*
X14376428Y-18127476D02*
X14376428Y-17994143D01*
X14376428Y-18013190D02*
X14385952Y-18003667D01*
X14405000Y-17994143D01*
X14433571Y-17994143D01*
X14452619Y-18003667D01*
X14462143Y-18022714D01*
X14462143Y-18127476D01*
X14462143Y-18022714D02*
X14471667Y-18003667D01*
X14490714Y-17994143D01*
X14519286Y-17994143D01*
X14538333Y-18003667D01*
X14547857Y-18022714D01*
X14547857Y-18127476D01*
X14938333Y-17917952D02*
X14766905Y-18175095D01*
X15195476Y-17927476D02*
X15214524Y-17927476D01*
X15233571Y-17937000D01*
X15243095Y-17946524D01*
X15252619Y-17965571D01*
X15262143Y-18003667D01*
X15262143Y-18051286D01*
X15252619Y-18089381D01*
X15243095Y-18108429D01*
X15233571Y-18117952D01*
X15214524Y-18127476D01*
X15195476Y-18127476D01*
X15176428Y-18117952D01*
X15166905Y-18108429D01*
X15157381Y-18089381D01*
X15147857Y-18051286D01*
X15147857Y-18003667D01*
X15157381Y-17965571D01*
X15166905Y-17946524D01*
X15176428Y-17937000D01*
X15195476Y-17927476D01*
X15347857Y-18108429D02*
X15357381Y-18117952D01*
X15347857Y-18127476D01*
X15338333Y-18117952D01*
X15347857Y-18108429D01*
X15347857Y-18127476D01*
X15481190Y-17927476D02*
X15500238Y-17927476D01*
X15519286Y-17937000D01*
X15528809Y-17946524D01*
X15538333Y-17965571D01*
X15547857Y-18003667D01*
X15547857Y-18051286D01*
X15538333Y-18089381D01*
X15528809Y-18108429D01*
X15519286Y-18117952D01*
X15500238Y-18127476D01*
X15481190Y-18127476D01*
X15462143Y-18117952D01*
X15452619Y-18108429D01*
X15443095Y-18089381D01*
X15433571Y-18051286D01*
X15433571Y-18003667D01*
X15443095Y-17965571D01*
X15452619Y-17946524D01*
X15462143Y-17937000D01*
X15481190Y-17927476D01*
X15719286Y-17994143D02*
X15719286Y-18127476D01*
X15671667Y-17917952D02*
X15624048Y-18060810D01*
X15747857Y-18060810D01*
X15852619Y-18013190D02*
X15833571Y-18003667D01*
X15824048Y-17994143D01*
X15814524Y-17975095D01*
X15814524Y-17965571D01*
X15824048Y-17946524D01*
X15833571Y-17937000D01*
X15852619Y-17927476D01*
X15890714Y-17927476D01*
X15909762Y-17937000D01*
X15919286Y-17946524D01*
X15928809Y-17965571D01*
X15928809Y-17975095D01*
X15919286Y-17994143D01*
X15909762Y-18003667D01*
X15890714Y-18013190D01*
X15852619Y-18013190D01*
X15833571Y-18022714D01*
X15824048Y-18032238D01*
X15814524Y-18051286D01*
X15814524Y-18089381D01*
X15824048Y-18108429D01*
X15833571Y-18117952D01*
X15852619Y-18127476D01*
X15890714Y-18127476D01*
X15909762Y-18117952D01*
X15919286Y-18108429D01*
X15928809Y-18089381D01*
X15928809Y-18051286D01*
X15919286Y-18032238D01*
X15909762Y-18022714D01*
X15890714Y-18013190D01*
X16052619Y-17927476D02*
X16071667Y-17927476D01*
X16090714Y-17937000D01*
X16100238Y-17946524D01*
X16109762Y-17965571D01*
X16119286Y-18003667D01*
X16119286Y-18051286D01*
X16109762Y-18089381D01*
X16100238Y-18108429D01*
X16090714Y-18117952D01*
X16071667Y-18127476D01*
X16052619Y-18127476D01*
X16033571Y-18117952D01*
X16024048Y-18108429D01*
X16014524Y-18089381D01*
X16005000Y-18051286D01*
X16005000Y-18003667D01*
X16014524Y-17965571D01*
X16024048Y-17946524D01*
X16033571Y-17937000D01*
X16052619Y-17927476D01*
X16195476Y-17927476D02*
X16195476Y-17965571D01*
X16271667Y-17927476D02*
X16271667Y-17965571D01*
X16566905Y-18203667D02*
X16557381Y-18194143D01*
X16538333Y-18165571D01*
X16528809Y-18146524D01*
X16519286Y-18117952D01*
X16509762Y-18070333D01*
X16509762Y-18032238D01*
X16519286Y-17984619D01*
X16528809Y-17956048D01*
X16538333Y-17937000D01*
X16557381Y-17908429D01*
X16566905Y-17898905D01*
X16747857Y-18127476D02*
X16633571Y-18127476D01*
X16690714Y-18127476D02*
X16690714Y-17927476D01*
X16671667Y-17956048D01*
X16652619Y-17975095D01*
X16633571Y-17984619D01*
X16985952Y-18127476D02*
X16985952Y-17927476D01*
X17071667Y-18127476D02*
X17071667Y-18022714D01*
X17062143Y-18003667D01*
X17043095Y-17994143D01*
X17014524Y-17994143D01*
X16995476Y-18003667D01*
X16985952Y-18013190D01*
X17195476Y-18127476D02*
X17176429Y-18117952D01*
X17166905Y-18108429D01*
X17157381Y-18089381D01*
X17157381Y-18032238D01*
X17166905Y-18013190D01*
X17176429Y-18003667D01*
X17195476Y-17994143D01*
X17224048Y-17994143D01*
X17243095Y-18003667D01*
X17252619Y-18013190D01*
X17262143Y-18032238D01*
X17262143Y-18089381D01*
X17252619Y-18108429D01*
X17243095Y-18117952D01*
X17224048Y-18127476D01*
X17195476Y-18127476D01*
X17376429Y-18127476D02*
X17357381Y-18117952D01*
X17347857Y-18098905D01*
X17347857Y-17927476D01*
X17528810Y-18117952D02*
X17509762Y-18127476D01*
X17471667Y-18127476D01*
X17452619Y-18117952D01*
X17443095Y-18098905D01*
X17443095Y-18022714D01*
X17452619Y-18003667D01*
X17471667Y-17994143D01*
X17509762Y-17994143D01*
X17528810Y-18003667D01*
X17538333Y-18022714D01*
X17538333Y-18041762D01*
X17443095Y-18060810D01*
X17605000Y-18203667D02*
X17614524Y-18194143D01*
X17633571Y-18165571D01*
X17643095Y-18146524D01*
X17652619Y-18117952D01*
X17662143Y-18070333D01*
X17662143Y-18032238D01*
X17652619Y-17984619D01*
X17643095Y-17956048D01*
X17633571Y-17937000D01*
X17614524Y-17908429D01*
X17605000Y-17898905D01*
D15*
X12924000Y-18372000D02*
X12995000Y-18301000D01*
X12924000Y-18230000D01*
X12853000Y-18301000D01*
X12924000Y-18372000D01*
D11*
X13357381Y-18391476D02*
X13243095Y-18391476D01*
X13300238Y-18391476D02*
X13300238Y-18191476D01*
X13281190Y-18220048D01*
X13262143Y-18239095D01*
X13243095Y-18248619D01*
X13443095Y-18372429D02*
X13452619Y-18381952D01*
X13443095Y-18391476D01*
X13433571Y-18381952D01*
X13443095Y-18372429D01*
X13443095Y-18391476D01*
X13624048Y-18258143D02*
X13624048Y-18391476D01*
X13576428Y-18181952D02*
X13528809Y-18324810D01*
X13652619Y-18324810D01*
X13719286Y-18210524D02*
X13728809Y-18201000D01*
X13747857Y-18191476D01*
X13795476Y-18191476D01*
X13814524Y-18201000D01*
X13824048Y-18210524D01*
X13833571Y-18229571D01*
X13833571Y-18248619D01*
X13824048Y-18277190D01*
X13709762Y-18391476D01*
X13833571Y-18391476D01*
X13957381Y-18191476D02*
X13976428Y-18191476D01*
X13995476Y-18201000D01*
X14005000Y-18210524D01*
X14014524Y-18229571D01*
X14024048Y-18267667D01*
X14024048Y-18315286D01*
X14014524Y-18353381D01*
X14005000Y-18372429D01*
X13995476Y-18381952D01*
X13976428Y-18391476D01*
X13957381Y-18391476D01*
X13938333Y-18381952D01*
X13928809Y-18372429D01*
X13919286Y-18353381D01*
X13909762Y-18315286D01*
X13909762Y-18267667D01*
X13919286Y-18229571D01*
X13928809Y-18210524D01*
X13938333Y-18201000D01*
X13957381Y-18191476D01*
X14109762Y-18391476D02*
X14109762Y-18258143D01*
X14109762Y-18277190D02*
X14119286Y-18267667D01*
X14138333Y-18258143D01*
X14166905Y-18258143D01*
X14185952Y-18267667D01*
X14195476Y-18286714D01*
X14195476Y-18391476D01*
X14195476Y-18286714D02*
X14205000Y-18267667D01*
X14224048Y-18258143D01*
X14252619Y-18258143D01*
X14271667Y-18267667D01*
X14281190Y-18286714D01*
X14281190Y-18391476D01*
X14376428Y-18391476D02*
X14376428Y-18258143D01*
X14376428Y-18277190D02*
X14385952Y-18267667D01*
X14405000Y-18258143D01*
X14433571Y-18258143D01*
X14452619Y-18267667D01*
X14462143Y-18286714D01*
X14462143Y-18391476D01*
X14462143Y-18286714D02*
X14471667Y-18267667D01*
X14490714Y-18258143D01*
X14519286Y-18258143D01*
X14538333Y-18267667D01*
X14547857Y-18286714D01*
X14547857Y-18391476D01*
X14938333Y-18181952D02*
X14766905Y-18439095D01*
X15195476Y-18191476D02*
X15214524Y-18191476D01*
X15233571Y-18201000D01*
X15243095Y-18210524D01*
X15252619Y-18229571D01*
X15262143Y-18267667D01*
X15262143Y-18315286D01*
X15252619Y-18353381D01*
X15243095Y-18372429D01*
X15233571Y-18381952D01*
X15214524Y-18391476D01*
X15195476Y-18391476D01*
X15176428Y-18381952D01*
X15166905Y-18372429D01*
X15157381Y-18353381D01*
X15147857Y-18315286D01*
X15147857Y-18267667D01*
X15157381Y-18229571D01*
X15166905Y-18210524D01*
X15176428Y-18201000D01*
X15195476Y-18191476D01*
X15347857Y-18372429D02*
X15357381Y-18381952D01*
X15347857Y-18391476D01*
X15338333Y-18381952D01*
X15347857Y-18372429D01*
X15347857Y-18391476D01*
X15481190Y-18191476D02*
X15500238Y-18191476D01*
X15519286Y-18201000D01*
X15528809Y-18210524D01*
X15538333Y-18229571D01*
X15547857Y-18267667D01*
X15547857Y-18315286D01*
X15538333Y-18353381D01*
X15528809Y-18372429D01*
X15519286Y-18381952D01*
X15500238Y-18391476D01*
X15481190Y-18391476D01*
X15462143Y-18381952D01*
X15452619Y-18372429D01*
X15443095Y-18353381D01*
X15433571Y-18315286D01*
X15433571Y-18267667D01*
X15443095Y-18229571D01*
X15452619Y-18210524D01*
X15462143Y-18201000D01*
X15481190Y-18191476D01*
X15728809Y-18191476D02*
X15633571Y-18191476D01*
X15624048Y-18286714D01*
X15633571Y-18277190D01*
X15652619Y-18267667D01*
X15700238Y-18267667D01*
X15719286Y-18277190D01*
X15728809Y-18286714D01*
X15738333Y-18305762D01*
X15738333Y-18353381D01*
X15728809Y-18372429D01*
X15719286Y-18381952D01*
X15700238Y-18391476D01*
X15652619Y-18391476D01*
X15633571Y-18381952D01*
X15624048Y-18372429D01*
X15919286Y-18191476D02*
X15824048Y-18191476D01*
X15814524Y-18286714D01*
X15824048Y-18277190D01*
X15843095Y-18267667D01*
X15890714Y-18267667D01*
X15909762Y-18277190D01*
X15919286Y-18286714D01*
X15928809Y-18305762D01*
X15928809Y-18353381D01*
X15919286Y-18372429D01*
X15909762Y-18381952D01*
X15890714Y-18391476D01*
X15843095Y-18391476D01*
X15824048Y-18381952D01*
X15814524Y-18372429D01*
X16024048Y-18391476D02*
X16062143Y-18391476D01*
X16081190Y-18381952D01*
X16090714Y-18372429D01*
X16109762Y-18343857D01*
X16119286Y-18305762D01*
X16119286Y-18229571D01*
X16109762Y-18210524D01*
X16100238Y-18201000D01*
X16081190Y-18191476D01*
X16043095Y-18191476D01*
X16024048Y-18201000D01*
X16014524Y-18210524D01*
X16005000Y-18229571D01*
X16005000Y-18277190D01*
X16014524Y-18296238D01*
X16024048Y-18305762D01*
X16043095Y-18315286D01*
X16081190Y-18315286D01*
X16100238Y-18305762D01*
X16109762Y-18296238D01*
X16119286Y-18277190D01*
X16195476Y-18191476D02*
X16195476Y-18229571D01*
X16271667Y-18191476D02*
X16271667Y-18229571D01*
X16566905Y-18467667D02*
X16557381Y-18458143D01*
X16538333Y-18429571D01*
X16528809Y-18410524D01*
X16519286Y-18381952D01*
X16509762Y-18334333D01*
X16509762Y-18296238D01*
X16519286Y-18248619D01*
X16528809Y-18220048D01*
X16538333Y-18201000D01*
X16557381Y-18172429D01*
X16566905Y-18162905D01*
X16747857Y-18391476D02*
X16633571Y-18391476D01*
X16690714Y-18391476D02*
X16690714Y-18191476D01*
X16671667Y-18220048D01*
X16652619Y-18239095D01*
X16633571Y-18248619D01*
X16985952Y-18391476D02*
X16985952Y-18191476D01*
X17071667Y-18391476D02*
X17071667Y-18286714D01*
X17062143Y-18267667D01*
X17043095Y-18258143D01*
X17014524Y-18258143D01*
X16995476Y-18267667D01*
X16985952Y-18277190D01*
X17195476Y-18391476D02*
X17176429Y-18381952D01*
X17166905Y-18372429D01*
X17157381Y-18353381D01*
X17157381Y-18296238D01*
X17166905Y-18277190D01*
X17176429Y-18267667D01*
X17195476Y-18258143D01*
X17224048Y-18258143D01*
X17243095Y-18267667D01*
X17252619Y-18277190D01*
X17262143Y-18296238D01*
X17262143Y-18353381D01*
X17252619Y-18372429D01*
X17243095Y-18381952D01*
X17224048Y-18391476D01*
X17195476Y-18391476D01*
X17376429Y-18391476D02*
X17357381Y-18381952D01*
X17347857Y-18362905D01*
X17347857Y-18191476D01*
X17528810Y-18381952D02*
X17509762Y-18391476D01*
X17471667Y-18391476D01*
X17452619Y-18381952D01*
X17443095Y-18362905D01*
X17443095Y-18286714D01*
X17452619Y-18267667D01*
X17471667Y-18258143D01*
X17509762Y-18258143D01*
X17528810Y-18267667D01*
X17538333Y-18286714D01*
X17538333Y-18305762D01*
X17443095Y-18324810D01*
X17605000Y-18467667D02*
X17614524Y-18458143D01*
X17633571Y-18429571D01*
X17643095Y-18410524D01*
X17652619Y-18381952D01*
X17662143Y-18334333D01*
X17662143Y-18296238D01*
X17652619Y-18248619D01*
X17643095Y-18220048D01*
X17633571Y-18201000D01*
X17614524Y-18172429D01*
X17605000Y-18162905D01*
D16*
X12852000Y-18493500D02*
X12995000Y-18636500D01*
X12995000Y-18493500D02*
X12852000Y-18636500D01*
X12995000Y-18565000D02*
G75*
G03*
X12995000Y-18565000I-71500J0D01*
G01*
D11*
X13357381Y-18655476D02*
X13243095Y-18655476D01*
X13300238Y-18655476D02*
X13300238Y-18455476D01*
X13281190Y-18484048D01*
X13262143Y-18503095D01*
X13243095Y-18512619D01*
X13443095Y-18636429D02*
X13452619Y-18645952D01*
X13443095Y-18655476D01*
X13433571Y-18645952D01*
X13443095Y-18636429D01*
X13443095Y-18655476D01*
X13624048Y-18522143D02*
X13624048Y-18655476D01*
X13576428Y-18445952D02*
X13528809Y-18588810D01*
X13652619Y-18588810D01*
X13709762Y-18455476D02*
X13833571Y-18455476D01*
X13766905Y-18531667D01*
X13795476Y-18531667D01*
X13814524Y-18541190D01*
X13824048Y-18550714D01*
X13833571Y-18569762D01*
X13833571Y-18617381D01*
X13824048Y-18636429D01*
X13814524Y-18645952D01*
X13795476Y-18655476D01*
X13738333Y-18655476D01*
X13719286Y-18645952D01*
X13709762Y-18636429D01*
X13957381Y-18455476D02*
X13976428Y-18455476D01*
X13995476Y-18465000D01*
X14005000Y-18474524D01*
X14014524Y-18493571D01*
X14024048Y-18531667D01*
X14024048Y-18579286D01*
X14014524Y-18617381D01*
X14005000Y-18636429D01*
X13995476Y-18645952D01*
X13976428Y-18655476D01*
X13957381Y-18655476D01*
X13938333Y-18645952D01*
X13928809Y-18636429D01*
X13919286Y-18617381D01*
X13909762Y-18579286D01*
X13909762Y-18531667D01*
X13919286Y-18493571D01*
X13928809Y-18474524D01*
X13938333Y-18465000D01*
X13957381Y-18455476D01*
X14109762Y-18655476D02*
X14109762Y-18522143D01*
X14109762Y-18541190D02*
X14119286Y-18531667D01*
X14138333Y-18522143D01*
X14166905Y-18522143D01*
X14185952Y-18531667D01*
X14195476Y-18550714D01*
X14195476Y-18655476D01*
X14195476Y-18550714D02*
X14205000Y-18531667D01*
X14224048Y-18522143D01*
X14252619Y-18522143D01*
X14271667Y-18531667D01*
X14281190Y-18550714D01*
X14281190Y-18655476D01*
X14376428Y-18655476D02*
X14376428Y-18522143D01*
X14376428Y-18541190D02*
X14385952Y-18531667D01*
X14405000Y-18522143D01*
X14433571Y-18522143D01*
X14452619Y-18531667D01*
X14462143Y-18550714D01*
X14462143Y-18655476D01*
X14462143Y-18550714D02*
X14471667Y-18531667D01*
X14490714Y-18522143D01*
X14519286Y-18522143D01*
X14538333Y-18531667D01*
X14547857Y-18550714D01*
X14547857Y-18655476D01*
X14938333Y-18445952D02*
X14766905Y-18703095D01*
X15195476Y-18455476D02*
X15214524Y-18455476D01*
X15233571Y-18465000D01*
X15243095Y-18474524D01*
X15252619Y-18493571D01*
X15262143Y-18531667D01*
X15262143Y-18579286D01*
X15252619Y-18617381D01*
X15243095Y-18636429D01*
X15233571Y-18645952D01*
X15214524Y-18655476D01*
X15195476Y-18655476D01*
X15176428Y-18645952D01*
X15166905Y-18636429D01*
X15157381Y-18617381D01*
X15147857Y-18579286D01*
X15147857Y-18531667D01*
X15157381Y-18493571D01*
X15166905Y-18474524D01*
X15176428Y-18465000D01*
X15195476Y-18455476D01*
X15347857Y-18636429D02*
X15357381Y-18645952D01*
X15347857Y-18655476D01*
X15338333Y-18645952D01*
X15347857Y-18636429D01*
X15347857Y-18655476D01*
X15481190Y-18455476D02*
X15500238Y-18455476D01*
X15519286Y-18465000D01*
X15528809Y-18474524D01*
X15538333Y-18493571D01*
X15547857Y-18531667D01*
X15547857Y-18579286D01*
X15538333Y-18617381D01*
X15528809Y-18636429D01*
X15519286Y-18645952D01*
X15500238Y-18655476D01*
X15481190Y-18655476D01*
X15462143Y-18645952D01*
X15452619Y-18636429D01*
X15443095Y-18617381D01*
X15433571Y-18579286D01*
X15433571Y-18531667D01*
X15443095Y-18493571D01*
X15452619Y-18474524D01*
X15462143Y-18465000D01*
X15481190Y-18455476D01*
X15728809Y-18455476D02*
X15633571Y-18455476D01*
X15624048Y-18550714D01*
X15633571Y-18541190D01*
X15652619Y-18531667D01*
X15700238Y-18531667D01*
X15719286Y-18541190D01*
X15728809Y-18550714D01*
X15738333Y-18569762D01*
X15738333Y-18617381D01*
X15728809Y-18636429D01*
X15719286Y-18645952D01*
X15700238Y-18655476D01*
X15652619Y-18655476D01*
X15633571Y-18645952D01*
X15624048Y-18636429D01*
X15909762Y-18455476D02*
X15871667Y-18455476D01*
X15852619Y-18465000D01*
X15843095Y-18474524D01*
X15824048Y-18503095D01*
X15814524Y-18541190D01*
X15814524Y-18617381D01*
X15824048Y-18636429D01*
X15833571Y-18645952D01*
X15852619Y-18655476D01*
X15890714Y-18655476D01*
X15909762Y-18645952D01*
X15919286Y-18636429D01*
X15928809Y-18617381D01*
X15928809Y-18569762D01*
X15919286Y-18550714D01*
X15909762Y-18541190D01*
X15890714Y-18531667D01*
X15852619Y-18531667D01*
X15833571Y-18541190D01*
X15824048Y-18550714D01*
X15814524Y-18569762D01*
X15995476Y-18455476D02*
X16119286Y-18455476D01*
X16052619Y-18531667D01*
X16081190Y-18531667D01*
X16100238Y-18541190D01*
X16109762Y-18550714D01*
X16119286Y-18569762D01*
X16119286Y-18617381D01*
X16109762Y-18636429D01*
X16100238Y-18645952D01*
X16081190Y-18655476D01*
X16024048Y-18655476D01*
X16005000Y-18645952D01*
X15995476Y-18636429D01*
X16195476Y-18455476D02*
X16195476Y-18493571D01*
X16271667Y-18455476D02*
X16271667Y-18493571D01*
X16566905Y-18731667D02*
X16557381Y-18722143D01*
X16538333Y-18693571D01*
X16528809Y-18674524D01*
X16519286Y-18645952D01*
X16509762Y-18598333D01*
X16509762Y-18560238D01*
X16519286Y-18512619D01*
X16528809Y-18484048D01*
X16538333Y-18465000D01*
X16557381Y-18436429D01*
X16566905Y-18426905D01*
X16747857Y-18655476D02*
X16633571Y-18655476D01*
X16690714Y-18655476D02*
X16690714Y-18455476D01*
X16671667Y-18484048D01*
X16652619Y-18503095D01*
X16633571Y-18512619D01*
X16985952Y-18655476D02*
X16985952Y-18455476D01*
X17071667Y-18655476D02*
X17071667Y-18550714D01*
X17062143Y-18531667D01*
X17043095Y-18522143D01*
X17014524Y-18522143D01*
X16995476Y-18531667D01*
X16985952Y-18541190D01*
X17195476Y-18655476D02*
X17176429Y-18645952D01*
X17166905Y-18636429D01*
X17157381Y-18617381D01*
X17157381Y-18560238D01*
X17166905Y-18541190D01*
X17176429Y-18531667D01*
X17195476Y-18522143D01*
X17224048Y-18522143D01*
X17243095Y-18531667D01*
X17252619Y-18541190D01*
X17262143Y-18560238D01*
X17262143Y-18617381D01*
X17252619Y-18636429D01*
X17243095Y-18645952D01*
X17224048Y-18655476D01*
X17195476Y-18655476D01*
X17376429Y-18655476D02*
X17357381Y-18645952D01*
X17347857Y-18626905D01*
X17347857Y-18455476D01*
X17528810Y-18645952D02*
X17509762Y-18655476D01*
X17471667Y-18655476D01*
X17452619Y-18645952D01*
X17443095Y-18626905D01*
X17443095Y-18550714D01*
X17452619Y-18531667D01*
X17471667Y-18522143D01*
X17509762Y-18522143D01*
X17528810Y-18531667D01*
X17538333Y-18550714D01*
X17538333Y-18569762D01*
X17443095Y-18588810D01*
X17605000Y-18731667D02*
X17614524Y-18722143D01*
X17633571Y-18693571D01*
X17643095Y-18674524D01*
X17652619Y-18645952D01*
X17662143Y-18598333D01*
X17662143Y-18560238D01*
X17652619Y-18512619D01*
X17643095Y-18484048D01*
X17633571Y-18465000D01*
X17614524Y-18436429D01*
X17605000Y-18426905D01*
X12795000Y-18729000D02*
X12995000Y-18929000D01*
X12995000Y-18729000D02*
X12795000Y-18929000D01*
X12895000Y-18729000D02*
X12895000Y-18929000D01*
X12795000Y-18829000D02*
X12995000Y-18829000D01*
X13233571Y-18719476D02*
X13357381Y-18719476D01*
X13290714Y-18795667D01*
X13319286Y-18795667D01*
X13338333Y-18805190D01*
X13347857Y-18814714D01*
X13357381Y-18833762D01*
X13357381Y-18881381D01*
X13347857Y-18900429D01*
X13338333Y-18909952D01*
X13319286Y-18919476D01*
X13262143Y-18919476D01*
X13243095Y-18909952D01*
X13233571Y-18900429D01*
X13443095Y-18900429D02*
X13452619Y-18909952D01*
X13443095Y-18919476D01*
X13433571Y-18909952D01*
X13443095Y-18900429D01*
X13443095Y-18919476D01*
X13528809Y-18738524D02*
X13538333Y-18729000D01*
X13557381Y-18719476D01*
X13605000Y-18719476D01*
X13624048Y-18729000D01*
X13633571Y-18738524D01*
X13643095Y-18757571D01*
X13643095Y-18776619D01*
X13633571Y-18805190D01*
X13519286Y-18919476D01*
X13643095Y-18919476D01*
X13766905Y-18719476D02*
X13785952Y-18719476D01*
X13805000Y-18729000D01*
X13814524Y-18738524D01*
X13824048Y-18757571D01*
X13833571Y-18795667D01*
X13833571Y-18843286D01*
X13824048Y-18881381D01*
X13814524Y-18900429D01*
X13805000Y-18909952D01*
X13785952Y-18919476D01*
X13766905Y-18919476D01*
X13747857Y-18909952D01*
X13738333Y-18900429D01*
X13728809Y-18881381D01*
X13719286Y-18843286D01*
X13719286Y-18795667D01*
X13728809Y-18757571D01*
X13738333Y-18738524D01*
X13747857Y-18729000D01*
X13766905Y-18719476D01*
X13957381Y-18719476D02*
X13976428Y-18719476D01*
X13995476Y-18729000D01*
X14005000Y-18738524D01*
X14014524Y-18757571D01*
X14024048Y-18795667D01*
X14024048Y-18843286D01*
X14014524Y-18881381D01*
X14005000Y-18900429D01*
X13995476Y-18909952D01*
X13976428Y-18919476D01*
X13957381Y-18919476D01*
X13938333Y-18909952D01*
X13928809Y-18900429D01*
X13919286Y-18881381D01*
X13909762Y-18843286D01*
X13909762Y-18795667D01*
X13919286Y-18757571D01*
X13928809Y-18738524D01*
X13938333Y-18729000D01*
X13957381Y-18719476D01*
X14109762Y-18919476D02*
X14109762Y-18786143D01*
X14109762Y-18805190D02*
X14119286Y-18795667D01*
X14138333Y-18786143D01*
X14166905Y-18786143D01*
X14185952Y-18795667D01*
X14195476Y-18814714D01*
X14195476Y-18919476D01*
X14195476Y-18814714D02*
X14205000Y-18795667D01*
X14224048Y-18786143D01*
X14252619Y-18786143D01*
X14271667Y-18795667D01*
X14281190Y-18814714D01*
X14281190Y-18919476D01*
X14376428Y-18919476D02*
X14376428Y-18786143D01*
X14376428Y-18805190D02*
X14385952Y-18795667D01*
X14405000Y-18786143D01*
X14433571Y-18786143D01*
X14452619Y-18795667D01*
X14462143Y-18814714D01*
X14462143Y-18919476D01*
X14462143Y-18814714D02*
X14471667Y-18795667D01*
X14490714Y-18786143D01*
X14519286Y-18786143D01*
X14538333Y-18795667D01*
X14547857Y-18814714D01*
X14547857Y-18919476D01*
X14938333Y-18709952D02*
X14766905Y-18967095D01*
X15195476Y-18719476D02*
X15214524Y-18719476D01*
X15233571Y-18729000D01*
X15243095Y-18738524D01*
X15252619Y-18757571D01*
X15262143Y-18795667D01*
X15262143Y-18843286D01*
X15252619Y-18881381D01*
X15243095Y-18900429D01*
X15233571Y-18909952D01*
X15214524Y-18919476D01*
X15195476Y-18919476D01*
X15176428Y-18909952D01*
X15166905Y-18900429D01*
X15157381Y-18881381D01*
X15147857Y-18843286D01*
X15147857Y-18795667D01*
X15157381Y-18757571D01*
X15166905Y-18738524D01*
X15176428Y-18729000D01*
X15195476Y-18719476D01*
X15347857Y-18900429D02*
X15357381Y-18909952D01*
X15347857Y-18919476D01*
X15338333Y-18909952D01*
X15347857Y-18900429D01*
X15347857Y-18919476D01*
X15547857Y-18919476D02*
X15433571Y-18919476D01*
X15490714Y-18919476D02*
X15490714Y-18719476D01*
X15471667Y-18748048D01*
X15452619Y-18767095D01*
X15433571Y-18776619D01*
X15624048Y-18738524D02*
X15633571Y-18729000D01*
X15652619Y-18719476D01*
X15700238Y-18719476D01*
X15719286Y-18729000D01*
X15728809Y-18738524D01*
X15738333Y-18757571D01*
X15738333Y-18776619D01*
X15728809Y-18805190D01*
X15614524Y-18919476D01*
X15738333Y-18919476D01*
X15909762Y-18719476D02*
X15871667Y-18719476D01*
X15852619Y-18729000D01*
X15843095Y-18738524D01*
X15824048Y-18767095D01*
X15814524Y-18805190D01*
X15814524Y-18881381D01*
X15824048Y-18900429D01*
X15833571Y-18909952D01*
X15852619Y-18919476D01*
X15890714Y-18919476D01*
X15909762Y-18909952D01*
X15919286Y-18900429D01*
X15928809Y-18881381D01*
X15928809Y-18833762D01*
X15919286Y-18814714D01*
X15909762Y-18805190D01*
X15890714Y-18795667D01*
X15852619Y-18795667D01*
X15833571Y-18805190D01*
X15824048Y-18814714D01*
X15814524Y-18833762D01*
X16052619Y-18719476D02*
X16071667Y-18719476D01*
X16090714Y-18729000D01*
X16100238Y-18738524D01*
X16109762Y-18757571D01*
X16119286Y-18795667D01*
X16119286Y-18843286D01*
X16109762Y-18881381D01*
X16100238Y-18900429D01*
X16090714Y-18909952D01*
X16071667Y-18919476D01*
X16052619Y-18919476D01*
X16033571Y-18909952D01*
X16024048Y-18900429D01*
X16014524Y-18881381D01*
X16005000Y-18843286D01*
X16005000Y-18795667D01*
X16014524Y-18757571D01*
X16024048Y-18738524D01*
X16033571Y-18729000D01*
X16052619Y-18719476D01*
X16195476Y-18719476D02*
X16195476Y-18757571D01*
X16271667Y-18719476D02*
X16271667Y-18757571D01*
X16566905Y-18995667D02*
X16557381Y-18986143D01*
X16538333Y-18957571D01*
X16528809Y-18938524D01*
X16519286Y-18909952D01*
X16509762Y-18862333D01*
X16509762Y-18824238D01*
X16519286Y-18776619D01*
X16528809Y-18748048D01*
X16538333Y-18729000D01*
X16557381Y-18700429D01*
X16566905Y-18690905D01*
X16681190Y-18719476D02*
X16700238Y-18719476D01*
X16719286Y-18729000D01*
X16728809Y-18738524D01*
X16738333Y-18757571D01*
X16747857Y-18795667D01*
X16747857Y-18843286D01*
X16738333Y-18881381D01*
X16728809Y-18900429D01*
X16719286Y-18909952D01*
X16700238Y-18919476D01*
X16681190Y-18919476D01*
X16662143Y-18909952D01*
X16652619Y-18900429D01*
X16643095Y-18881381D01*
X16633571Y-18843286D01*
X16633571Y-18795667D01*
X16643095Y-18757571D01*
X16652619Y-18738524D01*
X16662143Y-18729000D01*
X16681190Y-18719476D01*
X16985952Y-18919476D02*
X16985952Y-18719476D01*
X17071667Y-18919476D02*
X17071667Y-18814714D01*
X17062143Y-18795667D01*
X17043095Y-18786143D01*
X17014524Y-18786143D01*
X16995476Y-18795667D01*
X16985952Y-18805190D01*
X17195476Y-18919476D02*
X17176429Y-18909952D01*
X17166905Y-18900429D01*
X17157381Y-18881381D01*
X17157381Y-18824238D01*
X17166905Y-18805190D01*
X17176429Y-18795667D01*
X17195476Y-18786143D01*
X17224048Y-18786143D01*
X17243095Y-18795667D01*
X17252619Y-18805190D01*
X17262143Y-18824238D01*
X17262143Y-18881381D01*
X17252619Y-18900429D01*
X17243095Y-18909952D01*
X17224048Y-18919476D01*
X17195476Y-18919476D01*
X17376429Y-18919476D02*
X17357381Y-18909952D01*
X17347857Y-18890905D01*
X17347857Y-18719476D01*
X17528810Y-18909952D02*
X17509762Y-18919476D01*
X17471667Y-18919476D01*
X17452619Y-18909952D01*
X17443095Y-18890905D01*
X17443095Y-18814714D01*
X17452619Y-18795667D01*
X17471667Y-18786143D01*
X17509762Y-18786143D01*
X17528810Y-18795667D01*
X17538333Y-18814714D01*
X17538333Y-18833762D01*
X17443095Y-18852810D01*
X17614524Y-18909952D02*
X17633571Y-18919476D01*
X17671667Y-18919476D01*
X17690714Y-18909952D01*
X17700238Y-18890905D01*
X17700238Y-18881381D01*
X17690714Y-18862333D01*
X17671667Y-18852810D01*
X17643095Y-18852810D01*
X17624048Y-18843286D01*
X17614524Y-18824238D01*
X17614524Y-18814714D01*
X17624048Y-18795667D01*
X17643095Y-18786143D01*
X17671667Y-18786143D01*
X17690714Y-18795667D01*
X17938333Y-18843286D02*
X18090714Y-18843286D01*
X18014524Y-18919476D02*
X18014524Y-18767095D01*
X18328810Y-18738524D02*
X18338333Y-18729000D01*
X18357381Y-18719476D01*
X18405000Y-18719476D01*
X18424048Y-18729000D01*
X18433571Y-18738524D01*
X18443095Y-18757571D01*
X18443095Y-18776619D01*
X18433571Y-18805190D01*
X18319286Y-18919476D01*
X18443095Y-18919476D01*
X18671667Y-18909952D02*
X18690714Y-18919476D01*
X18728810Y-18919476D01*
X18747857Y-18909952D01*
X18757381Y-18890905D01*
X18757381Y-18881381D01*
X18747857Y-18862333D01*
X18728810Y-18852810D01*
X18700238Y-18852810D01*
X18681190Y-18843286D01*
X18671667Y-18824238D01*
X18671667Y-18814714D01*
X18681190Y-18795667D01*
X18700238Y-18786143D01*
X18728810Y-18786143D01*
X18747857Y-18795667D01*
X18871667Y-18919476D02*
X18852619Y-18909952D01*
X18843095Y-18890905D01*
X18843095Y-18719476D01*
X18976429Y-18919476D02*
X18957381Y-18909952D01*
X18947857Y-18900429D01*
X18938333Y-18881381D01*
X18938333Y-18824238D01*
X18947857Y-18805190D01*
X18957381Y-18795667D01*
X18976429Y-18786143D01*
X19005000Y-18786143D01*
X19024048Y-18795667D01*
X19033571Y-18805190D01*
X19043095Y-18824238D01*
X19043095Y-18881381D01*
X19033571Y-18900429D01*
X19024048Y-18909952D01*
X19005000Y-18919476D01*
X18976429Y-18919476D01*
X19100238Y-18786143D02*
X19176429Y-18786143D01*
X19128810Y-18719476D02*
X19128810Y-18890905D01*
X19138333Y-18909952D01*
X19157381Y-18919476D01*
X19176429Y-18919476D01*
X19233571Y-18909952D02*
X19252619Y-18919476D01*
X19290714Y-18919476D01*
X19309762Y-18909952D01*
X19319286Y-18890905D01*
X19319286Y-18881381D01*
X19309762Y-18862333D01*
X19290714Y-18852810D01*
X19262143Y-18852810D01*
X19243095Y-18843286D01*
X19233571Y-18824238D01*
X19233571Y-18814714D01*
X19243095Y-18795667D01*
X19262143Y-18786143D01*
X19290714Y-18786143D01*
X19309762Y-18795667D01*
X19385952Y-18995667D02*
X19395476Y-18986143D01*
X19414524Y-18957571D01*
X19424048Y-18938524D01*
X19433571Y-18909952D01*
X19443095Y-18862333D01*
X19443095Y-18824238D01*
X19433571Y-18776619D01*
X19424048Y-18748048D01*
X19414524Y-18729000D01*
X19395476Y-18700429D01*
X19385952Y-18690905D01*
X12795000Y-19049000D02*
X12995000Y-19249000D01*
X12995000Y-19049000D02*
X12795000Y-19249000D01*
X12965711Y-19219711D02*
X12965711Y-19078289D01*
X12824289Y-19078289D01*
X12824289Y-19219711D01*
X12965711Y-19219711D01*
X13233571Y-19039476D02*
X13366905Y-19039476D01*
X13281190Y-19239476D01*
X13443095Y-19220429D02*
X13452619Y-19229952D01*
X13443095Y-19239476D01*
X13433571Y-19229952D01*
X13443095Y-19220429D01*
X13443095Y-19239476D01*
X13576428Y-19039476D02*
X13595476Y-19039476D01*
X13614524Y-19049000D01*
X13624048Y-19058524D01*
X13633571Y-19077571D01*
X13643095Y-19115667D01*
X13643095Y-19163286D01*
X13633571Y-19201381D01*
X13624048Y-19220429D01*
X13614524Y-19229952D01*
X13595476Y-19239476D01*
X13576428Y-19239476D01*
X13557381Y-19229952D01*
X13547857Y-19220429D01*
X13538333Y-19201381D01*
X13528809Y-19163286D01*
X13528809Y-19115667D01*
X13538333Y-19077571D01*
X13547857Y-19058524D01*
X13557381Y-19049000D01*
X13576428Y-19039476D01*
X13766905Y-19039476D02*
X13785952Y-19039476D01*
X13805000Y-19049000D01*
X13814524Y-19058524D01*
X13824048Y-19077571D01*
X13833571Y-19115667D01*
X13833571Y-19163286D01*
X13824048Y-19201381D01*
X13814524Y-19220429D01*
X13805000Y-19229952D01*
X13785952Y-19239476D01*
X13766905Y-19239476D01*
X13747857Y-19229952D01*
X13738333Y-19220429D01*
X13728809Y-19201381D01*
X13719286Y-19163286D01*
X13719286Y-19115667D01*
X13728809Y-19077571D01*
X13738333Y-19058524D01*
X13747857Y-19049000D01*
X13766905Y-19039476D01*
X13957381Y-19039476D02*
X13976428Y-19039476D01*
X13995476Y-19049000D01*
X14005000Y-19058524D01*
X14014524Y-19077571D01*
X14024048Y-19115667D01*
X14024048Y-19163286D01*
X14014524Y-19201381D01*
X14005000Y-19220429D01*
X13995476Y-19229952D01*
X13976428Y-19239476D01*
X13957381Y-19239476D01*
X13938333Y-19229952D01*
X13928809Y-19220429D01*
X13919286Y-19201381D01*
X13909762Y-19163286D01*
X13909762Y-19115667D01*
X13919286Y-19077571D01*
X13928809Y-19058524D01*
X13938333Y-19049000D01*
X13957381Y-19039476D01*
X14109762Y-19239476D02*
X14109762Y-19106143D01*
X14109762Y-19125190D02*
X14119286Y-19115667D01*
X14138333Y-19106143D01*
X14166905Y-19106143D01*
X14185952Y-19115667D01*
X14195476Y-19134714D01*
X14195476Y-19239476D01*
X14195476Y-19134714D02*
X14205000Y-19115667D01*
X14224048Y-19106143D01*
X14252619Y-19106143D01*
X14271667Y-19115667D01*
X14281190Y-19134714D01*
X14281190Y-19239476D01*
X14376428Y-19239476D02*
X14376428Y-19106143D01*
X14376428Y-19125190D02*
X14385952Y-19115667D01*
X14405000Y-19106143D01*
X14433571Y-19106143D01*
X14452619Y-19115667D01*
X14462143Y-19134714D01*
X14462143Y-19239476D01*
X14462143Y-19134714D02*
X14471667Y-19115667D01*
X14490714Y-19106143D01*
X14519286Y-19106143D01*
X14538333Y-19115667D01*
X14547857Y-19134714D01*
X14547857Y-19239476D01*
X14938333Y-19029952D02*
X14766905Y-19287095D01*
X15195476Y-19039476D02*
X15214524Y-19039476D01*
X15233571Y-19049000D01*
X15243095Y-19058524D01*
X15252619Y-19077571D01*
X15262143Y-19115667D01*
X15262143Y-19163286D01*
X15252619Y-19201381D01*
X15243095Y-19220429D01*
X15233571Y-19229952D01*
X15214524Y-19239476D01*
X15195476Y-19239476D01*
X15176428Y-19229952D01*
X15166905Y-19220429D01*
X15157381Y-19201381D01*
X15147857Y-19163286D01*
X15147857Y-19115667D01*
X15157381Y-19077571D01*
X15166905Y-19058524D01*
X15176428Y-19049000D01*
X15195476Y-19039476D01*
X15347857Y-19220429D02*
X15357381Y-19229952D01*
X15347857Y-19239476D01*
X15338333Y-19229952D01*
X15347857Y-19220429D01*
X15347857Y-19239476D01*
X15433571Y-19058524D02*
X15443095Y-19049000D01*
X15462143Y-19039476D01*
X15509762Y-19039476D01*
X15528809Y-19049000D01*
X15538333Y-19058524D01*
X15547857Y-19077571D01*
X15547857Y-19096619D01*
X15538333Y-19125190D01*
X15424048Y-19239476D01*
X15547857Y-19239476D01*
X15614524Y-19039476D02*
X15747857Y-19039476D01*
X15662143Y-19239476D01*
X15919286Y-19039476D02*
X15824048Y-19039476D01*
X15814524Y-19134714D01*
X15824048Y-19125190D01*
X15843095Y-19115667D01*
X15890714Y-19115667D01*
X15909762Y-19125190D01*
X15919286Y-19134714D01*
X15928809Y-19153762D01*
X15928809Y-19201381D01*
X15919286Y-19220429D01*
X15909762Y-19229952D01*
X15890714Y-19239476D01*
X15843095Y-19239476D01*
X15824048Y-19229952D01*
X15814524Y-19220429D01*
X16100238Y-19039476D02*
X16062143Y-19039476D01*
X16043095Y-19049000D01*
X16033571Y-19058524D01*
X16014524Y-19087095D01*
X16005000Y-19125190D01*
X16005000Y-19201381D01*
X16014524Y-19220429D01*
X16024048Y-19229952D01*
X16043095Y-19239476D01*
X16081190Y-19239476D01*
X16100238Y-19229952D01*
X16109762Y-19220429D01*
X16119286Y-19201381D01*
X16119286Y-19153762D01*
X16109762Y-19134714D01*
X16100238Y-19125190D01*
X16081190Y-19115667D01*
X16043095Y-19115667D01*
X16024048Y-19125190D01*
X16014524Y-19134714D01*
X16005000Y-19153762D01*
X16195476Y-19039476D02*
X16195476Y-19077571D01*
X16271667Y-19039476D02*
X16271667Y-19077571D01*
X16566905Y-19315667D02*
X16557381Y-19306143D01*
X16538333Y-19277571D01*
X16528809Y-19258524D01*
X16519286Y-19229952D01*
X16509762Y-19182333D01*
X16509762Y-19144238D01*
X16519286Y-19096619D01*
X16528809Y-19068048D01*
X16538333Y-19049000D01*
X16557381Y-19020429D01*
X16566905Y-19010905D01*
X16633571Y-19058524D02*
X16643095Y-19049000D01*
X16662143Y-19039476D01*
X16709762Y-19039476D01*
X16728809Y-19049000D01*
X16738333Y-19058524D01*
X16747857Y-19077571D01*
X16747857Y-19096619D01*
X16738333Y-19125190D01*
X16624048Y-19239476D01*
X16747857Y-19239476D01*
X16985952Y-19239476D02*
X16985952Y-19039476D01*
X17071667Y-19239476D02*
X17071667Y-19134714D01*
X17062143Y-19115667D01*
X17043095Y-19106143D01*
X17014524Y-19106143D01*
X16995476Y-19115667D01*
X16985952Y-19125190D01*
X17195476Y-19239476D02*
X17176429Y-19229952D01*
X17166905Y-19220429D01*
X17157381Y-19201381D01*
X17157381Y-19144238D01*
X17166905Y-19125190D01*
X17176429Y-19115667D01*
X17195476Y-19106143D01*
X17224048Y-19106143D01*
X17243095Y-19115667D01*
X17252619Y-19125190D01*
X17262143Y-19144238D01*
X17262143Y-19201381D01*
X17252619Y-19220429D01*
X17243095Y-19229952D01*
X17224048Y-19239476D01*
X17195476Y-19239476D01*
X17376429Y-19239476D02*
X17357381Y-19229952D01*
X17347857Y-19210905D01*
X17347857Y-19039476D01*
X17528810Y-19229952D02*
X17509762Y-19239476D01*
X17471667Y-19239476D01*
X17452619Y-19229952D01*
X17443095Y-19210905D01*
X17443095Y-19134714D01*
X17452619Y-19115667D01*
X17471667Y-19106143D01*
X17509762Y-19106143D01*
X17528810Y-19115667D01*
X17538333Y-19134714D01*
X17538333Y-19153762D01*
X17443095Y-19172810D01*
X17614524Y-19229952D02*
X17633571Y-19239476D01*
X17671667Y-19239476D01*
X17690714Y-19229952D01*
X17700238Y-19210905D01*
X17700238Y-19201381D01*
X17690714Y-19182333D01*
X17671667Y-19172810D01*
X17643095Y-19172810D01*
X17624048Y-19163286D01*
X17614524Y-19144238D01*
X17614524Y-19134714D01*
X17624048Y-19115667D01*
X17643095Y-19106143D01*
X17671667Y-19106143D01*
X17690714Y-19115667D01*
X17766905Y-19315667D02*
X17776429Y-19306143D01*
X17795476Y-19277571D01*
X17805000Y-19258524D01*
X17814524Y-19229952D01*
X17824048Y-19182333D01*
X17824048Y-19144238D01*
X17814524Y-19096619D01*
X17805000Y-19068048D01*
X17795476Y-19049000D01*
X17776429Y-19020429D01*
X17766905Y-19010905D01*
M02*
