<?xml version="1.0" standalone="no"?>
 <!DOCTYPE svg PUBLIC "-//W3C//DTD SVG 1.1//EN" 
 "http://www.w3.org/Graphics/SVG/1.1/DTD/svg11.dtd"> 
<svg
  xmlns:svg="http://www.w3.org/2000/svg"
  xmlns="http://www.w3.org/2000/svg"
  xmlns:xlink="http://www.w3.org/1999/xlink"
  version="1.1"
  width="29.700220cm" height="21.000720cm" viewBox="0 0 297002200 210007200">
<title>SVG Picture created as MiniLFO-F_Cu.svg date 2023/02/28 23:27:59 </title>
  <desc>Picture generated by PCBNEW </desc>
<g style="fill:#000000; fill-opacity:1.000000;stroke:#000000; stroke-opacity:1.000000;
stroke-linecap:round; stroke-linejoin:round;"
 transform="translate(0 0) scale(1 1)">
</g>
<g style="fill:#000000; fill-opacity:0.0; 
stroke:#000000; stroke-width:0.000000; stroke-opacity:1; 
stroke-linecap:round; stroke-linejoin:round;">
<g >
</g>
<g style="fill:#000000; fill-opacity:1.0; 
stroke:#000000; stroke-width:1.000000; stroke-opacity:1; 
stroke-linecap:round; stroke-linejoin:round;">
<circle cx="111231000.000000" cy="78820000.000000" r="800000.000000" /> 
</g>
<g style="fill:#000000; fill-opacity:1.0; 
stroke:#000000; stroke-width:21200.000000; stroke-opacity:1; 
stroke-linecap:round; stroke-linejoin:round;">
</g>
<g style="fill:#000000; fill-opacity:1.0; 
stroke:#000000; stroke-width:1.000000; stroke-opacity:1; 
stroke-linecap:round; stroke-linejoin:round;">
<circle cx="111231000.000000" cy="83820000.000000" r="800000.000000" /> 
</g>
<g style="fill:#000000; fill-opacity:1.0; 
stroke:#000000; stroke-width:21200.000000; stroke-opacity:1; 
stroke-linecap:round; stroke-linejoin:round;">
</g>
<g >
</g>
<g style="fill:#000000; fill-opacity:1.0; 
stroke:#000000; stroke-width:21200.000000; stroke-opacity:1; 
stroke-linecap:round; stroke-linejoin:round;">
</g>
<g style="fill:#000000; fill-opacity:1.0; 
stroke:#000000; stroke-width:1.000000; stroke-opacity:1; 
stroke-linecap:round; stroke-linejoin:round;">
<circle cx="116057000.000000" cy="79985113.000000" r="800000.000000" /> 
</g>
<g style="fill:#000000; fill-opacity:1.0; 
stroke:#000000; stroke-width:21200.000000; stroke-opacity:1; 
stroke-linecap:round; stroke-linejoin:round;">
</g>
<g style="fill:#000000; fill-opacity:1.0; 
stroke:#000000; stroke-width:1.000000; stroke-opacity:1; 
stroke-linecap:round; stroke-linejoin:round;">
<path style="fill:#000000; fill-opacity:1.0; 
stroke:#000000; stroke-width:1.000000; stroke-opacity:1; 
stroke-linecap:round; stroke-linejoin:round;fill-rule:evenodd;"
d="M 116857000.000000,83285113.000000
115257000.000000,83285113.000000
115257000.000000,81685113.000000
116857000.000000,81685113.000000
Z" /> 
</g>
<g >
</g>
<g style="fill:#000000; fill-opacity:1.0; 
stroke:#000000; stroke-width:1.000000; stroke-opacity:1; 
stroke-linecap:round; stroke-linejoin:round;">
<circle cx="116271000.000000" cy="120025000.000000" r="900000.000000" /> 
</g>
<g style="fill:#000000; fill-opacity:1.0; 
stroke:#000000; stroke-width:21200.000000; stroke-opacity:1; 
stroke-linecap:round; stroke-linejoin:round;">
</g>
<g style="fill:#000000; fill-opacity:1.0; 
stroke:#000000; stroke-width:1.000000; stroke-opacity:1; 
stroke-linecap:round; stroke-linejoin:round;">
<circle cx="113771000.000000" cy="120025000.000000" r="900000.000000" /> 
</g>
<g style="fill:#000000; fill-opacity:1.0; 
stroke:#000000; stroke-width:21200.000000; stroke-opacity:1; 
stroke-linecap:round; stroke-linejoin:round;">
</g>
<g style="fill:#000000; fill-opacity:1.0; 
stroke:#000000; stroke-width:1.000000; stroke-opacity:1; 
stroke-linecap:round; stroke-linejoin:round;">
<path style="fill:#000000; fill-opacity:1.0; 
stroke:#000000; stroke-width:1.000000; stroke-opacity:1; 
stroke-linecap:round; stroke-linejoin:round;fill-rule:evenodd;"
d="M 112171000.000000,119125000.000000
112171000.000000,120925000.000000
110371000.000000,120925000.000000
110371000.000000,119125000.000000
Z" /> 
</g>
<g style="fill:#000000; fill-opacity:1.0; 
stroke:#000000; stroke-width:2720000.000000; stroke-opacity:1; 
stroke-linecap:round; stroke-linejoin:round;">
</g>
<g style="fill:#000000; fill-opacity:0.0; 
stroke:#000000; stroke-width:2720000.000000; stroke-opacity:1; 
stroke-linecap:round; stroke-linejoin:round;">
<path d="M118571000 112785000
L118571000 112265000
" />
<path d="M108971000 112785000
L108971000 112265000
" />
</g>
<g >
</g>
<g style="fill:#000000; fill-opacity:0.0; 
stroke:#000000; stroke-width:2720000.000000; stroke-opacity:1; 
stroke-linecap:round; stroke-linejoin:round;">
<path d="M108897000 91449000
L108897000 90929000
" />
<path d="M118497000 91449000
L118497000 90929000
" />
</g>
<g style="fill:#000000; fill-opacity:0.0; 
stroke:#000000; stroke-width:1.000000; stroke-opacity:1; 
stroke-linecap:round; stroke-linejoin:round;">
</g>
<g style="fill:#000000; fill-opacity:1.0; 
stroke:#000000; stroke-width:1.000000; stroke-opacity:1; 
stroke-linecap:round; stroke-linejoin:round;">
<path style="fill:#000000; fill-opacity:1.0; 
stroke:#000000; stroke-width:1.000000; stroke-opacity:1; 
stroke-linecap:round; stroke-linejoin:round;fill-rule:evenodd;"
d="M 112097000.000000,97789000.000000
112097000.000000,99589000.000000
110297000.000000,99589000.000000
110297000.000000,97789000.000000
Z" /> 
<circle cx="113697000.000000" cy="98689000.000000" r="900000.000000" /> 
</g>
<g style="fill:#000000; fill-opacity:1.0; 
stroke:#000000; stroke-width:21200.000000; stroke-opacity:1; 
stroke-linecap:round; stroke-linejoin:round;">
</g>
<g style="fill:#000000; fill-opacity:1.0; 
stroke:#000000; stroke-width:1.000000; stroke-opacity:1; 
stroke-linecap:round; stroke-linejoin:round;">
<circle cx="116197000.000000" cy="98689000.000000" r="900000.000000" /> 
</g>
<g style="fill:#000000; fill-opacity:1.0; 
stroke:#000000; stroke-width:21200.000000; stroke-opacity:1; 
stroke-linecap:round; stroke-linejoin:round;">
</g>
<g >
</g>
<g style="fill:#000000; fill-opacity:1.0; 
stroke:#000000; stroke-width:21200.000000; stroke-opacity:1; 
stroke-linecap:round; stroke-linejoin:round;">
</g>
<g style="fill:#000000; fill-opacity:1.0; 
stroke:#000000; stroke-width:1.000000; stroke-opacity:1; 
stroke-linecap:round; stroke-linejoin:round;">
<path style="fill:#000000; fill-opacity:1.0; 
stroke:#000000; stroke-width:1.000000; stroke-opacity:1; 
stroke-linecap:round; stroke-linejoin:round;fill-rule:evenodd;"
d="M 114862000.000000,152235000.000000
114862000.000000,154065000.000000
112932000.000000,154065000.000000
112932000.000000,152235000.000000
Z" /> 
<circle cx="113897000.000000" cy="164550000.000000" r="1065000.000000" /> 
</g>
<g style="fill:#000000; fill-opacity:1.0; 
stroke:#000000; stroke-width:21200.000000; stroke-opacity:1; 
stroke-linecap:round; stroke-linejoin:round;">
</g>
<g style="fill:#000000; fill-opacity:1.0; 
stroke:#000000; stroke-width:1.000000; stroke-opacity:1; 
stroke-linecap:round; stroke-linejoin:round;">
<circle cx="113897000.000000" cy="156250000.000000" r="1065000.000000" /> 
</g>
<g style="fill:#000000; fill-opacity:1.0; 
stroke:#000000; stroke-width:21200.000000; stroke-opacity:1; 
stroke-linecap:round; stroke-linejoin:round;">
</g>
<g >
</g>
<g style="fill:#000000; fill-opacity:1.0; 
stroke:#000000; stroke-width:21200.000000; stroke-opacity:1; 
stroke-linecap:round; stroke-linejoin:round;">
</g>
<g style="fill:#000000; fill-opacity:1.0; 
stroke:#000000; stroke-width:1.000000; stroke-opacity:1; 
stroke-linecap:round; stroke-linejoin:round;">
<path style="fill:#000000; fill-opacity:1.0; 
stroke:#000000; stroke-width:1.000000; stroke-opacity:1; 
stroke-linecap:round; stroke-linejoin:round;fill-rule:evenodd;"
d="M 162900000.000000,100672500.000000
162918079.000000,100581613.000000
162969562.000000,100504562.000000
163046613.000000,100453079.000000
163137500.000000,100435000.000000
163637500.000000,100435000.000000
163728387.000000,100453079.000000
163805438.000000,100504562.000000
163856921.000000,100581613.000000
163875000.000000,100672500.000000
163875000.000000,101147500.000000
163856921.000000,101238387.000000
163805438.000000,101315438.000000
163728387.000000,101366921.000000
163637500.000000,101385000.000000
163137500.000000,101385000.000000
163046613.000000,101366921.000000
162969562.000000,101315438.000000
162918079.000000,101238387.000000
162900000.000000,101147500.000000
Z" /> 
<path style="fill:#000000; fill-opacity:1.0; 
stroke:#000000; stroke-width:1.000000; stroke-opacity:1; 
stroke-linecap:round; stroke-linejoin:round;fill-rule:evenodd;"
d="M 164725000.000000,100672500.000000
164743079.000000,100581613.000000
164794562.000000,100504562.000000
164871613.000000,100453079.000000
164962500.000000,100435000.000000
165462500.000000,100435000.000000
165553387.000000,100453079.000000
165630438.000000,100504562.000000
165681921.000000,100581613.000000
165700000.000000,100672500.000000
165700000.000000,101147500.000000
165681921.000000,101238387.000000
165630438.000000,101315438.000000
165553387.000000,101366921.000000
165462500.000000,101385000.000000
164962500.000000,101385000.000000
164871613.000000,101366921.000000
164794562.000000,101315438.000000
164743079.000000,101238387.000000
164725000.000000,101147500.000000
Z" /> 
</g>
<g >
</g>
<g style="fill:#000000; fill-opacity:1.0; 
stroke:#000000; stroke-width:1.000000; stroke-opacity:1; 
stroke-linecap:round; stroke-linejoin:round;">
<path style="fill:#000000; fill-opacity:1.0; 
stroke:#000000; stroke-width:1.000000; stroke-opacity:1; 
stroke-linecap:round; stroke-linejoin:round;fill-rule:evenodd;"
d="M 133575000.000000,143275000.000000
133594030.000000,143179329.000000
133648223.000000,143098223.000000
133729329.000000,143044030.000000
133825000.000000,143025000.000000
134500000.000000,143025000.000000
134595671.000000,143044030.000000
134676777.000000,143098223.000000
134730970.000000,143179329.000000
134750000.000000,143275000.000000
134750000.000000,144225000.000000
134730970.000000,144320671.000000
134676777.000000,144401777.000000
134595671.000000,144455970.000000
134500000.000000,144475000.000000
133825000.000000,144475000.000000
133729329.000000,144455970.000000
133648223.000000,144401777.000000
133594030.000000,144320671.000000
133575000.000000,144225000.000000
Z" /> 
<path style="fill:#000000; fill-opacity:1.0; 
stroke:#000000; stroke-width:1.000000; stroke-opacity:1; 
stroke-linecap:round; stroke-linejoin:round;fill-rule:evenodd;"
d="M 135650000.000000,143275000.000000
135669030.000000,143179329.000000
135723223.000000,143098223.000000
135804329.000000,143044030.000000
135900000.000000,143025000.000000
136575000.000000,143025000.000000
136670671.000000,143044030.000000
136751777.000000,143098223.000000
136805970.000000,143179329.000000
136825000.000000,143275000.000000
136825000.000000,144225000.000000
136805970.000000,144320671.000000
136751777.000000,144401777.000000
136670671.000000,144455970.000000
136575000.000000,144475000.000000
135900000.000000,144475000.000000
135804329.000000,144455970.000000
135723223.000000,144401777.000000
135669030.000000,144320671.000000
135650000.000000,144225000.000000
Z" /> 
</g>
<g >
</g>
<g style="fill:#000000; fill-opacity:1.0; 
stroke:#000000; stroke-width:1.000000; stroke-opacity:1; 
stroke-linecap:round; stroke-linejoin:round;">
<path style="fill:#000000; fill-opacity:1.0; 
stroke:#000000; stroke-width:1.000000; stroke-opacity:1; 
stroke-linecap:round; stroke-linejoin:round;fill-rule:evenodd;"
d="M 136625000.000000,129225000.000000
136605970.000000,129320671.000000
136551777.000000,129401777.000000
136470671.000000,129455970.000000
136375000.000000,129475000.000000
135700000.000000,129475000.000000
135604329.000000,129455970.000000
135523223.000000,129401777.000000
135469030.000000,129320671.000000
135450000.000000,129225000.000000
135450000.000000,128275000.000000
135469030.000000,128179329.000000
135523223.000000,128098223.000000
135604329.000000,128044030.000000
135700000.000000,128025000.000000
136375000.000000,128025000.000000
136470671.000000,128044030.000000
136551777.000000,128098223.000000
136605970.000000,128179329.000000
136625000.000000,128275000.000000
Z" /> 
<path style="fill:#000000; fill-opacity:1.0; 
stroke:#000000; stroke-width:1.000000; stroke-opacity:1; 
stroke-linecap:round; stroke-linejoin:round;fill-rule:evenodd;"
d="M 134550000.000000,129225000.000000
134530970.000000,129320671.000000
134476777.000000,129401777.000000
134395671.000000,129455970.000000
134300000.000000,129475000.000000
133625000.000000,129475000.000000
133529329.000000,129455970.000000
133448223.000000,129401777.000000
133394030.000000,129320671.000000
133375000.000000,129225000.000000
133375000.000000,128275000.000000
133394030.000000,128179329.000000
133448223.000000,128098223.000000
133529329.000000,128044030.000000
133625000.000000,128025000.000000
134300000.000000,128025000.000000
134395671.000000,128044030.000000
134476777.000000,128098223.000000
134530970.000000,128179329.000000
134550000.000000,128275000.000000
Z" /> 
</g>
<g >
</g>
<g style="fill:#000000; fill-opacity:1.0; 
stroke:#000000; stroke-width:1.000000; stroke-opacity:1; 
stroke-linecap:round; stroke-linejoin:round;">
<path style="fill:#000000; fill-opacity:1.0; 
stroke:#000000; stroke-width:1.000000; stroke-opacity:1; 
stroke-linecap:round; stroke-linejoin:round;fill-rule:evenodd;"
d="M 109811000.000000,107082000.000000
109753597.000000,107070582.000000
109704934.000000,107038066.000000
109672418.000000,106989403.000000
109661000.000000,106932000.000000
109661000.000000,105282000.000000
109672418.000000,105224597.000000
109704934.000000,105175934.000000
109753597.000000,105143418.000000
109811000.000000,105132000.000000
110111000.000000,105132000.000000
110168403.000000,105143418.000000
110217066.000000,105175934.000000
110249582.000000,105224597.000000
110261000.000000,105282000.000000
110261000.000000,106932000.000000
110249582.000000,106989403.000000
110217066.000000,107038066.000000
110168403.000000,107070582.000000
110111000.000000,107082000.000000
Z" /> 
<path style="fill:#000000; fill-opacity:1.0; 
stroke:#000000; stroke-width:1.000000; stroke-opacity:1; 
stroke-linecap:round; stroke-linejoin:round;fill-rule:evenodd;"
d="M 111081000.000000,107082000.000000
111023597.000000,107070582.000000
110974934.000000,107038066.000000
110942418.000000,106989403.000000
110931000.000000,106932000.000000
110931000.000000,105282000.000000
110942418.000000,105224597.000000
110974934.000000,105175934.000000
111023597.000000,105143418.000000
111081000.000000,105132000.000000
111381000.000000,105132000.000000
111438403.000000,105143418.000000
111487066.000000,105175934.000000
111519582.000000,105224597.000000
111531000.000000,105282000.000000
111531000.000000,106932000.000000
111519582.000000,106989403.000000
111487066.000000,107038066.000000
111438403.000000,107070582.000000
111381000.000000,107082000.000000
Z" /> 
<path style="fill:#000000; fill-opacity:1.0; 
stroke:#000000; stroke-width:1.000000; stroke-opacity:1; 
stroke-linecap:round; stroke-linejoin:round;fill-rule:evenodd;"
d="M 112351000.000000,107082000.000000
112293597.000000,107070582.000000
112244934.000000,107038066.000000
112212418.000000,106989403.000000
112201000.000000,106932000.000000
112201000.000000,105282000.000000
112212418.000000,105224597.000000
112244934.000000,105175934.000000
112293597.000000,105143418.000000
112351000.000000,105132000.000000
112651000.000000,105132000.000000
112708403.000000,105143418.000000
112757066.000000,105175934.000000
112789582.000000,105224597.000000
112801000.000000,105282000.000000
112801000.000000,106932000.000000
112789582.000000,106989403.000000
112757066.000000,107038066.000000
112708403.000000,107070582.000000
112651000.000000,107082000.000000
Z" /> 
<path style="fill:#000000; fill-opacity:1.0; 
stroke:#000000; stroke-width:1.000000; stroke-opacity:1; 
stroke-linecap:round; stroke-linejoin:round;fill-rule:evenodd;"
d="M 113621000.000000,107082000.000000
113563597.000000,107070582.000000
113514934.000000,107038066.000000
113482418.000000,106989403.000000
113471000.000000,106932000.000000
113471000.000000,105282000.000000
113482418.000000,105224597.000000
113514934.000000,105175934.000000
113563597.000000,105143418.000000
113621000.000000,105132000.000000
113921000.000000,105132000.000000
113978403.000000,105143418.000000
114027066.000000,105175934.000000
114059582.000000,105224597.000000
114071000.000000,105282000.000000
114071000.000000,106932000.000000
114059582.000000,106989403.000000
114027066.000000,107038066.000000
113978403.000000,107070582.000000
113921000.000000,107082000.000000
Z" /> 
<path style="fill:#000000; fill-opacity:1.0; 
stroke:#000000; stroke-width:1.000000; stroke-opacity:1; 
stroke-linecap:round; stroke-linejoin:round;fill-rule:evenodd;"
d="M 114891000.000000,107082000.000000
114833597.000000,107070582.000000
114784934.000000,107038066.000000
114752418.000000,106989403.000000
114741000.000000,106932000.000000
114741000.000000,105282000.000000
114752418.000000,105224597.000000
114784934.000000,105175934.000000
114833597.000000,105143418.000000
114891000.000000,105132000.000000
115191000.000000,105132000.000000
115248403.000000,105143418.000000
115297066.000000,105175934.000000
115329582.000000,105224597.000000
115341000.000000,105282000.000000
115341000.000000,106932000.000000
115329582.000000,106989403.000000
115297066.000000,107038066.000000
115248403.000000,107070582.000000
115191000.000000,107082000.000000
Z" /> 
<path style="fill:#000000; fill-opacity:1.0; 
stroke:#000000; stroke-width:1.000000; stroke-opacity:1; 
stroke-linecap:round; stroke-linejoin:round;fill-rule:evenodd;"
d="M 116161000.000000,107082000.000000
116103597.000000,107070582.000000
116054934.000000,107038066.000000
116022418.000000,106989403.000000
116011000.000000,106932000.000000
116011000.000000,105282000.000000
116022418.000000,105224597.000000
116054934.000000,105175934.000000
116103597.000000,105143418.000000
116161000.000000,105132000.000000
116461000.000000,105132000.000000
116518403.000000,105143418.000000
116567066.000000,105175934.000000
116599582.000000,105224597.000000
116611000.000000,105282000.000000
116611000.000000,106932000.000000
116599582.000000,106989403.000000
116567066.000000,107038066.000000
116518403.000000,107070582.000000
116461000.000000,107082000.000000
Z" /> 
<path style="fill:#000000; fill-opacity:1.0; 
stroke:#000000; stroke-width:1.000000; stroke-opacity:1; 
stroke-linecap:round; stroke-linejoin:round;fill-rule:evenodd;"
d="M 117431000.000000,107082000.000000
117373597.000000,107070582.000000
117324934.000000,107038066.000000
117292418.000000,106989403.000000
117281000.000000,106932000.000000
117281000.000000,105282000.000000
117292418.000000,105224597.000000
117324934.000000,105175934.000000
117373597.000000,105143418.000000
117431000.000000,105132000.000000
117731000.000000,105132000.000000
117788403.000000,105143418.000000
117837066.000000,105175934.000000
117869582.000000,105224597.000000
117881000.000000,105282000.000000
117881000.000000,106932000.000000
117869582.000000,106989403.000000
117837066.000000,107038066.000000
117788403.000000,107070582.000000
117731000.000000,107082000.000000
Z" /> 
<path style="fill:#000000; fill-opacity:1.0; 
stroke:#000000; stroke-width:1.000000; stroke-opacity:1; 
stroke-linecap:round; stroke-linejoin:round;fill-rule:evenodd;"
d="M 117431000.000000,102132000.000000
117373597.000000,102120582.000000
117324934.000000,102088066.000000
117292418.000000,102039403.000000
117281000.000000,101982000.000000
117281000.000000,100332000.000000
117292418.000000,100274597.000000
117324934.000000,100225934.000000
117373597.000000,100193418.000000
117431000.000000,100182000.000000
117731000.000000,100182000.000000
117788403.000000,100193418.000000
117837066.000000,100225934.000000
117869582.000000,100274597.000000
117881000.000000,100332000.000000
117881000.000000,101982000.000000
117869582.000000,102039403.000000
117837066.000000,102088066.000000
117788403.000000,102120582.000000
117731000.000000,102132000.000000
Z" /> 
<path style="fill:#000000; fill-opacity:1.0; 
stroke:#000000; stroke-width:1.000000; stroke-opacity:1; 
stroke-linecap:round; stroke-linejoin:round;fill-rule:evenodd;"
d="M 116161000.000000,102132000.000000
116103597.000000,102120582.000000
116054934.000000,102088066.000000
116022418.000000,102039403.000000
116011000.000000,101982000.000000
116011000.000000,100332000.000000
116022418.000000,100274597.000000
116054934.000000,100225934.000000
116103597.000000,100193418.000000
116161000.000000,100182000.000000
116461000.000000,100182000.000000
116518403.000000,100193418.000000
116567066.000000,100225934.000000
116599582.000000,100274597.000000
116611000.000000,100332000.000000
116611000.000000,101982000.000000
116599582.000000,102039403.000000
116567066.000000,102088066.000000
116518403.000000,102120582.000000
116461000.000000,102132000.000000
Z" /> 
<path style="fill:#000000; fill-opacity:1.0; 
stroke:#000000; stroke-width:1.000000; stroke-opacity:1; 
stroke-linecap:round; stroke-linejoin:round;fill-rule:evenodd;"
d="M 114891000.000000,102132000.000000
114833597.000000,102120582.000000
114784934.000000,102088066.000000
114752418.000000,102039403.000000
114741000.000000,101982000.000000
114741000.000000,100332000.000000
114752418.000000,100274597.000000
114784934.000000,100225934.000000
114833597.000000,100193418.000000
114891000.000000,100182000.000000
115191000.000000,100182000.000000
115248403.000000,100193418.000000
115297066.000000,100225934.000000
115329582.000000,100274597.000000
115341000.000000,100332000.000000
115341000.000000,101982000.000000
115329582.000000,102039403.000000
115297066.000000,102088066.000000
115248403.000000,102120582.000000
115191000.000000,102132000.000000
Z" /> 
<path style="fill:#000000; fill-opacity:1.0; 
stroke:#000000; stroke-width:1.000000; stroke-opacity:1; 
stroke-linecap:round; stroke-linejoin:round;fill-rule:evenodd;"
d="M 113621000.000000,102132000.000000
113563597.000000,102120582.000000
113514934.000000,102088066.000000
113482418.000000,102039403.000000
113471000.000000,101982000.000000
113471000.000000,100332000.000000
113482418.000000,100274597.000000
113514934.000000,100225934.000000
113563597.000000,100193418.000000
113621000.000000,100182000.000000
113921000.000000,100182000.000000
113978403.000000,100193418.000000
114027066.000000,100225934.000000
114059582.000000,100274597.000000
114071000.000000,100332000.000000
114071000.000000,101982000.000000
114059582.000000,102039403.000000
114027066.000000,102088066.000000
113978403.000000,102120582.000000
113921000.000000,102132000.000000
Z" /> 
<path style="fill:#000000; fill-opacity:1.0; 
stroke:#000000; stroke-width:1.000000; stroke-opacity:1; 
stroke-linecap:round; stroke-linejoin:round;fill-rule:evenodd;"
d="M 112351000.000000,102132000.000000
112293597.000000,102120582.000000
112244934.000000,102088066.000000
112212418.000000,102039403.000000
112201000.000000,101982000.000000
112201000.000000,100332000.000000
112212418.000000,100274597.000000
112244934.000000,100225934.000000
112293597.000000,100193418.000000
112351000.000000,100182000.000000
112651000.000000,100182000.000000
112708403.000000,100193418.000000
112757066.000000,100225934.000000
112789582.000000,100274597.000000
112801000.000000,100332000.000000
112801000.000000,101982000.000000
112789582.000000,102039403.000000
112757066.000000,102088066.000000
112708403.000000,102120582.000000
112651000.000000,102132000.000000
Z" /> 
<path style="fill:#000000; fill-opacity:1.0; 
stroke:#000000; stroke-width:1.000000; stroke-opacity:1; 
stroke-linecap:round; stroke-linejoin:round;fill-rule:evenodd;"
d="M 111081000.000000,102132000.000000
111023597.000000,102120582.000000
110974934.000000,102088066.000000
110942418.000000,102039403.000000
110931000.000000,101982000.000000
110931000.000000,100332000.000000
110942418.000000,100274597.000000
110974934.000000,100225934.000000
111023597.000000,100193418.000000
111081000.000000,100182000.000000
111381000.000000,100182000.000000
111438403.000000,100193418.000000
111487066.000000,100225934.000000
111519582.000000,100274597.000000
111531000.000000,100332000.000000
111531000.000000,101982000.000000
111519582.000000,102039403.000000
111487066.000000,102088066.000000
111438403.000000,102120582.000000
111381000.000000,102132000.000000
Z" /> 
<path style="fill:#000000; fill-opacity:1.0; 
stroke:#000000; stroke-width:1.000000; stroke-opacity:1; 
stroke-linecap:round; stroke-linejoin:round;fill-rule:evenodd;"
d="M 109811000.000000,102132000.000000
109753597.000000,102120582.000000
109704934.000000,102088066.000000
109672418.000000,102039403.000000
109661000.000000,101982000.000000
109661000.000000,100332000.000000
109672418.000000,100274597.000000
109704934.000000,100225934.000000
109753597.000000,100193418.000000
109811000.000000,100182000.000000
110111000.000000,100182000.000000
110168403.000000,100193418.000000
110217066.000000,100225934.000000
110249582.000000,100274597.000000
110261000.000000,100332000.000000
110261000.000000,101982000.000000
110249582.000000,102039403.000000
110217066.000000,102088066.000000
110168403.000000,102120582.000000
110111000.000000,102132000.000000
Z" /> 
</g>
<g >
</g>
<g style="fill:#000000; fill-opacity:1.0; 
stroke:#000000; stroke-width:1.000000; stroke-opacity:1; 
stroke-linecap:round; stroke-linejoin:round;">
<path style="fill:#000000; fill-opacity:1.0; 
stroke:#000000; stroke-width:1.000000; stroke-opacity:1; 
stroke-linecap:round; stroke-linejoin:round;fill-rule:evenodd;"
d="M 192500000.000000,91992500.000000
192518079.000000,91901613.000000
192569562.000000,91824562.000000
192646613.000000,91773079.000000
192737500.000000,91755000.000000
193237500.000000,91755000.000000
193328387.000000,91773079.000000
193405438.000000,91824562.000000
193456921.000000,91901613.000000
193475000.000000,91992500.000000
193475000.000000,92467500.000000
193456921.000000,92558387.000000
193405438.000000,92635438.000000
193328387.000000,92686921.000000
193237500.000000,92705000.000000
192737500.000000,92705000.000000
192646613.000000,92686921.000000
192569562.000000,92635438.000000
192518079.000000,92558387.000000
192500000.000000,92467500.000000
Z" /> 
<path style="fill:#000000; fill-opacity:1.0; 
stroke:#000000; stroke-width:1.000000; stroke-opacity:1; 
stroke-linecap:round; stroke-linejoin:round;fill-rule:evenodd;"
d="M 194325000.000000,91992500.000000
194343079.000000,91901613.000000
194394562.000000,91824562.000000
194471613.000000,91773079.000000
194562500.000000,91755000.000000
195062500.000000,91755000.000000
195153387.000000,91773079.000000
195230438.000000,91824562.000000
195281921.000000,91901613.000000
195300000.000000,91992500.000000
195300000.000000,92467500.000000
195281921.000000,92558387.000000
195230438.000000,92635438.000000
195153387.000000,92686921.000000
195062500.000000,92705000.000000
194562500.000000,92705000.000000
194471613.000000,92686921.000000
194394562.000000,92635438.000000
194343079.000000,92558387.000000
194325000.000000,92467500.000000
Z" /> 
</g>
<g >
</g>
<g style="fill:#000000; fill-opacity:1.0; 
stroke:#000000; stroke-width:1.000000; stroke-opacity:1; 
stroke-linecap:round; stroke-linejoin:round;">
<path style="fill:#000000; fill-opacity:1.0; 
stroke:#000000; stroke-width:1.000000; stroke-opacity:1; 
stroke-linecap:round; stroke-linejoin:round;fill-rule:evenodd;"
d="M 180300000.000000,95652500.000000
180318079.000000,95561613.000000
180369562.000000,95484562.000000
180446613.000000,95433079.000000
180537500.000000,95415000.000000
181037500.000000,95415000.000000
181128387.000000,95433079.000000
181205438.000000,95484562.000000
181256921.000000,95561613.000000
181275000.000000,95652500.000000
181275000.000000,96127500.000000
181256921.000000,96218387.000000
181205438.000000,96295438.000000
181128387.000000,96346921.000000
181037500.000000,96365000.000000
180537500.000000,96365000.000000
180446613.000000,96346921.000000
180369562.000000,96295438.000000
180318079.000000,96218387.000000
180300000.000000,96127500.000000
Z" /> 
<path style="fill:#000000; fill-opacity:1.0; 
stroke:#000000; stroke-width:1.000000; stroke-opacity:1; 
stroke-linecap:round; stroke-linejoin:round;fill-rule:evenodd;"
d="M 182125000.000000,95652500.000000
182143079.000000,95561613.000000
182194562.000000,95484562.000000
182271613.000000,95433079.000000
182362500.000000,95415000.000000
182862500.000000,95415000.000000
182953387.000000,95433079.000000
183030438.000000,95484562.000000
183081921.000000,95561613.000000
183100000.000000,95652500.000000
183100000.000000,96127500.000000
183081921.000000,96218387.000000
183030438.000000,96295438.000000
182953387.000000,96346921.000000
182862500.000000,96365000.000000
182362500.000000,96365000.000000
182271613.000000,96346921.000000
182194562.000000,96295438.000000
182143079.000000,96218387.000000
182125000.000000,96127500.000000
Z" /> 
</g>
<g >
</g>
<g style="fill:#000000; fill-opacity:1.0; 
stroke:#000000; stroke-width:1.000000; stroke-opacity:1; 
stroke-linecap:round; stroke-linejoin:round;">
<path style="fill:#000000; fill-opacity:1.0; 
stroke:#000000; stroke-width:1.000000; stroke-opacity:1; 
stroke-linecap:round; stroke-linejoin:round;fill-rule:evenodd;"
d="M 162900000.000000,98162500.000000
162918079.000000,98071613.000000
162969562.000000,97994562.000000
163046613.000000,97943079.000000
163137500.000000,97925000.000000
163637500.000000,97925000.000000
163728387.000000,97943079.000000
163805438.000000,97994562.000000
163856921.000000,98071613.000000
163875000.000000,98162500.000000
163875000.000000,98637500.000000
163856921.000000,98728387.000000
163805438.000000,98805438.000000
163728387.000000,98856921.000000
163637500.000000,98875000.000000
163137500.000000,98875000.000000
163046613.000000,98856921.000000
162969562.000000,98805438.000000
162918079.000000,98728387.000000
162900000.000000,98637500.000000
Z" /> 
<path style="fill:#000000; fill-opacity:1.0; 
stroke:#000000; stroke-width:1.000000; stroke-opacity:1; 
stroke-linecap:round; stroke-linejoin:round;fill-rule:evenodd;"
d="M 164725000.000000,98162500.000000
164743079.000000,98071613.000000
164794562.000000,97994562.000000
164871613.000000,97943079.000000
164962500.000000,97925000.000000
165462500.000000,97925000.000000
165553387.000000,97943079.000000
165630438.000000,97994562.000000
165681921.000000,98071613.000000
165700000.000000,98162500.000000
165700000.000000,98637500.000000
165681921.000000,98728387.000000
165630438.000000,98805438.000000
165553387.000000,98856921.000000
165462500.000000,98875000.000000
164962500.000000,98875000.000000
164871613.000000,98856921.000000
164794562.000000,98805438.000000
164743079.000000,98728387.000000
164725000.000000,98637500.000000
Z" /> 
</g>
<g >
</g>
<g style="fill:#000000; fill-opacity:1.0; 
stroke:#000000; stroke-width:1.000000; stroke-opacity:1; 
stroke-linecap:round; stroke-linejoin:round;">
<path style="fill:#000000; fill-opacity:1.0; 
stroke:#000000; stroke-width:1.000000; stroke-opacity:1; 
stroke-linecap:round; stroke-linejoin:round;fill-rule:evenodd;"
d="M 175950000.000000,95652500.000000
175968079.000000,95561613.000000
176019562.000000,95484562.000000
176096613.000000,95433079.000000
176187500.000000,95415000.000000
176687500.000000,95415000.000000
176778387.000000,95433079.000000
176855438.000000,95484562.000000
176906921.000000,95561613.000000
176925000.000000,95652500.000000
176925000.000000,96127500.000000
176906921.000000,96218387.000000
176855438.000000,96295438.000000
176778387.000000,96346921.000000
176687500.000000,96365000.000000
176187500.000000,96365000.000000
176096613.000000,96346921.000000
176019562.000000,96295438.000000
175968079.000000,96218387.000000
175950000.000000,96127500.000000
Z" /> 
<path style="fill:#000000; fill-opacity:1.0; 
stroke:#000000; stroke-width:1.000000; stroke-opacity:1; 
stroke-linecap:round; stroke-linejoin:round;fill-rule:evenodd;"
d="M 177775000.000000,95652500.000000
177793079.000000,95561613.000000
177844562.000000,95484562.000000
177921613.000000,95433079.000000
178012500.000000,95415000.000000
178512500.000000,95415000.000000
178603387.000000,95433079.000000
178680438.000000,95484562.000000
178731921.000000,95561613.000000
178750000.000000,95652500.000000
178750000.000000,96127500.000000
178731921.000000,96218387.000000
178680438.000000,96295438.000000
178603387.000000,96346921.000000
178512500.000000,96365000.000000
178012500.000000,96365000.000000
177921613.000000,96346921.000000
177844562.000000,96295438.000000
177793079.000000,96218387.000000
177775000.000000,96127500.000000
Z" /> 
</g>
<g >
</g>
<g style="fill:#000000; fill-opacity:1.0; 
stroke:#000000; stroke-width:1.000000; stroke-opacity:1; 
stroke-linecap:round; stroke-linejoin:round;">
<path style="fill:#000000; fill-opacity:1.0; 
stroke:#000000; stroke-width:1.000000; stroke-opacity:1; 
stroke-linecap:round; stroke-linejoin:round;fill-rule:evenodd;"
d="M 167250000.000000,98162500.000000
167268079.000000,98071613.000000
167319562.000000,97994562.000000
167396613.000000,97943079.000000
167487500.000000,97925000.000000
168087500.000000,97925000.000000
168178387.000000,97943079.000000
168255438.000000,97994562.000000
168306921.000000,98071613.000000
168325000.000000,98162500.000000
168325000.000000,98637500.000000
168306921.000000,98728387.000000
168255438.000000,98805438.000000
168178387.000000,98856921.000000
168087500.000000,98875000.000000
167487500.000000,98875000.000000
167396613.000000,98856921.000000
167319562.000000,98805438.000000
167268079.000000,98728387.000000
167250000.000000,98637500.000000
Z" /> 
<path style="fill:#000000; fill-opacity:1.0; 
stroke:#000000; stroke-width:1.000000; stroke-opacity:1; 
stroke-linecap:round; stroke-linejoin:round;fill-rule:evenodd;"
d="M 168975000.000000,98162500.000000
168993079.000000,98071613.000000
169044562.000000,97994562.000000
169121613.000000,97943079.000000
169212500.000000,97925000.000000
169812500.000000,97925000.000000
169903387.000000,97943079.000000
169980438.000000,97994562.000000
170031921.000000,98071613.000000
170050000.000000,98162500.000000
170050000.000000,98637500.000000
170031921.000000,98728387.000000
169980438.000000,98805438.000000
169903387.000000,98856921.000000
169812500.000000,98875000.000000
169212500.000000,98875000.000000
169121613.000000,98856921.000000
169044562.000000,98805438.000000
168993079.000000,98728387.000000
168975000.000000,98637500.000000
Z" /> 
</g>
<g >
</g>
<g style="fill:#000000; fill-opacity:1.0; 
stroke:#000000; stroke-width:1.000000; stroke-opacity:1; 
stroke-linecap:round; stroke-linejoin:round;">
</g>
<g style="fill:#000000; fill-opacity:1.0; 
stroke:#000000; stroke-width:1800000.000000; stroke-opacity:1; 
stroke-linecap:round; stroke-linejoin:round;">
</g>
<g style="fill:#000000; fill-opacity:0.0; 
stroke:#000000; stroke-width:1800000.000000; stroke-opacity:1; 
stroke-linecap:round; stroke-linejoin:round;">
<path d="M110797000 65450000
L112197000 65450000
" />
<path d="M110797000 70150000
L112197000 70150000
" />
<path d="M110797000 74850000
L112197000 74850000
" />
<path d="M115597000 65450000
L116997000 65450000
" />
<path d="M115597000 70150000
L116997000 70150000
" />
<path d="M115597000 74850000
L116997000 74850000
" />
</g>
<g >
</g>
<g style="fill:#000000; fill-opacity:0.0; 
stroke:#000000; stroke-width:1800000.000000; stroke-opacity:1; 
stroke-linecap:round; stroke-linejoin:round;">
</g>
<g style="fill:#000000; fill-opacity:0.0; 
stroke:#000000; stroke-width:1.000000; stroke-opacity:1; 
stroke-linecap:round; stroke-linejoin:round;">
</g>
<g style="fill:#000000; fill-opacity:1.0; 
stroke:#000000; stroke-width:1.000000; stroke-opacity:1; 
stroke-linecap:round; stroke-linejoin:round;">
<path style="fill:#000000; fill-opacity:1.0; 
stroke:#000000; stroke-width:1.000000; stroke-opacity:1; 
stroke-linecap:round; stroke-linejoin:round;fill-rule:evenodd;"
d="M 162900000.000000,95652500.000000
162918079.000000,95561613.000000
162969562.000000,95484562.000000
163046613.000000,95433079.000000
163137500.000000,95415000.000000
163637500.000000,95415000.000000
163728387.000000,95433079.000000
163805438.000000,95484562.000000
163856921.000000,95561613.000000
163875000.000000,95652500.000000
163875000.000000,96127500.000000
163856921.000000,96218387.000000
163805438.000000,96295438.000000
163728387.000000,96346921.000000
163637500.000000,96365000.000000
163137500.000000,96365000.000000
163046613.000000,96346921.000000
162969562.000000,96295438.000000
162918079.000000,96218387.000000
162900000.000000,96127500.000000
Z" /> 
<path style="fill:#000000; fill-opacity:1.0; 
stroke:#000000; stroke-width:1.000000; stroke-opacity:1; 
stroke-linecap:round; stroke-linejoin:round;fill-rule:evenodd;"
d="M 164725000.000000,95652500.000000
164743079.000000,95561613.000000
164794562.000000,95484562.000000
164871613.000000,95433079.000000
164962500.000000,95415000.000000
165462500.000000,95415000.000000
165553387.000000,95433079.000000
165630438.000000,95484562.000000
165681921.000000,95561613.000000
165700000.000000,95652500.000000
165700000.000000,96127500.000000
165681921.000000,96218387.000000
165630438.000000,96295438.000000
165553387.000000,96346921.000000
165462500.000000,96365000.000000
164962500.000000,96365000.000000
164871613.000000,96346921.000000
164794562.000000,96295438.000000
164743079.000000,96218387.000000
164725000.000000,96127500.000000
Z" /> 
</g>
<g >
</g>
<g style="fill:#000000; fill-opacity:1.0; 
stroke:#000000; stroke-width:1.000000; stroke-opacity:1; 
stroke-linecap:round; stroke-linejoin:round;">
<circle cx="116550000.000000" cy="175400000.000000" r="2100000.000000" /> 
<circle cx="116550000.000000" cy="52900000.000000" r="2100000.000000" /> 
</g>
<g >
</g>
<g style="fill:#000000; fill-opacity:1.0; 
stroke:#000000; stroke-width:1.000000; stroke-opacity:1; 
stroke-linecap:round; stroke-linejoin:round;">
<path style="fill:#000000; fill-opacity:1.0; 
stroke:#000000; stroke-width:1.000000; stroke-opacity:1; 
stroke-linecap:round; stroke-linejoin:round;fill-rule:evenodd;"
d="M 167250000.000000,95652500.000000
167268079.000000,95561613.000000
167319562.000000,95484562.000000
167396613.000000,95433079.000000
167487500.000000,95415000.000000
167987500.000000,95415000.000000
168078387.000000,95433079.000000
168155438.000000,95484562.000000
168206921.000000,95561613.000000
168225000.000000,95652500.000000
168225000.000000,96127500.000000
168206921.000000,96218387.000000
168155438.000000,96295438.000000
168078387.000000,96346921.000000
167987500.000000,96365000.000000
167487500.000000,96365000.000000
167396613.000000,96346921.000000
167319562.000000,96295438.000000
167268079.000000,96218387.000000
167250000.000000,96127500.000000
Z" /> 
<path style="fill:#000000; fill-opacity:1.0; 
stroke:#000000; stroke-width:1.000000; stroke-opacity:1; 
stroke-linecap:round; stroke-linejoin:round;fill-rule:evenodd;"
d="M 169075000.000000,95652500.000000
169093079.000000,95561613.000000
169144562.000000,95484562.000000
169221613.000000,95433079.000000
169312500.000000,95415000.000000
169812500.000000,95415000.000000
169903387.000000,95433079.000000
169980438.000000,95484562.000000
170031921.000000,95561613.000000
170050000.000000,95652500.000000
170050000.000000,96127500.000000
170031921.000000,96218387.000000
169980438.000000,96295438.000000
169903387.000000,96346921.000000
169812500.000000,96365000.000000
169312500.000000,96365000.000000
169221613.000000,96346921.000000
169144562.000000,96295438.000000
169093079.000000,96218387.000000
169075000.000000,96127500.000000
Z" /> 
</g>
<g >
</g>
<g style="fill:#000000; fill-opacity:1.0; 
stroke:#000000; stroke-width:1.000000; stroke-opacity:1; 
stroke-linecap:round; stroke-linejoin:round;">
<path style="fill:#000000; fill-opacity:1.0; 
stroke:#000000; stroke-width:1.000000; stroke-opacity:1; 
stroke-linecap:round; stroke-linejoin:round;fill-rule:evenodd;"
d="M 184650000.000000,95652500.000000
184668079.000000,95561613.000000
184719562.000000,95484562.000000
184796613.000000,95433079.000000
184887500.000000,95415000.000000
185487500.000000,95415000.000000
185578387.000000,95433079.000000
185655438.000000,95484562.000000
185706921.000000,95561613.000000
185725000.000000,95652500.000000
185725000.000000,96127500.000000
185706921.000000,96218387.000000
185655438.000000,96295438.000000
185578387.000000,96346921.000000
185487500.000000,96365000.000000
184887500.000000,96365000.000000
184796613.000000,96346921.000000
184719562.000000,96295438.000000
184668079.000000,96218387.000000
184650000.000000,96127500.000000
Z" /> 
<path style="fill:#000000; fill-opacity:1.0; 
stroke:#000000; stroke-width:1.000000; stroke-opacity:1; 
stroke-linecap:round; stroke-linejoin:round;fill-rule:evenodd;"
d="M 186375000.000000,95652500.000000
186393079.000000,95561613.000000
186444562.000000,95484562.000000
186521613.000000,95433079.000000
186612500.000000,95415000.000000
187212500.000000,95415000.000000
187303387.000000,95433079.000000
187380438.000000,95484562.000000
187431921.000000,95561613.000000
187450000.000000,95652500.000000
187450000.000000,96127500.000000
187431921.000000,96218387.000000
187380438.000000,96295438.000000
187303387.000000,96346921.000000
187212500.000000,96365000.000000
186612500.000000,96365000.000000
186521613.000000,96346921.000000
186444562.000000,96295438.000000
186393079.000000,96218387.000000
186375000.000000,96127500.000000
Z" /> 
</g>
<g >
</g>
<g style="fill:#000000; fill-opacity:1.0; 
stroke:#000000; stroke-width:1.000000; stroke-opacity:1; 
stroke-linecap:round; stroke-linejoin:round;">
<path style="fill:#000000; fill-opacity:1.0; 
stroke:#000000; stroke-width:1.000000; stroke-opacity:1; 
stroke-linecap:round; stroke-linejoin:round;fill-rule:evenodd;"
d="M 171600000.000000,95652500.000000
171618079.000000,95561613.000000
171669562.000000,95484562.000000
171746613.000000,95433079.000000
171837500.000000,95415000.000000
172337500.000000,95415000.000000
172428387.000000,95433079.000000
172505438.000000,95484562.000000
172556921.000000,95561613.000000
172575000.000000,95652500.000000
172575000.000000,96127500.000000
172556921.000000,96218387.000000
172505438.000000,96295438.000000
172428387.000000,96346921.000000
172337500.000000,96365000.000000
171837500.000000,96365000.000000
171746613.000000,96346921.000000
171669562.000000,96295438.000000
171618079.000000,96218387.000000
171600000.000000,96127500.000000
Z" /> 
<path style="fill:#000000; fill-opacity:1.0; 
stroke:#000000; stroke-width:1.000000; stroke-opacity:1; 
stroke-linecap:round; stroke-linejoin:round;fill-rule:evenodd;"
d="M 173425000.000000,95652500.000000
173443079.000000,95561613.000000
173494562.000000,95484562.000000
173571613.000000,95433079.000000
173662500.000000,95415000.000000
174162500.000000,95415000.000000
174253387.000000,95433079.000000
174330438.000000,95484562.000000
174381921.000000,95561613.000000
174400000.000000,95652500.000000
174400000.000000,96127500.000000
174381921.000000,96218387.000000
174330438.000000,96295438.000000
174253387.000000,96346921.000000
174162500.000000,96365000.000000
173662500.000000,96365000.000000
173571613.000000,96346921.000000
173494562.000000,96295438.000000
173443079.000000,96218387.000000
173425000.000000,96127500.000000
Z" /> 
</g>
<g >
</g>
<g style="fill:#000000; fill-opacity:1.0; 
stroke:#000000; stroke-width:1.000000; stroke-opacity:1; 
stroke-linecap:round; stroke-linejoin:round;">
<path style="fill:#000000; fill-opacity:1.0; 
stroke:#000000; stroke-width:1.000000; stroke-opacity:1; 
stroke-linecap:round; stroke-linejoin:round;fill-rule:evenodd;"
d="M 111622000.000000,150310000.000000
111622000.000000,148510000.000000
113422000.000000,148510000.000000
113422000.000000,150310000.000000
Z" /> 
<circle cx="115062000.000000" cy="149410000.000000" r="900000.000000" /> 
</g>
<g style="fill:#000000; fill-opacity:1.0; 
stroke:#000000; stroke-width:21200.000000; stroke-opacity:1; 
stroke-linecap:round; stroke-linejoin:round;">
</g>
<g >
</g>
<g style="fill:#000000; fill-opacity:1.0; 
stroke:#000000; stroke-width:21200.000000; stroke-opacity:1; 
stroke-linecap:round; stroke-linejoin:round;">
</g>
<g style="fill:#000000; fill-opacity:1.0; 
stroke:#000000; stroke-width:1.000000; stroke-opacity:1; 
stroke-linecap:round; stroke-linejoin:round;">
<path style="fill:#000000; fill-opacity:1.0; 
stroke:#000000; stroke-width:1.000000; stroke-opacity:1; 
stroke-linecap:round; stroke-linejoin:round;fill-rule:evenodd;"
d="M 111757000.000000,140690000.000000
111776030.000000,140594329.000000
111830223.000000,140513223.000000
111911329.000000,140459030.000000
112007000.000000,140440000.000000
113207000.000000,140440000.000000
113302671.000000,140459030.000000
113383777.000000,140513223.000000
113437970.000000,140594329.000000
113457000.000000,140690000.000000
113457000.000000,141890000.000000
113437970.000000,141985671.000000
113383777.000000,142066777.000000
113302671.000000,142120970.000000
113207000.000000,142140000.000000
112007000.000000,142140000.000000
111911329.000000,142120970.000000
111830223.000000,142066777.000000
111776030.000000,141985671.000000
111757000.000000,141890000.000000
Z" /> 
<circle cx="115147000.000000" cy="141290000.000000" r="850000.000000" /> 
</g>
<g style="fill:#000000; fill-opacity:1.0; 
stroke:#000000; stroke-width:21200.000000; stroke-opacity:1; 
stroke-linecap:round; stroke-linejoin:round;">
</g>
<g style="fill:#000000; fill-opacity:1.0; 
stroke:#000000; stroke-width:1.000000; stroke-opacity:1; 
stroke-linecap:round; stroke-linejoin:round;">
<circle cx="112607000.000000" cy="138750000.000000" r="850000.000000" /> 
</g>
<g style="fill:#000000; fill-opacity:1.0; 
stroke:#000000; stroke-width:21200.000000; stroke-opacity:1; 
stroke-linecap:round; stroke-linejoin:round;">
</g>
<g style="fill:#000000; fill-opacity:1.0; 
stroke:#000000; stroke-width:1.000000; stroke-opacity:1; 
stroke-linecap:round; stroke-linejoin:round;">
<circle cx="115147000.000000" cy="138750000.000000" r="850000.000000" /> 
</g>
<g style="fill:#000000; fill-opacity:1.0; 
stroke:#000000; stroke-width:21200.000000; stroke-opacity:1; 
stroke-linecap:round; stroke-linejoin:round;">
</g>
<g style="fill:#000000; fill-opacity:1.0; 
stroke:#000000; stroke-width:1.000000; stroke-opacity:1; 
stroke-linecap:round; stroke-linejoin:round;">
<circle cx="112607000.000000" cy="136210000.000000" r="850000.000000" /> 
</g>
<g style="fill:#000000; fill-opacity:1.0; 
stroke:#000000; stroke-width:21200.000000; stroke-opacity:1; 
stroke-linecap:round; stroke-linejoin:round;">
</g>
<g style="fill:#000000; fill-opacity:1.0; 
stroke:#000000; stroke-width:1.000000; stroke-opacity:1; 
stroke-linecap:round; stroke-linejoin:round;">
<circle cx="115147000.000000" cy="136210000.000000" r="850000.000000" /> 
</g>
<g style="fill:#000000; fill-opacity:1.0; 
stroke:#000000; stroke-width:21200.000000; stroke-opacity:1; 
stroke-linecap:round; stroke-linejoin:round;">
</g>
<g style="fill:#000000; fill-opacity:1.0; 
stroke:#000000; stroke-width:1.000000; stroke-opacity:1; 
stroke-linecap:round; stroke-linejoin:round;">
<circle cx="112607000.000000" cy="133670000.000000" r="850000.000000" /> 
</g>
<g style="fill:#000000; fill-opacity:1.0; 
stroke:#000000; stroke-width:21200.000000; stroke-opacity:1; 
stroke-linecap:round; stroke-linejoin:round;">
</g>
<g style="fill:#000000; fill-opacity:1.0; 
stroke:#000000; stroke-width:1.000000; stroke-opacity:1; 
stroke-linecap:round; stroke-linejoin:round;">
<circle cx="115147000.000000" cy="133670000.000000" r="850000.000000" /> 
</g>
<g style="fill:#000000; fill-opacity:1.0; 
stroke:#000000; stroke-width:21200.000000; stroke-opacity:1; 
stroke-linecap:round; stroke-linejoin:round;">
</g>
<g style="fill:#000000; fill-opacity:1.0; 
stroke:#000000; stroke-width:1.000000; stroke-opacity:1; 
stroke-linecap:round; stroke-linejoin:round;">
<circle cx="112607000.000000" cy="131130000.000000" r="850000.000000" /> 
</g>
<g style="fill:#000000; fill-opacity:1.0; 
stroke:#000000; stroke-width:21200.000000; stroke-opacity:1; 
stroke-linecap:round; stroke-linejoin:round;">
</g>
<g style="fill:#000000; fill-opacity:1.0; 
stroke:#000000; stroke-width:1.000000; stroke-opacity:1; 
stroke-linecap:round; stroke-linejoin:round;">
<circle cx="115147000.000000" cy="131130000.000000" r="850000.000000" /> 
</g>
<g style="fill:#000000; fill-opacity:1.0; 
stroke:#000000; stroke-width:21200.000000; stroke-opacity:1; 
stroke-linecap:round; stroke-linejoin:round;">
</g>
<g >
</g>
<g style="fill:#000000; fill-opacity:1.0; 
stroke:#000000; stroke-width:21200.000000; stroke-opacity:1; 
stroke-linecap:round; stroke-linejoin:round;">
</g>
<g style="fill:#000000; fill-opacity:1.0; 
stroke:#000000; stroke-width:1.000000; stroke-opacity:1; 
stroke-linecap:round; stroke-linejoin:round;">
<circle cx="132750000.000000" cy="154750000.000000" r="400000.000000" /> 
</g>
<g style="fill:#000000; fill-opacity:1.0; 
stroke:#000000; stroke-width:21200.000000; stroke-opacity:1; 
stroke-linecap:round; stroke-linejoin:round;">
</g>
<g style="fill:#000000; fill-opacity:1.0; 
stroke:#000000; stroke-width:1.000000; stroke-opacity:1; 
stroke-linecap:round; stroke-linejoin:round;">
<circle cx="137000000.000000" cy="154500000.000000" r="400000.000000" /> 
</g>
<g style="fill:#000000; fill-opacity:1.0; 
stroke:#000000; stroke-width:21200.000000; stroke-opacity:1; 
stroke-linecap:round; stroke-linejoin:round;">
</g>
<g style="fill:#000000; fill-opacity:1.0; 
stroke:#000000; stroke-width:1.000000; stroke-opacity:1; 
stroke-linecap:round; stroke-linejoin:round;">
<circle cx="137750000.000000" cy="142250000.000000" r="400000.000000" /> 
</g>
<g style="fill:#000000; fill-opacity:1.0; 
stroke:#000000; stroke-width:21200.000000; stroke-opacity:1; 
stroke-linecap:round; stroke-linejoin:round;">
</g>
<g style="fill:#000000; fill-opacity:1.0; 
stroke:#000000; stroke-width:1.000000; stroke-opacity:1; 
stroke-linecap:round; stroke-linejoin:round;">
<circle cx="132000000.000000" cy="133500000.000000" r="400000.000000" /> 
</g>
<g style="fill:#000000; fill-opacity:1.0; 
stroke:#000000; stroke-width:21200.000000; stroke-opacity:1; 
stroke-linecap:round; stroke-linejoin:round;">
</g>
<g style="fill:#000000; fill-opacity:1.0; 
stroke:#000000; stroke-width:1.000000; stroke-opacity:1; 
stroke-linecap:round; stroke-linejoin:round;">
<circle cx="137250000.000000" cy="163750000.000000" r="400000.000000" /> 
</g>
<g style="fill:#000000; fill-opacity:1.0; 
stroke:#000000; stroke-width:21200.000000; stroke-opacity:1; 
stroke-linecap:round; stroke-linejoin:round;">
</g>
<g style="fill:#000000; fill-opacity:1.0; 
stroke:#000000; stroke-width:1.000000; stroke-opacity:1; 
stroke-linecap:round; stroke-linejoin:round;">
<circle cx="132500000.000000" cy="160750000.000000" r="400000.000000" /> 
</g>
<g style="fill:#000000; fill-opacity:1.0; 
stroke:#000000; stroke-width:21200.000000; stroke-opacity:1; 
stroke-linecap:round; stroke-linejoin:round;">
</g>
<g style="fill:#000000; fill-opacity:1.0; 
stroke:#000000; stroke-width:1.000000; stroke-opacity:1; 
stroke-linecap:round; stroke-linejoin:round;">
<circle cx="133250000.000000" cy="145500000.000000" r="400000.000000" /> 
</g>
<g style="fill:#000000; fill-opacity:1.0; 
stroke:#000000; stroke-width:21200.000000; stroke-opacity:1; 
stroke-linecap:round; stroke-linejoin:round;">
</g>
<g style="fill:#000000; fill-opacity:1.0; 
stroke:#000000; stroke-width:1.000000; stroke-opacity:1; 
stroke-linecap:round; stroke-linejoin:round;">
<circle cx="136750000.000000" cy="145750000.000000" r="400000.000000" /> 
</g>
<g style="fill:#000000; fill-opacity:1.0; 
stroke:#000000; stroke-width:21200.000000; stroke-opacity:1; 
stroke-linecap:round; stroke-linejoin:round;">
</g>
<g style="fill:#000000; fill-opacity:1.0; 
stroke:#000000; stroke-width:1.000000; stroke-opacity:1; 
stroke-linecap:round; stroke-linejoin:round;">
<circle cx="132250000.000000" cy="143000000.000000" r="400000.000000" /> 
</g>
<g style="fill:#000000; fill-opacity:1.0; 
stroke:#000000; stroke-width:21200.000000; stroke-opacity:1; 
stroke-linecap:round; stroke-linejoin:round;">
</g>
<g style="fill:#000000; fill-opacity:1.0; 
stroke:#000000; stroke-width:1.000000; stroke-opacity:1; 
stroke-linecap:round; stroke-linejoin:round;">
<circle cx="132750000.000000" cy="164500000.000000" r="400000.000000" /> 
</g>
<g style="fill:#000000; fill-opacity:1.0; 
stroke:#000000; stroke-width:21200.000000; stroke-opacity:1; 
stroke-linecap:round; stroke-linejoin:round;">
</g>
<g style="fill:#000000; fill-opacity:1.0; 
stroke:#000000; stroke-width:1.000000; stroke-opacity:1; 
stroke-linecap:round; stroke-linejoin:round;">
<circle cx="132500000.000000" cy="126500000.000000" r="400000.000000" /> 
</g>
<g style="fill:#000000; fill-opacity:1.0; 
stroke:#000000; stroke-width:21200.000000; stroke-opacity:1; 
stroke-linecap:round; stroke-linejoin:round;">
</g>
<g style="fill:#000000; fill-opacity:1.0; 
stroke:#000000; stroke-width:1.000000; stroke-opacity:1; 
stroke-linecap:round; stroke-linejoin:round;">
<circle cx="132000000.000000" cy="147500000.000000" r="400000.000000" /> 
</g>
<g style="fill:#000000; fill-opacity:1.0; 
stroke:#000000; stroke-width:21200.000000; stroke-opacity:1; 
stroke-linecap:round; stroke-linejoin:round;">
</g>
<g style="fill:#000000; fill-opacity:1.0; 
stroke:#000000; stroke-width:1.000000; stroke-opacity:1; 
stroke-linecap:round; stroke-linejoin:round;">
<circle cx="132000000.000000" cy="139750000.000000" r="400000.000000" /> 
</g>
<g style="fill:#000000; fill-opacity:1.0; 
stroke:#000000; stroke-width:21200.000000; stroke-opacity:1; 
stroke-linecap:round; stroke-linejoin:round;">
</g>
<g style="fill:#000000; fill-opacity:1.0; 
stroke:#000000; stroke-width:1.000000; stroke-opacity:1; 
stroke-linecap:round; stroke-linejoin:round;">
<circle cx="132000000.000000" cy="134500000.000000" r="400000.000000" /> 
</g>
<g style="fill:#000000; fill-opacity:1.0; 
stroke:#000000; stroke-width:21200.000000; stroke-opacity:1; 
stroke-linecap:round; stroke-linejoin:round;">
</g>
<g style="fill:#000000; fill-opacity:1.0; 
stroke:#000000; stroke-width:1.000000; stroke-opacity:1; 
stroke-linecap:round; stroke-linejoin:round;">
<circle cx="137500000.000000" cy="160750000.000000" r="400000.000000" /> 
</g>
<g style="fill:#000000; fill-opacity:1.0; 
stroke:#000000; stroke-width:21200.000000; stroke-opacity:1; 
stroke-linecap:round; stroke-linejoin:round;">
</g>
<g style="fill:#000000; fill-opacity:1.0; 
stroke:#000000; stroke-width:1.000000; stroke-opacity:1; 
stroke-linecap:round; stroke-linejoin:round;">
<circle cx="132500000.000000" cy="158000000.000000" r="400000.000000" /> 
</g>
<g style="fill:#000000; fill-opacity:1.0; 
stroke:#000000; stroke-width:21200.000000; stroke-opacity:1; 
stroke-linecap:round; stroke-linejoin:round;">
</g>
<g style="fill:#000000; fill-opacity:1.0; 
stroke:#000000; stroke-width:1.000000; stroke-opacity:1; 
stroke-linecap:round; stroke-linejoin:round;">
<circle cx="137500000.000000" cy="152250000.000000" r="400000.000000" /> 
</g>
<g style="fill:#000000; fill-opacity:1.0; 
stroke:#000000; stroke-width:21200.000000; stroke-opacity:1; 
stroke-linecap:round; stroke-linejoin:round;">
</g>
<g style="fill:#000000; fill-opacity:1.0; 
stroke:#000000; stroke-width:1.000000; stroke-opacity:1; 
stroke-linecap:round; stroke-linejoin:round;">
<circle cx="133750000.000000" cy="127000000.000000" r="400000.000000" /> 
</g>
<g style="fill:#000000; fill-opacity:1.0; 
stroke:#000000; stroke-width:21200.000000; stroke-opacity:1; 
stroke-linecap:round; stroke-linejoin:round;">
</g>
<g style="fill:#000000; fill-opacity:1.0; 
stroke:#000000; stroke-width:1.000000; stroke-opacity:1; 
stroke-linecap:round; stroke-linejoin:round;">
<circle cx="138000000.000000" cy="144250000.000000" r="400000.000000" /> 
</g>
<g style="fill:#000000; fill-opacity:1.0; 
stroke:#000000; stroke-width:21200.000000; stroke-opacity:1; 
stroke-linecap:round; stroke-linejoin:round;">
</g>
<g style="fill:#000000; fill-opacity:1.0; 
stroke:#000000; stroke-width:1.000000; stroke-opacity:1; 
stroke-linecap:round; stroke-linejoin:round;">
<circle cx="130750000.000000" cy="164500000.000000" r="400000.000000" /> 
</g>
<g style="fill:#000000; fill-opacity:1.0; 
stroke:#000000; stroke-width:21200.000000; stroke-opacity:1; 
stroke-linecap:round; stroke-linejoin:round;">
</g>
<g style="fill:#000000; fill-opacity:1.0; 
stroke:#000000; stroke-width:1.000000; stroke-opacity:1; 
stroke-linecap:round; stroke-linejoin:round;">
<circle cx="138000000.000000" cy="162750000.000000" r="400000.000000" /> 
</g>
<g style="fill:#000000; fill-opacity:1.0; 
stroke:#000000; stroke-width:21200.000000; stroke-opacity:1; 
stroke-linecap:round; stroke-linejoin:round;">
</g>
<g style="fill:#000000; fill-opacity:1.0; 
stroke:#000000; stroke-width:1.000000; stroke-opacity:1; 
stroke-linecap:round; stroke-linejoin:round;">
<circle cx="137250000.000000" cy="159000000.000000" r="400000.000000" /> 
</g>
<g style="fill:#000000; fill-opacity:1.0; 
stroke:#000000; stroke-width:21200.000000; stroke-opacity:1; 
stroke-linecap:round; stroke-linejoin:round;">
</g>
<g style="fill:#000000; fill-opacity:1.0; 
stroke:#000000; stroke-width:1.000000; stroke-opacity:1; 
stroke-linecap:round; stroke-linejoin:round;">
<circle cx="132000000.000000" cy="138000000.000000" r="400000.000000" /> 
</g>
<g style="fill:#000000; fill-opacity:1.0; 
stroke:#000000; stroke-width:21200.000000; stroke-opacity:1; 
stroke-linecap:round; stroke-linejoin:round;">
</g>
<g style="fill:#000000; fill-opacity:1.0; 
stroke:#000000; stroke-width:1.000000; stroke-opacity:1; 
stroke-linecap:round; stroke-linejoin:round;">
<circle cx="137750000.000000" cy="156750000.000000" r="400000.000000" /> 
</g>
<g style="fill:#000000; fill-opacity:1.0; 
stroke:#000000; stroke-width:21200.000000; stroke-opacity:1; 
stroke-linecap:round; stroke-linejoin:round;">
</g>
<g style="fill:#000000; fill-opacity:1.0; 
stroke:#000000; stroke-width:1.000000; stroke-opacity:1; 
stroke-linecap:round; stroke-linejoin:round;">
<circle cx="132250000.000000" cy="142250000.000000" r="400000.000000" /> 
</g>
<g style="fill:#000000; fill-opacity:1.0; 
stroke:#000000; stroke-width:21200.000000; stroke-opacity:1; 
stroke-linecap:round; stroke-linejoin:round;">
</g>
<g style="fill:#000000; fill-opacity:1.0; 
stroke:#000000; stroke-width:1.000000; stroke-opacity:1; 
stroke-linecap:round; stroke-linejoin:round;">
<circle cx="133250000.000000" cy="157000000.000000" r="400000.000000" /> 
</g>
<g style="fill:#000000; fill-opacity:1.0; 
stroke:#000000; stroke-width:21200.000000; stroke-opacity:1; 
stroke-linecap:round; stroke-linejoin:round;">
</g>
<g style="fill:#000000; fill-opacity:1.0; 
stroke:#000000; stroke-width:1.000000; stroke-opacity:1; 
stroke-linecap:round; stroke-linejoin:round;">
<circle cx="134500000.000000" cy="145750000.000000" r="400000.000000" /> 
</g>
<g style="fill:#000000; fill-opacity:1.0; 
stroke:#000000; stroke-width:21200.000000; stroke-opacity:1; 
stroke-linecap:round; stroke-linejoin:round;">
</g>
<g style="fill:#000000; fill-opacity:1.0; 
stroke:#000000; stroke-width:1.000000; stroke-opacity:1; 
stroke-linecap:round; stroke-linejoin:round;">
<circle cx="132000000.000000" cy="136750000.000000" r="400000.000000" /> 
</g>
<g style="fill:#000000; fill-opacity:1.0; 
stroke:#000000; stroke-width:21200.000000; stroke-opacity:1; 
stroke-linecap:round; stroke-linejoin:round;">
</g>
<g style="fill:#000000; fill-opacity:1.0; 
stroke:#000000; stroke-width:1.000000; stroke-opacity:1; 
stroke-linecap:round; stroke-linejoin:round;">
<circle cx="132000000.000000" cy="129250000.000000" r="400000.000000" /> 
</g>
<g style="fill:#000000; fill-opacity:1.0; 
stroke:#000000; stroke-width:21200.000000; stroke-opacity:1; 
stroke-linecap:round; stroke-linejoin:round;">
</g>
<g style="fill:#000000; fill-opacity:1.0; 
stroke:#000000; stroke-width:1.000000; stroke-opacity:1; 
stroke-linecap:round; stroke-linejoin:round;">
<circle cx="132250000.000000" cy="124750000.000000" r="400000.000000" /> 
</g>
<g style="fill:#000000; fill-opacity:1.0; 
stroke:#000000; stroke-width:21200.000000; stroke-opacity:1; 
stroke-linecap:round; stroke-linejoin:round;">
</g>
<g style="fill:#000000; fill-opacity:1.0; 
stroke:#000000; stroke-width:1.000000; stroke-opacity:1; 
stroke-linecap:round; stroke-linejoin:round;">
<circle cx="131500000.000000" cy="163250000.000000" r="400000.000000" /> 
</g>
<g style="fill:#000000; fill-opacity:1.0; 
stroke:#000000; stroke-width:21200.000000; stroke-opacity:1; 
stroke-linecap:round; stroke-linejoin:round;">
</g>
<g style="fill:#000000; fill-opacity:1.0; 
stroke:#000000; stroke-width:1.000000; stroke-opacity:1; 
stroke-linecap:round; stroke-linejoin:round;">
<circle cx="132000000.000000" cy="131250000.000000" r="400000.000000" /> 
</g>
<g style="fill:#000000; fill-opacity:1.0; 
stroke:#000000; stroke-width:21200.000000; stroke-opacity:1; 
stroke-linecap:round; stroke-linejoin:round;">
</g>
<g style="fill:#000000; fill-opacity:1.0; 
stroke:#000000; stroke-width:1.000000; stroke-opacity:1; 
stroke-linecap:round; stroke-linejoin:round;">
<circle cx="132250000.000000" cy="151750000.000000" r="400000.000000" /> 
</g>
<g style="fill:#000000; fill-opacity:1.0; 
stroke:#000000; stroke-width:21200.000000; stroke-opacity:1; 
stroke-linecap:round; stroke-linejoin:round;">
</g>
<g style="fill:#000000; fill-opacity:1.0; 
stroke:#000000; stroke-width:1.000000; stroke-opacity:1; 
stroke-linecap:round; stroke-linejoin:round;">
<circle cx="132500000.000000" cy="144750000.000000" r="400000.000000" /> 
</g>
<g style="fill:#000000; fill-opacity:1.0; 
stroke:#000000; stroke-width:21200.000000; stroke-opacity:1; 
stroke-linecap:round; stroke-linejoin:round;">
</g>
<g style="fill:#000000; fill-opacity:1.0; 
stroke:#000000; stroke-width:1.000000; stroke-opacity:1; 
stroke-linecap:round; stroke-linejoin:round;">
<circle cx="137250000.000000" cy="156000000.000000" r="400000.000000" /> 
</g>
<g style="fill:#000000; fill-opacity:1.0; 
stroke:#000000; stroke-width:21200.000000; stroke-opacity:1; 
stroke-linecap:round; stroke-linejoin:round;">
</g>
<g >
</g>
<g style="fill:#000000; fill-opacity:1.0; 
stroke:#000000; stroke-width:21200.000000; stroke-opacity:1; 
stroke-linecap:round; stroke-linejoin:round;">
</g>
<g style="fill:#000000; fill-opacity:1.0; 
stroke:#000000; stroke-width:500000.000000; stroke-opacity:1; 
stroke-linecap:round; stroke-linejoin:round;">
</g>
<g style="fill:#000000; fill-opacity:0.0; 
stroke:#000000; stroke-width:500000.000000; stroke-opacity:1; 
stroke-linecap:round; stroke-linejoin:round;">
<path d="M136037500 128750000
L136250000 128962500
" />
<path d="M133710000 131130000
L136250000 131130000
" />
<path d="M136250000 128962500
L136250000 131130000
" />
<path d="M136287500 141327500
L136250000 141290000
" />
<path d="M136287500 143750000
L136287500 141327500
" />
<path d="M133710000 141290000
L136250000 141290000
" />
</g>
<g style="fill:#000000; fill-opacity:0.0; 
stroke:#000000; stroke-width:200000.000000; stroke-opacity:1; 
stroke-linecap:round; stroke-linejoin:round;">
<path d="M131220000 160870000
L134900000 164550000
" />
<path d="M136850000 77800000
L135050000 76000000
" />
<path d="M113947000 76000000
L113947000 67900000
" />
<path d="M135050000 67900000
L132600000 65450000
" />
<path d="M132600000 77812500
L132600000 74850000
" />
</g>
<g >
</g>
<g style="fill:#000000; fill-opacity:0.0; 
stroke:#000000; stroke-width:200000.000000; stroke-opacity:1; 
stroke-linecap:round; stroke-linejoin:round;">
<g >
</g>
<g style="fill:#000000; fill-opacity:1.0; 
stroke:#000000; stroke-width:1.000000; stroke-opacity:1; 
stroke-linecap:round; stroke-linejoin:round;">
<path style="fill:#000000; fill-opacity:1.0; 
stroke:#000000; stroke-width:1.000000; stroke-opacity:1; 
stroke-linecap:round; stroke-linejoin:round;fill-rule:evenodd;"
d="M 139433313.000000,63528502.000000
139479806.000000,63582158.000000
139491192.000000,63634560.000000
139484012.000000,78425173.000000
139442046.000000,164874061.000000
139422011.000000,164942172.000000
139368333.000000,164988639.000000
139316046.000000,165000000.000000
135560813.000000,165000000.000000
135492692.000000,164979998.000000
135446199.000000,164926342.000000
135436095.000000,164856068.000000
135444404.000000,164825782.000000
135489678.000000,164716479.000000
135492838.000000,164708851.000000
135513750.000000,164550000.000000
135492838.000000,164391149.000000
135431524.000000,164243124.000000
135358477.000000,164147929.000000
131622072.000000,160411523.000000
131526876.000000,160338476.000000
131378851.000000,160277162.000000
131370664.000000,160276084.000000
131370663.000000,160276084.000000
131228189.000000,160257328.000000
131220000.000000,160256250.000000
131211811.000000,160257328.000000
131069338.000000,160276084.000000
131069337.000000,160276084.000000
131061150.000000,160277162.000000
131053523.000000,160280321.000000
131053520.000000,160280322.000000
130920752.000000,160335316.000000
130920750.000000,160335317.000000
130913124.000000,160338476.000000
130786013.000000,160436013.000000
130780990.000000,160442559.000000
130780987.000000,160442562.000000
130734462.000000,160503194.000000
130677124.000000,160545061.000000
130606253.000000,160549283.000000
130544350.000000,160514519.000000
130511069.000000,160451806.000000
130508500.000000,160426490.000000
130508500.000000,144272095.000000
133067001.000000,144272095.000000
133067338.000000,144278614.000000
133077257.000000,144374206.000000
133080149.000000,144387600.000000
133131588.000000,144541784.000000
133137761.000000,144554962.000000
133223063.000000,144692807.000000
133232099.000000,144704208.000000
133346829.000000,144818739.000000
133358240.000000,144827751.000000
133496243.000000,144912816.000000
133509424.000000,144918963.000000
133663710.000000,144970138.000000
133677086.000000,144973005.000000
133771438.000000,144982672.000000
133777854.000000,144983000.000000
133890385.000000,144983000.000000
133905624.000000,144978525.000000
133906829.000000,144977135.000000
133908500.000000,144969452.000000
133908500.000000,144022115.000000
133904025.000000,144006876.000000
133902635.000000,144005671.000000
133894952.000000,144004000.000000
133085116.000000,144004000.000000
133069877.000000,144008475.000000
133068672.000000,144009865.000000
133067001.000000,144017548.000000
133067001.000000,144272095.000000
130508500.000000,144272095.000000
130508500.000000,143477885.000000
133067000.000000,143477885.000000
133071475.000000,143493124.000000
133072865.000000,143494329.000000
133080548.000000,143496000.000000
133890385.000000,143496000.000000
133905624.000000,143491525.000000
133906829.000000,143490135.000000
133908500.000000,143482452.000000
133908500.000000,142535116.000000
133904025.000000,142519877.000000
133902635.000000,142518672.000000
133894952.000000,142517001.000000
133777905.000000,142517001.000000
133771386.000000,142517338.000000
133675794.000000,142527257.000000
133662400.000000,142530149.000000
133508216.000000,142581588.000000
133495038.000000,142587761.000000
133357193.000000,142673063.000000
133345792.000000,142682099.000000
133231261.000000,142796829.000000
133222249.000000,142808240.000000
133137184.000000,142946243.000000
133131037.000000,142959424.000000
133079862.000000,143113710.000000
133076995.000000,143127086.000000
133067328.000000,143221438.000000
133067000.000000,143227855.000000
133067000.000000,143477885.000000
130508500.000000,143477885.000000
130508500.000000,141331298.000000
132947453.000000,141331298.000000
132948693.000000,141338514.000000
132948693.000000,141338516.000000
132958325.000000,141394570.000000
132977406.000000,141505614.000000
133046657.000000,141668364.000000
133050990.000000,141674252.000000
133050993.000000,141674257.000000
133123355.000000,141772584.000000
133151492.000000,141810818.000000
133157070.000000,141815557.000000
133157073.000000,141815560.000000
133280706.000000,141920594.000000
133280710.000000,141920597.000000
133286285.000000,141925333.000000
133367820.000000,141966967.000000
133437292.000000,142002442.000000
133437294.000000,142002443.000000
133443808.000000,142005769.000000
133450913.000000,142007508.000000
133450917.000000,142007509.000000
133533238.000000,142027652.000000
133615610.000000,142047808.000000
133621212.000000,142048156.000000
133621215.000000,142048156.000000
133624825.000000,142048380.000000
133624835.000000,142048380.000000
133626764.000000,142048500.000000
135403000.000000,142048500.000000
135471121.000000,142068502.000000
135517614.000000,142122158.000000
135529000.000000,142174500.000000
135529000.000000,142542366.000000
135508998.000000,142610487.000000
135469304.000000,142649509.000000
135425652.000000,142676522.000000
135300695.000000,142801697.000000
135297898.000000,142806235.000000
135240647.000000,142846824.000000
135169724.000000,142850054.000000
135108313.000000,142814428.000000
135100938.000000,142805932.000000
135092902.000000,142795793.000000
134978171.000000,142681261.000000
134966760.000000,142672249.000000
134828757.000000,142587184.000000
134815576.000000,142581037.000000
134661290.000000,142529862.000000
134647914.000000,142526995.000000
134553562.000000,142517328.000000
134547145.000000,142517000.000000
134434615.000000,142517000.000000
134419376.000000,142521475.000000
134418171.000000,142522865.000000
134416500.000000,142530548.000000
134416500.000000,144964884.000000
134420975.000000,144980123.000000
134422365.000000,144981328.000000
134430048.000000,144982999.000000
134547095.000000,144982999.000000
134553614.000000,144982662.000000
134649206.000000,144972743.000000
134662600.000000,144969851.000000
134816784.000000,144918412.000000
134829962.000000,144912239.000000
134967807.000000,144826937.000000
134979208.000000,144817901.000000
135093738.000000,144703172.000000
135100794.000000,144694238.000000
135158712.000000,144653177.000000
135229635.000000,144649947.000000
135291046.000000,144685574.000000
135297846.000000,144693407.000000
135301522.000000,144699348.000000
135426697.000000,144824305.000000
135432927.000000,144828145.000000
135432928.000000,144828146.000000
135570288.000000,144912816.000000
135577262.000000,144917115.000000
135657005.000000,144943564.000000
135738611.000000,144970632.000000
135738613.000000,144970632.000000
135745139.000000,144972797.000000
135751975.000000,144973497.000000
135751978.000000,144973498.000000
135795031.000000,144977909.000000
135849600.000000,144983500.000000
136625400.000000,144983500.000000
136628646.000000,144983163.000000
136628650.000000,144983163.000000
136724308.000000,144973238.000000
136724312.000000,144973237.000000
136731166.000000,144972526.000000
136737702.000000,144970345.000000
136737704.000000,144970345.000000
136869806.000000,144926272.000000
136898946.000000,144916550.000000
137049348.000000,144823478.000000
137174305.000000,144698303.000000
137267115.000000,144547738.000000
137322797.000000,144379861.000000
137333500.000000,144275400.000000
137333500.000000,143224600.000000
137333163.000000,143221350.000000
137323238.000000,143125692.000000
137323237.000000,143125688.000000
137322526.000000,143118834.000000
137266550.000000,142951054.000000
137173478.000000,142800652.000000
137082982.000000,142710313.000000
137048903.000000,142648032.000000
137046000.000000,142621141.000000
137046000.000000,141394570.000000
137047433.000000,141375620.000000
137049599.000000,141361385.000000
137049599.000000,141361381.000000
137050699.000000,141354151.000000
137049428.000000,141338516.000000
137046415.000000,141301482.000000
137046000.000000,141291267.000000
137046000.000000,141283207.000000
137042711.000000,141254993.000000
137042278.000000,141250618.000000
137036954.000000,141185161.000000
137036953.000000,141185158.000000
137036360.000000,141177863.000000
137034104.000000,141170899.000000
137032913.000000,141164940.000000
137031529.000000,141159085.000000
137030682.000000,141151819.000000
137005765.000000,141083173.000000
137004348.000000,141079045.000000
136984107.000000,141016564.000000
136984106.000000,141016562.000000
136981851.000000,141009601.000000
136978055.000000,141003346.000000
136975549.000000,140997872.000000
136972830.000000,140992442.000000
136970333.000000,140985563.000000
136930314.000000,140924524.000000
136927967.000000,140920805.000000
136890095.000000,140858393.000000
136882697.000000,140850016.000000
136882724.000000,140849992.000000
136880071.000000,140847000.000000
136877368.000000,140843767.000000
136873356.000000,140837648.000000
136833766.000000,140800144.000000
136818938.000000,140783354.000000
136812850.000000,140775081.000000
136812846.000000,140775077.000000
136808508.000000,140769182.000000
136802930.000000,140764443.000000
136802927.000000,140764440.000000
136768232.000000,140734965.000000
136760716.000000,140728035.000000
136755021.000000,140722340.000000
136738736.000000,140709456.000000
136732749.000000,140704719.000000
136729345.000000,140701928.000000
136679297.000000,140659409.000000
136679295.000000,140659408.000000
136673715.000000,140654667.000000
136667199.000000,140651339.000000
136662150.000000,140647972.000000
136657021.000000,140644805.000000
136651284.000000,140640266.000000
136585125.000000,140609345.000000
136581225.000000,140607439.000000
136516192.000000,140574231.000000
136509084.000000,140572492.000000
136503441.000000,140570393.000000
136497678.000000,140568476.000000
136491050.000000,140565378.000000
136419583.000000,140550513.000000
136415299.000000,140549543.000000
136400697.000000,140545970.000000
136344390.000000,140532192.000000
136338788.000000,140531844.000000
136338785.000000,140531844.000000
136333236.000000,140531500.000000
136333238.000000,140531464.000000
136329245.000000,140531225.000000
136325053.000000,140530851.000000
136317885.000000,140529360.000000
136251675.000000,140531151.000000
136240479.000000,140531454.000000
136237072.000000,140531500.000000
133665707.000000,140531500.000000
133595964.000000,140539631.000000
133541589.000000,140545970.000000
133541585.000000,140545971.000000
133534319.000000,140546818.000000
133527444.000000,140549313.000000
133527442.000000,140549314.000000
133374939.000000,140604671.000000
133368063.000000,140607167.000000
133361946.000000,140611178.000000
133361943.000000,140611179.000000
133304902.000000,140648577.000000
133220148.000000,140704144.000000
133098510.000000,140832547.000000
133009674.000000,140985490.000000
133007553.000000,140992494.000000
133007551.000000,140992498.000000
132981339.000000,141079045.000000
132958405.000000,141154767.000000
132947453.000000,141331298.000000
130508500.000000,141331298.000000
130508500.000000,131171298.000000
132947453.000000,131171298.000000
132948693.000000,131178514.000000
132948693.000000,131178516.000000
132974762.000000,131330226.000000
132977406.000000,131345614.000000
133046657.000000,131508364.000000
133050990.000000,131514252.000000
133050993.000000,131514257.000000
133104860.000000,131587453.000000
133151492.000000,131650818.000000
133157070.000000,131655557.000000
133157073.000000,131655560.000000
133280706.000000,131760594.000000
133280710.000000,131760597.000000
133286285.000000,131765333.000000
133341139.000000,131793343.000000
133437292.000000,131842442.000000
133437294.000000,131842443.000000
133443808.000000,131845769.000000
133450913.000000,131847508.000000
133450917.000000,131847509.000000
133526920.000000,131866106.000000
133615610.000000,131887808.000000
133621212.000000,131888156.000000
133621215.000000,131888156.000000
133624825.000000,131888380.000000
133624835.000000,131888380.000000
133626764.000000,131888500.000000
136222165.000000,131888500.000000
136229966.000000,131888742.000000
136291298.000000,131892547.000000
136354889.000000,131881620.000000
136361610.000000,131880652.000000
136382535.000000,131878212.000000
136418411.000000,131874030.000000
136418414.000000,131874029.000000
136425681.000000,131873182.000000
136434607.000000,131869942.000000
136456258.000000,131864201.000000
136465614.000000,131862594.000000
136524996.000000,131837327.000000
136531289.000000,131834848.000000
136591937.000000,131812833.000000
136598739.000000,131808374.000000
136599878.000000,131807627.000000
136619615.000000,131797067.000000
136621623.000000,131796213.000000
136621635.000000,131796206.000000
136628364.000000,131793343.000000
136634256.000000,131789007.000000
136634261.000000,131789004.000000
136680332.000000,131755100.000000
136685928.000000,131751210.000000
136690986.000000,131747894.000000
136739852.000000,131715856.000000
136746384.000000,131708961.000000
136763166.000000,131694139.000000
136770818.000000,131688508.000000
136775553.000000,131682935.000000
136775560.000000,131682928.000000
136812581.000000,131639351.000000
136817133.000000,131634277.000000
136856457.000000,131592766.000000
136856458.000000,131592765.000000
136861490.000000,131587453.000000
136865165.000000,131581126.000000
136865172.000000,131581117.000000
136866267.000000,131579232.000000
136879185.000000,131560953.000000
136880594.000000,131559294.000000
136880596.000000,131559291.000000
136885333.000000,131553715.000000
136888659.000000,131547201.000000
136888662.000000,131547197.000000
136914670.000000,131496264.000000
136917932.000000,131490281.000000
136946649.000000,131440841.000000
136946650.000000,131440839.000000
136950326.000000,131434510.000000
136952447.000000,131427506.000000
136952449.000000,131427502.000000
136953078.000000,131425425.000000
136961451.000000,131404649.000000
136965769.000000,131396192.000000
136981108.000000,131333505.000000
136982891.000000,131326988.000000
137001595.000000,131265233.000000
137002183.000000,131255754.000000
137005551.000000,131233617.000000
137006474.000000,131229846.000000
137006476.000000,131229834.000000
137007808.000000,131224390.000000
137008500.000000,131213236.000000
137008500.000000,131157835.000000
137008742.000000,131150033.000000
137012093.000000,131096013.000000
137012547.000000,131088702.000000
137010320.000000,131075740.000000
137008500.000000,131054404.000000
137008500.000000,129678543.000000
137027240.000000,129612427.000000
137063275.000000,129553968.000000
137063276.000000,129553966.000000
137067115.000000,129547738.000000
137122797.000000,129379861.000000
137133500.000000,129275400.000000
137133500.000000,128224600.000000
137133163.000000,128221350.000000
137123238.000000,128125692.000000
137123237.000000,128125688.000000
137122526.000000,128118834.000000
137066550.000000,127951054.000000
136973478.000000,127800652.000000
136848303.000000,127675695.000000
136842072.000000,127671854.000000
136703968.000000,127586725.000000
136703966.000000,127586724.000000
136697738.000000,127582885.000000
136617995.000000,127556436.000000
136536389.000000,127529368.000000
136536387.000000,127529368.000000
136529861.000000,127527203.000000
136523025.000000,127526503.000000
136523022.000000,127526502.000000
136479969.000000,127522091.000000
136425400.000000,127516500.000000
135649600.000000,127516500.000000
135646354.000000,127516837.000000
135646350.000000,127516837.000000
135550692.000000,127526762.000000
135550688.000000,127526763.000000
135543834.000000,127527474.000000
135537298.000000,127529655.000000
135537296.000000,127529655.000000
135520928.000000,127535116.000000
135376054.000000,127583450.000000
135225652.000000,127676522.000000
135100695.000000,127801697.000000
135097898.000000,127806235.000000
135040647.000000,127846824.000000
134969724.000000,127850054.000000
134908313.000000,127814428.000000
134900938.000000,127805932.000000
134892902.000000,127795793.000000
134778171.000000,127681261.000000
134766760.000000,127672249.000000
134628757.000000,127587184.000000
134615576.000000,127581037.000000
134461290.000000,127529862.000000
134447914.000000,127526995.000000
134353562.000000,127517328.000000
134347145.000000,127517000.000000
134234615.000000,127517000.000000
134219376.000000,127521475.000000
134218171.000000,127522865.000000
134216500.000000,127530548.000000
134216500.000000,129964884.000000
134220975.000000,129980123.000000
134222365.000000,129981328.000000
134230048.000000,129982999.000000
134347095.000000,129982999.000000
134353614.000000,129982662.000000
134449206.000000,129972743.000000
134462600.000000,129969851.000000
134616784.000000,129918412.000000
134629962.000000,129912239.000000
134767807.000000,129826937.000000
134779208.000000,129817901.000000
134893738.000000,129703172.000000
134900794.000000,129694238.000000
134958712.000000,129653177.000000
135029635.000000,129649947.000000
135091046.000000,129685574.000000
135097846.000000,129693407.000000
135101522.000000,129699348.000000
135226697.000000,129824305.000000
135232927.000000,129828145.000000
135232928.000000,129828146.000000
135370288.000000,129912816.000000
135377262.000000,129917115.000000
135405170.000000,129926372.000000
135463528.000000,129966803.000000
135490764.000000,130032367.000000
135491500.000000,130045964.000000
135491500.000000,130245500.000000
135471498.000000,130313621.000000
135417842.000000,130360114.000000
135365500.000000,130371500.000000
133665707.000000,130371500.000000
133595964.000000,130379631.000000
133541589.000000,130385970.000000
133541585.000000,130385971.000000
133534319.000000,130386818.000000
133527444.000000,130389313.000000
133527442.000000,130389314.000000
133374939.000000,130444671.000000
133368063.000000,130447167.000000
133361946.000000,130451178.000000
133361943.000000,130451179.000000
133226267.000000,130540132.000000
133220148.000000,130544144.000000
133098510.000000,130672547.000000
133009674.000000,130825490.000000
132958405.000000,130994767.000000
132947453.000000,131171298.000000
130508500.000000,131171298.000000
130508500.000000,129272095.000000
132867001.000000,129272095.000000
132867338.000000,129278614.000000
132877257.000000,129374206.000000
132880149.000000,129387600.000000
132931588.000000,129541784.000000
132937761.000000,129554962.000000
133023063.000000,129692807.000000
133032099.000000,129704208.000000
133146829.000000,129818739.000000
133158240.000000,129827751.000000
133296243.000000,129912816.000000
133309424.000000,129918963.000000
133463710.000000,129970138.000000
133477086.000000,129973005.000000
133571438.000000,129982672.000000
133577854.000000,129983000.000000
133690385.000000,129983000.000000
133705624.000000,129978525.000000
133706829.000000,129977135.000000
133708500.000000,129969452.000000
133708500.000000,129022115.000000
133704025.000000,129006876.000000
133702635.000000,129005671.000000
133694952.000000,129004000.000000
132885116.000000,129004000.000000
132869877.000000,129008475.000000
132868672.000000,129009865.000000
132867001.000000,129017548.000000
132867001.000000,129272095.000000
130508500.000000,129272095.000000
130508500.000000,128477885.000000
132867000.000000,128477885.000000
132871475.000000,128493124.000000
132872865.000000,128494329.000000
132880548.000000,128496000.000000
133690385.000000,128496000.000000
133705624.000000,128491525.000000
133706829.000000,128490135.000000
133708500.000000,128482452.000000
133708500.000000,127535116.000000
133704025.000000,127519877.000000
133702635.000000,127518672.000000
133694952.000000,127517001.000000
133577905.000000,127517001.000000
133571386.000000,127517338.000000
133475794.000000,127527257.000000
133462400.000000,127530149.000000
133308216.000000,127581588.000000
133295038.000000,127587761.000000
133157193.000000,127673063.000000
133145792.000000,127682099.000000
133031261.000000,127796829.000000
133022249.000000,127808240.000000
132937184.000000,127946243.000000
132931037.000000,127959424.000000
132879862.000000,128113710.000000
132876995.000000,128127086.000000
132867328.000000,128221438.000000
132867000.000000,128227855.000000
132867000.000000,128477885.000000
130508500.000000,128477885.000000
130508500.000000,77852385.000000
131991500.000000,77852385.000000
131992038.000000,77856471.000000
131992038.000000,77856472.000000
132005516.000000,77958851.000000
132007162.000000,77971350.000000
132068476.000000,78119375.000000
132117245.000000,78182931.000000
132160984.000000,78239934.000000
132160987.000000,78239937.000000
132166013.000000,78246487.000000
132293124.000000,78344024.000000
132300750.000000,78347183.000000
132300752.000000,78347184.000000
132433520.000000,78402178.000000
132433523.000000,78402179.000000
132441150.000000,78405338.000000
132600000.000000,78426251.000000
132608188.000000,78425173.000000
132750662.000000,78406416.000000
132758850.000000,78405338.000000
132906875.000000,78344024.000000
133033987.000000,78246487.000000
133131524.000000,78119375.000000
133192838.000000,77971350.000000
133194484.000000,77958851.000000
133207962.000000,77856472.000000
133207962.000000,77856471.000000
133208500.000000,77852385.000000
133208500.000000,76000000.000000
134436250.000000,76000000.000000
134457162.000000,76158851.000000
134518476.000000,76306876.000000
134591523.000000,76402072.000000
136447928.000000,78258477.000000
136543124.000000,78331523.000000
136691149.000000,78392837.000000
136850000.000000,78413750.000000
136858189.000000,78412672.000000
137000664.000000,78393916.000000
137000667.000000,78393915.000000
137008850.000000,78392838.000000
137156876.000000,78331523.000000
137283987.000000,78233987.000000
137381523.000000,78106876.000000
137442837.000000,77958851.000000
137463750.000000,77800000.000000
137442837.000000,77641149.000000
137381523.000000,77493124.000000
137308477.000000,77397928.000000
135452072.000000,75541523.000000
135356876.000000,75468476.000000
135208851.000000,75407162.000000
135200664.000000,75406084.000000
135200663.000000,75406084.000000
135058189.000000,75387328.000000
135050000.000000,75386250.000000
135041811.000000,75387328.000000
134899338.000000,75406084.000000
134899337.000000,75406084.000000
134891150.000000,75407162.000000
134883523.000000,75410321.000000
134883520.000000,75410322.000000
134750752.000000,75465316.000000
134750750.000000,75465317.000000
134743124.000000,75468476.000000
134616013.000000,75566013.000000
134518476.000000,75693124.000000
134457162.000000,75841149.000000
134436250.000000,76000000.000000
133208500.000000,76000000.000000
133208500.000000,74810115.000000
133192838.000000,74691150.000000
133131524.000000,74543125.000000
133082756.000000,74479569.000000
133039016.000000,74422566.000000
133039013.000000,74422563.000000
133033987.000000,74416013.000000
132906876.000000,74318476.000000
132899250.000000,74315317.000000
132899248.000000,74315316.000000
132766480.000000,74260322.000000
132766477.000000,74260321.000000
132758850.000000,74257162.000000
132600000.000000,74236249.000000
132441150.000000,74257162.000000
132293125.000000,74318476.000000
132166013.000000,74416013.000000
132068476.000000,74543125.000000
132007162.000000,74691150.000000
131991500.000000,74810115.000000
131991500.000000,77852385.000000
130508500.000000,77852385.000000
130508500.000000,65450000.000000
131986250.000000,65450000.000000
132007162.000000,65608851.000000
132068476.000000,65756876.000000
132141523.000000,65852072.000000
134647928.000000,68358477.000000
134743124.000000,68431524.000000
134891149.000000,68492837.000000
135050000.000000,68513750.000000
135058189.000000,68512672.000000
135200662.000000,68493916.000000
135200663.000000,68493916.000000
135208850.000000,68492838.000000
135216477.000000,68489679.000000
135216480.000000,68489678.000000
135349248.000000,68434684.000000
135349250.000000,68434683.000000
135356876.000000,68431524.000000
135483987.000000,68333987.000000
135581524.000000,68206876.000000
135642837.000000,68058851.000000
135663750.000000,67900000.000000
135642837.000000,67741149.000000
135581524.000000,67593124.000000
135508477.000000,67497928.000000
133002072.000000,64991523.000000
132906876.000000,64918476.000000
132758851.000000,64857162.000000
132750664.000000,64856084.000000
132750663.000000,64856084.000000
132608189.000000,64837328.000000
132600000.000000,64836250.000000
132591811.000000,64837328.000000
132449338.000000,64856084.000000
132449337.000000,64856084.000000
132441150.000000,64857162.000000
132433523.000000,64860321.000000
132433520.000000,64860322.000000
132300752.000000,64915316.000000
132300750.000000,64915317.000000
132293124.000000,64918476.000000
132166013.000000,65016013.000000
132068476.000000,65143124.000000
132007162.000000,65291149.000000
131986250.000000,65450000.000000
130508500.000000,65450000.000000
130508500.000000,63634500.000000
130528502.000000,63566379.000000
130582158.000000,63519886.000000
130634500.000000,63508500.000000
139365192.000000,63508500.000000
Z" /> 
<path style="fill:#000000; fill-opacity:1.0; 
stroke:#000000; stroke-width:1.000000; stroke-opacity:1; 
stroke-linecap:round; stroke-linejoin:round;fill-rule:evenodd;"
d="M 130717012.000000,161218286.000000
130734459.000000,161236802.000000
130761523.000000,161272072.000000
130764441.000000,161274990.000000
134274357.000000,164784905.000000
134308383.000000,164847217.000000
134303318.000000,164918032.000000
134260771.000000,164974868.000000
134194251.000000,164999679.000000
134185262.000000,165000000.000000
130634500.000000,165000000.000000
130566379.000000,164979998.000000
130519886.000000,164926342.000000
130508500.000000,164874000.000000
130508500.000000,161313510.000000
130528502.000000,161245389.000000
130582158.000000,161198896.000000
130652432.000000,161188792.000000
Z" /> 
</g>
</g>
</g> 
</svg>
