<?xml version="1.0" standalone="no"?>
 <!DOCTYPE svg PUBLIC "-//W3C//DTD SVG 1.1//EN" 
 "http://www.w3.org/Graphics/SVG/1.1/DTD/svg11.dtd"> 
<svg
  xmlns:svg="http://www.w3.org/2000/svg"
  xmlns="http://www.w3.org/2000/svg"
  xmlns:xlink="http://www.w3.org/1999/xlink"
  version="1.1"
  width="29.700220cm" height="21.000720cm" viewBox="0 0 297002200 210007200">
<title>SVG Picture created as MiniLFO-B_Silkscreen.svg date 2023/02/28 23:27:59 </title>
  <desc>Picture generated by PCBNEW </desc>
<g style="fill:#000000; fill-opacity:1.000000;stroke:#000000; stroke-opacity:1.000000;
stroke-linecap:round; stroke-linejoin:round;"
 transform="translate(0 0) scale(1 1)">
</g>
<g style="fill:#000000; fill-opacity:0.0; 
stroke:#000000; stroke-width:0.000000; stroke-opacity:1; 
stroke-linecap:round; stroke-linejoin:round;">
</g>
<g style="fill:#000000; fill-opacity:0.0; 
stroke:#000000; stroke-width:150000.000000; stroke-opacity:1; 
stroke-linecap:round; stroke-linejoin:round;">
<text x="117757000.000000" y="147650000.000000"
transform="scale(-1 1) translate(-235514000.000000 0)"
textLength="1519286.000000" font-size="1333333.000000" lengthAdjust="spacingAndGlyphs"
text-anchor="middle" opacity="0">J1</text>
<g class="stroked-text"><desc>J1</desc>
<path d="M118090333 146602380
L118090333 147316666
L118137952 147459523
L118233190 147554761
L118376047 147602380
L118471285 147602380
" />
<path d="M117090333 147602380
L117661761 147602380
" />
<path d="M117376047 147602380
L117376047 146602380
L117471285 146745238
L117566523 146840476
L117661761 146888095
" />
</g></g>
<g style="fill:#000000; fill-opacity:0.0; 
stroke:#000000; stroke-width:120000.000000; stroke-opacity:1; 
stroke-linecap:round; stroke-linejoin:round;">
<path d="M109317000 138260000
L110627000 138260000
" />
<path d="M107927000 140790000
L108927000 141290000
" />
<path d="M110627000 127220000
L110627000 134160000
" />
<path d="M117127000 127220000
L110627000 127220000
" />
<path d="M117127000 145200000
L117127000 127220000
" />
<path d="M118437000 146500000
L118437000 125920000
" />
<path d="M109317000 146500000
L118437000 146500000
" />
</g>
<g style="fill:#000000; fill-opacity:1.0; 
stroke:#000000; stroke-width:1.000000; stroke-opacity:1; 
stroke-linecap:round; stroke-linejoin:round;">
<circle cx="110627000.000000" cy="134160000.000000" r="60000.000000" /> 
</g>
<g style="fill:#000000; fill-opacity:1.0; 
stroke:#000000; stroke-width:120000.000000; stroke-opacity:1; 
stroke-linecap:round; stroke-linejoin:round;">
</g>
<g style="fill:#000000; fill-opacity:0.0; 
stroke:#000000; stroke-width:120000.000000; stroke-opacity:1; 
stroke-linecap:round; stroke-linejoin:round;">
<path d="M110627000 145200000
L117127000 145200000
" />
<path d="M107927000 141790000
L107927000 140790000
" />
<path d="M110627000 134160000
L109317000 134160000
" />
<path d="M118437000 125920000
L109317000 125920000
" />
<path d="M109317000 125920000
L109317000 146500000
" />
<path d="M108927000 141290000
L107927000 141790000
" />
<path d="M110627000 138260000
L110627000 145200000
" />
<g >
</g>
<g >
</g>
<g >
</g>
<g >
</g>
<g >
</g>
<g >
</g>
<g >
</g>
<g >
</g>
<g >
</g>
<g >
</g>
<g >
</g>
<g >
</g>
<g >
</g>
<g >
</g>
<g >
</g>
<g >
</g>
<g >
</g>
<g >
</g>
<g >
</g>
<g >
</g>
<g >
</g>
<g >
</g>
<g >
</g>
<g >
</g>
<g >
</g>
</g> 
</svg>
