<?xml version="1.0" standalone="no"?>
 <!DOCTYPE svg PUBLIC "-//W3C//DTD SVG 1.1//EN" 
 "http://www.w3.org/Graphics/SVG/1.1/DTD/svg11.dtd"> 
<svg
  xmlns:svg="http://www.w3.org/2000/svg"
  xmlns="http://www.w3.org/2000/svg"
  xmlns:xlink="http://www.w3.org/1999/xlink"
  version="1.1"
  width="29.700220cm" height="21.000720cm" viewBox="0 0 297002200 210007200">
<title>SVG Picture created as MiniLFO-F_Silkscreen.svg date 2023/02/28 23:27:59 </title>
  <desc>Picture generated by PCBNEW </desc>
<g style="fill:#000000; fill-opacity:1.000000;stroke:#000000; stroke-opacity:1.000000;
stroke-linecap:round; stroke-linejoin:round;"
 transform="translate(0 0) scale(1 1)">
</g>
<g style="fill:#000000; fill-opacity:0.0; 
stroke:#000000; stroke-width:0.000000; stroke-opacity:1; 
stroke-linecap:round; stroke-linejoin:round;">
</g>
<g style="fill:#000000; fill-opacity:0.0; 
stroke:#000000; stroke-width:150000.000000; stroke-opacity:1; 
stroke-linecap:round; stroke-linejoin:round;">
<g transform="rotate(-90.000000 108681000.000000 81320000.000000)">
<text x="108681000.000000" y="81820000.000000"
textLength="2147381.000000" font-size="1333333.000000" lengthAdjust="spacingAndGlyphs"
text-anchor="middle" opacity="0">C2</text>
</g>
<g class="stroked-text"><desc>C2</desc>
<path d="M109038142 81486666
L109085761 81534285
L109133380 81677142
L109133380 81772380
L109085761 81915238
L108990523 82010476
L108895285 82058095
L108704809 82105714
L108561952 82105714
L108371476 82058095
L108276238 82010476
L108181000 81915238
L108133380 81772380
L108133380 81677142
L108181000 81534285
L108228619 81486666
" />
<path d="M108228619 81105714
L108181000 81058095
L108133380 80962857
L108133380 80724761
L108181000 80629523
L108228619 80581904
L108323857 80534285
L108419095 80534285
L108561952 80581904
L109133380 81153333
L109133380 80534285
" />
</g><g transform="rotate(-90.000000 111231000.000000 81320000.000000)">
<text x="111231000.000000" y="81720000.000000"
textLength="3128333.000000" font-size="1066666.000000" lengthAdjust="spacingAndGlyphs"
text-anchor="middle" opacity="0">10nF</text>
</g>
<g class="stroked-text"><desc>10nF</desc>
<path d="M111592904 82177142
L111592904 82634285
" />
<path d="M111592904 82405714
L110792904 82405714
L110907190 82481904
L110983380 82558095
L111021476 82634285
" />
<path d="M110792904 81681904
L110792904 81605714
L110831000 81529523
L110869095 81491428
L110945285 81453333
L111097666 81415238
L111288142 81415238
L111440523 81453333
L111516714 81491428
L111554809 81529523
L111592904 81605714
L111592904 81681904
L111554809 81758095
L111516714 81796190
L111440523 81834285
L111288142 81872380
L111097666 81872380
L110945285 81834285
L110869095 81796190
L110831000 81758095
L110792904 81681904
" />
<path d="M111059571 81072380
L111592904 81072380
" />
<path d="M111135761 81072380
L111097666 81034285
L111059571 80958095
L111059571 80843809
L111097666 80767619
L111173857 80729523
L111592904 80729523
" />
<path d="M111173857 80081904
L111173857 80348571
" />
<path d="M111592904 80348571
L110792904 80348571
L110792904 79967619
" />
</g><g transform="rotate(-90.000000 112557000.000000 81235113.000000)">
<text x="112557000.000000" y="81735113.000000"
textLength="2147381.000000" font-size="1333333.000000" lengthAdjust="spacingAndGlyphs"
text-anchor="middle" opacity="0">C1</text>
</g>
<g class="stroked-text"><desc>C1</desc>
<path d="M112914142 81401779
L112961761 81449398
L113009380 81592255
L113009380 81687493
L112961761 81830351
L112866523 81925589
L112771285 81973208
L112580809 82020827
L112437952 82020827
L112247476 81973208
L112152238 81925589
L112057000 81830351
L112009380 81687493
L112009380 81592255
L112057000 81449398
L112104619 81401779
" />
<path d="M113009380 80449398
L113009380 81020827
" />
<path d="M113009380 80735113
L112009380 80735113
L112152238 80830351
L112247476 80925589
L112295095 81020827
" />
</g><g transform="rotate(-90.000000 120057000.000000 81235113.000000)">
<text x="120057000.000000" y="81735113.000000"
textLength="3861667.000000" font-size="1333333.000000" lengthAdjust="spacingAndGlyphs"
text-anchor="middle" opacity="0">10uF</text>
</g>
<g class="stroked-text"><desc>10uF</desc>
<path d="M120509380 82306541
L120509380 82877970
" />
<path d="M120509380 82592255
L119509380 82592255
L119652238 82687493
L119747476 82782732
L119795095 82877970
" />
<path d="M119509380 81687493
L119509380 81592255
L119557000 81497017
L119604619 81449398
L119699857 81401779
L119890333 81354160
L120128428 81354160
L120318904 81401779
L120414142 81449398
L120461761 81497017
L120509380 81592255
L120509380 81687493
L120461761 81782732
L120414142 81830351
L120318904 81877970
L120128428 81925589
L119890333 81925589
L119699857 81877970
L119604619 81830351
L119557000 81782732
L119509380 81687493
" />
<path d="M119842714 80497017
L120509380 80497017
" />
<path d="M119842714 80925589
L120366523 80925589
L120461761 80877970
L120509380 80782732
L120509380 80639874
L120461761 80544636
L120414142 80497017
" />
<path d="M119985571 79687493
L119985571 80020827
" />
<path d="M120509380 80020827
L119509380 80020827
L119509380 79544636
" />
</g><g transform="rotate(-90.000000 106271000.000000 112525000.000000)">
<text x="106271000.000000" y="113025000.000000"
textLength="4433095.000000" font-size="1333333.000000" lengthAdjust="spacingAndGlyphs"
text-anchor="middle" opacity="0">TIME1</text>
</g>
<g class="stroked-text"><desc>TIME1</desc>
<path d="M105723380 114548809
L105723380 113977380
" />
<path d="M106723380 114263095
L105723380 114263095
" />
<path d="M106723380 113644047
L105723380 113644047
" />
<path d="M106723380 113167857
L105723380 113167857
L106437666 112834523
L105723380 112501190
L106723380 112501190
" />
<path d="M106199571 112025000
L106199571 111691666
" />
<path d="M106723380 111548809
L106723380 112025000
L105723380 112025000
L105723380 111548809
" />
<path d="M106723380 110596428
L106723380 111167857
" />
<path d="M106723380 110882142
L105723380 110882142
L105866238 110977380
L105961476 111072619
L106009095 111167857
" />
</g><g transform="rotate(-90.000000 106197000.000000 91189000.000000)">
<text x="106197000.000000" y="91689000.000000"
textLength="5956905.000000" font-size="1333333.000000" lengthAdjust="spacingAndGlyphs"
text-anchor="middle" opacity="0">RANGE1</text>
</g>
<g class="stroked-text"><desc>RANGE1</desc>
<path d="M106649380 93260428
L106173190 93593761
" />
<path d="M106649380 93831857
L105649380 93831857
L105649380 93450904
L105697000 93355666
L105744619 93308047
L105839857 93260428
L105982714 93260428
L106077952 93308047
L106125571 93355666
L106173190 93450904
L106173190 93831857
" />
<path d="M106363666 92879476
L106363666 92403285
" />
<path d="M106649380 92974714
L105649380 92641380
L106649380 92308047
" />
<path d="M106649380 91974714
L105649380 91974714
L106649380 91403285
L105649380 91403285
" />
<path d="M105697000 90403285
L105649380 90498523
L105649380 90641380
L105697000 90784238
L105792238 90879476
L105887476 90927095
L106077952 90974714
L106220809 90974714
L106411285 90927095
L106506523 90879476
L106601761 90784238
L106649380 90641380
L106649380 90546142
L106601761 90403285
L106554142 90355666
L106220809 90355666
L106220809 90546142
" />
<path d="M106125571 89927095
L106125571 89593761
" />
<path d="M106649380 89450904
L106649380 89927095
L105649380 89927095
L105649380 89450904
" />
<path d="M106649380 88498523
L106649380 89069952
" />
<path d="M106649380 88784238
L105649380 88784238
L105792238 88879476
L105887476 88974714
L105935095 89069952
" />
</g><text x="113897000.000000" y="151150000.000000"
textLength="7004524.000000" font-size="1333333.000000" lengthAdjust="spacingAndGlyphs"
text-anchor="middle" opacity="0">TRI_OUT1</text>
<g class="stroked-text"><desc>TRI_OUT1</desc>
<path d="M110587476 150102380
L111158904 150102380
" />
<path d="M110873190 151102380
L110873190 150102380
" />
<path d="M112063666 151102380
L111730333 150626190
" />
<path d="M111492238 151102380
L111492238 150102380
L111873190 150102380
L111968428 150150000
L112016047 150197619
L112063666 150292857
L112063666 150435714
L112016047 150530952
L111968428 150578571
L111873190 150626190
L111492238 150626190
" />
<path d="M112492238 151102380
L112492238 150102380
" />
<path d="M112730333 151197619
L113492238 151197619
" />
<path d="M113920809 150102380
L114111285 150102380
L114206523 150150000
L114301761 150245238
L114349380 150435714
L114349380 150769047
L114301761 150959523
L114206523 151054761
L114111285 151102380
L113920809 151102380
L113825571 151054761
L113730333 150959523
L113682714 150769047
L113682714 150435714
L113730333 150245238
L113825571 150150000
L113920809 150102380
" />
<path d="M114777952 150102380
L114777952 150911904
L114825571 151007142
L114873190 151054761
L114968428 151102380
L115158904 151102380
L115254142 151054761
L115301761 151007142
L115349380 150911904
L115349380 150102380
" />
<path d="M115682714 150102380
L116254142 150102380
" />
<path d="M115968428 151102380
L115968428 150102380
" />
<path d="M117111285 151102380
L116539857 151102380
" />
<path d="M116825571 151102380
L116825571 150102380
L116730333 150245238
L116635095 150340476
L116539857 150388095
" />
</g><text x="164300000.000000" y="99980000.000000"
textLength="2147381.000000" font-size="1333333.000000" lengthAdjust="spacingAndGlyphs"
text-anchor="middle" opacity="0">R1</text>
<g class="stroked-text"><desc>R1</desc>
<path d="M164133333 99932380
L163800000 99456190
" />
<path d="M163561904 99932380
L163561904 98932380
L163942857 98932380
L164038095 98980000
L164085714 99027619
L164133333 99122857
L164133333 99265714
L164085714 99360952
L164038095 99408571
L163942857 99456190
L163561904 99456190
" />
<path d="M165085714 99932380
L164514285 99932380
" />
<path d="M164800000 99932380
L164800000 98932380
L164704761 99075238
L164609523 99170476
L164514285 99218095
" />
</g><g transform="rotate(-90.000000 132650000.000000 143750000.000000)">
<text x="132650000.000000" y="144250000.000000"
textLength="2147381.000000" font-size="1333333.000000" lengthAdjust="spacingAndGlyphs"
text-anchor="middle" opacity="0">C6</text>
</g>
<g class="stroked-text"><desc>C6</desc>
<path d="M133007142 143916666
L133054761 143964285
L133102380 144107142
L133102380 144202380
L133054761 144345238
L132959523 144440476
L132864285 144488095
L132673809 144535714
L132530952 144535714
L132340476 144488095
L132245238 144440476
L132150000 144345238
L132102380 144202380
L132102380 144107142
L132150000 143964285
L132197619 143916666
" />
<path d="M132102380 143059523
L132102380 143250000
L132150000 143345238
L132197619 143392857
L132340476 143488095
L132530952 143535714
L132911904 143535714
L133007142 143488095
L133054761 143440476
L133102380 143345238
L133102380 143154761
L133054761 143059523
L133007142 143011904
L132911904 142964285
L132673809 142964285
L132578571 143011904
L132530952 143059523
L132483333 143154761
L132483333 143345238
L132530952 143440476
L132578571 143488095
L132673809 143535714
" />
</g><g transform="rotate(-90.000000 132500000.000000 128750000.000000)">
<text x="132500000.000000" y="129250000.000000"
textLength="2147381.000000" font-size="1333333.000000" lengthAdjust="spacingAndGlyphs"
text-anchor="middle" opacity="0">C3</text>
</g>
<g class="stroked-text"><desc>C3</desc>
<path d="M132857142 128916666
L132904761 128964285
L132952380 129107142
L132952380 129202380
L132904761 129345238
L132809523 129440476
L132714285 129488095
L132523809 129535714
L132380952 129535714
L132190476 129488095
L132095238 129440476
L132000000 129345238
L131952380 129202380
L131952380 129107142
L132000000 128964285
L132047619 128916666
" />
<path d="M131952380 128583333
L131952380 127964285
L132333333 128297619
L132333333 128154761
L132380952 128059523
L132428571 128011904
L132523809 127964285
L132761904 127964285
L132857142 128011904
L132904761 128059523
L132952380 128154761
L132952380 128440476
L132904761 128535714
L132857142 128583333
" />
</g><g transform="rotate(-90.000000 108491000.000000 103632000.000000)">
<text x="108491000.000000" y="104132000.000000"
textLength="2195000.000000" font-size="1333333.000000" lengthAdjust="spacingAndGlyphs"
text-anchor="middle" opacity="0">U1</text>
</g>
<g class="stroked-text"><desc>U1</desc>
<path d="M107943380 104393904
L108752904 104393904
L108848142 104346285
L108895761 104298666
L108943380 104203428
L108943380 104012952
L108895761 103917714
L108848142 103870095
L108752904 103822476
L107943380 103822476
" />
<path d="M108943380 102822476
L108943380 103393904
" />
<path d="M108943380 103108190
L107943380 103108190
L108086238 103203428
L108181476 103298666
L108229095 103393904
" />
</g><text x="193900000.000000" y="91300000.000000"
textLength="2147381.000000" font-size="1333333.000000" lengthAdjust="spacingAndGlyphs"
text-anchor="middle" opacity="0">R4</text>
<g class="stroked-text"><desc>R4</desc>
<path d="M193733333 91252380
L193400000 90776190
" />
<path d="M193161904 91252380
L193161904 90252380
L193542857 90252380
L193638095 90300000
L193685714 90347619
L193733333 90442857
L193733333 90585714
L193685714 90680952
L193638095 90728571
L193542857 90776190
L193161904 90776190
" />
<path d="M194590476 90585714
L194590476 91252380
" />
<path d="M194352380 90204761
L194114285 90919047
L194733333 90919047
" />
</g><text x="181700000.000000" y="94960000.000000"
textLength="2147381.000000" font-size="1333333.000000" lengthAdjust="spacingAndGlyphs"
text-anchor="middle" opacity="0">R8</text>
<g class="stroked-text"><desc>R8</desc>
<path d="M181533333 94912380
L181200000 94436190
" />
<path d="M180961904 94912380
L180961904 93912380
L181342857 93912380
L181438095 93960000
L181485714 94007619
L181533333 94102857
L181533333 94245714
L181485714 94340952
L181438095 94388571
L181342857 94436190
L180961904 94436190
" />
<path d="M182104761 94340952
L182009523 94293333
L181961904 94245714
L181914285 94150476
L181914285 94102857
L181961904 94007619
L182009523 93960000
L182104761 93912380
L182295238 93912380
L182390476 93960000
L182438095 94007619
L182485714 94102857
L182485714 94150476
L182438095 94245714
L182390476 94293333
L182295238 94340952
L182104761 94340952
L182009523 94388571
L181961904 94436190
L181914285 94531428
L181914285 94721904
L181961904 94817142
L182009523 94864761
L182104761 94912380
L182295238 94912380
L182390476 94864761
L182438095 94817142
L182485714 94721904
L182485714 94531428
L182438095 94436190
L182390476 94388571
L182295238 94340952
" />
</g><text x="164300000.000000" y="97470000.000000"
textLength="2147381.000000" font-size="1333333.000000" lengthAdjust="spacingAndGlyphs"
text-anchor="middle" opacity="0">R5</text>
<g class="stroked-text"><desc>R5</desc>
<path d="M164133333 97422380
L163800000 96946190
" />
<path d="M163561904 97422380
L163561904 96422380
L163942857 96422380
L164038095 96470000
L164085714 96517619
L164133333 96612857
L164133333 96755714
L164085714 96850952
L164038095 96898571
L163942857 96946190
L163561904 96946190
" />
<path d="M165038095 96422380
L164561904 96422380
L164514285 96898571
L164561904 96850952
L164657142 96803333
L164895238 96803333
L164990476 96850952
L165038095 96898571
L165085714 96993809
L165085714 97231904
L165038095 97327142
L164990476 97374761
L164895238 97422380
L164657142 97422380
L164561904 97374761
L164514285 97327142
" />
</g><text x="177350000.000000" y="94960000.000000"
textLength="2147381.000000" font-size="1333333.000000" lengthAdjust="spacingAndGlyphs"
text-anchor="middle" opacity="0">R7</text>
<g class="stroked-text"><desc>R7</desc>
<path d="M177183333 94912380
L176850000 94436190
" />
<path d="M176611904 94912380
L176611904 93912380
L176992857 93912380
L177088095 93960000
L177135714 94007619
L177183333 94102857
L177183333 94245714
L177135714 94340952
L177088095 94388571
L176992857 94436190
L176611904 94436190
" />
<path d="M177516666 93912380
L178183333 93912380
L177754761 94912380
" />
</g><text x="168650000.000000" y="97470000.000000"
textLength="2147381.000000" font-size="1333333.000000" lengthAdjust="spacingAndGlyphs"
text-anchor="middle" opacity="0">C4</text>
<g class="stroked-text"><desc>C4</desc>
<path d="M168483333 97327142
L168435714 97374761
L168292857 97422380
L168197619 97422380
L168054761 97374761
L167959523 97279523
L167911904 97184285
L167864285 96993809
L167864285 96850952
L167911904 96660476
L167959523 96565238
L168054761 96470000
L168197619 96422380
L168292857 96422380
L168435714 96470000
L168483333 96517619
" />
<path d="M169340476 96755714
L169340476 97422380
" />
<path d="M169102380 96374761
L168864285 97089047
L169483333 97089047
" />
</g><g transform="rotate(-90.000000 113947000.000000 70050000.000000)">
<text x="113947000.000000" y="70550000.000000"
textLength="8814048.000000" font-size="1333333.000000" lengthAdjust="spacingAndGlyphs"
text-anchor="middle" opacity="0">RANGE_SW1</text>
</g>
<g class="stroked-text"><desc>RANGE_SW1</desc>
<path d="M114399380 73550000
L113923190 73883333
" />
<path d="M114399380 74121428
L113399380 74121428
L113399380 73740476
L113447000 73645238
L113494619 73597619
L113589857 73550000
L113732714 73550000
L113827952 73597619
L113875571 73645238
L113923190 73740476
L113923190 74121428
" />
<path d="M114113666 73169047
L114113666 72692857
" />
<path d="M114399380 73264285
L113399380 72930952
L114399380 72597619
" />
<path d="M114399380 72264285
L113399380 72264285
L114399380 71692857
L113399380 71692857
" />
<path d="M113447000 70692857
L113399380 70788095
L113399380 70930952
L113447000 71073809
L113542238 71169047
L113637476 71216666
L113827952 71264285
L113970809 71264285
L114161285 71216666
L114256523 71169047
L114351761 71073809
L114399380 70930952
L114399380 70835714
L114351761 70692857
L114304142 70645238
L113970809 70645238
L113970809 70835714
" />
<path d="M113875571 70216666
L113875571 69883333
" />
<path d="M114399380 69740476
L114399380 70216666
L113399380 70216666
L113399380 69740476
" />
<path d="M114494619 69550000
L114494619 68788095
" />
<path d="M114351761 68597619
L114399380 68454761
L114399380 68216666
L114351761 68121428
L114304142 68073809
L114208904 68026190
L114113666 68026190
L114018428 68073809
L113970809 68121428
L113923190 68216666
L113875571 68407142
L113827952 68502380
L113780333 68550000
L113685095 68597619
L113589857 68597619
L113494619 68550000
L113447000 68502380
L113399380 68407142
L113399380 68169047
L113447000 68026190
" />
<path d="M113399380 67692857
L114399380 67454761
L113685095 67264285
L114399380 67073809
L113399380 66835714
" />
<path d="M114399380 65930952
L114399380 66502380
" />
<path d="M114399380 66216666
L113399380 66216666
L113542238 66311904
L113637476 66407142
L113685095 66502380
" />
</g><text x="164300000.000000" y="94960000.000000"
textLength="2147381.000000" font-size="1333333.000000" lengthAdjust="spacingAndGlyphs"
text-anchor="middle" opacity="0">R3</text>
<g class="stroked-text"><desc>R3</desc>
<path d="M164133333 94912380
L163800000 94436190
" />
<path d="M163561904 94912380
L163561904 93912380
L163942857 93912380
L164038095 93960000
L164085714 94007619
L164133333 94102857
L164133333 94245714
L164085714 94340952
L164038095 94388571
L163942857 94436190
L163561904 94436190
" />
<path d="M164466666 93912380
L165085714 93912380
L164752380 94293333
L164895238 94293333
L164990476 94340952
L165038095 94388571
L165085714 94483809
L165085714 94721904
L165038095 94817142
L164990476 94864761
L164895238 94912380
L164609523 94912380
L164514285 94864761
L164466666 94817142
" />
</g><text x="168650000.000000" y="94960000.000000"
textLength="2147381.000000" font-size="1333333.000000" lengthAdjust="spacingAndGlyphs"
text-anchor="middle" opacity="0">R6</text>
<g class="stroked-text"><desc>R6</desc>
<path d="M168483333 94912380
L168150000 94436190
" />
<path d="M167911904 94912380
L167911904 93912380
L168292857 93912380
L168388095 93960000
L168435714 94007619
L168483333 94102857
L168483333 94245714
L168435714 94340952
L168388095 94388571
L168292857 94436190
L167911904 94436190
" />
<path d="M169340476 93912380
L169150000 93912380
L169054761 93960000
L169007142 94007619
L168911904 94150476
L168864285 94340952
L168864285 94721904
L168911904 94817142
L168959523 94864761
L169054761 94912380
L169245238 94912380
L169340476 94864761
L169388095 94817142
L169435714 94721904
L169435714 94483809
L169388095 94388571
L169340476 94340952
L169245238 94293333
L169054761 94293333
L168959523 94340952
L168911904 94388571
L168864285 94483809
" />
</g><text x="186050000.000000" y="94960000.000000"
textLength="2147381.000000" font-size="1333333.000000" lengthAdjust="spacingAndGlyphs"
text-anchor="middle" opacity="0">C5</text>
<g class="stroked-text"><desc>C5</desc>
<path d="M185883333 94817142
L185835714 94864761
L185692857 94912380
L185597619 94912380
L185454761 94864761
L185359523 94769523
L185311904 94674285
L185264285 94483809
L185264285 94340952
L185311904 94150476
L185359523 94055238
L185454761 93960000
L185597619 93912380
L185692857 93912380
L185835714 93960000
L185883333 94007619
" />
<path d="M186788095 93912380
L186311904 93912380
L186264285 94388571
L186311904 94340952
L186407142 94293333
L186645238 94293333
L186740476 94340952
L186788095 94388571
L186835714 94483809
L186835714 94721904
L186788095 94817142
L186740476 94864761
L186645238 94912380
L186407142 94912380
L186311904 94864761
L186264285 94817142
" />
</g><text x="173000000.000000" y="94960000.000000"
textLength="2147381.000000" font-size="1333333.000000" lengthAdjust="spacingAndGlyphs"
text-anchor="middle" opacity="0">R2</text>
<g class="stroked-text"><desc>R2</desc>
<path d="M172833333 94912380
L172500000 94436190
" />
<path d="M172261904 94912380
L172261904 93912380
L172642857 93912380
L172738095 93960000
L172785714 94007619
L172833333 94102857
L172833333 94245714
L172785714 94340952
L172738095 94388571
L172642857 94436190
L172261904 94436190
" />
<path d="M173214285 94007619
L173261904 93960000
L173357142 93912380
L173595238 93912380
L173690476 93960000
L173738095 94007619
L173785714 94102857
L173785714 94198095
L173738095 94340952
L173166666 94912380
L173785714 94912380
" />
</g><text x="113792000.000000" y="146950000.000000"
textLength="2147381.000000" font-size="1333333.000000" lengthAdjust="spacingAndGlyphs"
text-anchor="middle" opacity="0">D1</text>
<g class="stroked-text"><desc>D1</desc>
<path d="M113053904 146902380
L113053904 145902380
L113292000 145902380
L113434857 145950000
L113530095 146045238
L113577714 146140476
L113625333 146330952
L113625333 146473809
L113577714 146664285
L113530095 146759523
L113434857 146854761
L113292000 146902380
L113053904 146902380
" />
<path d="M114577714 146902380
L114006285 146902380
" />
<path d="M114292000 146902380
L114292000 145902380
L114196761 146045238
L114101523 146140476
L114006285 146188095
" />
</g></g>
<g style="fill:#000000; fill-opacity:0.0; 
stroke:#000000; stroke-width:120000.000000; stroke-opacity:1; 
stroke-linecap:round; stroke-linejoin:round;">
<path d="M109861000 77600000
L112601000 77600000
" />
<path d="M109861000 85040000
L109861000 77600000
" />
<path d="M112601000 85040000
L112601000 77600000
" />
<path d="M109861000 85040000
L112601000 85040000
" />
<path d="M117097000 79394113
L117883000 79394113
" />
<path d="M114231000 79394113
L115017000 79394113
" />
<path d="M117097000 79434113
L117921000 79434113
" />
<path d="M114193000 79434113
L115017000 79434113
" />
<path d="M117097000 79474113
L117958000 79474113
" />
<path d="M114156000 79474113
L115017000 79474113
" />
<path d="M114959000 78874113
L117155000 78874113
" />
<path d="M117097000 79154113
L117611000 79154113
" />
<path d="M114503000 79154113
L115017000 79154113
" />
<path d="M115046000 78834113
L117068000 78834113
" />
<path d="M114738000 78994113
L115017000 78994113
" />
<path d="M114806000 78954113
L115017000 78954113
" />
<path d="M115142000 78794113
L116972000 78794113
" />
<path d="M117097000 79194113
L117662000 79194113
" />
<path d="M114452000 79194113
L115017000 79194113
" />
<path d="M117097000 79794113
L118206000 79794113
" />
<path d="M113908000 79794113
L115017000 79794113
" />
<path d="M117097000 79834113
L118232000 79834113
" />
<path d="M113882000 79834113
L115017000 79834113
" />
<path d="M117097000 79874113
L118257000 79874113
" />
<path d="M113857000 79874113
L115017000 79874113
" />
<path d="M117097000 79914113
L118281000 79914113
" />
<path d="M117097000 79114113
L117557000 79114113
" />
<path d="M114557000 79114113
L115017000 79114113
" />
<path d="M113479000 81115113
L118635000 81115113
" />
<path d="M113478000 81155113
L118636000 81155113
" />
<path d="M113477000 81195113
L118637000 81195113
" />
<path d="M113477000 81235113
L118637000 81235113
" />
<circle cx="116057000.000000" cy="81235113.000000" r="2620000.000000" /> 
<path d="M114879000 78914113
L117235000 78914113
" />
<path d="M114582000 84039888
L114582000 83539888
" />
<path d="M114332000 83789888
L114832000 83789888
" />
<path d="M115773000 78634113
L116341000 78634113
" />
<path d="M117097000 79314113
L117800000 79314113
" />
<path d="M114314000 79314113
L115017000 79314113
" />
<path d="M117097000 79354113
L117842000 79354113
" />
<path d="M114272000 79354113
L115017000 79354113
" />
<path d="M117097000 78954113
L117308000 78954113
" />
<path d="M117097000 80354113
L118485000 80354113
" />
<path d="M113629000 80354113
L115017000 80354113
" />
<path d="M117097000 80394113
L118499000 80394113
" />
<path d="M113615000 80394113
L115017000 80394113
" />
<path d="M117097000 80434113
L118512000 80434113
" />
<path d="M113602000 80434113
L115017000 80434113
" />
<path d="M117097000 80474113
L118525000 80474113
" />
<path d="M115539000 78674113
L116575000 78674113
" />
<path d="M115380000 78714113
L116734000 78714113
" />
<path d="M115252000 78754113
L116862000 78754113
" />
<path d="M113692000 80194113
L115017000 80194113
" />
<path d="M117097000 80234113
L118439000 80234113
" />
<path d="M113675000 80234113
L115017000 80234113
" />
<path d="M117097000 80274113
L118455000 80274113
" />
<path d="M113659000 80274113
L115017000 80274113
" />
<path d="M117097000 80314113
L118471000 80314113
" />
<path d="M113643000 80314113
L115017000 80314113
" />
<path d="M114674000 79034113
L115017000 79034113
" />
<path d="M117097000 80635113
L118568000 80635113
" />
<path d="M113546000 80635113
L115017000 80635113
" />
<path d="M117097000 80675113
L118577000 80675113
" />
<path d="M113537000 80675113
L115017000 80675113
" />
<path d="M117097000 80715113
L118585000 80715113
" />
<path d="M113529000 80715113
L115017000 80715113
" />
<path d="M117097000 80755113
L118593000 80755113
" />
<path d="M114022000 79634113
L115017000 79634113
" />
<path d="M117097000 79674113
L118122000 79674113
" />
<path d="M113992000 79674113
L115017000 79674113
" />
<path d="M117097000 79714113
L118152000 79714113
" />
<path d="M113962000 79714113
L115017000 79714113
" />
<path d="M117097000 79754113
L118179000 79754113
" />
<path d="M113935000 79754113
L115017000 79754113
" />
<path d="M117097000 79514113
L117994000 79514113
" />
<path d="M114120000 79514113
L115017000 79514113
" />
<path d="M117097000 79554113
L118028000 79554113
" />
<path d="M114086000 79554113
L115017000 79554113
" />
<path d="M117097000 79594113
L118061000 79594113
" />
<path d="M114053000 79594113
L115017000 79594113
" />
<path d="M117097000 79634113
L118092000 79634113
" />
<path d="M113589000 80474113
L115017000 80474113
" />
<path d="M117097000 80514113
L118537000 80514113
" />
<path d="M113577000 80514113
L115017000 80514113
" />
<path d="M117097000 80555113
L118548000 80555113
" />
<path d="M113566000 80555113
L115017000 80555113
" />
<path d="M117097000 80595113
L118558000 80595113
" />
<path d="M113556000 80595113
L115017000 80595113
" />
<path d="M113521000 80755113
L115017000 80755113
" />
<path d="M117097000 80795113
L118600000 80795113
" />
<path d="M113514000 80795113
L115017000 80795113
" />
<path d="M117097000 80835113
L118607000 80835113
" />
<path d="M113507000 80835113
L115017000 80835113
" />
<path d="M117097000 80875113
L118613000 80875113
" />
<path d="M113501000 80875113
L115017000 80875113
" />
<path d="M117097000 80915113
L118618000 80915113
" />
<path d="M113496000 80915113
L115017000 80915113
" />
<path d="M117097000 80955113
L118622000 80955113
" />
<path d="M113492000 80955113
L115017000 80955113
" />
<path d="M117097000 80995113
L118626000 80995113
" />
<path d="M113488000 80995113
L115017000 80995113
" />
<path d="M113484000 81035113
L118630000 81035113
" />
<path d="M113481000 81075113
L118633000 81075113
" />
<path d="M113833000 79914113
L115017000 79914113
" />
<path d="M117097000 79954113
L118304000 79954113
" />
<path d="M113810000 79954113
L115017000 79954113
" />
<path d="M117097000 79994113
L118325000 79994113
" />
<path d="M113789000 79994113
L115017000 79994113
" />
<path d="M117097000 80034113
L118347000 80034113
" />
<path d="M113767000 80034113
L115017000 80034113
" />
<path d="M117097000 79234113
L117710000 79234113
" />
<path d="M114404000 79234113
L115017000 79234113
" />
<path d="M117097000 79274113
L117756000 79274113
" />
<path d="M114358000 79274113
L115017000 79274113
" />
<path d="M117097000 80074113
L118367000 80074113
" />
<path d="M113747000 80074113
L115017000 80074113
" />
<path d="M117097000 80114113
L118386000 80114113
" />
<path d="M113728000 80114113
L115017000 80114113
" />
<path d="M117097000 80154113
L118405000 80154113
" />
<path d="M113709000 80154113
L115017000 80154113
" />
<path d="M117097000 80194113
L118422000 80194113
" />
<path d="M114614000 79074113
L115017000 79074113
" />
<path d="M117097000 78994113
L117376000 78994113
" />
<path d="M117097000 79034113
L117440000 79034113
" />
<path d="M117097000 79074113
L117500000 79074113
" />
<path d="M118641000 119145000
L118641000 114425000
" />
<path d="M115431000 119145000
L114601000 119145000
" />
<path d="M112981000 119145000
L112451000 119145000
" />
<path d="M118641000 107555000
L108901000 107555000
" />
<path d="M108901000 110615000
L108901000 107555000
" />
<path d="M108891000 119145000
L108891000 114425000
" />
<path d="M110081000 119145000
L108901000 119145000
" />
<path d="M118641000 119145000
L117151000 119145000
" />
<path d="M118641000 110615000
L118641000 107555000
" />
<path d="M118567000 89279000
L118567000 86219000
" />
<path d="M118567000 86219000
L108827000 86219000
" />
<path d="M118567000 97809000
L118567000 93089000
" />
<path d="M110007000 97809000
L108827000 97809000
" />
<path d="M108817000 97809000
L108817000 93089000
" />
<path d="M115357000 97809000
L114527000 97809000
" />
<path d="M108827000 89279000
L108827000 86219000
" />
<path d="M118567000 97809000
L117077000 97809000
" />
<path d="M112907000 97809000
L112377000 97809000
" />
<path d="M113547000 155130000
L109397000 155130000
" />
<path d="M118397000 165630000
L114397000 165630000
" />
<path d="M112837000 152150000
L112837000 152950000
" />
<path d="M109397000 155130000
L109397000 165630000
" />
<path d="M118397000 155130000
L118397000 165630000
" />
<path d="M118397000 155130000
L114247000 155130000
" />
<path d="M112837000 152150000
L113697000 152150000
" />
<path d="M113397000 165630000
L109397000 165630000
" />
<circle cx="113897000.000000" cy="159630000.000000" r="1800000.000000" /> 
<path d="M164045276 101432500
L164554724 101432500
" />
<path d="M164045276 100387500
L164554724 100387500
" />
<path d="M134938748 144485000
L135461252 144485000
" />
<path d="M134938748 143015000
L135461252 143015000
" />
<path d="M135261252 129485000
L134738748 129485000
" />
<path d="M135261252 128015000
L134738748 128015000
" />
<path d="M109336000 103632000
L109336000 107082000
" />
<path d="M118206000 103632000
L118206000 105582000
" />
<path d="M109336000 103632000
L109336000 101682000
" />
<path d="M118206000 103632000
L118206000 101682000
" />
<path d="M193645276 92752500
L194154724 92752500
" />
<path d="M193645276 91707500
L194154724 91707500
" />
<path d="M181445276 95367500
L181954724 95367500
" />
<path d="M181445276 96412500
L181954724 96412500
" />
<path d="M164045276 97877500
L164554724 97877500
" />
<path d="M164045276 98922500
L164554724 98922500
" />
<path d="M177095276 96412500
L177604724 96412500
" />
<path d="M177095276 95367500
L177604724 95367500
" />
<path d="M168503733 97890000
L168796267 97890000
" />
<path d="M168503733 98910000
L168796267 98910000
" />
</g>
<g style="fill:#000000; fill-opacity:0.0; 
stroke:#000000; stroke-width:150000.000000; stroke-opacity:1; 
stroke-linecap:round; stroke-linejoin:round;">
<path d="M120297000 63450000
L120297000 76650000
" />
<path d="M107597000 76650000
L107597000 63450000
" />
<path d="M107597000 63450000
L120297000 63450000
" />
<path d="M120297000 76650000
L107597000 76650000
" />
<circle cx="113896584.000000" cy="70150000.000000" r="3000417.000000" /> 
</g>
<g style="fill:#000000; fill-opacity:0.0; 
stroke:#000000; stroke-width:120000.000000; stroke-opacity:1; 
stroke-linecap:round; stroke-linejoin:round;">
<path d="M164045276 95367500
L164554724 95367500
" />
<path d="M164045276 96412500
L164554724 96412500
" />
<path d="M168395276 96412500
L168904724 96412500
" />
<path d="M168395276 95367500
L168904724 95367500
" />
<path d="M185903733 96400000
L186196267 96400000
" />
<path d="M185903733 95380000
L186196267 95380000
" />
<path d="M172745276 95367500
L173254724 95367500
" />
<path d="M172745276 96412500
L173254724 96412500
" />
<path d="M112232000 148174000
L112232000 148330000
" />
<path d="M112232000 150490000
L112232000 150646000
" />
<path d="M112751038.954550 150490000.047155 A1500000.000000 1500000.000000 0.0 0 0 114833130.087115 150489837.090354" />
<path d="M114833130.087115 148330162.909646 A1500000.000000 1500000.000000 0.0 0 0 112751038.954550 148329999.952845" />
<path d="M112231999.957900 150645516.033343 A1990000.000000 1990000.000000 0.0 0 0 115464335.090817 150488608.058574" />
<path d="M115464335.090817 148331391.941426 A1990000.000000 1990000.000000 0.0 0 0 112231999.957900 148174483.966657" />
<g >
</g>
<g >
</g>
<g >
</g>
<g >
</g>
<g >
</g>
<g >
</g>
<g >
</g>
<g >
</g>
<g >
</g>
<g >
</g>
<g >
</g>
<g >
</g>
<g >
</g>
<g >
</g>
<g >
</g>
<g >
</g>
<g >
</g>
<g >
</g>
<g >
</g>
<g >
</g>
<g >
</g>
<g >
</g>
<g >
</g>
<g >
</g>
<g >
</g>
</g> 
</svg>
