%TF.GenerationSoftware,KiCad,Pcbnew,6.0.10+dfsg-1~bpo11+1*%
%TF.CreationDate,2023-02-04T10:57:42+08:00*%
%TF.ProjectId,MiniLFO,4d696e69-4c46-44f2-9e6b-696361645f70,rev?*%
%TF.SameCoordinates,Original*%
%TF.FileFunction,Drillmap*%
%TF.FilePolarity,Positive*%
%FSLAX45Y45*%
G04 Gerber Fmt 4.5, Leading zero omitted, Abs format (unit mm)*
G04 Created by KiCad (PCBNEW 6.0.10+dfsg-1~bpo11+1) date 2023-02-04 10:57:42*
%MOMM*%
%LPD*%
G01*
G04 APERTURE LIST*
%ADD10C,0.100000*%
%ADD11C,0.200000*%
G04 APERTURE END LIST*
D10*
X13000000Y-16600000D02*
X13000000Y-6300000D01*
X14000000Y-6300000D02*
X13995000Y-16600000D01*
X13000000Y-6300000D02*
X14000000Y-6300000D01*
X13995000Y-16600000D02*
X13000000Y-16600000D01*
D11*
X13252619Y-16915476D02*
X13252619Y-16715476D01*
X13300238Y-16715476D01*
X13328809Y-16725000D01*
X13347857Y-16744048D01*
X13357381Y-16763095D01*
X13366905Y-16801190D01*
X13366905Y-16829762D01*
X13357381Y-16867857D01*
X13347857Y-16886905D01*
X13328809Y-16905952D01*
X13300238Y-16915476D01*
X13252619Y-16915476D01*
X13452619Y-16915476D02*
X13452619Y-16782143D01*
X13452619Y-16820238D02*
X13462143Y-16801190D01*
X13471667Y-16791667D01*
X13490714Y-16782143D01*
X13509762Y-16782143D01*
X13576428Y-16915476D02*
X13576428Y-16782143D01*
X13576428Y-16715476D02*
X13566905Y-16725000D01*
X13576428Y-16734524D01*
X13585952Y-16725000D01*
X13576428Y-16715476D01*
X13576428Y-16734524D01*
X13700238Y-16915476D02*
X13681190Y-16905952D01*
X13671667Y-16886905D01*
X13671667Y-16715476D01*
X13805000Y-16915476D02*
X13785952Y-16905952D01*
X13776428Y-16886905D01*
X13776428Y-16715476D01*
X14033571Y-16915476D02*
X14033571Y-16715476D01*
X14100238Y-16858333D01*
X14166905Y-16715476D01*
X14166905Y-16915476D01*
X14347857Y-16915476D02*
X14347857Y-16810714D01*
X14338333Y-16791667D01*
X14319286Y-16782143D01*
X14281190Y-16782143D01*
X14262143Y-16791667D01*
X14347857Y-16905952D02*
X14328809Y-16915476D01*
X14281190Y-16915476D01*
X14262143Y-16905952D01*
X14252619Y-16886905D01*
X14252619Y-16867857D01*
X14262143Y-16848810D01*
X14281190Y-16839286D01*
X14328809Y-16839286D01*
X14347857Y-16829762D01*
X14443095Y-16782143D02*
X14443095Y-16982143D01*
X14443095Y-16791667D02*
X14462143Y-16782143D01*
X14500238Y-16782143D01*
X14519286Y-16791667D01*
X14528809Y-16801190D01*
X14538333Y-16820238D01*
X14538333Y-16877381D01*
X14528809Y-16896429D01*
X14519286Y-16905952D01*
X14500238Y-16915476D01*
X14462143Y-16915476D01*
X14443095Y-16905952D01*
X14624048Y-16896429D02*
X14633571Y-16905952D01*
X14624048Y-16915476D01*
X14614524Y-16905952D01*
X14624048Y-16896429D01*
X14624048Y-16915476D01*
X14624048Y-16791667D02*
X14633571Y-16801190D01*
X14624048Y-16810714D01*
X14614524Y-16801190D01*
X14624048Y-16791667D01*
X14624048Y-16810714D01*
M02*
