%TF.GenerationSoftware,KiCad,Pcbnew,6.0.11+dfsg-1~bpo11+1*%
%TF.CreationDate,2023-03-01T11:09:31+08:00*%
%TF.ProjectId,MiniLFO v1.0 - Main,4d696e69-4c46-44f2-9076-312e30202d20,rev?*%
%TF.SameCoordinates,Original*%
%TF.FileFunction,Drillmap*%
%TF.FilePolarity,Positive*%
%FSLAX45Y45*%
G04 Gerber Fmt 4.5, Leading zero omitted, Abs format (unit mm)*
G04 Created by KiCad (PCBNEW 6.0.11+dfsg-1~bpo11+1) date 2023-03-01 11:09:31*
%MOMM*%
%LPD*%
G01*
G04 APERTURE LIST*
%ADD10C,0.100000*%
%ADD11C,0.200000*%
%ADD12C,0.040000*%
%ADD13C,0.080000*%
%ADD14C,0.090000*%
%ADD15C,0.110000*%
%ADD16C,0.122000*%
%ADD17C,0.142000*%
%ADD18C,0.143000*%
G04 APERTURE END LIST*
D10*
X16022000Y-16309000D02*
X16022000Y-6009000D01*
X17022000Y-6009000D02*
X17017000Y-16309000D01*
X16022000Y-6009000D02*
X17022000Y-6009000D01*
X17017000Y-16309000D02*
X16022000Y-16309000D01*
D11*
D12*
X16112000Y-11672000D02*
X16152000Y-11712000D01*
X16152000Y-11672000D02*
X16112000Y-11712000D01*
X16149000Y-12238000D02*
X16189000Y-12278000D01*
X16189000Y-12238000D02*
X16149000Y-12278000D01*
X16150000Y-8623000D02*
X16190000Y-8663000D01*
X16190000Y-8623000D02*
X16150000Y-8663000D01*
X16153000Y-8767000D02*
X16193000Y-8807000D01*
X16193000Y-8767000D02*
X16153000Y-8807000D01*
X16155000Y-12386000D02*
X16195000Y-12426000D01*
X16195000Y-12386000D02*
X16155000Y-12426000D01*
X16155000Y-12560000D02*
X16195000Y-12600000D01*
X16195000Y-12560000D02*
X16155000Y-12600000D01*
X16160000Y-13610000D02*
X16200000Y-13650000D01*
X16200000Y-13610000D02*
X16160000Y-13650000D01*
X16161000Y-15096000D02*
X16201000Y-15136000D01*
X16201000Y-15096000D02*
X16161000Y-15136000D01*
X16166000Y-13088000D02*
X16206000Y-13128000D01*
X16206000Y-13088000D02*
X16166000Y-13128000D01*
X16169000Y-13349000D02*
X16209000Y-13389000D01*
X16209000Y-13349000D02*
X16169000Y-13389000D01*
X16170000Y-13218000D02*
X16210000Y-13258000D01*
X16210000Y-13218000D02*
X16170000Y-13258000D01*
X16175000Y-9539000D02*
X16215000Y-9579000D01*
X16215000Y-9539000D02*
X16175000Y-9579000D01*
X16181000Y-13472000D02*
X16221000Y-13512000D01*
X16221000Y-13472000D02*
X16181000Y-13512000D01*
X16184000Y-12947000D02*
X16224000Y-12987000D01*
X16224000Y-12947000D02*
X16184000Y-12987000D01*
X16185000Y-9344000D02*
X16225000Y-9384000D01*
X16225000Y-9344000D02*
X16185000Y-9384000D01*
X16190000Y-13716000D02*
X16230000Y-13756000D01*
X16230000Y-13716000D02*
X16190000Y-13756000D01*
X16200000Y-15236000D02*
X16240000Y-15276000D01*
X16240000Y-15236000D02*
X16200000Y-15276000D01*
X16208000Y-15483000D02*
X16248000Y-15523000D01*
X16248000Y-15483000D02*
X16208000Y-15523000D01*
X16232000Y-14114000D02*
X16272000Y-14154000D01*
X16272000Y-14114000D02*
X16232000Y-14154000D01*
X16236000Y-11621000D02*
X16276000Y-11661000D01*
X16276000Y-11621000D02*
X16236000Y-11661000D01*
X16239000Y-14952000D02*
X16279000Y-14992000D01*
X16279000Y-14952000D02*
X16239000Y-14992000D01*
X16254000Y-14324950D02*
X16294000Y-14364950D01*
X16294000Y-14324950D02*
X16254000Y-14364950D01*
X16266000Y-9025000D02*
X16306000Y-9065000D01*
X16306000Y-9025000D02*
X16266000Y-9065000D01*
X16269150Y-10922000D02*
X16309150Y-10962000D01*
X16309150Y-10922000D02*
X16269150Y-10962000D01*
X16270000Y-9243000D02*
X16310000Y-9283000D01*
X16310000Y-9243000D02*
X16270000Y-9283000D01*
X16271000Y-11405000D02*
X16311000Y-11445000D01*
X16311000Y-11405000D02*
X16271000Y-11445000D01*
X16281000Y-8738000D02*
X16321000Y-8778000D01*
X16321000Y-8738000D02*
X16281000Y-8778000D01*
X16306000Y-9472000D02*
X16346000Y-9512000D01*
X16346000Y-9472000D02*
X16306000Y-9512000D01*
X16339000Y-10242000D02*
X16379000Y-10282000D01*
X16379000Y-10242000D02*
X16339000Y-10282000D01*
X16373000Y-14247000D02*
X16413000Y-14287000D01*
X16413000Y-14247000D02*
X16373000Y-14287000D01*
X16382000Y-11511000D02*
X16422000Y-11551000D01*
X16422000Y-11511000D02*
X16382000Y-11551000D01*
X16397042Y-10327611D02*
X16437042Y-10367611D01*
X16437042Y-10327611D02*
X16397042Y-10367611D01*
X16401000Y-15675000D02*
X16441000Y-15715000D01*
X16441000Y-15675000D02*
X16401000Y-15715000D01*
X16426678Y-14455678D02*
X16466678Y-14495678D01*
X16466678Y-14455678D02*
X16426678Y-14495678D01*
X16428000Y-12340000D02*
X16468000Y-12380000D01*
X16468000Y-12340000D02*
X16428000Y-12380000D01*
X16433050Y-9569000D02*
X16473050Y-9609000D01*
X16473050Y-9569000D02*
X16433050Y-9609000D01*
X16489000Y-12236000D02*
X16529000Y-12276000D01*
X16529000Y-12236000D02*
X16489000Y-12276000D01*
X16493000Y-15651000D02*
X16533000Y-15691000D01*
X16533000Y-15651000D02*
X16493000Y-15691000D01*
X16496000Y-10483000D02*
X16536000Y-10523000D01*
X16536000Y-10483000D02*
X16496000Y-10523000D01*
X16535000Y-12595000D02*
X16575000Y-12635000D01*
X16575000Y-12595000D02*
X16535000Y-12635000D01*
X16559000Y-14427000D02*
X16599000Y-14467000D01*
X16599000Y-14427000D02*
X16559000Y-14467000D01*
X16588000Y-14109000D02*
X16628000Y-14149000D01*
X16628000Y-14109000D02*
X16588000Y-14149000D01*
X16588000Y-15846000D02*
X16628000Y-15886000D01*
X16628000Y-15846000D02*
X16588000Y-15886000D01*
X16625000Y-8729000D02*
X16665000Y-8769000D01*
X16665000Y-8729000D02*
X16625000Y-8769000D01*
X16630000Y-8972000D02*
X16670000Y-9012000D01*
X16670000Y-8972000D02*
X16630000Y-9012000D01*
X16636000Y-10907000D02*
X16676000Y-10947000D01*
X16676000Y-10907000D02*
X16636000Y-10947000D01*
X16637903Y-14011947D02*
X16677903Y-14051947D01*
X16677903Y-14011947D02*
X16637903Y-14051947D01*
X16685000Y-14315000D02*
X16725000Y-14355000D01*
X16725000Y-14315000D02*
X16685000Y-14355000D01*
X16688000Y-15064000D02*
X16728000Y-15104000D01*
X16728000Y-15064000D02*
X16688000Y-15104000D01*
X16689000Y-8483000D02*
X16729000Y-8523000D01*
X16729000Y-8483000D02*
X16689000Y-8523000D01*
X16693000Y-9183000D02*
X16733000Y-9223000D01*
X16733000Y-9183000D02*
X16693000Y-9223000D01*
X16708000Y-12529000D02*
X16748000Y-12569000D01*
X16748000Y-12529000D02*
X16708000Y-12569000D01*
X16710437Y-12417487D02*
X16750437Y-12457487D01*
X16750437Y-12417487D02*
X16710437Y-12457487D01*
X16725000Y-12165000D02*
X16765000Y-12205000D01*
X16765000Y-12165000D02*
X16725000Y-12205000D01*
X16740000Y-15727000D02*
X16780000Y-15767000D01*
X16780000Y-15727000D02*
X16740000Y-15767000D01*
X16760000Y-14021000D02*
X16800000Y-14061000D01*
X16800000Y-14021000D02*
X16760000Y-14061000D01*
X16769000Y-13479000D02*
X16809000Y-13519000D01*
X16809000Y-13479000D02*
X16769000Y-13519000D01*
X16774000Y-13062000D02*
X16814000Y-13102000D01*
X16814000Y-13062000D02*
X16774000Y-13102000D01*
X16779000Y-13365000D02*
X16819000Y-13405000D01*
X16819000Y-13365000D02*
X16779000Y-13405000D01*
X16779000Y-16054000D02*
X16819000Y-16094000D01*
X16819000Y-16054000D02*
X16779000Y-16094000D01*
X16787000Y-8798000D02*
X16827000Y-8838000D01*
X16827000Y-8798000D02*
X16787000Y-8838000D01*
X16788000Y-12864000D02*
X16828000Y-12904000D01*
X16828000Y-12864000D02*
X16788000Y-12904000D01*
X16788000Y-15570000D02*
X16828000Y-15610000D01*
X16828000Y-15570000D02*
X16788000Y-15610000D01*
X16791000Y-13201000D02*
X16831000Y-13241000D01*
X16831000Y-13201000D02*
X16791000Y-13241000D01*
X16815000Y-15221000D02*
X16855000Y-15261000D01*
X16855000Y-15221000D02*
X16815000Y-15261000D01*
X16818000Y-14222000D02*
X16858000Y-14262000D01*
X16858000Y-14222000D02*
X16818000Y-14262000D01*
X16824533Y-12303391D02*
X16864533Y-12343391D01*
X16864533Y-12303391D02*
X16824533Y-12343391D01*
X16828000Y-8477000D02*
X16868000Y-8517000D01*
X16868000Y-8477000D02*
X16828000Y-8517000D01*
X16832000Y-14887000D02*
X16872000Y-14927000D01*
X16872000Y-14887000D02*
X16832000Y-14927000D01*
X16832000Y-15411000D02*
X16872000Y-15451000D01*
X16872000Y-15411000D02*
X16832000Y-15451000D01*
X16852000Y-14112000D02*
X16892000Y-14152000D01*
X16892000Y-14112000D02*
X16852000Y-14152000D01*
X16857000Y-15815000D02*
X16897000Y-15855000D01*
X16897000Y-15815000D02*
X16857000Y-15855000D01*
X16861000Y-8664000D02*
X16901000Y-8704000D01*
X16901000Y-8664000D02*
X16861000Y-8704000D01*
X16862000Y-13826000D02*
X16902000Y-13866000D01*
X16902000Y-13826000D02*
X16862000Y-13866000D01*
X16869000Y-9636000D02*
X16909000Y-9676000D01*
X16909000Y-9636000D02*
X16869000Y-9676000D01*
X16879000Y-10080000D02*
X16919000Y-10120000D01*
X16919000Y-10080000D02*
X16879000Y-10120000D01*
X16882000Y-10690000D02*
X16922000Y-10730000D01*
X16922000Y-10690000D02*
X16882000Y-10730000D01*
X16896000Y-9906000D02*
X16936000Y-9946000D01*
X16936000Y-9906000D02*
X16896000Y-9946000D01*
X16909000Y-10839000D02*
X16949000Y-10879000D01*
X16949000Y-10839000D02*
X16909000Y-10879000D01*
X16913080Y-11386920D02*
X16953080Y-11426920D01*
X16953080Y-11386920D02*
X16913080Y-11426920D01*
D13*
X16267000Y-7914000D02*
G75*
G03*
X16267000Y-7914000I-40000J0D01*
G01*
X16267000Y-8414000D02*
G75*
G03*
X16267000Y-8414000I-40000J0D01*
G01*
X16767300Y-8049311D02*
G75*
G03*
X16767300Y-8049311I-40000J0D01*
G01*
X16767300Y-8299311D02*
G75*
G03*
X16767300Y-8299311I-40000J0D01*
G01*
D14*
X16277300Y-6589000D02*
X16277300Y-6679000D01*
X16232300Y-6634000D02*
X16322300Y-6634000D01*
D11*
X16212300Y-6679000D02*
X16342300Y-6679000D01*
X16212300Y-6589000D02*
X16342300Y-6589000D01*
X16342300Y-6679000D02*
G75*
G03*
X16342300Y-6589000I0J45000D01*
G01*
X16212300Y-6589000D02*
G75*
G03*
X16212300Y-6679000I0J-45000D01*
G01*
D14*
X16277300Y-7059000D02*
X16277300Y-7149000D01*
X16232300Y-7104000D02*
X16322300Y-7104000D01*
D11*
X16212300Y-7149000D02*
X16342300Y-7149000D01*
X16212300Y-7059000D02*
X16342300Y-7059000D01*
X16342300Y-7149000D02*
G75*
G03*
X16342300Y-7059000I0J45000D01*
G01*
X16212300Y-7059000D02*
G75*
G03*
X16212300Y-7149000I0J-45000D01*
G01*
D14*
X16277300Y-7529000D02*
X16277300Y-7619000D01*
X16232300Y-7574000D02*
X16322300Y-7574000D01*
D11*
X16212300Y-7619000D02*
X16342300Y-7619000D01*
X16212300Y-7529000D02*
X16342300Y-7529000D01*
X16342300Y-7619000D02*
G75*
G03*
X16342300Y-7529000I0J45000D01*
G01*
X16212300Y-7529000D02*
G75*
G03*
X16212300Y-7619000I0J-45000D01*
G01*
D14*
X16394300Y-14594000D02*
X16394300Y-14684000D01*
X16349300Y-14639000D02*
X16439300Y-14639000D01*
X16648300Y-14594000D02*
X16648300Y-14684000D01*
X16603300Y-14639000D02*
X16693300Y-14639000D01*
X16757300Y-6589000D02*
X16757300Y-6679000D01*
X16712300Y-6634000D02*
X16802300Y-6634000D01*
D11*
X16692300Y-6679000D02*
X16822300Y-6679000D01*
X16692300Y-6589000D02*
X16822300Y-6589000D01*
X16822300Y-6679000D02*
G75*
G03*
X16822300Y-6589000I0J45000D01*
G01*
X16692300Y-6589000D02*
G75*
G03*
X16692300Y-6679000I0J-45000D01*
G01*
D14*
X16757300Y-7059000D02*
X16757300Y-7149000D01*
X16712300Y-7104000D02*
X16802300Y-7104000D01*
D11*
X16692300Y-7149000D02*
X16822300Y-7149000D01*
X16692300Y-7059000D02*
X16822300Y-7059000D01*
X16822300Y-7149000D02*
G75*
G03*
X16822300Y-7059000I0J45000D01*
G01*
X16692300Y-7059000D02*
G75*
G03*
X16692300Y-7149000I0J-45000D01*
G01*
D14*
X16757300Y-7529000D02*
X16757300Y-7619000D01*
X16712300Y-7574000D02*
X16802300Y-7574000D01*
D11*
X16692300Y-7619000D02*
X16822300Y-7619000D01*
X16692300Y-7529000D02*
X16822300Y-7529000D01*
X16822300Y-7619000D02*
G75*
G03*
X16822300Y-7529000I0J45000D01*
G01*
X16692300Y-7529000D02*
G75*
G03*
X16692300Y-7619000I0J-45000D01*
G01*
D10*
X16305356Y-9860356D02*
X16305356Y-9789644D01*
X16234644Y-9789644D01*
X16234644Y-9860356D01*
X16305356Y-9860356D01*
X16305356Y-11885356D02*
X16305356Y-11814644D01*
X16234644Y-11814644D01*
X16234644Y-11885356D01*
X16305356Y-11885356D01*
X16428356Y-12852356D02*
X16428356Y-12781644D01*
X16357644Y-12781644D01*
X16357644Y-12852356D01*
X16428356Y-12852356D01*
X16428356Y-13106356D02*
X16428356Y-13035644D01*
X16357644Y-13035644D01*
X16357644Y-13106356D01*
X16428356Y-13106356D01*
X16428356Y-13360356D02*
X16428356Y-13289644D01*
X16357644Y-13289644D01*
X16357644Y-13360356D01*
X16428356Y-13360356D01*
X16428356Y-13614356D02*
X16428356Y-13543644D01*
X16357644Y-13543644D01*
X16357644Y-13614356D01*
X16428356Y-13614356D01*
X16428356Y-13868356D02*
X16428356Y-13797644D01*
X16357644Y-13797644D01*
X16357644Y-13868356D01*
X16428356Y-13868356D01*
X16555356Y-9860356D02*
X16555356Y-9789644D01*
X16484644Y-9789644D01*
X16484644Y-9860356D01*
X16555356Y-9860356D01*
X16555356Y-11885356D02*
X16555356Y-11814644D01*
X16484644Y-11814644D01*
X16484644Y-11885356D01*
X16555356Y-11885356D01*
X16682356Y-12852356D02*
X16682356Y-12781644D01*
X16611644Y-12781644D01*
X16611644Y-12852356D01*
X16682356Y-12852356D01*
X16682356Y-13106356D02*
X16682356Y-13035644D01*
X16611644Y-13035644D01*
X16611644Y-13106356D01*
X16682356Y-13106356D01*
X16682356Y-13360356D02*
X16682356Y-13289644D01*
X16611644Y-13289644D01*
X16611644Y-13360356D01*
X16682356Y-13360356D01*
X16682356Y-13614356D02*
X16682356Y-13543644D01*
X16611644Y-13543644D01*
X16611644Y-13614356D01*
X16682356Y-13614356D01*
X16682356Y-13868356D02*
X16682356Y-13797644D01*
X16611644Y-13797644D01*
X16611644Y-13868356D01*
X16682356Y-13868356D01*
X16805356Y-9860356D02*
X16805356Y-9789644D01*
X16734644Y-9789644D01*
X16734644Y-9860356D01*
X16805356Y-9860356D01*
X16805356Y-11885356D02*
X16805356Y-11814644D01*
X16734644Y-11814644D01*
X16734644Y-11885356D01*
X16805356Y-11885356D01*
D15*
X16040000Y-9130000D02*
X16095000Y-9075000D01*
X16040000Y-9020000D01*
X15985000Y-9075000D01*
X16040000Y-9130000D01*
D11*
X16095000Y-9135000D02*
X16095000Y-9015000D01*
X15985000Y-9135000D02*
X15985000Y-9015000D01*
X16095000Y-9015000D02*
G75*
G03*
X15985000Y-9015000I-55000J0D01*
G01*
X15985000Y-9135000D02*
G75*
G03*
X16095000Y-9135000I55000J0D01*
G01*
D15*
X16040000Y-11155000D02*
X16095000Y-11100000D01*
X16040000Y-11045000D01*
X15985000Y-11100000D01*
X16040000Y-11155000D01*
D11*
X16095000Y-11160000D02*
X16095000Y-11040000D01*
X15985000Y-11160000D02*
X15985000Y-11040000D01*
X16095000Y-11040000D02*
G75*
G03*
X15985000Y-11040000I-55000J0D01*
G01*
X15985000Y-11160000D02*
G75*
G03*
X16095000Y-11160000I55000J0D01*
G01*
D15*
X17000000Y-9130000D02*
X17055000Y-9075000D01*
X17000000Y-9020000D01*
X16945000Y-9075000D01*
X17000000Y-9130000D01*
D11*
X17055000Y-9135000D02*
X17055000Y-9015000D01*
X16945000Y-9135000D02*
X16945000Y-9015000D01*
X17055000Y-9015000D02*
G75*
G03*
X16945000Y-9015000I-55000J0D01*
G01*
X16945000Y-9135000D02*
G75*
G03*
X17055000Y-9135000I55000J0D01*
G01*
D15*
X17000000Y-11155000D02*
X17055000Y-11100000D01*
X17000000Y-11045000D01*
X16945000Y-11100000D01*
X17000000Y-11155000D01*
D11*
X17055000Y-11160000D02*
X17055000Y-11040000D01*
X16945000Y-11160000D02*
X16945000Y-11040000D01*
X17055000Y-11040000D02*
G75*
G03*
X16945000Y-11040000I-55000J0D01*
G01*
X16945000Y-11160000D02*
G75*
G03*
X17055000Y-11160000I55000J0D01*
G01*
D16*
X16461000Y-14958000D02*
X16583000Y-15080000D01*
X16583000Y-14958000D02*
X16461000Y-15080000D01*
X16583000Y-15019000D02*
G75*
G03*
X16583000Y-15019000I-61000J0D01*
G01*
D17*
X16451000Y-15258000D02*
X16593000Y-15400000D01*
X16593000Y-15258000D02*
X16451000Y-15400000D01*
X16522000Y-15258000D02*
X16522000Y-15400000D01*
X16451000Y-15329000D02*
X16593000Y-15329000D01*
D18*
X16450500Y-16087500D02*
X16593500Y-16230500D01*
X16593500Y-16087500D02*
X16450500Y-16230500D01*
X16572559Y-16209559D02*
X16572559Y-16108441D01*
X16471441Y-16108441D01*
X16471441Y-16209559D01*
X16572559Y-16209559D01*
D11*
X16274619Y-16624476D02*
X16274619Y-16424476D01*
X16322238Y-16424476D01*
X16350809Y-16434000D01*
X16369857Y-16453048D01*
X16379381Y-16472095D01*
X16388905Y-16510190D01*
X16388905Y-16538762D01*
X16379381Y-16576857D01*
X16369857Y-16595905D01*
X16350809Y-16614952D01*
X16322238Y-16624476D01*
X16274619Y-16624476D01*
X16474619Y-16624476D02*
X16474619Y-16491143D01*
X16474619Y-16529238D02*
X16484143Y-16510190D01*
X16493667Y-16500667D01*
X16512714Y-16491143D01*
X16531762Y-16491143D01*
X16598428Y-16624476D02*
X16598428Y-16491143D01*
X16598428Y-16424476D02*
X16588905Y-16434000D01*
X16598428Y-16443524D01*
X16607952Y-16434000D01*
X16598428Y-16424476D01*
X16598428Y-16443524D01*
X16722238Y-16624476D02*
X16703190Y-16614952D01*
X16693667Y-16595905D01*
X16693667Y-16424476D01*
X16827000Y-16624476D02*
X16807952Y-16614952D01*
X16798429Y-16595905D01*
X16798429Y-16424476D01*
X17055571Y-16624476D02*
X17055571Y-16424476D01*
X17122238Y-16567333D01*
X17188905Y-16424476D01*
X17188905Y-16624476D01*
X17369857Y-16624476D02*
X17369857Y-16519714D01*
X17360333Y-16500667D01*
X17341286Y-16491143D01*
X17303190Y-16491143D01*
X17284143Y-16500667D01*
X17369857Y-16614952D02*
X17350810Y-16624476D01*
X17303190Y-16624476D01*
X17284143Y-16614952D01*
X17274619Y-16595905D01*
X17274619Y-16576857D01*
X17284143Y-16557809D01*
X17303190Y-16548286D01*
X17350810Y-16548286D01*
X17369857Y-16538762D01*
X17465095Y-16491143D02*
X17465095Y-16691143D01*
X17465095Y-16500667D02*
X17484143Y-16491143D01*
X17522238Y-16491143D01*
X17541286Y-16500667D01*
X17550810Y-16510190D01*
X17560333Y-16529238D01*
X17560333Y-16586381D01*
X17550810Y-16605428D01*
X17541286Y-16614952D01*
X17522238Y-16624476D01*
X17484143Y-16624476D01*
X17465095Y-16614952D01*
X17646048Y-16605428D02*
X17655571Y-16614952D01*
X17646048Y-16624476D01*
X17636524Y-16614952D01*
X17646048Y-16605428D01*
X17646048Y-16624476D01*
X17646048Y-16500667D02*
X17655571Y-16510190D01*
X17646048Y-16519714D01*
X17636524Y-16510190D01*
X17646048Y-16500667D01*
X17646048Y-16519714D01*
D12*
X15977000Y-16934000D02*
X16017000Y-16974000D01*
X16017000Y-16934000D02*
X15977000Y-16974000D01*
D11*
X16312714Y-16844476D02*
X16331762Y-16844476D01*
X16350809Y-16854000D01*
X16360333Y-16863524D01*
X16369857Y-16882571D01*
X16379381Y-16920667D01*
X16379381Y-16968286D01*
X16369857Y-17006381D01*
X16360333Y-17025429D01*
X16350809Y-17034952D01*
X16331762Y-17044476D01*
X16312714Y-17044476D01*
X16293667Y-17034952D01*
X16284143Y-17025429D01*
X16274619Y-17006381D01*
X16265095Y-16968286D01*
X16265095Y-16920667D01*
X16274619Y-16882571D01*
X16284143Y-16863524D01*
X16293667Y-16854000D01*
X16312714Y-16844476D01*
X16465095Y-17025429D02*
X16474619Y-17034952D01*
X16465095Y-17044476D01*
X16455571Y-17034952D01*
X16465095Y-17025429D01*
X16465095Y-17044476D01*
X16646048Y-16911143D02*
X16646048Y-17044476D01*
X16598428Y-16834952D02*
X16550809Y-16977810D01*
X16674619Y-16977810D01*
X16788905Y-16844476D02*
X16807952Y-16844476D01*
X16827000Y-16854000D01*
X16836524Y-16863524D01*
X16846048Y-16882571D01*
X16855571Y-16920667D01*
X16855571Y-16968286D01*
X16846048Y-17006381D01*
X16836524Y-17025429D01*
X16827000Y-17034952D01*
X16807952Y-17044476D01*
X16788905Y-17044476D01*
X16769857Y-17034952D01*
X16760333Y-17025429D01*
X16750809Y-17006381D01*
X16741286Y-16968286D01*
X16741286Y-16920667D01*
X16750809Y-16882571D01*
X16760333Y-16863524D01*
X16769857Y-16854000D01*
X16788905Y-16844476D01*
X16979381Y-16844476D02*
X16998429Y-16844476D01*
X17017476Y-16854000D01*
X17027000Y-16863524D01*
X17036524Y-16882571D01*
X17046048Y-16920667D01*
X17046048Y-16968286D01*
X17036524Y-17006381D01*
X17027000Y-17025429D01*
X17017476Y-17034952D01*
X16998429Y-17044476D01*
X16979381Y-17044476D01*
X16960333Y-17034952D01*
X16950810Y-17025429D01*
X16941286Y-17006381D01*
X16931762Y-16968286D01*
X16931762Y-16920667D01*
X16941286Y-16882571D01*
X16950810Y-16863524D01*
X16960333Y-16854000D01*
X16979381Y-16844476D01*
X17131762Y-17044476D02*
X17131762Y-16911143D01*
X17131762Y-16930190D02*
X17141286Y-16920667D01*
X17160333Y-16911143D01*
X17188905Y-16911143D01*
X17207952Y-16920667D01*
X17217476Y-16939714D01*
X17217476Y-17044476D01*
X17217476Y-16939714D02*
X17227000Y-16920667D01*
X17246048Y-16911143D01*
X17274619Y-16911143D01*
X17293667Y-16920667D01*
X17303190Y-16939714D01*
X17303190Y-17044476D01*
X17398429Y-17044476D02*
X17398429Y-16911143D01*
X17398429Y-16930190D02*
X17407952Y-16920667D01*
X17427000Y-16911143D01*
X17455571Y-16911143D01*
X17474619Y-16920667D01*
X17484143Y-16939714D01*
X17484143Y-17044476D01*
X17484143Y-16939714D02*
X17493667Y-16920667D01*
X17512714Y-16911143D01*
X17541286Y-16911143D01*
X17560333Y-16920667D01*
X17569857Y-16939714D01*
X17569857Y-17044476D01*
X17960333Y-16834952D02*
X17788905Y-17092095D01*
X18217476Y-16844476D02*
X18236524Y-16844476D01*
X18255571Y-16854000D01*
X18265095Y-16863524D01*
X18274619Y-16882571D01*
X18284143Y-16920667D01*
X18284143Y-16968286D01*
X18274619Y-17006381D01*
X18265095Y-17025429D01*
X18255571Y-17034952D01*
X18236524Y-17044476D01*
X18217476Y-17044476D01*
X18198429Y-17034952D01*
X18188905Y-17025429D01*
X18179381Y-17006381D01*
X18169857Y-16968286D01*
X18169857Y-16920667D01*
X18179381Y-16882571D01*
X18188905Y-16863524D01*
X18198429Y-16854000D01*
X18217476Y-16844476D01*
X18369857Y-17025429D02*
X18379381Y-17034952D01*
X18369857Y-17044476D01*
X18360333Y-17034952D01*
X18369857Y-17025429D01*
X18369857Y-17044476D01*
X18503190Y-16844476D02*
X18522238Y-16844476D01*
X18541286Y-16854000D01*
X18550810Y-16863524D01*
X18560333Y-16882571D01*
X18569857Y-16920667D01*
X18569857Y-16968286D01*
X18560333Y-17006381D01*
X18550810Y-17025429D01*
X18541286Y-17034952D01*
X18522238Y-17044476D01*
X18503190Y-17044476D01*
X18484143Y-17034952D01*
X18474619Y-17025429D01*
X18465095Y-17006381D01*
X18455571Y-16968286D01*
X18455571Y-16920667D01*
X18465095Y-16882571D01*
X18474619Y-16863524D01*
X18484143Y-16854000D01*
X18503190Y-16844476D01*
X18760333Y-17044476D02*
X18646048Y-17044476D01*
X18703190Y-17044476D02*
X18703190Y-16844476D01*
X18684143Y-16873048D01*
X18665095Y-16892095D01*
X18646048Y-16901619D01*
X18941286Y-16844476D02*
X18846048Y-16844476D01*
X18836524Y-16939714D01*
X18846048Y-16930190D01*
X18865095Y-16920667D01*
X18912714Y-16920667D01*
X18931762Y-16930190D01*
X18941286Y-16939714D01*
X18950810Y-16958762D01*
X18950810Y-17006381D01*
X18941286Y-17025429D01*
X18931762Y-17034952D01*
X18912714Y-17044476D01*
X18865095Y-17044476D01*
X18846048Y-17034952D01*
X18836524Y-17025429D01*
X19017476Y-16844476D02*
X19150810Y-16844476D01*
X19065095Y-17044476D01*
X19217476Y-16844476D02*
X19217476Y-16882571D01*
X19293667Y-16844476D02*
X19293667Y-16882571D01*
X19588905Y-17120667D02*
X19579381Y-17111143D01*
X19560333Y-17082571D01*
X19550810Y-17063524D01*
X19541286Y-17034952D01*
X19531762Y-16987333D01*
X19531762Y-16949238D01*
X19541286Y-16901619D01*
X19550810Y-16873048D01*
X19560333Y-16854000D01*
X19579381Y-16825429D01*
X19588905Y-16815905D01*
X19693667Y-16930190D02*
X19674619Y-16920667D01*
X19665095Y-16911143D01*
X19655571Y-16892095D01*
X19655571Y-16882571D01*
X19665095Y-16863524D01*
X19674619Y-16854000D01*
X19693667Y-16844476D01*
X19731762Y-16844476D01*
X19750810Y-16854000D01*
X19760333Y-16863524D01*
X19769857Y-16882571D01*
X19769857Y-16892095D01*
X19760333Y-16911143D01*
X19750810Y-16920667D01*
X19731762Y-16930190D01*
X19693667Y-16930190D01*
X19674619Y-16939714D01*
X19665095Y-16949238D01*
X19655571Y-16968286D01*
X19655571Y-17006381D01*
X19665095Y-17025429D01*
X19674619Y-17034952D01*
X19693667Y-17044476D01*
X19731762Y-17044476D01*
X19750810Y-17034952D01*
X19760333Y-17025429D01*
X19769857Y-17006381D01*
X19769857Y-16968286D01*
X19760333Y-16949238D01*
X19750810Y-16939714D01*
X19731762Y-16930190D01*
X19893667Y-16844476D02*
X19912714Y-16844476D01*
X19931762Y-16854000D01*
X19941286Y-16863524D01*
X19950810Y-16882571D01*
X19960333Y-16920667D01*
X19960333Y-16968286D01*
X19950810Y-17006381D01*
X19941286Y-17025429D01*
X19931762Y-17034952D01*
X19912714Y-17044476D01*
X19893667Y-17044476D01*
X19874619Y-17034952D01*
X19865095Y-17025429D01*
X19855571Y-17006381D01*
X19846048Y-16968286D01*
X19846048Y-16920667D01*
X19855571Y-16882571D01*
X19865095Y-16863524D01*
X19874619Y-16854000D01*
X19893667Y-16844476D01*
X20198429Y-17044476D02*
X20198429Y-16844476D01*
X20284143Y-17044476D02*
X20284143Y-16939714D01*
X20274619Y-16920667D01*
X20255571Y-16911143D01*
X20227000Y-16911143D01*
X20207952Y-16920667D01*
X20198429Y-16930190D01*
X20407952Y-17044476D02*
X20388905Y-17034952D01*
X20379381Y-17025429D01*
X20369857Y-17006381D01*
X20369857Y-16949238D01*
X20379381Y-16930190D01*
X20388905Y-16920667D01*
X20407952Y-16911143D01*
X20436524Y-16911143D01*
X20455571Y-16920667D01*
X20465095Y-16930190D01*
X20474619Y-16949238D01*
X20474619Y-17006381D01*
X20465095Y-17025429D01*
X20455571Y-17034952D01*
X20436524Y-17044476D01*
X20407952Y-17044476D01*
X20588905Y-17044476D02*
X20569857Y-17034952D01*
X20560333Y-17015905D01*
X20560333Y-16844476D01*
X20741286Y-17034952D02*
X20722238Y-17044476D01*
X20684143Y-17044476D01*
X20665095Y-17034952D01*
X20655571Y-17015905D01*
X20655571Y-16939714D01*
X20665095Y-16920667D01*
X20684143Y-16911143D01*
X20722238Y-16911143D01*
X20741286Y-16920667D01*
X20750810Y-16939714D01*
X20750810Y-16958762D01*
X20655571Y-16977810D01*
X20827000Y-17034952D02*
X20846048Y-17044476D01*
X20884143Y-17044476D01*
X20903190Y-17034952D01*
X20912714Y-17015905D01*
X20912714Y-17006381D01*
X20903190Y-16987333D01*
X20884143Y-16977810D01*
X20855571Y-16977810D01*
X20836524Y-16968286D01*
X20827000Y-16949238D01*
X20827000Y-16939714D01*
X20836524Y-16920667D01*
X20855571Y-16911143D01*
X20884143Y-16911143D01*
X20903190Y-16920667D01*
X20979381Y-17120667D02*
X20988905Y-17111143D01*
X21007952Y-17082571D01*
X21017476Y-17063524D01*
X21027000Y-17034952D01*
X21036524Y-16987333D01*
X21036524Y-16949238D01*
X21027000Y-16901619D01*
X21017476Y-16873048D01*
X21007952Y-16854000D01*
X20988905Y-16825429D01*
X20979381Y-16815905D01*
D13*
X16017000Y-17218000D02*
G75*
G03*
X16017000Y-17218000I-40000J0D01*
G01*
D11*
X16312714Y-17108476D02*
X16331762Y-17108476D01*
X16350809Y-17118000D01*
X16360333Y-17127524D01*
X16369857Y-17146571D01*
X16379381Y-17184667D01*
X16379381Y-17232286D01*
X16369857Y-17270381D01*
X16360333Y-17289429D01*
X16350809Y-17298952D01*
X16331762Y-17308476D01*
X16312714Y-17308476D01*
X16293667Y-17298952D01*
X16284143Y-17289429D01*
X16274619Y-17270381D01*
X16265095Y-17232286D01*
X16265095Y-17184667D01*
X16274619Y-17146571D01*
X16284143Y-17127524D01*
X16293667Y-17118000D01*
X16312714Y-17108476D01*
X16465095Y-17289429D02*
X16474619Y-17298952D01*
X16465095Y-17308476D01*
X16455571Y-17298952D01*
X16465095Y-17289429D01*
X16465095Y-17308476D01*
X16588905Y-17194190D02*
X16569857Y-17184667D01*
X16560333Y-17175143D01*
X16550809Y-17156095D01*
X16550809Y-17146571D01*
X16560333Y-17127524D01*
X16569857Y-17118000D01*
X16588905Y-17108476D01*
X16627000Y-17108476D01*
X16646048Y-17118000D01*
X16655571Y-17127524D01*
X16665095Y-17146571D01*
X16665095Y-17156095D01*
X16655571Y-17175143D01*
X16646048Y-17184667D01*
X16627000Y-17194190D01*
X16588905Y-17194190D01*
X16569857Y-17203714D01*
X16560333Y-17213238D01*
X16550809Y-17232286D01*
X16550809Y-17270381D01*
X16560333Y-17289429D01*
X16569857Y-17298952D01*
X16588905Y-17308476D01*
X16627000Y-17308476D01*
X16646048Y-17298952D01*
X16655571Y-17289429D01*
X16665095Y-17270381D01*
X16665095Y-17232286D01*
X16655571Y-17213238D01*
X16646048Y-17203714D01*
X16627000Y-17194190D01*
X16788905Y-17108476D02*
X16807952Y-17108476D01*
X16827000Y-17118000D01*
X16836524Y-17127524D01*
X16846048Y-17146571D01*
X16855571Y-17184667D01*
X16855571Y-17232286D01*
X16846048Y-17270381D01*
X16836524Y-17289429D01*
X16827000Y-17298952D01*
X16807952Y-17308476D01*
X16788905Y-17308476D01*
X16769857Y-17298952D01*
X16760333Y-17289429D01*
X16750809Y-17270381D01*
X16741286Y-17232286D01*
X16741286Y-17184667D01*
X16750809Y-17146571D01*
X16760333Y-17127524D01*
X16769857Y-17118000D01*
X16788905Y-17108476D01*
X16979381Y-17108476D02*
X16998429Y-17108476D01*
X17017476Y-17118000D01*
X17027000Y-17127524D01*
X17036524Y-17146571D01*
X17046048Y-17184667D01*
X17046048Y-17232286D01*
X17036524Y-17270381D01*
X17027000Y-17289429D01*
X17017476Y-17298952D01*
X16998429Y-17308476D01*
X16979381Y-17308476D01*
X16960333Y-17298952D01*
X16950810Y-17289429D01*
X16941286Y-17270381D01*
X16931762Y-17232286D01*
X16931762Y-17184667D01*
X16941286Y-17146571D01*
X16950810Y-17127524D01*
X16960333Y-17118000D01*
X16979381Y-17108476D01*
X17131762Y-17308476D02*
X17131762Y-17175143D01*
X17131762Y-17194190D02*
X17141286Y-17184667D01*
X17160333Y-17175143D01*
X17188905Y-17175143D01*
X17207952Y-17184667D01*
X17217476Y-17203714D01*
X17217476Y-17308476D01*
X17217476Y-17203714D02*
X17227000Y-17184667D01*
X17246048Y-17175143D01*
X17274619Y-17175143D01*
X17293667Y-17184667D01*
X17303190Y-17203714D01*
X17303190Y-17308476D01*
X17398429Y-17308476D02*
X17398429Y-17175143D01*
X17398429Y-17194190D02*
X17407952Y-17184667D01*
X17427000Y-17175143D01*
X17455571Y-17175143D01*
X17474619Y-17184667D01*
X17484143Y-17203714D01*
X17484143Y-17308476D01*
X17484143Y-17203714D02*
X17493667Y-17184667D01*
X17512714Y-17175143D01*
X17541286Y-17175143D01*
X17560333Y-17184667D01*
X17569857Y-17203714D01*
X17569857Y-17308476D01*
X17960333Y-17098952D02*
X17788905Y-17356095D01*
X18217476Y-17108476D02*
X18236524Y-17108476D01*
X18255571Y-17118000D01*
X18265095Y-17127524D01*
X18274619Y-17146571D01*
X18284143Y-17184667D01*
X18284143Y-17232286D01*
X18274619Y-17270381D01*
X18265095Y-17289429D01*
X18255571Y-17298952D01*
X18236524Y-17308476D01*
X18217476Y-17308476D01*
X18198429Y-17298952D01*
X18188905Y-17289429D01*
X18179381Y-17270381D01*
X18169857Y-17232286D01*
X18169857Y-17184667D01*
X18179381Y-17146571D01*
X18188905Y-17127524D01*
X18198429Y-17118000D01*
X18217476Y-17108476D01*
X18369857Y-17289429D02*
X18379381Y-17298952D01*
X18369857Y-17308476D01*
X18360333Y-17298952D01*
X18369857Y-17289429D01*
X18369857Y-17308476D01*
X18503190Y-17108476D02*
X18522238Y-17108476D01*
X18541286Y-17118000D01*
X18550810Y-17127524D01*
X18560333Y-17146571D01*
X18569857Y-17184667D01*
X18569857Y-17232286D01*
X18560333Y-17270381D01*
X18550810Y-17289429D01*
X18541286Y-17298952D01*
X18522238Y-17308476D01*
X18503190Y-17308476D01*
X18484143Y-17298952D01*
X18474619Y-17289429D01*
X18465095Y-17270381D01*
X18455571Y-17232286D01*
X18455571Y-17184667D01*
X18465095Y-17146571D01*
X18474619Y-17127524D01*
X18484143Y-17118000D01*
X18503190Y-17108476D01*
X18636524Y-17108476D02*
X18760333Y-17108476D01*
X18693667Y-17184667D01*
X18722238Y-17184667D01*
X18741286Y-17194190D01*
X18750810Y-17203714D01*
X18760333Y-17222762D01*
X18760333Y-17270381D01*
X18750810Y-17289429D01*
X18741286Y-17298952D01*
X18722238Y-17308476D01*
X18665095Y-17308476D01*
X18646048Y-17298952D01*
X18636524Y-17289429D01*
X18950810Y-17308476D02*
X18836524Y-17308476D01*
X18893667Y-17308476D02*
X18893667Y-17108476D01*
X18874619Y-17137048D01*
X18855571Y-17156095D01*
X18836524Y-17165619D01*
X19131762Y-17108476D02*
X19036524Y-17108476D01*
X19027000Y-17203714D01*
X19036524Y-17194190D01*
X19055571Y-17184667D01*
X19103190Y-17184667D01*
X19122238Y-17194190D01*
X19131762Y-17203714D01*
X19141286Y-17222762D01*
X19141286Y-17270381D01*
X19131762Y-17289429D01*
X19122238Y-17298952D01*
X19103190Y-17308476D01*
X19055571Y-17308476D01*
X19036524Y-17298952D01*
X19027000Y-17289429D01*
X19217476Y-17108476D02*
X19217476Y-17146571D01*
X19293667Y-17108476D02*
X19293667Y-17146571D01*
X19588905Y-17384667D02*
X19579381Y-17375143D01*
X19560333Y-17346571D01*
X19550810Y-17327524D01*
X19541286Y-17298952D01*
X19531762Y-17251333D01*
X19531762Y-17213238D01*
X19541286Y-17165619D01*
X19550810Y-17137048D01*
X19560333Y-17118000D01*
X19579381Y-17089429D01*
X19588905Y-17079905D01*
X19750810Y-17175143D02*
X19750810Y-17308476D01*
X19703190Y-17098952D02*
X19655571Y-17241810D01*
X19779381Y-17241810D01*
X20007952Y-17308476D02*
X20007952Y-17108476D01*
X20093667Y-17308476D02*
X20093667Y-17203714D01*
X20084143Y-17184667D01*
X20065095Y-17175143D01*
X20036524Y-17175143D01*
X20017476Y-17184667D01*
X20007952Y-17194190D01*
X20217476Y-17308476D02*
X20198429Y-17298952D01*
X20188905Y-17289429D01*
X20179381Y-17270381D01*
X20179381Y-17213238D01*
X20188905Y-17194190D01*
X20198429Y-17184667D01*
X20217476Y-17175143D01*
X20246048Y-17175143D01*
X20265095Y-17184667D01*
X20274619Y-17194190D01*
X20284143Y-17213238D01*
X20284143Y-17270381D01*
X20274619Y-17289429D01*
X20265095Y-17298952D01*
X20246048Y-17308476D01*
X20217476Y-17308476D01*
X20398429Y-17308476D02*
X20379381Y-17298952D01*
X20369857Y-17279905D01*
X20369857Y-17108476D01*
X20550810Y-17298952D02*
X20531762Y-17308476D01*
X20493667Y-17308476D01*
X20474619Y-17298952D01*
X20465095Y-17279905D01*
X20465095Y-17203714D01*
X20474619Y-17184667D01*
X20493667Y-17175143D01*
X20531762Y-17175143D01*
X20550810Y-17184667D01*
X20560333Y-17203714D01*
X20560333Y-17222762D01*
X20465095Y-17241810D01*
X20636524Y-17298952D02*
X20655571Y-17308476D01*
X20693667Y-17308476D01*
X20712714Y-17298952D01*
X20722238Y-17279905D01*
X20722238Y-17270381D01*
X20712714Y-17251333D01*
X20693667Y-17241810D01*
X20665095Y-17241810D01*
X20646048Y-17232286D01*
X20636524Y-17213238D01*
X20636524Y-17203714D01*
X20646048Y-17184667D01*
X20665095Y-17175143D01*
X20693667Y-17175143D01*
X20712714Y-17184667D01*
X20788905Y-17384667D02*
X20798429Y-17375143D01*
X20817476Y-17346571D01*
X20827000Y-17327524D01*
X20836524Y-17298952D01*
X20846048Y-17251333D01*
X20846048Y-17213238D01*
X20836524Y-17165619D01*
X20827000Y-17137048D01*
X20817476Y-17118000D01*
X20798429Y-17089429D01*
X20788905Y-17079905D01*
D14*
X15972000Y-17437000D02*
X15972000Y-17527000D01*
X15927000Y-17482000D02*
X16017000Y-17482000D01*
D11*
X16312714Y-17372476D02*
X16331762Y-17372476D01*
X16350809Y-17382000D01*
X16360333Y-17391524D01*
X16369857Y-17410571D01*
X16379381Y-17448667D01*
X16379381Y-17496286D01*
X16369857Y-17534381D01*
X16360333Y-17553429D01*
X16350809Y-17562952D01*
X16331762Y-17572476D01*
X16312714Y-17572476D01*
X16293667Y-17562952D01*
X16284143Y-17553429D01*
X16274619Y-17534381D01*
X16265095Y-17496286D01*
X16265095Y-17448667D01*
X16274619Y-17410571D01*
X16284143Y-17391524D01*
X16293667Y-17382000D01*
X16312714Y-17372476D01*
X16465095Y-17553429D02*
X16474619Y-17562952D01*
X16465095Y-17572476D01*
X16455571Y-17562952D01*
X16465095Y-17553429D01*
X16465095Y-17572476D01*
X16569857Y-17572476D02*
X16607952Y-17572476D01*
X16627000Y-17562952D01*
X16636524Y-17553429D01*
X16655571Y-17524857D01*
X16665095Y-17486762D01*
X16665095Y-17410571D01*
X16655571Y-17391524D01*
X16646048Y-17382000D01*
X16627000Y-17372476D01*
X16588905Y-17372476D01*
X16569857Y-17382000D01*
X16560333Y-17391524D01*
X16550809Y-17410571D01*
X16550809Y-17458190D01*
X16560333Y-17477238D01*
X16569857Y-17486762D01*
X16588905Y-17496286D01*
X16627000Y-17496286D01*
X16646048Y-17486762D01*
X16655571Y-17477238D01*
X16665095Y-17458190D01*
X16788905Y-17372476D02*
X16807952Y-17372476D01*
X16827000Y-17382000D01*
X16836524Y-17391524D01*
X16846048Y-17410571D01*
X16855571Y-17448667D01*
X16855571Y-17496286D01*
X16846048Y-17534381D01*
X16836524Y-17553429D01*
X16827000Y-17562952D01*
X16807952Y-17572476D01*
X16788905Y-17572476D01*
X16769857Y-17562952D01*
X16760333Y-17553429D01*
X16750809Y-17534381D01*
X16741286Y-17496286D01*
X16741286Y-17448667D01*
X16750809Y-17410571D01*
X16760333Y-17391524D01*
X16769857Y-17382000D01*
X16788905Y-17372476D01*
X16979381Y-17372476D02*
X16998429Y-17372476D01*
X17017476Y-17382000D01*
X17027000Y-17391524D01*
X17036524Y-17410571D01*
X17046048Y-17448667D01*
X17046048Y-17496286D01*
X17036524Y-17534381D01*
X17027000Y-17553429D01*
X17017476Y-17562952D01*
X16998429Y-17572476D01*
X16979381Y-17572476D01*
X16960333Y-17562952D01*
X16950810Y-17553429D01*
X16941286Y-17534381D01*
X16931762Y-17496286D01*
X16931762Y-17448667D01*
X16941286Y-17410571D01*
X16950810Y-17391524D01*
X16960333Y-17382000D01*
X16979381Y-17372476D01*
X17131762Y-17572476D02*
X17131762Y-17439143D01*
X17131762Y-17458190D02*
X17141286Y-17448667D01*
X17160333Y-17439143D01*
X17188905Y-17439143D01*
X17207952Y-17448667D01*
X17217476Y-17467714D01*
X17217476Y-17572476D01*
X17217476Y-17467714D02*
X17227000Y-17448667D01*
X17246048Y-17439143D01*
X17274619Y-17439143D01*
X17293667Y-17448667D01*
X17303190Y-17467714D01*
X17303190Y-17572476D01*
X17398429Y-17572476D02*
X17398429Y-17439143D01*
X17398429Y-17458190D02*
X17407952Y-17448667D01*
X17427000Y-17439143D01*
X17455571Y-17439143D01*
X17474619Y-17448667D01*
X17484143Y-17467714D01*
X17484143Y-17572476D01*
X17484143Y-17467714D02*
X17493667Y-17448667D01*
X17512714Y-17439143D01*
X17541286Y-17439143D01*
X17560333Y-17448667D01*
X17569857Y-17467714D01*
X17569857Y-17572476D01*
X17960333Y-17362952D02*
X17788905Y-17620095D01*
X18217476Y-17372476D02*
X18236524Y-17372476D01*
X18255571Y-17382000D01*
X18265095Y-17391524D01*
X18274619Y-17410571D01*
X18284143Y-17448667D01*
X18284143Y-17496286D01*
X18274619Y-17534381D01*
X18265095Y-17553429D01*
X18255571Y-17562952D01*
X18236524Y-17572476D01*
X18217476Y-17572476D01*
X18198429Y-17562952D01*
X18188905Y-17553429D01*
X18179381Y-17534381D01*
X18169857Y-17496286D01*
X18169857Y-17448667D01*
X18179381Y-17410571D01*
X18188905Y-17391524D01*
X18198429Y-17382000D01*
X18217476Y-17372476D01*
X18369857Y-17553429D02*
X18379381Y-17562952D01*
X18369857Y-17572476D01*
X18360333Y-17562952D01*
X18369857Y-17553429D01*
X18369857Y-17572476D01*
X18503190Y-17372476D02*
X18522238Y-17372476D01*
X18541286Y-17382000D01*
X18550810Y-17391524D01*
X18560333Y-17410571D01*
X18569857Y-17448667D01*
X18569857Y-17496286D01*
X18560333Y-17534381D01*
X18550810Y-17553429D01*
X18541286Y-17562952D01*
X18522238Y-17572476D01*
X18503190Y-17572476D01*
X18484143Y-17562952D01*
X18474619Y-17553429D01*
X18465095Y-17534381D01*
X18455571Y-17496286D01*
X18455571Y-17448667D01*
X18465095Y-17410571D01*
X18474619Y-17391524D01*
X18484143Y-17382000D01*
X18503190Y-17372476D01*
X18636524Y-17372476D02*
X18760333Y-17372476D01*
X18693667Y-17448667D01*
X18722238Y-17448667D01*
X18741286Y-17458190D01*
X18750810Y-17467714D01*
X18760333Y-17486762D01*
X18760333Y-17534381D01*
X18750810Y-17553429D01*
X18741286Y-17562952D01*
X18722238Y-17572476D01*
X18665095Y-17572476D01*
X18646048Y-17562952D01*
X18636524Y-17553429D01*
X18941286Y-17372476D02*
X18846048Y-17372476D01*
X18836524Y-17467714D01*
X18846048Y-17458190D01*
X18865095Y-17448667D01*
X18912714Y-17448667D01*
X18931762Y-17458190D01*
X18941286Y-17467714D01*
X18950810Y-17486762D01*
X18950810Y-17534381D01*
X18941286Y-17553429D01*
X18931762Y-17562952D01*
X18912714Y-17572476D01*
X18865095Y-17572476D01*
X18846048Y-17562952D01*
X18836524Y-17553429D01*
X19122238Y-17439143D02*
X19122238Y-17572476D01*
X19074619Y-17362952D02*
X19027000Y-17505810D01*
X19150810Y-17505810D01*
X19217476Y-17372476D02*
X19217476Y-17410571D01*
X19293667Y-17372476D02*
X19293667Y-17410571D01*
X19588905Y-17648667D02*
X19579381Y-17639143D01*
X19560333Y-17610571D01*
X19550810Y-17591524D01*
X19541286Y-17562952D01*
X19531762Y-17515333D01*
X19531762Y-17477238D01*
X19541286Y-17429619D01*
X19550810Y-17401048D01*
X19560333Y-17382000D01*
X19579381Y-17353429D01*
X19588905Y-17343905D01*
X19655571Y-17391524D02*
X19665095Y-17382000D01*
X19684143Y-17372476D01*
X19731762Y-17372476D01*
X19750810Y-17382000D01*
X19760333Y-17391524D01*
X19769857Y-17410571D01*
X19769857Y-17429619D01*
X19760333Y-17458190D01*
X19646048Y-17572476D01*
X19769857Y-17572476D01*
X20007952Y-17572476D02*
X20007952Y-17372476D01*
X20093667Y-17572476D02*
X20093667Y-17467714D01*
X20084143Y-17448667D01*
X20065095Y-17439143D01*
X20036524Y-17439143D01*
X20017476Y-17448667D01*
X20007952Y-17458190D01*
X20217476Y-17572476D02*
X20198429Y-17562952D01*
X20188905Y-17553429D01*
X20179381Y-17534381D01*
X20179381Y-17477238D01*
X20188905Y-17458190D01*
X20198429Y-17448667D01*
X20217476Y-17439143D01*
X20246048Y-17439143D01*
X20265095Y-17448667D01*
X20274619Y-17458190D01*
X20284143Y-17477238D01*
X20284143Y-17534381D01*
X20274619Y-17553429D01*
X20265095Y-17562952D01*
X20246048Y-17572476D01*
X20217476Y-17572476D01*
X20398429Y-17572476D02*
X20379381Y-17562952D01*
X20369857Y-17543905D01*
X20369857Y-17372476D01*
X20550810Y-17562952D02*
X20531762Y-17572476D01*
X20493667Y-17572476D01*
X20474619Y-17562952D01*
X20465095Y-17543905D01*
X20465095Y-17467714D01*
X20474619Y-17448667D01*
X20493667Y-17439143D01*
X20531762Y-17439143D01*
X20550810Y-17448667D01*
X20560333Y-17467714D01*
X20560333Y-17486762D01*
X20465095Y-17505810D01*
X20636524Y-17562952D02*
X20655571Y-17572476D01*
X20693667Y-17572476D01*
X20712714Y-17562952D01*
X20722238Y-17543905D01*
X20722238Y-17534381D01*
X20712714Y-17515333D01*
X20693667Y-17505810D01*
X20665095Y-17505810D01*
X20646048Y-17496286D01*
X20636524Y-17477238D01*
X20636524Y-17467714D01*
X20646048Y-17448667D01*
X20665095Y-17439143D01*
X20693667Y-17439143D01*
X20712714Y-17448667D01*
X20960333Y-17496286D02*
X21112714Y-17496286D01*
X21036524Y-17572476D02*
X21036524Y-17420095D01*
X21446048Y-17372476D02*
X21407952Y-17372476D01*
X21388905Y-17382000D01*
X21379381Y-17391524D01*
X21360333Y-17420095D01*
X21350810Y-17458190D01*
X21350810Y-17534381D01*
X21360333Y-17553429D01*
X21369857Y-17562952D01*
X21388905Y-17572476D01*
X21427000Y-17572476D01*
X21446048Y-17562952D01*
X21455571Y-17553429D01*
X21465095Y-17534381D01*
X21465095Y-17486762D01*
X21455571Y-17467714D01*
X21446048Y-17458190D01*
X21427000Y-17448667D01*
X21388905Y-17448667D01*
X21369857Y-17458190D01*
X21360333Y-17467714D01*
X21350810Y-17486762D01*
X21693667Y-17562952D02*
X21712714Y-17572476D01*
X21750810Y-17572476D01*
X21769857Y-17562952D01*
X21779381Y-17543905D01*
X21779381Y-17534381D01*
X21769857Y-17515333D01*
X21750810Y-17505810D01*
X21722238Y-17505810D01*
X21703190Y-17496286D01*
X21693667Y-17477238D01*
X21693667Y-17467714D01*
X21703190Y-17448667D01*
X21722238Y-17439143D01*
X21750810Y-17439143D01*
X21769857Y-17448667D01*
X21893667Y-17572476D02*
X21874619Y-17562952D01*
X21865095Y-17543905D01*
X21865095Y-17372476D01*
X21998429Y-17572476D02*
X21979381Y-17562952D01*
X21969857Y-17553429D01*
X21960333Y-17534381D01*
X21960333Y-17477238D01*
X21969857Y-17458190D01*
X21979381Y-17448667D01*
X21998429Y-17439143D01*
X22027000Y-17439143D01*
X22046048Y-17448667D01*
X22055571Y-17458190D01*
X22065095Y-17477238D01*
X22065095Y-17534381D01*
X22055571Y-17553429D01*
X22046048Y-17562952D01*
X22027000Y-17572476D01*
X21998429Y-17572476D01*
X22122238Y-17439143D02*
X22198429Y-17439143D01*
X22150810Y-17372476D02*
X22150810Y-17543905D01*
X22160333Y-17562952D01*
X22179381Y-17572476D01*
X22198429Y-17572476D01*
X22255571Y-17562952D02*
X22274619Y-17572476D01*
X22312714Y-17572476D01*
X22331762Y-17562952D01*
X22341286Y-17543905D01*
X22341286Y-17534381D01*
X22331762Y-17515333D01*
X22312714Y-17505810D01*
X22284143Y-17505810D01*
X22265095Y-17496286D01*
X22255571Y-17477238D01*
X22255571Y-17467714D01*
X22265095Y-17448667D01*
X22284143Y-17439143D01*
X22312714Y-17439143D01*
X22331762Y-17448667D01*
X22407952Y-17648667D02*
X22417476Y-17639143D01*
X22436524Y-17610571D01*
X22446048Y-17591524D01*
X22455571Y-17562952D01*
X22465095Y-17515333D01*
X22465095Y-17477238D01*
X22455571Y-17429619D01*
X22446048Y-17401048D01*
X22436524Y-17382000D01*
X22417476Y-17353429D01*
X22407952Y-17343905D01*
D10*
X16002356Y-17781356D02*
X16002356Y-17710644D01*
X15931644Y-17710644D01*
X15931644Y-17781356D01*
X16002356Y-17781356D01*
D11*
X16379381Y-17836476D02*
X16265095Y-17836476D01*
X16322238Y-17836476D02*
X16322238Y-17636476D01*
X16303190Y-17665048D01*
X16284143Y-17684095D01*
X16265095Y-17693619D01*
X16465095Y-17817429D02*
X16474619Y-17826952D01*
X16465095Y-17836476D01*
X16455571Y-17826952D01*
X16465095Y-17817429D01*
X16465095Y-17836476D01*
X16598428Y-17636476D02*
X16617476Y-17636476D01*
X16636524Y-17646000D01*
X16646048Y-17655524D01*
X16655571Y-17674571D01*
X16665095Y-17712667D01*
X16665095Y-17760286D01*
X16655571Y-17798381D01*
X16646048Y-17817429D01*
X16636524Y-17826952D01*
X16617476Y-17836476D01*
X16598428Y-17836476D01*
X16579381Y-17826952D01*
X16569857Y-17817429D01*
X16560333Y-17798381D01*
X16550809Y-17760286D01*
X16550809Y-17712667D01*
X16560333Y-17674571D01*
X16569857Y-17655524D01*
X16579381Y-17646000D01*
X16598428Y-17636476D01*
X16788905Y-17636476D02*
X16807952Y-17636476D01*
X16827000Y-17646000D01*
X16836524Y-17655524D01*
X16846048Y-17674571D01*
X16855571Y-17712667D01*
X16855571Y-17760286D01*
X16846048Y-17798381D01*
X16836524Y-17817429D01*
X16827000Y-17826952D01*
X16807952Y-17836476D01*
X16788905Y-17836476D01*
X16769857Y-17826952D01*
X16760333Y-17817429D01*
X16750809Y-17798381D01*
X16741286Y-17760286D01*
X16741286Y-17712667D01*
X16750809Y-17674571D01*
X16760333Y-17655524D01*
X16769857Y-17646000D01*
X16788905Y-17636476D01*
X16979381Y-17636476D02*
X16998429Y-17636476D01*
X17017476Y-17646000D01*
X17027000Y-17655524D01*
X17036524Y-17674571D01*
X17046048Y-17712667D01*
X17046048Y-17760286D01*
X17036524Y-17798381D01*
X17027000Y-17817429D01*
X17017476Y-17826952D01*
X16998429Y-17836476D01*
X16979381Y-17836476D01*
X16960333Y-17826952D01*
X16950810Y-17817429D01*
X16941286Y-17798381D01*
X16931762Y-17760286D01*
X16931762Y-17712667D01*
X16941286Y-17674571D01*
X16950810Y-17655524D01*
X16960333Y-17646000D01*
X16979381Y-17636476D01*
X17131762Y-17836476D02*
X17131762Y-17703143D01*
X17131762Y-17722190D02*
X17141286Y-17712667D01*
X17160333Y-17703143D01*
X17188905Y-17703143D01*
X17207952Y-17712667D01*
X17217476Y-17731714D01*
X17217476Y-17836476D01*
X17217476Y-17731714D02*
X17227000Y-17712667D01*
X17246048Y-17703143D01*
X17274619Y-17703143D01*
X17293667Y-17712667D01*
X17303190Y-17731714D01*
X17303190Y-17836476D01*
X17398429Y-17836476D02*
X17398429Y-17703143D01*
X17398429Y-17722190D02*
X17407952Y-17712667D01*
X17427000Y-17703143D01*
X17455571Y-17703143D01*
X17474619Y-17712667D01*
X17484143Y-17731714D01*
X17484143Y-17836476D01*
X17484143Y-17731714D02*
X17493667Y-17712667D01*
X17512714Y-17703143D01*
X17541286Y-17703143D01*
X17560333Y-17712667D01*
X17569857Y-17731714D01*
X17569857Y-17836476D01*
X17960333Y-17626952D02*
X17788905Y-17884095D01*
X18217476Y-17636476D02*
X18236524Y-17636476D01*
X18255571Y-17646000D01*
X18265095Y-17655524D01*
X18274619Y-17674571D01*
X18284143Y-17712667D01*
X18284143Y-17760286D01*
X18274619Y-17798381D01*
X18265095Y-17817429D01*
X18255571Y-17826952D01*
X18236524Y-17836476D01*
X18217476Y-17836476D01*
X18198429Y-17826952D01*
X18188905Y-17817429D01*
X18179381Y-17798381D01*
X18169857Y-17760286D01*
X18169857Y-17712667D01*
X18179381Y-17674571D01*
X18188905Y-17655524D01*
X18198429Y-17646000D01*
X18217476Y-17636476D01*
X18369857Y-17817429D02*
X18379381Y-17826952D01*
X18369857Y-17836476D01*
X18360333Y-17826952D01*
X18369857Y-17817429D01*
X18369857Y-17836476D01*
X18503190Y-17636476D02*
X18522238Y-17636476D01*
X18541286Y-17646000D01*
X18550810Y-17655524D01*
X18560333Y-17674571D01*
X18569857Y-17712667D01*
X18569857Y-17760286D01*
X18560333Y-17798381D01*
X18550810Y-17817429D01*
X18541286Y-17826952D01*
X18522238Y-17836476D01*
X18503190Y-17836476D01*
X18484143Y-17826952D01*
X18474619Y-17817429D01*
X18465095Y-17798381D01*
X18455571Y-17760286D01*
X18455571Y-17712667D01*
X18465095Y-17674571D01*
X18474619Y-17655524D01*
X18484143Y-17646000D01*
X18503190Y-17636476D01*
X18636524Y-17636476D02*
X18760333Y-17636476D01*
X18693667Y-17712667D01*
X18722238Y-17712667D01*
X18741286Y-17722190D01*
X18750810Y-17731714D01*
X18760333Y-17750762D01*
X18760333Y-17798381D01*
X18750810Y-17817429D01*
X18741286Y-17826952D01*
X18722238Y-17836476D01*
X18665095Y-17836476D01*
X18646048Y-17826952D01*
X18636524Y-17817429D01*
X18855571Y-17836476D02*
X18893667Y-17836476D01*
X18912714Y-17826952D01*
X18922238Y-17817429D01*
X18941286Y-17788857D01*
X18950810Y-17750762D01*
X18950810Y-17674571D01*
X18941286Y-17655524D01*
X18931762Y-17646000D01*
X18912714Y-17636476D01*
X18874619Y-17636476D01*
X18855571Y-17646000D01*
X18846048Y-17655524D01*
X18836524Y-17674571D01*
X18836524Y-17722190D01*
X18846048Y-17741238D01*
X18855571Y-17750762D01*
X18874619Y-17760286D01*
X18912714Y-17760286D01*
X18931762Y-17750762D01*
X18941286Y-17741238D01*
X18950810Y-17722190D01*
X19122238Y-17703143D02*
X19122238Y-17836476D01*
X19074619Y-17626952D02*
X19027000Y-17769810D01*
X19150810Y-17769810D01*
X19217476Y-17636476D02*
X19217476Y-17674571D01*
X19293667Y-17636476D02*
X19293667Y-17674571D01*
X19588905Y-17912667D02*
X19579381Y-17903143D01*
X19560333Y-17874571D01*
X19550810Y-17855524D01*
X19541286Y-17826952D01*
X19531762Y-17779333D01*
X19531762Y-17741238D01*
X19541286Y-17693619D01*
X19550810Y-17665048D01*
X19560333Y-17646000D01*
X19579381Y-17617429D01*
X19588905Y-17607905D01*
X19769857Y-17836476D02*
X19655571Y-17836476D01*
X19712714Y-17836476D02*
X19712714Y-17636476D01*
X19693667Y-17665048D01*
X19674619Y-17684095D01*
X19655571Y-17693619D01*
X19941286Y-17636476D02*
X19903190Y-17636476D01*
X19884143Y-17646000D01*
X19874619Y-17655524D01*
X19855571Y-17684095D01*
X19846048Y-17722190D01*
X19846048Y-17798381D01*
X19855571Y-17817429D01*
X19865095Y-17826952D01*
X19884143Y-17836476D01*
X19922238Y-17836476D01*
X19941286Y-17826952D01*
X19950810Y-17817429D01*
X19960333Y-17798381D01*
X19960333Y-17750762D01*
X19950810Y-17731714D01*
X19941286Y-17722190D01*
X19922238Y-17712667D01*
X19884143Y-17712667D01*
X19865095Y-17722190D01*
X19855571Y-17731714D01*
X19846048Y-17750762D01*
X20198429Y-17836476D02*
X20198429Y-17636476D01*
X20284143Y-17836476D02*
X20284143Y-17731714D01*
X20274619Y-17712667D01*
X20255571Y-17703143D01*
X20227000Y-17703143D01*
X20207952Y-17712667D01*
X20198429Y-17722190D01*
X20407952Y-17836476D02*
X20388905Y-17826952D01*
X20379381Y-17817429D01*
X20369857Y-17798381D01*
X20369857Y-17741238D01*
X20379381Y-17722190D01*
X20388905Y-17712667D01*
X20407952Y-17703143D01*
X20436524Y-17703143D01*
X20455571Y-17712667D01*
X20465095Y-17722190D01*
X20474619Y-17741238D01*
X20474619Y-17798381D01*
X20465095Y-17817429D01*
X20455571Y-17826952D01*
X20436524Y-17836476D01*
X20407952Y-17836476D01*
X20588905Y-17836476D02*
X20569857Y-17826952D01*
X20560333Y-17807905D01*
X20560333Y-17636476D01*
X20741286Y-17826952D02*
X20722238Y-17836476D01*
X20684143Y-17836476D01*
X20665095Y-17826952D01*
X20655571Y-17807905D01*
X20655571Y-17731714D01*
X20665095Y-17712667D01*
X20684143Y-17703143D01*
X20722238Y-17703143D01*
X20741286Y-17712667D01*
X20750810Y-17731714D01*
X20750810Y-17750762D01*
X20655571Y-17769810D01*
X20827000Y-17826952D02*
X20846048Y-17836476D01*
X20884143Y-17836476D01*
X20903190Y-17826952D01*
X20912714Y-17807905D01*
X20912714Y-17798381D01*
X20903190Y-17779333D01*
X20884143Y-17769810D01*
X20855571Y-17769810D01*
X20836524Y-17760286D01*
X20827000Y-17741238D01*
X20827000Y-17731714D01*
X20836524Y-17712667D01*
X20855571Y-17703143D01*
X20884143Y-17703143D01*
X20903190Y-17712667D01*
X20979381Y-17912667D02*
X20988905Y-17903143D01*
X21007952Y-17874571D01*
X21017476Y-17855524D01*
X21027000Y-17826952D01*
X21036524Y-17779333D01*
X21036524Y-17741238D01*
X21027000Y-17693619D01*
X21017476Y-17665048D01*
X21007952Y-17646000D01*
X20988905Y-17617429D01*
X20979381Y-17607905D01*
D15*
X15962000Y-18065000D02*
X16017000Y-18010000D01*
X15962000Y-17955000D01*
X15907000Y-18010000D01*
X15962000Y-18065000D01*
D11*
X16379381Y-18100476D02*
X16265095Y-18100476D01*
X16322238Y-18100476D02*
X16322238Y-17900476D01*
X16303190Y-17929048D01*
X16284143Y-17948095D01*
X16265095Y-17957619D01*
X16465095Y-18081429D02*
X16474619Y-18090952D01*
X16465095Y-18100476D01*
X16455571Y-18090952D01*
X16465095Y-18081429D01*
X16465095Y-18100476D01*
X16665095Y-18100476D02*
X16550809Y-18100476D01*
X16607952Y-18100476D02*
X16607952Y-17900476D01*
X16588905Y-17929048D01*
X16569857Y-17948095D01*
X16550809Y-17957619D01*
X16788905Y-17900476D02*
X16807952Y-17900476D01*
X16827000Y-17910000D01*
X16836524Y-17919524D01*
X16846048Y-17938571D01*
X16855571Y-17976667D01*
X16855571Y-18024286D01*
X16846048Y-18062381D01*
X16836524Y-18081429D01*
X16827000Y-18090952D01*
X16807952Y-18100476D01*
X16788905Y-18100476D01*
X16769857Y-18090952D01*
X16760333Y-18081429D01*
X16750809Y-18062381D01*
X16741286Y-18024286D01*
X16741286Y-17976667D01*
X16750809Y-17938571D01*
X16760333Y-17919524D01*
X16769857Y-17910000D01*
X16788905Y-17900476D01*
X16979381Y-17900476D02*
X16998429Y-17900476D01*
X17017476Y-17910000D01*
X17027000Y-17919524D01*
X17036524Y-17938571D01*
X17046048Y-17976667D01*
X17046048Y-18024286D01*
X17036524Y-18062381D01*
X17027000Y-18081429D01*
X17017476Y-18090952D01*
X16998429Y-18100476D01*
X16979381Y-18100476D01*
X16960333Y-18090952D01*
X16950810Y-18081429D01*
X16941286Y-18062381D01*
X16931762Y-18024286D01*
X16931762Y-17976667D01*
X16941286Y-17938571D01*
X16950810Y-17919524D01*
X16960333Y-17910000D01*
X16979381Y-17900476D01*
X17131762Y-18100476D02*
X17131762Y-17967143D01*
X17131762Y-17986190D02*
X17141286Y-17976667D01*
X17160333Y-17967143D01*
X17188905Y-17967143D01*
X17207952Y-17976667D01*
X17217476Y-17995714D01*
X17217476Y-18100476D01*
X17217476Y-17995714D02*
X17227000Y-17976667D01*
X17246048Y-17967143D01*
X17274619Y-17967143D01*
X17293667Y-17976667D01*
X17303190Y-17995714D01*
X17303190Y-18100476D01*
X17398429Y-18100476D02*
X17398429Y-17967143D01*
X17398429Y-17986190D02*
X17407952Y-17976667D01*
X17427000Y-17967143D01*
X17455571Y-17967143D01*
X17474619Y-17976667D01*
X17484143Y-17995714D01*
X17484143Y-18100476D01*
X17484143Y-17995714D02*
X17493667Y-17976667D01*
X17512714Y-17967143D01*
X17541286Y-17967143D01*
X17560333Y-17976667D01*
X17569857Y-17995714D01*
X17569857Y-18100476D01*
X17960333Y-17890952D02*
X17788905Y-18148095D01*
X18217476Y-17900476D02*
X18236524Y-17900476D01*
X18255571Y-17910000D01*
X18265095Y-17919524D01*
X18274619Y-17938571D01*
X18284143Y-17976667D01*
X18284143Y-18024286D01*
X18274619Y-18062381D01*
X18265095Y-18081429D01*
X18255571Y-18090952D01*
X18236524Y-18100476D01*
X18217476Y-18100476D01*
X18198429Y-18090952D01*
X18188905Y-18081429D01*
X18179381Y-18062381D01*
X18169857Y-18024286D01*
X18169857Y-17976667D01*
X18179381Y-17938571D01*
X18188905Y-17919524D01*
X18198429Y-17910000D01*
X18217476Y-17900476D01*
X18369857Y-18081429D02*
X18379381Y-18090952D01*
X18369857Y-18100476D01*
X18360333Y-18090952D01*
X18369857Y-18081429D01*
X18369857Y-18100476D01*
X18503190Y-17900476D02*
X18522238Y-17900476D01*
X18541286Y-17910000D01*
X18550810Y-17919524D01*
X18560333Y-17938571D01*
X18569857Y-17976667D01*
X18569857Y-18024286D01*
X18560333Y-18062381D01*
X18550810Y-18081429D01*
X18541286Y-18090952D01*
X18522238Y-18100476D01*
X18503190Y-18100476D01*
X18484143Y-18090952D01*
X18474619Y-18081429D01*
X18465095Y-18062381D01*
X18455571Y-18024286D01*
X18455571Y-17976667D01*
X18465095Y-17938571D01*
X18474619Y-17919524D01*
X18484143Y-17910000D01*
X18503190Y-17900476D01*
X18741286Y-17967143D02*
X18741286Y-18100476D01*
X18693667Y-17890952D02*
X18646048Y-18033810D01*
X18769857Y-18033810D01*
X18827000Y-17900476D02*
X18950810Y-17900476D01*
X18884143Y-17976667D01*
X18912714Y-17976667D01*
X18931762Y-17986190D01*
X18941286Y-17995714D01*
X18950810Y-18014762D01*
X18950810Y-18062381D01*
X18941286Y-18081429D01*
X18931762Y-18090952D01*
X18912714Y-18100476D01*
X18855571Y-18100476D01*
X18836524Y-18090952D01*
X18827000Y-18081429D01*
X19017476Y-17900476D02*
X19141286Y-17900476D01*
X19074619Y-17976667D01*
X19103190Y-17976667D01*
X19122238Y-17986190D01*
X19131762Y-17995714D01*
X19141286Y-18014762D01*
X19141286Y-18062381D01*
X19131762Y-18081429D01*
X19122238Y-18090952D01*
X19103190Y-18100476D01*
X19046048Y-18100476D01*
X19027000Y-18090952D01*
X19017476Y-18081429D01*
X19217476Y-17900476D02*
X19217476Y-17938571D01*
X19293667Y-17900476D02*
X19293667Y-17938571D01*
X19588905Y-18176667D02*
X19579381Y-18167143D01*
X19560333Y-18138571D01*
X19550810Y-18119524D01*
X19541286Y-18090952D01*
X19531762Y-18043333D01*
X19531762Y-18005238D01*
X19541286Y-17957619D01*
X19550810Y-17929048D01*
X19560333Y-17910000D01*
X19579381Y-17881429D01*
X19588905Y-17871905D01*
X19703190Y-17900476D02*
X19722238Y-17900476D01*
X19741286Y-17910000D01*
X19750810Y-17919524D01*
X19760333Y-17938571D01*
X19769857Y-17976667D01*
X19769857Y-18024286D01*
X19760333Y-18062381D01*
X19750810Y-18081429D01*
X19741286Y-18090952D01*
X19722238Y-18100476D01*
X19703190Y-18100476D01*
X19684143Y-18090952D01*
X19674619Y-18081429D01*
X19665095Y-18062381D01*
X19655571Y-18024286D01*
X19655571Y-17976667D01*
X19665095Y-17938571D01*
X19674619Y-17919524D01*
X19684143Y-17910000D01*
X19703190Y-17900476D01*
X20007952Y-18100476D02*
X20007952Y-17900476D01*
X20093667Y-18100476D02*
X20093667Y-17995714D01*
X20084143Y-17976667D01*
X20065095Y-17967143D01*
X20036524Y-17967143D01*
X20017476Y-17976667D01*
X20007952Y-17986190D01*
X20217476Y-18100476D02*
X20198429Y-18090952D01*
X20188905Y-18081429D01*
X20179381Y-18062381D01*
X20179381Y-18005238D01*
X20188905Y-17986190D01*
X20198429Y-17976667D01*
X20217476Y-17967143D01*
X20246048Y-17967143D01*
X20265095Y-17976667D01*
X20274619Y-17986190D01*
X20284143Y-18005238D01*
X20284143Y-18062381D01*
X20274619Y-18081429D01*
X20265095Y-18090952D01*
X20246048Y-18100476D01*
X20217476Y-18100476D01*
X20398429Y-18100476D02*
X20379381Y-18090952D01*
X20369857Y-18071905D01*
X20369857Y-17900476D01*
X20550810Y-18090952D02*
X20531762Y-18100476D01*
X20493667Y-18100476D01*
X20474619Y-18090952D01*
X20465095Y-18071905D01*
X20465095Y-17995714D01*
X20474619Y-17976667D01*
X20493667Y-17967143D01*
X20531762Y-17967143D01*
X20550810Y-17976667D01*
X20560333Y-17995714D01*
X20560333Y-18014762D01*
X20465095Y-18033810D01*
X20636524Y-18090952D02*
X20655571Y-18100476D01*
X20693667Y-18100476D01*
X20712714Y-18090952D01*
X20722238Y-18071905D01*
X20722238Y-18062381D01*
X20712714Y-18043333D01*
X20693667Y-18033810D01*
X20665095Y-18033810D01*
X20646048Y-18024286D01*
X20636524Y-18005238D01*
X20636524Y-17995714D01*
X20646048Y-17976667D01*
X20665095Y-17967143D01*
X20693667Y-17967143D01*
X20712714Y-17976667D01*
X20960333Y-18024286D02*
X21112714Y-18024286D01*
X21036524Y-18100476D02*
X21036524Y-17948095D01*
X21446048Y-17967143D02*
X21446048Y-18100476D01*
X21398429Y-17890952D02*
X21350810Y-18033810D01*
X21474619Y-18033810D01*
X21693667Y-18090952D02*
X21712714Y-18100476D01*
X21750810Y-18100476D01*
X21769857Y-18090952D01*
X21779381Y-18071905D01*
X21779381Y-18062381D01*
X21769857Y-18043333D01*
X21750810Y-18033810D01*
X21722238Y-18033810D01*
X21703190Y-18024286D01*
X21693667Y-18005238D01*
X21693667Y-17995714D01*
X21703190Y-17976667D01*
X21722238Y-17967143D01*
X21750810Y-17967143D01*
X21769857Y-17976667D01*
X21893667Y-18100476D02*
X21874619Y-18090952D01*
X21865095Y-18071905D01*
X21865095Y-17900476D01*
X21998429Y-18100476D02*
X21979381Y-18090952D01*
X21969857Y-18081429D01*
X21960333Y-18062381D01*
X21960333Y-18005238D01*
X21969857Y-17986190D01*
X21979381Y-17976667D01*
X21998429Y-17967143D01*
X22027000Y-17967143D01*
X22046048Y-17976667D01*
X22055571Y-17986190D01*
X22065095Y-18005238D01*
X22065095Y-18062381D01*
X22055571Y-18081429D01*
X22046048Y-18090952D01*
X22027000Y-18100476D01*
X21998429Y-18100476D01*
X22122238Y-17967143D02*
X22198429Y-17967143D01*
X22150810Y-17900476D02*
X22150810Y-18071905D01*
X22160333Y-18090952D01*
X22179381Y-18100476D01*
X22198429Y-18100476D01*
X22255571Y-18090952D02*
X22274619Y-18100476D01*
X22312714Y-18100476D01*
X22331762Y-18090952D01*
X22341286Y-18071905D01*
X22341286Y-18062381D01*
X22331762Y-18043333D01*
X22312714Y-18033810D01*
X22284143Y-18033810D01*
X22265095Y-18024286D01*
X22255571Y-18005238D01*
X22255571Y-17995714D01*
X22265095Y-17976667D01*
X22284143Y-17967143D01*
X22312714Y-17967143D01*
X22331762Y-17976667D01*
X22407952Y-18176667D02*
X22417476Y-18167143D01*
X22436524Y-18138571D01*
X22446048Y-18119524D01*
X22455571Y-18090952D01*
X22465095Y-18043333D01*
X22465095Y-18005238D01*
X22455571Y-17957619D01*
X22446048Y-17929048D01*
X22436524Y-17910000D01*
X22417476Y-17881429D01*
X22407952Y-17871905D01*
D16*
X15895000Y-18213000D02*
X16017000Y-18335000D01*
X16017000Y-18213000D02*
X15895000Y-18335000D01*
X16017000Y-18274000D02*
G75*
G03*
X16017000Y-18274000I-61000J0D01*
G01*
D11*
X16379381Y-18364476D02*
X16265095Y-18364476D01*
X16322238Y-18364476D02*
X16322238Y-18164476D01*
X16303190Y-18193048D01*
X16284143Y-18212095D01*
X16265095Y-18221619D01*
X16465095Y-18345429D02*
X16474619Y-18354952D01*
X16465095Y-18364476D01*
X16455571Y-18354952D01*
X16465095Y-18345429D01*
X16465095Y-18364476D01*
X16550809Y-18183524D02*
X16560333Y-18174000D01*
X16579381Y-18164476D01*
X16627000Y-18164476D01*
X16646048Y-18174000D01*
X16655571Y-18183524D01*
X16665095Y-18202571D01*
X16665095Y-18221619D01*
X16655571Y-18250190D01*
X16541286Y-18364476D01*
X16665095Y-18364476D01*
X16741286Y-18183524D02*
X16750809Y-18174000D01*
X16769857Y-18164476D01*
X16817476Y-18164476D01*
X16836524Y-18174000D01*
X16846048Y-18183524D01*
X16855571Y-18202571D01*
X16855571Y-18221619D01*
X16846048Y-18250190D01*
X16731762Y-18364476D01*
X16855571Y-18364476D01*
X16979381Y-18164476D02*
X16998429Y-18164476D01*
X17017476Y-18174000D01*
X17027000Y-18183524D01*
X17036524Y-18202571D01*
X17046048Y-18240667D01*
X17046048Y-18288286D01*
X17036524Y-18326381D01*
X17027000Y-18345429D01*
X17017476Y-18354952D01*
X16998429Y-18364476D01*
X16979381Y-18364476D01*
X16960333Y-18354952D01*
X16950810Y-18345429D01*
X16941286Y-18326381D01*
X16931762Y-18288286D01*
X16931762Y-18240667D01*
X16941286Y-18202571D01*
X16950810Y-18183524D01*
X16960333Y-18174000D01*
X16979381Y-18164476D01*
X17131762Y-18364476D02*
X17131762Y-18231143D01*
X17131762Y-18250190D02*
X17141286Y-18240667D01*
X17160333Y-18231143D01*
X17188905Y-18231143D01*
X17207952Y-18240667D01*
X17217476Y-18259714D01*
X17217476Y-18364476D01*
X17217476Y-18259714D02*
X17227000Y-18240667D01*
X17246048Y-18231143D01*
X17274619Y-18231143D01*
X17293667Y-18240667D01*
X17303190Y-18259714D01*
X17303190Y-18364476D01*
X17398429Y-18364476D02*
X17398429Y-18231143D01*
X17398429Y-18250190D02*
X17407952Y-18240667D01*
X17427000Y-18231143D01*
X17455571Y-18231143D01*
X17474619Y-18240667D01*
X17484143Y-18259714D01*
X17484143Y-18364476D01*
X17484143Y-18259714D02*
X17493667Y-18240667D01*
X17512714Y-18231143D01*
X17541286Y-18231143D01*
X17560333Y-18240667D01*
X17569857Y-18259714D01*
X17569857Y-18364476D01*
X17960333Y-18154952D02*
X17788905Y-18412095D01*
X18217476Y-18164476D02*
X18236524Y-18164476D01*
X18255571Y-18174000D01*
X18265095Y-18183524D01*
X18274619Y-18202571D01*
X18284143Y-18240667D01*
X18284143Y-18288286D01*
X18274619Y-18326381D01*
X18265095Y-18345429D01*
X18255571Y-18354952D01*
X18236524Y-18364476D01*
X18217476Y-18364476D01*
X18198429Y-18354952D01*
X18188905Y-18345429D01*
X18179381Y-18326381D01*
X18169857Y-18288286D01*
X18169857Y-18240667D01*
X18179381Y-18202571D01*
X18188905Y-18183524D01*
X18198429Y-18174000D01*
X18217476Y-18164476D01*
X18369857Y-18345429D02*
X18379381Y-18354952D01*
X18369857Y-18364476D01*
X18360333Y-18354952D01*
X18369857Y-18345429D01*
X18369857Y-18364476D01*
X18503190Y-18164476D02*
X18522238Y-18164476D01*
X18541286Y-18174000D01*
X18550810Y-18183524D01*
X18560333Y-18202571D01*
X18569857Y-18240667D01*
X18569857Y-18288286D01*
X18560333Y-18326381D01*
X18550810Y-18345429D01*
X18541286Y-18354952D01*
X18522238Y-18364476D01*
X18503190Y-18364476D01*
X18484143Y-18354952D01*
X18474619Y-18345429D01*
X18465095Y-18326381D01*
X18455571Y-18288286D01*
X18455571Y-18240667D01*
X18465095Y-18202571D01*
X18474619Y-18183524D01*
X18484143Y-18174000D01*
X18503190Y-18164476D01*
X18741286Y-18231143D02*
X18741286Y-18364476D01*
X18693667Y-18154952D02*
X18646048Y-18297810D01*
X18769857Y-18297810D01*
X18874619Y-18250190D02*
X18855571Y-18240667D01*
X18846048Y-18231143D01*
X18836524Y-18212095D01*
X18836524Y-18202571D01*
X18846048Y-18183524D01*
X18855571Y-18174000D01*
X18874619Y-18164476D01*
X18912714Y-18164476D01*
X18931762Y-18174000D01*
X18941286Y-18183524D01*
X18950810Y-18202571D01*
X18950810Y-18212095D01*
X18941286Y-18231143D01*
X18931762Y-18240667D01*
X18912714Y-18250190D01*
X18874619Y-18250190D01*
X18855571Y-18259714D01*
X18846048Y-18269238D01*
X18836524Y-18288286D01*
X18836524Y-18326381D01*
X18846048Y-18345429D01*
X18855571Y-18354952D01*
X18874619Y-18364476D01*
X18912714Y-18364476D01*
X18931762Y-18354952D01*
X18941286Y-18345429D01*
X18950810Y-18326381D01*
X18950810Y-18288286D01*
X18941286Y-18269238D01*
X18931762Y-18259714D01*
X18912714Y-18250190D01*
X19074619Y-18164476D02*
X19093667Y-18164476D01*
X19112714Y-18174000D01*
X19122238Y-18183524D01*
X19131762Y-18202571D01*
X19141286Y-18240667D01*
X19141286Y-18288286D01*
X19131762Y-18326381D01*
X19122238Y-18345429D01*
X19112714Y-18354952D01*
X19093667Y-18364476D01*
X19074619Y-18364476D01*
X19055571Y-18354952D01*
X19046048Y-18345429D01*
X19036524Y-18326381D01*
X19027000Y-18288286D01*
X19027000Y-18240667D01*
X19036524Y-18202571D01*
X19046048Y-18183524D01*
X19055571Y-18174000D01*
X19074619Y-18164476D01*
X19217476Y-18164476D02*
X19217476Y-18202571D01*
X19293667Y-18164476D02*
X19293667Y-18202571D01*
X19588905Y-18440667D02*
X19579381Y-18431143D01*
X19560333Y-18402571D01*
X19550810Y-18383524D01*
X19541286Y-18354952D01*
X19531762Y-18307333D01*
X19531762Y-18269238D01*
X19541286Y-18221619D01*
X19550810Y-18193048D01*
X19560333Y-18174000D01*
X19579381Y-18145429D01*
X19588905Y-18135905D01*
X19769857Y-18364476D02*
X19655571Y-18364476D01*
X19712714Y-18364476D02*
X19712714Y-18164476D01*
X19693667Y-18193048D01*
X19674619Y-18212095D01*
X19655571Y-18221619D01*
X20007952Y-18364476D02*
X20007952Y-18164476D01*
X20093667Y-18364476D02*
X20093667Y-18259714D01*
X20084143Y-18240667D01*
X20065095Y-18231143D01*
X20036524Y-18231143D01*
X20017476Y-18240667D01*
X20007952Y-18250190D01*
X20217476Y-18364476D02*
X20198429Y-18354952D01*
X20188905Y-18345429D01*
X20179381Y-18326381D01*
X20179381Y-18269238D01*
X20188905Y-18250190D01*
X20198429Y-18240667D01*
X20217476Y-18231143D01*
X20246048Y-18231143D01*
X20265095Y-18240667D01*
X20274619Y-18250190D01*
X20284143Y-18269238D01*
X20284143Y-18326381D01*
X20274619Y-18345429D01*
X20265095Y-18354952D01*
X20246048Y-18364476D01*
X20217476Y-18364476D01*
X20398429Y-18364476D02*
X20379381Y-18354952D01*
X20369857Y-18335905D01*
X20369857Y-18164476D01*
X20550810Y-18354952D02*
X20531762Y-18364476D01*
X20493667Y-18364476D01*
X20474619Y-18354952D01*
X20465095Y-18335905D01*
X20465095Y-18259714D01*
X20474619Y-18240667D01*
X20493667Y-18231143D01*
X20531762Y-18231143D01*
X20550810Y-18240667D01*
X20560333Y-18259714D01*
X20560333Y-18278762D01*
X20465095Y-18297810D01*
X20627000Y-18440667D02*
X20636524Y-18431143D01*
X20655571Y-18402571D01*
X20665095Y-18383524D01*
X20674619Y-18354952D01*
X20684143Y-18307333D01*
X20684143Y-18269238D01*
X20674619Y-18221619D01*
X20665095Y-18193048D01*
X20655571Y-18174000D01*
X20636524Y-18145429D01*
X20627000Y-18135905D01*
D17*
X15875000Y-18467000D02*
X16017000Y-18609000D01*
X16017000Y-18467000D02*
X15875000Y-18609000D01*
X15946000Y-18467000D02*
X15946000Y-18609000D01*
X15875000Y-18538000D02*
X16017000Y-18538000D01*
D11*
X16379381Y-18628476D02*
X16265095Y-18628476D01*
X16322238Y-18628476D02*
X16322238Y-18428476D01*
X16303190Y-18457048D01*
X16284143Y-18476095D01*
X16265095Y-18485619D01*
X16465095Y-18609429D02*
X16474619Y-18618952D01*
X16465095Y-18628476D01*
X16455571Y-18618952D01*
X16465095Y-18609429D01*
X16465095Y-18628476D01*
X16646048Y-18495143D02*
X16646048Y-18628476D01*
X16598428Y-18418952D02*
X16550809Y-18561810D01*
X16674619Y-18561810D01*
X16741286Y-18447524D02*
X16750809Y-18438000D01*
X16769857Y-18428476D01*
X16817476Y-18428476D01*
X16836524Y-18438000D01*
X16846048Y-18447524D01*
X16855571Y-18466571D01*
X16855571Y-18485619D01*
X16846048Y-18514190D01*
X16731762Y-18628476D01*
X16855571Y-18628476D01*
X16979381Y-18428476D02*
X16998429Y-18428476D01*
X17017476Y-18438000D01*
X17027000Y-18447524D01*
X17036524Y-18466571D01*
X17046048Y-18504667D01*
X17046048Y-18552286D01*
X17036524Y-18590381D01*
X17027000Y-18609429D01*
X17017476Y-18618952D01*
X16998429Y-18628476D01*
X16979381Y-18628476D01*
X16960333Y-18618952D01*
X16950810Y-18609429D01*
X16941286Y-18590381D01*
X16931762Y-18552286D01*
X16931762Y-18504667D01*
X16941286Y-18466571D01*
X16950810Y-18447524D01*
X16960333Y-18438000D01*
X16979381Y-18428476D01*
X17131762Y-18628476D02*
X17131762Y-18495143D01*
X17131762Y-18514190D02*
X17141286Y-18504667D01*
X17160333Y-18495143D01*
X17188905Y-18495143D01*
X17207952Y-18504667D01*
X17217476Y-18523714D01*
X17217476Y-18628476D01*
X17217476Y-18523714D02*
X17227000Y-18504667D01*
X17246048Y-18495143D01*
X17274619Y-18495143D01*
X17293667Y-18504667D01*
X17303190Y-18523714D01*
X17303190Y-18628476D01*
X17398429Y-18628476D02*
X17398429Y-18495143D01*
X17398429Y-18514190D02*
X17407952Y-18504667D01*
X17427000Y-18495143D01*
X17455571Y-18495143D01*
X17474619Y-18504667D01*
X17484143Y-18523714D01*
X17484143Y-18628476D01*
X17484143Y-18523714D02*
X17493667Y-18504667D01*
X17512714Y-18495143D01*
X17541286Y-18495143D01*
X17560333Y-18504667D01*
X17569857Y-18523714D01*
X17569857Y-18628476D01*
X17960333Y-18418952D02*
X17788905Y-18676095D01*
X18217476Y-18428476D02*
X18236524Y-18428476D01*
X18255571Y-18438000D01*
X18265095Y-18447524D01*
X18274619Y-18466571D01*
X18284143Y-18504667D01*
X18284143Y-18552286D01*
X18274619Y-18590381D01*
X18265095Y-18609429D01*
X18255571Y-18618952D01*
X18236524Y-18628476D01*
X18217476Y-18628476D01*
X18198429Y-18618952D01*
X18188905Y-18609429D01*
X18179381Y-18590381D01*
X18169857Y-18552286D01*
X18169857Y-18504667D01*
X18179381Y-18466571D01*
X18188905Y-18447524D01*
X18198429Y-18438000D01*
X18217476Y-18428476D01*
X18369857Y-18609429D02*
X18379381Y-18618952D01*
X18369857Y-18628476D01*
X18360333Y-18618952D01*
X18369857Y-18609429D01*
X18369857Y-18628476D01*
X18503190Y-18428476D02*
X18522238Y-18428476D01*
X18541286Y-18438000D01*
X18550810Y-18447524D01*
X18560333Y-18466571D01*
X18569857Y-18504667D01*
X18569857Y-18552286D01*
X18560333Y-18590381D01*
X18550810Y-18609429D01*
X18541286Y-18618952D01*
X18522238Y-18628476D01*
X18503190Y-18628476D01*
X18484143Y-18618952D01*
X18474619Y-18609429D01*
X18465095Y-18590381D01*
X18455571Y-18552286D01*
X18455571Y-18504667D01*
X18465095Y-18466571D01*
X18474619Y-18447524D01*
X18484143Y-18438000D01*
X18503190Y-18428476D01*
X18750810Y-18428476D02*
X18655571Y-18428476D01*
X18646048Y-18523714D01*
X18655571Y-18514190D01*
X18674619Y-18504667D01*
X18722238Y-18504667D01*
X18741286Y-18514190D01*
X18750810Y-18523714D01*
X18760333Y-18542762D01*
X18760333Y-18590381D01*
X18750810Y-18609429D01*
X18741286Y-18618952D01*
X18722238Y-18628476D01*
X18674619Y-18628476D01*
X18655571Y-18618952D01*
X18646048Y-18609429D01*
X18941286Y-18428476D02*
X18846048Y-18428476D01*
X18836524Y-18523714D01*
X18846048Y-18514190D01*
X18865095Y-18504667D01*
X18912714Y-18504667D01*
X18931762Y-18514190D01*
X18941286Y-18523714D01*
X18950810Y-18542762D01*
X18950810Y-18590381D01*
X18941286Y-18609429D01*
X18931762Y-18618952D01*
X18912714Y-18628476D01*
X18865095Y-18628476D01*
X18846048Y-18618952D01*
X18836524Y-18609429D01*
X19046048Y-18628476D02*
X19084143Y-18628476D01*
X19103190Y-18618952D01*
X19112714Y-18609429D01*
X19131762Y-18580857D01*
X19141286Y-18542762D01*
X19141286Y-18466571D01*
X19131762Y-18447524D01*
X19122238Y-18438000D01*
X19103190Y-18428476D01*
X19065095Y-18428476D01*
X19046048Y-18438000D01*
X19036524Y-18447524D01*
X19027000Y-18466571D01*
X19027000Y-18514190D01*
X19036524Y-18533238D01*
X19046048Y-18542762D01*
X19065095Y-18552286D01*
X19103190Y-18552286D01*
X19122238Y-18542762D01*
X19131762Y-18533238D01*
X19141286Y-18514190D01*
X19217476Y-18428476D02*
X19217476Y-18466571D01*
X19293667Y-18428476D02*
X19293667Y-18466571D01*
X19588905Y-18704667D02*
X19579381Y-18695143D01*
X19560333Y-18666571D01*
X19550810Y-18647524D01*
X19541286Y-18618952D01*
X19531762Y-18571333D01*
X19531762Y-18533238D01*
X19541286Y-18485619D01*
X19550810Y-18457048D01*
X19560333Y-18438000D01*
X19579381Y-18409429D01*
X19588905Y-18399905D01*
X19769857Y-18628476D02*
X19655571Y-18628476D01*
X19712714Y-18628476D02*
X19712714Y-18428476D01*
X19693667Y-18457048D01*
X19674619Y-18476095D01*
X19655571Y-18485619D01*
X20007952Y-18628476D02*
X20007952Y-18428476D01*
X20093667Y-18628476D02*
X20093667Y-18523714D01*
X20084143Y-18504667D01*
X20065095Y-18495143D01*
X20036524Y-18495143D01*
X20017476Y-18504667D01*
X20007952Y-18514190D01*
X20217476Y-18628476D02*
X20198429Y-18618952D01*
X20188905Y-18609429D01*
X20179381Y-18590381D01*
X20179381Y-18533238D01*
X20188905Y-18514190D01*
X20198429Y-18504667D01*
X20217476Y-18495143D01*
X20246048Y-18495143D01*
X20265095Y-18504667D01*
X20274619Y-18514190D01*
X20284143Y-18533238D01*
X20284143Y-18590381D01*
X20274619Y-18609429D01*
X20265095Y-18618952D01*
X20246048Y-18628476D01*
X20217476Y-18628476D01*
X20398429Y-18628476D02*
X20379381Y-18618952D01*
X20369857Y-18599905D01*
X20369857Y-18428476D01*
X20550810Y-18618952D02*
X20531762Y-18628476D01*
X20493667Y-18628476D01*
X20474619Y-18618952D01*
X20465095Y-18599905D01*
X20465095Y-18523714D01*
X20474619Y-18504667D01*
X20493667Y-18495143D01*
X20531762Y-18495143D01*
X20550810Y-18504667D01*
X20560333Y-18523714D01*
X20560333Y-18542762D01*
X20465095Y-18561810D01*
X20627000Y-18704667D02*
X20636524Y-18695143D01*
X20655571Y-18666571D01*
X20665095Y-18647524D01*
X20674619Y-18618952D01*
X20684143Y-18571333D01*
X20684143Y-18533238D01*
X20674619Y-18485619D01*
X20665095Y-18457048D01*
X20655571Y-18438000D01*
X20636524Y-18409429D01*
X20627000Y-18399905D01*
D18*
X15874000Y-18730500D02*
X16017000Y-18873500D01*
X16017000Y-18730500D02*
X15874000Y-18873500D01*
X15996059Y-18852559D02*
X15996059Y-18751441D01*
X15894941Y-18751441D01*
X15894941Y-18852559D01*
X15996059Y-18852559D01*
D11*
X16379381Y-18892476D02*
X16265095Y-18892476D01*
X16322238Y-18892476D02*
X16322238Y-18692476D01*
X16303190Y-18721048D01*
X16284143Y-18740095D01*
X16265095Y-18749619D01*
X16465095Y-18873429D02*
X16474619Y-18882952D01*
X16465095Y-18892476D01*
X16455571Y-18882952D01*
X16465095Y-18873429D01*
X16465095Y-18892476D01*
X16646048Y-18759143D02*
X16646048Y-18892476D01*
X16598428Y-18682952D02*
X16550809Y-18825810D01*
X16674619Y-18825810D01*
X16731762Y-18692476D02*
X16855571Y-18692476D01*
X16788905Y-18768667D01*
X16817476Y-18768667D01*
X16836524Y-18778190D01*
X16846048Y-18787714D01*
X16855571Y-18806762D01*
X16855571Y-18854381D01*
X16846048Y-18873429D01*
X16836524Y-18882952D01*
X16817476Y-18892476D01*
X16760333Y-18892476D01*
X16741286Y-18882952D01*
X16731762Y-18873429D01*
X16979381Y-18692476D02*
X16998429Y-18692476D01*
X17017476Y-18702000D01*
X17027000Y-18711524D01*
X17036524Y-18730571D01*
X17046048Y-18768667D01*
X17046048Y-18816286D01*
X17036524Y-18854381D01*
X17027000Y-18873429D01*
X17017476Y-18882952D01*
X16998429Y-18892476D01*
X16979381Y-18892476D01*
X16960333Y-18882952D01*
X16950810Y-18873429D01*
X16941286Y-18854381D01*
X16931762Y-18816286D01*
X16931762Y-18768667D01*
X16941286Y-18730571D01*
X16950810Y-18711524D01*
X16960333Y-18702000D01*
X16979381Y-18692476D01*
X17131762Y-18892476D02*
X17131762Y-18759143D01*
X17131762Y-18778190D02*
X17141286Y-18768667D01*
X17160333Y-18759143D01*
X17188905Y-18759143D01*
X17207952Y-18768667D01*
X17217476Y-18787714D01*
X17217476Y-18892476D01*
X17217476Y-18787714D02*
X17227000Y-18768667D01*
X17246048Y-18759143D01*
X17274619Y-18759143D01*
X17293667Y-18768667D01*
X17303190Y-18787714D01*
X17303190Y-18892476D01*
X17398429Y-18892476D02*
X17398429Y-18759143D01*
X17398429Y-18778190D02*
X17407952Y-18768667D01*
X17427000Y-18759143D01*
X17455571Y-18759143D01*
X17474619Y-18768667D01*
X17484143Y-18787714D01*
X17484143Y-18892476D01*
X17484143Y-18787714D02*
X17493667Y-18768667D01*
X17512714Y-18759143D01*
X17541286Y-18759143D01*
X17560333Y-18768667D01*
X17569857Y-18787714D01*
X17569857Y-18892476D01*
X17960333Y-18682952D02*
X17788905Y-18940095D01*
X18217476Y-18692476D02*
X18236524Y-18692476D01*
X18255571Y-18702000D01*
X18265095Y-18711524D01*
X18274619Y-18730571D01*
X18284143Y-18768667D01*
X18284143Y-18816286D01*
X18274619Y-18854381D01*
X18265095Y-18873429D01*
X18255571Y-18882952D01*
X18236524Y-18892476D01*
X18217476Y-18892476D01*
X18198429Y-18882952D01*
X18188905Y-18873429D01*
X18179381Y-18854381D01*
X18169857Y-18816286D01*
X18169857Y-18768667D01*
X18179381Y-18730571D01*
X18188905Y-18711524D01*
X18198429Y-18702000D01*
X18217476Y-18692476D01*
X18369857Y-18873429D02*
X18379381Y-18882952D01*
X18369857Y-18892476D01*
X18360333Y-18882952D01*
X18369857Y-18873429D01*
X18369857Y-18892476D01*
X18503190Y-18692476D02*
X18522238Y-18692476D01*
X18541286Y-18702000D01*
X18550810Y-18711524D01*
X18560333Y-18730571D01*
X18569857Y-18768667D01*
X18569857Y-18816286D01*
X18560333Y-18854381D01*
X18550810Y-18873429D01*
X18541286Y-18882952D01*
X18522238Y-18892476D01*
X18503190Y-18892476D01*
X18484143Y-18882952D01*
X18474619Y-18873429D01*
X18465095Y-18854381D01*
X18455571Y-18816286D01*
X18455571Y-18768667D01*
X18465095Y-18730571D01*
X18474619Y-18711524D01*
X18484143Y-18702000D01*
X18503190Y-18692476D01*
X18750810Y-18692476D02*
X18655571Y-18692476D01*
X18646048Y-18787714D01*
X18655571Y-18778190D01*
X18674619Y-18768667D01*
X18722238Y-18768667D01*
X18741286Y-18778190D01*
X18750810Y-18787714D01*
X18760333Y-18806762D01*
X18760333Y-18854381D01*
X18750810Y-18873429D01*
X18741286Y-18882952D01*
X18722238Y-18892476D01*
X18674619Y-18892476D01*
X18655571Y-18882952D01*
X18646048Y-18873429D01*
X18931762Y-18692476D02*
X18893667Y-18692476D01*
X18874619Y-18702000D01*
X18865095Y-18711524D01*
X18846048Y-18740095D01*
X18836524Y-18778190D01*
X18836524Y-18854381D01*
X18846048Y-18873429D01*
X18855571Y-18882952D01*
X18874619Y-18892476D01*
X18912714Y-18892476D01*
X18931762Y-18882952D01*
X18941286Y-18873429D01*
X18950810Y-18854381D01*
X18950810Y-18806762D01*
X18941286Y-18787714D01*
X18931762Y-18778190D01*
X18912714Y-18768667D01*
X18874619Y-18768667D01*
X18855571Y-18778190D01*
X18846048Y-18787714D01*
X18836524Y-18806762D01*
X19017476Y-18692476D02*
X19141286Y-18692476D01*
X19074619Y-18768667D01*
X19103190Y-18768667D01*
X19122238Y-18778190D01*
X19131762Y-18787714D01*
X19141286Y-18806762D01*
X19141286Y-18854381D01*
X19131762Y-18873429D01*
X19122238Y-18882952D01*
X19103190Y-18892476D01*
X19046048Y-18892476D01*
X19027000Y-18882952D01*
X19017476Y-18873429D01*
X19217476Y-18692476D02*
X19217476Y-18730571D01*
X19293667Y-18692476D02*
X19293667Y-18730571D01*
X19588905Y-18968667D02*
X19579381Y-18959143D01*
X19560333Y-18930571D01*
X19550810Y-18911524D01*
X19541286Y-18882952D01*
X19531762Y-18835333D01*
X19531762Y-18797238D01*
X19541286Y-18749619D01*
X19550810Y-18721048D01*
X19560333Y-18702000D01*
X19579381Y-18673429D01*
X19588905Y-18663905D01*
X19769857Y-18892476D02*
X19655571Y-18892476D01*
X19712714Y-18892476D02*
X19712714Y-18692476D01*
X19693667Y-18721048D01*
X19674619Y-18740095D01*
X19655571Y-18749619D01*
X20007952Y-18892476D02*
X20007952Y-18692476D01*
X20093667Y-18892476D02*
X20093667Y-18787714D01*
X20084143Y-18768667D01*
X20065095Y-18759143D01*
X20036524Y-18759143D01*
X20017476Y-18768667D01*
X20007952Y-18778190D01*
X20217476Y-18892476D02*
X20198429Y-18882952D01*
X20188905Y-18873429D01*
X20179381Y-18854381D01*
X20179381Y-18797238D01*
X20188905Y-18778190D01*
X20198429Y-18768667D01*
X20217476Y-18759143D01*
X20246048Y-18759143D01*
X20265095Y-18768667D01*
X20274619Y-18778190D01*
X20284143Y-18797238D01*
X20284143Y-18854381D01*
X20274619Y-18873429D01*
X20265095Y-18882952D01*
X20246048Y-18892476D01*
X20217476Y-18892476D01*
X20398429Y-18892476D02*
X20379381Y-18882952D01*
X20369857Y-18863905D01*
X20369857Y-18692476D01*
X20550810Y-18882952D02*
X20531762Y-18892476D01*
X20493667Y-18892476D01*
X20474619Y-18882952D01*
X20465095Y-18863905D01*
X20465095Y-18787714D01*
X20474619Y-18768667D01*
X20493667Y-18759143D01*
X20531762Y-18759143D01*
X20550810Y-18768667D01*
X20560333Y-18787714D01*
X20560333Y-18806762D01*
X20465095Y-18825810D01*
X20627000Y-18968667D02*
X20636524Y-18959143D01*
X20655571Y-18930571D01*
X20665095Y-18911524D01*
X20674619Y-18882952D01*
X20684143Y-18835333D01*
X20684143Y-18797238D01*
X20674619Y-18749619D01*
X20665095Y-18721048D01*
X20655571Y-18702000D01*
X20636524Y-18673429D01*
X20627000Y-18663905D01*
M02*
