%TF.GenerationSoftware,KiCad,Pcbnew,6.0.11+dfsg-1~bpo11+1*%
%TF.CreationDate,2023-03-01T11:09:31+08:00*%
%TF.ProjectId,MiniLFO v1.0 - Main,4d696e69-4c46-44f2-9076-312e30202d20,rev?*%
%TF.SameCoordinates,Original*%
%TF.FileFunction,Drillmap*%
%TF.FilePolarity,Positive*%
%FSLAX45Y45*%
G04 Gerber Fmt 4.5, Leading zero omitted, Abs format (unit mm)*
G04 Created by KiCad (PCBNEW 6.0.11+dfsg-1~bpo11+1) date 2023-03-01 11:09:31*
%MOMM*%
%LPD*%
G01*
G04 APERTURE LIST*
%ADD10C,0.100000*%
%ADD11C,0.200000*%
G04 APERTURE END LIST*
D10*
X16022000Y-16309000D02*
X16022000Y-6009000D01*
X17022000Y-6009000D02*
X17017000Y-16309000D01*
X16022000Y-6009000D02*
X17022000Y-6009000D01*
X17017000Y-16309000D02*
X16022000Y-16309000D01*
D11*
X16274619Y-16624476D02*
X16274619Y-16424476D01*
X16322238Y-16424476D01*
X16350809Y-16434000D01*
X16369857Y-16453048D01*
X16379381Y-16472095D01*
X16388905Y-16510190D01*
X16388905Y-16538762D01*
X16379381Y-16576857D01*
X16369857Y-16595905D01*
X16350809Y-16614952D01*
X16322238Y-16624476D01*
X16274619Y-16624476D01*
X16474619Y-16624476D02*
X16474619Y-16491143D01*
X16474619Y-16529238D02*
X16484143Y-16510190D01*
X16493667Y-16500667D01*
X16512714Y-16491143D01*
X16531762Y-16491143D01*
X16598428Y-16624476D02*
X16598428Y-16491143D01*
X16598428Y-16424476D02*
X16588905Y-16434000D01*
X16598428Y-16443524D01*
X16607952Y-16434000D01*
X16598428Y-16424476D01*
X16598428Y-16443524D01*
X16722238Y-16624476D02*
X16703190Y-16614952D01*
X16693667Y-16595905D01*
X16693667Y-16424476D01*
X16827000Y-16624476D02*
X16807952Y-16614952D01*
X16798429Y-16595905D01*
X16798429Y-16424476D01*
X17055571Y-16624476D02*
X17055571Y-16424476D01*
X17122238Y-16567333D01*
X17188905Y-16424476D01*
X17188905Y-16624476D01*
X17369857Y-16624476D02*
X17369857Y-16519714D01*
X17360333Y-16500667D01*
X17341286Y-16491143D01*
X17303190Y-16491143D01*
X17284143Y-16500667D01*
X17369857Y-16614952D02*
X17350810Y-16624476D01*
X17303190Y-16624476D01*
X17284143Y-16614952D01*
X17274619Y-16595905D01*
X17274619Y-16576857D01*
X17284143Y-16557809D01*
X17303190Y-16548286D01*
X17350810Y-16548286D01*
X17369857Y-16538762D01*
X17465095Y-16491143D02*
X17465095Y-16691143D01*
X17465095Y-16500667D02*
X17484143Y-16491143D01*
X17522238Y-16491143D01*
X17541286Y-16500667D01*
X17550810Y-16510190D01*
X17560333Y-16529238D01*
X17560333Y-16586381D01*
X17550810Y-16605428D01*
X17541286Y-16614952D01*
X17522238Y-16624476D01*
X17484143Y-16624476D01*
X17465095Y-16614952D01*
X17646048Y-16605428D02*
X17655571Y-16614952D01*
X17646048Y-16624476D01*
X17636524Y-16614952D01*
X17646048Y-16605428D01*
X17646048Y-16624476D01*
X17646048Y-16500667D02*
X17655571Y-16510190D01*
X17646048Y-16519714D01*
X17636524Y-16510190D01*
X17646048Y-16500667D01*
X17646048Y-16519714D01*
M02*
