%TF.GenerationSoftware,KiCad,Pcbnew,6.0.11+dfsg-1~bpo11+1*%
%TF.CreationDate,2023-03-01T11:09:29+08:00*%
%TF.ProjectId,MiniLFO v1.0 - Main,4d696e69-4c46-44f2-9076-312e30202d20,rev?*%
%TF.SameCoordinates,Original*%
%TF.FileFunction,Soldermask,Bot*%
%TF.FilePolarity,Negative*%
%FSLAX46Y46*%
G04 Gerber Fmt 4.6, Leading zero omitted, Abs format (unit mm)*
G04 Created by KiCad (PCBNEW 6.0.11+dfsg-1~bpo11+1) date 2023-03-01 11:09:29*
%MOMM*%
%LPD*%
G01*
G04 APERTURE LIST*
G04 Aperture macros list*
%AMRoundRect*
0 Rectangle with rounded corners*
0 $1 Rounding radius*
0 $2 $3 $4 $5 $6 $7 $8 $9 X,Y pos of 4 corners*
0 Add a 4 corners polygon primitive as box body*
4,1,4,$2,$3,$4,$5,$6,$7,$8,$9,$2,$3,0*
0 Add four circle primitives for the rounded corners*
1,1,$1+$1,$2,$3*
1,1,$1+$1,$4,$5*
1,1,$1+$1,$6,$7*
1,1,$1+$1,$8,$9*
0 Add four rect primitives between the rounded corners*
20,1,$1+$1,$2,$3,$4,$5,0*
20,1,$1+$1,$4,$5,$6,$7,0*
20,1,$1+$1,$6,$7,$8,$9,0*
20,1,$1+$1,$8,$9,$2,$3,0*%
G04 Aperture macros list end*
%ADD10O,2.720000X3.240000*%
%ADD11R,1.800000X1.800000*%
%ADD12C,1.800000*%
%ADD13R,1.930000X1.830000*%
%ADD14C,2.130000*%
%ADD15O,3.200000X1.800000*%
%ADD16RoundRect,0.250000X0.337500X0.475000X-0.337500X0.475000X-0.337500X-0.475000X0.337500X-0.475000X0*%
%ADD17R,1.600000X1.600000*%
%ADD18C,1.600000*%
%ADD19RoundRect,0.237500X-0.237500X0.250000X-0.237500X-0.250000X0.237500X-0.250000X0.237500X0.250000X0*%
%ADD20RoundRect,0.237500X0.237500X-0.250000X0.237500X0.250000X-0.237500X0.250000X-0.237500X-0.250000X0*%
%ADD21RoundRect,0.150000X0.825000X0.150000X-0.825000X0.150000X-0.825000X-0.150000X0.825000X-0.150000X0*%
%ADD22RoundRect,0.237500X-0.250000X-0.237500X0.250000X-0.237500X0.250000X0.237500X-0.250000X0.237500X0*%
%ADD23RoundRect,0.250000X0.475000X-0.337500X0.475000X0.337500X-0.475000X0.337500X-0.475000X-0.337500X0*%
%ADD24RoundRect,0.250000X-0.600000X-0.600000X0.600000X-0.600000X0.600000X0.600000X-0.600000X0.600000X0*%
%ADD25C,1.700000*%
G04 APERTURE END LIST*
D10*
%TO.C,TIME1*%
X160400000Y-111000000D03*
X170000000Y-111000000D03*
D11*
X162700000Y-118500000D03*
D12*
X165200000Y-118500000D03*
X167700000Y-118500000D03*
%TD*%
D10*
%TO.C,RANGE1*%
X160400000Y-90750000D03*
X170000000Y-90750000D03*
D11*
X162700000Y-98250000D03*
D12*
X165200000Y-98250000D03*
X167700000Y-98250000D03*
%TD*%
D13*
%TO.C,TRI_OUT1*%
X165220000Y-150190000D03*
D14*
X165220000Y-161590000D03*
X165220000Y-153290000D03*
%TD*%
D15*
%TO.C,RANGE_SW1*%
X162773000Y-66340000D03*
X162773000Y-71040000D03*
X162773000Y-75740000D03*
X167573000Y-66340000D03*
X167573000Y-71040000D03*
X167573000Y-75740000D03*
%TD*%
D11*
%TO.C,D1*%
X163943000Y-146390000D03*
D12*
X166483000Y-146390000D03*
%TD*%
D16*
%TO.C,C3*%
X164137500Y-120750000D03*
X162062500Y-120750000D03*
%TD*%
D17*
%TO.C,C1*%
X167273000Y-82993113D03*
D18*
X167273000Y-80493113D03*
%TD*%
D19*
%TO.C,R4*%
X166050000Y-110587500D03*
X166050000Y-112412500D03*
%TD*%
D20*
%TO.C,R2*%
X164500000Y-112412500D03*
X164500000Y-110587500D03*
%TD*%
%TO.C,R3*%
X167625000Y-95637500D03*
X167625000Y-93812500D03*
%TD*%
D21*
%TO.C,U1*%
X166965000Y-100680000D03*
X166965000Y-101950000D03*
X166965000Y-103220000D03*
X166965000Y-104490000D03*
X166965000Y-105760000D03*
X166965000Y-107030000D03*
X166965000Y-108300000D03*
X162015000Y-108300000D03*
X162015000Y-107030000D03*
X162015000Y-105760000D03*
X162015000Y-104490000D03*
X162015000Y-103220000D03*
X162015000Y-101950000D03*
X162015000Y-100680000D03*
%TD*%
D22*
%TO.C,R6*%
X165837500Y-120500000D03*
X167662500Y-120500000D03*
%TD*%
D23*
%TO.C,C6*%
X161700000Y-147087500D03*
X161700000Y-145012500D03*
%TD*%
D19*
%TO.C,R5*%
X167600000Y-110587500D03*
X167600000Y-112412500D03*
%TD*%
D20*
%TO.C,R8*%
X168500000Y-146712500D03*
X168500000Y-144887500D03*
%TD*%
D18*
%TO.C,C2*%
X162270000Y-84140000D03*
X162270000Y-79140000D03*
%TD*%
D20*
%TO.C,R1*%
X162950000Y-112412500D03*
X162950000Y-110587500D03*
%TD*%
%TO.C,R7*%
X161300000Y-115462500D03*
X161300000Y-113637500D03*
%TD*%
D24*
%TO.C,J1*%
X163930000Y-138330000D03*
D25*
X166470000Y-138330000D03*
X163930000Y-135790000D03*
X166470000Y-135790000D03*
X163930000Y-133250000D03*
X166470000Y-133250000D03*
X163930000Y-130710000D03*
X166470000Y-130710000D03*
X163930000Y-128170000D03*
X166470000Y-128170000D03*
%TD*%
M02*
