%TF.GenerationSoftware,KiCad,Pcbnew,6.0.11+dfsg-1~bpo11+1*%
%TF.CreationDate,2023-03-01T11:09:29+08:00*%
%TF.ProjectId,MiniLFO v1.0 - Main,4d696e69-4c46-44f2-9076-312e30202d20,rev?*%
%TF.SameCoordinates,Original*%
%TF.FileFunction,AssemblyDrawing,Top*%
%FSLAX46Y46*%
G04 Gerber Fmt 4.6, Leading zero omitted, Abs format (unit mm)*
G04 Created by KiCad (PCBNEW 6.0.11+dfsg-1~bpo11+1) date 2023-03-01 11:09:29*
%MOMM*%
%LPD*%
G01*
G04 APERTURE LIST*
%ADD10C,0.150000*%
%ADD11C,0.060000*%
%ADD12C,0.100000*%
G04 APERTURE END LIST*
D10*
%TO.C,TIME1*%
X172628571Y-112761904D02*
X172676190Y-112619047D01*
X172723809Y-112571428D01*
X172819047Y-112523809D01*
X172961904Y-112523809D01*
X173057142Y-112571428D01*
X173104761Y-112619047D01*
X173152380Y-112714285D01*
X173152380Y-113095238D01*
X172152380Y-113095238D01*
X172152380Y-112761904D01*
X172200000Y-112666666D01*
X172247619Y-112619047D01*
X172342857Y-112571428D01*
X172438095Y-112571428D01*
X172533333Y-112619047D01*
X172580952Y-112666666D01*
X172628571Y-112761904D01*
X172628571Y-113095238D01*
X173152380Y-111571428D02*
X173152380Y-112142857D01*
X173152380Y-111857142D02*
X172152380Y-111857142D01*
X172295238Y-111952380D01*
X172390476Y-112047619D01*
X172438095Y-112142857D01*
X172152380Y-110952380D02*
X172152380Y-110857142D01*
X172200000Y-110761904D01*
X172247619Y-110714285D01*
X172342857Y-110666666D01*
X172533333Y-110619047D01*
X172771428Y-110619047D01*
X172961904Y-110666666D01*
X173057142Y-110714285D01*
X173104761Y-110761904D01*
X173152380Y-110857142D01*
X173152380Y-110952380D01*
X173104761Y-111047619D01*
X173057142Y-111095238D01*
X172961904Y-111142857D01*
X172771428Y-111190476D01*
X172533333Y-111190476D01*
X172342857Y-111142857D01*
X172247619Y-111095238D01*
X172200000Y-111047619D01*
X172152380Y-110952380D01*
X172152380Y-110000000D02*
X172152380Y-109904761D01*
X172200000Y-109809523D01*
X172247619Y-109761904D01*
X172342857Y-109714285D01*
X172533333Y-109666666D01*
X172771428Y-109666666D01*
X172961904Y-109714285D01*
X173057142Y-109761904D01*
X173104761Y-109809523D01*
X173152380Y-109904761D01*
X173152380Y-110000000D01*
X173104761Y-110095238D01*
X173057142Y-110142857D01*
X172961904Y-110190476D01*
X172771428Y-110238095D01*
X172533333Y-110238095D01*
X172342857Y-110190476D01*
X172247619Y-110142857D01*
X172200000Y-110095238D01*
X172152380Y-110000000D01*
X173152380Y-109238095D02*
X172152380Y-109238095D01*
X172771428Y-109142857D02*
X173152380Y-108857142D01*
X172485714Y-108857142D02*
X172866666Y-109238095D01*
%TO.C,RANGE1*%
X172628571Y-92511904D02*
X172676190Y-92369047D01*
X172723809Y-92321428D01*
X172819047Y-92273809D01*
X172961904Y-92273809D01*
X173057142Y-92321428D01*
X173104761Y-92369047D01*
X173152380Y-92464285D01*
X173152380Y-92845238D01*
X172152380Y-92845238D01*
X172152380Y-92511904D01*
X172200000Y-92416666D01*
X172247619Y-92369047D01*
X172342857Y-92321428D01*
X172438095Y-92321428D01*
X172533333Y-92369047D01*
X172580952Y-92416666D01*
X172628571Y-92511904D01*
X172628571Y-92845238D01*
X173152380Y-91321428D02*
X173152380Y-91892857D01*
X173152380Y-91607142D02*
X172152380Y-91607142D01*
X172295238Y-91702380D01*
X172390476Y-91797619D01*
X172438095Y-91892857D01*
X172152380Y-90702380D02*
X172152380Y-90607142D01*
X172200000Y-90511904D01*
X172247619Y-90464285D01*
X172342857Y-90416666D01*
X172533333Y-90369047D01*
X172771428Y-90369047D01*
X172961904Y-90416666D01*
X173057142Y-90464285D01*
X173104761Y-90511904D01*
X173152380Y-90607142D01*
X173152380Y-90702380D01*
X173104761Y-90797619D01*
X173057142Y-90845238D01*
X172961904Y-90892857D01*
X172771428Y-90940476D01*
X172533333Y-90940476D01*
X172342857Y-90892857D01*
X172247619Y-90845238D01*
X172200000Y-90797619D01*
X172152380Y-90702380D01*
X172152380Y-89750000D02*
X172152380Y-89654761D01*
X172200000Y-89559523D01*
X172247619Y-89511904D01*
X172342857Y-89464285D01*
X172533333Y-89416666D01*
X172771428Y-89416666D01*
X172961904Y-89464285D01*
X173057142Y-89511904D01*
X173104761Y-89559523D01*
X173152380Y-89654761D01*
X173152380Y-89750000D01*
X173104761Y-89845238D01*
X173057142Y-89892857D01*
X172961904Y-89940476D01*
X172771428Y-89988095D01*
X172533333Y-89988095D01*
X172342857Y-89940476D01*
X172247619Y-89892857D01*
X172200000Y-89845238D01*
X172152380Y-89750000D01*
X173152380Y-88988095D02*
X172152380Y-88988095D01*
X172771428Y-88892857D02*
X173152380Y-88607142D01*
X172485714Y-88607142D02*
X172866666Y-88988095D01*
%TO.C,C5*%
X166602380Y-103187619D02*
X166602380Y-103759047D01*
X166602380Y-103473333D02*
X165602380Y-103473333D01*
X165745238Y-103568571D01*
X165840476Y-103663809D01*
X165888095Y-103759047D01*
X165602380Y-102568571D02*
X165602380Y-102473333D01*
X165650000Y-102378095D01*
X165697619Y-102330476D01*
X165792857Y-102282857D01*
X165983333Y-102235238D01*
X166221428Y-102235238D01*
X166411904Y-102282857D01*
X166507142Y-102330476D01*
X166554761Y-102378095D01*
X166602380Y-102473333D01*
X166602380Y-102568571D01*
X166554761Y-102663809D01*
X166507142Y-102711428D01*
X166411904Y-102759047D01*
X166221428Y-102806666D01*
X165983333Y-102806666D01*
X165792857Y-102759047D01*
X165697619Y-102711428D01*
X165650000Y-102663809D01*
X165602380Y-102568571D01*
X165602380Y-101616190D02*
X165602380Y-101520952D01*
X165650000Y-101425714D01*
X165697619Y-101378095D01*
X165792857Y-101330476D01*
X165983333Y-101282857D01*
X166221428Y-101282857D01*
X166411904Y-101330476D01*
X166507142Y-101378095D01*
X166554761Y-101425714D01*
X166602380Y-101520952D01*
X166602380Y-101616190D01*
X166554761Y-101711428D01*
X166507142Y-101759047D01*
X166411904Y-101806666D01*
X166221428Y-101854285D01*
X165983333Y-101854285D01*
X165792857Y-101806666D01*
X165697619Y-101759047D01*
X165650000Y-101711428D01*
X165602380Y-101616190D01*
X165935714Y-100854285D02*
X166602380Y-100854285D01*
X166030952Y-100854285D02*
X165983333Y-100806666D01*
X165935714Y-100711428D01*
X165935714Y-100568571D01*
X165983333Y-100473333D01*
X166078571Y-100425714D01*
X166602380Y-100425714D01*
X166078571Y-99616190D02*
X166078571Y-99949523D01*
X166602380Y-99949523D02*
X165602380Y-99949523D01*
X165602380Y-99473333D01*
D11*
X164862857Y-101706666D02*
X164881904Y-101725714D01*
X164900952Y-101782857D01*
X164900952Y-101820952D01*
X164881904Y-101878095D01*
X164843809Y-101916190D01*
X164805714Y-101935238D01*
X164729523Y-101954285D01*
X164672380Y-101954285D01*
X164596190Y-101935238D01*
X164558095Y-101916190D01*
X164520000Y-101878095D01*
X164500952Y-101820952D01*
X164500952Y-101782857D01*
X164520000Y-101725714D01*
X164539047Y-101706666D01*
X164500952Y-101344761D02*
X164500952Y-101535238D01*
X164691428Y-101554285D01*
X164672380Y-101535238D01*
X164653333Y-101497142D01*
X164653333Y-101401904D01*
X164672380Y-101363809D01*
X164691428Y-101344761D01*
X164729523Y-101325714D01*
X164824761Y-101325714D01*
X164862857Y-101344761D01*
X164881904Y-101363809D01*
X164900952Y-101401904D01*
X164900952Y-101497142D01*
X164881904Y-101535238D01*
X164862857Y-101554285D01*
D10*
%TO.C,C4*%
X167152380Y-105707619D02*
X167152380Y-106279047D01*
X167152380Y-105993333D02*
X166152380Y-105993333D01*
X166295238Y-106088571D01*
X166390476Y-106183809D01*
X166438095Y-106279047D01*
X166152380Y-105088571D02*
X166152380Y-104993333D01*
X166200000Y-104898095D01*
X166247619Y-104850476D01*
X166342857Y-104802857D01*
X166533333Y-104755238D01*
X166771428Y-104755238D01*
X166961904Y-104802857D01*
X167057142Y-104850476D01*
X167104761Y-104898095D01*
X167152380Y-104993333D01*
X167152380Y-105088571D01*
X167104761Y-105183809D01*
X167057142Y-105231428D01*
X166961904Y-105279047D01*
X166771428Y-105326666D01*
X166533333Y-105326666D01*
X166342857Y-105279047D01*
X166247619Y-105231428D01*
X166200000Y-105183809D01*
X166152380Y-105088571D01*
X166152380Y-104136190D02*
X166152380Y-104040952D01*
X166200000Y-103945714D01*
X166247619Y-103898095D01*
X166342857Y-103850476D01*
X166533333Y-103802857D01*
X166771428Y-103802857D01*
X166961904Y-103850476D01*
X167057142Y-103898095D01*
X167104761Y-103945714D01*
X167152380Y-104040952D01*
X167152380Y-104136190D01*
X167104761Y-104231428D01*
X167057142Y-104279047D01*
X166961904Y-104326666D01*
X166771428Y-104374285D01*
X166533333Y-104374285D01*
X166342857Y-104326666D01*
X166247619Y-104279047D01*
X166200000Y-104231428D01*
X166152380Y-104136190D01*
X166485714Y-103374285D02*
X167152380Y-103374285D01*
X166580952Y-103374285D02*
X166533333Y-103326666D01*
X166485714Y-103231428D01*
X166485714Y-103088571D01*
X166533333Y-102993333D01*
X166628571Y-102945714D01*
X167152380Y-102945714D01*
X166628571Y-102136190D02*
X166628571Y-102469523D01*
X167152380Y-102469523D02*
X166152380Y-102469523D01*
X166152380Y-101993333D01*
D11*
X168272857Y-104226666D02*
X168291904Y-104245714D01*
X168310952Y-104302857D01*
X168310952Y-104340952D01*
X168291904Y-104398095D01*
X168253809Y-104436190D01*
X168215714Y-104455238D01*
X168139523Y-104474285D01*
X168082380Y-104474285D01*
X168006190Y-104455238D01*
X167968095Y-104436190D01*
X167930000Y-104398095D01*
X167910952Y-104340952D01*
X167910952Y-104302857D01*
X167930000Y-104245714D01*
X167949047Y-104226666D01*
X168044285Y-103883809D02*
X168310952Y-103883809D01*
X167891904Y-103979047D02*
X168177619Y-104074285D01*
X168177619Y-103826666D01*
D10*
%TO.C,D1*%
X157403476Y-149802380D02*
X156927285Y-149802380D01*
X156927285Y-148802380D01*
X157736809Y-149278571D02*
X158070142Y-149278571D01*
X158213000Y-149802380D02*
X157736809Y-149802380D01*
X157736809Y-148802380D01*
X158213000Y-148802380D01*
X158641571Y-149802380D02*
X158641571Y-148802380D01*
X158879666Y-148802380D01*
X159022523Y-148850000D01*
X159117761Y-148945238D01*
X159165380Y-149040476D01*
X159213000Y-149230952D01*
X159213000Y-149373809D01*
X159165380Y-149564285D01*
X159117761Y-149659523D01*
X159022523Y-149754761D01*
X158879666Y-149802380D01*
X158641571Y-149802380D01*
X159403476Y-149897619D02*
X160165380Y-149897619D01*
X160403476Y-149802380D02*
X160403476Y-148802380D01*
X160641571Y-148802380D01*
X160784428Y-148850000D01*
X160879666Y-148945238D01*
X160927285Y-149040476D01*
X160974904Y-149230952D01*
X160974904Y-149373809D01*
X160927285Y-149564285D01*
X160879666Y-149659523D01*
X160784428Y-149754761D01*
X160641571Y-149802380D01*
X160403476Y-149802380D01*
X161832047Y-149135714D02*
X161832047Y-149802380D01*
X161403476Y-149135714D02*
X161403476Y-149659523D01*
X161451095Y-149754761D01*
X161546333Y-149802380D01*
X161689190Y-149802380D01*
X161784428Y-149754761D01*
X161832047Y-149707142D01*
X162736809Y-149802380D02*
X162736809Y-149278571D01*
X162689190Y-149183333D01*
X162593952Y-149135714D01*
X162403476Y-149135714D01*
X162308238Y-149183333D01*
X162736809Y-149754761D02*
X162641571Y-149802380D01*
X162403476Y-149802380D01*
X162308238Y-149754761D01*
X162260619Y-149659523D01*
X162260619Y-149564285D01*
X162308238Y-149469047D01*
X162403476Y-149421428D01*
X162641571Y-149421428D01*
X162736809Y-149373809D01*
X163355857Y-149802380D02*
X163260619Y-149754761D01*
X163213000Y-149659523D01*
X163213000Y-148802380D01*
X163498714Y-149897619D02*
X164260619Y-149897619D01*
X164832047Y-149278571D02*
X164974904Y-149326190D01*
X165022523Y-149373809D01*
X165070142Y-149469047D01*
X165070142Y-149611904D01*
X165022523Y-149707142D01*
X164974904Y-149754761D01*
X164879666Y-149802380D01*
X164498714Y-149802380D01*
X164498714Y-148802380D01*
X164832047Y-148802380D01*
X164927285Y-148850000D01*
X164974904Y-148897619D01*
X165022523Y-148992857D01*
X165022523Y-149088095D01*
X164974904Y-149183333D01*
X164927285Y-149230952D01*
X164832047Y-149278571D01*
X164498714Y-149278571D01*
X165498714Y-149802380D02*
X165498714Y-149135714D01*
X165498714Y-148802380D02*
X165451095Y-148850000D01*
X165498714Y-148897619D01*
X165546333Y-148850000D01*
X165498714Y-148802380D01*
X165498714Y-148897619D01*
X166403476Y-149802380D02*
X166403476Y-148802380D01*
X166403476Y-149754761D02*
X166308238Y-149802380D01*
X166117761Y-149802380D01*
X166022523Y-149754761D01*
X165974904Y-149707142D01*
X165927285Y-149611904D01*
X165927285Y-149326190D01*
X165974904Y-149230952D01*
X166022523Y-149183333D01*
X166117761Y-149135714D01*
X166308238Y-149135714D01*
X166403476Y-149183333D01*
X166879666Y-149802380D02*
X166879666Y-149135714D01*
X166879666Y-148802380D02*
X166832047Y-148850000D01*
X166879666Y-148897619D01*
X166927285Y-148850000D01*
X166879666Y-148802380D01*
X166879666Y-148897619D01*
X167355857Y-149802380D02*
X167355857Y-149135714D01*
X167355857Y-149326190D02*
X167403476Y-149230952D01*
X167451095Y-149183333D01*
X167546333Y-149135714D01*
X167641571Y-149135714D01*
X168355857Y-149754761D02*
X168260619Y-149802380D01*
X168070142Y-149802380D01*
X167974904Y-149754761D01*
X167927285Y-149659523D01*
X167927285Y-149278571D01*
X167974904Y-149183333D01*
X168070142Y-149135714D01*
X168260619Y-149135714D01*
X168355857Y-149183333D01*
X168403476Y-149278571D01*
X168403476Y-149373809D01*
X167927285Y-149469047D01*
X169260619Y-149754761D02*
X169165380Y-149802380D01*
X168974904Y-149802380D01*
X168879666Y-149754761D01*
X168832047Y-149707142D01*
X168784428Y-149611904D01*
X168784428Y-149326190D01*
X168832047Y-149230952D01*
X168879666Y-149183333D01*
X168974904Y-149135714D01*
X169165380Y-149135714D01*
X169260619Y-149183333D01*
X169546333Y-149135714D02*
X169927285Y-149135714D01*
X169689190Y-148802380D02*
X169689190Y-149659523D01*
X169736809Y-149754761D01*
X169832047Y-149802380D01*
X169927285Y-149802380D01*
X170260619Y-149802380D02*
X170260619Y-149135714D01*
X170260619Y-148802380D02*
X170213000Y-148850000D01*
X170260619Y-148897619D01*
X170308238Y-148850000D01*
X170260619Y-148802380D01*
X170260619Y-148897619D01*
X170879666Y-149802380D02*
X170784428Y-149754761D01*
X170736809Y-149707142D01*
X170689190Y-149611904D01*
X170689190Y-149326190D01*
X170736809Y-149230952D01*
X170784428Y-149183333D01*
X170879666Y-149135714D01*
X171022523Y-149135714D01*
X171117761Y-149183333D01*
X171165380Y-149230952D01*
X171213000Y-149326190D01*
X171213000Y-149611904D01*
X171165380Y-149707142D01*
X171117761Y-149754761D01*
X171022523Y-149802380D01*
X170879666Y-149802380D01*
X171641571Y-149135714D02*
X171641571Y-149802380D01*
X171641571Y-149230952D02*
X171689190Y-149183333D01*
X171784428Y-149135714D01*
X171927285Y-149135714D01*
X172022523Y-149183333D01*
X172070142Y-149278571D01*
X172070142Y-149802380D01*
X172974904Y-149802380D02*
X172974904Y-149278571D01*
X172927285Y-149183333D01*
X172832047Y-149135714D01*
X172641571Y-149135714D01*
X172546333Y-149183333D01*
X172974904Y-149754761D02*
X172879666Y-149802380D01*
X172641571Y-149802380D01*
X172546333Y-149754761D01*
X172498714Y-149659523D01*
X172498714Y-149564285D01*
X172546333Y-149469047D01*
X172641571Y-149421428D01*
X172879666Y-149421428D01*
X172974904Y-149373809D01*
X173593952Y-149802380D02*
X173498714Y-149754761D01*
X173451095Y-149659523D01*
X173451095Y-148802380D01*
D12*
%TO.C,TIME1*%
X169950000Y-117500000D02*
X169950000Y-106150000D01*
X169950000Y-106150000D02*
X160450000Y-106150000D01*
X160450000Y-117500000D02*
X160450000Y-106150000D01*
X169950000Y-117500000D02*
X160450000Y-117500000D01*
X168700000Y-111000000D02*
G75*
G03*
X168700000Y-111000000I-3500000J0D01*
G01*
%TO.C,RANGE1*%
X160450000Y-97250000D02*
X160450000Y-85900000D01*
X169950000Y-85900000D02*
X160450000Y-85900000D01*
X169950000Y-97250000D02*
X169950000Y-85900000D01*
X169950000Y-97250000D02*
X160450000Y-97250000D01*
X168700000Y-90750000D02*
G75*
G03*
X168700000Y-90750000I-3500000J0D01*
G01*
%TO.C,TRI_OUT1*%
X169720000Y-152220000D02*
X160720000Y-152220000D01*
X160720000Y-162670000D02*
X160720000Y-152270000D01*
X165220000Y-150190000D02*
X165220000Y-152220000D01*
X169720000Y-162670000D02*
X169720000Y-152270000D01*
X169720000Y-162670000D02*
X160720000Y-162670000D01*
X167020000Y-156670000D02*
G75*
G03*
X167020000Y-156670000I-1800000J0D01*
G01*
D10*
%TO.C,RANGE_SW1*%
X171573000Y-77540000D02*
X158873000Y-77540000D01*
X158873000Y-64340000D02*
X171573000Y-64340000D01*
X171573000Y-64340000D02*
X171573000Y-77540000D01*
X158873000Y-77540000D02*
X158873000Y-64340000D01*
X168173001Y-71040000D02*
G75*
G03*
X168173001Y-71040000I-3000417J0D01*
G01*
D12*
%TO.C,C5*%
X164320000Y-102440000D02*
X164320000Y-100840000D01*
X165120000Y-100840000D02*
X165120000Y-102440000D01*
X165120000Y-102440000D02*
X164320000Y-102440000D01*
X164320000Y-100840000D02*
X165120000Y-100840000D01*
%TO.C,C4*%
X168530000Y-103360000D02*
X168530000Y-104960000D01*
X167730000Y-103360000D02*
X168530000Y-103360000D01*
X168530000Y-104960000D02*
X167730000Y-104960000D01*
X167730000Y-104960000D02*
X167730000Y-103360000D01*
%TO.C,D1*%
X163713000Y-145223810D02*
X163713000Y-147556190D01*
X163712445Y-147555476D02*
G75*
G03*
X163713000Y-145223810I1500555J1165476D01*
G01*
X166713000Y-146390000D02*
G75*
G03*
X166713000Y-146390000I-1500000J0D01*
G01*
%TD*%
M02*
