M48
; DRILL file {KiCad 6.0.11+dfsg-1~bpo11+1} date Wednesday, 01 March, 2023 11:09:30 AM
; FORMAT={-:-/ absolute / inch / decimal}
; #@! TF.CreationDate,2023-03-01T11:09:30+08:00
; #@! TF.GenerationSoftware,Kicad,Pcbnew,6.0.11+dfsg-1~bpo11+1
; #@! TF.FileFunction,Plated,1,2,PTH
FMAT,2
INCH
; #@! TA.AperFunction,Plated,PTH,ViaDrill
T1C0.0157
; #@! TA.AperFunction,Plated,PTH,ComponentDrill
T2C0.0315
; #@! TA.AperFunction,Plated,PTH,ComponentDrill
T3C0.0354
; #@! TA.AperFunction,Plated,PTH,ComponentDrill
T4C0.0394
; #@! TA.AperFunction,Plated,PTH,ComponentDrill
T5C0.0433
; #@! TA.AperFunction,Plated,PTH,ComponentDrill
T6C0.0480
; #@! TA.AperFunction,Plated,PTH,ComponentDrill
T7C0.0559
; #@! TA.AperFunction,Plated,PTH,ComponentDrill
T8C0.0563
%
G90
G05
T1
X6.3512Y-4.6031
X6.3657Y-4.826
X6.3661Y-3.4028
X6.3673Y-3.4594
X6.3681Y-4.8843
X6.3681Y-4.9528
X6.3701Y-5.3661
X6.3705Y-5.9512
X6.3724Y-5.1606
X6.3736Y-5.2634
X6.374Y-5.2118
X6.376Y-3.7634
X6.3783Y-5.3118
X6.3795Y-5.1051
X6.3799Y-3.6866
X6.3819Y-5.4079
X6.3858Y-6.0063
X6.389Y-6.1035
X6.3984Y-5.5646
X6.4Y-4.5831
X6.4012Y-5.8945
X6.4071Y-5.6476
X6.4118Y-3.561
X6.4131Y-4.3079
X6.4134Y-3.6469
X6.4138Y-4.498
X6.4177Y-3.448
X6.4276Y-3.737
X6.4406Y-4.0402
X6.4539Y-5.6169
X6.4575Y-4.5398
X6.4634Y-4.0739
X6.465Y-6.1791
X6.4751Y-5.6991
X6.4756Y-4.8661
X6.4776Y-3.7752
X6.4996Y-4.8252
X6.5012Y-6.1697
X6.5024Y-4.135
X6.5177Y-4.9665
X6.5272Y-5.6878
X6.5386Y-5.5626
X6.5386Y-6.2465
X6.5531Y-3.4445
X6.5551Y-3.5402
X6.5575Y-4.302
X6.5582Y-5.5244
X6.5768Y-5.6437
X6.578Y-5.9386
X6.5783Y-3.3476
X6.5799Y-3.6232
X6.5858Y-4.9406
X6.5868Y-4.8966
X6.5925Y-4.7972
X6.5984Y-6.1996
X6.6063Y-5.528
X6.6098Y-5.3146
X6.6118Y-5.1504
X6.6138Y-5.2697
X6.6138Y-6.3283
X6.6169Y-3.4717
X6.6173Y-5.0724
X6.6173Y-6.1378
X6.6185Y-5.2051
X6.628Y-6.0004
X6.6291Y-5.6071
X6.6317Y-4.8517
X6.6331Y-3.3453
X6.6346Y-5.8689
X6.6346Y-6.0752
X6.6425Y-5.5638
X6.6445Y-6.2343
X6.6461Y-3.4189
X6.6465Y-5.4512
X6.6492Y-3.8016
X6.6531Y-3.9764
X6.6543Y-4.2165
X6.6598Y-3.9079
X6.665Y-4.2752
X6.6666Y-4.4909
T2
X6.3886Y-3.1157
X6.3886Y-3.3126
X6.5856Y-3.169
X6.5856Y-3.2674
T3
X6.4544Y-5.7634
X6.5544Y-5.7634
T4
X6.4055Y-3.8681
X6.4055Y-4.6654
X6.4539Y-5.0461
X6.4539Y-5.1461
X6.4539Y-5.2461
X6.4539Y-5.3461
X6.4539Y-5.4461
X6.5039Y-3.8681
X6.5039Y-4.6654
X6.5539Y-5.0461
X6.5539Y-5.1461
X6.5539Y-5.2461
X6.5539Y-5.3461
X6.5539Y-5.4461
X6.6024Y-3.8681
X6.6024Y-4.6654
T6
X6.5047Y-5.913
T7
X6.5047Y-6.035
T8
X6.5047Y-6.3618
T3
G00X6.3828Y-2.6118
M15
G01X6.434Y-2.6118
M16
G05
G00X6.3828Y-2.7969
M15
G01X6.434Y-2.7969
M16
G05
G00X6.3828Y-2.9819
M15
G01X6.434Y-2.9819
M16
G05
G00X6.5718Y-2.6118
M15
G01X6.623Y-2.6118
M16
G05
G00X6.5718Y-2.7969
M15
G01X6.623Y-2.7969
M16
G05
G00X6.5718Y-2.9819
M15
G01X6.623Y-2.9819
M16
G05
T5
G00X6.315Y-3.5965
M15
G01X6.315Y-3.5492
M16
G05
G00X6.315Y-4.3937
M15
G01X6.315Y-4.3465
M16
G05
G00X6.6929Y-3.5965
M15
G01X6.6929Y-3.5492
M16
G05
G00X6.6929Y-4.3937
M15
G01X6.6929Y-4.3465
M16
G05
T0
M30
