%TF.GenerationSoftware,KiCad,Pcbnew,6.0.11+dfsg-1~bpo11+1*%
%TF.CreationDate,2023-03-01T11:09:29+08:00*%
%TF.ProjectId,MiniLFO v1.0 - Main,4d696e69-4c46-44f2-9076-312e30202d20,rev?*%
%TF.SameCoordinates,Original*%
%TF.FileFunction,Legend,Top*%
%TF.FilePolarity,Positive*%
%FSLAX46Y46*%
G04 Gerber Fmt 4.6, Leading zero omitted, Abs format (unit mm)*
G04 Created by KiCad (PCBNEW 6.0.11+dfsg-1~bpo11+1) date 2023-03-01 11:09:29*
%MOMM*%
%LPD*%
G01*
G04 APERTURE LIST*
%ADD10C,0.150000*%
%ADD11C,0.120000*%
G04 APERTURE END LIST*
D10*
%TO.C,TIME1*%
X160473190Y-104577380D02*
X161044619Y-104577380D01*
X160758904Y-105577380D02*
X160758904Y-104577380D01*
X161377952Y-105577380D02*
X161377952Y-104577380D01*
X161854142Y-105577380D02*
X161854142Y-104577380D01*
X162187476Y-105291666D01*
X162520809Y-104577380D01*
X162520809Y-105577380D01*
X162997000Y-105053571D02*
X163330333Y-105053571D01*
X163473190Y-105577380D02*
X162997000Y-105577380D01*
X162997000Y-104577380D01*
X163473190Y-104577380D01*
X164425571Y-105577380D02*
X163854142Y-105577380D01*
X164139857Y-105577380D02*
X164139857Y-104577380D01*
X164044619Y-104720238D01*
X163949380Y-104815476D01*
X163854142Y-104863095D01*
%TO.C,RANGE1*%
X164885571Y-85452380D02*
X164552238Y-84976190D01*
X164314142Y-85452380D02*
X164314142Y-84452380D01*
X164695095Y-84452380D01*
X164790333Y-84500000D01*
X164837952Y-84547619D01*
X164885571Y-84642857D01*
X164885571Y-84785714D01*
X164837952Y-84880952D01*
X164790333Y-84928571D01*
X164695095Y-84976190D01*
X164314142Y-84976190D01*
X165266523Y-85166666D02*
X165742714Y-85166666D01*
X165171285Y-85452380D02*
X165504619Y-84452380D01*
X165837952Y-85452380D01*
X166171285Y-85452380D02*
X166171285Y-84452380D01*
X166742714Y-85452380D01*
X166742714Y-84452380D01*
X167742714Y-84500000D02*
X167647476Y-84452380D01*
X167504619Y-84452380D01*
X167361761Y-84500000D01*
X167266523Y-84595238D01*
X167218904Y-84690476D01*
X167171285Y-84880952D01*
X167171285Y-85023809D01*
X167218904Y-85214285D01*
X167266523Y-85309523D01*
X167361761Y-85404761D01*
X167504619Y-85452380D01*
X167599857Y-85452380D01*
X167742714Y-85404761D01*
X167790333Y-85357142D01*
X167790333Y-85023809D01*
X167599857Y-85023809D01*
X168218904Y-84928571D02*
X168552238Y-84928571D01*
X168695095Y-85452380D02*
X168218904Y-85452380D01*
X168218904Y-84452380D01*
X168695095Y-84452380D01*
X169647476Y-85452380D02*
X169076047Y-85452380D01*
X169361761Y-85452380D02*
X169361761Y-84452380D01*
X169266523Y-84595238D01*
X169171285Y-84690476D01*
X169076047Y-84738095D01*
%TO.C,C5*%
X163647142Y-101806666D02*
X163694761Y-101854285D01*
X163742380Y-101997142D01*
X163742380Y-102092380D01*
X163694761Y-102235238D01*
X163599523Y-102330476D01*
X163504285Y-102378095D01*
X163313809Y-102425714D01*
X163170952Y-102425714D01*
X162980476Y-102378095D01*
X162885238Y-102330476D01*
X162790000Y-102235238D01*
X162742380Y-102092380D01*
X162742380Y-101997142D01*
X162790000Y-101854285D01*
X162837619Y-101806666D01*
X162742380Y-100901904D02*
X162742380Y-101378095D01*
X163218571Y-101425714D01*
X163170952Y-101378095D01*
X163123333Y-101282857D01*
X163123333Y-101044761D01*
X163170952Y-100949523D01*
X163218571Y-100901904D01*
X163313809Y-100854285D01*
X163551904Y-100854285D01*
X163647142Y-100901904D01*
X163694761Y-100949523D01*
X163742380Y-101044761D01*
X163742380Y-101282857D01*
X163694761Y-101378095D01*
X163647142Y-101425714D01*
%TO.C,C4*%
X168487142Y-101646666D02*
X168534761Y-101694285D01*
X168582380Y-101837142D01*
X168582380Y-101932380D01*
X168534761Y-102075238D01*
X168439523Y-102170476D01*
X168344285Y-102218095D01*
X168153809Y-102265714D01*
X168010952Y-102265714D01*
X167820476Y-102218095D01*
X167725238Y-102170476D01*
X167630000Y-102075238D01*
X167582380Y-101932380D01*
X167582380Y-101837142D01*
X167630000Y-101694285D01*
X167677619Y-101646666D01*
X167915714Y-100789523D02*
X168582380Y-100789523D01*
X167534761Y-101027619D02*
X168249047Y-101265714D01*
X168249047Y-100646666D01*
%TO.C,D1*%
X164474904Y-143882380D02*
X164474904Y-142882380D01*
X164713000Y-142882380D01*
X164855857Y-142930000D01*
X164951095Y-143025238D01*
X164998714Y-143120476D01*
X165046333Y-143310952D01*
X165046333Y-143453809D01*
X164998714Y-143644285D01*
X164951095Y-143739523D01*
X164855857Y-143834761D01*
X164713000Y-143882380D01*
X164474904Y-143882380D01*
X165998714Y-143882380D02*
X165427285Y-143882380D01*
X165713000Y-143882380D02*
X165713000Y-142882380D01*
X165617761Y-143025238D01*
X165522523Y-143120476D01*
X165427285Y-143168095D01*
D11*
%TO.C,TIME1*%
X170070000Y-109090000D02*
X170070000Y-106030000D01*
X170070000Y-117620000D02*
X168580000Y-117620000D01*
X161510000Y-117620000D02*
X160330000Y-117620000D01*
X160320000Y-117620000D02*
X160320000Y-112900000D01*
X160330000Y-109090000D02*
X160330000Y-106030000D01*
X170070000Y-106030000D02*
X160330000Y-106030000D01*
X164410000Y-117620000D02*
X163880000Y-117620000D01*
X166860000Y-117620000D02*
X166030000Y-117620000D01*
X170070000Y-117620000D02*
X170070000Y-112900000D01*
%TO.C,RANGE1*%
X170070000Y-88840000D02*
X170070000Y-85780000D01*
X170070000Y-85780000D02*
X160330000Y-85780000D01*
X170070000Y-97370000D02*
X170070000Y-92650000D01*
X161510000Y-97370000D02*
X160330000Y-97370000D01*
X160320000Y-97370000D02*
X160320000Y-92650000D01*
X166860000Y-97370000D02*
X166030000Y-97370000D01*
X160330000Y-88840000D02*
X160330000Y-85780000D01*
X170070000Y-97370000D02*
X168580000Y-97370000D01*
X164410000Y-97370000D02*
X163880000Y-97370000D01*
%TO.C,TRI_OUT1*%
X164870000Y-152170000D02*
X160720000Y-152170000D01*
X169720000Y-162670000D02*
X165720000Y-162670000D01*
X164160000Y-149190000D02*
X164160000Y-149990000D01*
X160720000Y-152170000D02*
X160720000Y-162670000D01*
X169720000Y-152170000D02*
X169720000Y-162670000D01*
X169720000Y-152170000D02*
X165570000Y-152170000D01*
X164160000Y-149190000D02*
X165020000Y-149190000D01*
X164720000Y-162670000D02*
X160720000Y-162670000D01*
X167020000Y-156670000D02*
G75*
G03*
X167020000Y-156670000I-1800000J0D01*
G01*
%TO.C,C5*%
X164210000Y-101786267D02*
X164210000Y-101493733D01*
X165230000Y-101786267D02*
X165230000Y-101493733D01*
%TO.C,C4*%
X167620000Y-104013733D02*
X167620000Y-104306267D01*
X168640000Y-104013733D02*
X168640000Y-104306267D01*
%TO.C,D1*%
X163653000Y-145154000D02*
X163653000Y-145310000D01*
X163653000Y-147470000D02*
X163653000Y-147626000D01*
X164172039Y-147470000D02*
G75*
G03*
X166254130Y-147469837I1040961J1080000D01*
G01*
X166254130Y-145310163D02*
G75*
G03*
X164172039Y-145310000I-1041130J-1079837D01*
G01*
X163653000Y-147625516D02*
G75*
G03*
X166885335Y-147468608I1560000J1235516D01*
G01*
X166885335Y-145311392D02*
G75*
G03*
X163653000Y-145154484I-1672335J-1078608D01*
G01*
%TD*%
M02*
