%TF.GenerationSoftware,KiCad,Pcbnew,6.0.11+dfsg-1~bpo11+1*%
%TF.CreationDate,2023-03-01T10:40:02+08:00*%
%TF.ProjectId,MiniLFO v1.0 - Front,4d696e69-4c46-44f2-9076-312e30202d20,rev?*%
%TF.SameCoordinates,Original*%
%TF.FileFunction,Legend,Top*%
%TF.FilePolarity,Positive*%
%FSLAX46Y46*%
G04 Gerber Fmt 4.6, Leading zero omitted, Abs format (unit mm)*
G04 Created by KiCad (PCBNEW 6.0.11+dfsg-1~bpo11+1) date 2023-03-01 10:40:02*
%MOMM*%
%LPD*%
G01*
G04 APERTURE LIST*
%ADD10C,0.000000*%
%ADD11C,0.150000*%
G04 APERTURE END LIST*
D10*
G36*
X145510951Y-149900959D02*
G01*
X145948650Y-149900959D01*
X145948650Y-150090092D01*
X145510951Y-150090092D01*
X145510951Y-150897282D01*
X145511117Y-150909411D01*
X145511615Y-150921097D01*
X145512445Y-150932342D01*
X145513606Y-150943145D01*
X145515099Y-150953506D01*
X145516923Y-150963426D01*
X145519077Y-150972905D01*
X145521563Y-150981942D01*
X145524379Y-150990537D01*
X145527525Y-150998692D01*
X145531001Y-151006405D01*
X145534807Y-151013677D01*
X145538943Y-151020508D01*
X145543408Y-151026899D01*
X145548202Y-151032848D01*
X145553325Y-151038357D01*
X145558841Y-151043480D01*
X145564815Y-151048274D01*
X145571248Y-151052739D01*
X145578140Y-151056874D01*
X145585493Y-151060680D01*
X145593307Y-151064156D01*
X145601582Y-151067302D01*
X145610320Y-151070118D01*
X145619522Y-151072604D01*
X145629189Y-151074759D01*
X145639320Y-151076583D01*
X145649918Y-151078075D01*
X145660983Y-151079237D01*
X145672515Y-151080067D01*
X145684516Y-151080565D01*
X145696986Y-151080731D01*
X145906275Y-151080731D01*
X145934180Y-151264180D01*
X145922663Y-151266958D01*
X145910709Y-151269641D01*
X145898320Y-151272229D01*
X145885492Y-151274725D01*
X145872227Y-151277131D01*
X145858523Y-151279447D01*
X145844379Y-151281675D01*
X145829794Y-151283818D01*
X145800318Y-151287536D01*
X145771194Y-151290680D01*
X145742432Y-151293235D01*
X145714039Y-151295185D01*
X145700285Y-151296577D01*
X145687224Y-151297760D01*
X145674861Y-151298741D01*
X145663197Y-151299527D01*
X145652237Y-151300125D01*
X145641982Y-151300543D01*
X145632438Y-151300789D01*
X145623605Y-151300869D01*
X145602405Y-151300499D01*
X145581842Y-151299386D01*
X145561919Y-151297531D01*
X145542634Y-151294932D01*
X145523988Y-151291587D01*
X145505981Y-151287496D01*
X145488613Y-151282657D01*
X145471885Y-151277069D01*
X145455796Y-151270732D01*
X145440346Y-151263643D01*
X145425537Y-151255802D01*
X145411367Y-151247208D01*
X145397837Y-151237859D01*
X145384947Y-151227754D01*
X145372698Y-151216893D01*
X145361089Y-151205273D01*
X145350158Y-151192938D01*
X145339941Y-151179933D01*
X145330436Y-151166261D01*
X145321643Y-151151922D01*
X145313559Y-151136917D01*
X145306184Y-151121249D01*
X145299516Y-151104917D01*
X145293556Y-151087923D01*
X145288300Y-151070269D01*
X145283749Y-151051955D01*
X145279902Y-151032983D01*
X145276756Y-151013353D01*
X145274311Y-150993068D01*
X145272567Y-150972128D01*
X145271521Y-150950534D01*
X145271172Y-150928288D01*
X145271172Y-150090092D01*
X145022608Y-150090092D01*
X145022608Y-149914913D01*
X145271172Y-149901989D01*
X145271172Y-149494778D01*
X145510951Y-149494778D01*
X145510951Y-149900959D01*
G37*
G36*
X141421247Y-60958009D02*
G01*
X141472090Y-60953559D01*
X141521168Y-60949815D01*
X141568556Y-60946703D01*
X141616244Y-60944240D01*
X141666125Y-60942461D01*
X141718123Y-60941382D01*
X141772161Y-60941018D01*
X141831184Y-60939746D01*
X141895420Y-60938768D01*
X141964946Y-60938140D01*
X142039845Y-60937918D01*
X142094933Y-60938727D01*
X142121459Y-60939737D01*
X142147305Y-60941149D01*
X142172471Y-60942962D01*
X142196955Y-60945176D01*
X142220757Y-60947788D01*
X142243876Y-60950798D01*
X142266312Y-60954205D01*
X142288064Y-60958008D01*
X142309131Y-60962205D01*
X142329512Y-60966797D01*
X142349206Y-60971781D01*
X142368214Y-60977156D01*
X142386533Y-60982922D01*
X142404164Y-60989078D01*
X142421154Y-60995358D01*
X142437551Y-61002204D01*
X142453355Y-61009617D01*
X142468565Y-61017599D01*
X142483182Y-61026149D01*
X142497205Y-61035270D01*
X142510633Y-61044961D01*
X142523466Y-61055225D01*
X142535704Y-61066062D01*
X142547346Y-61077474D01*
X142558392Y-61089461D01*
X142568841Y-61102024D01*
X142578694Y-61115164D01*
X142587950Y-61128883D01*
X142596608Y-61143181D01*
X142604668Y-61158059D01*
X142612525Y-61173616D01*
X142619868Y-61189946D01*
X142626699Y-61207049D01*
X142633017Y-61224925D01*
X142638825Y-61243575D01*
X142644124Y-61262996D01*
X142648913Y-61283190D01*
X142653194Y-61304156D01*
X142656968Y-61325893D01*
X142660235Y-61348402D01*
X142662998Y-61371682D01*
X142665256Y-61395734D01*
X142667011Y-61420555D01*
X142668263Y-61446147D01*
X142669264Y-61499641D01*
X142668690Y-61538350D01*
X142666970Y-61575458D01*
X142664104Y-61610970D01*
X142662241Y-61628129D01*
X142660091Y-61644890D01*
X142657654Y-61661255D01*
X142654931Y-61677223D01*
X142651921Y-61692795D01*
X142648625Y-61707973D01*
X142645042Y-61722755D01*
X142641172Y-61737144D01*
X142637016Y-61751139D01*
X142632573Y-61764741D01*
X142627821Y-61777619D01*
X142622738Y-61790147D01*
X142617323Y-61802323D01*
X142611576Y-61814150D01*
X142605498Y-61825624D01*
X142599090Y-61836747D01*
X142592350Y-61847518D01*
X142585279Y-61857937D01*
X142577878Y-61868003D01*
X142570146Y-61877716D01*
X142562083Y-61887075D01*
X142553690Y-61896080D01*
X142544967Y-61904731D01*
X142535914Y-61913027D01*
X142526531Y-61920969D01*
X142516818Y-61928555D01*
X142507088Y-61935456D01*
X142496945Y-61942048D01*
X142486390Y-61948332D01*
X142475422Y-61954307D01*
X142464038Y-61959973D01*
X142452238Y-61965331D01*
X142440022Y-61970380D01*
X142427388Y-61975121D01*
X142414335Y-61979553D01*
X142400861Y-61983676D01*
X142386967Y-61987491D01*
X142372651Y-61990997D01*
X142357912Y-61994194D01*
X142342749Y-61997083D01*
X142327160Y-61999664D01*
X142311146Y-62001935D01*
X142311146Y-62015889D01*
X142317131Y-62017400D01*
X142323092Y-62019111D01*
X142329028Y-62021023D01*
X142334941Y-62023133D01*
X142340830Y-62025444D01*
X142346696Y-62027953D01*
X142352540Y-62030661D01*
X142358361Y-62033568D01*
X142364160Y-62036673D01*
X142369937Y-62039977D01*
X142375693Y-62043479D01*
X142381428Y-62047178D01*
X142387142Y-62051074D01*
X142392836Y-62055168D01*
X142398510Y-62059459D01*
X142404164Y-62063947D01*
X142410126Y-62068285D01*
X142416019Y-62072829D01*
X142421843Y-62077578D01*
X142427599Y-62082532D01*
X142433287Y-62087689D01*
X142438907Y-62093048D01*
X142444460Y-62098608D01*
X142449947Y-62104367D01*
X142455368Y-62110325D01*
X142460722Y-62116479D01*
X142466012Y-62122830D01*
X142471237Y-62129376D01*
X142476397Y-62136115D01*
X142481494Y-62143046D01*
X142486527Y-62150169D01*
X142491497Y-62157482D01*
X142496360Y-62164632D01*
X142501073Y-62171975D01*
X142505634Y-62179511D01*
X142510043Y-62187241D01*
X142514299Y-62195166D01*
X142518403Y-62203286D01*
X142522353Y-62211603D01*
X142526150Y-62220118D01*
X142529792Y-62228831D01*
X142533279Y-62237743D01*
X142536611Y-62246856D01*
X142539787Y-62256170D01*
X142542807Y-62265687D01*
X142545670Y-62275406D01*
X142548376Y-62285330D01*
X142550925Y-62295458D01*
X142740060Y-62910924D01*
X142474960Y-62910924D01*
X142302361Y-62301142D01*
X142297677Y-62287639D01*
X142292795Y-62274648D01*
X142287717Y-62262167D01*
X142282441Y-62250196D01*
X142276968Y-62238734D01*
X142271296Y-62227781D01*
X142265427Y-62217337D01*
X142259360Y-62207400D01*
X142253094Y-62197970D01*
X142246630Y-62189047D01*
X142239967Y-62180629D01*
X142233104Y-62172718D01*
X142226043Y-62165311D01*
X142218781Y-62158408D01*
X142211320Y-62152009D01*
X142203659Y-62146113D01*
X142195756Y-62140302D01*
X142187570Y-62134864D01*
X142179100Y-62129800D01*
X142170346Y-62125109D01*
X142161306Y-62120792D01*
X142151982Y-62116850D01*
X142142371Y-62113281D01*
X142132474Y-62110088D01*
X142122291Y-62107269D01*
X142111821Y-62104825D01*
X142101063Y-62102757D01*
X142090017Y-62101064D01*
X142078683Y-62099747D01*
X142067060Y-62098806D01*
X142055148Y-62098242D01*
X142042946Y-62098053D01*
X141743739Y-62098053D01*
X141674918Y-62096245D01*
X141614031Y-62094436D01*
X141614031Y-62910924D01*
X141368568Y-62910924D01*
X141368568Y-61883597D01*
X141614031Y-61883597D01*
X142034677Y-61883597D01*
X142069670Y-61882445D01*
X142102690Y-61880393D01*
X142118463Y-61879031D01*
X142133748Y-61877446D01*
X142148544Y-61875639D01*
X142162854Y-61873611D01*
X142176679Y-61871361D01*
X142190020Y-61868892D01*
X142202879Y-61866203D01*
X142215257Y-61863295D01*
X142227155Y-61860169D01*
X142238575Y-61856826D01*
X142249519Y-61853266D01*
X142259987Y-61849490D01*
X142270383Y-61845423D01*
X142280407Y-61840980D01*
X142290058Y-61836163D01*
X142299335Y-61830970D01*
X142308238Y-61825403D01*
X142316766Y-61819461D01*
X142324921Y-61813143D01*
X142332701Y-61806451D01*
X142340106Y-61799384D01*
X142347136Y-61791942D01*
X142353791Y-61784125D01*
X142360070Y-61775934D01*
X142365973Y-61767367D01*
X142371501Y-61758426D01*
X142376652Y-61749110D01*
X142381426Y-61739419D01*
X142385869Y-61728945D01*
X142390025Y-61717985D01*
X142393895Y-61706538D01*
X142397478Y-61694607D01*
X142400774Y-61682189D01*
X142403784Y-61669287D01*
X142406507Y-61655899D01*
X142408943Y-61642025D01*
X142411093Y-61627667D01*
X142412957Y-61612824D01*
X142415823Y-61581685D01*
X142417543Y-61548607D01*
X142418116Y-61513593D01*
X142417973Y-61495872D01*
X142417543Y-61478690D01*
X142416826Y-61462047D01*
X142415823Y-61445940D01*
X142414533Y-61430368D01*
X142412957Y-61415329D01*
X142411093Y-61400823D01*
X142408943Y-61386848D01*
X142406507Y-61373401D01*
X142403784Y-61360483D01*
X142400774Y-61348090D01*
X142397478Y-61336223D01*
X142393895Y-61324878D01*
X142390025Y-61314055D01*
X142385869Y-61303752D01*
X142381426Y-61293969D01*
X142376651Y-61284278D01*
X142371500Y-61274963D01*
X142365973Y-61266022D01*
X142360070Y-61257456D01*
X142353791Y-61249265D01*
X142347136Y-61241449D01*
X142340106Y-61234007D01*
X142332701Y-61226940D01*
X142324921Y-61220248D01*
X142316766Y-61213930D01*
X142308237Y-61207988D01*
X142299334Y-61202420D01*
X142290057Y-61197227D01*
X142280407Y-61192409D01*
X142270383Y-61187966D01*
X142259987Y-61183897D01*
X142249519Y-61180133D01*
X142238575Y-61176602D01*
X142227155Y-61173304D01*
X142215257Y-61170242D01*
X142190020Y-61164830D01*
X142162854Y-61160376D01*
X142133748Y-61156893D01*
X142102690Y-61154391D01*
X142069670Y-61152881D01*
X142034677Y-61152376D01*
X141818650Y-61153226D01*
X141633668Y-61155476D01*
X141614031Y-61155476D01*
X141614031Y-61883597D01*
X141368568Y-61883597D01*
X141368568Y-60963239D01*
X141421247Y-60958009D01*
G37*
G36*
X145281510Y-122470585D02*
G01*
X145281510Y-122544484D01*
X145281935Y-122565163D01*
X145283212Y-122585924D01*
X145285342Y-122606762D01*
X145288330Y-122627671D01*
X145292177Y-122648645D01*
X145296885Y-122669681D01*
X145302459Y-122690771D01*
X145308899Y-122711911D01*
X145315342Y-122731027D01*
X145322657Y-122751465D01*
X145330770Y-122773119D01*
X145339608Y-122795882D01*
X145359162Y-122844307D01*
X145380729Y-122895886D01*
X146108850Y-122895886D01*
X146108850Y-123152195D01*
X145069637Y-123152195D01*
X145069637Y-122953244D01*
X145230868Y-122926373D01*
X145210192Y-122900472D01*
X145190577Y-122874470D01*
X145172056Y-122848362D01*
X145154663Y-122822142D01*
X145138429Y-122795806D01*
X145123390Y-122769348D01*
X145116329Y-122756071D01*
X145109578Y-122742763D01*
X145103142Y-122729421D01*
X145097026Y-122716046D01*
X145090622Y-122701792D01*
X145084636Y-122687604D01*
X145079066Y-122673482D01*
X145073912Y-122659426D01*
X145069173Y-122645436D01*
X145064850Y-122631512D01*
X145060941Y-122617654D01*
X145057446Y-122603862D01*
X145054364Y-122590136D01*
X145051695Y-122576476D01*
X145049438Y-122562883D01*
X145047592Y-122549355D01*
X145046158Y-122535894D01*
X145045134Y-122522499D01*
X145044520Y-122509170D01*
X145044316Y-122495907D01*
X145044316Y-122445263D01*
X145281510Y-122470585D01*
G37*
G36*
X145401917Y-132124775D02*
G01*
X145391788Y-132124920D01*
X145382026Y-132125354D01*
X145372631Y-132126080D01*
X145363601Y-132127097D01*
X145354937Y-132128408D01*
X145346637Y-132130014D01*
X145338702Y-132131914D01*
X145331130Y-132134112D01*
X145323921Y-132136607D01*
X145317075Y-132139401D01*
X145310591Y-132142495D01*
X145304468Y-132145890D01*
X145298705Y-132149587D01*
X145293303Y-132153587D01*
X145288261Y-132157892D01*
X145283578Y-132162503D01*
X145278963Y-132167540D01*
X145274642Y-132173127D01*
X145270617Y-132179263D01*
X145266887Y-132185947D01*
X145263454Y-132193179D01*
X145260316Y-132200959D01*
X145257476Y-132209286D01*
X145254933Y-132218159D01*
X145252687Y-132227578D01*
X145250740Y-132237542D01*
X145249091Y-132248050D01*
X145247741Y-132259103D01*
X145246690Y-132270699D01*
X145245939Y-132282838D01*
X145245488Y-132295520D01*
X145245338Y-132308743D01*
X145245744Y-132351589D01*
X145246938Y-132399703D01*
X145248882Y-132453109D01*
X145251539Y-132511830D01*
X145254788Y-132572285D01*
X145258582Y-132633001D01*
X145262988Y-132693981D01*
X145268075Y-132755230D01*
X145092892Y-132778485D01*
X145085686Y-132740301D01*
X145078923Y-132699790D01*
X145072685Y-132656898D01*
X145069788Y-132634541D01*
X145067054Y-132611569D01*
X145062079Y-132564834D01*
X145057711Y-132517790D01*
X145053879Y-132470480D01*
X145050518Y-132422947D01*
X145047861Y-132376495D01*
X145045917Y-132332403D01*
X145044723Y-132290692D01*
X145044316Y-132251385D01*
X145044451Y-132235934D01*
X145044855Y-132220803D01*
X145045527Y-132205991D01*
X145046467Y-132191497D01*
X145047675Y-132177320D01*
X145049149Y-132163460D01*
X145050889Y-132149916D01*
X145052895Y-132136687D01*
X145055165Y-132123772D01*
X145057700Y-132111170D01*
X145060498Y-132098881D01*
X145063559Y-132086903D01*
X145066883Y-132075237D01*
X145070469Y-132063881D01*
X145074315Y-132052834D01*
X145078423Y-132042096D01*
X145082568Y-132031413D01*
X145087077Y-132021061D01*
X145091951Y-132011039D01*
X145097190Y-132001347D01*
X145102793Y-131991985D01*
X145108761Y-131982954D01*
X145115093Y-131974254D01*
X145121791Y-131965884D01*
X145128852Y-131957844D01*
X145136279Y-131950136D01*
X145144070Y-131942758D01*
X145152225Y-131935711D01*
X145160745Y-131928994D01*
X145169630Y-131922609D01*
X145178879Y-131916555D01*
X145188493Y-131910832D01*
X145198508Y-131905449D01*
X145208977Y-131900414D01*
X145219903Y-131895727D01*
X145231286Y-131891387D01*
X145243127Y-131887394D01*
X145255428Y-131883748D01*
X145268190Y-131880450D01*
X145281414Y-131877499D01*
X145295101Y-131874895D01*
X145309253Y-131872639D01*
X145323870Y-131870730D01*
X145338954Y-131869167D01*
X145354507Y-131867953D01*
X145370528Y-131867085D01*
X145387020Y-131866564D01*
X145403984Y-131866391D01*
X146108851Y-131866391D01*
X146108851Y-132069485D01*
X145937802Y-132096867D01*
X145939210Y-132098091D01*
X145940504Y-132099184D01*
X145942909Y-132101170D01*
X145944103Y-132102156D01*
X145945344Y-132103201D01*
X145946676Y-132104352D01*
X145948137Y-132105656D01*
X145958716Y-132115998D01*
X145969301Y-132126916D01*
X145979892Y-132138416D01*
X145990487Y-132150505D01*
X146001085Y-132163189D01*
X146011685Y-132176475D01*
X146022286Y-132190368D01*
X146032887Y-132204876D01*
X146043226Y-132219460D01*
X146053096Y-132234638D01*
X146062501Y-132250409D01*
X146071443Y-132266775D01*
X146079926Y-132283736D01*
X146087953Y-132301293D01*
X146095526Y-132319448D01*
X146102650Y-132338200D01*
X146105979Y-132347529D01*
X146109090Y-132356996D01*
X146111985Y-132366599D01*
X146114664Y-132376339D01*
X146117126Y-132386215D01*
X146119372Y-132396225D01*
X146121403Y-132406369D01*
X146123219Y-132416646D01*
X146126206Y-132437598D01*
X146128337Y-132459072D01*
X146129613Y-132481064D01*
X146130038Y-132503567D01*
X146129916Y-132515129D01*
X146129550Y-132526537D01*
X146128940Y-132537791D01*
X146128084Y-132548892D01*
X146126983Y-132559841D01*
X146125636Y-132570638D01*
X146124042Y-132581285D01*
X146122202Y-132591782D01*
X146120113Y-132602130D01*
X146117776Y-132612331D01*
X146115191Y-132622384D01*
X146112356Y-132632292D01*
X146109272Y-132642053D01*
X146105938Y-132651671D01*
X146102352Y-132661145D01*
X146098516Y-132670475D01*
X146094165Y-132679615D01*
X146089589Y-132688515D01*
X146084785Y-132697174D01*
X146079754Y-132705590D01*
X146074495Y-132713762D01*
X146069007Y-132721690D01*
X146063288Y-132729372D01*
X146057340Y-132736807D01*
X146051160Y-132743994D01*
X146044748Y-132750932D01*
X146038103Y-132757620D01*
X146031225Y-132764057D01*
X146024113Y-132770240D01*
X146016766Y-132776171D01*
X146009183Y-132781846D01*
X146001364Y-132787266D01*
X145993044Y-132792393D01*
X145984485Y-132797189D01*
X145975688Y-132801656D01*
X145966653Y-132805793D01*
X145957383Y-132809599D01*
X145947878Y-132813075D01*
X145938138Y-132816221D01*
X145928166Y-132819036D01*
X145917962Y-132821520D01*
X145907528Y-132823674D01*
X145896863Y-132825496D01*
X145885970Y-132826988D01*
X145874850Y-132828148D01*
X145863503Y-132828977D01*
X145851930Y-132829474D01*
X145840133Y-132829640D01*
X145730063Y-132829640D01*
X145714936Y-132829324D01*
X145700246Y-132828375D01*
X145685992Y-132826795D01*
X145672173Y-132824584D01*
X145658787Y-132821743D01*
X145645834Y-132818271D01*
X145633313Y-132814171D01*
X145621223Y-132809441D01*
X145609562Y-132804083D01*
X145598331Y-132798097D01*
X145587527Y-132791484D01*
X145577150Y-132784244D01*
X145567199Y-132776378D01*
X145557674Y-132767886D01*
X145548572Y-132758769D01*
X145539893Y-132749028D01*
X145531424Y-132738477D01*
X145523494Y-132727466D01*
X145516103Y-132715994D01*
X145509253Y-132704061D01*
X145502944Y-132691665D01*
X145497178Y-132678808D01*
X145491955Y-132665488D01*
X145487278Y-132651705D01*
X145483147Y-132637460D01*
X145479563Y-132622751D01*
X145476527Y-132607579D01*
X145474041Y-132591942D01*
X145472106Y-132575842D01*
X145470722Y-132559277D01*
X145469891Y-132542248D01*
X145469613Y-132524754D01*
X145469613Y-132454991D01*
X145628260Y-132454991D01*
X145628629Y-132462787D01*
X145629236Y-132470301D01*
X145630080Y-132477533D01*
X145631161Y-132484482D01*
X145632478Y-132491149D01*
X145634030Y-132497534D01*
X145635817Y-132503638D01*
X145637838Y-132509461D01*
X145640093Y-132515002D01*
X145642581Y-132520263D01*
X145645301Y-132525243D01*
X145648253Y-132529942D01*
X145651436Y-132534362D01*
X145654850Y-132538501D01*
X145658493Y-132542361D01*
X145662367Y-132545941D01*
X145666421Y-132549271D01*
X145670658Y-132552384D01*
X145675078Y-132555279D01*
X145679682Y-132557958D01*
X145684468Y-132560420D01*
X145689437Y-132562667D01*
X145694590Y-132564698D01*
X145699925Y-132566513D01*
X145705443Y-132568114D01*
X145711143Y-132569500D01*
X145717027Y-132570672D01*
X145723093Y-132571630D01*
X145729342Y-132572374D01*
X145735773Y-132572906D01*
X145742387Y-132573224D01*
X145749183Y-132573330D01*
X145806543Y-132573330D01*
X145814363Y-132573195D01*
X145821945Y-132572790D01*
X145829292Y-132572117D01*
X145836405Y-132571175D01*
X145843283Y-132569966D01*
X145849928Y-132568490D01*
X145856339Y-132566748D01*
X145862519Y-132564741D01*
X145868468Y-132562469D01*
X145874186Y-132559933D01*
X145879675Y-132557134D01*
X145884934Y-132554073D01*
X145889965Y-132550750D01*
X145894768Y-132547167D01*
X145899345Y-132543323D01*
X145903695Y-132539219D01*
X145907538Y-132534842D01*
X145911139Y-132530176D01*
X145914500Y-132525219D01*
X145917617Y-132519970D01*
X145920491Y-132514429D01*
X145923120Y-132508594D01*
X145925503Y-132502463D01*
X145927640Y-132496036D01*
X145929529Y-132489311D01*
X145931170Y-132482288D01*
X145932560Y-132474964D01*
X145933701Y-132467339D01*
X145934589Y-132459412D01*
X145935225Y-132451181D01*
X145935607Y-132442646D01*
X145935735Y-132433804D01*
X145935638Y-132426608D01*
X145935350Y-132419310D01*
X145934872Y-132411911D01*
X145934205Y-132404412D01*
X145932309Y-132389112D01*
X145929674Y-132373412D01*
X145926311Y-132357317D01*
X145922231Y-132340827D01*
X145917445Y-132323945D01*
X145911964Y-132306675D01*
X145905809Y-132289252D01*
X145898995Y-132271903D01*
X145891522Y-132254626D01*
X145883390Y-132237417D01*
X145874599Y-132220274D01*
X145865148Y-132203195D01*
X145855037Y-132186176D01*
X145844267Y-132169216D01*
X145842248Y-132166165D01*
X145840139Y-132163195D01*
X145837952Y-132160295D01*
X145835695Y-132157456D01*
X145833381Y-132154670D01*
X145831018Y-132151926D01*
X145826192Y-132146530D01*
X145816425Y-132135836D01*
X145811651Y-132130389D01*
X145809327Y-132127608D01*
X145807060Y-132124775D01*
X145628260Y-132124775D01*
X145628260Y-132454991D01*
X145469613Y-132454991D01*
X145469613Y-132124775D01*
X145401917Y-132124775D01*
G37*
G36*
X146108851Y-129087239D02*
G01*
X145408118Y-129087239D01*
X145398505Y-129087606D01*
X145389239Y-129088183D01*
X145380321Y-129088972D01*
X145371751Y-129089973D01*
X145363529Y-129091187D01*
X145355653Y-129092614D01*
X145348125Y-129094255D01*
X145340945Y-129096111D01*
X145334111Y-129098181D01*
X145327624Y-129100468D01*
X145321484Y-129102971D01*
X145315690Y-129105691D01*
X145310243Y-129108629D01*
X145305143Y-129111785D01*
X145300389Y-129115161D01*
X145295981Y-129118756D01*
X145291625Y-129122636D01*
X145287558Y-129126866D01*
X145283778Y-129131447D01*
X145280284Y-129136376D01*
X145277076Y-129141655D01*
X145274152Y-129147282D01*
X145271511Y-129153258D01*
X145269152Y-129159581D01*
X145267075Y-129166251D01*
X145265278Y-129173268D01*
X145263760Y-129180631D01*
X145262520Y-129188341D01*
X145261558Y-129196396D01*
X145260871Y-129204796D01*
X145260460Y-129213541D01*
X145260324Y-129222630D01*
X145260541Y-129233711D01*
X145261197Y-129244727D01*
X145262300Y-129255680D01*
X145263022Y-129261131D01*
X145263858Y-129266567D01*
X145264810Y-129271985D01*
X145265879Y-129277387D01*
X145267065Y-129282773D01*
X145268370Y-129288141D01*
X145269794Y-129293493D01*
X145271339Y-129298827D01*
X145273005Y-129304145D01*
X145274793Y-129309445D01*
X145278235Y-129319663D01*
X145282211Y-129330207D01*
X145286718Y-129341077D01*
X145291755Y-129352276D01*
X145297321Y-129363806D01*
X145303412Y-129375667D01*
X145310029Y-129387863D01*
X145317168Y-129400395D01*
X145323492Y-129411053D01*
X145330421Y-129422393D01*
X145345813Y-129446784D01*
X145362772Y-129472914D01*
X145380730Y-129500126D01*
X146108851Y-129500126D01*
X146108851Y-129745594D01*
X145408118Y-129745594D01*
X145398005Y-129745724D01*
X145388290Y-129746112D01*
X145378972Y-129746759D01*
X145370052Y-129747667D01*
X145361529Y-129748837D01*
X145353403Y-129750268D01*
X145345674Y-129751963D01*
X145338341Y-129753921D01*
X145331404Y-129756144D01*
X145324863Y-129758632D01*
X145318717Y-129761386D01*
X145312967Y-129764407D01*
X145307612Y-129767696D01*
X145302651Y-129771254D01*
X145298085Y-129775081D01*
X145293913Y-129779179D01*
X145289812Y-129783548D01*
X145285982Y-129788185D01*
X145282421Y-129793091D01*
X145279131Y-129798264D01*
X145276109Y-129803704D01*
X145273354Y-129809410D01*
X145270866Y-129815382D01*
X145268644Y-129821619D01*
X145266686Y-129828121D01*
X145264993Y-129834886D01*
X145263562Y-129841915D01*
X145262394Y-129849206D01*
X145261487Y-129856759D01*
X145260840Y-129864574D01*
X145260453Y-129872650D01*
X145260324Y-129880986D01*
X145260509Y-129891572D01*
X145261071Y-129902163D01*
X145262015Y-129912759D01*
X145263350Y-129923356D01*
X145265081Y-129933954D01*
X145267216Y-129944551D01*
X145269762Y-129955144D01*
X145272726Y-129965733D01*
X145276168Y-129976444D01*
X145280144Y-129987411D01*
X145284651Y-129998638D01*
X145289688Y-130010127D01*
X145295254Y-130021881D01*
X145301345Y-130033901D01*
X145307962Y-130046190D01*
X145315101Y-130058751D01*
X145321114Y-130068887D01*
X145327789Y-130079819D01*
X145342756Y-130103625D01*
X145359269Y-130129282D01*
X145376596Y-130155903D01*
X146108851Y-130155903D01*
X146108851Y-130412220D01*
X145069638Y-130412220D01*
X145069638Y-130207066D01*
X145230352Y-130186909D01*
X145208437Y-130162262D01*
X145187792Y-130137746D01*
X145168458Y-130113355D01*
X145159296Y-130101206D01*
X145150477Y-130089086D01*
X145142006Y-130076995D01*
X145133889Y-130064933D01*
X145126130Y-130052898D01*
X145118734Y-130040891D01*
X145111708Y-130028910D01*
X145105055Y-130016956D01*
X145098782Y-130005027D01*
X145092892Y-129993122D01*
X145086996Y-129980379D01*
X145081483Y-129967551D01*
X145076353Y-129954636D01*
X145071605Y-129941637D01*
X145067239Y-129928554D01*
X145063255Y-129915386D01*
X145059652Y-129902135D01*
X145056429Y-129888800D01*
X145053587Y-129875383D01*
X145051126Y-129861883D01*
X145049043Y-129848301D01*
X145047341Y-129834638D01*
X145046017Y-129820894D01*
X145045072Y-129807069D01*
X145044505Y-129793164D01*
X145044316Y-129779179D01*
X145044596Y-129762496D01*
X145045434Y-129746314D01*
X145046832Y-129730632D01*
X145048790Y-129715449D01*
X145051308Y-129700764D01*
X145054388Y-129686577D01*
X145058029Y-129672888D01*
X145062231Y-129659695D01*
X145066997Y-129646998D01*
X145072325Y-129634797D01*
X145078217Y-129623090D01*
X145084673Y-129611878D01*
X145091693Y-129601159D01*
X145099279Y-129590933D01*
X145107430Y-129581199D01*
X145116147Y-129571957D01*
X145121375Y-129566952D01*
X145126820Y-129562164D01*
X145132477Y-129557589D01*
X145138341Y-129553221D01*
X145144404Y-129549056D01*
X145150661Y-129545087D01*
X145157106Y-129541311D01*
X145163734Y-129537721D01*
X145170538Y-129534313D01*
X145177512Y-129531082D01*
X145184650Y-129528022D01*
X145191947Y-129525129D01*
X145199396Y-129522397D01*
X145206992Y-129519821D01*
X145214729Y-129517397D01*
X145222600Y-129515118D01*
X145202152Y-129491335D01*
X145182802Y-129467749D01*
X145164608Y-129444366D01*
X145147623Y-129421190D01*
X145131904Y-129398224D01*
X145124536Y-129386821D01*
X145117505Y-129375473D01*
X145110819Y-129364179D01*
X145104483Y-129352940D01*
X145098505Y-129341758D01*
X145092892Y-129330632D01*
X145086996Y-129317888D01*
X145081483Y-129305059D01*
X145076353Y-129292145D01*
X145071605Y-129279145D01*
X145067239Y-129266061D01*
X145063255Y-129252893D01*
X145059652Y-129239641D01*
X145056429Y-129226306D01*
X145053587Y-129212889D01*
X145051126Y-129199389D01*
X145049043Y-129185807D01*
X145047341Y-129172144D01*
X145046017Y-129158400D01*
X145045072Y-129144576D01*
X145044505Y-129130672D01*
X145044316Y-129116688D01*
X145044604Y-129099751D01*
X145045466Y-129083332D01*
X145046903Y-129067429D01*
X145048916Y-129052043D01*
X145051506Y-129037172D01*
X145054673Y-129022815D01*
X145058417Y-129008973D01*
X145062740Y-128995644D01*
X145067642Y-128982827D01*
X145073123Y-128970522D01*
X145079184Y-128958729D01*
X145085826Y-128947445D01*
X145093050Y-128936671D01*
X145100855Y-128926406D01*
X145109243Y-128916648D01*
X145118214Y-128907399D01*
X145127480Y-128898426D01*
X145137280Y-128890025D01*
X145147612Y-128882196D01*
X145158476Y-128874941D01*
X145169871Y-128868261D01*
X145181796Y-128862156D01*
X145194251Y-128856628D01*
X145207235Y-128851677D01*
X145220748Y-128847305D01*
X145234789Y-128843513D01*
X145249357Y-128840302D01*
X145264452Y-128837672D01*
X145280073Y-128835625D01*
X145296220Y-128834161D01*
X145312891Y-128833282D01*
X145330087Y-128832989D01*
X146108851Y-128832989D01*
X146108851Y-129087239D01*
G37*
G36*
X139419911Y-152589629D02*
G01*
X139423762Y-152538713D01*
X139430106Y-152488554D01*
X139438879Y-152439215D01*
X139450020Y-152390755D01*
X139463466Y-152343238D01*
X139479157Y-152296726D01*
X139497029Y-152251280D01*
X139517020Y-152206962D01*
X139539069Y-152163834D01*
X139563113Y-152121958D01*
X139589091Y-152081395D01*
X139616939Y-152042208D01*
X139646597Y-152004459D01*
X139678003Y-151968209D01*
X139711093Y-151933520D01*
X139745806Y-151900454D01*
X139782081Y-151869073D01*
X139819854Y-151839439D01*
X139859064Y-151811613D01*
X139899649Y-151785658D01*
X139941547Y-151761635D01*
X139984695Y-151739607D01*
X140029032Y-151719635D01*
X140074496Y-151701780D01*
X140121024Y-151686106D01*
X140168555Y-151672673D01*
X140217026Y-151661544D01*
X140266375Y-151652780D01*
X140316541Y-151646444D01*
X140367461Y-151642597D01*
X140419073Y-151641300D01*
X147418643Y-151641300D01*
X147470255Y-151642597D01*
X147521175Y-151646444D01*
X147571340Y-151652780D01*
X147620690Y-151661544D01*
X147669161Y-151672673D01*
X147716691Y-151686106D01*
X147763220Y-151701780D01*
X147808683Y-151719635D01*
X147853020Y-151739607D01*
X147896169Y-151761635D01*
X147938066Y-151785658D01*
X147978651Y-151811613D01*
X148017861Y-151839439D01*
X148055635Y-151869073D01*
X148091909Y-151900454D01*
X148126622Y-151933520D01*
X148159713Y-151968209D01*
X148191118Y-152004459D01*
X148220776Y-152042208D01*
X148248625Y-152081395D01*
X148274602Y-152121958D01*
X148298647Y-152163834D01*
X148320695Y-152206962D01*
X148340687Y-152251280D01*
X148358559Y-152296726D01*
X148374249Y-152343238D01*
X148387695Y-152390755D01*
X148398836Y-152439215D01*
X148407610Y-152488554D01*
X148413953Y-152538713D01*
X148417805Y-152589629D01*
X148419102Y-152641239D01*
X148419102Y-160641270D01*
X148417805Y-160692881D01*
X148413953Y-160743796D01*
X148407610Y-160793955D01*
X148398836Y-160843295D01*
X148387695Y-160891754D01*
X148374249Y-160939271D01*
X148358559Y-160985783D01*
X148340687Y-161031230D01*
X148320695Y-161075548D01*
X148298647Y-161118676D01*
X148274602Y-161160552D01*
X148248625Y-161201114D01*
X148220776Y-161240301D01*
X148191118Y-161278051D01*
X148159713Y-161314301D01*
X148126622Y-161348990D01*
X148091909Y-161382056D01*
X148055635Y-161413437D01*
X148017861Y-161443071D01*
X147978651Y-161470896D01*
X147938066Y-161496852D01*
X147896169Y-161520874D01*
X147853020Y-161542903D01*
X147808683Y-161562875D01*
X147763220Y-161580729D01*
X147716691Y-161596404D01*
X147669161Y-161609836D01*
X147620690Y-161620966D01*
X147571340Y-161629729D01*
X147521175Y-161636066D01*
X147470255Y-161639913D01*
X147418643Y-161641209D01*
X140419073Y-161641209D01*
X140367461Y-161639913D01*
X140316541Y-161636066D01*
X140266375Y-161629729D01*
X140217026Y-161620966D01*
X140168555Y-161609836D01*
X140121024Y-161596404D01*
X140074496Y-161580729D01*
X140029032Y-161562875D01*
X139984695Y-161542903D01*
X139941547Y-161520874D01*
X139899649Y-161496852D01*
X139859064Y-161470896D01*
X139819854Y-161443071D01*
X139782081Y-161413437D01*
X139745806Y-161382056D01*
X139711093Y-161348990D01*
X139678003Y-161314301D01*
X139646597Y-161278051D01*
X139616939Y-161240301D01*
X139589091Y-161201114D01*
X139563113Y-161160552D01*
X139539069Y-161118676D01*
X139517020Y-161075548D01*
X139497029Y-161031230D01*
X139479157Y-160985783D01*
X139463466Y-160939271D01*
X139450020Y-160891754D01*
X139438879Y-160843295D01*
X139430106Y-160793955D01*
X139423762Y-160743796D01*
X139419911Y-160692881D01*
X139418613Y-160641270D01*
X139418613Y-156641514D01*
X142418923Y-156641514D01*
X142420893Y-156718697D01*
X142426702Y-156794865D01*
X142436257Y-156869926D01*
X142449464Y-156943784D01*
X142466228Y-157016346D01*
X142486456Y-157087517D01*
X142510053Y-157157202D01*
X142536924Y-157225309D01*
X142566976Y-157291742D01*
X142600115Y-157356408D01*
X142636246Y-157419212D01*
X142675275Y-157480059D01*
X142717109Y-157538857D01*
X142761652Y-157595510D01*
X142808811Y-157649924D01*
X142858491Y-157702006D01*
X142910598Y-157751660D01*
X142965039Y-157798793D01*
X143021718Y-157843311D01*
X143080543Y-157885119D01*
X143141418Y-157924123D01*
X143204249Y-157960228D01*
X143268942Y-157993342D01*
X143335404Y-158023369D01*
X143403539Y-158050215D01*
X143473254Y-158073786D01*
X143544455Y-158093988D01*
X143617047Y-158110727D01*
X143690936Y-158123908D01*
X143766028Y-158133437D01*
X143842228Y-158139220D01*
X143919444Y-158141163D01*
X143996607Y-158139176D01*
X144072757Y-158133352D01*
X144147798Y-158123784D01*
X144221637Y-158110566D01*
X144294180Y-158093794D01*
X144365332Y-158073561D01*
X144434999Y-158049961D01*
X144503086Y-158023089D01*
X144569501Y-157993039D01*
X144634149Y-157959905D01*
X144696935Y-157923781D01*
X144757766Y-157884762D01*
X144816547Y-157842942D01*
X144873184Y-157798416D01*
X144927584Y-157751276D01*
X144979651Y-157701619D01*
X145029292Y-157649537D01*
X145076412Y-157595125D01*
X145120919Y-157538478D01*
X145162716Y-157479689D01*
X145201711Y-157418854D01*
X145237808Y-157356065D01*
X145270915Y-157291418D01*
X145300936Y-157225006D01*
X145327778Y-157156925D01*
X145351347Y-157087267D01*
X145371548Y-157016128D01*
X145388287Y-156943602D01*
X145401470Y-156869782D01*
X145411003Y-156794763D01*
X145416792Y-156718640D01*
X145418743Y-156641507D01*
X145416800Y-156564323D01*
X145411016Y-156488153D01*
X145401487Y-156413089D01*
X145388306Y-156339226D01*
X145371567Y-156266659D01*
X145351365Y-156195481D01*
X145327793Y-156125787D01*
X145300947Y-156057672D01*
X145270920Y-155991228D01*
X145237806Y-155926551D01*
X145201700Y-155863735D01*
X145162696Y-155802874D01*
X145120888Y-155744063D01*
X145076370Y-155687395D01*
X145029237Y-155632964D01*
X144979583Y-155580866D01*
X144927501Y-155531194D01*
X144873086Y-155484043D01*
X144816433Y-155439506D01*
X144757635Y-155397678D01*
X144696787Y-155358654D01*
X144633983Y-155322527D01*
X144569317Y-155289392D01*
X144502884Y-155259343D01*
X144434777Y-155232474D01*
X144365091Y-155208879D01*
X144293919Y-155188654D01*
X144221357Y-155171891D01*
X144147499Y-155158685D01*
X144072438Y-155149131D01*
X143996268Y-155143322D01*
X143919085Y-155141354D01*
X143906439Y-155141302D01*
X143893978Y-155141353D01*
X143817885Y-155144515D01*
X143742667Y-155151424D01*
X143668579Y-155161980D01*
X143595712Y-155176093D01*
X143524158Y-155193669D01*
X143454006Y-155214618D01*
X143385347Y-155238846D01*
X143318271Y-155266263D01*
X143252869Y-155296776D01*
X143189233Y-155330292D01*
X143127451Y-155366721D01*
X143067615Y-155405970D01*
X143009815Y-155447947D01*
X142954142Y-155492560D01*
X142900686Y-155539717D01*
X142849538Y-155589326D01*
X142800789Y-155641296D01*
X142754528Y-155695534D01*
X142710847Y-155751948D01*
X142669836Y-155810446D01*
X142631586Y-155870936D01*
X142596186Y-155933327D01*
X142563728Y-155997526D01*
X142534303Y-156063442D01*
X142508000Y-156130981D01*
X142484911Y-156200053D01*
X142465125Y-156270566D01*
X142448734Y-156342427D01*
X142435827Y-156415544D01*
X142426496Y-156489825D01*
X142420831Y-156565180D01*
X142418923Y-156641514D01*
X139418613Y-156641514D01*
X139418613Y-155141354D01*
X143893793Y-155141354D01*
X143893978Y-155141353D01*
X143894144Y-155141346D01*
X143893793Y-155141354D01*
X139418613Y-155141354D01*
X139418613Y-152641239D01*
X139419911Y-152589629D01*
G37*
G36*
X141863063Y-130787020D02*
G01*
X141872519Y-130787474D01*
X141881664Y-130788229D01*
X141890499Y-130789287D01*
X141899023Y-130790647D01*
X141907237Y-130792309D01*
X141915140Y-130794274D01*
X141922733Y-130796541D01*
X141930016Y-130799111D01*
X141936988Y-130801984D01*
X141943650Y-130805159D01*
X141950002Y-130808637D01*
X141956044Y-130812419D01*
X141961775Y-130816503D01*
X141967196Y-130820890D01*
X141972307Y-130825580D01*
X141977108Y-130830573D01*
X141981599Y-130835870D01*
X141985781Y-130841470D01*
X141989652Y-130847373D01*
X141993213Y-130853580D01*
X141996464Y-130860090D01*
X141999406Y-130866903D01*
X142002037Y-130874021D01*
X142004359Y-130881442D01*
X142006372Y-130889167D01*
X142008074Y-130897195D01*
X142009467Y-130905528D01*
X142010550Y-130914164D01*
X142011324Y-130923105D01*
X142011788Y-130932350D01*
X142011943Y-130941899D01*
X142011943Y-131167729D01*
X142011788Y-131177280D01*
X142011324Y-131186530D01*
X142010550Y-131195478D01*
X142009467Y-131204124D01*
X142008074Y-131212469D01*
X142006372Y-131220512D01*
X142004359Y-131228252D01*
X142002037Y-131235691D01*
X141999406Y-131242827D01*
X141996464Y-131249661D01*
X141993213Y-131256193D01*
X141989652Y-131262422D01*
X141985781Y-131268348D01*
X141981599Y-131273972D01*
X141977108Y-131279292D01*
X141972307Y-131284310D01*
X141967196Y-131289024D01*
X141961775Y-131293435D01*
X141956044Y-131297543D01*
X141950002Y-131301347D01*
X141943650Y-131304847D01*
X141936988Y-131308044D01*
X141930016Y-131310936D01*
X141922733Y-131313525D01*
X141915140Y-131315810D01*
X141907237Y-131317790D01*
X141899023Y-131319466D01*
X141890499Y-131320838D01*
X141881664Y-131321905D01*
X141872519Y-131322667D01*
X141853297Y-131323277D01*
X141666228Y-131323277D01*
X141656461Y-131323124D01*
X141647005Y-131322667D01*
X141637860Y-131321905D01*
X141629025Y-131320838D01*
X141620501Y-131319466D01*
X141612287Y-131317790D01*
X141604384Y-131315810D01*
X141596791Y-131313525D01*
X141589508Y-131310936D01*
X141582536Y-131308044D01*
X141575874Y-131304847D01*
X141569522Y-131301347D01*
X141563481Y-131297543D01*
X141557749Y-131293435D01*
X141552328Y-131289024D01*
X141547217Y-131284310D01*
X141542416Y-131279292D01*
X141537925Y-131273972D01*
X141533744Y-131268348D01*
X141529873Y-131262422D01*
X141526311Y-131256193D01*
X141523060Y-131249661D01*
X141520119Y-131242827D01*
X141517487Y-131235691D01*
X141515165Y-131228252D01*
X141513153Y-131220512D01*
X141511450Y-131212469D01*
X141510057Y-131204124D01*
X141508974Y-131195478D01*
X141508200Y-131186530D01*
X141507736Y-131177280D01*
X141507581Y-131167729D01*
X141507581Y-130941899D01*
X141507736Y-130932350D01*
X141508200Y-130923105D01*
X141508974Y-130914164D01*
X141510057Y-130905528D01*
X141511450Y-130897195D01*
X141513153Y-130889167D01*
X141515165Y-130881442D01*
X141517487Y-130874021D01*
X141520119Y-130866903D01*
X141523060Y-130860090D01*
X141526311Y-130853580D01*
X141529873Y-130847373D01*
X141533744Y-130841470D01*
X141537925Y-130835870D01*
X141542416Y-130830573D01*
X141547217Y-130825580D01*
X141552328Y-130820890D01*
X141557749Y-130816503D01*
X141563481Y-130812419D01*
X141569522Y-130808637D01*
X141575874Y-130805159D01*
X141582536Y-130801984D01*
X141589508Y-130799111D01*
X141596791Y-130796541D01*
X141604384Y-130794274D01*
X141612287Y-130792309D01*
X141620501Y-130790647D01*
X141629025Y-130789287D01*
X141637860Y-130788229D01*
X141647005Y-130787474D01*
X141666228Y-130786869D01*
X141853297Y-130786869D01*
X141863063Y-130787020D01*
G37*
G36*
X144019573Y-135096173D02*
G01*
X142001608Y-135177304D01*
X142001608Y-135240864D01*
X143518311Y-135632054D01*
X143538818Y-135636603D01*
X143558005Y-135642314D01*
X143567104Y-135645605D01*
X143575873Y-135649187D01*
X143584311Y-135653058D01*
X143592420Y-135657220D01*
X143600198Y-135661672D01*
X143607646Y-135666413D01*
X143614763Y-135671445D01*
X143621550Y-135676766D01*
X143628007Y-135682377D01*
X143634133Y-135688277D01*
X143639928Y-135694468D01*
X143645393Y-135700947D01*
X143650527Y-135707716D01*
X143655331Y-135714775D01*
X143659803Y-135722122D01*
X143663945Y-135729759D01*
X143667755Y-135737685D01*
X143671235Y-135745900D01*
X143674383Y-135754404D01*
X143677201Y-135763197D01*
X143679687Y-135772278D01*
X143681841Y-135781648D01*
X143685157Y-135801255D01*
X143687147Y-135822016D01*
X143687810Y-135843930D01*
X143687810Y-136182408D01*
X143687644Y-136193516D01*
X143687147Y-136204351D01*
X143686318Y-136214912D01*
X143685157Y-136225200D01*
X143683665Y-136235213D01*
X143681841Y-136244953D01*
X143679687Y-136254418D01*
X143677201Y-136263609D01*
X143674383Y-136272525D01*
X143671235Y-136281167D01*
X143667755Y-136289534D01*
X143663945Y-136297626D01*
X143659803Y-136305442D01*
X143655331Y-136312984D01*
X143650527Y-136320250D01*
X143645393Y-136327241D01*
X143639928Y-136333956D01*
X143634133Y-136340396D01*
X143628007Y-136346559D01*
X143621550Y-136352447D01*
X143614763Y-136358058D01*
X143607646Y-136363393D01*
X143600198Y-136368452D01*
X143592420Y-136373234D01*
X143584311Y-136377739D01*
X143575873Y-136381968D01*
X143567104Y-136385919D01*
X143558005Y-136389593D01*
X143548576Y-136392990D01*
X143538818Y-136396110D01*
X143528729Y-136398952D01*
X143518311Y-136401516D01*
X142001608Y-136792706D01*
X142001608Y-136852650D01*
X144019573Y-136927067D01*
X144019573Y-137427815D01*
X141782500Y-137336346D01*
X141758579Y-137334730D01*
X141747198Y-137333374D01*
X141736204Y-137331654D01*
X141725596Y-137329570D01*
X141715375Y-137327120D01*
X141705541Y-137324306D01*
X141696092Y-137321126D01*
X141687030Y-137317582D01*
X141678355Y-137313673D01*
X141670065Y-137309399D01*
X141662162Y-137304761D01*
X141654644Y-137299757D01*
X141647513Y-137294388D01*
X141640768Y-137288655D01*
X141634408Y-137282556D01*
X141628435Y-137276092D01*
X141622847Y-137269263D01*
X141617645Y-137262070D01*
X141612829Y-137254511D01*
X141608398Y-137246587D01*
X141604353Y-137238298D01*
X141600694Y-137229643D01*
X141597419Y-137220624D01*
X141594531Y-137211239D01*
X141592027Y-137201489D01*
X141589909Y-137191374D01*
X141588176Y-137180894D01*
X141586829Y-137170048D01*
X141585866Y-137158837D01*
X141585289Y-137147261D01*
X141585096Y-137135319D01*
X141585096Y-136630444D01*
X141585265Y-136619772D01*
X141585774Y-136609363D01*
X141586622Y-136599218D01*
X141587808Y-136589336D01*
X141589333Y-136579718D01*
X141591197Y-136570362D01*
X141593399Y-136561269D01*
X141595940Y-136552440D01*
X141598819Y-136543873D01*
X141602036Y-136535568D01*
X141605592Y-136527527D01*
X141609485Y-136519747D01*
X141613717Y-136512230D01*
X141618287Y-136504975D01*
X141623194Y-136497982D01*
X141628439Y-136491251D01*
X141634022Y-136484782D01*
X141639942Y-136478575D01*
X141646200Y-136472629D01*
X141652794Y-136466945D01*
X141659727Y-136461522D01*
X141666996Y-136456360D01*
X141674603Y-136451459D01*
X141682546Y-136446820D01*
X141690826Y-136442441D01*
X141699443Y-136438323D01*
X141708397Y-136434466D01*
X141717687Y-136430870D01*
X141727314Y-136427534D01*
X141737277Y-136424458D01*
X141758212Y-136419087D01*
X142981910Y-136104893D01*
X143003150Y-136099717D01*
X143024515Y-136094771D01*
X143046001Y-136090052D01*
X143067600Y-136085557D01*
X143111119Y-136077227D01*
X143155026Y-136069752D01*
X143197552Y-136062431D01*
X143240461Y-136054615D01*
X143283802Y-136046359D01*
X143327625Y-136037716D01*
X143327625Y-135992237D01*
X143283787Y-135983595D01*
X143240441Y-135975338D01*
X143197536Y-135967522D01*
X143155026Y-135960202D01*
X142978809Y-135925061D01*
X141758212Y-135614483D01*
X141737277Y-135609525D01*
X141717687Y-135603471D01*
X141708397Y-135600033D01*
X141699443Y-135596321D01*
X141690826Y-135592334D01*
X141682546Y-135588072D01*
X141674603Y-135583536D01*
X141666996Y-135578725D01*
X141659727Y-135573639D01*
X141652794Y-135568278D01*
X141646200Y-135562641D01*
X141639942Y-135556730D01*
X141634022Y-135550543D01*
X141628439Y-135544081D01*
X141623194Y-135537343D01*
X141618287Y-135530330D01*
X141613717Y-135523040D01*
X141609485Y-135515475D01*
X141605592Y-135507634D01*
X141602036Y-135499516D01*
X141598819Y-135491122D01*
X141595940Y-135482452D01*
X141593399Y-135473505D01*
X141591197Y-135464282D01*
X141589333Y-135454782D01*
X141587808Y-135445005D01*
X141585774Y-135424620D01*
X141585096Y-135403126D01*
X141585096Y-134887913D01*
X141585288Y-134876187D01*
X141585866Y-134864819D01*
X141586829Y-134853811D01*
X141588176Y-134843161D01*
X141589909Y-134832871D01*
X141592027Y-134822940D01*
X141594530Y-134813367D01*
X141597419Y-134804153D01*
X141600693Y-134795298D01*
X141604353Y-134786802D01*
X141608398Y-134778664D01*
X141612829Y-134770885D01*
X141617645Y-134763464D01*
X141622847Y-134756402D01*
X141628435Y-134749698D01*
X141634408Y-134743352D01*
X141640768Y-134737365D01*
X141647513Y-134731736D01*
X141654644Y-134726465D01*
X141662161Y-134721552D01*
X141670065Y-134716998D01*
X141678354Y-134712801D01*
X141687030Y-134708962D01*
X141696092Y-134705481D01*
X141705540Y-134702358D01*
X141715375Y-134699593D01*
X141725596Y-134697185D01*
X141736204Y-134695135D01*
X141747198Y-134693442D01*
X141758579Y-134692108D01*
X141782500Y-134690510D01*
X144019573Y-134598530D01*
X144019573Y-135096173D01*
G37*
G36*
X141539901Y-125610322D02*
G01*
X141544789Y-125544885D01*
X141551650Y-125482203D01*
X141560497Y-125422276D01*
X141565667Y-125393347D01*
X141571338Y-125365107D01*
X141577510Y-125337557D01*
X141584185Y-125310696D01*
X141591364Y-125284526D01*
X141599048Y-125259045D01*
X141606879Y-125234223D01*
X141615371Y-125210027D01*
X141624525Y-125186457D01*
X141634340Y-125163515D01*
X141644816Y-125141202D01*
X141655954Y-125119520D01*
X141667753Y-125098469D01*
X141680213Y-125078050D01*
X141693334Y-125058265D01*
X141707116Y-125039115D01*
X141721559Y-125020602D01*
X141736663Y-125002726D01*
X141752428Y-124985488D01*
X141768853Y-124968890D01*
X141785940Y-124952933D01*
X141803687Y-124937619D01*
X141821740Y-124922446D01*
X141840620Y-124907800D01*
X141860327Y-124893678D01*
X141880863Y-124880082D01*
X141902225Y-124867011D01*
X141924415Y-124854464D01*
X141947431Y-124842441D01*
X141971274Y-124830943D01*
X141995945Y-124819968D01*
X142021442Y-124809516D01*
X142047765Y-124799588D01*
X142074915Y-124790183D01*
X142102891Y-124781300D01*
X142131694Y-124772940D01*
X142161322Y-124765102D01*
X142191777Y-124757786D01*
X142254561Y-124744562D01*
X142321202Y-124733111D01*
X142391701Y-124723428D01*
X142466059Y-124715512D01*
X142544275Y-124709359D01*
X142626349Y-124704968D01*
X142712283Y-124702335D01*
X142802076Y-124701458D01*
X142891928Y-124702335D01*
X142978037Y-124704968D01*
X143060402Y-124709359D01*
X143139021Y-124715512D01*
X143213891Y-124723428D01*
X143285011Y-124733111D01*
X143352379Y-124744562D01*
X143415991Y-124757786D01*
X143446033Y-124765102D01*
X143475304Y-124772940D01*
X143503804Y-124781300D01*
X143531532Y-124790183D01*
X143558489Y-124799588D01*
X143584675Y-124809516D01*
X143610089Y-124819968D01*
X143634732Y-124830943D01*
X143658602Y-124842441D01*
X143681701Y-124854464D01*
X143704028Y-124867011D01*
X143725583Y-124880082D01*
X143746366Y-124893678D01*
X143766377Y-124907800D01*
X143785615Y-124922446D01*
X143804082Y-124937619D01*
X143821417Y-124952933D01*
X143838148Y-124968890D01*
X143854272Y-124985488D01*
X143869790Y-125002726D01*
X143884703Y-125020602D01*
X143899009Y-125039115D01*
X143912709Y-125058265D01*
X143925803Y-125078050D01*
X143938291Y-125098469D01*
X143950172Y-125119520D01*
X143961447Y-125141202D01*
X143972115Y-125163515D01*
X143982177Y-125186457D01*
X143991631Y-125210027D01*
X144000479Y-125234223D01*
X144008720Y-125259045D01*
X144022780Y-125310696D01*
X144034961Y-125365107D01*
X144045265Y-125422276D01*
X144053692Y-125482203D01*
X144060245Y-125544885D01*
X144064923Y-125610322D01*
X144067730Y-125678512D01*
X144068665Y-125749455D01*
X144067730Y-125820375D01*
X144064923Y-125888508D01*
X144060245Y-125953862D01*
X144053692Y-126016450D01*
X144045265Y-126076282D01*
X144034961Y-126133368D01*
X144029106Y-126160885D01*
X144022780Y-126187719D01*
X144015985Y-126213872D01*
X144008720Y-126239346D01*
X144000479Y-126264178D01*
X143991631Y-126288403D01*
X143982177Y-126312022D01*
X143972115Y-126335034D01*
X143961447Y-126357439D01*
X143950172Y-126379237D01*
X143938291Y-126400429D01*
X143925803Y-126421015D01*
X143912709Y-126440994D01*
X143899009Y-126460367D01*
X143884703Y-126479134D01*
X143869790Y-126497295D01*
X143854272Y-126514850D01*
X143838148Y-126531798D01*
X143821417Y-126548141D01*
X143804082Y-126563877D01*
X143785615Y-126579054D01*
X143766377Y-126593716D01*
X143746366Y-126607862D01*
X143725583Y-126621491D01*
X143704028Y-126634601D01*
X143681701Y-126647191D01*
X143658602Y-126659260D01*
X143634732Y-126670807D01*
X143610089Y-126681831D01*
X143584675Y-126692329D01*
X143558489Y-126702301D01*
X143531532Y-126711747D01*
X143503804Y-126720663D01*
X143475304Y-126729050D01*
X143446033Y-126736905D01*
X143415991Y-126744229D01*
X143352379Y-126757450D01*
X143285011Y-126768901D01*
X143213891Y-126778584D01*
X143139021Y-126786500D01*
X143060402Y-126792653D01*
X142978037Y-126797046D01*
X142891928Y-126799679D01*
X142802076Y-126800556D01*
X142712283Y-126799679D01*
X142626350Y-126797046D01*
X142544275Y-126792653D01*
X142466059Y-126786500D01*
X142391702Y-126778584D01*
X142321202Y-126768901D01*
X142254561Y-126757450D01*
X142191777Y-126744229D01*
X142161323Y-126736907D01*
X142131694Y-126729052D01*
X142102892Y-126720666D01*
X142074915Y-126711750D01*
X142047765Y-126702305D01*
X142021442Y-126692332D01*
X141995945Y-126681834D01*
X141971275Y-126670810D01*
X141947431Y-126659263D01*
X141924415Y-126647193D01*
X141902225Y-126634602D01*
X141880863Y-126621492D01*
X141860328Y-126607863D01*
X141840620Y-126593717D01*
X141821740Y-126579054D01*
X141803687Y-126563877D01*
X141785938Y-126548141D01*
X141768849Y-126531798D01*
X141752422Y-126514850D01*
X141736656Y-126497295D01*
X141721550Y-126479134D01*
X141707107Y-126460367D01*
X141693324Y-126440994D01*
X141680203Y-126421015D01*
X141667743Y-126400429D01*
X141655945Y-126379237D01*
X141644808Y-126357439D01*
X141634333Y-126335034D01*
X141624519Y-126312022D01*
X141615367Y-126288403D01*
X141606877Y-126264178D01*
X141599048Y-126239346D01*
X141584185Y-126187719D01*
X141571338Y-126133368D01*
X141560497Y-126076282D01*
X141551651Y-126016450D01*
X141544789Y-125953862D01*
X141539901Y-125888508D01*
X141536976Y-125820375D01*
X141536003Y-125749455D01*
X141962850Y-125749455D01*
X141963137Y-125772505D01*
X141963999Y-125794914D01*
X141965436Y-125816685D01*
X141967450Y-125837817D01*
X141970039Y-125858312D01*
X141973206Y-125878170D01*
X141976951Y-125897393D01*
X141981274Y-125915981D01*
X141986176Y-125933935D01*
X141991657Y-125951256D01*
X141997718Y-125967945D01*
X142004361Y-125984003D01*
X142011584Y-125999431D01*
X142019389Y-126014230D01*
X142027777Y-126028400D01*
X142036748Y-126041943D01*
X142046435Y-126054513D01*
X142056973Y-126066644D01*
X142068362Y-126078338D01*
X142080603Y-126089592D01*
X142093695Y-126100407D01*
X142107640Y-126110782D01*
X142122438Y-126120717D01*
X142138090Y-126130211D01*
X142154595Y-126139265D01*
X142171956Y-126147877D01*
X142190172Y-126156047D01*
X142209243Y-126163775D01*
X142229171Y-126171061D01*
X142249955Y-126177904D01*
X142271597Y-126184303D01*
X142294097Y-126190258D01*
X142341388Y-126200179D01*
X142393310Y-126208782D01*
X142449860Y-126216064D01*
X142511041Y-126222025D01*
X142576853Y-126226664D01*
X142647295Y-126229979D01*
X142722370Y-126231968D01*
X142802076Y-126232632D01*
X142881008Y-126231968D01*
X142955529Y-126229979D01*
X143025639Y-126226664D01*
X143091340Y-126222025D01*
X143152632Y-126216064D01*
X143209514Y-126208782D01*
X143261989Y-126200179D01*
X143310055Y-126190258D01*
X143332561Y-126184303D01*
X143354221Y-126177904D01*
X143375031Y-126171061D01*
X143394993Y-126163775D01*
X143414104Y-126156047D01*
X143432363Y-126147877D01*
X143449771Y-126139265D01*
X143466325Y-126130211D01*
X143482025Y-126120717D01*
X143496869Y-126110782D01*
X143510857Y-126100407D01*
X143523988Y-126089592D01*
X143536261Y-126078338D01*
X143547675Y-126066644D01*
X143558228Y-126054513D01*
X143567920Y-126041943D01*
X143576891Y-126028400D01*
X143585279Y-126014230D01*
X143593084Y-125999431D01*
X143600307Y-125984003D01*
X143606949Y-125967945D01*
X143613011Y-125951256D01*
X143618492Y-125933935D01*
X143623394Y-125915981D01*
X143627717Y-125897393D01*
X143631461Y-125878170D01*
X143634628Y-125858312D01*
X143637218Y-125837817D01*
X143639231Y-125816685D01*
X143640669Y-125794914D01*
X143641531Y-125772505D01*
X143641818Y-125749455D01*
X143641531Y-125726840D01*
X143640669Y-125704860D01*
X143639231Y-125683513D01*
X143637218Y-125662799D01*
X143634628Y-125642719D01*
X143631461Y-125623274D01*
X143627717Y-125604461D01*
X143623394Y-125586283D01*
X143618492Y-125568739D01*
X143613011Y-125551828D01*
X143606949Y-125535552D01*
X143600307Y-125519909D01*
X143593084Y-125504901D01*
X143585279Y-125490527D01*
X143576891Y-125476787D01*
X143567920Y-125463681D01*
X143558227Y-125450699D01*
X143547673Y-125438210D01*
X143536258Y-125426215D01*
X143523985Y-125414713D01*
X143510853Y-125403706D01*
X143496865Y-125393193D01*
X143482020Y-125383176D01*
X143466320Y-125373654D01*
X143449766Y-125364628D01*
X143432359Y-125356098D01*
X143414100Y-125348066D01*
X143394989Y-125340531D01*
X143375028Y-125333493D01*
X143354218Y-125326954D01*
X143332560Y-125320914D01*
X143310055Y-125315373D01*
X143261989Y-125304617D01*
X143209514Y-125295286D01*
X143152632Y-125287383D01*
X143091340Y-125280911D01*
X143025639Y-125275872D01*
X142955529Y-125272269D01*
X142881008Y-125270105D01*
X142802076Y-125269383D01*
X142722369Y-125270105D01*
X142647295Y-125272269D01*
X142576853Y-125275872D01*
X142511041Y-125280911D01*
X142449860Y-125287383D01*
X142393309Y-125295286D01*
X142341388Y-125304617D01*
X142317164Y-125309817D01*
X142294096Y-125315373D01*
X142271594Y-125320914D01*
X142249951Y-125326954D01*
X142229164Y-125333493D01*
X142209235Y-125340531D01*
X142190163Y-125348066D01*
X142171946Y-125356098D01*
X142154585Y-125364628D01*
X142138080Y-125373654D01*
X142122428Y-125383176D01*
X142107630Y-125393193D01*
X142093686Y-125403706D01*
X142080595Y-125414713D01*
X142068356Y-125426215D01*
X142056969Y-125438210D01*
X142046433Y-125450699D01*
X142036748Y-125463681D01*
X142027777Y-125476787D01*
X142019389Y-125490527D01*
X142011584Y-125504901D01*
X142004361Y-125519909D01*
X141997719Y-125535552D01*
X141991657Y-125551828D01*
X141986176Y-125568739D01*
X141981274Y-125586283D01*
X141976951Y-125604461D01*
X141973207Y-125623274D01*
X141970040Y-125642719D01*
X141967450Y-125662799D01*
X141965437Y-125683513D01*
X141963999Y-125704860D01*
X141963137Y-125726840D01*
X141962850Y-125749455D01*
X141536003Y-125749455D01*
X141536976Y-125678512D01*
X141539901Y-125610322D01*
G37*
G36*
X145045134Y-128061581D02*
G01*
X145046158Y-128039315D01*
X145047592Y-128017668D01*
X145049438Y-127996637D01*
X145051695Y-127976221D01*
X145054364Y-127956419D01*
X145057446Y-127937230D01*
X145060941Y-127918654D01*
X145064850Y-127900688D01*
X145069173Y-127883332D01*
X145073912Y-127866585D01*
X145079066Y-127850445D01*
X145084636Y-127834912D01*
X145090622Y-127819984D01*
X145097026Y-127805661D01*
X145103904Y-127791626D01*
X145111312Y-127778097D01*
X145119252Y-127765075D01*
X145127721Y-127752562D01*
X145136721Y-127740558D01*
X145146251Y-127729064D01*
X145156310Y-127718080D01*
X145166900Y-127707609D01*
X145178018Y-127697649D01*
X145189666Y-127688204D01*
X145201843Y-127679272D01*
X145214549Y-127670856D01*
X145227784Y-127662956D01*
X145241547Y-127655573D01*
X145255839Y-127648707D01*
X145270659Y-127642361D01*
X145286049Y-127636212D01*
X145302056Y-127630464D01*
X145318680Y-127625114D01*
X145335920Y-127620164D01*
X145353774Y-127615611D01*
X145372243Y-127611457D01*
X145391325Y-127607701D01*
X145411020Y-127604342D01*
X145452244Y-127598813D01*
X145495908Y-127594869D01*
X145542008Y-127592504D01*
X145590536Y-127591717D01*
X145615098Y-127591914D01*
X145639043Y-127592504D01*
X145662372Y-127593489D01*
X145685085Y-127594869D01*
X145707184Y-127596643D01*
X145728667Y-127598813D01*
X145749538Y-127601379D01*
X145769796Y-127604342D01*
X145789442Y-127607701D01*
X145808477Y-127611457D01*
X145826902Y-127615611D01*
X145844717Y-127620164D01*
X145861923Y-127625114D01*
X145878521Y-127630464D01*
X145894512Y-127636212D01*
X145909896Y-127642361D01*
X145924465Y-127648706D01*
X145938539Y-127655571D01*
X145952118Y-127662953D01*
X145965203Y-127670853D01*
X145977792Y-127679269D01*
X145989885Y-127688200D01*
X146001483Y-127697646D01*
X146012585Y-127707606D01*
X146023191Y-127718078D01*
X146033301Y-127729062D01*
X146042914Y-127740557D01*
X146052031Y-127752561D01*
X146060651Y-127765075D01*
X146068774Y-127778097D01*
X146076400Y-127791626D01*
X146083529Y-127805661D01*
X146089932Y-127819984D01*
X146095919Y-127834912D01*
X146101489Y-127850445D01*
X146106643Y-127866585D01*
X146111381Y-127883332D01*
X146115705Y-127900688D01*
X146119614Y-127918654D01*
X146123109Y-127937230D01*
X146126191Y-127956419D01*
X146128860Y-127976221D01*
X146131117Y-127996637D01*
X146132962Y-128017668D01*
X146135420Y-128061581D01*
X146136239Y-128107968D01*
X146136034Y-128130972D01*
X146135420Y-128153418D01*
X146134396Y-128175304D01*
X146132962Y-128196632D01*
X146131117Y-128217400D01*
X146128860Y-128237607D01*
X146126191Y-128257253D01*
X146123109Y-128276337D01*
X146119614Y-128294859D01*
X146115705Y-128312819D01*
X146111381Y-128330215D01*
X146106643Y-128347047D01*
X146101489Y-128363315D01*
X146095919Y-128379018D01*
X146089932Y-128394155D01*
X146083529Y-128408726D01*
X146076405Y-128422506D01*
X146068783Y-128435803D01*
X146060663Y-128448616D01*
X146052046Y-128460947D01*
X146042931Y-128472797D01*
X146033319Y-128484165D01*
X146023211Y-128495053D01*
X146012605Y-128505460D01*
X146001503Y-128515388D01*
X145989904Y-128524837D01*
X145977809Y-128533808D01*
X145965218Y-128542301D01*
X145952131Y-128550317D01*
X145938548Y-128557856D01*
X145924470Y-128564919D01*
X145909896Y-128571507D01*
X145894512Y-128577661D01*
X145878521Y-128583426D01*
X145861923Y-128588801D01*
X145844717Y-128593784D01*
X145826902Y-128598375D01*
X145808477Y-128602572D01*
X145789442Y-128606375D01*
X145769796Y-128609782D01*
X145728667Y-128615404D01*
X145685085Y-128619430D01*
X145639043Y-128621853D01*
X145590536Y-128622662D01*
X145565969Y-128622459D01*
X145542008Y-128621853D01*
X145518654Y-128620843D01*
X145495908Y-128619430D01*
X145473771Y-128617617D01*
X145452244Y-128615404D01*
X145431326Y-128612792D01*
X145411020Y-128609782D01*
X145391325Y-128606375D01*
X145372243Y-128602572D01*
X145353774Y-128598375D01*
X145335920Y-128593784D01*
X145318680Y-128588801D01*
X145302056Y-128583426D01*
X145286049Y-128577661D01*
X145270659Y-128571507D01*
X145255841Y-128564919D01*
X145241552Y-128557856D01*
X145227790Y-128550317D01*
X145214557Y-128542301D01*
X145201852Y-128533808D01*
X145189676Y-128524837D01*
X145178028Y-128515388D01*
X145166910Y-128505460D01*
X145156320Y-128495053D01*
X145146260Y-128484165D01*
X145136730Y-128472797D01*
X145127729Y-128460947D01*
X145119258Y-128448616D01*
X145111317Y-128435803D01*
X145103906Y-128422506D01*
X145097026Y-128408726D01*
X145090622Y-128394155D01*
X145084636Y-128379018D01*
X145079066Y-128363315D01*
X145073912Y-128347047D01*
X145069173Y-128330215D01*
X145064850Y-128312819D01*
X145060941Y-128294859D01*
X145057446Y-128276337D01*
X145054364Y-128257253D01*
X145051695Y-128237607D01*
X145049438Y-128217400D01*
X145047592Y-128196632D01*
X145045134Y-128153418D01*
X145044316Y-128107968D01*
X145239136Y-128107968D01*
X145239257Y-128119461D01*
X145239621Y-128130659D01*
X145240228Y-128141563D01*
X145241080Y-128152171D01*
X145242177Y-128162484D01*
X145243520Y-128172501D01*
X145245110Y-128182220D01*
X145246947Y-128191643D01*
X145249033Y-128200768D01*
X145251368Y-128209595D01*
X145253953Y-128218124D01*
X145256789Y-128226354D01*
X145259877Y-128234284D01*
X145263217Y-128241915D01*
X145266811Y-128249246D01*
X145270659Y-128256276D01*
X145274542Y-128262778D01*
X145278792Y-128269054D01*
X145283408Y-128275104D01*
X145288390Y-128280927D01*
X145293737Y-128286522D01*
X145299450Y-128291887D01*
X145305527Y-128297023D01*
X145311969Y-128301928D01*
X145318776Y-128306601D01*
X145325946Y-128311042D01*
X145333480Y-128315250D01*
X145341378Y-128319224D01*
X145349638Y-128322962D01*
X145358262Y-128326465D01*
X145367247Y-128329732D01*
X145376595Y-128332760D01*
X145396611Y-128338215D01*
X145418556Y-128342940D01*
X145442427Y-128346938D01*
X145468220Y-128350207D01*
X145495931Y-128352748D01*
X145525557Y-128354563D01*
X145557093Y-128355652D01*
X145590536Y-128356015D01*
X145623958Y-128355652D01*
X145655437Y-128354563D01*
X145684979Y-128352748D01*
X145712595Y-128350207D01*
X145738292Y-128346938D01*
X145750424Y-128345030D01*
X145762080Y-128342940D01*
X145773260Y-128340669D01*
X145783966Y-128338215D01*
X145794199Y-128335579D01*
X145803959Y-128332760D01*
X145813304Y-128329732D01*
X145822286Y-128326465D01*
X145830907Y-128322962D01*
X145839165Y-128319224D01*
X145847061Y-128315250D01*
X145854594Y-128311042D01*
X145861764Y-128306601D01*
X145868570Y-128301928D01*
X145875013Y-128297023D01*
X145881091Y-128291887D01*
X145886805Y-128286522D01*
X145892154Y-128280927D01*
X145897138Y-128275104D01*
X145901756Y-128269054D01*
X145906009Y-128262778D01*
X145909896Y-128256276D01*
X145913485Y-128249246D01*
X145916850Y-128241916D01*
X145919990Y-128234285D01*
X145922904Y-128226355D01*
X145925592Y-128218126D01*
X145928051Y-128209597D01*
X145930282Y-128200771D01*
X145932282Y-128191646D01*
X145934051Y-128182224D01*
X145935588Y-128172504D01*
X145936892Y-128162488D01*
X145937960Y-128152175D01*
X145938794Y-128141566D01*
X145939390Y-128130662D01*
X145939749Y-128119462D01*
X145939869Y-128107968D01*
X145939749Y-128096223D01*
X145939390Y-128084802D01*
X145938794Y-128073702D01*
X145937960Y-128062922D01*
X145936892Y-128052462D01*
X145935588Y-128042319D01*
X145934051Y-128032493D01*
X145932282Y-128022982D01*
X145930282Y-128013785D01*
X145928051Y-128004902D01*
X145925592Y-127996330D01*
X145922904Y-127988069D01*
X145919990Y-127980117D01*
X145916850Y-127972473D01*
X145913485Y-127965135D01*
X145909896Y-127958104D01*
X145906013Y-127951353D01*
X145901763Y-127944862D01*
X145897147Y-127938631D01*
X145892165Y-127932660D01*
X145886818Y-127926951D01*
X145881105Y-127921504D01*
X145875027Y-127916320D01*
X145868585Y-127911399D01*
X145861779Y-127906743D01*
X145854608Y-127902353D01*
X145847074Y-127898228D01*
X145839177Y-127894371D01*
X145830916Y-127890781D01*
X145822293Y-127887460D01*
X145813307Y-127884408D01*
X145803959Y-127881626D01*
X145783966Y-127876172D01*
X145762080Y-127871446D01*
X145738292Y-127867449D01*
X145712595Y-127864180D01*
X145684979Y-127861638D01*
X145655437Y-127859823D01*
X145623958Y-127858735D01*
X145590536Y-127858372D01*
X145557093Y-127858735D01*
X145525557Y-127859823D01*
X145495931Y-127861638D01*
X145468220Y-127864180D01*
X145442427Y-127867449D01*
X145430251Y-127869357D01*
X145418556Y-127871446D01*
X145407343Y-127873718D01*
X145396611Y-127876172D01*
X145386362Y-127878808D01*
X145376595Y-127881626D01*
X145367251Y-127884408D01*
X145358268Y-127887460D01*
X145349648Y-127890781D01*
X145341389Y-127894371D01*
X145333493Y-127898228D01*
X145325960Y-127902353D01*
X145318791Y-127906743D01*
X145311984Y-127911399D01*
X145305542Y-127916320D01*
X145299464Y-127921504D01*
X145293750Y-127926951D01*
X145288401Y-127932660D01*
X145283417Y-127938631D01*
X145278798Y-127944862D01*
X145274545Y-127951353D01*
X145270659Y-127958104D01*
X145266811Y-127965135D01*
X145263217Y-127972472D01*
X145259877Y-127980116D01*
X145256789Y-127988068D01*
X145253953Y-127996329D01*
X145251368Y-128004900D01*
X145249033Y-128013783D01*
X145246947Y-128022979D01*
X145245110Y-128032490D01*
X145243520Y-128042315D01*
X145242177Y-128052458D01*
X145241080Y-128062919D01*
X145240228Y-128073699D01*
X145239621Y-128084800D01*
X145239257Y-128096222D01*
X145239136Y-128107968D01*
X145044316Y-128107968D01*
X145044520Y-128084464D01*
X145045134Y-128061581D01*
G37*
G36*
X143997826Y-128869117D02*
G01*
X144003750Y-128932882D01*
X144008917Y-128997414D01*
X144013320Y-129062716D01*
X144016955Y-129128790D01*
X144019815Y-129195637D01*
X144021895Y-129263261D01*
X144023190Y-129331662D01*
X144026208Y-129467459D01*
X144028299Y-129603225D01*
X144029514Y-129738989D01*
X144029908Y-129874783D01*
X144029357Y-129907363D01*
X144027704Y-129938960D01*
X144024950Y-129969571D01*
X144021094Y-129999196D01*
X144016135Y-130027834D01*
X144010075Y-130055483D01*
X144002912Y-130082142D01*
X143994647Y-130107810D01*
X143985279Y-130132486D01*
X143974810Y-130156169D01*
X143963237Y-130178857D01*
X143950562Y-130200550D01*
X143936784Y-130221246D01*
X143921902Y-130240944D01*
X143905918Y-130259642D01*
X143888831Y-130277340D01*
X143870448Y-130293571D01*
X143851458Y-130308750D01*
X143831862Y-130322879D01*
X143811659Y-130335956D01*
X143790849Y-130347984D01*
X143769433Y-130358963D01*
X143747411Y-130368893D01*
X143724782Y-130377776D01*
X143701547Y-130385610D01*
X143677706Y-130392399D01*
X143653259Y-130398141D01*
X143628205Y-130402838D01*
X143602545Y-130406490D01*
X143576279Y-130409097D01*
X143549407Y-130410662D01*
X143521929Y-130411183D01*
X141585096Y-130411183D01*
X141585096Y-129871167D01*
X143405657Y-129871167D01*
X143416514Y-129870977D01*
X143427036Y-129870408D01*
X143437224Y-129869458D01*
X143447077Y-129868126D01*
X143456598Y-129866412D01*
X143465785Y-129864315D01*
X143474641Y-129861834D01*
X143483165Y-129858967D01*
X143491358Y-129855715D01*
X143499221Y-129852076D01*
X143506755Y-129848049D01*
X143513959Y-129843634D01*
X143520835Y-129838830D01*
X143527383Y-129833635D01*
X143533604Y-129828049D01*
X143539498Y-129822071D01*
X143545058Y-129815732D01*
X143550260Y-129809064D01*
X143555106Y-129802065D01*
X143559594Y-129794736D01*
X143563725Y-129787077D01*
X143567498Y-129779087D01*
X143570913Y-129770767D01*
X143573970Y-129762117D01*
X143576668Y-129753135D01*
X143579007Y-129743823D01*
X143580987Y-129734180D01*
X143582608Y-129724206D01*
X143583869Y-129713901D01*
X143584770Y-129703264D01*
X143585310Y-129692296D01*
X143585491Y-129680996D01*
X143585491Y-128830922D01*
X143991150Y-128806118D01*
X143997826Y-128869117D01*
G37*
G36*
X141863063Y-133722247D02*
G01*
X141872519Y-133722700D01*
X141881665Y-133723455D01*
X141890499Y-133724513D01*
X141899024Y-133725873D01*
X141907237Y-133727535D01*
X141915141Y-133729499D01*
X141922734Y-133731767D01*
X141930016Y-133734336D01*
X141936989Y-133737209D01*
X141943651Y-133740384D01*
X141950002Y-133743862D01*
X141956044Y-133747643D01*
X141961775Y-133751727D01*
X141967196Y-133756114D01*
X141972308Y-133760804D01*
X141977109Y-133765797D01*
X141981600Y-133771093D01*
X141985781Y-133776693D01*
X141989652Y-133782596D01*
X141993213Y-133788803D01*
X141996464Y-133795313D01*
X141999406Y-133802127D01*
X142002038Y-133809244D01*
X142004360Y-133816665D01*
X142006372Y-133824390D01*
X142008074Y-133832419D01*
X142009467Y-133840752D01*
X142010551Y-133849389D01*
X142011324Y-133858330D01*
X142011789Y-133867576D01*
X142011943Y-133877125D01*
X142011943Y-134102948D01*
X142011789Y-134112497D01*
X142011324Y-134121742D01*
X142010551Y-134130684D01*
X142009467Y-134139320D01*
X142008074Y-134147653D01*
X142006372Y-134155682D01*
X142004360Y-134163408D01*
X142002038Y-134170829D01*
X141999406Y-134177946D01*
X141996464Y-134184760D01*
X141993213Y-134191270D01*
X141989652Y-134197477D01*
X141985781Y-134203380D01*
X141981600Y-134208980D01*
X141977109Y-134214276D01*
X141972308Y-134219269D01*
X141967196Y-134223959D01*
X141961775Y-134228346D01*
X141956044Y-134232430D01*
X141950002Y-134236211D01*
X141943651Y-134239689D01*
X141936989Y-134242864D01*
X141930016Y-134245736D01*
X141922734Y-134248306D01*
X141915141Y-134250573D01*
X141907237Y-134252538D01*
X141899024Y-134254200D01*
X141890499Y-134255560D01*
X141881665Y-134256617D01*
X141872519Y-134257373D01*
X141853297Y-134257977D01*
X141666228Y-134257977D01*
X141656462Y-134257826D01*
X141647006Y-134257373D01*
X141637860Y-134256617D01*
X141629026Y-134255560D01*
X141620501Y-134254200D01*
X141612288Y-134252538D01*
X141604384Y-134250573D01*
X141596791Y-134248306D01*
X141589509Y-134245736D01*
X141582536Y-134242864D01*
X141575874Y-134239689D01*
X141569523Y-134236211D01*
X141563481Y-134232430D01*
X141557750Y-134228346D01*
X141552328Y-134223959D01*
X141547217Y-134219269D01*
X141542416Y-134214276D01*
X141537925Y-134208980D01*
X141533744Y-134203380D01*
X141529873Y-134197477D01*
X141526312Y-134191270D01*
X141523060Y-134184760D01*
X141520119Y-134177946D01*
X141517487Y-134170829D01*
X141515165Y-134163408D01*
X141513153Y-134155682D01*
X141511450Y-134147653D01*
X141510057Y-134139320D01*
X141508974Y-134130684D01*
X141508200Y-134121742D01*
X141507736Y-134112497D01*
X141507581Y-134102948D01*
X141507581Y-133877125D01*
X141507736Y-133867576D01*
X141508200Y-133858330D01*
X141508974Y-133849389D01*
X141510057Y-133840752D01*
X141511450Y-133832419D01*
X141513153Y-133824390D01*
X141515165Y-133816665D01*
X141517487Y-133809244D01*
X141520119Y-133802127D01*
X141523060Y-133795313D01*
X141526312Y-133788803D01*
X141529873Y-133782596D01*
X141533744Y-133776693D01*
X141537925Y-133771093D01*
X141542416Y-133765797D01*
X141547217Y-133760804D01*
X141552328Y-133756114D01*
X141557750Y-133751727D01*
X141563481Y-133747643D01*
X141569523Y-133743862D01*
X141575874Y-133740384D01*
X141582536Y-133737209D01*
X141589509Y-133734336D01*
X141596791Y-133731767D01*
X141604384Y-133729499D01*
X141612288Y-133727535D01*
X141620501Y-133725873D01*
X141629026Y-133724513D01*
X141637860Y-133723455D01*
X141647006Y-133722700D01*
X141666228Y-133722096D01*
X141853297Y-133722096D01*
X141863063Y-133722247D01*
G37*
G36*
X141890074Y-150231610D02*
G01*
X141891900Y-150164609D01*
X141894950Y-150100441D01*
X141899229Y-150039099D01*
X141904742Y-149980579D01*
X141911495Y-149924876D01*
X141919492Y-149871983D01*
X141928741Y-149821896D01*
X141934218Y-149797862D01*
X141940073Y-149774442D01*
X141946307Y-149751637D01*
X141952918Y-149729448D01*
X141959907Y-149707874D01*
X141967273Y-149686917D01*
X141975015Y-149666576D01*
X141983132Y-149646852D01*
X141991625Y-149627745D01*
X142000493Y-149609257D01*
X142009736Y-149591386D01*
X142019352Y-149574134D01*
X142029342Y-149557501D01*
X142039706Y-149541487D01*
X142050441Y-149526093D01*
X142061549Y-149511319D01*
X142073059Y-149496770D01*
X142085012Y-149482758D01*
X142097409Y-149469281D01*
X142110249Y-149456339D01*
X142123531Y-149443930D01*
X142137256Y-149432053D01*
X142151423Y-149420708D01*
X142166031Y-149409892D01*
X142181081Y-149399606D01*
X142196571Y-149389849D01*
X142212501Y-149380618D01*
X142228872Y-149371913D01*
X142245681Y-149363734D01*
X142262930Y-149356078D01*
X142280618Y-149348946D01*
X142298744Y-149342335D01*
X142337107Y-149330416D01*
X142377409Y-149320058D01*
X142419650Y-149311270D01*
X142463830Y-149304060D01*
X142509951Y-149298438D01*
X142558013Y-149294412D01*
X142608016Y-149291989D01*
X142659962Y-149291180D01*
X142711850Y-149291989D01*
X142761688Y-149294412D01*
X142785841Y-149296225D01*
X142809485Y-149298438D01*
X142832619Y-149301050D01*
X142855246Y-149304060D01*
X142877365Y-149307467D01*
X142898979Y-149311270D01*
X142920087Y-149315467D01*
X142940691Y-149320058D01*
X142960791Y-149325041D01*
X142980389Y-149330416D01*
X142999485Y-149336181D01*
X143018080Y-149342335D01*
X143036536Y-149348946D01*
X143054510Y-149356078D01*
X143072001Y-149363734D01*
X143089009Y-149371913D01*
X143105533Y-149380618D01*
X143121573Y-149389849D01*
X143137128Y-149399606D01*
X143152199Y-149409892D01*
X143166785Y-149420708D01*
X143180886Y-149432053D01*
X143194501Y-149443930D01*
X143207629Y-149456339D01*
X143220271Y-149469281D01*
X143232426Y-149482758D01*
X143244094Y-149496770D01*
X143255274Y-149511319D01*
X143266362Y-149526093D01*
X143277051Y-149541487D01*
X143287341Y-149557501D01*
X143297233Y-149574134D01*
X143306727Y-149591386D01*
X143315823Y-149609257D01*
X143324522Y-149627745D01*
X143332824Y-149646852D01*
X143340728Y-149666576D01*
X143348237Y-149686917D01*
X143355349Y-149707874D01*
X143362066Y-149729448D01*
X143368388Y-149751637D01*
X143374314Y-149774442D01*
X143379845Y-149797862D01*
X143384982Y-149821896D01*
X143394899Y-149871983D01*
X143403500Y-149924876D01*
X143410782Y-149980579D01*
X143416745Y-150039099D01*
X143421385Y-150100441D01*
X143424701Y-150164609D01*
X143426693Y-150231610D01*
X143427357Y-150301449D01*
X143426693Y-150371311D01*
X143424701Y-150438371D01*
X143421385Y-150502624D01*
X143416745Y-150564061D01*
X143410782Y-150622677D01*
X143403500Y-150678464D01*
X143394899Y-150731414D01*
X143384982Y-150781521D01*
X143379847Y-150805564D01*
X143374318Y-150829009D01*
X143368393Y-150851857D01*
X143362073Y-150874109D01*
X143355358Y-150895763D01*
X143348246Y-150916822D01*
X143340738Y-150937285D01*
X143332833Y-150957152D01*
X143324531Y-150976424D01*
X143315832Y-150995100D01*
X143306735Y-151013183D01*
X143297240Y-151030670D01*
X143287347Y-151047564D01*
X143277055Y-151063865D01*
X143266365Y-151079571D01*
X143255274Y-151094685D01*
X143244093Y-151108893D01*
X143232424Y-151122591D01*
X143220268Y-151135781D01*
X143207626Y-151148463D01*
X143194496Y-151160636D01*
X143180881Y-151172301D01*
X143166781Y-151183458D01*
X143152195Y-151194108D01*
X143137124Y-151204251D01*
X143121568Y-151213888D01*
X143105528Y-151223018D01*
X143089005Y-151231642D01*
X143071998Y-151239760D01*
X143054508Y-151247372D01*
X143036535Y-151254480D01*
X143018080Y-151261082D01*
X142999485Y-151267238D01*
X142980389Y-151273004D01*
X142940691Y-151283364D01*
X142898979Y-151292153D01*
X142855246Y-151299363D01*
X142809485Y-151304986D01*
X142761688Y-151309013D01*
X142711850Y-151311435D01*
X142659962Y-151312245D01*
X142608016Y-151311435D01*
X142558013Y-151309013D01*
X142509951Y-151304986D01*
X142486648Y-151302374D01*
X142463830Y-151299363D01*
X142441498Y-151295956D01*
X142419650Y-151292153D01*
X142398287Y-151287955D01*
X142377409Y-151283364D01*
X142357016Y-151278380D01*
X142337107Y-151273004D01*
X142317683Y-151267238D01*
X142298744Y-151261082D01*
X142280619Y-151254480D01*
X142262932Y-151247372D01*
X142245684Y-151239760D01*
X142228875Y-151231642D01*
X142212506Y-151223018D01*
X142196575Y-151213888D01*
X142181086Y-151204251D01*
X142166036Y-151194108D01*
X142151428Y-151183458D01*
X142137261Y-151172301D01*
X142123536Y-151160636D01*
X142110252Y-151148463D01*
X142097412Y-151135781D01*
X142085014Y-151122591D01*
X142073060Y-151108893D01*
X142061549Y-151094685D01*
X142050447Y-151079571D01*
X142039716Y-151063865D01*
X142029358Y-151047564D01*
X142019371Y-151030670D01*
X142009757Y-151013183D01*
X142000517Y-150995100D01*
X141991650Y-150976424D01*
X141983157Y-150957152D01*
X141975039Y-150937285D01*
X141967296Y-150916822D01*
X141959929Y-150895763D01*
X141952937Y-150874109D01*
X141946322Y-150851857D01*
X141940084Y-150829009D01*
X141934223Y-150805564D01*
X141928741Y-150781521D01*
X141919492Y-150731414D01*
X141911495Y-150678464D01*
X141904742Y-150622677D01*
X141899229Y-150564061D01*
X141894950Y-150502624D01*
X141891900Y-150438371D01*
X141890074Y-150371311D01*
X141889471Y-150301968D01*
X142151983Y-150301968D01*
X142152681Y-150374098D01*
X142154779Y-150442326D01*
X142158280Y-150506660D01*
X142163187Y-150567106D01*
X142169503Y-150623671D01*
X142177232Y-150676362D01*
X142186377Y-150725188D01*
X142191481Y-150748153D01*
X142196941Y-150770153D01*
X142203185Y-150791287D01*
X142209914Y-150811647D01*
X142217130Y-150831235D01*
X142224832Y-150850049D01*
X142233019Y-150868090D01*
X142241692Y-150885359D01*
X142250850Y-150901856D01*
X142260494Y-150917581D01*
X142270622Y-150932534D01*
X142281234Y-150946716D01*
X142292331Y-150960127D01*
X142303912Y-150972766D01*
X142315977Y-150984635D01*
X142328525Y-150995734D01*
X142341556Y-151006063D01*
X142355071Y-151015621D01*
X142369492Y-151024509D01*
X142384532Y-151032822D01*
X142400191Y-151040562D01*
X142416469Y-151047728D01*
X142433365Y-151054321D01*
X142450880Y-151060340D01*
X142469012Y-151065786D01*
X142487762Y-151070659D01*
X142507129Y-151074958D01*
X142527113Y-151078684D01*
X142547714Y-151081837D01*
X142568932Y-151084416D01*
X142590765Y-151086422D01*
X142613215Y-151087855D01*
X142636281Y-151088714D01*
X142659962Y-151089001D01*
X142683629Y-151088714D01*
X142706653Y-151087855D01*
X142729034Y-151086422D01*
X142750773Y-151084416D01*
X142771871Y-151081837D01*
X142792328Y-151078684D01*
X142812144Y-151074958D01*
X142831320Y-151070659D01*
X142849856Y-151065786D01*
X142867754Y-151060340D01*
X142885013Y-151054321D01*
X142901635Y-151047728D01*
X142917619Y-151040562D01*
X142932966Y-151032822D01*
X142947677Y-151024509D01*
X142961752Y-151015621D01*
X142975600Y-151006061D01*
X142988920Y-150995731D01*
X143001712Y-150984631D01*
X143013977Y-150972760D01*
X143025713Y-150960119D01*
X143036921Y-150946707D01*
X143047600Y-150932524D01*
X143057750Y-150917570D01*
X143067371Y-150901844D01*
X143076462Y-150885347D01*
X143085024Y-150868079D01*
X143093057Y-150850038D01*
X143100559Y-150831226D01*
X143107530Y-150811641D01*
X143113972Y-150791283D01*
X143119882Y-150770153D01*
X143131135Y-150725188D01*
X143140891Y-150676362D01*
X143149151Y-150623671D01*
X143155912Y-150567106D01*
X143161172Y-150506660D01*
X143164932Y-150442326D01*
X143167189Y-150374098D01*
X143167941Y-150301968D01*
X143167189Y-150229197D01*
X143164932Y-150160469D01*
X143161172Y-150095787D01*
X143155912Y-150035158D01*
X143149151Y-149978585D01*
X143140891Y-149926076D01*
X143136200Y-149901346D01*
X143131135Y-149877633D01*
X143125695Y-149854939D01*
X143119882Y-149833264D01*
X143113967Y-149812131D01*
X143107522Y-149791772D01*
X143100546Y-149772185D01*
X143093042Y-149753372D01*
X143085007Y-149735330D01*
X143076444Y-149718061D01*
X143067351Y-149701564D01*
X143057730Y-149685839D01*
X143047580Y-149670885D01*
X143036902Y-149656703D01*
X143025696Y-149643292D01*
X143013962Y-149630652D01*
X143001700Y-149618782D01*
X142988911Y-149607683D01*
X142975595Y-149597354D01*
X142961752Y-149587796D01*
X142947677Y-149578909D01*
X142932966Y-149570595D01*
X142917619Y-149562855D01*
X142901635Y-149555689D01*
X142885013Y-149549096D01*
X142867754Y-149543077D01*
X142849856Y-149537631D01*
X142831320Y-149532758D01*
X142812144Y-149528459D01*
X142792328Y-149524733D01*
X142771871Y-149521581D01*
X142750773Y-149519001D01*
X142729034Y-149516995D01*
X142706653Y-149515562D01*
X142683629Y-149514703D01*
X142659962Y-149514416D01*
X142636281Y-149514703D01*
X142613215Y-149515562D01*
X142590765Y-149516995D01*
X142568932Y-149519001D01*
X142547714Y-149521581D01*
X142527113Y-149524733D01*
X142507129Y-149528459D01*
X142487762Y-149532758D01*
X142469012Y-149537631D01*
X142450880Y-149543077D01*
X142433365Y-149549096D01*
X142416469Y-149555689D01*
X142400191Y-149562855D01*
X142384532Y-149570595D01*
X142369492Y-149578909D01*
X142355071Y-149587796D01*
X142341554Y-149597356D01*
X142328520Y-149607686D01*
X142315970Y-149618786D01*
X142303904Y-149630657D01*
X142292322Y-149643298D01*
X142281225Y-149656711D01*
X142270612Y-149670893D01*
X142260484Y-149685848D01*
X142250841Y-149701573D01*
X142241683Y-149718070D01*
X142233011Y-149735339D01*
X142224824Y-149753379D01*
X142217124Y-149772192D01*
X142209910Y-149791777D01*
X142203182Y-149812134D01*
X142196941Y-149833264D01*
X142186377Y-149877633D01*
X142177232Y-149926076D01*
X142169503Y-149978585D01*
X142163187Y-150035158D01*
X142158280Y-150095787D01*
X142154779Y-150160469D01*
X142152681Y-150229197D01*
X142151983Y-150301968D01*
X141889471Y-150301968D01*
X141889466Y-150301449D01*
X141890074Y-150231610D01*
G37*
G36*
X146099047Y-124451259D02*
G01*
X146101549Y-124457973D01*
X146103963Y-124465283D01*
X146106300Y-124473189D01*
X146108568Y-124481691D01*
X146110776Y-124490788D01*
X146112934Y-124500481D01*
X146115051Y-124510769D01*
X146116978Y-124520895D01*
X146118753Y-124531157D01*
X146120372Y-124541555D01*
X146121827Y-124552087D01*
X146123114Y-124562751D01*
X146124227Y-124573545D01*
X146125158Y-124584467D01*
X146125904Y-124595517D01*
X146127675Y-124615993D01*
X146128383Y-124625720D01*
X146128970Y-124635112D01*
X146129433Y-124644174D01*
X146129766Y-124652908D01*
X146129969Y-124661321D01*
X146130037Y-124669415D01*
X146129759Y-124685351D01*
X146128926Y-124700881D01*
X146127539Y-124716005D01*
X146125600Y-124730720D01*
X146123110Y-124745026D01*
X146120070Y-124758921D01*
X146116482Y-124772406D01*
X146112348Y-124785478D01*
X146107668Y-124798137D01*
X146102444Y-124810381D01*
X146096678Y-124822210D01*
X146090370Y-124833623D01*
X146083523Y-124844618D01*
X146076138Y-124855195D01*
X146068216Y-124865352D01*
X146059758Y-124875088D01*
X146050782Y-124884312D01*
X146041328Y-124892936D01*
X146031396Y-124900961D01*
X146020987Y-124908388D01*
X146010100Y-124915216D01*
X145998734Y-124921447D01*
X145986890Y-124927081D01*
X145974567Y-124932120D01*
X145961766Y-124936563D01*
X145948485Y-124940412D01*
X145934726Y-124943666D01*
X145920487Y-124946328D01*
X145905769Y-124948396D01*
X145890571Y-124949873D01*
X145874894Y-124950759D01*
X145858736Y-124951054D01*
X144627287Y-124951054D01*
X144627287Y-124695256D01*
X145795691Y-124697323D01*
X145802995Y-124697188D01*
X145810083Y-124696784D01*
X145816954Y-124696110D01*
X145823608Y-124695169D01*
X145830047Y-124693961D01*
X145836269Y-124692485D01*
X145842276Y-124690744D01*
X145848066Y-124688737D01*
X145853641Y-124686466D01*
X145859001Y-124683931D01*
X145864145Y-124681133D01*
X145869074Y-124678072D01*
X145873788Y-124674750D01*
X145878287Y-124671167D01*
X145882572Y-124667323D01*
X145886642Y-124663220D01*
X145890224Y-124658871D01*
X145893573Y-124654296D01*
X145896688Y-124649493D01*
X145899569Y-124644463D01*
X145902218Y-124639204D01*
X145904633Y-124633715D01*
X145906817Y-124627997D01*
X145908769Y-124622048D01*
X145910490Y-124615867D01*
X145911980Y-124609455D01*
X145913240Y-124602809D01*
X145914270Y-124595931D01*
X145915070Y-124588818D01*
X145915641Y-124581470D01*
X145915983Y-124573887D01*
X145916097Y-124566067D01*
X145916097Y-124475117D01*
X146096448Y-124445141D01*
X146099047Y-124451259D01*
G37*
G36*
X144019573Y-131316037D02*
G01*
X142276527Y-131316037D01*
X142276527Y-130797207D01*
X144019573Y-130797207D01*
X144019573Y-131316037D01*
G37*
D11*
X144000000Y-74700000D02*
X144000000Y-86350000D01*
D10*
G36*
X142233301Y-101918482D02*
G01*
X142235055Y-101887768D01*
X142237314Y-101857956D01*
X142240076Y-101829046D01*
X142243344Y-101801040D01*
X142247118Y-101773937D01*
X142251399Y-101747738D01*
X142256188Y-101722443D01*
X142261486Y-101698053D01*
X142267294Y-101674569D01*
X142273613Y-101651992D01*
X142280443Y-101630320D01*
X142287786Y-101609556D01*
X142295643Y-101589699D01*
X142304387Y-101570309D01*
X142313686Y-101551652D01*
X142323539Y-101533727D01*
X142333946Y-101516533D01*
X142344905Y-101500069D01*
X142356418Y-101484334D01*
X142368482Y-101469329D01*
X142381099Y-101455052D01*
X142394266Y-101441503D01*
X142407984Y-101428681D01*
X142422253Y-101416585D01*
X142437071Y-101405214D01*
X142452439Y-101394569D01*
X142468355Y-101384647D01*
X142484820Y-101375449D01*
X142501832Y-101366974D01*
X142519779Y-101358773D01*
X142538343Y-101351101D01*
X142557524Y-101343959D01*
X142577322Y-101337347D01*
X142597737Y-101331264D01*
X142618770Y-101325710D01*
X142640419Y-101320686D01*
X142662686Y-101316192D01*
X142685570Y-101312226D01*
X142709071Y-101308789D01*
X142733190Y-101305882D01*
X142757927Y-101303503D01*
X142783281Y-101301653D01*
X142809253Y-101300332D01*
X142835843Y-101299539D01*
X142863051Y-101299275D01*
X142901181Y-101299713D01*
X142937964Y-101301029D01*
X142973398Y-101303222D01*
X143007484Y-101306294D01*
X143040224Y-101310245D01*
X143071617Y-101315076D01*
X143101663Y-101320787D01*
X143130365Y-101327380D01*
X143157721Y-101334855D01*
X143183733Y-101343212D01*
X143208401Y-101352453D01*
X143231726Y-101362578D01*
X143253708Y-101373587D01*
X143274347Y-101385482D01*
X143293645Y-101398263D01*
X143311602Y-101411930D01*
X143328689Y-101426472D01*
X143344673Y-101441875D01*
X143359554Y-101458138D01*
X143373332Y-101475263D01*
X143386008Y-101493247D01*
X143397580Y-101512092D01*
X143408050Y-101531798D01*
X143417418Y-101552363D01*
X143425683Y-101573788D01*
X143432845Y-101596073D01*
X143438906Y-101619218D01*
X143443864Y-101643222D01*
X143447720Y-101668085D01*
X143450475Y-101693808D01*
X143452127Y-101720389D01*
X143452678Y-101747830D01*
X143452714Y-101770451D01*
X143452115Y-101792455D01*
X143450880Y-101813840D01*
X143449010Y-101834608D01*
X143446503Y-101854758D01*
X143443359Y-101874291D01*
X143439577Y-101893206D01*
X143435156Y-101911504D01*
X143430096Y-101929184D01*
X143424396Y-101946247D01*
X143418055Y-101962692D01*
X143411072Y-101978521D01*
X143403448Y-101993732D01*
X143395180Y-102008326D01*
X143386269Y-102022303D01*
X143376714Y-102035664D01*
X143366473Y-102047969D01*
X143355505Y-102059485D01*
X143343809Y-102070211D01*
X143331387Y-102080146D01*
X143318237Y-102089289D01*
X143304360Y-102097641D01*
X143289756Y-102105200D01*
X143274424Y-102111965D01*
X143258364Y-102117938D01*
X143241577Y-102123115D01*
X143224062Y-102127498D01*
X143205819Y-102131085D01*
X143186848Y-102133876D01*
X143167149Y-102135871D01*
X143146722Y-102137068D01*
X143125567Y-102137467D01*
X142489430Y-102137467D01*
X142492028Y-102166896D01*
X142495044Y-102195346D01*
X142498526Y-102222682D01*
X142502519Y-102248771D01*
X142507073Y-102273478D01*
X142512234Y-102296670D01*
X142515058Y-102307656D01*
X142518051Y-102318212D01*
X142521219Y-102328323D01*
X142524570Y-102337971D01*
X142530412Y-102352149D01*
X142536651Y-102365756D01*
X142543286Y-102378791D01*
X142550317Y-102391254D01*
X142557745Y-102403144D01*
X142565569Y-102414462D01*
X142573790Y-102425207D01*
X142582408Y-102435380D01*
X142591422Y-102444979D01*
X142600834Y-102454005D01*
X142610643Y-102462456D01*
X142620849Y-102470334D01*
X142631452Y-102477638D01*
X142642453Y-102484367D01*
X142653851Y-102490522D01*
X142665646Y-102496102D01*
X142677880Y-102501222D01*
X142690594Y-102506003D01*
X142703788Y-102510444D01*
X142717463Y-102514548D01*
X142731619Y-102518315D01*
X142746259Y-102521748D01*
X142761382Y-102524847D01*
X142776990Y-102527614D01*
X142793082Y-102530050D01*
X142809661Y-102532157D01*
X142844278Y-102535389D01*
X142880848Y-102537319D01*
X142919378Y-102537960D01*
X142975629Y-102537465D01*
X143034328Y-102535950D01*
X143095497Y-102533374D01*
X143159156Y-102529694D01*
X143223735Y-102523885D01*
X143284809Y-102517738D01*
X143342356Y-102511239D01*
X143396351Y-102504372D01*
X143421672Y-102665085D01*
X143404966Y-102671306D01*
X143387301Y-102677264D01*
X143368672Y-102682959D01*
X143349077Y-102688391D01*
X143328512Y-102693557D01*
X143306972Y-102698458D01*
X143284456Y-102703092D01*
X143260959Y-102707459D01*
X143237540Y-102711556D01*
X143213850Y-102715383D01*
X143189891Y-102718942D01*
X143165666Y-102722234D01*
X143141176Y-102725262D01*
X143116423Y-102728028D01*
X143091410Y-102730534D01*
X143066139Y-102732781D01*
X143017990Y-102736543D01*
X142972316Y-102739298D01*
X142950406Y-102740280D01*
X142929113Y-102740990D01*
X142908435Y-102741421D01*
X142888372Y-102741566D01*
X142859104Y-102741288D01*
X142830567Y-102740454D01*
X142802760Y-102739064D01*
X142775682Y-102737119D01*
X142749334Y-102734621D01*
X142723715Y-102731569D01*
X142698824Y-102727965D01*
X142674661Y-102723809D01*
X142651226Y-102719101D01*
X142628518Y-102713843D01*
X142606536Y-102708035D01*
X142585281Y-102701677D01*
X142564752Y-102694771D01*
X142544949Y-102687318D01*
X142525870Y-102679317D01*
X142507516Y-102670769D01*
X142489820Y-102661264D01*
X142472715Y-102651096D01*
X142456201Y-102640266D01*
X142440280Y-102628773D01*
X142424952Y-102616617D01*
X142410217Y-102603799D01*
X142396076Y-102590320D01*
X142382530Y-102576178D01*
X142369579Y-102561376D01*
X142357224Y-102545912D01*
X142345466Y-102529787D01*
X142334305Y-102513002D01*
X142323741Y-102495556D01*
X142313776Y-102477450D01*
X142304410Y-102458684D01*
X142295643Y-102439259D01*
X142287786Y-102418755D01*
X142280443Y-102397459D01*
X142273613Y-102375371D01*
X142267294Y-102352491D01*
X142261486Y-102328818D01*
X142256188Y-102304353D01*
X142251399Y-102279095D01*
X142247118Y-102253043D01*
X142240076Y-102198558D01*
X142235055Y-102140896D01*
X142232048Y-102080054D01*
X142231048Y-102016030D01*
X142231298Y-101982613D01*
X142232018Y-101951432D01*
X142484779Y-101951432D01*
X143063555Y-101951432D01*
X143069311Y-101951370D01*
X143074938Y-101951184D01*
X143080436Y-101950875D01*
X143085805Y-101950443D01*
X143091046Y-101949887D01*
X143096158Y-101949208D01*
X143101142Y-101948407D01*
X143105997Y-101947483D01*
X143110724Y-101946436D01*
X143115324Y-101945267D01*
X143119796Y-101943975D01*
X143124140Y-101942562D01*
X143128357Y-101941027D01*
X143132446Y-101939370D01*
X143136409Y-101937591D01*
X143140244Y-101935691D01*
X143143953Y-101933669D01*
X143147535Y-101931527D01*
X143150991Y-101929263D01*
X143154320Y-101926879D01*
X143157523Y-101924374D01*
X143160600Y-101921749D01*
X143163552Y-101919003D01*
X143166377Y-101916137D01*
X143169078Y-101913152D01*
X143171652Y-101910046D01*
X143174102Y-101906821D01*
X143176427Y-101903476D01*
X143178626Y-101900012D01*
X143180701Y-101896429D01*
X143182652Y-101892726D01*
X143184478Y-101888905D01*
X143187898Y-101880748D01*
X143191101Y-101872503D01*
X143194088Y-101864171D01*
X143196856Y-101855751D01*
X143199407Y-101847243D01*
X143201739Y-101838647D01*
X143203852Y-101829963D01*
X143205744Y-101821191D01*
X143207417Y-101812331D01*
X143208868Y-101803382D01*
X143210097Y-101794345D01*
X143211105Y-101785219D01*
X143211889Y-101776005D01*
X143212450Y-101766702D01*
X143212787Y-101757310D01*
X143212900Y-101747830D01*
X143212260Y-101731547D01*
X143211046Y-101715858D01*
X143209258Y-101700763D01*
X143206897Y-101686263D01*
X143203961Y-101672358D01*
X143200452Y-101659047D01*
X143196369Y-101646332D01*
X143191713Y-101634211D01*
X143186483Y-101622686D01*
X143180681Y-101611757D01*
X143174305Y-101601423D01*
X143170902Y-101596480D01*
X143167356Y-101591685D01*
X143163667Y-101587039D01*
X143159835Y-101582543D01*
X143155859Y-101578195D01*
X143151741Y-101573997D01*
X143147479Y-101569947D01*
X143143074Y-101566047D01*
X143138526Y-101562295D01*
X143133835Y-101558693D01*
X143123894Y-101551860D01*
X143113119Y-101545470D01*
X143101511Y-101539522D01*
X143089068Y-101534018D01*
X143075790Y-101528955D01*
X143061676Y-101524335D01*
X143046726Y-101520156D01*
X143030938Y-101516419D01*
X143014313Y-101513122D01*
X142996849Y-101510266D01*
X142978546Y-101507851D01*
X142959403Y-101505875D01*
X142939420Y-101504339D01*
X142918595Y-101503242D01*
X142896928Y-101502585D01*
X142874419Y-101502365D01*
X142855963Y-101502545D01*
X142837989Y-101503085D01*
X142820499Y-101503982D01*
X142803491Y-101505237D01*
X142786967Y-101506849D01*
X142770927Y-101508816D01*
X142755371Y-101511138D01*
X142740300Y-101513813D01*
X142725713Y-101516842D01*
X142711613Y-101520222D01*
X142697998Y-101523953D01*
X142684869Y-101528034D01*
X142672227Y-101532464D01*
X142660072Y-101537243D01*
X142648404Y-101542369D01*
X142637224Y-101547840D01*
X142626827Y-101553391D01*
X142616804Y-101559462D01*
X142607153Y-101566053D01*
X142597876Y-101573166D01*
X142588973Y-101580803D01*
X142580444Y-101588965D01*
X142572290Y-101597654D01*
X142564510Y-101606870D01*
X142557105Y-101616616D01*
X142550075Y-101626892D01*
X142543420Y-101637700D01*
X142537141Y-101649041D01*
X142531237Y-101660917D01*
X142525710Y-101673330D01*
X142520559Y-101686280D01*
X142515785Y-101699768D01*
X142512291Y-101711516D01*
X142509034Y-101723860D01*
X142503205Y-101750281D01*
X142498247Y-101778919D01*
X142494111Y-101809661D01*
X142490746Y-101842396D01*
X142488103Y-101877011D01*
X142486130Y-101913394D01*
X142484779Y-101951432D01*
X142232018Y-101951432D01*
X142232048Y-101950097D01*
X142233301Y-101918482D01*
G37*
G36*
X145249654Y-62121945D02*
G01*
X145251409Y-62091231D01*
X145253667Y-62061419D01*
X145256429Y-62032510D01*
X145259697Y-62004503D01*
X145263471Y-61977400D01*
X145267752Y-61951201D01*
X145272541Y-61925907D01*
X145277840Y-61901517D01*
X145283648Y-61878033D01*
X145289966Y-61855455D01*
X145296797Y-61833784D01*
X145304140Y-61813019D01*
X145311997Y-61793163D01*
X145320740Y-61773774D01*
X145330039Y-61755117D01*
X145339891Y-61737192D01*
X145350298Y-61719998D01*
X145361257Y-61703534D01*
X145372770Y-61687800D01*
X145384834Y-61672794D01*
X145397450Y-61658517D01*
X145410618Y-61644968D01*
X145424336Y-61632145D01*
X145438605Y-61620049D01*
X145453423Y-61608678D01*
X145468791Y-61598032D01*
X145484708Y-61588111D01*
X145501172Y-61578913D01*
X145518185Y-61570438D01*
X145536132Y-61562236D01*
X145554697Y-61554565D01*
X145573878Y-61547423D01*
X145593675Y-61540811D01*
X145614090Y-61534728D01*
X145635123Y-61529175D01*
X145656772Y-61524151D01*
X145679039Y-61519657D01*
X145701923Y-61515692D01*
X145725424Y-61512255D01*
X145749543Y-61509348D01*
X145774280Y-61506969D01*
X145799634Y-61505119D01*
X145825606Y-61503798D01*
X145852196Y-61503005D01*
X145879404Y-61502741D01*
X145917535Y-61503180D01*
X145954317Y-61504495D01*
X145989751Y-61506688D01*
X146023838Y-61509760D01*
X146056577Y-61513711D01*
X146087970Y-61518542D01*
X146118017Y-61524254D01*
X146146718Y-61530846D01*
X146174075Y-61538321D01*
X146200087Y-61546678D01*
X146224755Y-61555919D01*
X146248079Y-61566044D01*
X146270061Y-61577053D01*
X146290701Y-61588948D01*
X146309998Y-61601728D01*
X146327955Y-61615396D01*
X146345042Y-61629938D01*
X146361026Y-61645340D01*
X146375907Y-61661604D01*
X146389686Y-61678728D01*
X146402361Y-61696712D01*
X146413934Y-61715557D01*
X146424404Y-61735263D01*
X146433771Y-61755828D01*
X146442036Y-61777253D01*
X146449199Y-61799538D01*
X146455259Y-61822682D01*
X146460217Y-61846686D01*
X146464074Y-61871549D01*
X146466828Y-61897271D01*
X146468481Y-61923853D01*
X146469031Y-61951292D01*
X146469065Y-61973914D01*
X146468463Y-61995918D01*
X146467227Y-62017304D01*
X146465356Y-62038072D01*
X146462848Y-62058222D01*
X146459703Y-62077755D01*
X146455920Y-62096670D01*
X146451499Y-62114967D01*
X146446439Y-62132648D01*
X146440740Y-62149711D01*
X146434399Y-62166157D01*
X146427418Y-62181985D01*
X146419795Y-62197197D01*
X146411529Y-62211792D01*
X146402620Y-62225769D01*
X146393067Y-62239130D01*
X146382826Y-62251436D01*
X146371858Y-62262952D01*
X146360163Y-62273677D01*
X146347741Y-62283612D01*
X146334591Y-62292756D01*
X146320714Y-62301107D01*
X146306110Y-62308666D01*
X146290778Y-62315432D01*
X146274718Y-62321404D01*
X146257931Y-62326582D01*
X146240416Y-62330964D01*
X146222173Y-62334552D01*
X146203202Y-62337343D01*
X146183503Y-62339337D01*
X146163075Y-62340534D01*
X146141920Y-62340933D01*
X145505783Y-62340933D01*
X145508383Y-62370322D01*
X145511401Y-62398708D01*
X145514883Y-62425964D01*
X145518878Y-62451965D01*
X145523432Y-62476587D01*
X145528593Y-62499704D01*
X145531415Y-62510659D01*
X145534407Y-62521190D01*
X145537574Y-62531283D01*
X145540923Y-62540921D01*
X145546765Y-62555099D01*
X145553003Y-62568706D01*
X145559637Y-62581741D01*
X145566668Y-62594204D01*
X145574096Y-62606094D01*
X145581920Y-62617412D01*
X145590141Y-62628158D01*
X145598759Y-62638330D01*
X145607773Y-62647929D01*
X145617185Y-62656954D01*
X145626994Y-62665406D01*
X145637200Y-62673284D01*
X145647804Y-62680587D01*
X145658805Y-62687317D01*
X145670204Y-62693471D01*
X145682000Y-62699050D01*
X145694234Y-62704177D01*
X145706948Y-62708973D01*
X145720142Y-62713440D01*
X145733818Y-62717577D01*
X145747975Y-62721383D01*
X145762614Y-62724859D01*
X145777738Y-62728005D01*
X145793345Y-62730820D01*
X145809438Y-62733305D01*
X145826016Y-62735458D01*
X145860633Y-62738772D01*
X145897202Y-62740762D01*
X145935731Y-62741425D01*
X145991982Y-62740930D01*
X146050681Y-62739416D01*
X146111850Y-62736840D01*
X146175510Y-62733158D01*
X146240088Y-62727268D01*
X146301163Y-62720943D01*
X146358709Y-62714266D01*
X146412704Y-62707319D01*
X146438026Y-62868550D01*
X146421319Y-62874769D01*
X146403654Y-62880727D01*
X146385026Y-62886422D01*
X146365430Y-62891854D01*
X146344865Y-62897021D01*
X146323326Y-62901922D01*
X146300809Y-62906557D01*
X146277312Y-62910924D01*
X146253893Y-62915021D01*
X146230204Y-62918848D01*
X146206246Y-62922407D01*
X146182020Y-62925700D01*
X146157531Y-62928728D01*
X146132778Y-62931494D01*
X146107764Y-62933999D01*
X146082492Y-62936245D01*
X146058107Y-62938228D01*
X146034342Y-62939928D01*
X146011196Y-62941352D01*
X145988669Y-62942504D01*
X145966759Y-62943392D01*
X145945465Y-62944019D01*
X145924788Y-62944391D01*
X145904725Y-62944514D01*
X145875457Y-62944241D01*
X145846920Y-62943423D01*
X145819113Y-62942059D01*
X145792035Y-62940147D01*
X145765687Y-62937688D01*
X145740068Y-62934680D01*
X145715177Y-62931122D01*
X145691014Y-62927014D01*
X145667579Y-62922354D01*
X145644871Y-62917143D01*
X145622890Y-62911378D01*
X145601635Y-62905060D01*
X145581106Y-62898187D01*
X145561302Y-62890759D01*
X145542224Y-62882775D01*
X145523870Y-62874234D01*
X145506173Y-62864729D01*
X145489068Y-62854562D01*
X145472555Y-62843732D01*
X145456633Y-62832238D01*
X145441305Y-62820083D01*
X145426570Y-62807265D01*
X145412429Y-62793785D01*
X145398883Y-62779644D01*
X145385932Y-62764841D01*
X145373577Y-62749377D01*
X145361819Y-62733252D01*
X145350658Y-62716467D01*
X145340094Y-62699021D01*
X145330129Y-62680915D01*
X145320763Y-62662149D01*
X145311997Y-62642723D01*
X145304140Y-62622220D01*
X145296797Y-62600924D01*
X145289966Y-62578836D01*
X145283648Y-62555957D01*
X145277840Y-62532284D01*
X145272541Y-62507819D01*
X145267752Y-62482561D01*
X145263471Y-62456509D01*
X145256429Y-62402024D01*
X145251409Y-62344361D01*
X145248402Y-62283518D01*
X145247401Y-62219493D01*
X145247651Y-62186077D01*
X145248383Y-62154381D01*
X145501132Y-62154381D01*
X146079908Y-62154381D01*
X146091297Y-62154139D01*
X146096802Y-62153837D01*
X146102180Y-62153414D01*
X146107432Y-62152870D01*
X146112558Y-62152205D01*
X146117557Y-62151420D01*
X146122430Y-62150513D01*
X146127176Y-62149485D01*
X146131796Y-62148336D01*
X146136289Y-62147066D01*
X146140655Y-62145674D01*
X146144895Y-62144162D01*
X146149008Y-62142529D01*
X146152995Y-62140774D01*
X146156854Y-62138898D01*
X146160587Y-62136900D01*
X146164193Y-62134782D01*
X146167673Y-62132542D01*
X146171025Y-62130181D01*
X146174251Y-62127698D01*
X146177349Y-62125094D01*
X146180321Y-62122369D01*
X146183166Y-62119522D01*
X146185883Y-62116553D01*
X146188474Y-62113463D01*
X146190938Y-62110251D01*
X146193274Y-62106918D01*
X146195483Y-62103464D01*
X146197565Y-62099887D01*
X146199520Y-62096189D01*
X146201348Y-62092369D01*
X146204762Y-62084212D01*
X146207948Y-62075967D01*
X146210909Y-62067634D01*
X146213645Y-62059214D01*
X146216156Y-62050706D01*
X146218445Y-62042110D01*
X146220511Y-62033426D01*
X146222355Y-62024654D01*
X146223980Y-62015793D01*
X146225384Y-62006845D01*
X146226570Y-61997807D01*
X146227538Y-61988682D01*
X146228290Y-61979468D01*
X146228826Y-61970165D01*
X146229146Y-61960773D01*
X146229253Y-61951292D01*
X146228616Y-61935009D01*
X146227404Y-61919320D01*
X146225618Y-61904226D01*
X146223257Y-61889726D01*
X146220323Y-61875821D01*
X146216814Y-61862510D01*
X146212732Y-61849795D01*
X146208076Y-61837675D01*
X146202846Y-61826150D01*
X146197043Y-61815221D01*
X146190666Y-61804887D01*
X146187263Y-61799943D01*
X146183716Y-61795149D01*
X146180027Y-61790503D01*
X146176194Y-61786007D01*
X146172217Y-61781659D01*
X146168098Y-61777460D01*
X146163835Y-61773411D01*
X146159429Y-61769511D01*
X146154880Y-61765759D01*
X146150188Y-61762157D01*
X146140247Y-61755324D01*
X146129472Y-61748934D01*
X146117864Y-61742987D01*
X146105421Y-61737482D01*
X146092143Y-61732420D01*
X146078029Y-61727800D01*
X146063079Y-61723621D01*
X146047291Y-61719884D01*
X146030666Y-61716587D01*
X146013202Y-61713731D01*
X145994899Y-61711315D01*
X145975756Y-61709340D01*
X145955773Y-61707804D01*
X145934948Y-61706707D01*
X145913281Y-61706049D01*
X145890772Y-61705830D01*
X145872316Y-61706004D01*
X145854342Y-61706527D01*
X145836851Y-61707399D01*
X145819844Y-61708621D01*
X145803320Y-61710193D01*
X145787279Y-61712117D01*
X145771723Y-61714392D01*
X145756652Y-61717019D01*
X145742066Y-61719999D01*
X145727966Y-61723333D01*
X145714351Y-61727020D01*
X145701222Y-61731062D01*
X145688580Y-61735459D01*
X145676425Y-61740212D01*
X145664757Y-61745322D01*
X145653577Y-61750788D01*
X145643180Y-61756344D01*
X145633156Y-61762431D01*
X145623506Y-61769048D01*
X145614229Y-61776194D01*
X145605326Y-61783870D01*
X145596797Y-61792076D01*
X145588642Y-61800811D01*
X145580862Y-61810076D01*
X145573457Y-61819870D01*
X145566427Y-61830193D01*
X145559772Y-61841045D01*
X145553493Y-61852425D01*
X145547590Y-61864335D01*
X145542063Y-61876773D01*
X145536912Y-61889739D01*
X145532138Y-61903234D01*
X145528646Y-61914971D01*
X145525390Y-61927297D01*
X145519563Y-61953662D01*
X145514606Y-61982225D01*
X145510470Y-62012883D01*
X145507105Y-62045531D01*
X145504460Y-62080067D01*
X145502486Y-62116384D01*
X145501132Y-62154381D01*
X145248383Y-62154381D01*
X145248402Y-62153560D01*
X145249654Y-62121945D01*
G37*
G36*
X145045705Y-135689648D02*
G01*
X145047440Y-135660943D01*
X145049870Y-135633349D01*
X145052994Y-135606866D01*
X145056813Y-135581493D01*
X145061326Y-135557229D01*
X145066533Y-135534073D01*
X145072435Y-135512026D01*
X145079031Y-135491085D01*
X145086323Y-135471252D01*
X145094309Y-135452524D01*
X145102989Y-135434902D01*
X145112364Y-135418384D01*
X145122435Y-135402971D01*
X145133200Y-135388661D01*
X145144382Y-135375324D01*
X145156228Y-135362832D01*
X145168739Y-135351185D01*
X145181912Y-135340381D01*
X145195748Y-135330421D01*
X145210247Y-135321305D01*
X145225408Y-135313033D01*
X145241231Y-135305604D01*
X145257715Y-135299019D01*
X145274859Y-135293277D01*
X145292665Y-135288378D01*
X145311130Y-135284322D01*
X145330255Y-135281109D01*
X145350038Y-135278738D01*
X145370481Y-135277210D01*
X145391582Y-135276524D01*
X145409039Y-135276543D01*
X145425959Y-135277122D01*
X145442342Y-135278263D01*
X145458191Y-135279965D01*
X145473505Y-135282228D01*
X145488287Y-135285053D01*
X145502537Y-135288439D01*
X145516257Y-135292387D01*
X145529448Y-135296898D01*
X145542112Y-135301970D01*
X145554248Y-135307605D01*
X145565859Y-135313802D01*
X145576946Y-135320562D01*
X145587509Y-135327885D01*
X145597551Y-135335771D01*
X145607072Y-135344220D01*
X145615795Y-135353039D01*
X145623963Y-135362567D01*
X145631573Y-135372804D01*
X145638627Y-135383749D01*
X145645122Y-135395404D01*
X145651057Y-135407769D01*
X145656433Y-135420845D01*
X145661246Y-135434631D01*
X145665497Y-135449128D01*
X145669185Y-135464337D01*
X145672308Y-135480258D01*
X145674865Y-135496892D01*
X145676856Y-135514239D01*
X145678280Y-135532299D01*
X145679134Y-135551073D01*
X145679420Y-135570561D01*
X145679420Y-135988102D01*
X145695611Y-135986308D01*
X145711266Y-135984283D01*
X145726342Y-135982012D01*
X145740796Y-135979479D01*
X145754587Y-135976668D01*
X145767673Y-135973563D01*
X145780010Y-135970147D01*
X145785885Y-135968317D01*
X145791557Y-135966404D01*
X145801155Y-135962824D01*
X145810375Y-135958964D01*
X145819215Y-135954825D01*
X145827675Y-135950405D01*
X145835756Y-135945705D01*
X145843458Y-135940724D01*
X145850780Y-135935463D01*
X145857722Y-135929921D01*
X145864284Y-135924099D01*
X145870465Y-135917994D01*
X145876266Y-135911609D01*
X145881687Y-135904942D01*
X145886727Y-135897993D01*
X145891386Y-135890762D01*
X145895664Y-135883250D01*
X145899561Y-135875454D01*
X145902890Y-135867349D01*
X145906002Y-135858910D01*
X145908897Y-135850137D01*
X145911575Y-135841031D01*
X145914037Y-135831593D01*
X145916284Y-135821822D01*
X145918315Y-135811720D01*
X145920130Y-135801286D01*
X145921731Y-135790522D01*
X145923118Y-135779427D01*
X145925248Y-135756249D01*
X145926525Y-135731756D01*
X145926950Y-135705952D01*
X145926543Y-135665352D01*
X145925349Y-135621855D01*
X145923405Y-135575449D01*
X145920748Y-135526120D01*
X145917499Y-135474791D01*
X145913705Y-135424524D01*
X145909299Y-135375316D01*
X145904212Y-135327168D01*
X146066993Y-135301846D01*
X146072691Y-135316399D01*
X146078133Y-135331483D01*
X146083317Y-135347096D01*
X146088238Y-135363240D01*
X146092894Y-135379912D01*
X146097280Y-135397114D01*
X146101395Y-135414844D01*
X146105233Y-135433102D01*
X146108802Y-135451721D01*
X146112106Y-135470538D01*
X146115148Y-135489555D01*
X146117927Y-135508769D01*
X146120444Y-135528183D01*
X146122698Y-135547794D01*
X146124690Y-135567604D01*
X146126421Y-135587612D01*
X146128285Y-135607045D01*
X146129882Y-135626185D01*
X146131217Y-135645043D01*
X146132296Y-135663628D01*
X146133126Y-135681948D01*
X146133711Y-135700012D01*
X146134058Y-135717829D01*
X146134172Y-135735409D01*
X146133960Y-135758933D01*
X146133322Y-135781878D01*
X146132259Y-135804246D01*
X146130769Y-135826035D01*
X146128853Y-135847246D01*
X146126508Y-135867879D01*
X146123735Y-135887933D01*
X146120534Y-135907408D01*
X146116902Y-135926305D01*
X146112840Y-135944622D01*
X146108347Y-135962361D01*
X146103423Y-135979520D01*
X146098066Y-135996100D01*
X146092276Y-136012101D01*
X146086053Y-136027521D01*
X146079395Y-136042363D01*
X146071998Y-136056413D01*
X146064106Y-136069988D01*
X146055719Y-136083088D01*
X146046838Y-136095711D01*
X146037461Y-136107857D01*
X146027590Y-136119525D01*
X146017223Y-136130715D01*
X146006362Y-136141426D01*
X145995005Y-136151658D01*
X145983152Y-136161409D01*
X145970804Y-136170680D01*
X145957960Y-136179468D01*
X145944621Y-136187775D01*
X145930786Y-136195600D01*
X145916455Y-136202940D01*
X145901628Y-136209797D01*
X145886275Y-136215947D01*
X145870377Y-136221697D01*
X145853934Y-136227047D01*
X145836947Y-136231998D01*
X145819414Y-136236550D01*
X145801336Y-136240704D01*
X145782713Y-136244460D01*
X145763545Y-136247819D01*
X145743830Y-136250781D01*
X145723570Y-136253347D01*
X145681411Y-136257291D01*
X145637067Y-136259654D01*
X145590536Y-136260441D01*
X145565210Y-136260244D01*
X145540558Y-136259654D01*
X145516581Y-136258670D01*
X145493279Y-136257291D01*
X145470654Y-136255516D01*
X145448705Y-136253347D01*
X145427433Y-136250781D01*
X145406838Y-136247819D01*
X145386921Y-136244460D01*
X145367683Y-136240704D01*
X145349123Y-136236550D01*
X145331243Y-136231998D01*
X145314043Y-136227047D01*
X145297523Y-136221697D01*
X145281683Y-136215947D01*
X145266525Y-136209797D01*
X145251715Y-136202948D01*
X145237449Y-136195631D01*
X145223726Y-136187845D01*
X145210548Y-136179593D01*
X145197913Y-136170875D01*
X145185824Y-136161691D01*
X145174279Y-136152043D01*
X145163280Y-136141931D01*
X145152826Y-136131356D01*
X145142919Y-136120319D01*
X145133557Y-136108820D01*
X145124743Y-136096860D01*
X145116476Y-136084441D01*
X145108756Y-136071562D01*
X145101583Y-136058225D01*
X145094959Y-136044430D01*
X145088810Y-136029889D01*
X145083060Y-136014839D01*
X145077710Y-135999280D01*
X145072759Y-135983210D01*
X145068207Y-135966630D01*
X145064053Y-135949538D01*
X145060297Y-135931935D01*
X145056938Y-135913820D01*
X145053976Y-135895192D01*
X145051410Y-135876050D01*
X145049241Y-135856395D01*
X145047467Y-135836225D01*
X145045103Y-135794341D01*
X145044316Y-135750393D01*
X145044432Y-135740055D01*
X145235002Y-135740055D01*
X145235108Y-135752319D01*
X145235427Y-135764234D01*
X145235959Y-135775802D01*
X145236703Y-135787022D01*
X145237662Y-135797895D01*
X145238834Y-135808421D01*
X145240220Y-135818599D01*
X145241821Y-135828430D01*
X145243637Y-135837913D01*
X145245668Y-135847049D01*
X145247915Y-135855838D01*
X145250377Y-135864279D01*
X145253055Y-135872374D01*
X145255950Y-135880121D01*
X145259062Y-135887521D01*
X145262391Y-135894574D01*
X145265999Y-135901326D01*
X145269949Y-135907823D01*
X145274242Y-135914068D01*
X145278878Y-135920060D01*
X145283859Y-135925801D01*
X145289185Y-135931291D01*
X145294857Y-135936531D01*
X145300875Y-135941523D01*
X145307242Y-135946266D01*
X145313956Y-135950763D01*
X145321021Y-135955013D01*
X145328435Y-135959017D01*
X145336200Y-135962778D01*
X145344317Y-135966294D01*
X145352787Y-135969568D01*
X145361610Y-135972599D01*
X145376765Y-135976561D01*
X145393462Y-135980018D01*
X145411607Y-135982998D01*
X145431106Y-135985530D01*
X145451866Y-135987641D01*
X145473793Y-135989359D01*
X145496793Y-135990711D01*
X145520773Y-135991726D01*
X145520773Y-135640324D01*
X145520623Y-135631535D01*
X145520172Y-135623161D01*
X145519421Y-135615202D01*
X145518933Y-135611378D01*
X145518370Y-135607657D01*
X145517732Y-135604040D01*
X145517020Y-135600527D01*
X145516233Y-135597117D01*
X145515371Y-135593811D01*
X145514434Y-135590608D01*
X145513423Y-135587508D01*
X145512338Y-135584512D01*
X145511178Y-135581620D01*
X145509943Y-135578830D01*
X145508635Y-135576144D01*
X145507252Y-135573562D01*
X145505794Y-135571082D01*
X145504263Y-135568706D01*
X145502657Y-135566433D01*
X145500977Y-135564263D01*
X145499223Y-135562197D01*
X145497395Y-135560233D01*
X145495494Y-135558373D01*
X145493518Y-135556615D01*
X145491468Y-135554961D01*
X145489345Y-135553410D01*
X145487148Y-135551962D01*
X145484877Y-135550616D01*
X145482533Y-135549374D01*
X145477705Y-135546810D01*
X145472747Y-135544411D01*
X145467659Y-135542178D01*
X145462439Y-135540109D01*
X145457089Y-135538206D01*
X145451607Y-135536468D01*
X145445994Y-135534895D01*
X145440249Y-135533488D01*
X145434372Y-135532246D01*
X145428362Y-135531169D01*
X145422220Y-135530258D01*
X145415946Y-135529513D01*
X145409538Y-135528933D01*
X145402997Y-135528519D01*
X145396323Y-135528270D01*
X145389515Y-135528187D01*
X145378869Y-135528629D01*
X145368631Y-135529432D01*
X145358801Y-135530597D01*
X145349382Y-135532123D01*
X145340373Y-135534012D01*
X145331775Y-135536263D01*
X145323589Y-135538878D01*
X145315816Y-135541856D01*
X145308457Y-135545199D01*
X145304933Y-135547007D01*
X145301512Y-135548906D01*
X145298195Y-135550896D01*
X145294982Y-135552978D01*
X145291874Y-135555151D01*
X145288869Y-135557416D01*
X145285969Y-135559772D01*
X145283173Y-135562219D01*
X145280481Y-135564759D01*
X145277894Y-135567390D01*
X145275411Y-135570112D01*
X145273033Y-135572927D01*
X145270760Y-135575833D01*
X145268592Y-135578831D01*
X145264490Y-135584920D01*
X145260660Y-135591547D01*
X145257100Y-135598708D01*
X145253809Y-135606404D01*
X145250787Y-135614634D01*
X145248032Y-135623395D01*
X145245544Y-135632688D01*
X145243322Y-135642512D01*
X145241365Y-135652864D01*
X145239671Y-135663744D01*
X145238241Y-135675152D01*
X145237072Y-135687085D01*
X145236165Y-135699543D01*
X145235519Y-135712525D01*
X145235131Y-135726029D01*
X145235002Y-135740055D01*
X145044432Y-135740055D01*
X145044664Y-135719464D01*
X145045705Y-135689648D01*
G37*
G36*
X144716167Y-61536331D02*
G01*
X145153866Y-61536331D01*
X145153866Y-61725467D01*
X144716167Y-61725467D01*
X144716167Y-62532652D01*
X144716333Y-62544779D01*
X144716830Y-62556464D01*
X144717659Y-62567707D01*
X144718820Y-62578509D01*
X144720311Y-62588869D01*
X144722134Y-62598788D01*
X144724287Y-62608266D01*
X144726772Y-62617303D01*
X144729587Y-62625899D01*
X144732733Y-62634054D01*
X144736209Y-62641768D01*
X144740015Y-62649041D01*
X144744152Y-62655874D01*
X144748619Y-62662266D01*
X144753415Y-62668218D01*
X144758542Y-62673729D01*
X144764067Y-62678856D01*
X144770061Y-62683652D01*
X144776522Y-62688119D01*
X144783449Y-62692256D01*
X144790843Y-62696062D01*
X144798702Y-62699538D01*
X144807025Y-62702684D01*
X144815812Y-62705499D01*
X144825062Y-62707984D01*
X144834775Y-62710137D01*
X144844949Y-62711960D01*
X144855584Y-62713451D01*
X144866679Y-62714612D01*
X144878234Y-62715441D01*
X144890247Y-62715938D01*
X144902719Y-62716104D01*
X145111492Y-62716104D01*
X145139397Y-62899556D01*
X145127891Y-62902329D01*
X145115945Y-62905005D01*
X145103560Y-62907587D01*
X145090734Y-62910079D01*
X145077468Y-62912482D01*
X145063759Y-62914800D01*
X145035011Y-62919193D01*
X145020236Y-62921232D01*
X145005546Y-62923098D01*
X144990942Y-62924789D01*
X144976426Y-62926304D01*
X144961998Y-62927641D01*
X144947660Y-62928797D01*
X144933412Y-62929771D01*
X144919255Y-62930561D01*
X144892508Y-62933024D01*
X144880224Y-62934000D01*
X144868655Y-62934803D01*
X144857791Y-62935431D01*
X144847623Y-62935882D01*
X144838142Y-62936154D01*
X144829339Y-62936245D01*
X144808138Y-62935869D01*
X144787576Y-62934739D01*
X144767653Y-62932857D01*
X144748368Y-62930223D01*
X144729723Y-62926838D01*
X144711716Y-62922701D01*
X144694348Y-62917814D01*
X144677619Y-62912176D01*
X144661530Y-62905789D01*
X144646081Y-62898653D01*
X144631271Y-62890768D01*
X144617101Y-62882135D01*
X144603571Y-62872753D01*
X144590681Y-62862625D01*
X144578431Y-62851749D01*
X144566822Y-62840127D01*
X144555885Y-62827803D01*
X144545651Y-62814820D01*
X144536120Y-62801176D01*
X144527292Y-62786874D01*
X144519169Y-62771911D01*
X144511750Y-62756287D01*
X144505037Y-62740003D01*
X144499028Y-62723058D01*
X144493725Y-62705451D01*
X144489128Y-62687183D01*
X144485237Y-62668252D01*
X144482052Y-62648659D01*
X144479575Y-62628404D01*
X144477805Y-62607485D01*
X144476743Y-62585904D01*
X144476389Y-62563658D01*
X144476389Y-61725467D01*
X144227825Y-61725467D01*
X144227825Y-61550284D01*
X144476389Y-61537364D01*
X144476389Y-61130154D01*
X144716167Y-61130154D01*
X144716167Y-61536331D01*
G37*
G36*
X145528004Y-101332867D02*
G01*
X145965186Y-101332867D01*
X145965186Y-101522004D01*
X145528004Y-101522004D01*
X145528004Y-102329190D01*
X145528170Y-102341316D01*
X145528667Y-102353001D01*
X145529496Y-102364244D01*
X145530656Y-102375046D01*
X145532148Y-102385406D01*
X145533971Y-102395325D01*
X145536124Y-102404803D01*
X145538609Y-102413839D01*
X145541424Y-102422435D01*
X145544569Y-102430589D01*
X145548046Y-102438303D01*
X145551852Y-102445577D01*
X145555989Y-102452409D01*
X145560455Y-102458801D01*
X145565252Y-102464753D01*
X145570378Y-102470265D01*
X145575898Y-102475391D01*
X145581875Y-102480188D01*
X145588311Y-102484655D01*
X145595205Y-102488791D01*
X145602560Y-102492598D01*
X145610375Y-102496074D01*
X145618651Y-102499219D01*
X145627390Y-102502035D01*
X145636592Y-102504519D01*
X145646258Y-102506672D01*
X145656388Y-102508495D01*
X145666984Y-102509986D01*
X145678047Y-102511146D01*
X145689576Y-102511975D01*
X145701573Y-102512473D01*
X145714039Y-102512638D01*
X145922812Y-102512638D01*
X145951234Y-102696091D01*
X145939725Y-102698886D01*
X145927778Y-102701621D01*
X145915392Y-102704285D01*
X145902566Y-102706871D01*
X145889300Y-102709369D01*
X145875592Y-102711770D01*
X145861441Y-102714065D01*
X145846848Y-102716244D01*
X145832072Y-102718261D01*
X145817383Y-102720068D01*
X145802779Y-102721677D01*
X145788263Y-102723097D01*
X145773835Y-102724339D01*
X145759497Y-102725412D01*
X145731092Y-102727097D01*
X145704263Y-102729561D01*
X145691897Y-102730536D01*
X145680233Y-102731339D01*
X145669274Y-102731967D01*
X145659023Y-102732418D01*
X145649484Y-102732690D01*
X145640659Y-102732781D01*
X145619458Y-102732410D01*
X145598896Y-102731297D01*
X145578973Y-102729440D01*
X145559688Y-102726839D01*
X145541043Y-102723493D01*
X145523036Y-102719400D01*
X145505668Y-102714560D01*
X145488939Y-102708970D01*
X145472850Y-102702632D01*
X145457401Y-102695542D01*
X145442591Y-102687701D01*
X145428421Y-102679107D01*
X145414891Y-102669759D01*
X145402001Y-102659656D01*
X145389751Y-102648797D01*
X145378142Y-102637181D01*
X145367205Y-102624850D01*
X145356970Y-102611849D01*
X145347439Y-102598180D01*
X145338612Y-102583844D01*
X145330489Y-102568842D01*
X145323070Y-102553174D01*
X145316356Y-102536843D01*
X145310348Y-102519850D01*
X145305045Y-102502195D01*
X145300447Y-102483880D01*
X145296556Y-102464906D01*
X145293372Y-102445275D01*
X145290895Y-102424986D01*
X145289125Y-102404043D01*
X145288063Y-102382446D01*
X145287708Y-102360195D01*
X145287708Y-101522004D01*
X145039661Y-101522004D01*
X145039661Y-101347336D01*
X145287708Y-101333901D01*
X145287708Y-100926689D01*
X145528004Y-100926689D01*
X145528004Y-101332867D01*
G37*
G36*
X145045135Y-131097030D02*
G01*
X145046159Y-131074741D01*
X145047593Y-131053061D01*
X145049438Y-131031992D01*
X145051695Y-131011533D01*
X145054364Y-130991686D01*
X145057446Y-130972450D01*
X145060941Y-130953825D01*
X145064850Y-130935813D01*
X145069174Y-130918414D01*
X145073912Y-130901627D01*
X145079066Y-130885454D01*
X145084636Y-130869894D01*
X145090623Y-130854949D01*
X145097026Y-130840618D01*
X145103904Y-130826589D01*
X145111313Y-130813076D01*
X145119252Y-130800080D01*
X145127722Y-130787599D01*
X145136722Y-130775633D01*
X145146251Y-130764182D01*
X145156311Y-130753244D01*
X145166900Y-130742820D01*
X145178019Y-130732909D01*
X145189667Y-130723509D01*
X145201844Y-130714622D01*
X145214550Y-130706245D01*
X145227784Y-130698379D01*
X145241548Y-130691023D01*
X145255839Y-130684176D01*
X145270659Y-130677838D01*
X145286049Y-130671688D01*
X145302057Y-130665938D01*
X145318681Y-130660588D01*
X145335920Y-130655637D01*
X145353775Y-130651085D01*
X145372243Y-130646931D01*
X145391326Y-130643175D01*
X145411020Y-130639816D01*
X145452244Y-130634288D01*
X145495909Y-130630344D01*
X145542008Y-130627981D01*
X145590536Y-130627194D01*
X145615099Y-130627391D01*
X145639044Y-130627981D01*
X145662373Y-130628965D01*
X145685086Y-130630344D01*
X145707184Y-130632119D01*
X145728668Y-130634288D01*
X145749539Y-130636854D01*
X145769796Y-130639816D01*
X145789442Y-130643175D01*
X145808478Y-130646931D01*
X145826902Y-130651085D01*
X145844717Y-130655637D01*
X145861923Y-130660588D01*
X145878521Y-130665938D01*
X145894512Y-130671688D01*
X145909897Y-130677838D01*
X145924465Y-130684176D01*
X145938540Y-130691023D01*
X145952119Y-130698379D01*
X145965203Y-130706245D01*
X145977792Y-130714622D01*
X145989886Y-130723509D01*
X146001483Y-130732909D01*
X146012585Y-130742820D01*
X146023191Y-130753244D01*
X146033301Y-130764182D01*
X146042914Y-130775633D01*
X146052031Y-130787599D01*
X146060651Y-130800080D01*
X146068774Y-130813076D01*
X146076400Y-130826589D01*
X146083529Y-130840618D01*
X146089933Y-130854949D01*
X146095919Y-130869894D01*
X146101489Y-130885454D01*
X146106643Y-130901627D01*
X146111382Y-130918414D01*
X146115705Y-130935813D01*
X146119614Y-130953825D01*
X146123109Y-130972450D01*
X146126191Y-130991686D01*
X146128860Y-131011533D01*
X146131117Y-131031992D01*
X146132963Y-131053061D01*
X146135421Y-131097030D01*
X146136239Y-131143437D01*
X146136035Y-131166442D01*
X146135421Y-131188889D01*
X146134397Y-131210777D01*
X146132963Y-131232105D01*
X146131117Y-131252874D01*
X146128860Y-131273081D01*
X146126191Y-131292727D01*
X146123109Y-131311812D01*
X146119614Y-131330334D01*
X146115705Y-131348293D01*
X146111382Y-131365689D01*
X146106643Y-131382520D01*
X146101489Y-131398787D01*
X146095919Y-131414489D01*
X146089933Y-131429625D01*
X146083529Y-131444195D01*
X146076405Y-131457978D01*
X146068783Y-131471276D01*
X146060664Y-131484091D01*
X146052046Y-131496424D01*
X146042932Y-131508274D01*
X146033320Y-131519643D01*
X146023211Y-131530530D01*
X146012605Y-131540938D01*
X146001503Y-131550865D01*
X145989904Y-131560314D01*
X145977809Y-131569284D01*
X145965218Y-131577776D01*
X145952131Y-131585790D01*
X145938548Y-131593328D01*
X145924470Y-131600390D01*
X145909897Y-131606976D01*
X145894512Y-131613126D01*
X145878521Y-131618876D01*
X145861923Y-131624226D01*
X145844717Y-131629177D01*
X145826902Y-131633729D01*
X145808478Y-131637883D01*
X145789442Y-131641639D01*
X145769796Y-131644998D01*
X145728668Y-131650525D01*
X145685086Y-131654469D01*
X145639044Y-131656833D01*
X145590536Y-131657620D01*
X145565969Y-131657423D01*
X145542008Y-131656833D01*
X145518655Y-131655848D01*
X145495909Y-131654469D01*
X145473772Y-131652695D01*
X145452244Y-131650525D01*
X145431327Y-131647960D01*
X145411020Y-131644998D01*
X145391326Y-131641639D01*
X145372243Y-131637883D01*
X145353775Y-131633729D01*
X145335920Y-131629177D01*
X145318681Y-131624226D01*
X145302057Y-131618876D01*
X145286049Y-131613126D01*
X145270659Y-131606976D01*
X145255842Y-131600390D01*
X145241552Y-131593328D01*
X145227791Y-131585790D01*
X145214558Y-131577776D01*
X145201853Y-131569284D01*
X145189676Y-131560314D01*
X145178029Y-131550865D01*
X145166910Y-131540938D01*
X145156321Y-131530530D01*
X145146261Y-131519643D01*
X145136730Y-131508274D01*
X145127729Y-131496424D01*
X145119258Y-131484091D01*
X145111317Y-131471276D01*
X145103907Y-131457978D01*
X145097026Y-131444195D01*
X145090623Y-131429625D01*
X145084636Y-131414489D01*
X145079066Y-131398787D01*
X145073912Y-131382520D01*
X145069174Y-131365689D01*
X145064850Y-131348293D01*
X145060941Y-131330334D01*
X145057446Y-131311812D01*
X145054364Y-131292727D01*
X145051695Y-131273081D01*
X145049438Y-131252874D01*
X145047593Y-131232105D01*
X145045135Y-131188889D01*
X145044316Y-131143437D01*
X145239136Y-131143437D01*
X145239257Y-131154931D01*
X145239621Y-131166131D01*
X145240229Y-131177036D01*
X145241080Y-131187645D01*
X145242177Y-131197958D01*
X145243520Y-131207975D01*
X145245110Y-131217696D01*
X145246948Y-131227119D01*
X145249033Y-131236244D01*
X145251369Y-131245072D01*
X145253954Y-131253601D01*
X145256790Y-131261831D01*
X145259878Y-131269761D01*
X145263218Y-131277392D01*
X145266811Y-131284722D01*
X145270659Y-131291752D01*
X145274542Y-131298249D01*
X145278792Y-131304509D01*
X145283408Y-131310533D01*
X145288390Y-131316323D01*
X145293738Y-131321878D01*
X145299450Y-131327200D01*
X145305528Y-131332289D01*
X145311970Y-131337145D01*
X145318776Y-131341770D01*
X145325947Y-131346164D01*
X145333481Y-131350328D01*
X145341378Y-131354263D01*
X145349639Y-131357968D01*
X145358262Y-131361445D01*
X145367248Y-131364695D01*
X145376596Y-131367718D01*
X145396612Y-131373173D01*
X145418557Y-131377898D01*
X145442428Y-131381895D01*
X145468221Y-131385165D01*
X145495932Y-131387706D01*
X145525557Y-131389521D01*
X145557093Y-131390610D01*
X145590536Y-131390972D01*
X145623959Y-131390610D01*
X145655437Y-131389521D01*
X145684980Y-131387706D01*
X145712596Y-131385165D01*
X145738293Y-131381895D01*
X145750425Y-131379988D01*
X145762080Y-131377898D01*
X145773261Y-131375627D01*
X145783967Y-131373173D01*
X145794199Y-131370537D01*
X145803960Y-131367718D01*
X145813304Y-131364695D01*
X145822287Y-131361445D01*
X145830907Y-131357968D01*
X145839166Y-131354263D01*
X145847062Y-131350328D01*
X145854595Y-131346164D01*
X145861765Y-131341770D01*
X145868571Y-131337145D01*
X145875013Y-131332289D01*
X145881091Y-131327200D01*
X145886805Y-131321878D01*
X145892154Y-131316323D01*
X145897138Y-131310533D01*
X145901757Y-131304509D01*
X145906010Y-131298249D01*
X145909897Y-131291752D01*
X145913485Y-131284722D01*
X145916850Y-131277392D01*
X145919990Y-131269762D01*
X145922905Y-131261832D01*
X145925592Y-131253602D01*
X145928052Y-131245074D01*
X145930282Y-131236247D01*
X145932283Y-131227122D01*
X145934052Y-131217699D01*
X145935589Y-131207979D01*
X145936892Y-131197962D01*
X145937961Y-131187648D01*
X145938794Y-131177039D01*
X145939390Y-131166133D01*
X145939749Y-131154932D01*
X145939869Y-131143437D01*
X145939749Y-131131688D01*
X145939390Y-131120251D01*
X145938794Y-131109127D01*
X145937961Y-131098315D01*
X145936892Y-131087815D01*
X145935589Y-131077629D01*
X145934052Y-131067757D01*
X145932283Y-131058198D01*
X145930282Y-131048954D01*
X145928052Y-131040024D01*
X145925592Y-131031408D01*
X145922905Y-131023108D01*
X145919990Y-131015122D01*
X145916850Y-131007453D01*
X145913485Y-131000099D01*
X145909897Y-130993061D01*
X145906013Y-130986317D01*
X145901763Y-130979842D01*
X145897147Y-130973636D01*
X145892165Y-130967698D01*
X145886818Y-130962027D01*
X145881105Y-130956623D01*
X145875028Y-130951485D01*
X145868586Y-130946613D01*
X145861779Y-130942005D01*
X145854609Y-130937660D01*
X145847075Y-130933579D01*
X145839177Y-130929760D01*
X145830917Y-130926203D01*
X145822293Y-130922907D01*
X145813308Y-130919872D01*
X145803960Y-130917096D01*
X145783967Y-130911641D01*
X145762080Y-130906915D01*
X145738293Y-130902918D01*
X145712596Y-130899649D01*
X145684980Y-130897107D01*
X145655437Y-130895292D01*
X145623959Y-130894204D01*
X145590536Y-130893841D01*
X145557093Y-130894204D01*
X145525557Y-130895292D01*
X145495932Y-130897107D01*
X145468221Y-130899649D01*
X145442428Y-130902918D01*
X145430252Y-130904826D01*
X145418557Y-130906915D01*
X145407343Y-130909187D01*
X145396612Y-130911641D01*
X145386362Y-130914277D01*
X145376596Y-130917096D01*
X145367251Y-130919872D01*
X145358269Y-130922907D01*
X145349648Y-130926203D01*
X145341390Y-130929760D01*
X145333494Y-130933579D01*
X145325961Y-130937660D01*
X145318791Y-130942005D01*
X145311985Y-130946613D01*
X145305542Y-130951485D01*
X145299464Y-130956623D01*
X145293750Y-130962027D01*
X145288401Y-130967698D01*
X145283417Y-130973636D01*
X145278799Y-130979842D01*
X145274546Y-130986317D01*
X145270659Y-130993061D01*
X145266811Y-131000099D01*
X145263218Y-131007452D01*
X145259878Y-131015122D01*
X145256790Y-131023106D01*
X145253954Y-131031406D01*
X145251369Y-131040022D01*
X145249033Y-131048951D01*
X145246948Y-131058195D01*
X145245110Y-131067754D01*
X145243520Y-131077626D01*
X145242177Y-131087812D01*
X145241080Y-131098311D01*
X145240229Y-131109124D01*
X145239621Y-131120249D01*
X145239257Y-131131687D01*
X145239136Y-131143437D01*
X145044316Y-131143437D01*
X145044521Y-131119929D01*
X145045135Y-131097030D01*
G37*
G36*
X142002125Y-126984005D02*
G01*
X142002125Y-127865605D01*
X142002299Y-127877332D01*
X142002824Y-127888703D01*
X142003699Y-127899716D01*
X142004927Y-127910371D01*
X142006509Y-127920669D01*
X142008445Y-127930609D01*
X142010737Y-127940191D01*
X142013387Y-127949415D01*
X142016396Y-127958280D01*
X142019764Y-127966787D01*
X142023493Y-127974936D01*
X142027585Y-127982726D01*
X142032040Y-127990157D01*
X142036860Y-127997229D01*
X142042046Y-128003942D01*
X142047600Y-128010296D01*
X142053506Y-128016280D01*
X142059748Y-128021882D01*
X142066326Y-128027102D01*
X142073238Y-128031940D01*
X142080484Y-128036394D01*
X142088062Y-128040465D01*
X142095973Y-128044151D01*
X142104214Y-128047451D01*
X142112786Y-128050366D01*
X142121687Y-128052894D01*
X142130916Y-128055035D01*
X142140473Y-128056789D01*
X142150357Y-128058153D01*
X142160566Y-128059129D01*
X142171100Y-128059715D01*
X142181959Y-128059910D01*
X142604672Y-128059910D01*
X142604672Y-127114231D01*
X142985527Y-127114231D01*
X142985527Y-128059910D01*
X144020089Y-128059910D01*
X144020089Y-128599407D01*
X142072404Y-128599407D01*
X142044542Y-128598848D01*
X142017400Y-128597167D01*
X141990977Y-128594365D01*
X141965274Y-128590440D01*
X141940289Y-128585390D01*
X141916022Y-128579214D01*
X141892473Y-128571911D01*
X141869641Y-128563479D01*
X141847525Y-128553917D01*
X141826125Y-128543224D01*
X141805441Y-128531399D01*
X141785472Y-128518439D01*
X141766218Y-128504344D01*
X141747677Y-128489113D01*
X141729851Y-128472744D01*
X141712737Y-128455235D01*
X141696078Y-128436792D01*
X141680497Y-128417625D01*
X141665992Y-128397735D01*
X141652564Y-128377124D01*
X141640213Y-128355791D01*
X141628937Y-128333738D01*
X141618737Y-128310967D01*
X141609612Y-128287478D01*
X141601562Y-128263272D01*
X141594586Y-128238352D01*
X141588685Y-128212716D01*
X141583857Y-128186368D01*
X141580103Y-128159308D01*
X141577422Y-128131536D01*
X141575813Y-128103055D01*
X141575277Y-128073864D01*
X141574761Y-128073864D01*
X141575569Y-127885200D01*
X141576688Y-127789558D01*
X141578378Y-127693005D01*
X141579080Y-127594899D01*
X141581154Y-127498124D01*
X141584553Y-127402670D01*
X141589230Y-127308529D01*
X141593415Y-127215018D01*
X141598957Y-127125002D01*
X141605837Y-127038514D01*
X141614035Y-126955586D01*
X142002125Y-126984005D01*
G37*
G36*
X143921900Y-150866276D02*
G01*
X143921731Y-150882206D01*
X143921974Y-150897541D01*
X143922632Y-150912281D01*
X143923704Y-150926426D01*
X143925193Y-150939975D01*
X143927099Y-150952930D01*
X143929425Y-150965288D01*
X143932172Y-150977052D01*
X143935340Y-150988220D01*
X143938931Y-150998793D01*
X143942947Y-151008771D01*
X143947389Y-151018152D01*
X143952258Y-151026939D01*
X143957556Y-151035130D01*
X143963284Y-151042725D01*
X143969443Y-151049725D01*
X143976059Y-151056211D01*
X143983208Y-151062270D01*
X143990890Y-151067905D01*
X143999102Y-151073115D01*
X144007846Y-151077903D01*
X144017121Y-151082268D01*
X144026925Y-151086213D01*
X144037260Y-151089738D01*
X144048123Y-151092845D01*
X144059515Y-151095533D01*
X144071435Y-151097806D01*
X144083883Y-151099662D01*
X144096858Y-151101104D01*
X144110360Y-151102133D01*
X144124388Y-151102750D01*
X144138941Y-151102955D01*
X144153398Y-151102750D01*
X144167839Y-151102133D01*
X144182264Y-151101104D01*
X144196671Y-151099662D01*
X144211061Y-151097806D01*
X144225431Y-151095533D01*
X144239781Y-151092845D01*
X144254110Y-151089738D01*
X144268417Y-151086213D01*
X144282701Y-151082268D01*
X144296961Y-151077903D01*
X144311196Y-151073115D01*
X144325405Y-151067905D01*
X144339588Y-151062270D01*
X144353742Y-151056211D01*
X144367868Y-151049725D01*
X144394880Y-151036121D01*
X144423320Y-151020985D01*
X144453100Y-151004415D01*
X144484132Y-150986510D01*
X144516328Y-150967366D01*
X144549599Y-150947082D01*
X144619015Y-150903485D01*
X144619015Y-149900959D01*
X144858794Y-149900959D01*
X144858794Y-151275555D01*
X144666558Y-151275555D01*
X144649505Y-151073498D01*
X144612825Y-151100769D01*
X144576355Y-151126542D01*
X144540098Y-151150772D01*
X144504059Y-151173411D01*
X144468244Y-151194413D01*
X144432657Y-151213730D01*
X144397302Y-151231318D01*
X144379713Y-151239448D01*
X144362184Y-151247128D01*
X144343463Y-151254989D01*
X144324697Y-151262348D01*
X144305885Y-151269204D01*
X144287027Y-151275555D01*
X144268124Y-151281403D01*
X144249177Y-151286745D01*
X144230185Y-151291581D01*
X144211148Y-151295911D01*
X144192068Y-151299734D01*
X144172943Y-151303049D01*
X144153776Y-151305857D01*
X144134564Y-151308155D01*
X144115310Y-151309943D01*
X144096013Y-151311221D01*
X144076674Y-151311989D01*
X144057293Y-151312245D01*
X144034198Y-151311875D01*
X144011835Y-151310766D01*
X143990204Y-151308918D01*
X143969304Y-151306331D01*
X143949135Y-151303005D01*
X143929699Y-151298940D01*
X143910994Y-151294136D01*
X143893021Y-151288593D01*
X143875781Y-151282311D01*
X143859273Y-151275290D01*
X143843497Y-151267530D01*
X143828454Y-151259032D01*
X143814143Y-151249795D01*
X143800566Y-151239819D01*
X143787721Y-151229104D01*
X143775609Y-151217651D01*
X143764230Y-151205459D01*
X143753584Y-151192528D01*
X143743672Y-151178859D01*
X143734494Y-151164452D01*
X143726049Y-151149306D01*
X143718337Y-151133421D01*
X143711360Y-151116798D01*
X143705116Y-151099437D01*
X143699607Y-151081338D01*
X143694831Y-151062500D01*
X143690791Y-151042924D01*
X143687484Y-151022610D01*
X143684912Y-151001557D01*
X143683075Y-150979767D01*
X143681972Y-150957238D01*
X143681605Y-150933972D01*
X143681605Y-149900959D01*
X143921900Y-149900959D01*
X143921900Y-150866276D01*
G37*
G36*
X142878939Y-62383121D02*
G01*
X142880094Y-62363866D01*
X142882019Y-62345181D01*
X142884715Y-62327065D01*
X142888182Y-62309521D01*
X142892420Y-62292548D01*
X142897429Y-62276147D01*
X142903210Y-62260319D01*
X142909762Y-62245064D01*
X142917087Y-62230383D01*
X142925183Y-62216276D01*
X142934052Y-62202744D01*
X142943693Y-62189788D01*
X142954108Y-62177409D01*
X142965295Y-62165606D01*
X142977255Y-62154381D01*
X142990269Y-62143444D01*
X143003909Y-62133209D01*
X143018175Y-62123678D01*
X143033064Y-62114851D01*
X143048576Y-62106728D01*
X143064710Y-62099309D01*
X143081463Y-62092595D01*
X143098835Y-62086586D01*
X143116824Y-62081283D01*
X143135430Y-62076686D01*
X143154650Y-62072795D01*
X143174483Y-62069611D01*
X143194929Y-62067133D01*
X143215985Y-62065363D01*
X143237651Y-62064301D01*
X143259925Y-62063947D01*
X143832500Y-62063947D01*
X143832500Y-61943025D01*
X143832267Y-61927434D01*
X143831567Y-61912411D01*
X143830402Y-61897957D01*
X143828771Y-61884072D01*
X143826675Y-61870759D01*
X143824115Y-61858016D01*
X143821091Y-61845845D01*
X143817604Y-61834246D01*
X143813653Y-61823221D01*
X143809240Y-61812770D01*
X143804365Y-61802894D01*
X143799028Y-61793593D01*
X143793229Y-61784868D01*
X143786970Y-61776720D01*
X143780251Y-61769149D01*
X143773072Y-61762157D01*
X143765598Y-61755324D01*
X143757286Y-61748934D01*
X143748136Y-61742987D01*
X143738148Y-61737482D01*
X143727321Y-61732420D01*
X143715657Y-61727800D01*
X143703155Y-61723621D01*
X143689815Y-61719884D01*
X143675637Y-61716587D01*
X143660621Y-61713731D01*
X143644767Y-61711315D01*
X143628075Y-61709340D01*
X143610546Y-61707804D01*
X143592179Y-61706707D01*
X143572974Y-61706049D01*
X143552931Y-61705830D01*
X143495804Y-61706548D01*
X143431650Y-61708692D01*
X143360440Y-61712247D01*
X143282146Y-61717199D01*
X143122019Y-61729154D01*
X142963302Y-61742520D01*
X142940565Y-61564753D01*
X142989590Y-61556469D01*
X143040718Y-61548545D01*
X143093963Y-61540973D01*
X143149338Y-61533747D01*
X143207427Y-61527020D01*
X143265938Y-61520968D01*
X143324801Y-61515622D01*
X143383949Y-61511010D01*
X143442158Y-61507247D01*
X143498253Y-61504492D01*
X143552231Y-61502800D01*
X143604090Y-61502224D01*
X143604090Y-61502741D01*
X143622953Y-61502901D01*
X143641441Y-61503382D01*
X143659555Y-61504186D01*
X143677293Y-61505313D01*
X143694657Y-61506765D01*
X143711647Y-61508544D01*
X143728261Y-61510651D01*
X143744501Y-61513088D01*
X143760366Y-61515854D01*
X143775856Y-61518953D01*
X143790971Y-61522386D01*
X143805711Y-61526153D01*
X143820076Y-61530257D01*
X143834067Y-61534698D01*
X143847682Y-61539478D01*
X143860922Y-61544599D01*
X143874117Y-61549763D01*
X143886889Y-61555378D01*
X143899240Y-61561441D01*
X143911169Y-61567951D01*
X143922678Y-61574908D01*
X143933767Y-61582310D01*
X143944435Y-61590155D01*
X143954685Y-61598442D01*
X143964515Y-61607171D01*
X143973927Y-61616339D01*
X143982921Y-61625945D01*
X143991497Y-61635989D01*
X143999657Y-61646468D01*
X144007399Y-61657382D01*
X144014726Y-61668729D01*
X144021636Y-61680508D01*
X144028131Y-61692773D01*
X144034209Y-61705580D01*
X144039870Y-61718930D01*
X144045114Y-61732824D01*
X144049941Y-61747264D01*
X144054350Y-61762251D01*
X144058341Y-61777786D01*
X144061913Y-61793871D01*
X144065066Y-61810507D01*
X144067800Y-61827696D01*
X144070115Y-61845439D01*
X144072009Y-61863737D01*
X144073483Y-61882591D01*
X144074536Y-61902004D01*
X144075169Y-61921976D01*
X144075379Y-61942508D01*
X144075379Y-62910924D01*
X143886244Y-62910924D01*
X143857822Y-62678380D01*
X143852635Y-62683768D01*
X143847740Y-62688996D01*
X143838177Y-62699313D01*
X143833187Y-62704573D01*
X143827843Y-62710015D01*
X143821983Y-62715725D01*
X143815447Y-62721789D01*
X143800953Y-62734475D01*
X143785688Y-62747139D01*
X143769643Y-62759789D01*
X143752811Y-62772431D01*
X143735186Y-62785074D01*
X143716759Y-62797723D01*
X143697523Y-62810387D01*
X143677471Y-62823074D01*
X143657409Y-62834862D01*
X143636731Y-62846231D01*
X143615438Y-62857175D01*
X143593527Y-62867684D01*
X143571000Y-62877753D01*
X143547854Y-62887373D01*
X143524089Y-62896538D01*
X143499704Y-62905239D01*
X143475454Y-62912513D01*
X143450679Y-62918814D01*
X143425379Y-62924144D01*
X143399551Y-62928503D01*
X143373194Y-62931891D01*
X143346306Y-62934311D01*
X143318886Y-62935762D01*
X143290931Y-62936245D01*
X143275872Y-62936079D01*
X143261035Y-62935582D01*
X143246418Y-62934753D01*
X143232022Y-62933593D01*
X143217847Y-62932101D01*
X143203893Y-62930279D01*
X143190160Y-62928125D01*
X143176647Y-62925641D01*
X143163355Y-62922825D01*
X143150283Y-62919680D01*
X143137431Y-62916204D01*
X143124799Y-62912397D01*
X143112388Y-62908260D01*
X143100197Y-62903794D01*
X143088225Y-62898997D01*
X143076474Y-62893871D01*
X143064986Y-62888073D01*
X143053808Y-62881968D01*
X143042938Y-62875558D01*
X143032376Y-62868840D01*
X143022123Y-62861815D01*
X143012179Y-62854482D01*
X143002543Y-62846841D01*
X142993216Y-62838893D01*
X142984197Y-62830635D01*
X142975488Y-62822069D01*
X142967087Y-62813193D01*
X142958994Y-62804008D01*
X142951211Y-62794512D01*
X142943736Y-62784707D01*
X142936570Y-62774590D01*
X142929713Y-62764163D01*
X142923557Y-62753081D01*
X142917791Y-62741709D01*
X142912416Y-62730046D01*
X142907432Y-62718093D01*
X142902841Y-62705851D01*
X142898643Y-62693321D01*
X142894840Y-62680503D01*
X142891433Y-62667398D01*
X142888423Y-62654006D01*
X142885811Y-62640328D01*
X142883598Y-62626365D01*
X142881785Y-62612117D01*
X142880373Y-62597585D01*
X142879363Y-62582769D01*
X142878756Y-62567671D01*
X142878553Y-62552289D01*
X142878553Y-62523868D01*
X143124016Y-62523868D01*
X143124219Y-62537054D01*
X143124826Y-62549801D01*
X143125836Y-62562108D01*
X143127248Y-62573976D01*
X143129061Y-62585403D01*
X143131274Y-62596391D01*
X143133886Y-62606938D01*
X143136896Y-62617044D01*
X143140303Y-62626709D01*
X143144106Y-62635933D01*
X143148304Y-62644716D01*
X143152895Y-62653056D01*
X143157879Y-62660955D01*
X143163254Y-62668412D01*
X143169021Y-62675426D01*
X143175176Y-62681998D01*
X143181764Y-62687809D01*
X143188829Y-62693246D01*
X143196373Y-62698310D01*
X143204395Y-62703001D01*
X143212899Y-62707318D01*
X143221883Y-62711260D01*
X143231351Y-62714828D01*
X143241303Y-62718022D01*
X143251739Y-62720840D01*
X143262662Y-62723284D01*
X143274072Y-62725352D01*
X143285971Y-62727045D01*
X143298359Y-62728362D01*
X143311238Y-62729303D01*
X143324609Y-62729868D01*
X143338473Y-62730056D01*
X143358536Y-62729629D01*
X143379214Y-62728342D01*
X143400508Y-62726187D01*
X143422418Y-62723159D01*
X143444946Y-62719248D01*
X143468091Y-62714448D01*
X143491856Y-62708752D01*
X143516240Y-62702152D01*
X143541658Y-62693889D01*
X143567104Y-62684628D01*
X143592569Y-62674377D01*
X143618043Y-62663147D01*
X143643517Y-62650946D01*
X143668982Y-62637785D01*
X143694428Y-62623672D01*
X143719845Y-62608617D01*
X143734622Y-62599297D01*
X143749167Y-62589558D01*
X143763497Y-62579419D01*
X143777629Y-62568897D01*
X143791579Y-62558010D01*
X143805363Y-62546779D01*
X143818998Y-62535219D01*
X143832500Y-62523351D01*
X143832500Y-62245331D01*
X143301783Y-62247399D01*
X143289671Y-62247938D01*
X143278028Y-62248854D01*
X143266854Y-62250148D01*
X143256147Y-62251819D01*
X143245907Y-62253867D01*
X143236133Y-62256290D01*
X143226824Y-62259090D01*
X143217978Y-62262265D01*
X143209596Y-62265816D01*
X143201676Y-62269741D01*
X143194216Y-62274040D01*
X143187218Y-62278714D01*
X143180678Y-62283761D01*
X143177581Y-62286425D01*
X143174597Y-62289182D01*
X143171728Y-62292032D01*
X143168974Y-62294976D01*
X143166333Y-62298012D01*
X143163807Y-62301142D01*
X143159019Y-62307293D01*
X143154535Y-62313751D01*
X143150354Y-62320517D01*
X143146478Y-62327590D01*
X143142907Y-62334971D01*
X143139642Y-62342659D01*
X143136684Y-62350657D01*
X143134034Y-62358962D01*
X143131693Y-62367576D01*
X143129661Y-62376499D01*
X143127940Y-62385731D01*
X143126530Y-62395272D01*
X143125431Y-62405123D01*
X143124646Y-62415283D01*
X143124174Y-62425754D01*
X143124016Y-62436534D01*
X143124016Y-62523868D01*
X142878553Y-62523868D01*
X142878553Y-62402945D01*
X142878939Y-62383121D01*
G37*
G36*
X145050627Y-136883915D02*
G01*
X145047863Y-136865368D01*
X145045892Y-136846824D01*
X145044710Y-136828286D01*
X145044316Y-136809758D01*
X145044806Y-136785309D01*
X145046275Y-136761706D01*
X145048722Y-136738948D01*
X145052148Y-136717034D01*
X145056551Y-136695964D01*
X145061932Y-136675738D01*
X145068289Y-136656357D01*
X145075622Y-136637819D01*
X145083931Y-136620124D01*
X145088452Y-136611593D01*
X145093215Y-136603272D01*
X145098223Y-136595163D01*
X145103474Y-136587264D01*
X145108969Y-136579575D01*
X145114708Y-136572098D01*
X145120689Y-136564831D01*
X145126915Y-136557774D01*
X145133383Y-136550928D01*
X145140095Y-136544293D01*
X145147050Y-136537868D01*
X145154248Y-136531653D01*
X145161689Y-136525649D01*
X145169373Y-136519856D01*
X145185623Y-136508835D01*
X145203155Y-136498527D01*
X145221969Y-136488931D01*
X145242067Y-136480047D01*
X145263450Y-136471875D01*
X145286119Y-136464414D01*
X145310076Y-136457665D01*
X145335321Y-136451627D01*
X145361856Y-136446300D01*
X145389682Y-136441684D01*
X145418800Y-136437779D01*
X145449212Y-136434584D01*
X145480918Y-136432100D01*
X145513921Y-136430325D01*
X145548220Y-136429261D01*
X145583818Y-136428906D01*
X145614693Y-136429269D01*
X145644865Y-136430357D01*
X145674327Y-136432172D01*
X145703070Y-136434714D01*
X145731086Y-136437983D01*
X145758364Y-136441980D01*
X145784898Y-136446706D01*
X145810678Y-136452160D01*
X145823270Y-136454936D01*
X145835649Y-136457972D01*
X145847812Y-136461268D01*
X145859761Y-136464825D01*
X145871495Y-136468644D01*
X145883014Y-136472725D01*
X145894318Y-136477069D01*
X145905408Y-136481677D01*
X145916282Y-136486550D01*
X145926941Y-136491688D01*
X145937386Y-136497092D01*
X145947615Y-136502763D01*
X145957628Y-136508701D01*
X145967427Y-136514907D01*
X145977010Y-136521382D01*
X145986378Y-136528126D01*
X145995245Y-136534908D01*
X146003848Y-136542023D01*
X146012185Y-136549472D01*
X146020257Y-136557254D01*
X146028064Y-136565368D01*
X146035607Y-136573814D01*
X146042884Y-136582591D01*
X146049896Y-136591700D01*
X146056642Y-136601139D01*
X146063124Y-136610909D01*
X146069341Y-136621008D01*
X146075293Y-136631436D01*
X146080979Y-136642194D01*
X146086401Y-136653279D01*
X146091557Y-136664693D01*
X146096449Y-136676434D01*
X146101058Y-136688547D01*
X146105362Y-136701072D01*
X146109362Y-136714011D01*
X146113058Y-136727363D01*
X146116453Y-136741129D01*
X146119546Y-136755308D01*
X146122340Y-136769900D01*
X146124835Y-136784905D01*
X146128933Y-136816156D01*
X146131850Y-136849061D01*
X146133593Y-136883620D01*
X146134172Y-136919835D01*
X146133982Y-136947262D01*
X146133363Y-136976591D01*
X146132245Y-137007772D01*
X146130555Y-137040753D01*
X146129441Y-137057713D01*
X146128101Y-137074731D01*
X146126540Y-137091810D01*
X146124762Y-137108953D01*
X146122771Y-137126162D01*
X146120573Y-137143440D01*
X146118170Y-137160789D01*
X146115569Y-137178212D01*
X146110145Y-137212861D01*
X146104467Y-137246966D01*
X146098526Y-137280541D01*
X146092314Y-137313603D01*
X146088507Y-137329276D01*
X146084487Y-137344546D01*
X146080259Y-137359415D01*
X146075828Y-137373885D01*
X146071196Y-137387957D01*
X146066368Y-137401635D01*
X146061348Y-137414920D01*
X146056141Y-137427815D01*
X144627287Y-137427815D01*
X144627287Y-137172017D01*
X144986955Y-137169430D01*
X145003816Y-137169546D01*
X145020548Y-137169889D01*
X145037151Y-137170448D01*
X145053624Y-137171214D01*
X145069968Y-137172176D01*
X145086181Y-137173325D01*
X145102263Y-137174651D01*
X145118214Y-137176144D01*
X145132224Y-137177305D01*
X145146186Y-137178854D01*
X145160098Y-137180772D01*
X145173957Y-137183041D01*
X145187759Y-137185644D01*
X145201503Y-137188562D01*
X145215185Y-137191777D01*
X145228801Y-137195271D01*
X145216738Y-137183210D01*
X145204858Y-137171071D01*
X145193207Y-137158835D01*
X145181828Y-137146483D01*
X145170765Y-137133995D01*
X145160063Y-137121353D01*
X145149766Y-137108539D01*
X145139917Y-137095532D01*
X145128613Y-137079033D01*
X145118005Y-137062345D01*
X145108106Y-137045466D01*
X145098928Y-137028390D01*
X145094612Y-137019778D01*
X145090480Y-137011117D01*
X145086534Y-137002404D01*
X145082775Y-136993641D01*
X145079205Y-136984827D01*
X145075824Y-136975961D01*
X145072635Y-136967043D01*
X145069638Y-136958073D01*
X145063688Y-136939545D01*
X145058538Y-136921007D01*
X145055836Y-136909497D01*
X145252056Y-136909497D01*
X145252193Y-136918977D01*
X145252604Y-136928371D01*
X145253290Y-136937678D01*
X145254252Y-136946899D01*
X145255492Y-136956034D01*
X145257009Y-136965086D01*
X145258807Y-136974053D01*
X145260884Y-136982937D01*
X145263243Y-136991739D01*
X145265883Y-137000458D01*
X145268807Y-137009097D01*
X145272016Y-137017654D01*
X145275509Y-137026132D01*
X145279289Y-137034530D01*
X145283357Y-137042849D01*
X145287712Y-137051091D01*
X145295443Y-137064334D01*
X145303974Y-137078257D01*
X145313213Y-137092776D01*
X145323067Y-137107812D01*
X145344248Y-137139109D01*
X145366777Y-137171498D01*
X145912997Y-137171498D01*
X145919178Y-137148481D01*
X145922169Y-137136875D01*
X145923571Y-137130977D01*
X145924882Y-137124989D01*
X145928711Y-137098719D01*
X145932167Y-137072782D01*
X145935211Y-137047109D01*
X145937802Y-137021633D01*
X145938687Y-136995658D01*
X145939335Y-136970684D01*
X145939733Y-136946770D01*
X145939869Y-136923970D01*
X145939500Y-136913526D01*
X145938893Y-136903364D01*
X145938049Y-136893484D01*
X145936968Y-136883886D01*
X145935651Y-136874569D01*
X145934099Y-136865533D01*
X145932312Y-136856779D01*
X145930290Y-136848306D01*
X145928036Y-136840114D01*
X145925548Y-136832204D01*
X145922828Y-136824574D01*
X145919876Y-136817225D01*
X145916693Y-136810157D01*
X145913279Y-136803370D01*
X145909635Y-136796864D01*
X145905762Y-136790638D01*
X145901625Y-136784399D01*
X145897139Y-136778379D01*
X145892304Y-136772576D01*
X145887119Y-136766991D01*
X145881587Y-136761622D01*
X145875705Y-136756471D01*
X145869476Y-136751535D01*
X145862898Y-136746814D01*
X145855972Y-136742308D01*
X145848698Y-136738017D01*
X145841077Y-136733939D01*
X145833108Y-136730075D01*
X145824791Y-136726423D01*
X145816127Y-136722984D01*
X145807117Y-136719757D01*
X145797759Y-136716740D01*
X145777306Y-136711285D01*
X145755092Y-136706560D01*
X145731107Y-136702563D01*
X145705344Y-136699294D01*
X145677794Y-136696752D01*
X145648448Y-136694937D01*
X145617298Y-136693848D01*
X145584335Y-136693486D01*
X145553445Y-136693786D01*
X145524276Y-136694688D01*
X145496827Y-136696188D01*
X145471098Y-136698285D01*
X145447089Y-136700978D01*
X145424800Y-136704265D01*
X145404231Y-136708144D01*
X145394591Y-136710304D01*
X145385381Y-136712613D01*
X145376290Y-136714845D01*
X145367544Y-136717310D01*
X145359143Y-136720007D01*
X145351088Y-136722938D01*
X145343377Y-136726100D01*
X145336014Y-136729495D01*
X145328996Y-136733121D01*
X145322326Y-136736980D01*
X145316003Y-136741070D01*
X145310028Y-136745392D01*
X145304402Y-136749944D01*
X145299124Y-136754729D01*
X145294196Y-136759744D01*
X145289617Y-136764989D01*
X145285389Y-136770466D01*
X145281511Y-136776173D01*
X145277928Y-136782151D01*
X145274580Y-136788442D01*
X145271465Y-136795047D01*
X145268584Y-136801966D01*
X145265935Y-136809199D01*
X145263519Y-136816745D01*
X145261335Y-136824606D01*
X145259383Y-136832781D01*
X145257662Y-136841270D01*
X145256172Y-136850074D01*
X145254913Y-136859191D01*
X145253883Y-136868623D01*
X145253083Y-136878370D01*
X145252512Y-136888431D01*
X145252170Y-136898806D01*
X145252056Y-136909497D01*
X145055836Y-136909497D01*
X145054185Y-136902463D01*
X145050627Y-136883915D01*
G37*
G36*
X146108851Y-134354611D02*
G01*
X145408118Y-134354611D01*
X145397740Y-134354725D01*
X145387778Y-134355067D01*
X145378232Y-134355637D01*
X145369103Y-134356437D01*
X145360389Y-134357466D01*
X145352090Y-134358725D01*
X145344207Y-134360215D01*
X145336737Y-134361935D01*
X145329682Y-134363887D01*
X145323040Y-134366071D01*
X145316811Y-134368487D01*
X145310994Y-134371135D01*
X145305590Y-134374017D01*
X145300598Y-134377133D01*
X145296017Y-134380483D01*
X145291846Y-134384068D01*
X145288010Y-134387933D01*
X145284424Y-134392117D01*
X145281090Y-134396619D01*
X145278005Y-134401440D01*
X145275171Y-134406577D01*
X145272585Y-134412030D01*
X145270249Y-134417800D01*
X145268160Y-134423884D01*
X145266319Y-134430282D01*
X145264725Y-134436994D01*
X145263378Y-134444018D01*
X145262277Y-134451355D01*
X145261422Y-134459003D01*
X145260811Y-134466961D01*
X145260445Y-134475229D01*
X145260324Y-134483807D01*
X145260460Y-134493611D01*
X145260871Y-134503445D01*
X145261558Y-134513309D01*
X145262520Y-134523205D01*
X145263760Y-134533132D01*
X145265278Y-134543090D01*
X145267075Y-134553081D01*
X145269152Y-134563105D01*
X145271511Y-134573162D01*
X145274152Y-134583252D01*
X145277076Y-134593376D01*
X145280284Y-134603534D01*
X145283778Y-134613728D01*
X145287558Y-134623956D01*
X145291625Y-134634220D01*
X145295981Y-134644520D01*
X145303816Y-134662879D01*
X145312655Y-134682312D01*
X145322407Y-134702723D01*
X145332985Y-134724016D01*
X145344298Y-134746094D01*
X145356259Y-134768862D01*
X145381764Y-134816082D01*
X146108851Y-134816082D01*
X146108851Y-135071881D01*
X145069638Y-135071881D01*
X145069638Y-134862591D01*
X145232935Y-134842442D01*
X145211401Y-134815180D01*
X145191036Y-134787827D01*
X145171868Y-134760373D01*
X145153925Y-134732809D01*
X145137234Y-134705126D01*
X145129368Y-134691237D01*
X145121824Y-134677314D01*
X145114609Y-134663357D01*
X145107724Y-134649364D01*
X145101173Y-134635334D01*
X145094959Y-134621266D01*
X145088810Y-134606463D01*
X145083060Y-134591688D01*
X145077710Y-134576942D01*
X145072759Y-134562227D01*
X145068207Y-134547542D01*
X145064053Y-134532888D01*
X145060297Y-134518266D01*
X145056938Y-134503676D01*
X145053976Y-134489119D01*
X145051410Y-134474596D01*
X145049241Y-134460108D01*
X145047467Y-134445654D01*
X145046088Y-134431236D01*
X145045103Y-134416855D01*
X145044513Y-134402510D01*
X145044316Y-134388203D01*
X145044596Y-134370362D01*
X145045433Y-134353088D01*
X145046828Y-134336380D01*
X145048782Y-134320240D01*
X145051294Y-134304666D01*
X145054364Y-134289659D01*
X145057992Y-134275219D01*
X145062179Y-134261345D01*
X145066924Y-134248038D01*
X145072226Y-134235298D01*
X145078087Y-134223124D01*
X145084506Y-134211517D01*
X145091484Y-134200477D01*
X145099019Y-134190003D01*
X145107113Y-134180095D01*
X145115764Y-134170754D01*
X145124974Y-134161979D01*
X145134742Y-134153771D01*
X145145068Y-134146128D01*
X145155952Y-134139053D01*
X145167394Y-134132543D01*
X145179394Y-134126600D01*
X145191952Y-134121223D01*
X145205068Y-134116412D01*
X145218742Y-134112167D01*
X145232975Y-134108488D01*
X145247765Y-134105375D01*
X145263113Y-134102828D01*
X145279020Y-134100848D01*
X145295484Y-134099433D01*
X145312506Y-134098584D01*
X145330087Y-134098301D01*
X146108851Y-134098301D01*
X146108851Y-134354611D01*
G37*
G36*
X146369296Y-101276539D02*
G01*
X146369151Y-101299655D01*
X146368720Y-101322432D01*
X146368011Y-101344866D01*
X146367029Y-101366953D01*
X146365781Y-101388686D01*
X146364274Y-101410062D01*
X146362515Y-101431076D01*
X146360511Y-101451722D01*
X146359415Y-101465370D01*
X146358069Y-101478417D01*
X146356514Y-101490966D01*
X146354793Y-101503122D01*
X146351017Y-101526674D01*
X146347075Y-101549908D01*
X146385033Y-101522531D01*
X146422948Y-101496460D01*
X146460808Y-101471732D01*
X146498601Y-101448386D01*
X146536315Y-101426457D01*
X146573938Y-101405985D01*
X146611459Y-101387006D01*
X146648866Y-101369557D01*
X146668609Y-101361015D01*
X146688328Y-101353030D01*
X146708023Y-101345602D01*
X146727695Y-101338729D01*
X146747343Y-101332411D01*
X146766968Y-101326646D01*
X146786571Y-101321434D01*
X146806151Y-101316775D01*
X146825709Y-101312666D01*
X146845245Y-101309109D01*
X146864760Y-101306100D01*
X146884254Y-101303641D01*
X146903727Y-101301730D01*
X146923179Y-101300365D01*
X146942612Y-101299547D01*
X146962024Y-101299275D01*
X146984944Y-101299644D01*
X147007136Y-101300753D01*
X147028602Y-101302601D01*
X147049339Y-101305188D01*
X147069350Y-101308514D01*
X147088633Y-101312579D01*
X147107188Y-101317383D01*
X147125016Y-101322925D01*
X147142117Y-101329207D01*
X147158490Y-101336228D01*
X147174136Y-101343987D01*
X147189054Y-101352486D01*
X147203245Y-101361723D01*
X147216708Y-101371698D01*
X147229443Y-101382413D01*
X147241451Y-101393866D01*
X147252732Y-101406058D01*
X147263284Y-101418988D01*
X147273110Y-101432657D01*
X147282207Y-101447065D01*
X147290577Y-101462211D01*
X147298219Y-101478095D01*
X147305133Y-101494718D01*
X147311320Y-101512079D01*
X147316779Y-101530179D01*
X147321510Y-101549017D01*
X147325513Y-101568593D01*
X147328788Y-101588908D01*
X147331336Y-101609960D01*
X147333156Y-101631751D01*
X147334612Y-101677548D01*
X147334612Y-102707459D01*
X147091733Y-102707459D01*
X147091733Y-101745243D01*
X147091558Y-101728298D01*
X147091036Y-101712036D01*
X147090164Y-101696456D01*
X147088942Y-101681560D01*
X147087369Y-101667346D01*
X147085446Y-101653815D01*
X147083171Y-101640968D01*
X147080543Y-101628804D01*
X147077563Y-101617323D01*
X147074230Y-101606527D01*
X147070542Y-101596413D01*
X147066500Y-101586984D01*
X147062103Y-101578239D01*
X147057350Y-101570177D01*
X147052241Y-101562800D01*
X147046774Y-101556107D01*
X147041226Y-101549613D01*
X147035165Y-101543535D01*
X147028592Y-101537874D01*
X147021508Y-101532630D01*
X147013913Y-101527804D01*
X147005808Y-101523395D01*
X146997194Y-101519404D01*
X146988073Y-101515832D01*
X146978444Y-101512679D01*
X146968309Y-101509945D01*
X146957669Y-101507631D01*
X146946523Y-101505736D01*
X146934874Y-101504262D01*
X146922722Y-101503209D01*
X146910068Y-101502576D01*
X146896912Y-101502365D01*
X146881040Y-101502599D01*
X146865174Y-101503298D01*
X146849312Y-101504464D01*
X146833454Y-101506095D01*
X146817600Y-101508191D01*
X146801747Y-101510751D01*
X146785897Y-101513775D01*
X146770047Y-101517263D01*
X146754197Y-101521214D01*
X146738346Y-101525627D01*
X146722494Y-101530502D01*
X146706639Y-101535839D01*
X146690781Y-101541638D01*
X146674920Y-101547897D01*
X146659053Y-101554616D01*
X146643181Y-101561795D01*
X146613292Y-101576244D01*
X146581862Y-101592382D01*
X146548985Y-101610115D01*
X146514756Y-101629348D01*
X146479269Y-101649988D01*
X146442617Y-101671940D01*
X146404894Y-101695111D01*
X146366196Y-101719406D01*
X146366196Y-102707459D01*
X146126417Y-102707459D01*
X146126417Y-100731869D01*
X146366196Y-100731869D01*
X146369296Y-101276539D01*
G37*
G36*
X145055780Y-126894855D02*
G01*
X145060844Y-126869159D01*
X145066840Y-126843584D01*
X145073772Y-126818127D01*
X145076610Y-126808150D01*
X145079685Y-126798296D01*
X145082989Y-126788561D01*
X145086516Y-126778939D01*
X145090258Y-126769427D01*
X145094208Y-126760021D01*
X145098358Y-126750717D01*
X145102702Y-126741510D01*
X145107231Y-126732396D01*
X145111940Y-126723370D01*
X145121863Y-126705570D01*
X145132414Y-126688074D01*
X145143535Y-126670849D01*
X145121327Y-126673283D01*
X145099089Y-126675560D01*
X145087969Y-126676558D01*
X145076853Y-126677420D01*
X145065746Y-126678111D01*
X145054651Y-126678601D01*
X145022837Y-126679512D01*
X144990842Y-126680154D01*
X144958582Y-126680535D01*
X144925977Y-126680661D01*
X144627287Y-126680661D01*
X144627287Y-126424351D01*
X146108850Y-126424351D01*
X146108850Y-126625370D01*
X145951237Y-126648625D01*
X145968921Y-126665902D01*
X145986117Y-126683950D01*
X145994523Y-126693271D01*
X146002796Y-126702794D01*
X146010931Y-126712523D01*
X146018925Y-126722460D01*
X146026774Y-126732610D01*
X146034474Y-126742974D01*
X146042021Y-126753557D01*
X146049412Y-126764361D01*
X146056641Y-126775390D01*
X146063707Y-126786647D01*
X146070603Y-126798135D01*
X146077328Y-126809857D01*
X146084250Y-126822947D01*
X146090719Y-126836292D01*
X146096734Y-126849893D01*
X146102297Y-126863752D01*
X146107409Y-126877870D01*
X146112071Y-126892248D01*
X146116284Y-126906889D01*
X146120050Y-126921792D01*
X146123368Y-126936961D01*
X146126241Y-126952395D01*
X146128668Y-126968097D01*
X146130652Y-126984068D01*
X146132193Y-127000310D01*
X146133293Y-127016823D01*
X146133952Y-127033610D01*
X146134172Y-127050671D01*
X146133628Y-127075096D01*
X146131996Y-127098629D01*
X146129276Y-127121271D01*
X146127508Y-127132257D01*
X146125468Y-127143020D01*
X146123155Y-127153560D01*
X146120569Y-127163877D01*
X146117712Y-127173971D01*
X146114581Y-127183842D01*
X146111179Y-127193490D01*
X146107503Y-127202914D01*
X146103555Y-127212115D01*
X146099334Y-127221094D01*
X146094840Y-127229848D01*
X146090073Y-127238380D01*
X146085033Y-127246688D01*
X146079720Y-127254773D01*
X146074134Y-127262635D01*
X146068275Y-127270274D01*
X146062143Y-127277689D01*
X146055737Y-127284880D01*
X146049058Y-127291849D01*
X146042106Y-127298594D01*
X146034880Y-127305115D01*
X146027380Y-127311413D01*
X146019607Y-127317488D01*
X146011560Y-127323339D01*
X146003240Y-127328966D01*
X145994645Y-127334370D01*
X145976420Y-127344624D01*
X145957198Y-127354219D01*
X145936981Y-127363153D01*
X145915769Y-127371427D01*
X145893562Y-127379040D01*
X145870362Y-127385992D01*
X145846168Y-127392283D01*
X145820982Y-127397912D01*
X145794803Y-127402881D01*
X145767633Y-127407187D01*
X145739471Y-127410832D01*
X145710320Y-127413814D01*
X145680178Y-127416134D01*
X145649046Y-127417791D01*
X145616926Y-127418786D01*
X145583818Y-127419117D01*
X145533892Y-127418454D01*
X145486766Y-127416465D01*
X145464250Y-127414974D01*
X145442431Y-127413151D01*
X145421309Y-127410998D01*
X145400881Y-127408513D01*
X145381149Y-127405698D01*
X145362110Y-127402553D01*
X145343763Y-127399077D01*
X145326109Y-127395270D01*
X145309145Y-127391134D01*
X145292871Y-127386667D01*
X145277287Y-127381870D01*
X145262390Y-127376744D01*
X145247844Y-127371022D01*
X145233840Y-127364969D01*
X145220377Y-127358585D01*
X145207457Y-127351869D01*
X145195080Y-127344823D01*
X145183247Y-127337446D01*
X145171958Y-127329737D01*
X145161215Y-127321699D01*
X145151016Y-127313329D01*
X145141365Y-127304629D01*
X145132260Y-127295598D01*
X145123702Y-127286236D01*
X145115693Y-127276544D01*
X145108232Y-127266522D01*
X145101320Y-127256170D01*
X145094959Y-127245488D01*
X145088809Y-127234210D01*
X145083059Y-127222601D01*
X145077709Y-127210662D01*
X145072758Y-127198391D01*
X145068206Y-127185790D01*
X145064052Y-127172858D01*
X145060296Y-127159595D01*
X145056937Y-127146001D01*
X145053975Y-127132077D01*
X145051410Y-127117822D01*
X145049240Y-127103236D01*
X145047466Y-127088320D01*
X145046087Y-127073073D01*
X145045103Y-127057495D01*
X145044513Y-127041587D01*
X145044316Y-127025349D01*
X145044772Y-126998966D01*
X145046143Y-126972730D01*
X145048433Y-126946636D01*
X145048604Y-126945248D01*
X145239136Y-126945248D01*
X145239242Y-126954653D01*
X145239561Y-126963821D01*
X145240092Y-126972752D01*
X145240837Y-126981448D01*
X145241796Y-126989908D01*
X145242968Y-126998135D01*
X145244354Y-127006128D01*
X145245955Y-127013890D01*
X145247771Y-127021419D01*
X145249802Y-127028719D01*
X145252048Y-127035788D01*
X145254511Y-127042629D01*
X145257189Y-127049242D01*
X145260084Y-127055628D01*
X145263196Y-127061788D01*
X145266524Y-127067723D01*
X145269887Y-127073196D01*
X145273623Y-127078503D01*
X145277736Y-127083644D01*
X145282224Y-127088619D01*
X145287090Y-127093429D01*
X145292334Y-127098072D01*
X145297957Y-127102551D01*
X145303959Y-127106863D01*
X145310342Y-127111011D01*
X145317106Y-127114993D01*
X145324252Y-127118809D01*
X145331781Y-127122461D01*
X145339694Y-127125948D01*
X145347991Y-127129269D01*
X145356674Y-127132426D01*
X145365743Y-127135418D01*
X145385331Y-127140381D01*
X145407041Y-127144683D01*
X145430873Y-127148325D01*
X145456822Y-127151305D01*
X145484887Y-127153623D01*
X145515065Y-127155279D01*
X145547354Y-127156274D01*
X145581751Y-127156605D01*
X145614668Y-127156274D01*
X145645685Y-127155279D01*
X145674797Y-127153623D01*
X145701996Y-127151305D01*
X145727278Y-127148325D01*
X145750636Y-127144683D01*
X145761592Y-127142615D01*
X145772065Y-127140381D01*
X145782053Y-127137982D01*
X145791557Y-127135418D01*
X145800388Y-127132681D01*
X145808881Y-127129761D01*
X145817037Y-127126660D01*
X145824858Y-127123376D01*
X145832343Y-127119911D01*
X145839495Y-127116264D01*
X145846313Y-127112435D01*
X145852800Y-127108424D01*
X145858955Y-127104231D01*
X145864780Y-127099856D01*
X145870275Y-127095299D01*
X145875442Y-127090561D01*
X145880281Y-127085641D01*
X145884794Y-127080539D01*
X145888981Y-127075256D01*
X145892843Y-127069790D01*
X145896177Y-127064128D01*
X145899305Y-127058254D01*
X145902226Y-127052167D01*
X145904937Y-127045868D01*
X145907439Y-127039355D01*
X145909729Y-127032628D01*
X145911806Y-127025687D01*
X145913670Y-127018532D01*
X145915319Y-127011162D01*
X145916752Y-127003576D01*
X145917968Y-126995775D01*
X145918966Y-126987758D01*
X145919744Y-126979524D01*
X145920301Y-126971073D01*
X145920636Y-126962404D01*
X145920748Y-126953518D01*
X145920540Y-126939418D01*
X145919920Y-126925701D01*
X145918893Y-126912372D01*
X145917463Y-126899436D01*
X145915637Y-126886898D01*
X145913419Y-126874761D01*
X145910815Y-126863031D01*
X145907829Y-126851712D01*
X145903927Y-126840569D01*
X145899623Y-126829365D01*
X145894919Y-126818098D01*
X145889817Y-126806766D01*
X145884317Y-126795368D01*
X145878422Y-126783902D01*
X145872134Y-126772367D01*
X145865454Y-126760762D01*
X145859724Y-126751878D01*
X145853548Y-126742536D01*
X145840114Y-126722748D01*
X145825656Y-126701942D01*
X145810677Y-126680661D01*
X145287712Y-126680661D01*
X145270674Y-126742523D01*
X145262825Y-126771704D01*
X145255673Y-126799000D01*
X145251727Y-126815645D01*
X145248335Y-126832767D01*
X145245489Y-126850361D01*
X145243179Y-126868422D01*
X145241397Y-126886946D01*
X145240135Y-126905928D01*
X145239384Y-126925364D01*
X145239136Y-126945248D01*
X145048604Y-126945248D01*
X145051644Y-126920679D01*
X145055780Y-126894855D01*
G37*
G36*
X146108850Y-125417691D02*
G01*
X145957438Y-125438877D01*
X145977938Y-125465874D01*
X145997332Y-125492657D01*
X146015580Y-125519224D01*
X146032640Y-125545570D01*
X146048472Y-125571692D01*
X146063033Y-125597588D01*
X146076283Y-125623254D01*
X146082403Y-125635999D01*
X146088180Y-125648686D01*
X146094076Y-125662475D01*
X146099588Y-125676327D01*
X146104719Y-125690241D01*
X146109467Y-125704219D01*
X146113833Y-125718260D01*
X146117817Y-125732366D01*
X146121420Y-125746537D01*
X146124643Y-125760773D01*
X146127485Y-125775076D01*
X146129947Y-125789445D01*
X146132029Y-125803881D01*
X146133731Y-125818386D01*
X146135055Y-125832959D01*
X146136000Y-125847601D01*
X146136567Y-125862313D01*
X146136756Y-125877095D01*
X146136476Y-125894935D01*
X146135639Y-125912209D01*
X146134244Y-125928916D01*
X146132290Y-125945056D01*
X146129778Y-125960630D01*
X146126708Y-125975636D01*
X146123079Y-125990077D01*
X146118893Y-126003950D01*
X146114148Y-126017257D01*
X146108845Y-126029998D01*
X146102984Y-126042172D01*
X146096565Y-126053779D01*
X146089588Y-126064820D01*
X146082053Y-126075295D01*
X146073959Y-126085203D01*
X146065308Y-126094545D01*
X146056098Y-126103320D01*
X146046330Y-126111529D01*
X146036004Y-126119172D01*
X146025120Y-126126248D01*
X146013678Y-126132758D01*
X146001678Y-126138702D01*
X145989120Y-126144080D01*
X145976003Y-126148891D01*
X145962329Y-126153137D01*
X145948097Y-126156816D01*
X145933307Y-126159929D01*
X145917958Y-126162476D01*
X145902052Y-126164457D01*
X145885587Y-126165872D01*
X145868565Y-126166721D01*
X145850985Y-126167004D01*
X145069637Y-126167004D01*
X145069637Y-125911206D01*
X145772437Y-125911206D01*
X145782050Y-125911332D01*
X145791316Y-125911186D01*
X145800234Y-125910771D01*
X145808804Y-125910086D01*
X145817026Y-125909133D01*
X145824902Y-125907913D01*
X145832430Y-125906427D01*
X145839610Y-125904675D01*
X145846444Y-125902659D01*
X145852931Y-125900380D01*
X145859071Y-125897838D01*
X145864865Y-125895035D01*
X145870312Y-125891972D01*
X145875412Y-125888649D01*
X145880166Y-125885068D01*
X145884574Y-125881230D01*
X145888682Y-125876845D01*
X145892529Y-125872155D01*
X145896114Y-125867160D01*
X145899438Y-125861856D01*
X145902499Y-125856244D01*
X145905297Y-125850322D01*
X145907832Y-125844088D01*
X145910103Y-125837541D01*
X145912108Y-125830680D01*
X145913848Y-125823503D01*
X145915322Y-125816010D01*
X145916530Y-125808197D01*
X145917470Y-125800066D01*
X145918142Y-125791613D01*
X145918546Y-125782838D01*
X145918681Y-125773739D01*
X145918553Y-125764479D01*
X145918171Y-125755216D01*
X145917535Y-125745950D01*
X145916647Y-125736681D01*
X145915506Y-125727410D01*
X145914116Y-125718138D01*
X145912475Y-125708865D01*
X145910586Y-125699591D01*
X145908450Y-125690317D01*
X145906066Y-125681043D01*
X145903437Y-125671770D01*
X145900563Y-125662498D01*
X145897446Y-125653228D01*
X145894086Y-125643960D01*
X145890484Y-125634694D01*
X145886642Y-125625431D01*
X145879289Y-125608994D01*
X145870948Y-125591557D01*
X145861705Y-125573209D01*
X145851648Y-125554038D01*
X145840861Y-125534135D01*
X145829432Y-125513589D01*
X145804993Y-125470921D01*
X145069637Y-125470921D01*
X145069637Y-125214604D01*
X146108850Y-125214604D01*
X146108850Y-125417691D01*
G37*
G36*
X144019573Y-134251263D02*
G01*
X142276527Y-134251263D01*
X142276527Y-133732426D01*
X144019573Y-133732426D01*
X144019573Y-134251263D01*
G37*
G36*
X144811810Y-133574373D02*
G01*
X144816352Y-133574592D01*
X144820746Y-133574959D01*
X144824993Y-133575471D01*
X144829092Y-133576130D01*
X144833044Y-133576935D01*
X144836847Y-133577886D01*
X144840503Y-133578982D01*
X144844011Y-133580224D01*
X144847370Y-133581612D01*
X144850582Y-133583145D01*
X144853645Y-133584824D01*
X144856560Y-133586647D01*
X144859326Y-133588616D01*
X144861943Y-133590730D01*
X144864412Y-133592988D01*
X144866732Y-133595392D01*
X144868903Y-133597939D01*
X144870925Y-133600631D01*
X144872798Y-133603468D01*
X144874522Y-133606449D01*
X144876096Y-133609573D01*
X144877521Y-133612842D01*
X144878796Y-133616254D01*
X144879922Y-133619810D01*
X144880898Y-133623510D01*
X144881724Y-133627353D01*
X144882400Y-133631340D01*
X144882926Y-133635469D01*
X144883302Y-133639742D01*
X144883527Y-133644158D01*
X144883603Y-133648716D01*
X144883603Y-133762921D01*
X144883527Y-133767608D01*
X144883302Y-133772145D01*
X144882926Y-133776532D01*
X144882400Y-133780769D01*
X144881724Y-133784856D01*
X144880898Y-133788794D01*
X144879922Y-133792582D01*
X144878796Y-133796220D01*
X144877521Y-133799709D01*
X144876096Y-133803048D01*
X144874522Y-133806239D01*
X144872798Y-133809279D01*
X144870925Y-133812171D01*
X144868903Y-133814914D01*
X144866732Y-133817508D01*
X144864412Y-133819952D01*
X144861943Y-133822248D01*
X144859326Y-133824396D01*
X144856560Y-133826394D01*
X144853645Y-133828244D01*
X144850582Y-133829946D01*
X144847370Y-133831499D01*
X144844011Y-133832904D01*
X144840503Y-133834160D01*
X144836847Y-133835269D01*
X144833044Y-133836229D01*
X144829092Y-133837041D01*
X144824993Y-133837706D01*
X144820746Y-133838223D01*
X144816352Y-133838592D01*
X144807121Y-133838887D01*
X144688782Y-133838887D01*
X144684093Y-133838813D01*
X144679552Y-133838592D01*
X144675158Y-133838223D01*
X144670911Y-133837706D01*
X144666812Y-133837041D01*
X144662860Y-133836229D01*
X144659057Y-133835269D01*
X144655401Y-133834160D01*
X144651893Y-133832904D01*
X144648534Y-133831499D01*
X144645322Y-133829946D01*
X144642259Y-133828244D01*
X144639344Y-133826394D01*
X144636578Y-133824396D01*
X144633961Y-133822248D01*
X144631492Y-133819952D01*
X144629172Y-133817508D01*
X144627001Y-133814914D01*
X144624979Y-133812171D01*
X144623106Y-133809279D01*
X144621382Y-133806239D01*
X144619808Y-133803048D01*
X144618383Y-133799709D01*
X144617108Y-133796220D01*
X144615982Y-133792582D01*
X144615006Y-133788794D01*
X144614180Y-133784856D01*
X144613504Y-133780769D01*
X144612978Y-133776532D01*
X144612602Y-133772145D01*
X144612377Y-133767608D01*
X144612301Y-133762921D01*
X144612301Y-133648716D01*
X144612377Y-133644158D01*
X144612602Y-133639742D01*
X144612978Y-133635469D01*
X144613504Y-133631340D01*
X144614180Y-133627353D01*
X144615006Y-133623510D01*
X144615982Y-133619810D01*
X144617108Y-133616254D01*
X144618383Y-133612842D01*
X144619808Y-133609573D01*
X144621382Y-133606449D01*
X144623106Y-133603468D01*
X144624979Y-133600631D01*
X144627001Y-133597939D01*
X144629172Y-133595392D01*
X144631492Y-133592988D01*
X144633961Y-133590730D01*
X144636578Y-133588616D01*
X144639344Y-133586647D01*
X144642259Y-133584824D01*
X144645322Y-133583145D01*
X144648534Y-133581612D01*
X144651893Y-133580224D01*
X144655401Y-133578982D01*
X144659057Y-133577886D01*
X144662860Y-133576935D01*
X144666812Y-133576130D01*
X144670911Y-133575471D01*
X144675158Y-133574959D01*
X144679552Y-133574592D01*
X144688782Y-133574299D01*
X144807121Y-133574299D01*
X144811810Y-133574373D01*
G37*
G36*
X146108851Y-133298344D02*
G01*
X145069638Y-133298344D01*
X145069638Y-133044102D01*
X146108851Y-133044102D01*
X146108851Y-133298344D01*
G37*
G36*
X144019573Y-132185757D02*
G01*
X142876490Y-132185757D01*
X142862222Y-132185923D01*
X142848525Y-132186420D01*
X142835399Y-132187249D01*
X142822846Y-132188409D01*
X142810867Y-132189901D01*
X142799463Y-132191723D01*
X142788636Y-132193877D01*
X142778386Y-132196361D01*
X142768715Y-132199176D01*
X142759624Y-132202321D01*
X142751114Y-132205798D01*
X142743187Y-132209604D01*
X142735843Y-132213741D01*
X142729085Y-132218207D01*
X142722912Y-132223004D01*
X142717327Y-132228131D01*
X142711773Y-132233657D01*
X142706587Y-132239653D01*
X142701767Y-132246118D01*
X142697312Y-132253053D01*
X142693220Y-132260457D01*
X142689491Y-132268330D01*
X142686122Y-132276671D01*
X142683114Y-132285482D01*
X142680464Y-132294761D01*
X142678172Y-132304508D01*
X142676235Y-132314724D01*
X142674654Y-132325408D01*
X142673426Y-132336560D01*
X142672550Y-132348180D01*
X142672026Y-132360267D01*
X142671851Y-132372822D01*
X142672026Y-132386958D01*
X142672550Y-132401144D01*
X142673426Y-132415379D01*
X142674654Y-132429664D01*
X142676235Y-132444002D01*
X142678172Y-132458391D01*
X142680464Y-132472834D01*
X142683114Y-132487332D01*
X142686122Y-132501884D01*
X142689491Y-132516492D01*
X142693220Y-132531158D01*
X142697312Y-132545880D01*
X142701767Y-132560662D01*
X142706587Y-132575503D01*
X142711773Y-132590404D01*
X142717327Y-132605366D01*
X142726839Y-132630929D01*
X142737911Y-132658286D01*
X142750369Y-132687233D01*
X142764041Y-132717570D01*
X142778753Y-132749093D01*
X142794332Y-132781600D01*
X142827397Y-132848759D01*
X144019573Y-132848759D01*
X144019573Y-133371212D01*
X142276527Y-133371212D01*
X142276527Y-132951084D01*
X142542660Y-132905087D01*
X142507163Y-132860802D01*
X142473609Y-132816333D01*
X142442037Y-132771675D01*
X142412487Y-132726825D01*
X142384997Y-132681779D01*
X142372038Y-132659181D01*
X142359608Y-132636532D01*
X142347713Y-132613833D01*
X142336357Y-132591081D01*
X142325546Y-132568278D01*
X142315284Y-132545422D01*
X142305027Y-132520756D01*
X142295430Y-132496143D01*
X142286495Y-132471586D01*
X142278220Y-132447082D01*
X142270607Y-132422634D01*
X142263654Y-132398240D01*
X142257364Y-132373901D01*
X142251734Y-132349616D01*
X142246767Y-132325387D01*
X142242461Y-132301213D01*
X142238818Y-132277094D01*
X142235836Y-132253030D01*
X142233517Y-132229022D01*
X142231860Y-132205069D01*
X142230866Y-132181171D01*
X142230535Y-132157330D01*
X142231008Y-132126944D01*
X142232427Y-132097522D01*
X142234792Y-132069064D01*
X142238103Y-132041570D01*
X142242360Y-132015040D01*
X142247562Y-131989474D01*
X142253709Y-131964872D01*
X142260802Y-131941234D01*
X142268840Y-131918561D01*
X142277823Y-131896851D01*
X142287750Y-131876106D01*
X142298623Y-131856325D01*
X142310439Y-131837509D01*
X142323200Y-131819657D01*
X142336906Y-131802769D01*
X142351555Y-131786847D01*
X142367149Y-131771888D01*
X142383686Y-131757895D01*
X142401167Y-131744866D01*
X142419591Y-131732802D01*
X142438959Y-131721702D01*
X142459270Y-131711568D01*
X142480524Y-131702398D01*
X142502721Y-131694194D01*
X142525861Y-131686954D01*
X142549944Y-131680680D01*
X142574968Y-131675371D01*
X142600936Y-131671027D01*
X142627845Y-131667648D01*
X142655697Y-131665235D01*
X142684491Y-131663786D01*
X142714226Y-131663304D01*
X144019573Y-131663304D01*
X144019573Y-132185757D01*
G37*
G36*
X143879526Y-101332867D02*
G01*
X143899163Y-101553524D01*
X143917433Y-101535162D01*
X143936196Y-101517368D01*
X143955465Y-101500156D01*
X143975254Y-101483539D01*
X143995577Y-101467531D01*
X144016446Y-101452147D01*
X144037875Y-101437398D01*
X144059877Y-101423298D01*
X144084004Y-101408916D01*
X144108405Y-101395408D01*
X144133076Y-101382776D01*
X144158015Y-101371024D01*
X144183217Y-101360155D01*
X144208681Y-101350170D01*
X144234403Y-101341074D01*
X144260381Y-101332867D01*
X144287101Y-101324941D01*
X144313639Y-101318093D01*
X144339998Y-101312316D01*
X144366179Y-101307604D01*
X144392183Y-101303950D01*
X144418012Y-101301348D01*
X144443669Y-101299792D01*
X144469154Y-101299275D01*
X144500000Y-101300000D01*
X144529742Y-101302175D01*
X144544200Y-101303807D01*
X144558382Y-101305802D01*
X144572288Y-101308160D01*
X144585919Y-101310881D01*
X144599274Y-101313964D01*
X144612353Y-101317412D01*
X144625157Y-101321222D01*
X144637685Y-101325396D01*
X144649937Y-101329933D01*
X144661914Y-101334834D01*
X144673615Y-101340098D01*
X144685040Y-101345726D01*
X144696190Y-101351718D01*
X144707065Y-101358074D01*
X144717663Y-101364794D01*
X144727986Y-101371878D01*
X144738034Y-101379326D01*
X144747806Y-101387138D01*
X144757302Y-101395314D01*
X144766523Y-101403855D01*
X144775469Y-101412760D01*
X144784138Y-101422030D01*
X144792533Y-101431665D01*
X144800651Y-101441664D01*
X144808495Y-101452028D01*
X144816063Y-101462757D01*
X144823355Y-101473851D01*
X144830372Y-101485310D01*
X144843700Y-101508926D01*
X144856169Y-101533914D01*
X144867778Y-101560273D01*
X144878527Y-101588002D01*
X144888416Y-101617101D01*
X144897445Y-101647569D01*
X144905614Y-101679405D01*
X144912924Y-101712609D01*
X144919374Y-101747179D01*
X144924963Y-101783117D01*
X144929693Y-101820420D01*
X144933563Y-101859088D01*
X144936573Y-101899120D01*
X144938723Y-101940516D01*
X144940013Y-101983276D01*
X144940443Y-102027397D01*
X144939566Y-102092039D01*
X144936933Y-102153322D01*
X144934957Y-102182705D01*
X144932541Y-102211249D01*
X144929686Y-102238955D01*
X144926389Y-102265823D01*
X144922652Y-102291853D01*
X144918473Y-102317045D01*
X144913853Y-102341400D01*
X144908790Y-102364918D01*
X144903286Y-102387600D01*
X144897339Y-102409445D01*
X144890949Y-102430454D01*
X144884115Y-102450627D01*
X144876830Y-102469691D01*
X144869082Y-102488077D01*
X144860873Y-102505786D01*
X144852202Y-102522814D01*
X144843069Y-102539163D01*
X144833473Y-102554831D01*
X144823414Y-102569816D01*
X144812893Y-102584120D01*
X144801908Y-102597739D01*
X144790461Y-102610675D01*
X144778549Y-102622925D01*
X144766174Y-102634489D01*
X144753335Y-102645367D01*
X144740032Y-102655557D01*
X144726265Y-102665058D01*
X144712033Y-102673870D01*
X144697665Y-102682071D01*
X144682786Y-102689742D01*
X144667395Y-102696884D01*
X144651493Y-102703496D01*
X144635081Y-102709578D01*
X144618159Y-102715131D01*
X144600729Y-102720155D01*
X144582792Y-102724650D01*
X144564347Y-102728615D01*
X144545395Y-102732052D01*
X144525939Y-102734959D01*
X144505977Y-102737338D01*
X144485511Y-102739188D01*
X144464541Y-102740509D01*
X144443069Y-102741302D01*
X144421095Y-102741566D01*
X144387268Y-102740993D01*
X144353524Y-102739272D01*
X144319863Y-102736406D01*
X144286289Y-102732392D01*
X144252803Y-102727232D01*
X144219407Y-102720926D01*
X144186103Y-102713474D01*
X144152894Y-102704876D01*
X144122200Y-102695562D01*
X144091696Y-102685048D01*
X144061372Y-102673364D01*
X144031218Y-102660539D01*
X144001222Y-102646603D01*
X143971375Y-102631585D01*
X143941665Y-102615516D01*
X143912082Y-102598423D01*
X143914698Y-102629816D01*
X143916833Y-102660841D01*
X143917654Y-102676186D01*
X143918273Y-102691404D01*
X143918664Y-102706484D01*
X143918800Y-102721413D01*
X143920072Y-102758682D01*
X143921050Y-102797069D01*
X143921678Y-102836515D01*
X143921900Y-102876957D01*
X143921900Y-103274865D01*
X143681605Y-103274865D01*
X143681605Y-102450627D01*
X143921900Y-102450627D01*
X143983519Y-102467434D01*
X144041741Y-102482953D01*
X144096370Y-102497166D01*
X144147210Y-102510056D01*
X144172807Y-102515355D01*
X144198791Y-102519959D01*
X144225150Y-102523865D01*
X144251874Y-102527068D01*
X144278951Y-102529567D01*
X144306369Y-102531356D01*
X144334117Y-102532432D01*
X144362184Y-102532791D01*
X144377153Y-102532626D01*
X144391721Y-102532128D01*
X144405889Y-102531299D01*
X144419657Y-102530139D01*
X144433026Y-102528648D01*
X144445996Y-102526825D01*
X144458569Y-102524672D01*
X144470744Y-102522188D01*
X144482522Y-102519373D01*
X144493904Y-102516227D01*
X144504890Y-102512751D01*
X144515481Y-102508944D01*
X144525677Y-102504808D01*
X144535479Y-102500341D01*
X144544888Y-102495544D01*
X144553903Y-102490418D01*
X144562918Y-102484861D01*
X144571619Y-102478775D01*
X144580006Y-102472158D01*
X144588081Y-102465012D01*
X144595843Y-102457336D01*
X144603294Y-102449130D01*
X144610436Y-102440395D01*
X144617267Y-102431130D01*
X144623790Y-102421336D01*
X144630005Y-102411014D01*
X144635913Y-102400162D01*
X144641514Y-102388781D01*
X144646810Y-102376871D01*
X144651802Y-102364433D01*
X144656489Y-102351466D01*
X144660873Y-102337971D01*
X144668822Y-102309038D01*
X144675729Y-102277274D01*
X144681588Y-102242682D01*
X144686394Y-102205263D01*
X144690142Y-102165023D01*
X144692826Y-102121963D01*
X144694440Y-102076087D01*
X144694980Y-102027397D01*
X144694496Y-101979999D01*
X144693045Y-101935169D01*
X144690626Y-101892904D01*
X144687237Y-101853199D01*
X144682878Y-101816052D01*
X144677549Y-101781459D01*
X144674519Y-101765119D01*
X144671247Y-101749417D01*
X144667732Y-101734351D01*
X144663974Y-101719921D01*
X144659950Y-101706060D01*
X144655642Y-101692698D01*
X144651048Y-101679836D01*
X144646169Y-101667477D01*
X144641004Y-101655620D01*
X144635553Y-101644267D01*
X144629816Y-101633420D01*
X144623793Y-101623078D01*
X144617483Y-101613244D01*
X144610887Y-101603918D01*
X144604003Y-101595101D01*
X144596832Y-101586794D01*
X144589374Y-101578999D01*
X144581628Y-101571717D01*
X144573594Y-101564948D01*
X144565272Y-101558693D01*
X144556980Y-101552543D01*
X144548330Y-101546793D01*
X144539324Y-101541442D01*
X144529962Y-101536491D01*
X144520246Y-101531939D01*
X144510174Y-101527785D01*
X144499749Y-101524029D01*
X144488970Y-101520670D01*
X144477838Y-101517708D01*
X144466354Y-101515143D01*
X144454519Y-101512973D01*
X144442332Y-101511199D01*
X144429795Y-101509821D01*
X144416909Y-101508836D01*
X144403673Y-101508246D01*
X144390089Y-101508049D01*
X144375991Y-101508260D01*
X144361921Y-101508893D01*
X144347876Y-101509946D01*
X144333857Y-101511420D01*
X144319862Y-101513315D01*
X144305892Y-101515629D01*
X144291945Y-101518363D01*
X144278021Y-101521517D01*
X144264118Y-101525089D01*
X144250238Y-101529080D01*
X144236377Y-101533489D01*
X144222537Y-101538316D01*
X144208716Y-101543560D01*
X144194914Y-101549222D01*
X144181130Y-101555300D01*
X144167363Y-101561795D01*
X144140422Y-101575517D01*
X144112382Y-101590953D01*
X144083259Y-101608073D01*
X144053068Y-101626847D01*
X144021821Y-101647242D01*
X143989535Y-101669229D01*
X143956223Y-101692776D01*
X143921900Y-101717854D01*
X143921900Y-102450627D01*
X143681605Y-102450627D01*
X143681605Y-101332867D01*
X143879526Y-101332867D01*
G37*
G36*
X140659344Y-100754981D02*
G01*
X140738792Y-100750353D01*
X140820356Y-100746430D01*
X140903997Y-100743237D01*
X140991847Y-100739555D01*
X141083235Y-100736979D01*
X141178151Y-100735465D01*
X141276584Y-100734970D01*
X141327788Y-100735757D01*
X141376976Y-100738121D01*
X141400813Y-100739894D01*
X141424144Y-100742064D01*
X141446969Y-100744629D01*
X141469287Y-100747591D01*
X141491098Y-100750950D01*
X141512401Y-100754706D01*
X141533197Y-100758860D01*
X141553484Y-100763412D01*
X141573261Y-100768363D01*
X141592529Y-100773714D01*
X141611287Y-100779464D01*
X141629534Y-100785614D01*
X141647645Y-100792217D01*
X141665290Y-100799324D01*
X141682470Y-100806936D01*
X141699184Y-100815054D01*
X141715434Y-100823677D01*
X141731219Y-100832806D01*
X141746540Y-100842442D01*
X141761398Y-100852585D01*
X141775792Y-100863235D01*
X141789725Y-100874392D01*
X141803195Y-100886057D01*
X141816203Y-100898231D01*
X141828750Y-100910912D01*
X141840836Y-100924103D01*
X141852462Y-100937802D01*
X141863628Y-100952011D01*
X141874717Y-100966771D01*
X141885407Y-100982122D01*
X141895698Y-100998067D01*
X141905591Y-101014605D01*
X141915085Y-101031737D01*
X141924182Y-101049462D01*
X141932880Y-101067783D01*
X141941182Y-101086698D01*
X141949087Y-101106208D01*
X141956595Y-101126315D01*
X141963707Y-101147017D01*
X141970423Y-101168317D01*
X141976744Y-101190213D01*
X141982669Y-101212706D01*
X141988200Y-101235798D01*
X141993336Y-101259487D01*
X142003260Y-101308886D01*
X142011863Y-101361125D01*
X142019146Y-101416199D01*
X142025107Y-101474101D01*
X142029744Y-101534826D01*
X142033058Y-101598367D01*
X142035047Y-101664719D01*
X142035711Y-101733876D01*
X142035047Y-101803008D01*
X142033058Y-101869300D01*
X142029744Y-101932757D01*
X142025107Y-101993387D01*
X142019146Y-102051195D01*
X142011863Y-102106187D01*
X142003260Y-102158370D01*
X141993336Y-102207749D01*
X141988200Y-102231444D01*
X141982669Y-102254551D01*
X141976744Y-102277069D01*
X141970423Y-102298998D01*
X141963707Y-102320336D01*
X141956595Y-102341082D01*
X141949087Y-102361234D01*
X141941182Y-102380793D01*
X141932881Y-102399756D01*
X141924182Y-102418123D01*
X141915085Y-102435893D01*
X141905591Y-102453064D01*
X141895698Y-102469635D01*
X141885407Y-102485605D01*
X141874717Y-102500974D01*
X141863628Y-102515740D01*
X141852462Y-102529949D01*
X141840836Y-102543650D01*
X141828750Y-102556841D01*
X141816203Y-102569523D01*
X141803195Y-102581696D01*
X141789725Y-102593362D01*
X141775792Y-102604519D01*
X141761398Y-102615169D01*
X141746540Y-102625312D01*
X141731219Y-102634947D01*
X141715434Y-102644077D01*
X141699184Y-102652700D01*
X141682470Y-102660817D01*
X141665290Y-102668429D01*
X141647645Y-102675535D01*
X141629534Y-102682137D01*
X141611287Y-102688287D01*
X141592529Y-102694038D01*
X141573261Y-102699388D01*
X141553484Y-102704339D01*
X141512401Y-102713045D01*
X141469287Y-102720160D01*
X141424144Y-102725687D01*
X141376976Y-102729631D01*
X141327788Y-102731994D01*
X141276584Y-102732781D01*
X141178151Y-102732285D01*
X141083235Y-102730770D01*
X140991847Y-102728193D01*
X140903997Y-102724511D01*
X140820356Y-102721334D01*
X140738792Y-102717418D01*
X140659344Y-102712785D01*
X140582053Y-102707459D01*
X140582053Y-102509022D01*
X140830616Y-102509022D01*
X140889978Y-102510676D01*
X140920088Y-102511522D01*
X140952056Y-102512638D01*
X141106559Y-102514889D01*
X141276584Y-102515740D01*
X141299567Y-102515461D01*
X141321950Y-102514627D01*
X141343734Y-102513237D01*
X141364919Y-102511292D01*
X141385507Y-102508793D01*
X141405496Y-102505741D01*
X141424890Y-102502136D01*
X141443687Y-102497980D01*
X141461889Y-102493272D01*
X141479496Y-102488013D01*
X141496510Y-102482205D01*
X141512930Y-102475848D01*
X141528757Y-102468942D01*
X141543992Y-102461489D01*
X141558636Y-102453489D01*
X141572690Y-102444943D01*
X141586198Y-102435399D01*
X141599206Y-102425114D01*
X141611713Y-102414084D01*
X141623717Y-102402310D01*
X141635218Y-102389791D01*
X141646214Y-102376525D01*
X141656706Y-102362512D01*
X141666691Y-102347750D01*
X141676169Y-102332238D01*
X141685139Y-102315975D01*
X141693600Y-102298961D01*
X141701551Y-102281195D01*
X141708991Y-102262674D01*
X141715919Y-102243399D01*
X141722334Y-102223368D01*
X141728236Y-102202580D01*
X141739484Y-102157592D01*
X141749239Y-102108708D01*
X141757498Y-102055933D01*
X141764260Y-101999273D01*
X141769523Y-101938732D01*
X141773284Y-101874315D01*
X141775542Y-101806028D01*
X141776295Y-101733876D01*
X141775542Y-101661779D01*
X141773284Y-101593656D01*
X141769523Y-101529505D01*
X141764260Y-101469323D01*
X141757498Y-101413111D01*
X141749239Y-101360865D01*
X141744548Y-101336229D01*
X141739484Y-101312585D01*
X141734047Y-101289932D01*
X141728236Y-101268269D01*
X141722334Y-101247136D01*
X141715919Y-101226777D01*
X141708991Y-101207191D01*
X141701551Y-101188377D01*
X141693600Y-101170336D01*
X141685139Y-101153067D01*
X141676169Y-101136570D01*
X141666691Y-101120845D01*
X141656706Y-101105892D01*
X141646215Y-101091710D01*
X141635218Y-101078300D01*
X141623717Y-101065660D01*
X141611713Y-101053792D01*
X141599206Y-101042694D01*
X141586198Y-101032366D01*
X141572690Y-101022808D01*
X141558636Y-101013923D01*
X141543992Y-101005610D01*
X141528757Y-100997871D01*
X141512930Y-100990705D01*
X141496510Y-100984112D01*
X141479496Y-100978093D01*
X141461889Y-100972647D01*
X141443687Y-100967774D01*
X141424890Y-100963474D01*
X141405496Y-100959748D01*
X141385507Y-100956595D01*
X141364919Y-100954015D01*
X141343734Y-100952009D01*
X141321950Y-100950575D01*
X141299567Y-100949716D01*
X141276584Y-100949429D01*
X141109988Y-100950021D01*
X141033023Y-100950821D01*
X140960324Y-100952011D01*
X140830616Y-100954594D01*
X140830616Y-102509022D01*
X140582053Y-102509022D01*
X140582053Y-100760292D01*
X140659344Y-100754981D01*
G37*
G36*
X145401917Y-123663281D02*
G01*
X145391788Y-123663431D01*
X145382026Y-123663882D01*
X145372631Y-123664633D01*
X145363601Y-123665683D01*
X145354937Y-123667033D01*
X145346637Y-123668681D01*
X145338702Y-123670628D01*
X145331130Y-123672873D01*
X145323921Y-123675416D01*
X145317075Y-123678256D01*
X145310590Y-123681393D01*
X145304467Y-123684826D01*
X145298705Y-123688556D01*
X145293303Y-123692582D01*
X145288261Y-123696903D01*
X145283578Y-123701519D01*
X145278962Y-123706551D01*
X145274642Y-123712121D01*
X145270617Y-123718232D01*
X145266887Y-123724884D01*
X145263453Y-123732078D01*
X145260316Y-123739814D01*
X145257475Y-123748095D01*
X145254932Y-123756920D01*
X145252687Y-123766291D01*
X145250739Y-123776209D01*
X145249090Y-123786674D01*
X145247740Y-123797688D01*
X145246690Y-123809252D01*
X145245938Y-123821366D01*
X145245488Y-123834031D01*
X145245337Y-123847248D01*
X145245744Y-123890093D01*
X145246938Y-123938209D01*
X145248882Y-123991617D01*
X145251538Y-124050335D01*
X145254788Y-124110791D01*
X145258581Y-124171505D01*
X145262988Y-124232483D01*
X145268075Y-124293728D01*
X145092892Y-124317501D01*
X145085686Y-124279234D01*
X145078922Y-124238548D01*
X145072684Y-124195479D01*
X145067053Y-124150067D01*
X145062079Y-124103335D01*
X145057710Y-124056292D01*
X145053879Y-124008983D01*
X145050517Y-123961453D01*
X145047861Y-123915081D01*
X145045916Y-123871164D01*
X145044722Y-123829629D01*
X145044316Y-123790402D01*
X145044451Y-123774945D01*
X145044854Y-123759797D01*
X145045527Y-123744960D01*
X145046467Y-123730432D01*
X145047674Y-123716216D01*
X145049148Y-123702313D01*
X145050889Y-123688722D01*
X145052894Y-123675444D01*
X145055165Y-123662481D01*
X145057699Y-123649832D01*
X145060497Y-123637499D01*
X145063559Y-123625482D01*
X145066883Y-123613783D01*
X145070468Y-123602401D01*
X145074315Y-123591338D01*
X145078422Y-123580593D01*
X145082567Y-123569911D01*
X145087076Y-123559559D01*
X145091951Y-123549537D01*
X145097189Y-123539845D01*
X145102792Y-123530483D01*
X145108760Y-123521453D01*
X145115093Y-123512752D01*
X145121790Y-123504382D01*
X145128852Y-123496344D01*
X145136278Y-123488635D01*
X145144069Y-123481258D01*
X145152225Y-123474212D01*
X145160745Y-123467496D01*
X145169630Y-123461112D01*
X145178879Y-123455059D01*
X145188493Y-123449337D01*
X145198507Y-123443955D01*
X145208977Y-123438920D01*
X145219902Y-123434232D01*
X145231285Y-123429892D01*
X145243127Y-123425899D01*
X145255428Y-123422254D01*
X145268189Y-123418955D01*
X145281413Y-123416004D01*
X145295101Y-123413401D01*
X145309252Y-123411144D01*
X145323870Y-123409235D01*
X145338954Y-123407673D01*
X145354506Y-123406458D01*
X145370528Y-123405590D01*
X145387020Y-123405070D01*
X145403984Y-123404896D01*
X146108850Y-123404896D01*
X146108850Y-123607983D01*
X145937801Y-123635372D01*
X145939210Y-123636594D01*
X145940503Y-123637687D01*
X145942908Y-123639672D01*
X145944102Y-123640658D01*
X145945344Y-123641703D01*
X145946675Y-123642852D01*
X145948136Y-123644154D01*
X145958715Y-123654496D01*
X145969300Y-123665415D01*
X145979891Y-123676916D01*
X145990486Y-123689006D01*
X146001084Y-123701691D01*
X146011684Y-123714976D01*
X146022286Y-123728869D01*
X146032886Y-123743374D01*
X146043225Y-123757981D01*
X146053096Y-123773218D01*
X146062501Y-123789073D01*
X146071443Y-123805535D01*
X146079925Y-123822592D01*
X146087952Y-123840232D01*
X146095526Y-123858444D01*
X146102649Y-123877217D01*
X146105978Y-123886540D01*
X146109090Y-123895990D01*
X146111985Y-123905569D01*
X146114663Y-123915276D01*
X146117125Y-123925113D01*
X146119372Y-123935079D01*
X146121403Y-123945177D01*
X146123218Y-123955407D01*
X146124819Y-123965768D01*
X146126206Y-123976263D01*
X146128336Y-123997654D01*
X146129613Y-124019586D01*
X146130037Y-124042065D01*
X146129916Y-124053635D01*
X146129550Y-124065060D01*
X146128939Y-124076340D01*
X146128084Y-124087474D01*
X146126983Y-124098462D01*
X146125636Y-124109304D01*
X146124042Y-124119998D01*
X146122201Y-124130543D01*
X146120113Y-124140940D01*
X146117776Y-124151187D01*
X146115191Y-124161285D01*
X146112356Y-124171232D01*
X146109272Y-124181027D01*
X146105937Y-124190671D01*
X146102352Y-124200162D01*
X146098515Y-124209500D01*
X146094165Y-124218633D01*
X146089588Y-124227515D01*
X146084785Y-124236147D01*
X146079754Y-124244530D01*
X146074494Y-124252663D01*
X146069006Y-124260547D01*
X146063288Y-124268182D01*
X146057339Y-124275569D01*
X146051159Y-124282708D01*
X146044747Y-124289600D01*
X146038103Y-124296244D01*
X146031224Y-124302642D01*
X146024112Y-124308793D01*
X146016765Y-124314698D01*
X146009182Y-124320358D01*
X146001363Y-124325772D01*
X145993043Y-124330898D01*
X145984484Y-124335695D01*
X145975687Y-124340162D01*
X145966653Y-124344298D01*
X145957382Y-124348105D01*
X145947877Y-124351581D01*
X145938138Y-124354726D01*
X145928166Y-124357541D01*
X145917962Y-124360026D01*
X145907527Y-124362179D01*
X145896863Y-124364002D01*
X145885970Y-124365493D01*
X145874849Y-124366653D01*
X145863502Y-124367482D01*
X145851930Y-124367979D01*
X145840133Y-124368145D01*
X145730062Y-124368145D01*
X145714936Y-124367829D01*
X145700246Y-124366881D01*
X145685992Y-124365301D01*
X145672173Y-124363090D01*
X145658787Y-124360248D01*
X145645834Y-124356777D01*
X145633313Y-124352676D01*
X145621222Y-124347946D01*
X145609562Y-124342587D01*
X145598330Y-124336601D01*
X145587527Y-124329987D01*
X145577150Y-124322746D01*
X145567199Y-124314879D01*
X145557673Y-124306387D01*
X145548571Y-124297268D01*
X145539893Y-124287525D01*
X145531424Y-124276977D01*
X145523494Y-124265967D01*
X145516103Y-124254495D01*
X145509252Y-124242562D01*
X145502943Y-124230167D01*
X145497177Y-124217309D01*
X145491955Y-124203989D01*
X145487278Y-124190206D01*
X145483146Y-124175960D01*
X145479563Y-124161251D01*
X145476527Y-124146078D01*
X145474041Y-124130441D01*
X145472105Y-124114341D01*
X145470721Y-124097776D01*
X145469890Y-124080746D01*
X145469613Y-124063252D01*
X145469613Y-123993489D01*
X145628259Y-123993489D01*
X145628628Y-124001285D01*
X145629235Y-124008799D01*
X145630080Y-124016031D01*
X145631160Y-124022981D01*
X145632477Y-124029648D01*
X145634029Y-124036034D01*
X145635816Y-124042139D01*
X145637838Y-124047962D01*
X145640093Y-124053503D01*
X145642580Y-124058764D01*
X145645301Y-124063744D01*
X145648253Y-124068443D01*
X145651436Y-124072862D01*
X145654849Y-124077001D01*
X145658493Y-124080860D01*
X145662366Y-124084439D01*
X145666420Y-124087770D01*
X145670657Y-124090884D01*
X145675078Y-124093780D01*
X145679681Y-124096459D01*
X145684468Y-124098922D01*
X145689437Y-124101168D01*
X145694589Y-124103199D01*
X145699924Y-124105014D01*
X145705442Y-124106614D01*
X145711143Y-124108000D01*
X145717026Y-124109171D01*
X145723092Y-124110129D01*
X145729341Y-124110873D01*
X145735772Y-124111404D01*
X145742386Y-124111722D01*
X145749182Y-124111828D01*
X145806543Y-124111828D01*
X145814362Y-124111699D01*
X145821945Y-124111311D01*
X145829292Y-124110664D01*
X145836404Y-124109756D01*
X145843282Y-124108587D01*
X145849927Y-124107156D01*
X145856339Y-124105462D01*
X145862519Y-124103504D01*
X145868468Y-124101281D01*
X145874186Y-124098792D01*
X145879674Y-124096037D01*
X145884933Y-124093015D01*
X145889965Y-124089725D01*
X145894768Y-124086165D01*
X145899344Y-124082336D01*
X145903695Y-124078236D01*
X145907537Y-124073852D01*
X145911139Y-124069168D01*
X145914499Y-124064186D01*
X145917617Y-124058904D01*
X145920490Y-124053324D01*
X145923119Y-124047445D01*
X145925503Y-124041268D01*
X145927640Y-124034793D01*
X145929529Y-124028021D01*
X145931169Y-124020951D01*
X145932560Y-124013584D01*
X145933700Y-124005920D01*
X145934589Y-123997960D01*
X145935225Y-123989703D01*
X145935607Y-123981150D01*
X145935734Y-123972302D01*
X145935638Y-123965107D01*
X145935350Y-123957810D01*
X145934872Y-123950412D01*
X145934204Y-123942913D01*
X145932309Y-123927613D01*
X145929674Y-123911914D01*
X145926310Y-123895818D01*
X145922230Y-123879329D01*
X145917444Y-123862449D01*
X145911963Y-123845181D01*
X145905809Y-123827756D01*
X145898995Y-123810406D01*
X145891522Y-123793128D01*
X145883390Y-123775919D01*
X145874598Y-123758777D01*
X145865147Y-123741699D01*
X145855037Y-123724682D01*
X145844267Y-123707722D01*
X145842248Y-123704670D01*
X145840139Y-123701698D01*
X145837951Y-123698798D01*
X145835695Y-123695959D01*
X145833380Y-123693172D01*
X145831018Y-123690428D01*
X145826192Y-123685032D01*
X145816425Y-123674340D01*
X145811650Y-123668894D01*
X145809327Y-123666113D01*
X145807060Y-123663281D01*
X145628259Y-123663281D01*
X145628259Y-123993489D01*
X145469613Y-123993489D01*
X145469613Y-123663281D01*
X145401917Y-123663281D01*
G37*
G36*
X146103140Y-133576486D02*
G01*
X146114419Y-133576845D01*
X146125632Y-133577440D01*
X146136781Y-133578273D01*
X146147864Y-133579341D01*
X146158882Y-133580643D01*
X146169835Y-133582179D01*
X146180722Y-133583947D01*
X146191543Y-133585947D01*
X146202298Y-133588178D01*
X146212987Y-133590638D01*
X146223609Y-133593326D01*
X146234165Y-133596241D01*
X146244654Y-133599383D01*
X146255076Y-133602751D01*
X146265431Y-133606343D01*
X146275687Y-133610145D01*
X146285830Y-133614148D01*
X146295860Y-133618352D01*
X146305776Y-133622755D01*
X146315578Y-133627358D01*
X146325267Y-133632160D01*
X146334840Y-133637162D01*
X146344300Y-133642362D01*
X146353644Y-133647761D01*
X146362873Y-133653358D01*
X146371986Y-133659153D01*
X146380983Y-133665146D01*
X146389865Y-133671337D01*
X146398630Y-133677724D01*
X146407278Y-133684309D01*
X146415809Y-133691090D01*
X146424446Y-133697783D01*
X146432881Y-133704633D01*
X146441116Y-133711642D01*
X146449150Y-133718810D01*
X146456984Y-133726139D01*
X146464618Y-133733629D01*
X146472052Y-133741283D01*
X146479286Y-133749101D01*
X146486321Y-133757084D01*
X146493158Y-133765234D01*
X146499795Y-133773551D01*
X146506235Y-133782037D01*
X146512476Y-133790693D01*
X146518519Y-133799520D01*
X146524365Y-133808520D01*
X146530014Y-133817692D01*
X146417876Y-133959805D01*
X146408350Y-133951484D01*
X146398824Y-133943455D01*
X146389297Y-133935718D01*
X146379769Y-133928275D01*
X146370240Y-133921125D01*
X146360712Y-133914270D01*
X146351182Y-133907711D01*
X146341653Y-133901449D01*
X146332124Y-133895484D01*
X146322595Y-133889818D01*
X146313066Y-133884451D01*
X146303538Y-133879385D01*
X146294010Y-133874620D01*
X146284482Y-133870157D01*
X146274956Y-133865997D01*
X146265431Y-133862141D01*
X146255822Y-133858555D01*
X146246047Y-133855204D01*
X146236106Y-133852088D01*
X146225998Y-133849205D01*
X146215724Y-133846556D01*
X146205284Y-133844140D01*
X146194678Y-133841957D01*
X146183907Y-133840005D01*
X146172970Y-133838285D01*
X146161868Y-133836796D01*
X146139169Y-133834509D01*
X146115812Y-133833139D01*
X146091797Y-133832684D01*
X145069638Y-133832684D01*
X145069638Y-133576367D01*
X146091797Y-133576367D01*
X146103140Y-133576486D01*
G37*
G36*
X144818012Y-133037975D02*
G01*
X144822553Y-133038200D01*
X144826947Y-133038576D01*
X144831194Y-133039102D01*
X144835293Y-133039778D01*
X144839245Y-133040604D01*
X144843048Y-133041580D01*
X144846704Y-133042706D01*
X144850212Y-133043981D01*
X144853571Y-133045406D01*
X144856783Y-133046980D01*
X144859846Y-133048704D01*
X144862761Y-133050576D01*
X144865527Y-133052598D01*
X144868144Y-133054769D01*
X144870613Y-133057089D01*
X144872933Y-133059558D01*
X144875104Y-133062175D01*
X144877126Y-133064941D01*
X144878999Y-133067856D01*
X144880723Y-133070919D01*
X144882297Y-133074130D01*
X144883722Y-133077490D01*
X144884998Y-133080997D01*
X144886123Y-133084653D01*
X144887099Y-133088456D01*
X144887925Y-133092407D01*
X144888601Y-133096506D01*
X144889127Y-133100753D01*
X144889503Y-133105147D01*
X144889729Y-133109688D01*
X144889804Y-133114376D01*
X144889804Y-133228581D01*
X144889729Y-133233268D01*
X144889503Y-133237805D01*
X144889127Y-133242192D01*
X144888601Y-133246429D01*
X144887925Y-133250516D01*
X144887099Y-133254454D01*
X144886123Y-133258242D01*
X144884998Y-133261880D01*
X144883722Y-133265369D01*
X144882297Y-133268709D01*
X144880723Y-133271899D01*
X144878999Y-133274940D01*
X144877126Y-133277831D01*
X144875104Y-133280574D01*
X144872933Y-133283168D01*
X144870613Y-133285612D01*
X144868144Y-133287908D01*
X144865527Y-133290056D01*
X144862761Y-133292054D01*
X144859846Y-133293904D01*
X144856783Y-133295606D01*
X144853571Y-133297159D01*
X144850212Y-133298564D01*
X144846704Y-133299820D01*
X144843048Y-133300929D01*
X144839245Y-133301889D01*
X144835293Y-133302702D01*
X144831194Y-133303366D01*
X144826947Y-133303883D01*
X144822553Y-133304252D01*
X144813323Y-133304547D01*
X144694984Y-133304547D01*
X144690296Y-133304473D01*
X144685759Y-133304252D01*
X144681372Y-133303883D01*
X144677134Y-133303366D01*
X144673047Y-133302702D01*
X144669109Y-133301889D01*
X144665321Y-133300929D01*
X144661683Y-133299820D01*
X144658194Y-133298564D01*
X144654855Y-133297159D01*
X144651665Y-133295606D01*
X144648624Y-133293904D01*
X144645732Y-133292054D01*
X144642990Y-133290056D01*
X144640396Y-133287908D01*
X144637951Y-133285612D01*
X144635656Y-133283168D01*
X144633508Y-133280574D01*
X144631510Y-133277831D01*
X144629660Y-133274940D01*
X144627959Y-133271899D01*
X144626406Y-133268709D01*
X144625001Y-133265369D01*
X144623745Y-133261880D01*
X144622637Y-133258242D01*
X144621676Y-133254454D01*
X144620864Y-133250516D01*
X144620200Y-133246429D01*
X144619683Y-133242192D01*
X144619314Y-133237805D01*
X144619093Y-133233268D01*
X144619019Y-133228581D01*
X144619019Y-133114376D01*
X144619093Y-133109688D01*
X144619314Y-133105147D01*
X144619683Y-133100753D01*
X144620200Y-133096506D01*
X144620864Y-133092407D01*
X144621676Y-133088456D01*
X144622637Y-133084653D01*
X144623745Y-133080997D01*
X144625001Y-133077490D01*
X144626406Y-133074130D01*
X144627959Y-133070919D01*
X144629660Y-133067856D01*
X144631510Y-133064941D01*
X144633508Y-133062175D01*
X144635656Y-133059558D01*
X144637951Y-133057089D01*
X144640396Y-133054769D01*
X144642990Y-133052598D01*
X144645732Y-133050576D01*
X144648624Y-133048704D01*
X144651665Y-133046980D01*
X144654855Y-133045406D01*
X144658194Y-133043981D01*
X144661683Y-133042706D01*
X144665321Y-133041580D01*
X144669109Y-133040604D01*
X144673047Y-133039778D01*
X144677134Y-133039102D01*
X144681372Y-133038576D01*
X144685759Y-133038200D01*
X144690296Y-133037975D01*
X144694984Y-133037899D01*
X144813323Y-133037899D01*
X144818012Y-133037975D01*
G37*
M02*
