%TF.GenerationSoftware,KiCad,Pcbnew,6.0.11+dfsg-1~bpo11+1*%
%TF.CreationDate,2023-03-01T10:40:06+08:00*%
%TF.ProjectId,MiniLFO v1.0 - Front,4d696e69-4c46-44f2-9076-312e30202d20,rev?*%
%TF.SameCoordinates,Original*%
%TF.FileFunction,Drillmap*%
%TF.FilePolarity,Positive*%
%FSLAX45Y45*%
G04 Gerber Fmt 4.5, Leading zero omitted, Abs format (unit mm)*
G04 Created by KiCad (PCBNEW 6.0.11+dfsg-1~bpo11+1) date 2023-03-01 10:40:06*
%MOMM*%
%LPD*%
G01*
G04 APERTURE LIST*
%ADD10C,0.100000*%
%ADD11C,0.200000*%
G04 APERTURE END LIST*
D10*
X14900000Y-4700000D02*
X13900000Y-4700000D01*
X14900000Y-17550000D02*
X14900000Y-4700000D01*
X13900000Y-17550000D02*
X14900000Y-17550000D01*
X13900000Y-4700000D02*
X13900000Y-17550000D01*
D11*
X14152619Y-17865476D02*
X14152619Y-17665476D01*
X14200238Y-17665476D01*
X14228809Y-17675000D01*
X14247857Y-17694048D01*
X14257381Y-17713095D01*
X14266905Y-17751190D01*
X14266905Y-17779762D01*
X14257381Y-17817857D01*
X14247857Y-17836905D01*
X14228809Y-17855952D01*
X14200238Y-17865476D01*
X14152619Y-17865476D01*
X14352619Y-17865476D02*
X14352619Y-17732143D01*
X14352619Y-17770238D02*
X14362143Y-17751190D01*
X14371667Y-17741667D01*
X14390714Y-17732143D01*
X14409762Y-17732143D01*
X14476428Y-17865476D02*
X14476428Y-17732143D01*
X14476428Y-17665476D02*
X14466905Y-17675000D01*
X14476428Y-17684524D01*
X14485952Y-17675000D01*
X14476428Y-17665476D01*
X14476428Y-17684524D01*
X14600238Y-17865476D02*
X14581190Y-17855952D01*
X14571667Y-17836905D01*
X14571667Y-17665476D01*
X14705000Y-17865476D02*
X14685952Y-17855952D01*
X14676428Y-17836905D01*
X14676428Y-17665476D01*
X14933571Y-17865476D02*
X14933571Y-17665476D01*
X15000238Y-17808333D01*
X15066905Y-17665476D01*
X15066905Y-17865476D01*
X15247857Y-17865476D02*
X15247857Y-17760714D01*
X15238333Y-17741667D01*
X15219286Y-17732143D01*
X15181190Y-17732143D01*
X15162143Y-17741667D01*
X15247857Y-17855952D02*
X15228809Y-17865476D01*
X15181190Y-17865476D01*
X15162143Y-17855952D01*
X15152619Y-17836905D01*
X15152619Y-17817857D01*
X15162143Y-17798810D01*
X15181190Y-17789286D01*
X15228809Y-17789286D01*
X15247857Y-17779762D01*
X15343095Y-17732143D02*
X15343095Y-17932143D01*
X15343095Y-17741667D02*
X15362143Y-17732143D01*
X15400238Y-17732143D01*
X15419286Y-17741667D01*
X15428809Y-17751190D01*
X15438333Y-17770238D01*
X15438333Y-17827381D01*
X15428809Y-17846429D01*
X15419286Y-17855952D01*
X15400238Y-17865476D01*
X15362143Y-17865476D01*
X15343095Y-17855952D01*
X15524048Y-17846429D02*
X15533571Y-17855952D01*
X15524048Y-17865476D01*
X15514524Y-17855952D01*
X15524048Y-17846429D01*
X15524048Y-17865476D01*
X15524048Y-17741667D02*
X15533571Y-17751190D01*
X15524048Y-17760714D01*
X15514524Y-17751190D01*
X15524048Y-17741667D01*
X15524048Y-17760714D01*
M02*
