%TF.GenerationSoftware,KiCad,Pcbnew,6.0.11+dfsg-1~bpo11+1*%
%TF.CreationDate,2023-03-01T10:40:02+08:00*%
%TF.ProjectId,MiniLFO v1.0 - Front,4d696e69-4c46-44f2-9076-312e30202d20,rev?*%
%TF.SameCoordinates,Original*%
%TF.FileFunction,Copper,L2,Bot*%
%TF.FilePolarity,Positive*%
%FSLAX46Y46*%
G04 Gerber Fmt 4.6, Leading zero omitted, Abs format (unit mm)*
G04 Created by KiCad (PCBNEW 6.0.11+dfsg-1~bpo11+1) date 2023-03-01 10:40:02*
%MOMM*%
%LPD*%
G01*
G04 APERTURE LIST*
%TA.AperFunction,ComponentPad*%
%ADD10O,4.200000X4.200000*%
%TD*%
%TA.AperFunction,ComponentPad*%
%ADD11C,7.000000*%
%TD*%
%TA.AperFunction,ComponentPad*%
%ADD12C,8.000000*%
%TD*%
%TA.AperFunction,ViaPad*%
%ADD13C,3.200000*%
%TD*%
G04 APERTURE END LIST*
D10*
%TO.P,REF\u002A\u002A,*%
%TO.N,*%
X146600000Y-172500000D03*
X146600000Y-50000000D03*
%TD*%
D11*
%TO.P,REF\u002A\u002A,*%
%TO.N,*%
X143950000Y-70900000D03*
%TD*%
%TO.P,REF\u002A\u002A,*%
%TO.N,*%
X144000000Y-156700000D03*
%TD*%
D12*
%TO.P,REF\u002A\u002A,*%
%TO.N,*%
X144000000Y-111000000D03*
%TD*%
%TO.P,REF\u002A\u002A,*%
%TO.N,*%
X143950000Y-90750000D03*
%TD*%
D13*
%TO.N,*%
X143900000Y-146400000D03*
%TD*%
%TA.AperFunction,NonConductor*%
G36*
X148433621Y-47528502D02*
G01*
X148480114Y-47582158D01*
X148491500Y-47634500D01*
X148491500Y-47909733D01*
X148471498Y-47977854D01*
X148417842Y-48024347D01*
X148347568Y-48034451D01*
X148287494Y-48008683D01*
X148094409Y-47856467D01*
X148091428Y-47854117D01*
X147907561Y-47742104D01*
X147859792Y-47689582D01*
X147848001Y-47619572D01*
X147875934Y-47554300D01*
X147934720Y-47514492D01*
X147973114Y-47508500D01*
X148365500Y-47508500D01*
X148433621Y-47528502D01*
G37*
%TD.AperFunction*%
%TA.AperFunction,NonConductor*%
G36*
X145295902Y-47528502D02*
G01*
X145342395Y-47582158D01*
X145352499Y-47652432D01*
X145323005Y-47717012D01*
X145292204Y-47742785D01*
X145131125Y-47838617D01*
X144882102Y-48030737D01*
X144657963Y-48251382D01*
X144655595Y-48254354D01*
X144464321Y-48494388D01*
X144464315Y-48494397D01*
X144461956Y-48497357D01*
X144296918Y-48765098D01*
X144165241Y-49050727D01*
X144068833Y-49350107D01*
X144068114Y-49353823D01*
X144068112Y-49353831D01*
X144009808Y-49655181D01*
X144009807Y-49655190D01*
X144009089Y-49658900D01*
X143986875Y-49972634D01*
X144002514Y-50286765D01*
X144003155Y-50290496D01*
X144003156Y-50290504D01*
X144055133Y-50592997D01*
X144055135Y-50593005D01*
X144055777Y-50596742D01*
X144145895Y-50898075D01*
X144271561Y-51186399D01*
X144430955Y-51457537D01*
X144433256Y-51460552D01*
X144619469Y-51704550D01*
X144619474Y-51704555D01*
X144621769Y-51707563D01*
X144841238Y-51932854D01*
X144965089Y-52032611D01*
X145083230Y-52127769D01*
X145083235Y-52127773D01*
X145086183Y-52130147D01*
X145089403Y-52132155D01*
X145349829Y-52294573D01*
X145349836Y-52294577D01*
X145353056Y-52296585D01*
X145637992Y-52429755D01*
X145641602Y-52430938D01*
X145641606Y-52430940D01*
X145729762Y-52459839D01*
X145936862Y-52527730D01*
X146245339Y-52589090D01*
X146249111Y-52589377D01*
X146249119Y-52589378D01*
X146555176Y-52612659D01*
X146555181Y-52612659D01*
X146558953Y-52612946D01*
X146873161Y-52598952D01*
X146876899Y-52598330D01*
X146876907Y-52598329D01*
X147027897Y-52573197D01*
X147183412Y-52547312D01*
X147485213Y-52458774D01*
X147774191Y-52334619D01*
X147777468Y-52332715D01*
X147777475Y-52332712D01*
X147935231Y-52241079D01*
X148046160Y-52176646D01*
X148289584Y-51992881D01*
X148356003Y-51967801D01*
X148425438Y-51982612D01*
X148475843Y-52032611D01*
X148491500Y-52093443D01*
X148491500Y-89341036D01*
X148471498Y-89409157D01*
X148417842Y-89455650D01*
X148347568Y-89465754D01*
X148282988Y-89436260D01*
X148245803Y-89380390D01*
X148170057Y-89150005D01*
X148170054Y-89149998D01*
X148169164Y-89147290D01*
X148006542Y-88771492D01*
X147810529Y-88411980D01*
X147730190Y-88291971D01*
X147584332Y-88074090D01*
X147584324Y-88074079D01*
X147582740Y-88071713D01*
X147325049Y-87753491D01*
X147146382Y-87569763D01*
X147041567Y-87461980D01*
X147041563Y-87461976D01*
X147039577Y-87459934D01*
X147037419Y-87458084D01*
X147037409Y-87458075D01*
X146730849Y-87195321D01*
X146730844Y-87195317D01*
X146728675Y-87193458D01*
X146726344Y-87191801D01*
X146726337Y-87191796D01*
X146520663Y-87045632D01*
X146394900Y-86956257D01*
X146168345Y-86824399D01*
X146043474Y-86751722D01*
X146043469Y-86751719D01*
X146041001Y-86750283D01*
X145806846Y-86641095D01*
X145672487Y-86578442D01*
X145672477Y-86578438D01*
X145669891Y-86577232D01*
X145667194Y-86576261D01*
X145287314Y-86439495D01*
X145287305Y-86439492D01*
X145284624Y-86438527D01*
X145022247Y-86370183D01*
X144891140Y-86336032D01*
X144891134Y-86336031D01*
X144888371Y-86335311D01*
X144484395Y-86268433D01*
X144481552Y-86268224D01*
X144481550Y-86268224D01*
X144078865Y-86238653D01*
X144076019Y-86238444D01*
X143906043Y-86241411D01*
X143669458Y-86245540D01*
X143669453Y-86245540D01*
X143666607Y-86245590D01*
X143663774Y-86245898D01*
X143663770Y-86245898D01*
X143334896Y-86281625D01*
X143259527Y-86289813D01*
X142858130Y-86370749D01*
X142855402Y-86371562D01*
X142855391Y-86371565D01*
X142542867Y-86464733D01*
X142465721Y-86487731D01*
X142463060Y-86488795D01*
X142463058Y-86488796D01*
X142238927Y-86578442D01*
X142085529Y-86639797D01*
X142082982Y-86641095D01*
X141723227Y-86824399D01*
X141723222Y-86824402D01*
X141720684Y-86825695D01*
X141374189Y-87043894D01*
X141048896Y-87292599D01*
X140747483Y-87569763D01*
X140472430Y-87873104D01*
X140226002Y-88200125D01*
X140010227Y-88548135D01*
X140008947Y-88550691D01*
X140008942Y-88550700D01*
X139899635Y-88768982D01*
X139826881Y-88914269D01*
X139825836Y-88916935D01*
X139825834Y-88916940D01*
X139751813Y-89105819D01*
X139708334Y-89161945D01*
X139641414Y-89185655D01*
X139572298Y-89169421D01*
X139522931Y-89118397D01*
X139508500Y-89059845D01*
X139508500Y-70843965D01*
X139937057Y-70843965D01*
X139950741Y-71235827D01*
X140002599Y-71624484D01*
X140092136Y-72006225D01*
X140218496Y-72377407D01*
X140380475Y-72734487D01*
X140576525Y-73074056D01*
X140578314Y-73076554D01*
X140578316Y-73076558D01*
X140678047Y-73215860D01*
X140804776Y-73392874D01*
X141063049Y-73687896D01*
X141348878Y-73956308D01*
X141659536Y-74195546D01*
X141662139Y-74197173D01*
X141662144Y-74197176D01*
X141781576Y-74271805D01*
X141992056Y-74403328D01*
X142343266Y-74577670D01*
X142709812Y-74716907D01*
X143088195Y-74819712D01*
X143386419Y-74870153D01*
X143471783Y-74884591D01*
X143471786Y-74884591D01*
X143474805Y-74885102D01*
X143629444Y-74895916D01*
X143862885Y-74912240D01*
X143862893Y-74912240D01*
X143865951Y-74912454D01*
X144118037Y-74905413D01*
X144254825Y-74901592D01*
X144254828Y-74901592D01*
X144257899Y-74901506D01*
X144260952Y-74901120D01*
X144260956Y-74901120D01*
X144402576Y-74883229D01*
X144646908Y-74852362D01*
X144649912Y-74851680D01*
X144649915Y-74851679D01*
X145026269Y-74766174D01*
X145026275Y-74766172D01*
X145029265Y-74765493D01*
X145032184Y-74764522D01*
X145398396Y-74642700D01*
X145398402Y-74642698D01*
X145401320Y-74641727D01*
X145542735Y-74578765D01*
X145756722Y-74483492D01*
X145756728Y-74483489D01*
X145759522Y-74482245D01*
X145762191Y-74480729D01*
X146097784Y-74290086D01*
X146097790Y-74290083D01*
X146100452Y-74288570D01*
X146420855Y-74062550D01*
X146717674Y-73806344D01*
X146988074Y-73522395D01*
X147229475Y-73213415D01*
X147439574Y-72882354D01*
X147616363Y-72532370D01*
X147676469Y-72377407D01*
X147757041Y-72169681D01*
X147757044Y-72169672D01*
X147758156Y-72166805D01*
X147863600Y-71789148D01*
X147931688Y-71403004D01*
X147961769Y-71012059D01*
X147963334Y-70900000D01*
X147960594Y-70843965D01*
X147944330Y-70511440D01*
X147944180Y-70508367D01*
X147886901Y-70120473D01*
X147792043Y-69740019D01*
X147660512Y-69370637D01*
X147493564Y-69015854D01*
X147491997Y-69013225D01*
X147491992Y-69013216D01*
X147294361Y-68681689D01*
X147292791Y-68679055D01*
X147290977Y-68676595D01*
X147290972Y-68676587D01*
X147061933Y-68365926D01*
X147061931Y-68365923D01*
X147060111Y-68363455D01*
X146797744Y-68072068D01*
X146508195Y-67807673D01*
X146194228Y-67572795D01*
X146146015Y-67543596D01*
X145861467Y-67371267D01*
X145861458Y-67371262D01*
X145858839Y-67369676D01*
X145505229Y-67200255D01*
X145502339Y-67199203D01*
X145502334Y-67199201D01*
X145139674Y-67067204D01*
X145139671Y-67067203D01*
X145136775Y-67066149D01*
X144860563Y-66995229D01*
X144759977Y-66969403D01*
X144759974Y-66969402D01*
X144756993Y-66968637D01*
X144369508Y-66908651D01*
X143978018Y-66886764D01*
X143974939Y-66886893D01*
X143974936Y-66886893D01*
X143719188Y-66897612D01*
X143586261Y-66903183D01*
X143583217Y-66903611D01*
X143583215Y-66903611D01*
X143372778Y-66933186D01*
X143197976Y-66957753D01*
X142816869Y-67049953D01*
X142446579Y-67178902D01*
X142090638Y-67343369D01*
X141752446Y-67541785D01*
X141592444Y-67658033D01*
X141437711Y-67770453D01*
X141437705Y-67770458D01*
X141435230Y-67772256D01*
X141432944Y-67774285D01*
X141432941Y-67774288D01*
X141353123Y-67845154D01*
X141142017Y-68032583D01*
X141139938Y-68034828D01*
X141139931Y-68034835D01*
X140877694Y-68318026D01*
X140875608Y-68320279D01*
X140638544Y-68632599D01*
X140433089Y-68966562D01*
X140261203Y-69318980D01*
X140124527Y-69686489D01*
X140024367Y-70065581D01*
X139961677Y-70452638D01*
X139961483Y-70455718D01*
X139961483Y-70455720D01*
X139957978Y-70511440D01*
X139937057Y-70843965D01*
X139508500Y-70843965D01*
X139508500Y-47634500D01*
X139528502Y-47566379D01*
X139582158Y-47519886D01*
X139634500Y-47508500D01*
X145227781Y-47508500D01*
X145295902Y-47528502D01*
G37*
%TD.AperFunction*%
%TA.AperFunction,NonConductor*%
G36*
X148423840Y-92052904D02*
G01*
X148474957Y-92102173D01*
X148491500Y-92164584D01*
X148491500Y-109438959D01*
X148471498Y-109507080D01*
X148417842Y-109553573D01*
X148347568Y-109563677D01*
X148282988Y-109534183D01*
X148245804Y-109478313D01*
X148220064Y-109400025D01*
X148220058Y-109400010D01*
X148219164Y-109397290D01*
X148056542Y-109021492D01*
X147860529Y-108661980D01*
X147780190Y-108541971D01*
X147634332Y-108324090D01*
X147634324Y-108324079D01*
X147632740Y-108321713D01*
X147375049Y-108003491D01*
X147196382Y-107819763D01*
X147091567Y-107711980D01*
X147091563Y-107711976D01*
X147089577Y-107709934D01*
X147087419Y-107708084D01*
X147087409Y-107708075D01*
X146780849Y-107445321D01*
X146780844Y-107445317D01*
X146778675Y-107443458D01*
X146776344Y-107441801D01*
X146776337Y-107441796D01*
X146570663Y-107295632D01*
X146444900Y-107206257D01*
X146218345Y-107074399D01*
X146093474Y-107001722D01*
X146093469Y-107001719D01*
X146091001Y-107000283D01*
X145856846Y-106891095D01*
X145722487Y-106828442D01*
X145722477Y-106828438D01*
X145719891Y-106827232D01*
X145717194Y-106826261D01*
X145337314Y-106689495D01*
X145337305Y-106689492D01*
X145334624Y-106688527D01*
X145072247Y-106620183D01*
X144941140Y-106586032D01*
X144941134Y-106586031D01*
X144938371Y-106585311D01*
X144534395Y-106518433D01*
X144531552Y-106518224D01*
X144531550Y-106518224D01*
X144128865Y-106488653D01*
X144126019Y-106488444D01*
X143956043Y-106491411D01*
X143719458Y-106495540D01*
X143719453Y-106495540D01*
X143716607Y-106495590D01*
X143713774Y-106495898D01*
X143713770Y-106495898D01*
X143384896Y-106531625D01*
X143309527Y-106539813D01*
X142908130Y-106620749D01*
X142905402Y-106621562D01*
X142905391Y-106621565D01*
X142592867Y-106714733D01*
X142515721Y-106737731D01*
X142513060Y-106738795D01*
X142513058Y-106738796D01*
X142288927Y-106828442D01*
X142135529Y-106889797D01*
X142132982Y-106891095D01*
X141773227Y-107074399D01*
X141773222Y-107074402D01*
X141770684Y-107075695D01*
X141424189Y-107293894D01*
X141098896Y-107542599D01*
X140797483Y-107819763D01*
X140522430Y-108123104D01*
X140276002Y-108450125D01*
X140060227Y-108798135D01*
X140058947Y-108800691D01*
X140058942Y-108800700D01*
X139949635Y-109018982D01*
X139876881Y-109164269D01*
X139875836Y-109166935D01*
X139875834Y-109166940D01*
X139751813Y-109483404D01*
X139708334Y-109539530D01*
X139641414Y-109563240D01*
X139572298Y-109547006D01*
X139522931Y-109495982D01*
X139508500Y-109437430D01*
X139508500Y-92443039D01*
X139528502Y-92374918D01*
X139582158Y-92328425D01*
X139652432Y-92318321D01*
X139717012Y-92347815D01*
X139752750Y-92399532D01*
X139788349Y-92496288D01*
X139788353Y-92496298D01*
X139789340Y-92498980D01*
X139964979Y-92868874D01*
X140082260Y-93067186D01*
X140143473Y-93170691D01*
X140173418Y-93221326D01*
X140412944Y-93553436D01*
X140681584Y-93862471D01*
X140977126Y-94145886D01*
X140979344Y-94147656D01*
X140979349Y-94147661D01*
X141137133Y-94273618D01*
X141297139Y-94401349D01*
X141299520Y-94402919D01*
X141589482Y-94594113D01*
X141638989Y-94626757D01*
X141641519Y-94628113D01*
X141641518Y-94628113D01*
X141948340Y-94792630D01*
X141999860Y-94820255D01*
X142376784Y-94980250D01*
X142379522Y-94981129D01*
X142763931Y-95104549D01*
X142763935Y-95104550D01*
X142766657Y-95105424D01*
X142769447Y-95106048D01*
X142769452Y-95106049D01*
X143163477Y-95194125D01*
X143163488Y-95194127D01*
X143166271Y-95194749D01*
X143572335Y-95247487D01*
X143981509Y-95263206D01*
X143984371Y-95263056D01*
X143984372Y-95263056D01*
X144387566Y-95241926D01*
X144387573Y-95241925D01*
X144390422Y-95241776D01*
X144393245Y-95241369D01*
X144393247Y-95241369D01*
X144792889Y-95183780D01*
X144792896Y-95183779D01*
X144795711Y-95183373D01*
X145194038Y-95088478D01*
X145196736Y-95087570D01*
X145196743Y-95087568D01*
X145579414Y-94958785D01*
X145579420Y-94958783D01*
X145582126Y-94957872D01*
X145956779Y-94792630D01*
X146314914Y-94594113D01*
X146653583Y-94363954D01*
X146969998Y-94104047D01*
X146972036Y-94102038D01*
X146972043Y-94102031D01*
X147217161Y-93860311D01*
X147261555Y-93816533D01*
X147267261Y-93809781D01*
X147524008Y-93505963D01*
X147524013Y-93505957D01*
X147525854Y-93503778D01*
X147760719Y-93168356D01*
X147964217Y-92813027D01*
X148106815Y-92501567D01*
X148133485Y-92443316D01*
X148133488Y-92443307D01*
X148134674Y-92440718D01*
X148246654Y-92122732D01*
X148288147Y-92065123D01*
X148354200Y-92039092D01*
X148423840Y-92052904D01*
G37*
%TD.AperFunction*%
%TA.AperFunction,NonConductor*%
G36*
X148425438Y-174482612D02*
G01*
X148475843Y-174532611D01*
X148491500Y-174593443D01*
X148491500Y-174865500D01*
X148471498Y-174933621D01*
X148417842Y-174980114D01*
X148365500Y-174991500D01*
X147971889Y-174991500D01*
X147903768Y-174971498D01*
X147857275Y-174917842D01*
X147847171Y-174847568D01*
X147876665Y-174782988D01*
X147908603Y-174756546D01*
X147941890Y-174737211D01*
X148046160Y-174676646D01*
X148289584Y-174492881D01*
X148356003Y-174467801D01*
X148425438Y-174482612D01*
G37*
%TD.AperFunction*%
%TA.AperFunction,NonConductor*%
G36*
X148423840Y-112444887D02*
G01*
X148474957Y-112494156D01*
X148491500Y-112556567D01*
X148491500Y-170409733D01*
X148471498Y-170477854D01*
X148417842Y-170524347D01*
X148347568Y-170534451D01*
X148287494Y-170508683D01*
X148094409Y-170356467D01*
X148091428Y-170354117D01*
X147822826Y-170190484D01*
X147708454Y-170138482D01*
X147539963Y-170061873D01*
X147539955Y-170061870D01*
X147536511Y-170060304D01*
X147236631Y-169965464D01*
X147099363Y-169939651D01*
X146931253Y-169908038D01*
X146931248Y-169908037D01*
X146927529Y-169907338D01*
X146613683Y-169886768D01*
X146609903Y-169886976D01*
X146609902Y-169886976D01*
X146518331Y-169892016D01*
X146299638Y-169904051D01*
X146295911Y-169904712D01*
X146295907Y-169904712D01*
X146186248Y-169924147D01*
X145989945Y-169958937D01*
X145986329Y-169960039D01*
X145986321Y-169960041D01*
X145692712Y-170049526D01*
X145692705Y-170049529D01*
X145689088Y-170050631D01*
X145401426Y-170177805D01*
X145398172Y-170179741D01*
X145398166Y-170179744D01*
X145134384Y-170336678D01*
X145131125Y-170338617D01*
X144882102Y-170530737D01*
X144657963Y-170751382D01*
X144655595Y-170754354D01*
X144464321Y-170994388D01*
X144464315Y-170994397D01*
X144461956Y-170997357D01*
X144296918Y-171265098D01*
X144165241Y-171550727D01*
X144068833Y-171850107D01*
X144068114Y-171853823D01*
X144068112Y-171853831D01*
X144009808Y-172155181D01*
X144009807Y-172155190D01*
X144009089Y-172158900D01*
X143986875Y-172472634D01*
X144002514Y-172786765D01*
X144003155Y-172790496D01*
X144003156Y-172790504D01*
X144055133Y-173092997D01*
X144055135Y-173093005D01*
X144055777Y-173096742D01*
X144145895Y-173398075D01*
X144271561Y-173686399D01*
X144430955Y-173957537D01*
X144433256Y-173960552D01*
X144619469Y-174204550D01*
X144619474Y-174204555D01*
X144621769Y-174207563D01*
X144841238Y-174432854D01*
X144965089Y-174532611D01*
X145083230Y-174627769D01*
X145083235Y-174627773D01*
X145086183Y-174630147D01*
X145218424Y-174712621D01*
X145292130Y-174758588D01*
X145339346Y-174811608D01*
X145350402Y-174881739D01*
X145321788Y-174946713D01*
X145262588Y-174985904D01*
X145225453Y-174991500D01*
X139634500Y-174991500D01*
X139566379Y-174971498D01*
X139519886Y-174917842D01*
X139508500Y-174865500D01*
X139508500Y-156643965D01*
X139987057Y-156643965D01*
X140000741Y-157035827D01*
X140052599Y-157424484D01*
X140142136Y-157806225D01*
X140268496Y-158177407D01*
X140430475Y-158534487D01*
X140626525Y-158874056D01*
X140628314Y-158876554D01*
X140628316Y-158876558D01*
X140728047Y-159015860D01*
X140854776Y-159192874D01*
X141113049Y-159487896D01*
X141398878Y-159756308D01*
X141709536Y-159995546D01*
X141712139Y-159997173D01*
X141712144Y-159997176D01*
X141831576Y-160071805D01*
X142042056Y-160203328D01*
X142393266Y-160377670D01*
X142759812Y-160516907D01*
X143138195Y-160619712D01*
X143436419Y-160670153D01*
X143521783Y-160684591D01*
X143521786Y-160684591D01*
X143524805Y-160685102D01*
X143679444Y-160695916D01*
X143912885Y-160712240D01*
X143912893Y-160712240D01*
X143915951Y-160712454D01*
X144168037Y-160705413D01*
X144304825Y-160701592D01*
X144304828Y-160701592D01*
X144307899Y-160701506D01*
X144310952Y-160701120D01*
X144310956Y-160701120D01*
X144452576Y-160683229D01*
X144696908Y-160652362D01*
X144699912Y-160651680D01*
X144699915Y-160651679D01*
X145076269Y-160566174D01*
X145076275Y-160566172D01*
X145079265Y-160565493D01*
X145082184Y-160564522D01*
X145448396Y-160442700D01*
X145448402Y-160442698D01*
X145451320Y-160441727D01*
X145592735Y-160378765D01*
X145806722Y-160283492D01*
X145806728Y-160283489D01*
X145809522Y-160282245D01*
X145812191Y-160280729D01*
X146147784Y-160090086D01*
X146147790Y-160090083D01*
X146150452Y-160088570D01*
X146470855Y-159862550D01*
X146767674Y-159606344D01*
X147038074Y-159322395D01*
X147279475Y-159013415D01*
X147489574Y-158682354D01*
X147666363Y-158332370D01*
X147726469Y-158177407D01*
X147807041Y-157969681D01*
X147807044Y-157969672D01*
X147808156Y-157966805D01*
X147913600Y-157589148D01*
X147981688Y-157203004D01*
X148011769Y-156812059D01*
X148013334Y-156700000D01*
X148010594Y-156643965D01*
X147994330Y-156311440D01*
X147994180Y-156308367D01*
X147936901Y-155920473D01*
X147842043Y-155540019D01*
X147710512Y-155170637D01*
X147543564Y-154815854D01*
X147541997Y-154813225D01*
X147541992Y-154813216D01*
X147344361Y-154481689D01*
X147342791Y-154479055D01*
X147340977Y-154476595D01*
X147340972Y-154476587D01*
X147111933Y-154165926D01*
X147111931Y-154165923D01*
X147110111Y-154163455D01*
X146847744Y-153872068D01*
X146558195Y-153607673D01*
X146244228Y-153372795D01*
X146196015Y-153343596D01*
X145911467Y-153171267D01*
X145911458Y-153171262D01*
X145908839Y-153169676D01*
X145555229Y-153000255D01*
X145552339Y-152999203D01*
X145552334Y-152999201D01*
X145189674Y-152867204D01*
X145189671Y-152867203D01*
X145186775Y-152866149D01*
X144910563Y-152795229D01*
X144809977Y-152769403D01*
X144809974Y-152769402D01*
X144806993Y-152768637D01*
X144419508Y-152708651D01*
X144028018Y-152686764D01*
X144024939Y-152686893D01*
X144024936Y-152686893D01*
X143769188Y-152697612D01*
X143636261Y-152703183D01*
X143633217Y-152703611D01*
X143633215Y-152703611D01*
X143422778Y-152733186D01*
X143247976Y-152757753D01*
X142866869Y-152849953D01*
X142496579Y-152978902D01*
X142140638Y-153143369D01*
X141802446Y-153341785D01*
X141642444Y-153458033D01*
X141487711Y-153570453D01*
X141487705Y-153570458D01*
X141485230Y-153572256D01*
X141482944Y-153574285D01*
X141482941Y-153574288D01*
X141403123Y-153645154D01*
X141192017Y-153832583D01*
X141189938Y-153834828D01*
X141189931Y-153834835D01*
X140927694Y-154118026D01*
X140925608Y-154120279D01*
X140688544Y-154432599D01*
X140483089Y-154766562D01*
X140311203Y-155118980D01*
X140174527Y-155486489D01*
X140074367Y-155865581D01*
X140011677Y-156252638D01*
X140011483Y-156255718D01*
X140011483Y-156255720D01*
X140007978Y-156311440D01*
X139987057Y-156643965D01*
X139508500Y-156643965D01*
X139508500Y-146377869D01*
X141786689Y-146377869D01*
X141803238Y-146664883D01*
X141804063Y-146669088D01*
X141804064Y-146669096D01*
X141836010Y-146831921D01*
X141858586Y-146946995D01*
X141859973Y-146951045D01*
X141859974Y-146951050D01*
X141950321Y-147214930D01*
X141951710Y-147218986D01*
X142080885Y-147475822D01*
X142243721Y-147712750D01*
X142437206Y-147925388D01*
X142440501Y-147928143D01*
X142440502Y-147928144D01*
X142491258Y-147970582D01*
X142657759Y-148109798D01*
X142901298Y-148262571D01*
X143163318Y-148380877D01*
X143167437Y-148382097D01*
X143434857Y-148461311D01*
X143434862Y-148461312D01*
X143438970Y-148462529D01*
X143443204Y-148463177D01*
X143443209Y-148463178D01*
X143691811Y-148501219D01*
X143723153Y-148506015D01*
X143869485Y-148508314D01*
X144006317Y-148510464D01*
X144006323Y-148510464D01*
X144010608Y-148510531D01*
X144014860Y-148510016D01*
X144014868Y-148510016D01*
X144291756Y-148476508D01*
X144291761Y-148476507D01*
X144296017Y-148475992D01*
X144574097Y-148403039D01*
X144839704Y-148293021D01*
X145087922Y-148147974D01*
X145314159Y-147970582D01*
X145355285Y-147928144D01*
X145511244Y-147767206D01*
X145514227Y-147764128D01*
X145516760Y-147760680D01*
X145516764Y-147760675D01*
X145681887Y-147535886D01*
X145684425Y-147532431D01*
X145821604Y-147279779D01*
X145923225Y-147010848D01*
X145987407Y-146730613D01*
X146012963Y-146444260D01*
X146013427Y-146400000D01*
X145993873Y-146113175D01*
X145989336Y-146091264D01*
X145936443Y-145835855D01*
X145935574Y-145831658D01*
X145839607Y-145560657D01*
X145707750Y-145305188D01*
X145694488Y-145286317D01*
X145544904Y-145073482D01*
X145542441Y-145069977D01*
X145346740Y-144859378D01*
X145124268Y-144677287D01*
X144879142Y-144527073D01*
X144861048Y-144519130D01*
X144619830Y-144413243D01*
X144615898Y-144411517D01*
X144589963Y-144404129D01*
X144343534Y-144333932D01*
X144343535Y-144333932D01*
X144339406Y-144332756D01*
X144126704Y-144302485D01*
X144059036Y-144292854D01*
X144059034Y-144292854D01*
X144054784Y-144292249D01*
X144050495Y-144292227D01*
X144050488Y-144292226D01*
X143771583Y-144290765D01*
X143771576Y-144290765D01*
X143767297Y-144290743D01*
X143763053Y-144291302D01*
X143763049Y-144291302D01*
X143637660Y-144307810D01*
X143482266Y-144328268D01*
X143478126Y-144329401D01*
X143478124Y-144329401D01*
X143401311Y-144350415D01*
X143204964Y-144404129D01*
X143201016Y-144405813D01*
X142944476Y-144515237D01*
X142944472Y-144515239D01*
X142940524Y-144516923D01*
X142815960Y-144591473D01*
X142697521Y-144662357D01*
X142697517Y-144662360D01*
X142693839Y-144664561D01*
X142469472Y-144844313D01*
X142271577Y-145052851D01*
X142103814Y-145286317D01*
X141969288Y-145540392D01*
X141870489Y-145810373D01*
X141809245Y-146091264D01*
X141786689Y-146377869D01*
X139508500Y-146377869D01*
X139508500Y-112557144D01*
X139528502Y-112489023D01*
X139582158Y-112442530D01*
X139652432Y-112432426D01*
X139717012Y-112461920D01*
X139752750Y-112513636D01*
X139838352Y-112746295D01*
X139839340Y-112748980D01*
X140014979Y-113118874D01*
X140132260Y-113317186D01*
X140193473Y-113420691D01*
X140223418Y-113471326D01*
X140462944Y-113803436D01*
X140731584Y-114112471D01*
X141027126Y-114395886D01*
X141029344Y-114397656D01*
X141029349Y-114397661D01*
X141187133Y-114523618D01*
X141347139Y-114651349D01*
X141349520Y-114652919D01*
X141639482Y-114844113D01*
X141688989Y-114876757D01*
X141691519Y-114878113D01*
X141691518Y-114878113D01*
X141998340Y-115042630D01*
X142049860Y-115070255D01*
X142426784Y-115230250D01*
X142429522Y-115231129D01*
X142813931Y-115354549D01*
X142813935Y-115354550D01*
X142816657Y-115355424D01*
X142819447Y-115356048D01*
X142819452Y-115356049D01*
X143213477Y-115444125D01*
X143213488Y-115444127D01*
X143216271Y-115444749D01*
X143622335Y-115497487D01*
X144031509Y-115513206D01*
X144034371Y-115513056D01*
X144034372Y-115513056D01*
X144437566Y-115491926D01*
X144437573Y-115491925D01*
X144440422Y-115491776D01*
X144443245Y-115491369D01*
X144443247Y-115491369D01*
X144842889Y-115433780D01*
X144842896Y-115433779D01*
X144845711Y-115433373D01*
X145244038Y-115338478D01*
X145246736Y-115337570D01*
X145246743Y-115337568D01*
X145629414Y-115208785D01*
X145629420Y-115208783D01*
X145632126Y-115207872D01*
X146006779Y-115042630D01*
X146364914Y-114844113D01*
X146703583Y-114613954D01*
X147019998Y-114354047D01*
X147022036Y-114352038D01*
X147022043Y-114352031D01*
X147267161Y-114110311D01*
X147311555Y-114066533D01*
X147317261Y-114059781D01*
X147574008Y-113755963D01*
X147574013Y-113755957D01*
X147575854Y-113753778D01*
X147810719Y-113418356D01*
X148014217Y-113063027D01*
X148156815Y-112751567D01*
X148183485Y-112693316D01*
X148183488Y-112693307D01*
X148184674Y-112690718D01*
X148246654Y-112514715D01*
X148288147Y-112457106D01*
X148354199Y-112431075D01*
X148423840Y-112444887D01*
G37*
%TD.AperFunction*%
M02*
