%TF.GenerationSoftware,KiCad,Pcbnew,6.0.11+dfsg-1~bpo11+1*%
%TF.CreationDate,2023-03-01T10:40:06+08:00*%
%TF.ProjectId,MiniLFO v1.0 - Front,4d696e69-4c46-44f2-9076-312e30202d20,rev?*%
%TF.SameCoordinates,Original*%
%TF.FileFunction,Drillmap*%
%TF.FilePolarity,Positive*%
%FSLAX45Y45*%
G04 Gerber Fmt 4.5, Leading zero omitted, Abs format (unit mm)*
G04 Created by KiCad (PCBNEW 6.0.11+dfsg-1~bpo11+1) date 2023-03-01 10:40:06*
%MOMM*%
%LPD*%
G01*
G04 APERTURE LIST*
%ADD10C,0.100000*%
%ADD11C,0.200000*%
%ADD12C,0.300000*%
%ADD13C,0.320000*%
%ADD14C,0.600000*%
%ADD15C,0.700000*%
G04 APERTURE END LIST*
D10*
X14900000Y-4700000D02*
X13900000Y-4700000D01*
X14900000Y-17550000D02*
X14900000Y-4700000D01*
X13900000Y-17550000D02*
X14900000Y-17550000D01*
X13900000Y-4700000D02*
X13900000Y-17550000D01*
D11*
D12*
X14240000Y-14490000D02*
X14540000Y-14790000D01*
X14540000Y-14490000D02*
X14240000Y-14790000D01*
D13*
X14820000Y-5000000D02*
G75*
G03*
X14820000Y-5000000I-160000J0D01*
G01*
D11*
X14500000Y-5000000D02*
X14500000Y-5000000D01*
X14820000Y-5000000D02*
X14820000Y-5000000D01*
X14500000Y-5000000D02*
G75*
G03*
X14820000Y-5000000I160000J0D01*
G01*
X14820000Y-5000000D02*
G75*
G03*
X14500000Y-5000000I-160000J0D01*
G01*
D13*
X14820000Y-17250000D02*
G75*
G03*
X14820000Y-17250000I-160000J0D01*
G01*
D11*
X14500000Y-17250000D02*
X14500000Y-17250000D01*
X14820000Y-17250000D02*
X14820000Y-17250000D01*
X14500000Y-17250000D02*
G75*
G03*
X14820000Y-17250000I160000J0D01*
G01*
X14820000Y-17250000D02*
G75*
G03*
X14500000Y-17250000I-160000J0D01*
G01*
D14*
X14395000Y-6790000D02*
X14395000Y-7390000D01*
X14095000Y-7090000D02*
X14695000Y-7090000D01*
X14400000Y-15370000D02*
X14400000Y-15970000D01*
X14100000Y-15670000D02*
X14700000Y-15670000D01*
D15*
X14642490Y-9322490D02*
X14642490Y-8827510D01*
X14147510Y-8827510D01*
X14147510Y-9322490D01*
X14642490Y-9322490D01*
X14647490Y-11347490D02*
X14647490Y-10852510D01*
X14152510Y-10852510D01*
X14152510Y-11347490D01*
X14647490Y-11347490D01*
D11*
X14152619Y-17865476D02*
X14152619Y-17665476D01*
X14200238Y-17665476D01*
X14228809Y-17675000D01*
X14247857Y-17694048D01*
X14257381Y-17713095D01*
X14266905Y-17751190D01*
X14266905Y-17779762D01*
X14257381Y-17817857D01*
X14247857Y-17836905D01*
X14228809Y-17855952D01*
X14200238Y-17865476D01*
X14152619Y-17865476D01*
X14352619Y-17865476D02*
X14352619Y-17732143D01*
X14352619Y-17770238D02*
X14362143Y-17751190D01*
X14371667Y-17741667D01*
X14390714Y-17732143D01*
X14409762Y-17732143D01*
X14476428Y-17865476D02*
X14476428Y-17732143D01*
X14476428Y-17665476D02*
X14466905Y-17675000D01*
X14476428Y-17684524D01*
X14485952Y-17675000D01*
X14476428Y-17665476D01*
X14476428Y-17684524D01*
X14600238Y-17865476D02*
X14581190Y-17855952D01*
X14571667Y-17836905D01*
X14571667Y-17665476D01*
X14705000Y-17865476D02*
X14685952Y-17855952D01*
X14676428Y-17836905D01*
X14676428Y-17665476D01*
X14933571Y-17865476D02*
X14933571Y-17665476D01*
X15000238Y-17808333D01*
X15066905Y-17665476D01*
X15066905Y-17865476D01*
X15247857Y-17865476D02*
X15247857Y-17760714D01*
X15238333Y-17741667D01*
X15219286Y-17732143D01*
X15181190Y-17732143D01*
X15162143Y-17741667D01*
X15247857Y-17855952D02*
X15228809Y-17865476D01*
X15181190Y-17865476D01*
X15162143Y-17855952D01*
X15152619Y-17836905D01*
X15152619Y-17817857D01*
X15162143Y-17798810D01*
X15181190Y-17789286D01*
X15228809Y-17789286D01*
X15247857Y-17779762D01*
X15343095Y-17732143D02*
X15343095Y-17932143D01*
X15343095Y-17741667D02*
X15362143Y-17732143D01*
X15400238Y-17732143D01*
X15419286Y-17741667D01*
X15428809Y-17751190D01*
X15438333Y-17770238D01*
X15438333Y-17827381D01*
X15428809Y-17846429D01*
X15419286Y-17855952D01*
X15400238Y-17865476D01*
X15362143Y-17865476D01*
X15343095Y-17855952D01*
X15524048Y-17846429D02*
X15533571Y-17855952D01*
X15524048Y-17865476D01*
X15514524Y-17855952D01*
X15524048Y-17846429D01*
X15524048Y-17865476D01*
X15524048Y-17741667D02*
X15533571Y-17751190D01*
X15524048Y-17760714D01*
X15514524Y-17751190D01*
X15524048Y-17741667D01*
X15524048Y-17760714D01*
X13695000Y-18095000D02*
X13895000Y-18295000D01*
X13895000Y-18095000D02*
X13695000Y-18295000D01*
X14133571Y-18085476D02*
X14257381Y-18085476D01*
X14190714Y-18161667D01*
X14219286Y-18161667D01*
X14238333Y-18171190D01*
X14247857Y-18180714D01*
X14257381Y-18199762D01*
X14257381Y-18247381D01*
X14247857Y-18266429D01*
X14238333Y-18275952D01*
X14219286Y-18285476D01*
X14162143Y-18285476D01*
X14143095Y-18275952D01*
X14133571Y-18266429D01*
X14343095Y-18266429D02*
X14352619Y-18275952D01*
X14343095Y-18285476D01*
X14333571Y-18275952D01*
X14343095Y-18266429D01*
X14343095Y-18285476D01*
X14476428Y-18085476D02*
X14495476Y-18085476D01*
X14514524Y-18095000D01*
X14524048Y-18104524D01*
X14533571Y-18123571D01*
X14543095Y-18161667D01*
X14543095Y-18209286D01*
X14533571Y-18247381D01*
X14524048Y-18266429D01*
X14514524Y-18275952D01*
X14495476Y-18285476D01*
X14476428Y-18285476D01*
X14457381Y-18275952D01*
X14447857Y-18266429D01*
X14438333Y-18247381D01*
X14428809Y-18209286D01*
X14428809Y-18161667D01*
X14438333Y-18123571D01*
X14447857Y-18104524D01*
X14457381Y-18095000D01*
X14476428Y-18085476D01*
X14666905Y-18085476D02*
X14685952Y-18085476D01*
X14705000Y-18095000D01*
X14714524Y-18104524D01*
X14724048Y-18123571D01*
X14733571Y-18161667D01*
X14733571Y-18209286D01*
X14724048Y-18247381D01*
X14714524Y-18266429D01*
X14705000Y-18275952D01*
X14685952Y-18285476D01*
X14666905Y-18285476D01*
X14647857Y-18275952D01*
X14638333Y-18266429D01*
X14628809Y-18247381D01*
X14619286Y-18209286D01*
X14619286Y-18161667D01*
X14628809Y-18123571D01*
X14638333Y-18104524D01*
X14647857Y-18095000D01*
X14666905Y-18085476D01*
X14857381Y-18085476D02*
X14876428Y-18085476D01*
X14895476Y-18095000D01*
X14905000Y-18104524D01*
X14914524Y-18123571D01*
X14924048Y-18161667D01*
X14924048Y-18209286D01*
X14914524Y-18247381D01*
X14905000Y-18266429D01*
X14895476Y-18275952D01*
X14876428Y-18285476D01*
X14857381Y-18285476D01*
X14838333Y-18275952D01*
X14828809Y-18266429D01*
X14819286Y-18247381D01*
X14809762Y-18209286D01*
X14809762Y-18161667D01*
X14819286Y-18123571D01*
X14828809Y-18104524D01*
X14838333Y-18095000D01*
X14857381Y-18085476D01*
X15009762Y-18285476D02*
X15009762Y-18152143D01*
X15009762Y-18171190D02*
X15019286Y-18161667D01*
X15038333Y-18152143D01*
X15066905Y-18152143D01*
X15085952Y-18161667D01*
X15095476Y-18180714D01*
X15095476Y-18285476D01*
X15095476Y-18180714D02*
X15105000Y-18161667D01*
X15124048Y-18152143D01*
X15152619Y-18152143D01*
X15171667Y-18161667D01*
X15181190Y-18180714D01*
X15181190Y-18285476D01*
X15276428Y-18285476D02*
X15276428Y-18152143D01*
X15276428Y-18171190D02*
X15285952Y-18161667D01*
X15305000Y-18152143D01*
X15333571Y-18152143D01*
X15352619Y-18161667D01*
X15362143Y-18180714D01*
X15362143Y-18285476D01*
X15362143Y-18180714D02*
X15371667Y-18161667D01*
X15390714Y-18152143D01*
X15419286Y-18152143D01*
X15438333Y-18161667D01*
X15447857Y-18180714D01*
X15447857Y-18285476D01*
X15838333Y-18075952D02*
X15666905Y-18333095D01*
X16095476Y-18085476D02*
X16114524Y-18085476D01*
X16133571Y-18095000D01*
X16143095Y-18104524D01*
X16152619Y-18123571D01*
X16162143Y-18161667D01*
X16162143Y-18209286D01*
X16152619Y-18247381D01*
X16143095Y-18266429D01*
X16133571Y-18275952D01*
X16114524Y-18285476D01*
X16095476Y-18285476D01*
X16076428Y-18275952D01*
X16066905Y-18266429D01*
X16057381Y-18247381D01*
X16047857Y-18209286D01*
X16047857Y-18161667D01*
X16057381Y-18123571D01*
X16066905Y-18104524D01*
X16076428Y-18095000D01*
X16095476Y-18085476D01*
X16247857Y-18266429D02*
X16257381Y-18275952D01*
X16247857Y-18285476D01*
X16238333Y-18275952D01*
X16247857Y-18266429D01*
X16247857Y-18285476D01*
X16447857Y-18285476D02*
X16333571Y-18285476D01*
X16390714Y-18285476D02*
X16390714Y-18085476D01*
X16371667Y-18114048D01*
X16352619Y-18133095D01*
X16333571Y-18142619D01*
X16638333Y-18285476D02*
X16524048Y-18285476D01*
X16581190Y-18285476D02*
X16581190Y-18085476D01*
X16562143Y-18114048D01*
X16543095Y-18133095D01*
X16524048Y-18142619D01*
X16752619Y-18171190D02*
X16733571Y-18161667D01*
X16724048Y-18152143D01*
X16714524Y-18133095D01*
X16714524Y-18123571D01*
X16724048Y-18104524D01*
X16733571Y-18095000D01*
X16752619Y-18085476D01*
X16790714Y-18085476D01*
X16809762Y-18095000D01*
X16819286Y-18104524D01*
X16828810Y-18123571D01*
X16828810Y-18133095D01*
X16819286Y-18152143D01*
X16809762Y-18161667D01*
X16790714Y-18171190D01*
X16752619Y-18171190D01*
X16733571Y-18180714D01*
X16724048Y-18190238D01*
X16714524Y-18209286D01*
X16714524Y-18247381D01*
X16724048Y-18266429D01*
X16733571Y-18275952D01*
X16752619Y-18285476D01*
X16790714Y-18285476D01*
X16809762Y-18275952D01*
X16819286Y-18266429D01*
X16828810Y-18247381D01*
X16828810Y-18209286D01*
X16819286Y-18190238D01*
X16809762Y-18180714D01*
X16790714Y-18171190D01*
X17019286Y-18285476D02*
X16905000Y-18285476D01*
X16962143Y-18285476D02*
X16962143Y-18085476D01*
X16943095Y-18114048D01*
X16924048Y-18133095D01*
X16905000Y-18142619D01*
X17095476Y-18085476D02*
X17095476Y-18123571D01*
X17171667Y-18085476D02*
X17171667Y-18123571D01*
X17466905Y-18361667D02*
X17457381Y-18352143D01*
X17438333Y-18323571D01*
X17428810Y-18304524D01*
X17419286Y-18275952D01*
X17409762Y-18228333D01*
X17409762Y-18190238D01*
X17419286Y-18142619D01*
X17428810Y-18114048D01*
X17438333Y-18095000D01*
X17457381Y-18066429D01*
X17466905Y-18056905D01*
X17647857Y-18285476D02*
X17533571Y-18285476D01*
X17590714Y-18285476D02*
X17590714Y-18085476D01*
X17571667Y-18114048D01*
X17552619Y-18133095D01*
X17533571Y-18142619D01*
X17885952Y-18285476D02*
X17885952Y-18085476D01*
X17971667Y-18285476D02*
X17971667Y-18180714D01*
X17962143Y-18161667D01*
X17943095Y-18152143D01*
X17914524Y-18152143D01*
X17895476Y-18161667D01*
X17885952Y-18171190D01*
X18095476Y-18285476D02*
X18076429Y-18275952D01*
X18066905Y-18266429D01*
X18057381Y-18247381D01*
X18057381Y-18190238D01*
X18066905Y-18171190D01*
X18076429Y-18161667D01*
X18095476Y-18152143D01*
X18124048Y-18152143D01*
X18143095Y-18161667D01*
X18152619Y-18171190D01*
X18162143Y-18190238D01*
X18162143Y-18247381D01*
X18152619Y-18266429D01*
X18143095Y-18275952D01*
X18124048Y-18285476D01*
X18095476Y-18285476D01*
X18276429Y-18285476D02*
X18257381Y-18275952D01*
X18247857Y-18256905D01*
X18247857Y-18085476D01*
X18428810Y-18275952D02*
X18409762Y-18285476D01*
X18371667Y-18285476D01*
X18352619Y-18275952D01*
X18343095Y-18256905D01*
X18343095Y-18180714D01*
X18352619Y-18161667D01*
X18371667Y-18152143D01*
X18409762Y-18152143D01*
X18428810Y-18161667D01*
X18438333Y-18180714D01*
X18438333Y-18199762D01*
X18343095Y-18218810D01*
X18505000Y-18361667D02*
X18514524Y-18352143D01*
X18533571Y-18323571D01*
X18543095Y-18304524D01*
X18552619Y-18275952D01*
X18562143Y-18228333D01*
X18562143Y-18190238D01*
X18552619Y-18142619D01*
X18543095Y-18114048D01*
X18533571Y-18095000D01*
X18514524Y-18066429D01*
X18505000Y-18056905D01*
X13895000Y-18515000D02*
G75*
G03*
X13895000Y-18515000I-100000J0D01*
G01*
X14133571Y-18405476D02*
X14257381Y-18405476D01*
X14190714Y-18481667D01*
X14219286Y-18481667D01*
X14238333Y-18491190D01*
X14247857Y-18500714D01*
X14257381Y-18519762D01*
X14257381Y-18567381D01*
X14247857Y-18586429D01*
X14238333Y-18595952D01*
X14219286Y-18605476D01*
X14162143Y-18605476D01*
X14143095Y-18595952D01*
X14133571Y-18586429D01*
X14343095Y-18586429D02*
X14352619Y-18595952D01*
X14343095Y-18605476D01*
X14333571Y-18595952D01*
X14343095Y-18586429D01*
X14343095Y-18605476D01*
X14428809Y-18424524D02*
X14438333Y-18415000D01*
X14457381Y-18405476D01*
X14505000Y-18405476D01*
X14524048Y-18415000D01*
X14533571Y-18424524D01*
X14543095Y-18443571D01*
X14543095Y-18462619D01*
X14533571Y-18491190D01*
X14419286Y-18605476D01*
X14543095Y-18605476D01*
X14666905Y-18405476D02*
X14685952Y-18405476D01*
X14705000Y-18415000D01*
X14714524Y-18424524D01*
X14724048Y-18443571D01*
X14733571Y-18481667D01*
X14733571Y-18529286D01*
X14724048Y-18567381D01*
X14714524Y-18586429D01*
X14705000Y-18595952D01*
X14685952Y-18605476D01*
X14666905Y-18605476D01*
X14647857Y-18595952D01*
X14638333Y-18586429D01*
X14628809Y-18567381D01*
X14619286Y-18529286D01*
X14619286Y-18481667D01*
X14628809Y-18443571D01*
X14638333Y-18424524D01*
X14647857Y-18415000D01*
X14666905Y-18405476D01*
X14857381Y-18405476D02*
X14876428Y-18405476D01*
X14895476Y-18415000D01*
X14905000Y-18424524D01*
X14914524Y-18443571D01*
X14924048Y-18481667D01*
X14924048Y-18529286D01*
X14914524Y-18567381D01*
X14905000Y-18586429D01*
X14895476Y-18595952D01*
X14876428Y-18605476D01*
X14857381Y-18605476D01*
X14838333Y-18595952D01*
X14828809Y-18586429D01*
X14819286Y-18567381D01*
X14809762Y-18529286D01*
X14809762Y-18481667D01*
X14819286Y-18443571D01*
X14828809Y-18424524D01*
X14838333Y-18415000D01*
X14857381Y-18405476D01*
X15009762Y-18605476D02*
X15009762Y-18472143D01*
X15009762Y-18491190D02*
X15019286Y-18481667D01*
X15038333Y-18472143D01*
X15066905Y-18472143D01*
X15085952Y-18481667D01*
X15095476Y-18500714D01*
X15095476Y-18605476D01*
X15095476Y-18500714D02*
X15105000Y-18481667D01*
X15124048Y-18472143D01*
X15152619Y-18472143D01*
X15171667Y-18481667D01*
X15181190Y-18500714D01*
X15181190Y-18605476D01*
X15276428Y-18605476D02*
X15276428Y-18472143D01*
X15276428Y-18491190D02*
X15285952Y-18481667D01*
X15305000Y-18472143D01*
X15333571Y-18472143D01*
X15352619Y-18481667D01*
X15362143Y-18500714D01*
X15362143Y-18605476D01*
X15362143Y-18500714D02*
X15371667Y-18481667D01*
X15390714Y-18472143D01*
X15419286Y-18472143D01*
X15438333Y-18481667D01*
X15447857Y-18500714D01*
X15447857Y-18605476D01*
X15838333Y-18395952D02*
X15666905Y-18653095D01*
X16095476Y-18405476D02*
X16114524Y-18405476D01*
X16133571Y-18415000D01*
X16143095Y-18424524D01*
X16152619Y-18443571D01*
X16162143Y-18481667D01*
X16162143Y-18529286D01*
X16152619Y-18567381D01*
X16143095Y-18586429D01*
X16133571Y-18595952D01*
X16114524Y-18605476D01*
X16095476Y-18605476D01*
X16076428Y-18595952D01*
X16066905Y-18586429D01*
X16057381Y-18567381D01*
X16047857Y-18529286D01*
X16047857Y-18481667D01*
X16057381Y-18443571D01*
X16066905Y-18424524D01*
X16076428Y-18415000D01*
X16095476Y-18405476D01*
X16247857Y-18586429D02*
X16257381Y-18595952D01*
X16247857Y-18605476D01*
X16238333Y-18595952D01*
X16247857Y-18586429D01*
X16247857Y-18605476D01*
X16447857Y-18605476D02*
X16333571Y-18605476D01*
X16390714Y-18605476D02*
X16390714Y-18405476D01*
X16371667Y-18434048D01*
X16352619Y-18453095D01*
X16333571Y-18462619D01*
X16524048Y-18424524D02*
X16533571Y-18415000D01*
X16552619Y-18405476D01*
X16600238Y-18405476D01*
X16619286Y-18415000D01*
X16628809Y-18424524D01*
X16638333Y-18443571D01*
X16638333Y-18462619D01*
X16628809Y-18491190D01*
X16514524Y-18605476D01*
X16638333Y-18605476D01*
X16809762Y-18405476D02*
X16771667Y-18405476D01*
X16752619Y-18415000D01*
X16743095Y-18424524D01*
X16724048Y-18453095D01*
X16714524Y-18491190D01*
X16714524Y-18567381D01*
X16724048Y-18586429D01*
X16733571Y-18595952D01*
X16752619Y-18605476D01*
X16790714Y-18605476D01*
X16809762Y-18595952D01*
X16819286Y-18586429D01*
X16828810Y-18567381D01*
X16828810Y-18519762D01*
X16819286Y-18500714D01*
X16809762Y-18491190D01*
X16790714Y-18481667D01*
X16752619Y-18481667D01*
X16733571Y-18491190D01*
X16724048Y-18500714D01*
X16714524Y-18519762D01*
X16952619Y-18405476D02*
X16971667Y-18405476D01*
X16990714Y-18415000D01*
X17000238Y-18424524D01*
X17009762Y-18443571D01*
X17019286Y-18481667D01*
X17019286Y-18529286D01*
X17009762Y-18567381D01*
X17000238Y-18586429D01*
X16990714Y-18595952D01*
X16971667Y-18605476D01*
X16952619Y-18605476D01*
X16933571Y-18595952D01*
X16924048Y-18586429D01*
X16914524Y-18567381D01*
X16905000Y-18529286D01*
X16905000Y-18481667D01*
X16914524Y-18443571D01*
X16924048Y-18424524D01*
X16933571Y-18415000D01*
X16952619Y-18405476D01*
X17095476Y-18405476D02*
X17095476Y-18443571D01*
X17171667Y-18405476D02*
X17171667Y-18443571D01*
X17466905Y-18681667D02*
X17457381Y-18672143D01*
X17438333Y-18643571D01*
X17428810Y-18624524D01*
X17419286Y-18595952D01*
X17409762Y-18548333D01*
X17409762Y-18510238D01*
X17419286Y-18462619D01*
X17428810Y-18434048D01*
X17438333Y-18415000D01*
X17457381Y-18386429D01*
X17466905Y-18376905D01*
X17581190Y-18405476D02*
X17600238Y-18405476D01*
X17619286Y-18415000D01*
X17628810Y-18424524D01*
X17638333Y-18443571D01*
X17647857Y-18481667D01*
X17647857Y-18529286D01*
X17638333Y-18567381D01*
X17628810Y-18586429D01*
X17619286Y-18595952D01*
X17600238Y-18605476D01*
X17581190Y-18605476D01*
X17562143Y-18595952D01*
X17552619Y-18586429D01*
X17543095Y-18567381D01*
X17533571Y-18529286D01*
X17533571Y-18481667D01*
X17543095Y-18443571D01*
X17552619Y-18424524D01*
X17562143Y-18415000D01*
X17581190Y-18405476D01*
X17885952Y-18605476D02*
X17885952Y-18405476D01*
X17971667Y-18605476D02*
X17971667Y-18500714D01*
X17962143Y-18481667D01*
X17943095Y-18472143D01*
X17914524Y-18472143D01*
X17895476Y-18481667D01*
X17885952Y-18491190D01*
X18095476Y-18605476D02*
X18076429Y-18595952D01*
X18066905Y-18586429D01*
X18057381Y-18567381D01*
X18057381Y-18510238D01*
X18066905Y-18491190D01*
X18076429Y-18481667D01*
X18095476Y-18472143D01*
X18124048Y-18472143D01*
X18143095Y-18481667D01*
X18152619Y-18491190D01*
X18162143Y-18510238D01*
X18162143Y-18567381D01*
X18152619Y-18586429D01*
X18143095Y-18595952D01*
X18124048Y-18605476D01*
X18095476Y-18605476D01*
X18276429Y-18605476D02*
X18257381Y-18595952D01*
X18247857Y-18576905D01*
X18247857Y-18405476D01*
X18428810Y-18595952D02*
X18409762Y-18605476D01*
X18371667Y-18605476D01*
X18352619Y-18595952D01*
X18343095Y-18576905D01*
X18343095Y-18500714D01*
X18352619Y-18481667D01*
X18371667Y-18472143D01*
X18409762Y-18472143D01*
X18428810Y-18481667D01*
X18438333Y-18500714D01*
X18438333Y-18519762D01*
X18343095Y-18538810D01*
X18514524Y-18595952D02*
X18533571Y-18605476D01*
X18571667Y-18605476D01*
X18590714Y-18595952D01*
X18600238Y-18576905D01*
X18600238Y-18567381D01*
X18590714Y-18548333D01*
X18571667Y-18538810D01*
X18543095Y-18538810D01*
X18524048Y-18529286D01*
X18514524Y-18510238D01*
X18514524Y-18500714D01*
X18524048Y-18481667D01*
X18543095Y-18472143D01*
X18571667Y-18472143D01*
X18590714Y-18481667D01*
X18838333Y-18529286D02*
X18990714Y-18529286D01*
X18914524Y-18605476D02*
X18914524Y-18453095D01*
X19228810Y-18424524D02*
X19238333Y-18415000D01*
X19257381Y-18405476D01*
X19305000Y-18405476D01*
X19324048Y-18415000D01*
X19333571Y-18424524D01*
X19343095Y-18443571D01*
X19343095Y-18462619D01*
X19333571Y-18491190D01*
X19219286Y-18605476D01*
X19343095Y-18605476D01*
X19571667Y-18595952D02*
X19590714Y-18605476D01*
X19628810Y-18605476D01*
X19647857Y-18595952D01*
X19657381Y-18576905D01*
X19657381Y-18567381D01*
X19647857Y-18548333D01*
X19628810Y-18538810D01*
X19600238Y-18538810D01*
X19581190Y-18529286D01*
X19571667Y-18510238D01*
X19571667Y-18500714D01*
X19581190Y-18481667D01*
X19600238Y-18472143D01*
X19628810Y-18472143D01*
X19647857Y-18481667D01*
X19771667Y-18605476D02*
X19752619Y-18595952D01*
X19743095Y-18576905D01*
X19743095Y-18405476D01*
X19876429Y-18605476D02*
X19857381Y-18595952D01*
X19847857Y-18586429D01*
X19838333Y-18567381D01*
X19838333Y-18510238D01*
X19847857Y-18491190D01*
X19857381Y-18481667D01*
X19876429Y-18472143D01*
X19905000Y-18472143D01*
X19924048Y-18481667D01*
X19933571Y-18491190D01*
X19943095Y-18510238D01*
X19943095Y-18567381D01*
X19933571Y-18586429D01*
X19924048Y-18595952D01*
X19905000Y-18605476D01*
X19876429Y-18605476D01*
X20000238Y-18472143D02*
X20076429Y-18472143D01*
X20028810Y-18405476D02*
X20028810Y-18576905D01*
X20038333Y-18595952D01*
X20057381Y-18605476D01*
X20076429Y-18605476D01*
X20133571Y-18595952D02*
X20152619Y-18605476D01*
X20190714Y-18605476D01*
X20209762Y-18595952D01*
X20219286Y-18576905D01*
X20219286Y-18567381D01*
X20209762Y-18548333D01*
X20190714Y-18538810D01*
X20162143Y-18538810D01*
X20143095Y-18529286D01*
X20133571Y-18510238D01*
X20133571Y-18500714D01*
X20143095Y-18481667D01*
X20162143Y-18472143D01*
X20190714Y-18472143D01*
X20209762Y-18481667D01*
X20285952Y-18681667D02*
X20295476Y-18672143D01*
X20314524Y-18643571D01*
X20324048Y-18624524D01*
X20333571Y-18595952D01*
X20343095Y-18548333D01*
X20343095Y-18510238D01*
X20333571Y-18462619D01*
X20324048Y-18434048D01*
X20314524Y-18415000D01*
X20295476Y-18386429D01*
X20285952Y-18376905D01*
X13795000Y-18735000D02*
X13795000Y-18935000D01*
X13695000Y-18835000D02*
X13895000Y-18835000D01*
X14238333Y-18725476D02*
X14200238Y-18725476D01*
X14181190Y-18735000D01*
X14171667Y-18744524D01*
X14152619Y-18773095D01*
X14143095Y-18811190D01*
X14143095Y-18887381D01*
X14152619Y-18906429D01*
X14162143Y-18915952D01*
X14181190Y-18925476D01*
X14219286Y-18925476D01*
X14238333Y-18915952D01*
X14247857Y-18906429D01*
X14257381Y-18887381D01*
X14257381Y-18839762D01*
X14247857Y-18820714D01*
X14238333Y-18811190D01*
X14219286Y-18801667D01*
X14181190Y-18801667D01*
X14162143Y-18811190D01*
X14152619Y-18820714D01*
X14143095Y-18839762D01*
X14343095Y-18906429D02*
X14352619Y-18915952D01*
X14343095Y-18925476D01*
X14333571Y-18915952D01*
X14343095Y-18906429D01*
X14343095Y-18925476D01*
X14476428Y-18725476D02*
X14495476Y-18725476D01*
X14514524Y-18735000D01*
X14524048Y-18744524D01*
X14533571Y-18763571D01*
X14543095Y-18801667D01*
X14543095Y-18849286D01*
X14533571Y-18887381D01*
X14524048Y-18906429D01*
X14514524Y-18915952D01*
X14495476Y-18925476D01*
X14476428Y-18925476D01*
X14457381Y-18915952D01*
X14447857Y-18906429D01*
X14438333Y-18887381D01*
X14428809Y-18849286D01*
X14428809Y-18801667D01*
X14438333Y-18763571D01*
X14447857Y-18744524D01*
X14457381Y-18735000D01*
X14476428Y-18725476D01*
X14666905Y-18725476D02*
X14685952Y-18725476D01*
X14705000Y-18735000D01*
X14714524Y-18744524D01*
X14724048Y-18763571D01*
X14733571Y-18801667D01*
X14733571Y-18849286D01*
X14724048Y-18887381D01*
X14714524Y-18906429D01*
X14705000Y-18915952D01*
X14685952Y-18925476D01*
X14666905Y-18925476D01*
X14647857Y-18915952D01*
X14638333Y-18906429D01*
X14628809Y-18887381D01*
X14619286Y-18849286D01*
X14619286Y-18801667D01*
X14628809Y-18763571D01*
X14638333Y-18744524D01*
X14647857Y-18735000D01*
X14666905Y-18725476D01*
X14857381Y-18725476D02*
X14876428Y-18725476D01*
X14895476Y-18735000D01*
X14905000Y-18744524D01*
X14914524Y-18763571D01*
X14924048Y-18801667D01*
X14924048Y-18849286D01*
X14914524Y-18887381D01*
X14905000Y-18906429D01*
X14895476Y-18915952D01*
X14876428Y-18925476D01*
X14857381Y-18925476D01*
X14838333Y-18915952D01*
X14828809Y-18906429D01*
X14819286Y-18887381D01*
X14809762Y-18849286D01*
X14809762Y-18801667D01*
X14819286Y-18763571D01*
X14828809Y-18744524D01*
X14838333Y-18735000D01*
X14857381Y-18725476D01*
X15009762Y-18925476D02*
X15009762Y-18792143D01*
X15009762Y-18811190D02*
X15019286Y-18801667D01*
X15038333Y-18792143D01*
X15066905Y-18792143D01*
X15085952Y-18801667D01*
X15095476Y-18820714D01*
X15095476Y-18925476D01*
X15095476Y-18820714D02*
X15105000Y-18801667D01*
X15124048Y-18792143D01*
X15152619Y-18792143D01*
X15171667Y-18801667D01*
X15181190Y-18820714D01*
X15181190Y-18925476D01*
X15276428Y-18925476D02*
X15276428Y-18792143D01*
X15276428Y-18811190D02*
X15285952Y-18801667D01*
X15305000Y-18792143D01*
X15333571Y-18792143D01*
X15352619Y-18801667D01*
X15362143Y-18820714D01*
X15362143Y-18925476D01*
X15362143Y-18820714D02*
X15371667Y-18801667D01*
X15390714Y-18792143D01*
X15419286Y-18792143D01*
X15438333Y-18801667D01*
X15447857Y-18820714D01*
X15447857Y-18925476D01*
X15838333Y-18715952D02*
X15666905Y-18973095D01*
X16095476Y-18725476D02*
X16114524Y-18725476D01*
X16133571Y-18735000D01*
X16143095Y-18744524D01*
X16152619Y-18763571D01*
X16162143Y-18801667D01*
X16162143Y-18849286D01*
X16152619Y-18887381D01*
X16143095Y-18906429D01*
X16133571Y-18915952D01*
X16114524Y-18925476D01*
X16095476Y-18925476D01*
X16076428Y-18915952D01*
X16066905Y-18906429D01*
X16057381Y-18887381D01*
X16047857Y-18849286D01*
X16047857Y-18801667D01*
X16057381Y-18763571D01*
X16066905Y-18744524D01*
X16076428Y-18735000D01*
X16095476Y-18725476D01*
X16247857Y-18906429D02*
X16257381Y-18915952D01*
X16247857Y-18925476D01*
X16238333Y-18915952D01*
X16247857Y-18906429D01*
X16247857Y-18925476D01*
X16333571Y-18744524D02*
X16343095Y-18735000D01*
X16362143Y-18725476D01*
X16409762Y-18725476D01*
X16428809Y-18735000D01*
X16438333Y-18744524D01*
X16447857Y-18763571D01*
X16447857Y-18782619D01*
X16438333Y-18811190D01*
X16324048Y-18925476D01*
X16447857Y-18925476D01*
X16514524Y-18725476D02*
X16638333Y-18725476D01*
X16571667Y-18801667D01*
X16600238Y-18801667D01*
X16619286Y-18811190D01*
X16628809Y-18820714D01*
X16638333Y-18839762D01*
X16638333Y-18887381D01*
X16628809Y-18906429D01*
X16619286Y-18915952D01*
X16600238Y-18925476D01*
X16543095Y-18925476D01*
X16524048Y-18915952D01*
X16514524Y-18906429D01*
X16809762Y-18725476D02*
X16771667Y-18725476D01*
X16752619Y-18735000D01*
X16743095Y-18744524D01*
X16724048Y-18773095D01*
X16714524Y-18811190D01*
X16714524Y-18887381D01*
X16724048Y-18906429D01*
X16733571Y-18915952D01*
X16752619Y-18925476D01*
X16790714Y-18925476D01*
X16809762Y-18915952D01*
X16819286Y-18906429D01*
X16828810Y-18887381D01*
X16828810Y-18839762D01*
X16819286Y-18820714D01*
X16809762Y-18811190D01*
X16790714Y-18801667D01*
X16752619Y-18801667D01*
X16733571Y-18811190D01*
X16724048Y-18820714D01*
X16714524Y-18839762D01*
X16905000Y-18744524D02*
X16914524Y-18735000D01*
X16933571Y-18725476D01*
X16981190Y-18725476D01*
X17000238Y-18735000D01*
X17009762Y-18744524D01*
X17019286Y-18763571D01*
X17019286Y-18782619D01*
X17009762Y-18811190D01*
X16895476Y-18925476D01*
X17019286Y-18925476D01*
X17095476Y-18725476D02*
X17095476Y-18763571D01*
X17171667Y-18725476D02*
X17171667Y-18763571D01*
X17466905Y-19001667D02*
X17457381Y-18992143D01*
X17438333Y-18963571D01*
X17428810Y-18944524D01*
X17419286Y-18915952D01*
X17409762Y-18868333D01*
X17409762Y-18830238D01*
X17419286Y-18782619D01*
X17428810Y-18754048D01*
X17438333Y-18735000D01*
X17457381Y-18706429D01*
X17466905Y-18696905D01*
X17533571Y-18744524D02*
X17543095Y-18735000D01*
X17562143Y-18725476D01*
X17609762Y-18725476D01*
X17628810Y-18735000D01*
X17638333Y-18744524D01*
X17647857Y-18763571D01*
X17647857Y-18782619D01*
X17638333Y-18811190D01*
X17524048Y-18925476D01*
X17647857Y-18925476D01*
X17885952Y-18925476D02*
X17885952Y-18725476D01*
X17971667Y-18925476D02*
X17971667Y-18820714D01*
X17962143Y-18801667D01*
X17943095Y-18792143D01*
X17914524Y-18792143D01*
X17895476Y-18801667D01*
X17885952Y-18811190D01*
X18095476Y-18925476D02*
X18076429Y-18915952D01*
X18066905Y-18906429D01*
X18057381Y-18887381D01*
X18057381Y-18830238D01*
X18066905Y-18811190D01*
X18076429Y-18801667D01*
X18095476Y-18792143D01*
X18124048Y-18792143D01*
X18143095Y-18801667D01*
X18152619Y-18811190D01*
X18162143Y-18830238D01*
X18162143Y-18887381D01*
X18152619Y-18906429D01*
X18143095Y-18915952D01*
X18124048Y-18925476D01*
X18095476Y-18925476D01*
X18276429Y-18925476D02*
X18257381Y-18915952D01*
X18247857Y-18896905D01*
X18247857Y-18725476D01*
X18428810Y-18915952D02*
X18409762Y-18925476D01*
X18371667Y-18925476D01*
X18352619Y-18915952D01*
X18343095Y-18896905D01*
X18343095Y-18820714D01*
X18352619Y-18801667D01*
X18371667Y-18792143D01*
X18409762Y-18792143D01*
X18428810Y-18801667D01*
X18438333Y-18820714D01*
X18438333Y-18839762D01*
X18343095Y-18858810D01*
X18514524Y-18915952D02*
X18533571Y-18925476D01*
X18571667Y-18925476D01*
X18590714Y-18915952D01*
X18600238Y-18896905D01*
X18600238Y-18887381D01*
X18590714Y-18868333D01*
X18571667Y-18858810D01*
X18543095Y-18858810D01*
X18524048Y-18849286D01*
X18514524Y-18830238D01*
X18514524Y-18820714D01*
X18524048Y-18801667D01*
X18543095Y-18792143D01*
X18571667Y-18792143D01*
X18590714Y-18801667D01*
X18666905Y-19001667D02*
X18676429Y-18992143D01*
X18695476Y-18963571D01*
X18705000Y-18944524D01*
X18714524Y-18915952D01*
X18724048Y-18868333D01*
X18724048Y-18830238D01*
X18714524Y-18782619D01*
X18705000Y-18754048D01*
X18695476Y-18735000D01*
X18676429Y-18706429D01*
X18666905Y-18696905D01*
X13865711Y-19225711D02*
X13865711Y-19084289D01*
X13724289Y-19084289D01*
X13724289Y-19225711D01*
X13865711Y-19225711D01*
X14133571Y-19045476D02*
X14266905Y-19045476D01*
X14181190Y-19245476D01*
X14343095Y-19226429D02*
X14352619Y-19235952D01*
X14343095Y-19245476D01*
X14333571Y-19235952D01*
X14343095Y-19226429D01*
X14343095Y-19245476D01*
X14476428Y-19045476D02*
X14495476Y-19045476D01*
X14514524Y-19055000D01*
X14524048Y-19064524D01*
X14533571Y-19083571D01*
X14543095Y-19121667D01*
X14543095Y-19169286D01*
X14533571Y-19207381D01*
X14524048Y-19226429D01*
X14514524Y-19235952D01*
X14495476Y-19245476D01*
X14476428Y-19245476D01*
X14457381Y-19235952D01*
X14447857Y-19226429D01*
X14438333Y-19207381D01*
X14428809Y-19169286D01*
X14428809Y-19121667D01*
X14438333Y-19083571D01*
X14447857Y-19064524D01*
X14457381Y-19055000D01*
X14476428Y-19045476D01*
X14666905Y-19045476D02*
X14685952Y-19045476D01*
X14705000Y-19055000D01*
X14714524Y-19064524D01*
X14724048Y-19083571D01*
X14733571Y-19121667D01*
X14733571Y-19169286D01*
X14724048Y-19207381D01*
X14714524Y-19226429D01*
X14705000Y-19235952D01*
X14685952Y-19245476D01*
X14666905Y-19245476D01*
X14647857Y-19235952D01*
X14638333Y-19226429D01*
X14628809Y-19207381D01*
X14619286Y-19169286D01*
X14619286Y-19121667D01*
X14628809Y-19083571D01*
X14638333Y-19064524D01*
X14647857Y-19055000D01*
X14666905Y-19045476D01*
X14857381Y-19045476D02*
X14876428Y-19045476D01*
X14895476Y-19055000D01*
X14905000Y-19064524D01*
X14914524Y-19083571D01*
X14924048Y-19121667D01*
X14924048Y-19169286D01*
X14914524Y-19207381D01*
X14905000Y-19226429D01*
X14895476Y-19235952D01*
X14876428Y-19245476D01*
X14857381Y-19245476D01*
X14838333Y-19235952D01*
X14828809Y-19226429D01*
X14819286Y-19207381D01*
X14809762Y-19169286D01*
X14809762Y-19121667D01*
X14819286Y-19083571D01*
X14828809Y-19064524D01*
X14838333Y-19055000D01*
X14857381Y-19045476D01*
X15009762Y-19245476D02*
X15009762Y-19112143D01*
X15009762Y-19131190D02*
X15019286Y-19121667D01*
X15038333Y-19112143D01*
X15066905Y-19112143D01*
X15085952Y-19121667D01*
X15095476Y-19140714D01*
X15095476Y-19245476D01*
X15095476Y-19140714D02*
X15105000Y-19121667D01*
X15124048Y-19112143D01*
X15152619Y-19112143D01*
X15171667Y-19121667D01*
X15181190Y-19140714D01*
X15181190Y-19245476D01*
X15276428Y-19245476D02*
X15276428Y-19112143D01*
X15276428Y-19131190D02*
X15285952Y-19121667D01*
X15305000Y-19112143D01*
X15333571Y-19112143D01*
X15352619Y-19121667D01*
X15362143Y-19140714D01*
X15362143Y-19245476D01*
X15362143Y-19140714D02*
X15371667Y-19121667D01*
X15390714Y-19112143D01*
X15419286Y-19112143D01*
X15438333Y-19121667D01*
X15447857Y-19140714D01*
X15447857Y-19245476D01*
X15838333Y-19035952D02*
X15666905Y-19293095D01*
X16095476Y-19045476D02*
X16114524Y-19045476D01*
X16133571Y-19055000D01*
X16143095Y-19064524D01*
X16152619Y-19083571D01*
X16162143Y-19121667D01*
X16162143Y-19169286D01*
X16152619Y-19207381D01*
X16143095Y-19226429D01*
X16133571Y-19235952D01*
X16114524Y-19245476D01*
X16095476Y-19245476D01*
X16076428Y-19235952D01*
X16066905Y-19226429D01*
X16057381Y-19207381D01*
X16047857Y-19169286D01*
X16047857Y-19121667D01*
X16057381Y-19083571D01*
X16066905Y-19064524D01*
X16076428Y-19055000D01*
X16095476Y-19045476D01*
X16247857Y-19226429D02*
X16257381Y-19235952D01*
X16247857Y-19245476D01*
X16238333Y-19235952D01*
X16247857Y-19226429D01*
X16247857Y-19245476D01*
X16333571Y-19064524D02*
X16343095Y-19055000D01*
X16362143Y-19045476D01*
X16409762Y-19045476D01*
X16428809Y-19055000D01*
X16438333Y-19064524D01*
X16447857Y-19083571D01*
X16447857Y-19102619D01*
X16438333Y-19131190D01*
X16324048Y-19245476D01*
X16447857Y-19245476D01*
X16514524Y-19045476D02*
X16647857Y-19045476D01*
X16562143Y-19245476D01*
X16819286Y-19045476D02*
X16724048Y-19045476D01*
X16714524Y-19140714D01*
X16724048Y-19131190D01*
X16743095Y-19121667D01*
X16790714Y-19121667D01*
X16809762Y-19131190D01*
X16819286Y-19140714D01*
X16828810Y-19159762D01*
X16828810Y-19207381D01*
X16819286Y-19226429D01*
X16809762Y-19235952D01*
X16790714Y-19245476D01*
X16743095Y-19245476D01*
X16724048Y-19235952D01*
X16714524Y-19226429D01*
X17000238Y-19045476D02*
X16962143Y-19045476D01*
X16943095Y-19055000D01*
X16933571Y-19064524D01*
X16914524Y-19093095D01*
X16905000Y-19131190D01*
X16905000Y-19207381D01*
X16914524Y-19226429D01*
X16924048Y-19235952D01*
X16943095Y-19245476D01*
X16981190Y-19245476D01*
X17000238Y-19235952D01*
X17009762Y-19226429D01*
X17019286Y-19207381D01*
X17019286Y-19159762D01*
X17009762Y-19140714D01*
X17000238Y-19131190D01*
X16981190Y-19121667D01*
X16943095Y-19121667D01*
X16924048Y-19131190D01*
X16914524Y-19140714D01*
X16905000Y-19159762D01*
X17095476Y-19045476D02*
X17095476Y-19083571D01*
X17171667Y-19045476D02*
X17171667Y-19083571D01*
X17466905Y-19321667D02*
X17457381Y-19312143D01*
X17438333Y-19283571D01*
X17428810Y-19264524D01*
X17419286Y-19235952D01*
X17409762Y-19188333D01*
X17409762Y-19150238D01*
X17419286Y-19102619D01*
X17428810Y-19074048D01*
X17438333Y-19055000D01*
X17457381Y-19026429D01*
X17466905Y-19016905D01*
X17533571Y-19064524D02*
X17543095Y-19055000D01*
X17562143Y-19045476D01*
X17609762Y-19045476D01*
X17628810Y-19055000D01*
X17638333Y-19064524D01*
X17647857Y-19083571D01*
X17647857Y-19102619D01*
X17638333Y-19131190D01*
X17524048Y-19245476D01*
X17647857Y-19245476D01*
X17885952Y-19245476D02*
X17885952Y-19045476D01*
X17971667Y-19245476D02*
X17971667Y-19140714D01*
X17962143Y-19121667D01*
X17943095Y-19112143D01*
X17914524Y-19112143D01*
X17895476Y-19121667D01*
X17885952Y-19131190D01*
X18095476Y-19245476D02*
X18076429Y-19235952D01*
X18066905Y-19226429D01*
X18057381Y-19207381D01*
X18057381Y-19150238D01*
X18066905Y-19131190D01*
X18076429Y-19121667D01*
X18095476Y-19112143D01*
X18124048Y-19112143D01*
X18143095Y-19121667D01*
X18152619Y-19131190D01*
X18162143Y-19150238D01*
X18162143Y-19207381D01*
X18152619Y-19226429D01*
X18143095Y-19235952D01*
X18124048Y-19245476D01*
X18095476Y-19245476D01*
X18276429Y-19245476D02*
X18257381Y-19235952D01*
X18247857Y-19216905D01*
X18247857Y-19045476D01*
X18428810Y-19235952D02*
X18409762Y-19245476D01*
X18371667Y-19245476D01*
X18352619Y-19235952D01*
X18343095Y-19216905D01*
X18343095Y-19140714D01*
X18352619Y-19121667D01*
X18371667Y-19112143D01*
X18409762Y-19112143D01*
X18428810Y-19121667D01*
X18438333Y-19140714D01*
X18438333Y-19159762D01*
X18343095Y-19178810D01*
X18514524Y-19235952D02*
X18533571Y-19245476D01*
X18571667Y-19245476D01*
X18590714Y-19235952D01*
X18600238Y-19216905D01*
X18600238Y-19207381D01*
X18590714Y-19188333D01*
X18571667Y-19178810D01*
X18543095Y-19178810D01*
X18524048Y-19169286D01*
X18514524Y-19150238D01*
X18514524Y-19140714D01*
X18524048Y-19121667D01*
X18543095Y-19112143D01*
X18571667Y-19112143D01*
X18590714Y-19121667D01*
X18666905Y-19321667D02*
X18676429Y-19312143D01*
X18695476Y-19283571D01*
X18705000Y-19264524D01*
X18714524Y-19235952D01*
X18724048Y-19188333D01*
X18724048Y-19150238D01*
X18714524Y-19102619D01*
X18705000Y-19074048D01*
X18695476Y-19055000D01*
X18676429Y-19026429D01*
X18666905Y-19016905D01*
M02*
