<?xml version="1.0" standalone="no"?>
 <!DOCTYPE svg PUBLIC "-//W3C//DTD SVG 1.1//EN" 
 "http://www.w3.org/Graphics/SVG/1.1/DTD/svg11.dtd"> 
<svg
  xmlns:svg="http://www.w3.org/2000/svg"
  xmlns="http://www.w3.org/2000/svg"
  xmlns:xlink="http://www.w3.org/1999/xlink"
  version="1.1"
  width="29.700220cm" height="21.000720cm" viewBox="0 0 297002200 210007200">
<title>SVG Picture created as MiniLFO-B_Silkscreen.svg date 2023/02/04 10:57:40 </title>
  <desc>Picture generated by PCBNEW </desc>
<g style="fill:#000000; fill-opacity:1.000000;stroke:#000000; stroke-opacity:1.000000;
stroke-linecap:round; stroke-linejoin:round;"
 transform="translate(0 0) scale(1 1)">
</g>
<g style="fill:#000000; fill-opacity:0.0; 
stroke:#000000; stroke-width:0.000000; stroke-opacity:1; 
stroke-linecap:round; stroke-linejoin:round;">
</g>
<g style="fill:#000000; fill-opacity:0.0; 
stroke:#000000; stroke-width:150000.000000; stroke-opacity:1; 
stroke-linecap:round; stroke-linejoin:round;">
<text x="138860000.000000" y="147650000.000000"
transform="scale(-1 1) translate(-277720000.000000 0)"
textLength="1519286.000000" font-size="1333333.000000" lengthAdjust="spacingAndGlyphs"
text-anchor="middle" opacity="0">J1</text>
<g class="stroked-text"><desc>J1</desc>
<path d="M139193333 146602380
L139193333 147316666
L139240952 147459523
L139336190 147554761
L139479047 147602380
L139574285 147602380
" />
<path d="M138193333 147602380
L138764761 147602380
" />
<path d="M138479047 147602380
L138479047 146602380
L138574285 146745238
L138669523 146840476
L138764761 146888095
" />
</g></g>
<g style="fill:#000000; fill-opacity:0.0; 
stroke:#000000; stroke-width:120000.000000; stroke-opacity:1; 
stroke-linecap:round; stroke-linejoin:round;">
<path d="M130420000 138260000
L131730000 138260000
" />
<path d="M129030000 140790000
L130030000 141290000
" />
<path d="M131730000 127220000
L131730000 134160000
" />
<path d="M138230000 127220000
L131730000 127220000
" />
<path d="M138230000 145200000
L138230000 127220000
" />
<path d="M139540000 146500000
L139540000 125920000
" />
<path d="M130420000 146500000
L139540000 146500000
" />
</g>
<g style="fill:#000000; fill-opacity:1.0; 
stroke:#000000; stroke-width:1.000000; stroke-opacity:1; 
stroke-linecap:round; stroke-linejoin:round;">
<circle cx="131730000.000000" cy="134160000.000000" r="60000.000000" /> 
</g>
<g style="fill:#000000; fill-opacity:1.0; 
stroke:#000000; stroke-width:120000.000000; stroke-opacity:1; 
stroke-linecap:round; stroke-linejoin:round;">
</g>
<g style="fill:#000000; fill-opacity:0.0; 
stroke:#000000; stroke-width:120000.000000; stroke-opacity:1; 
stroke-linecap:round; stroke-linejoin:round;">
<path d="M131730000 145200000
L138230000 145200000
" />
<path d="M129030000 141790000
L129030000 140790000
" />
<path d="M131730000 134160000
L130420000 134160000
" />
<path d="M139540000 125920000
L130420000 125920000
" />
<path d="M130420000 125920000
L130420000 146500000
" />
<path d="M130030000 141290000
L129030000 141790000
" />
<path d="M131730000 138260000
L131730000 145200000
" />
<g >
</g>
<g >
</g>
<g >
</g>
<g >
</g>
<g >
</g>
<g >
</g>
<g >
</g>
<g >
</g>
<g >
</g>
<g >
</g>
<g >
</g>
<g >
</g>
<g >
</g>
<g >
</g>
</g> 
</svg>
