<?xml version="1.0" standalone="no"?>
 <!DOCTYPE svg PUBLIC "-//W3C//DTD SVG 1.1//EN" 
 "http://www.w3.org/Graphics/SVG/1.1/DTD/svg11.dtd"> 
<svg
  xmlns:svg="http://www.w3.org/2000/svg"
  xmlns="http://www.w3.org/2000/svg"
  xmlns:xlink="http://www.w3.org/1999/xlink"
  version="1.1"
  width="29.700220cm" height="21.000720cm" viewBox="0 0 297002200 210007200">
<title>SVG Picture created as MiniLFO-F_Silkscreen.svg date 2023/02/04 10:57:40 </title>
  <desc>Picture generated by PCBNEW </desc>
<g style="fill:#000000; fill-opacity:1.000000;stroke:#000000; stroke-opacity:1.000000;
stroke-linecap:round; stroke-linejoin:round;"
 transform="translate(0 0) scale(1 1)">
</g>
<g style="fill:#000000; fill-opacity:0.0; 
stroke:#000000; stroke-width:0.000000; stroke-opacity:1; 
stroke-linecap:round; stroke-linejoin:round;">
</g>
<g style="fill:#000000; fill-opacity:0.0; 
stroke:#000000; stroke-width:150000.000000; stroke-opacity:1; 
stroke-linecap:round; stroke-linejoin:round;">
<g transform="rotate(-90.000000 135050000.000000 70050000.000000)">
<text x="135050000.000000" y="70550000.000000"
textLength="8769048.000000" font-size="1333333.000000" lengthAdjust="spacingAndGlyphs"
text-anchor="middle" opacity="0">RANGE_SW1</text>
</g>
<g class="stroked-text"><desc>RANGE_SW1</desc>
<path d="M135502380 73550000
L135026190 73883333
" />
<path d="M135502380 74121428
L134502380 74121428
L134502380 73740476
L134550000 73645238
L134597619 73597619
L134692857 73550000
L134835714 73550000
L134930952 73597619
L134978571 73645238
L135026190 73740476
L135026190 74121428
" />
<path d="M135216666 73169047
L135216666 72692857
" />
<path d="M135502380 73264285
L134502380 72930952
L135502380 72597619
" />
<path d="M135502380 72264285
L134502380 72264285
L135502380 71692857
L134502380 71692857
" />
<path d="M134550000 70692857
L134502380 70788095
L134502380 70930952
L134550000 71073809
L134645238 71169047
L134740476 71216666
L134930952 71264285
L135073809 71264285
L135264285 71216666
L135359523 71169047
L135454761 71073809
L135502380 70930952
L135502380 70835714
L135454761 70692857
L135407142 70645238
L135073809 70645238
L135073809 70835714
" />
<path d="M134978571 70216666
L134978571 69883333
" />
<path d="M135502380 69740476
L135502380 70216666
L134502380 70216666
L134502380 69740476
" />
<path d="M135597619 69550000
L135597619 68788095
" />
<path d="M135454761 68597619
L135502380 68454761
L135502380 68216666
L135454761 68121428
L135407142 68073809
L135311904 68026190
L135216666 68026190
L135121428 68073809
L135073809 68121428
L135026190 68216666
L134978571 68407142
L134930952 68502380
L134883333 68550000
L134788095 68597619
L134692857 68597619
L134597619 68550000
L134550000 68502380
L134502380 68407142
L134502380 68169047
L134550000 68026190
" />
<path d="M134502380 67692857
L135502380 67454761
L134788095 67264285
L135502380 67073809
L134502380 66835714
" />
<path d="M135502380 65930952
L135502380 66502380
" />
<path d="M135502380 66216666
L134502380 66216666
L134645238 66311904
L134740476 66407142
L134788095 66502380
" />
</g><g transform="rotate(-90.000000 132650000.000000 143750000.000000)">
<text x="132650000.000000" y="144250000.000000"
textLength="2147381.000000" font-size="1333333.000000" lengthAdjust="spacingAndGlyphs"
text-anchor="middle" opacity="0">C6</text>
</g>
<g class="stroked-text"><desc>C6</desc>
<path d="M133007142 143916666
L133054761 143964285
L133102380 144107142
L133102380 144202380
L133054761 144345238
L132959523 144440476
L132864285 144488095
L132673809 144535714
L132530952 144535714
L132340476 144488095
L132245238 144440476
L132150000 144345238
L132102380 144202380
L132102380 144107142
L132150000 143964285
L132197619 143916666
" />
<path d="M132102380 143059523
L132102380 143250000
L132150000 143345238
L132197619 143392857
L132340476 143488095
L132530952 143535714
L132911904 143535714
L133007142 143488095
L133054761 143440476
L133102380 143345238
L133102380 143154761
L133054761 143059523
L133007142 143011904
L132911904 142964285
L132673809 142964285
L132578571 143011904
L132530952 143059523
L132483333 143154761
L132483333 143345238
L132530952 143440476
L132578571 143488095
L132673809 143535714
" />
</g><g transform="rotate(-90.000000 135820000.000000 78837500.000000)">
<text x="135820000.000000" y="79337500.000000"
textLength="2147381.000000" font-size="1333333.000000" lengthAdjust="spacingAndGlyphs"
text-anchor="middle" opacity="0">C1</text>
</g>
<g class="stroked-text"><desc>C1</desc>
<path d="M136177142 79004166
L136224761 79051785
L136272380 79194642
L136272380 79289880
L136224761 79432738
L136129523 79527976
L136034285 79575595
L135843809 79623214
L135700952 79623214
L135510476 79575595
L135415238 79527976
L135320000 79432738
L135272380 79289880
L135272380 79194642
L135320000 79051785
L135367619 79004166
" />
<path d="M136272380 78051785
L136272380 78623214
" />
<path d="M136272380 78337500
L135272380 78337500
L135415238 78432738
L135510476 78527976
L135558095 78623214
" />
</g><text x="135000000.000000" y="151150000.000000"
textLength="7004524.000000" font-size="1333333.000000" lengthAdjust="spacingAndGlyphs"
text-anchor="middle" opacity="0">TRI_OUT1</text>
<g class="stroked-text"><desc>TRI_OUT1</desc>
<path d="M131690476 150102380
L132261904 150102380
" />
<path d="M131976190 151102380
L131976190 150102380
" />
<path d="M133166666 151102380
L132833333 150626190
" />
<path d="M132595238 151102380
L132595238 150102380
L132976190 150102380
L133071428 150150000
L133119047 150197619
L133166666 150292857
L133166666 150435714
L133119047 150530952
L133071428 150578571
L132976190 150626190
L132595238 150626190
" />
<path d="M133595238 151102380
L133595238 150102380
" />
<path d="M133833333 151197619
L134595238 151197619
" />
<path d="M135023809 150102380
L135214285 150102380
L135309523 150150000
L135404761 150245238
L135452380 150435714
L135452380 150769047
L135404761 150959523
L135309523 151054761
L135214285 151102380
L135023809 151102380
L134928571 151054761
L134833333 150959523
L134785714 150769047
L134785714 150435714
L134833333 150245238
L134928571 150150000
L135023809 150102380
" />
<path d="M135880952 150102380
L135880952 150911904
L135928571 151007142
L135976190 151054761
L136071428 151102380
L136261904 151102380
L136357142 151054761
L136404761 151007142
L136452380 150911904
L136452380 150102380
" />
<path d="M136785714 150102380
L137357142 150102380
" />
<path d="M137071428 151102380
L137071428 150102380
" />
<path d="M138214285 151102380
L137642857 151102380
" />
<path d="M137928571 151102380
L137928571 150102380
L137833333 150245238
L137738095 150340476
L137642857 150388095
" />
</g><g transform="rotate(-90.000000 132500000.000000 128750000.000000)">
<text x="132500000.000000" y="129250000.000000"
textLength="2147381.000000" font-size="1333333.000000" lengthAdjust="spacingAndGlyphs"
text-anchor="middle" opacity="0">C3</text>
</g>
<g class="stroked-text"><desc>C3</desc>
<path d="M132857142 128916666
L132904761 128964285
L132952380 129107142
L132952380 129202380
L132904761 129345238
L132809523 129440476
L132714285 129488095
L132523809 129535714
L132380952 129535714
L132190476 129488095
L132095238 129440476
L132000000 129345238
L131952380 129202380
L131952380 129107142
L132000000 128964285
L132047619 128916666
" />
<path d="M131952380 128583333
L131952380 127964285
L132333333 128297619
L132333333 128154761
L132380952 128059523
L132428571 128011904
L132523809 127964285
L132761904 127964285
L132857142 128011904
L132904761 128059523
L132952380 128154761
L132952380 128440476
L132904761 128535714
L132857142 128583333
" />
</g><g transform="rotate(-90.000000 130920000.000000 78850000.000000)">
<text x="130920000.000000" y="79350000.000000"
textLength="2147381.000000" font-size="1333333.000000" lengthAdjust="spacingAndGlyphs"
text-anchor="middle" opacity="0">C2</text>
</g>
<g class="stroked-text"><desc>C2</desc>
<path d="M131277142 79016666
L131324761 79064285
L131372380 79207142
L131372380 79302380
L131324761 79445238
L131229523 79540476
L131134285 79588095
L130943809 79635714
L130800952 79635714
L130610476 79588095
L130515238 79540476
L130420000 79445238
L130372380 79302380
L130372380 79207142
L130420000 79064285
L130467619 79016666
" />
<path d="M130467619 78635714
L130420000 78588095
L130372380 78492857
L130372380 78254761
L130420000 78159523
L130467619 78111904
L130562857 78064285
L130658095 78064285
L130800952 78111904
L131372380 78683333
L131372380 78064285
" />
</g><text x="134895000.000000" y="146950000.000000"
textLength="2147381.000000" font-size="1333333.000000" lengthAdjust="spacingAndGlyphs"
text-anchor="middle" opacity="0">D1</text>
<g class="stroked-text"><desc>D1</desc>
<path d="M134156904 146902380
L134156904 145902380
L134395000 145902380
L134537857 145950000
L134633095 146045238
L134680714 146140476
L134728333 146330952
L134728333 146473809
L134680714 146664285
L134633095 146759523
L134537857 146854761
L134395000 146902380
L134156904 146902380
" />
<path d="M135680714 146902380
L135109285 146902380
" />
<path d="M135395000 146902380
L135395000 145902380
L135299761 146045238
L135204523 146140476
L135109285 146188095
" />
</g><circle cx="134999584.000000" cy="70150000.000000" r="3000417.000000" /> 
<path d="M128700000 63450000
L141400000 63450000
" />
<path d="M141400000 63450000
L141400000 76650000
" />
<path d="M128700000 76650000
L128700000 63450000
" />
<path d="M141400000 76650000
L128700000 76650000
" />
</g>
<g style="fill:#000000; fill-opacity:0.0; 
stroke:#000000; stroke-width:120000.000000; stroke-opacity:1; 
stroke-linecap:round; stroke-linejoin:round;">
<path d="M134938748 143015000
L135461252 143015000
" />
<path d="M134938748 144485000
L135461252 144485000
" />
<path d="M136765000 79098752
L136765000 78576248
" />
<path d="M138235000 79098752
L138235000 78576248
" />
<path d="M134650000 155130000
L130500000 155130000
" />
<path d="M139500000 165630000
L135500000 165630000
" />
<path d="M133940000 152150000
L133940000 152950000
" />
<path d="M130500000 155130000
L130500000 165630000
" />
<path d="M139500000 155130000
L139500000 165630000
" />
<path d="M139500000 155130000
L135350000 155130000
" />
<path d="M133940000 152150000
L134800000 152150000
" />
<path d="M134500000 165630000
L130500000 165630000
" />
<circle cx="135000000.000000" cy="159630000.000000" r="1800000.000000" /> 
<path d="M135261252 129485000
L134738748 129485000
" />
<path d="M135261252 128015000
L134738748 128015000
" />
<path d="M133335000 79111252
L133335000 78588748
" />
<path d="M131865000 79111252
L131865000 78588748
" />
<path d="M133335000 148174000
L133335000 148330000
" />
<path d="M133335000 150490000
L133335000 150646000
" />
<path d="M133854038.954550 150490000.047155 A1500000.000000 1500000.000000 0.0 0 0 135936130.087115 150489837.090354" />
<path d="M135936130.087115 148330162.909646 A1500000.000000 1500000.000000 0.0 0 0 133854038.954550 148329999.952845" />
<path d="M133334999.957900 150645516.033343 A1990000.000000 1990000.000000 0.0 0 0 136567335.090817 150488608.058574" />
<path d="M136567335.090817 148331391.941426 A1990000.000000 1990000.000000 0.0 0 0 133334999.957900 148174483.966657" />
<g >
</g>
<g >
</g>
<g >
</g>
<g >
</g>
<g >
</g>
<g >
</g>
<g >
</g>
<g >
</g>
<g >
</g>
<g >
</g>
<g >
</g>
<g >
</g>
<g >
</g>
<g >
</g>
</g> 
</svg>
