<?xml version="1.0" standalone="no"?>
 <!DOCTYPE svg PUBLIC "-//W3C//DTD SVG 1.1//EN" 
 "http://www.w3.org/Graphics/SVG/1.1/DTD/svg11.dtd"> 
<svg
  xmlns:svg="http://www.w3.org/2000/svg"
  xmlns="http://www.w3.org/2000/svg"
  xmlns:xlink="http://www.w3.org/1999/xlink"
  version="1.1"
  width="29.700220cm" height="21.000720cm" viewBox="0 0 297002200 210007200">
<title>SVG Picture created as MiniLFO-F_Cu.svg date 2023/02/04 10:57:40 </title>
  <desc>Picture generated by PCBNEW </desc>
<g style="fill:#000000; fill-opacity:1.000000;stroke:#000000; stroke-opacity:1.000000;
stroke-linecap:round; stroke-linejoin:round;"
 transform="translate(0 0) scale(1 1)">
</g>
<g style="fill:#000000; fill-opacity:0.0; 
stroke:#000000; stroke-width:0.000000; stroke-opacity:1; 
stroke-linecap:round; stroke-linejoin:round;">
<g >
</g>
<g style="fill:#000000; fill-opacity:0.0; 
stroke:#000000; stroke-width:1800000.000000; stroke-opacity:1; 
stroke-linecap:round; stroke-linejoin:round;">
<path d="M131900000 70150000
L133300000 70150000
" />
<path d="M131900000 65450000
L133300000 65450000
" />
<path d="M131900000 74850000
L133300000 74850000
" />
<path d="M136700000 70150000
L138100000 70150000
" />
<path d="M136700000 65450000
L138100000 65450000
" />
<path d="M136700000 74850000
L138100000 74850000
" />
</g>
<g >
</g>
<g style="fill:#000000; fill-opacity:0.0; 
stroke:#000000; stroke-width:1800000.000000; stroke-opacity:1; 
stroke-linecap:round; stroke-linejoin:round;">
</g>
<g style="fill:#000000; fill-opacity:0.0; 
stroke:#000000; stroke-width:1.000000; stroke-opacity:1; 
stroke-linecap:round; stroke-linejoin:round;">
</g>
<g style="fill:#000000; fill-opacity:1.0; 
stroke:#000000; stroke-width:1.000000; stroke-opacity:1; 
stroke-linecap:round; stroke-linejoin:round;">
<path style="fill:#000000; fill-opacity:1.0; 
stroke:#000000; stroke-width:1.000000; stroke-opacity:1; 
stroke-linecap:round; stroke-linejoin:round;fill-rule:evenodd;"
d="M 133575000.000000,143275000.000000
133594030.000000,143179329.000000
133648223.000000,143098223.000000
133729329.000000,143044030.000000
133825000.000000,143025000.000000
134500000.000000,143025000.000000
134595671.000000,143044030.000000
134676777.000000,143098223.000000
134730970.000000,143179329.000000
134750000.000000,143275000.000000
134750000.000000,144225000.000000
134730970.000000,144320671.000000
134676777.000000,144401777.000000
134595671.000000,144455970.000000
134500000.000000,144475000.000000
133825000.000000,144475000.000000
133729329.000000,144455970.000000
133648223.000000,144401777.000000
133594030.000000,144320671.000000
133575000.000000,144225000.000000
Z" /> 
<path style="fill:#000000; fill-opacity:1.0; 
stroke:#000000; stroke-width:1.000000; stroke-opacity:1; 
stroke-linecap:round; stroke-linejoin:round;fill-rule:evenodd;"
d="M 135650000.000000,143275000.000000
135669030.000000,143179329.000000
135723223.000000,143098223.000000
135804329.000000,143044030.000000
135900000.000000,143025000.000000
136575000.000000,143025000.000000
136670671.000000,143044030.000000
136751777.000000,143098223.000000
136805970.000000,143179329.000000
136825000.000000,143275000.000000
136825000.000000,144225000.000000
136805970.000000,144320671.000000
136751777.000000,144401777.000000
136670671.000000,144455970.000000
136575000.000000,144475000.000000
135900000.000000,144475000.000000
135804329.000000,144455970.000000
135723223.000000,144401777.000000
135669030.000000,144320671.000000
135650000.000000,144225000.000000
Z" /> 
</g>
<g >
</g>
<g style="fill:#000000; fill-opacity:1.0; 
stroke:#000000; stroke-width:1.000000; stroke-opacity:1; 
stroke-linecap:round; stroke-linejoin:round;">
<path style="fill:#000000; fill-opacity:1.0; 
stroke:#000000; stroke-width:1.000000; stroke-opacity:1; 
stroke-linecap:round; stroke-linejoin:round;fill-rule:evenodd;"
d="M 137025000.000000,80462500.000000
136929329.000000,80443470.000000
136848223.000000,80389277.000000
136794030.000000,80308171.000000
136775000.000000,80212500.000000
136775000.000000,79537500.000000
136794030.000000,79441829.000000
136848223.000000,79360723.000000
136929329.000000,79306530.000000
137025000.000000,79287500.000000
137975000.000000,79287500.000000
138070671.000000,79306530.000000
138151777.000000,79360723.000000
138205970.000000,79441829.000000
138225000.000000,79537500.000000
138225000.000000,80212500.000000
138205970.000000,80308171.000000
138151777.000000,80389277.000000
138070671.000000,80443470.000000
137975000.000000,80462500.000000
Z" /> 
<path style="fill:#000000; fill-opacity:1.0; 
stroke:#000000; stroke-width:1.000000; stroke-opacity:1; 
stroke-linecap:round; stroke-linejoin:round;fill-rule:evenodd;"
d="M 137025000.000000,78387500.000000
136929329.000000,78368470.000000
136848223.000000,78314277.000000
136794030.000000,78233171.000000
136775000.000000,78137500.000000
136775000.000000,77462500.000000
136794030.000000,77366829.000000
136848223.000000,77285723.000000
136929329.000000,77231530.000000
137025000.000000,77212500.000000
137975000.000000,77212500.000000
138070671.000000,77231530.000000
138151777.000000,77285723.000000
138205970.000000,77366829.000000
138225000.000000,77462500.000000
138225000.000000,78137500.000000
138205970.000000,78233171.000000
138151777.000000,78314277.000000
138070671.000000,78368470.000000
137975000.000000,78387500.000000
Z" /> 
</g>
<g >
</g>
<g style="fill:#000000; fill-opacity:1.0; 
stroke:#000000; stroke-width:1.000000; stroke-opacity:1; 
stroke-linecap:round; stroke-linejoin:round;">
<path style="fill:#000000; fill-opacity:1.0; 
stroke:#000000; stroke-width:1.000000; stroke-opacity:1; 
stroke-linecap:round; stroke-linejoin:round;fill-rule:evenodd;"
d="M 135965000.000000,152235000.000000
135965000.000000,154065000.000000
134035000.000000,154065000.000000
134035000.000000,152235000.000000
Z" /> 
<circle cx="135000000.000000" cy="164550000.000000" r="1065000.000000" /> 
</g>
<g style="fill:#000000; fill-opacity:1.0; 
stroke:#000000; stroke-width:21200.000000; stroke-opacity:1; 
stroke-linecap:round; stroke-linejoin:round;">
</g>
<g style="fill:#000000; fill-opacity:1.0; 
stroke:#000000; stroke-width:1.000000; stroke-opacity:1; 
stroke-linecap:round; stroke-linejoin:round;">
<circle cx="135000000.000000" cy="156250000.000000" r="1065000.000000" /> 
</g>
<g style="fill:#000000; fill-opacity:1.0; 
stroke:#000000; stroke-width:21200.000000; stroke-opacity:1; 
stroke-linecap:round; stroke-linejoin:round;">
</g>
<g >
</g>
<g style="fill:#000000; fill-opacity:1.0; 
stroke:#000000; stroke-width:21200.000000; stroke-opacity:1; 
stroke-linecap:round; stroke-linejoin:round;">
</g>
<g style="fill:#000000; fill-opacity:1.0; 
stroke:#000000; stroke-width:1.000000; stroke-opacity:1; 
stroke-linecap:round; stroke-linejoin:round;">
<circle cx="113950000.000000" cy="73742500.000000" r="4000000.000000" /> 
</g>
<g style="fill:#000000; fill-opacity:1.0; 
stroke:#000000; stroke-width:21200.000000; stroke-opacity:1; 
stroke-linecap:round; stroke-linejoin:round;">
</g>
<g >
</g>
<g style="fill:#000000; fill-opacity:1.0; 
stroke:#000000; stroke-width:21200.000000; stroke-opacity:1; 
stroke-linecap:round; stroke-linejoin:round;">
</g>
<g style="fill:#000000; fill-opacity:1.0; 
stroke:#000000; stroke-width:1.000000; stroke-opacity:1; 
stroke-linecap:round; stroke-linejoin:round;">
<path style="fill:#000000; fill-opacity:1.0; 
stroke:#000000; stroke-width:1.000000; stroke-opacity:1; 
stroke-linecap:round; stroke-linejoin:round;fill-rule:evenodd;"
d="M 136625000.000000,129225000.000000
136605970.000000,129320671.000000
136551777.000000,129401777.000000
136470671.000000,129455970.000000
136375000.000000,129475000.000000
135700000.000000,129475000.000000
135604329.000000,129455970.000000
135523223.000000,129401777.000000
135469030.000000,129320671.000000
135450000.000000,129225000.000000
135450000.000000,128275000.000000
135469030.000000,128179329.000000
135523223.000000,128098223.000000
135604329.000000,128044030.000000
135700000.000000,128025000.000000
136375000.000000,128025000.000000
136470671.000000,128044030.000000
136551777.000000,128098223.000000
136605970.000000,128179329.000000
136625000.000000,128275000.000000
Z" /> 
<path style="fill:#000000; fill-opacity:1.0; 
stroke:#000000; stroke-width:1.000000; stroke-opacity:1; 
stroke-linecap:round; stroke-linejoin:round;fill-rule:evenodd;"
d="M 134550000.000000,129225000.000000
134530970.000000,129320671.000000
134476777.000000,129401777.000000
134395671.000000,129455970.000000
134300000.000000,129475000.000000
133625000.000000,129475000.000000
133529329.000000,129455970.000000
133448223.000000,129401777.000000
133394030.000000,129320671.000000
133375000.000000,129225000.000000
133375000.000000,128275000.000000
133394030.000000,128179329.000000
133448223.000000,128098223.000000
133529329.000000,128044030.000000
133625000.000000,128025000.000000
134300000.000000,128025000.000000
134395671.000000,128044030.000000
134476777.000000,128098223.000000
134530970.000000,128179329.000000
134550000.000000,128275000.000000
Z" /> 
</g>
<g >
</g>
<g style="fill:#000000; fill-opacity:1.0; 
stroke:#000000; stroke-width:1.000000; stroke-opacity:1; 
stroke-linecap:round; stroke-linejoin:round;">
<path style="fill:#000000; fill-opacity:1.0; 
stroke:#000000; stroke-width:1.000000; stroke-opacity:1; 
stroke-linecap:round; stroke-linejoin:round;fill-rule:evenodd;"
d="M 132125000.000000,80475000.000000
132029329.000000,80455970.000000
131948223.000000,80401777.000000
131894030.000000,80320671.000000
131875000.000000,80225000.000000
131875000.000000,79550000.000000
131894030.000000,79454329.000000
131948223.000000,79373223.000000
132029329.000000,79319030.000000
132125000.000000,79300000.000000
133075000.000000,79300000.000000
133170671.000000,79319030.000000
133251777.000000,79373223.000000
133305970.000000,79454329.000000
133325000.000000,79550000.000000
133325000.000000,80225000.000000
133305970.000000,80320671.000000
133251777.000000,80401777.000000
133170671.000000,80455970.000000
133075000.000000,80475000.000000
Z" /> 
<path style="fill:#000000; fill-opacity:1.0; 
stroke:#000000; stroke-width:1.000000; stroke-opacity:1; 
stroke-linecap:round; stroke-linejoin:round;fill-rule:evenodd;"
d="M 132125000.000000,78400000.000000
132029329.000000,78380970.000000
131948223.000000,78326777.000000
131894030.000000,78245671.000000
131875000.000000,78150000.000000
131875000.000000,77475000.000000
131894030.000000,77379329.000000
131948223.000000,77298223.000000
132029329.000000,77244030.000000
132125000.000000,77225000.000000
133075000.000000,77225000.000000
133170671.000000,77244030.000000
133251777.000000,77298223.000000
133305970.000000,77379329.000000
133325000.000000,77475000.000000
133325000.000000,78150000.000000
133305970.000000,78245671.000000
133251777.000000,78326777.000000
133170671.000000,78380970.000000
133075000.000000,78400000.000000
Z" /> 
</g>
<g >
</g>
<g style="fill:#000000; fill-opacity:1.0; 
stroke:#000000; stroke-width:1.000000; stroke-opacity:1; 
stroke-linecap:round; stroke-linejoin:round;">
<circle cx="116550000.000000" cy="175400000.000000" r="2100000.000000" /> 
<circle cx="116550000.000000" cy="52900000.000000" r="2100000.000000" /> 
</g>
<g >
</g>
<g style="fill:#000000; fill-opacity:1.0; 
stroke:#000000; stroke-width:1.000000; stroke-opacity:1; 
stroke-linecap:round; stroke-linejoin:round;">
<path style="fill:#000000; fill-opacity:1.0; 
stroke:#000000; stroke-width:1.000000; stroke-opacity:1; 
stroke-linecap:round; stroke-linejoin:round;fill-rule:evenodd;"
d="M 132725000.000000,150310000.000000
132725000.000000,148510000.000000
134525000.000000,148510000.000000
134525000.000000,150310000.000000
Z" /> 
<circle cx="136165000.000000" cy="149410000.000000" r="900000.000000" /> 
</g>
<g style="fill:#000000; fill-opacity:1.0; 
stroke:#000000; stroke-width:21200.000000; stroke-opacity:1; 
stroke-linecap:round; stroke-linejoin:round;">
</g>
<g >
</g>
<g style="fill:#000000; fill-opacity:1.0; 
stroke:#000000; stroke-width:21200.000000; stroke-opacity:1; 
stroke-linecap:round; stroke-linejoin:round;">
</g>
<g style="fill:#000000; fill-opacity:1.0; 
stroke:#000000; stroke-width:1.000000; stroke-opacity:1; 
stroke-linecap:round; stroke-linejoin:round;">
<circle cx="113950000.000000" cy="93750000.000000" r="4000000.000000" /> 
</g>
<g style="fill:#000000; fill-opacity:1.0; 
stroke:#000000; stroke-width:21200.000000; stroke-opacity:1; 
stroke-linecap:round; stroke-linejoin:round;">
</g>
<g >
</g>
<g style="fill:#000000; fill-opacity:1.0; 
stroke:#000000; stroke-width:21200.000000; stroke-opacity:1; 
stroke-linecap:round; stroke-linejoin:round;">
</g>
<g style="fill:#000000; fill-opacity:1.0; 
stroke:#000000; stroke-width:1.000000; stroke-opacity:1; 
stroke-linecap:round; stroke-linejoin:round;">
<path style="fill:#000000; fill-opacity:1.0; 
stroke:#000000; stroke-width:1.000000; stroke-opacity:1; 
stroke-linecap:round; stroke-linejoin:round;fill-rule:evenodd;"
d="M 132860000.000000,140690000.000000
132879030.000000,140594329.000000
132933223.000000,140513223.000000
133014329.000000,140459030.000000
133110000.000000,140440000.000000
134310000.000000,140440000.000000
134405671.000000,140459030.000000
134486777.000000,140513223.000000
134540970.000000,140594329.000000
134560000.000000,140690000.000000
134560000.000000,141890000.000000
134540970.000000,141985671.000000
134486777.000000,142066777.000000
134405671.000000,142120970.000000
134310000.000000,142140000.000000
133110000.000000,142140000.000000
133014329.000000,142120970.000000
132933223.000000,142066777.000000
132879030.000000,141985671.000000
132860000.000000,141890000.000000
Z" /> 
<circle cx="136250000.000000" cy="141290000.000000" r="850000.000000" /> 
</g>
<g style="fill:#000000; fill-opacity:1.0; 
stroke:#000000; stroke-width:21200.000000; stroke-opacity:1; 
stroke-linecap:round; stroke-linejoin:round;">
</g>
<g style="fill:#000000; fill-opacity:1.0; 
stroke:#000000; stroke-width:1.000000; stroke-opacity:1; 
stroke-linecap:round; stroke-linejoin:round;">
<circle cx="133710000.000000" cy="138750000.000000" r="850000.000000" /> 
</g>
<g style="fill:#000000; fill-opacity:1.0; 
stroke:#000000; stroke-width:21200.000000; stroke-opacity:1; 
stroke-linecap:round; stroke-linejoin:round;">
</g>
<g style="fill:#000000; fill-opacity:1.0; 
stroke:#000000; stroke-width:1.000000; stroke-opacity:1; 
stroke-linecap:round; stroke-linejoin:round;">
<circle cx="136250000.000000" cy="138750000.000000" r="850000.000000" /> 
</g>
<g style="fill:#000000; fill-opacity:1.0; 
stroke:#000000; stroke-width:21200.000000; stroke-opacity:1; 
stroke-linecap:round; stroke-linejoin:round;">
</g>
<g style="fill:#000000; fill-opacity:1.0; 
stroke:#000000; stroke-width:1.000000; stroke-opacity:1; 
stroke-linecap:round; stroke-linejoin:round;">
<circle cx="133710000.000000" cy="136210000.000000" r="850000.000000" /> 
</g>
<g style="fill:#000000; fill-opacity:1.0; 
stroke:#000000; stroke-width:21200.000000; stroke-opacity:1; 
stroke-linecap:round; stroke-linejoin:round;">
</g>
<g style="fill:#000000; fill-opacity:1.0; 
stroke:#000000; stroke-width:1.000000; stroke-opacity:1; 
stroke-linecap:round; stroke-linejoin:round;">
<circle cx="136250000.000000" cy="136210000.000000" r="850000.000000" /> 
</g>
<g style="fill:#000000; fill-opacity:1.0; 
stroke:#000000; stroke-width:21200.000000; stroke-opacity:1; 
stroke-linecap:round; stroke-linejoin:round;">
</g>
<g style="fill:#000000; fill-opacity:1.0; 
stroke:#000000; stroke-width:1.000000; stroke-opacity:1; 
stroke-linecap:round; stroke-linejoin:round;">
<circle cx="133710000.000000" cy="133670000.000000" r="850000.000000" /> 
</g>
<g style="fill:#000000; fill-opacity:1.0; 
stroke:#000000; stroke-width:21200.000000; stroke-opacity:1; 
stroke-linecap:round; stroke-linejoin:round;">
</g>
<g style="fill:#000000; fill-opacity:1.0; 
stroke:#000000; stroke-width:1.000000; stroke-opacity:1; 
stroke-linecap:round; stroke-linejoin:round;">
<circle cx="136250000.000000" cy="133670000.000000" r="850000.000000" /> 
</g>
<g style="fill:#000000; fill-opacity:1.0; 
stroke:#000000; stroke-width:21200.000000; stroke-opacity:1; 
stroke-linecap:round; stroke-linejoin:round;">
</g>
<g style="fill:#000000; fill-opacity:1.0; 
stroke:#000000; stroke-width:1.000000; stroke-opacity:1; 
stroke-linecap:round; stroke-linejoin:round;">
<circle cx="133710000.000000" cy="131130000.000000" r="850000.000000" /> 
</g>
<g style="fill:#000000; fill-opacity:1.0; 
stroke:#000000; stroke-width:21200.000000; stroke-opacity:1; 
stroke-linecap:round; stroke-linejoin:round;">
</g>
<g style="fill:#000000; fill-opacity:1.0; 
stroke:#000000; stroke-width:1.000000; stroke-opacity:1; 
stroke-linecap:round; stroke-linejoin:round;">
<circle cx="136250000.000000" cy="131130000.000000" r="850000.000000" /> 
</g>
<g style="fill:#000000; fill-opacity:1.0; 
stroke:#000000; stroke-width:21200.000000; stroke-opacity:1; 
stroke-linecap:round; stroke-linejoin:round;">
</g>
<g >
</g>
<g style="fill:#000000; fill-opacity:1.0; 
stroke:#000000; stroke-width:21200.000000; stroke-opacity:1; 
stroke-linecap:round; stroke-linejoin:round;">
</g>
<g style="fill:#000000; fill-opacity:1.0; 
stroke:#000000; stroke-width:1.000000; stroke-opacity:1; 
stroke-linecap:round; stroke-linejoin:round;">
<circle cx="132750000.000000" cy="154750000.000000" r="400000.000000" /> 
</g>
<g style="fill:#000000; fill-opacity:1.0; 
stroke:#000000; stroke-width:21200.000000; stroke-opacity:1; 
stroke-linecap:round; stroke-linejoin:round;">
</g>
<g style="fill:#000000; fill-opacity:1.0; 
stroke:#000000; stroke-width:1.000000; stroke-opacity:1; 
stroke-linecap:round; stroke-linejoin:round;">
<circle cx="137000000.000000" cy="154500000.000000" r="400000.000000" /> 
</g>
<g style="fill:#000000; fill-opacity:1.0; 
stroke:#000000; stroke-width:21200.000000; stroke-opacity:1; 
stroke-linecap:round; stroke-linejoin:round;">
</g>
<g style="fill:#000000; fill-opacity:1.0; 
stroke:#000000; stroke-width:1.000000; stroke-opacity:1; 
stroke-linecap:round; stroke-linejoin:round;">
<circle cx="137750000.000000" cy="142250000.000000" r="400000.000000" /> 
</g>
<g style="fill:#000000; fill-opacity:1.0; 
stroke:#000000; stroke-width:21200.000000; stroke-opacity:1; 
stroke-linecap:round; stroke-linejoin:round;">
</g>
<g style="fill:#000000; fill-opacity:1.0; 
stroke:#000000; stroke-width:1.000000; stroke-opacity:1; 
stroke-linecap:round; stroke-linejoin:round;">
<circle cx="132000000.000000" cy="133500000.000000" r="400000.000000" /> 
</g>
<g style="fill:#000000; fill-opacity:1.0; 
stroke:#000000; stroke-width:21200.000000; stroke-opacity:1; 
stroke-linecap:round; stroke-linejoin:round;">
</g>
<g style="fill:#000000; fill-opacity:1.0; 
stroke:#000000; stroke-width:1.000000; stroke-opacity:1; 
stroke-linecap:round; stroke-linejoin:round;">
<circle cx="137250000.000000" cy="163750000.000000" r="400000.000000" /> 
</g>
<g style="fill:#000000; fill-opacity:1.0; 
stroke:#000000; stroke-width:21200.000000; stroke-opacity:1; 
stroke-linecap:round; stroke-linejoin:round;">
</g>
<g style="fill:#000000; fill-opacity:1.0; 
stroke:#000000; stroke-width:1.000000; stroke-opacity:1; 
stroke-linecap:round; stroke-linejoin:round;">
<circle cx="132500000.000000" cy="160750000.000000" r="400000.000000" /> 
</g>
<g style="fill:#000000; fill-opacity:1.0; 
stroke:#000000; stroke-width:21200.000000; stroke-opacity:1; 
stroke-linecap:round; stroke-linejoin:round;">
</g>
<g style="fill:#000000; fill-opacity:1.0; 
stroke:#000000; stroke-width:1.000000; stroke-opacity:1; 
stroke-linecap:round; stroke-linejoin:round;">
<circle cx="133250000.000000" cy="145500000.000000" r="400000.000000" /> 
</g>
<g style="fill:#000000; fill-opacity:1.0; 
stroke:#000000; stroke-width:21200.000000; stroke-opacity:1; 
stroke-linecap:round; stroke-linejoin:round;">
</g>
<g style="fill:#000000; fill-opacity:1.0; 
stroke:#000000; stroke-width:1.000000; stroke-opacity:1; 
stroke-linecap:round; stroke-linejoin:round;">
<circle cx="136750000.000000" cy="145750000.000000" r="400000.000000" /> 
</g>
<g style="fill:#000000; fill-opacity:1.0; 
stroke:#000000; stroke-width:21200.000000; stroke-opacity:1; 
stroke-linecap:round; stroke-linejoin:round;">
</g>
<g style="fill:#000000; fill-opacity:1.0; 
stroke:#000000; stroke-width:1.000000; stroke-opacity:1; 
stroke-linecap:round; stroke-linejoin:round;">
<circle cx="132250000.000000" cy="143000000.000000" r="400000.000000" /> 
</g>
<g style="fill:#000000; fill-opacity:1.0; 
stroke:#000000; stroke-width:21200.000000; stroke-opacity:1; 
stroke-linecap:round; stroke-linejoin:round;">
</g>
<g style="fill:#000000; fill-opacity:1.0; 
stroke:#000000; stroke-width:1.000000; stroke-opacity:1; 
stroke-linecap:round; stroke-linejoin:round;">
<circle cx="132750000.000000" cy="164500000.000000" r="400000.000000" /> 
</g>
<g style="fill:#000000; fill-opacity:1.0; 
stroke:#000000; stroke-width:21200.000000; stroke-opacity:1; 
stroke-linecap:round; stroke-linejoin:round;">
</g>
<g style="fill:#000000; fill-opacity:1.0; 
stroke:#000000; stroke-width:1.000000; stroke-opacity:1; 
stroke-linecap:round; stroke-linejoin:round;">
<circle cx="132500000.000000" cy="126500000.000000" r="400000.000000" /> 
</g>
<g style="fill:#000000; fill-opacity:1.0; 
stroke:#000000; stroke-width:21200.000000; stroke-opacity:1; 
stroke-linecap:round; stroke-linejoin:round;">
</g>
<g style="fill:#000000; fill-opacity:1.0; 
stroke:#000000; stroke-width:1.000000; stroke-opacity:1; 
stroke-linecap:round; stroke-linejoin:round;">
<circle cx="132000000.000000" cy="147500000.000000" r="400000.000000" /> 
</g>
<g style="fill:#000000; fill-opacity:1.0; 
stroke:#000000; stroke-width:21200.000000; stroke-opacity:1; 
stroke-linecap:round; stroke-linejoin:round;">
</g>
<g style="fill:#000000; fill-opacity:1.0; 
stroke:#000000; stroke-width:1.000000; stroke-opacity:1; 
stroke-linecap:round; stroke-linejoin:round;">
<circle cx="132000000.000000" cy="139750000.000000" r="400000.000000" /> 
</g>
<g style="fill:#000000; fill-opacity:1.0; 
stroke:#000000; stroke-width:21200.000000; stroke-opacity:1; 
stroke-linecap:round; stroke-linejoin:round;">
</g>
<g style="fill:#000000; fill-opacity:1.0; 
stroke:#000000; stroke-width:1.000000; stroke-opacity:1; 
stroke-linecap:round; stroke-linejoin:round;">
<circle cx="132000000.000000" cy="134500000.000000" r="400000.000000" /> 
</g>
<g style="fill:#000000; fill-opacity:1.0; 
stroke:#000000; stroke-width:21200.000000; stroke-opacity:1; 
stroke-linecap:round; stroke-linejoin:round;">
</g>
<g style="fill:#000000; fill-opacity:1.0; 
stroke:#000000; stroke-width:1.000000; stroke-opacity:1; 
stroke-linecap:round; stroke-linejoin:round;">
<circle cx="137500000.000000" cy="160750000.000000" r="400000.000000" /> 
</g>
<g style="fill:#000000; fill-opacity:1.0; 
stroke:#000000; stroke-width:21200.000000; stroke-opacity:1; 
stroke-linecap:round; stroke-linejoin:round;">
</g>
<g style="fill:#000000; fill-opacity:1.0; 
stroke:#000000; stroke-width:1.000000; stroke-opacity:1; 
stroke-linecap:round; stroke-linejoin:round;">
<circle cx="132500000.000000" cy="158000000.000000" r="400000.000000" /> 
</g>
<g style="fill:#000000; fill-opacity:1.0; 
stroke:#000000; stroke-width:21200.000000; stroke-opacity:1; 
stroke-linecap:round; stroke-linejoin:round;">
</g>
<g style="fill:#000000; fill-opacity:1.0; 
stroke:#000000; stroke-width:1.000000; stroke-opacity:1; 
stroke-linecap:round; stroke-linejoin:round;">
<circle cx="137500000.000000" cy="152250000.000000" r="400000.000000" /> 
</g>
<g style="fill:#000000; fill-opacity:1.0; 
stroke:#000000; stroke-width:21200.000000; stroke-opacity:1; 
stroke-linecap:round; stroke-linejoin:round;">
</g>
<g style="fill:#000000; fill-opacity:1.0; 
stroke:#000000; stroke-width:1.000000; stroke-opacity:1; 
stroke-linecap:round; stroke-linejoin:round;">
<circle cx="133750000.000000" cy="127000000.000000" r="400000.000000" /> 
</g>
<g style="fill:#000000; fill-opacity:1.0; 
stroke:#000000; stroke-width:21200.000000; stroke-opacity:1; 
stroke-linecap:round; stroke-linejoin:round;">
</g>
<g style="fill:#000000; fill-opacity:1.0; 
stroke:#000000; stroke-width:1.000000; stroke-opacity:1; 
stroke-linecap:round; stroke-linejoin:round;">
<circle cx="138000000.000000" cy="144250000.000000" r="400000.000000" /> 
</g>
<g style="fill:#000000; fill-opacity:1.0; 
stroke:#000000; stroke-width:21200.000000; stroke-opacity:1; 
stroke-linecap:round; stroke-linejoin:round;">
</g>
<g style="fill:#000000; fill-opacity:1.0; 
stroke:#000000; stroke-width:1.000000; stroke-opacity:1; 
stroke-linecap:round; stroke-linejoin:round;">
<circle cx="130750000.000000" cy="164500000.000000" r="400000.000000" /> 
</g>
<g style="fill:#000000; fill-opacity:1.0; 
stroke:#000000; stroke-width:21200.000000; stroke-opacity:1; 
stroke-linecap:round; stroke-linejoin:round;">
</g>
<g style="fill:#000000; fill-opacity:1.0; 
stroke:#000000; stroke-width:1.000000; stroke-opacity:1; 
stroke-linecap:round; stroke-linejoin:round;">
<circle cx="138000000.000000" cy="162750000.000000" r="400000.000000" /> 
</g>
<g style="fill:#000000; fill-opacity:1.0; 
stroke:#000000; stroke-width:21200.000000; stroke-opacity:1; 
stroke-linecap:round; stroke-linejoin:round;">
</g>
<g style="fill:#000000; fill-opacity:1.0; 
stroke:#000000; stroke-width:1.000000; stroke-opacity:1; 
stroke-linecap:round; stroke-linejoin:round;">
<circle cx="137250000.000000" cy="159000000.000000" r="400000.000000" /> 
</g>
<g style="fill:#000000; fill-opacity:1.0; 
stroke:#000000; stroke-width:21200.000000; stroke-opacity:1; 
stroke-linecap:round; stroke-linejoin:round;">
</g>
<g style="fill:#000000; fill-opacity:1.0; 
stroke:#000000; stroke-width:1.000000; stroke-opacity:1; 
stroke-linecap:round; stroke-linejoin:round;">
<circle cx="132000000.000000" cy="138000000.000000" r="400000.000000" /> 
</g>
<g style="fill:#000000; fill-opacity:1.0; 
stroke:#000000; stroke-width:21200.000000; stroke-opacity:1; 
stroke-linecap:round; stroke-linejoin:round;">
</g>
<g style="fill:#000000; fill-opacity:1.0; 
stroke:#000000; stroke-width:1.000000; stroke-opacity:1; 
stroke-linecap:round; stroke-linejoin:round;">
<circle cx="137750000.000000" cy="156750000.000000" r="400000.000000" /> 
</g>
<g style="fill:#000000; fill-opacity:1.0; 
stroke:#000000; stroke-width:21200.000000; stroke-opacity:1; 
stroke-linecap:round; stroke-linejoin:round;">
</g>
<g style="fill:#000000; fill-opacity:1.0; 
stroke:#000000; stroke-width:1.000000; stroke-opacity:1; 
stroke-linecap:round; stroke-linejoin:round;">
<circle cx="132250000.000000" cy="142250000.000000" r="400000.000000" /> 
</g>
<g style="fill:#000000; fill-opacity:1.0; 
stroke:#000000; stroke-width:21200.000000; stroke-opacity:1; 
stroke-linecap:round; stroke-linejoin:round;">
</g>
<g style="fill:#000000; fill-opacity:1.0; 
stroke:#000000; stroke-width:1.000000; stroke-opacity:1; 
stroke-linecap:round; stroke-linejoin:round;">
<circle cx="133250000.000000" cy="157000000.000000" r="400000.000000" /> 
</g>
<g style="fill:#000000; fill-opacity:1.0; 
stroke:#000000; stroke-width:21200.000000; stroke-opacity:1; 
stroke-linecap:round; stroke-linejoin:round;">
</g>
<g style="fill:#000000; fill-opacity:1.0; 
stroke:#000000; stroke-width:1.000000; stroke-opacity:1; 
stroke-linecap:round; stroke-linejoin:round;">
<circle cx="134500000.000000" cy="145750000.000000" r="400000.000000" /> 
</g>
<g style="fill:#000000; fill-opacity:1.0; 
stroke:#000000; stroke-width:21200.000000; stroke-opacity:1; 
stroke-linecap:round; stroke-linejoin:round;">
</g>
<g style="fill:#000000; fill-opacity:1.0; 
stroke:#000000; stroke-width:1.000000; stroke-opacity:1; 
stroke-linecap:round; stroke-linejoin:round;">
<circle cx="132000000.000000" cy="136750000.000000" r="400000.000000" /> 
</g>
<g style="fill:#000000; fill-opacity:1.0; 
stroke:#000000; stroke-width:21200.000000; stroke-opacity:1; 
stroke-linecap:round; stroke-linejoin:round;">
</g>
<g style="fill:#000000; fill-opacity:1.0; 
stroke:#000000; stroke-width:1.000000; stroke-opacity:1; 
stroke-linecap:round; stroke-linejoin:round;">
<circle cx="132000000.000000" cy="129250000.000000" r="400000.000000" /> 
</g>
<g style="fill:#000000; fill-opacity:1.0; 
stroke:#000000; stroke-width:21200.000000; stroke-opacity:1; 
stroke-linecap:round; stroke-linejoin:round;">
</g>
<g style="fill:#000000; fill-opacity:1.0; 
stroke:#000000; stroke-width:1.000000; stroke-opacity:1; 
stroke-linecap:round; stroke-linejoin:round;">
<circle cx="132250000.000000" cy="124750000.000000" r="400000.000000" /> 
</g>
<g style="fill:#000000; fill-opacity:1.0; 
stroke:#000000; stroke-width:21200.000000; stroke-opacity:1; 
stroke-linecap:round; stroke-linejoin:round;">
</g>
<g style="fill:#000000; fill-opacity:1.0; 
stroke:#000000; stroke-width:1.000000; stroke-opacity:1; 
stroke-linecap:round; stroke-linejoin:round;">
<circle cx="131500000.000000" cy="163250000.000000" r="400000.000000" /> 
</g>
<g style="fill:#000000; fill-opacity:1.0; 
stroke:#000000; stroke-width:21200.000000; stroke-opacity:1; 
stroke-linecap:round; stroke-linejoin:round;">
</g>
<g style="fill:#000000; fill-opacity:1.0; 
stroke:#000000; stroke-width:1.000000; stroke-opacity:1; 
stroke-linecap:round; stroke-linejoin:round;">
<circle cx="132000000.000000" cy="131250000.000000" r="400000.000000" /> 
</g>
<g style="fill:#000000; fill-opacity:1.0; 
stroke:#000000; stroke-width:21200.000000; stroke-opacity:1; 
stroke-linecap:round; stroke-linejoin:round;">
</g>
<g style="fill:#000000; fill-opacity:1.0; 
stroke:#000000; stroke-width:1.000000; stroke-opacity:1; 
stroke-linecap:round; stroke-linejoin:round;">
<circle cx="132250000.000000" cy="151750000.000000" r="400000.000000" /> 
</g>
<g style="fill:#000000; fill-opacity:1.0; 
stroke:#000000; stroke-width:21200.000000; stroke-opacity:1; 
stroke-linecap:round; stroke-linejoin:round;">
</g>
<g style="fill:#000000; fill-opacity:1.0; 
stroke:#000000; stroke-width:1.000000; stroke-opacity:1; 
stroke-linecap:round; stroke-linejoin:round;">
<circle cx="132500000.000000" cy="144750000.000000" r="400000.000000" /> 
</g>
<g style="fill:#000000; fill-opacity:1.0; 
stroke:#000000; stroke-width:21200.000000; stroke-opacity:1; 
stroke-linecap:round; stroke-linejoin:round;">
</g>
<g style="fill:#000000; fill-opacity:1.0; 
stroke:#000000; stroke-width:1.000000; stroke-opacity:1; 
stroke-linecap:round; stroke-linejoin:round;">
<circle cx="137250000.000000" cy="156000000.000000" r="400000.000000" /> 
</g>
<g style="fill:#000000; fill-opacity:1.0; 
stroke:#000000; stroke-width:21200.000000; stroke-opacity:1; 
stroke-linecap:round; stroke-linejoin:round;">
</g>
<g >
</g>
<g style="fill:#000000; fill-opacity:1.0; 
stroke:#000000; stroke-width:21200.000000; stroke-opacity:1; 
stroke-linecap:round; stroke-linejoin:round;">
</g>
<g style="fill:#000000; fill-opacity:1.0; 
stroke:#000000; stroke-width:200000.000000; stroke-opacity:1; 
stroke-linecap:round; stroke-linejoin:round;">
</g>
<g style="fill:#000000; fill-opacity:0.0; 
stroke:#000000; stroke-width:200000.000000; stroke-opacity:1; 
stroke-linecap:round; stroke-linejoin:round;">
<path d="M136850000 77800000
L135050000 76000000
" />
<path d="M135050000 76000000
L135050000 67900000
" />
<path d="M135050000 67900000
L132600000 65450000
" />
<path d="M132600000 77812500
L132600000 74850000
" />
</g>
<g style="fill:#000000; fill-opacity:0.0; 
stroke:#000000; stroke-width:500000.000000; stroke-opacity:1; 
stroke-linecap:round; stroke-linejoin:round;">
<path d="M136037500 128750000
L136250000 128962500
" />
<path d="M136250000 128962500
L136250000 131130000
" />
<path d="M133710000 131130000
L136250000 131130000
" />
<path d="M136287500 141327500
L136250000 141290000
" />
<path d="M136287500 143750000
L136287500 141327500
" />
<path d="M133710000 141290000
L136250000 141290000
" />
</g>
<g style="fill:#000000; fill-opacity:0.0; 
stroke:#000000; stroke-width:200000.000000; stroke-opacity:1; 
stroke-linecap:round; stroke-linejoin:round;">
<path d="M131220000 160870000
L134900000 164550000
" />
</g>
<g >
</g>
<g style="fill:#000000; fill-opacity:0.0; 
stroke:#000000; stroke-width:200000.000000; stroke-opacity:1; 
stroke-linecap:round; stroke-linejoin:round;">
<g >
</g>
<g style="fill:#000000; fill-opacity:1.0; 
stroke:#000000; stroke-width:1.000000; stroke-opacity:1; 
stroke-linecap:round; stroke-linejoin:round;">
<path style="fill:#000000; fill-opacity:1.0; 
stroke:#000000; stroke-width:1.000000; stroke-opacity:1; 
stroke-linecap:round; stroke-linejoin:round;fill-rule:evenodd;"
d="M 130717012.000000,161218286.000000
130734459.000000,161236802.000000
130761523.000000,161272072.000000
130764441.000000,161274990.000000
133459215.000000,163969763.000000
133493241.000000,164032075.000000
133492639.000000,164088272.000000
133442221.000000,164298276.000000
133442220.000000,164298282.000000
133441066.000000,164303089.000000
133421634.000000,164550000.000000
133441066.000000,164796911.000000
133442222.000000,164801725.000000
133442223.000000,164801733.000000
133452511.000000,164844585.000000
133448965.000000,164915493.000000
133407646.000000,164973227.000000
133341672.000000,164999458.000000
133329993.000000,165000000.000000
130634500.000000,165000000.000000
130566379.000000,164979998.000000
130519886.000000,164926342.000000
130508500.000000,164874000.000000
130508500.000000,161313510.000000
130528502.000000,161245389.000000
130582158.000000,161198896.000000
130652432.000000,161188792.000000
Z" /> 
<path style="fill:#000000; fill-opacity:1.0; 
stroke:#000000; stroke-width:1.000000; stroke-opacity:1; 
stroke-linecap:round; stroke-linejoin:round;fill-rule:evenodd;"
d="M 130717012.000000,75627296.000000
130742218.000000,75657154.000000
130755059.000000,75678315.000000
130755065.000000,75678324.000000
130757832.000000,75682883.000000
130761329.000000,75686913.000000
130851090.000000,75790353.000000
130914493.000000,75863419.000000
130918619.000000,75866802.000000
130918623.000000,75866806.000000
130999240.000000,75932907.000000
131099333.000000,76014978.000000
131103969.000000,76017617.000000
131103972.000000,76017619.000000
131217386.000000,76082178.000000
131307066.000000,76133227.000000
131531753.000000,76214784.000000
131537002.000000,76215733.000000
131537005.000000,76215734.000000
131762885.000000,76256580.000000
131762893.000000,76256581.000000
131766969.000000,76257318.000000
131785359.000000,76258185.000000
131790544.000000,76258430.000000
131790551.000000,76258430.000000
131792032.000000,76258500.000000
131865500.000000,76258500.000000
131933621.000000,76278502.000000
131980114.000000,76332158.000000
131991500.000000,76384500.000000
131991500.000000,76629121.000000
131971498.000000,76697242.000000
131917842.000000,76743735.000000
131905377.000000,76748644.000000
131808007.000000,76781130.000000
131808005.000000,76781131.000000
131801054.000000,76783450.000000
131650652.000000,76876522.000000
131525695.000000,77001697.000000
131432885.000000,77152262.000000
131377203.000000,77320139.000000
131366500.000000,77424600.000000
131366500.000000,78200400.000000
131366837.000000,78203646.000000
131366837.000000,78203650.000000
131376042.000000,78292361.000000
131377474.000000,78306166.000000
131433450.000000,78473946.000000
131526522.000000,78624348.000000
131651697.000000,78749305.000000
131655916.000000,78751906.000000
131696417.000000,78809030.000000
131699649.000000,78879953.000000
131664024.000000,78941365.000000
131656470.000000,78947922.000000
131650652.000000,78951522.000000
131525695.000000,79076697.000000
131432885.000000,79227262.000000
131377203.000000,79395139.000000
131366500.000000,79499600.000000
131366500.000000,80275400.000000
131366837.000000,80278646.000000
131366837.000000,80278650.000000
131376042.000000,80367361.000000
131377474.000000,80381166.000000
131433450.000000,80548946.000000
131526522.000000,80699348.000000
131651697.000000,80824305.000000
131657927.000000,80828145.000000
131657928.000000,80828146.000000
131795090.000000,80912694.000000
131802262.000000,80917115.000000
131882005.000000,80943564.000000
131963611.000000,80970632.000000
131963613.000000,80970632.000000
131970139.000000,80972797.000000
131976975.000000,80973497.000000
131976978.000000,80973498.000000
132020031.000000,80977909.000000
132074600.000000,80983500.000000
133125400.000000,80983500.000000
133128646.000000,80983163.000000
133128650.000000,80983163.000000
133224308.000000,80973238.000000
133224312.000000,80973237.000000
133231166.000000,80972526.000000
133237702.000000,80970345.000000
133237704.000000,80970345.000000
133369806.000000,80926272.000000
133398946.000000,80916550.000000
133549348.000000,80823478.000000
133674305.000000,80698303.000000
133767115.000000,80547738.000000
133822797.000000,80379861.000000
133824779.000000,80360522.000000
133833172.000000,80278598.000000
133833500.000000,80275400.000000
133833500.000000,79499600.000000
133822526.000000,79393834.000000
133816175.000000,79374796.000000
133768868.000000,79233002.000000
133766550.000000,79226054.000000
133673478.000000,79075652.000000
133548303.000000,78950695.000000
133544084.000000,78948094.000000
133503583.000000,78890970.000000
133500351.000000,78820047.000000
133535976.000000,78758635.000000
133543530.000000,78752078.000000
133549348.000000,78748478.000000
133674305.000000,78623303.000000
133767115.000000,78472738.000000
133822797.000000,78304861.000000
133824779.000000,78285522.000000
133833172.000000,78203598.000000
133833500.000000,78200400.000000
133833500.000000,77424600.000000
133822526.000000,77318834.000000
133816175.000000,77299796.000000
133768868.000000,77158002.000000
133766550.000000,77151054.000000
133673478.000000,77000652.000000
133548303.000000,76875695.000000
133536413.000000,76868366.000000
133403968.000000,76786725.000000
133403966.000000,76786724.000000
133397738.000000,76782885.000000
133294833.000000,76748753.000000
133236473.000000,76708322.000000
133209236.000000,76642758.000000
133208500.000000,76629160.000000
133208500.000000,76384500.000000
133228502.000000,76316379.000000
133282158.000000,76269886.000000
133334500.000000,76258500.000000
133360012.000000,76258500.000000
133538175.000000,76243383.000000
133543339.000000,76242043.000000
133543343.000000,76242042.000000
133764375.000000,76184673.000000
133764380.000000,76184671.000000
133769540.000000,76183332.000000
133880769.000000,76133227.000000
133982619.000000,76087347.000000
133982622.000000,76087346.000000
133987480.000000,76085157.000000
134185762.000000,75951666.000000
134205427.000000,75932907.000000
134224356.000000,75914849.000000
134287453.000000,75882302.000000
134358129.000000,75889033.000000
134413947.000000,75932907.000000
134435437.000000,76000107.000000
134436250.000000,76000000.000000
134441500.000000,76039880.000000
134441500.000000,76039885.000000
134453789.000000,76133227.000000
134457162.000000,76158851.000000
134518476.000000,76306876.000000
134523503.000000,76313427.000000
134523504.000000,76313429.000000
134591520.000000,76402069.000000
134591526.000000,76402075.000000
134616013.000000,76433987.000000
134622568.000000,76439017.000000
134641379.000000,76453452.000000
134653770.000000,76464319.000000
136229595.000000,78040144.000000
136263621.000000,78102456.000000
136266500.000000,78129239.000000
136266500.000000,78187900.000000
136277474.000000,78293666.000000
136279655.000000,78300202.000000
136279655.000000,78300204.000000
136323728.000000,78432306.000000
136333450.000000,78461446.000000
136426522.000000,78611848.000000
136551697.000000,78736805.000000
136555916.000000,78739406.000000
136596417.000000,78796530.000000
136599649.000000,78867453.000000
136564024.000000,78928865.000000
136556470.000000,78935422.000000
136550652.000000,78939022.000000
136425695.000000,79064197.000000
136332885.000000,79214762.000000
136277203.000000,79382639.000000
136276503.000000,79389475.000000
136276502.000000,79389478.000000
136272091.000000,79432531.000000
136266500.000000,79487100.000000
136266500.000000,80262900.000000
136277474.000000,80368666.000000
136279655.000000,80375202.000000
136279655.000000,80375204.000000
136323728.000000,80507306.000000
136333450.000000,80536446.000000
136426522.000000,80686848.000000
136551697.000000,80811805.000000
136557927.000000,80815645.000000
136557928.000000,80815646.000000
136695090.000000,80900194.000000
136702262.000000,80904615.000000
136738245.000000,80916550.000000
136863611.000000,80958132.000000
136863613.000000,80958132.000000
136870139.000000,80960297.000000
136876975.000000,80960997.000000
136876978.000000,80960998.000000
136920031.000000,80965409.000000
136974600.000000,80971000.000000
138025400.000000,80971000.000000
138028646.000000,80970663.000000
138028650.000000,80970663.000000
138124308.000000,80960738.000000
138124312.000000,80960737.000000
138131166.000000,80960026.000000
138137702.000000,80957845.000000
138137704.000000,80957845.000000
138273037.000000,80912694.000000
138298946.000000,80904050.000000
138449348.000000,80810978.000000
138574305.000000,80685803.000000
138667115.000000,80535238.000000
138722797.000000,80367361.000000
138733500.000000,80262900.000000
138733500.000000,79487100.000000
138724535.000000,79400692.000000
138723238.000000,79388192.000000
138723237.000000,79388188.000000
138722526.000000,79381334.000000
138666550.000000,79213554.000000
138573478.000000,79063152.000000
138448303.000000,78938195.000000
138444084.000000,78935594.000000
138403583.000000,78878470.000000
138400351.000000,78807547.000000
138435976.000000,78746135.000000
138443530.000000,78739578.000000
138449348.000000,78735978.000000
138574305.000000,78610803.000000
138667115.000000,78460238.000000
138722797.000000,78292361.000000
138733500.000000,78187900.000000
138733500.000000,77412100.000000
138724535.000000,77325692.000000
138723238.000000,77313192.000000
138723237.000000,77313188.000000
138722526.000000,77306334.000000
138666550.000000,77138554.000000
138573478.000000,76988152.000000
138448303.000000,76863195.000000
138325189.000000,76787306.000000
138303968.000000,76774225.000000
138303966.000000,76774224.000000
138297738.000000,76770385.000000
138167548.000000,76727203.000000
138136389.000000,76716868.000000
138136387.000000,76716868.000000
138129861.000000,76714703.000000
138123025.000000,76714003.000000
138123022.000000,76714002.000000
138079969.000000,76709591.000000
138025400.000000,76704000.000000
136974600.000000,76704000.000000
136971354.000000,76704337.000000
136971350.000000,76704337.000000
136875692.000000,76714262.000000
136875688.000000,76714263.000000
136868834.000000,76714974.000000
136862298.000000,76717155.000000
136862296.000000,76717155.000000
136760281.000000,76751190.000000
136689332.000000,76753774.000000
136631310.000000,76720761.000000
136364505.000000,76453956.000000
136330479.000000,76391644.000000
136335544.000000,76320829.000000
136378091.000000,76263993.000000
136444611.000000,76239182.000000
136476021.000000,76240872.000000
136562885.000000,76256580.000000
136562893.000000,76256581.000000
136566969.000000,76257318.000000
136585359.000000,76258185.000000
136590544.000000,76258430.000000
136590551.000000,76258430.000000
136592032.000000,76258500.000000
138160012.000000,76258500.000000
138338175.000000,76243383.000000
138343339.000000,76242043.000000
138343343.000000,76242042.000000
138564375.000000,76184673.000000
138564380.000000,76184671.000000
138569540.000000,76183332.000000
138680769.000000,76133227.000000
138782619.000000,76087347.000000
138782622.000000,76087346.000000
138787480.000000,76085157.000000
138985762.000000,75951666.000000
139005427.000000,75932907.000000
139154861.000000,75790353.000000
139158718.000000,75786674.000000
139206450.000000,75722520.000000
139258232.000000,75652923.000000
139314942.000000,75610210.000000
139385743.000000,75604937.000000
139448155.000000,75638780.000000
139482362.000000,75700992.000000
139485321.000000,75728194.000000
139482770.000000,80983163.000000
139442046.000000,164874061.000000
139422011.000000,164942172.000000
139368333.000000,164988639.000000
139316046.000000,165000000.000000
136670007.000000,165000000.000000
136601886.000000,164979998.000000
136555393.000000,164926342.000000
136545289.000000,164856068.000000
136547489.000000,164844585.000000
136557777.000000,164801733.000000
136557778.000000,164801725.000000
136558934.000000,164796911.000000
136578366.000000,164550000.000000
136558934.000000,164303089.000000
136557780.000000,164298282.000000
136557779.000000,164298276.000000
136502270.000000,164067070.000000
136501115.000000,164062258.000000
136406334.000000,163833437.000000
136276925.000000,163622260.000000
136116073.000000,163433927.000000
135927740.000000,163273075.000000
135716563.000000,163143666.000000
135711993.000000,163141773.000000
135711989.000000,163141771.000000
135492315.000000,163050779.000000
135492313.000000,163050778.000000
135487742.000000,163048885.000000
135402830.000000,163028499.000000
135251724.000000,162992221.000000
135251718.000000,162992220.000000
135246911.000000,162991066.000000
135000000.000000,162971634.000000
134753089.000000,162991066.000000
134748282.000000,162992220.000000
134748276.000000,162992221.000000
134597170.000000,163028499.000000
134512258.000000,163048885.000000
134507687.000000,163050778.000000
134507685.000000,163050779.000000
134411265.000000,163090718.000000
134340676.000000,163098307.000000
134273952.000000,163063404.000000
131624990.000000,160414441.000000
131622072.000000,160411523.000000
131526876.000000,160338476.000000
131378851.000000,160277162.000000
131370664.000000,160276084.000000
131370663.000000,160276084.000000
131228189.000000,160257328.000000
131220000.000000,160256250.000000
131211811.000000,160257328.000000
131069338.000000,160276084.000000
131069337.000000,160276084.000000
131061150.000000,160277162.000000
131053523.000000,160280321.000000
131053520.000000,160280322.000000
130920752.000000,160335316.000000
130920750.000000,160335317.000000
130913124.000000,160338476.000000
130786013.000000,160436013.000000
130780990.000000,160442559.000000
130780987.000000,160442562.000000
130734462.000000,160503194.000000
130677124.000000,160545061.000000
130606253.000000,160549283.000000
130544350.000000,160514519.000000
130511069.000000,160451806.000000
130508500.000000,160426490.000000
130508500.000000,156250000.000000
133421634.000000,156250000.000000
133441066.000000,156496911.000000
133442220.000000,156501718.000000
133442221.000000,156501724.000000
133478499.000000,156652830.000000
133498885.000000,156737742.000000
133593666.000000,156966563.000000
133723075.000000,157177740.000000
133883927.000000,157366073.000000
134072260.000000,157526925.000000
134283437.000000,157656334.000000
134288007.000000,157658227.000000
134288011.000000,157658229.000000
134507685.000000,157749221.000000
134512258.000000,157751115.000000
134597170.000000,157771501.000000
134748276.000000,157807779.000000
134748282.000000,157807780.000000
134753089.000000,157808934.000000
135000000.000000,157828366.000000
135246911.000000,157808934.000000
135251718.000000,157807780.000000
135251724.000000,157807779.000000
135402830.000000,157771501.000000
135487742.000000,157751115.000000
135492315.000000,157749221.000000
135711989.000000,157658229.000000
135711993.000000,157658227.000000
135716563.000000,157656334.000000
135927740.000000,157526925.000000
136116073.000000,157366073.000000
136276925.000000,157177740.000000
136406334.000000,156966563.000000
136501115.000000,156737742.000000
136521501.000000,156652830.000000
136557779.000000,156501724.000000
136557780.000000,156501718.000000
136558934.000000,156496911.000000
136578366.000000,156250000.000000
136558934.000000,156003089.000000
136557780.000000,155998282.000000
136557779.000000,155998276.000000
136502270.000000,155767070.000000
136501115.000000,155762258.000000
136406334.000000,155533437.000000
136276925.000000,155322260.000000
136116073.000000,155133927.000000
135927740.000000,154973075.000000
135716563.000000,154843666.000000
135648342.000000,154815408.000000
135593062.000000,154770859.000000
135570641.000000,154703496.000000
135588199.000000,154634705.000000
135640162.000000,154586326.000000
135696561.000000,154572999.000000
136009669.000000,154572999.000000
136016490.000000,154572629.000000
136067352.000000,154567105.000000
136082604.000000,154563479.000000
136203054.000000,154518324.000000
136218649.000000,154509786.000000
136320724.000000,154433285.000000
136333285.000000,154420724.000000
136409786.000000,154318649.000000
136418324.000000,154303054.000000
136463478.000000,154182606.000000
136467105.000000,154167351.000000
136472631.000000,154116486.000000
136473000.000000,154109672.000000
136473000.000000,153422115.000000
136468525.000000,153406876.000000
136467135.000000,153405671.000000
136459452.000000,153404000.000000
133545116.000000,153404000.000000
133529877.000000,153408475.000000
133528672.000000,153409865.000000
133527001.000000,153417548.000000
133527001.000000,154109669.000000
133527371.000000,154116490.000000
133532895.000000,154167352.000000
133536521.000000,154182604.000000
133581676.000000,154303054.000000
133590214.000000,154318649.000000
133666715.000000,154420724.000000
133679276.000000,154433285.000000
133781351.000000,154509786.000000
133796946.000000,154518324.000000
133917394.000000,154563478.000000
133932649.000000,154567105.000000
133983514.000000,154572631.000000
133990328.000000,154573000.000000
134303438.000000,154573000.000000
134371559.000000,154593002.000000
134418052.000000,154646658.000000
134428156.000000,154716932.000000
134398662.000000,154781512.000000
134351657.000000,154815408.000000
134323360.000000,154827129.000000
134288011.000000,154841771.000000
134288007.000000,154841773.000000
134283437.000000,154843666.000000
134072260.000000,154973075.000000
133883927.000000,155133927.000000
133723075.000000,155322260.000000
133593666.000000,155533437.000000
133498885.000000,155762258.000000
133497730.000000,155767070.000000
133442221.000000,155998276.000000
133442220.000000,155998282.000000
133441066.000000,156003089.000000
133421634.000000,156250000.000000
130508500.000000,156250000.000000
130508500.000000,152877885.000000
133527000.000000,152877885.000000
133531475.000000,152893124.000000
133532865.000000,152894329.000000
133540548.000000,152896000.000000
134727885.000000,152896000.000000
134743124.000000,152891525.000000
134744329.000000,152890135.000000
134746000.000000,152882452.000000
134746000.000000,152877885.000000
135254000.000000,152877885.000000
135258475.000000,152893124.000000
135259865.000000,152894329.000000
135267548.000000,152896000.000000
136454884.000000,152896000.000000
136470123.000000,152891525.000000
136471328.000000,152890135.000000
136472999.000000,152882452.000000
136472999.000000,152190331.000000
136472629.000000,152183510.000000
136467105.000000,152132648.000000
136463479.000000,152117396.000000
136418324.000000,151996946.000000
136409786.000000,151981351.000000
136333285.000000,151879276.000000
136320724.000000,151866715.000000
136218649.000000,151790214.000000
136203054.000000,151781676.000000
136082606.000000,151736522.000000
136067351.000000,151732895.000000
136016486.000000,151727369.000000
136009672.000000,151727000.000000
135272115.000000,151727000.000000
135256876.000000,151731475.000000
135255671.000000,151732865.000000
135254000.000000,151740548.000000
135254000.000000,152877885.000000
134746000.000000,152877885.000000
134746000.000000,151745116.000000
134741525.000000,151729877.000000
134740135.000000,151728672.000000
134732452.000000,151727001.000000
133990331.000000,151727001.000000
133983510.000000,151727371.000000
133932648.000000,151732895.000000
133917396.000000,151736521.000000
133796946.000000,151781676.000000
133781351.000000,151790214.000000
133679276.000000,151866715.000000
133666715.000000,151879276.000000
133590214.000000,151981351.000000
133581676.000000,151996946.000000
133536522.000000,152117394.000000
133532895.000000,152132649.000000
133527369.000000,152183514.000000
133527000.000000,152190328.000000
133527000.000000,152877885.000000
130508500.000000,152877885.000000
130508500.000000,150354669.000000
132217001.000000,150354669.000000
132217371.000000,150361490.000000
132222895.000000,150412352.000000
132226521.000000,150427604.000000
132271676.000000,150548054.000000
132280214.000000,150563649.000000
132356715.000000,150665724.000000
132369276.000000,150678285.000000
132471351.000000,150754786.000000
132486946.000000,150763324.000000
132607394.000000,150808478.000000
132622649.000000,150812105.000000
132673514.000000,150817631.000000
132680328.000000,150818000.000000
133352885.000000,150818000.000000
133368124.000000,150813525.000000
133369329.000000,150812135.000000
133371000.000000,150804452.000000
133371000.000000,150799884.000000
133879000.000000,150799884.000000
133883475.000000,150815123.000000
133884865.000000,150816328.000000
133892548.000000,150817999.000000
134569669.000000,150817999.000000
134576490.000000,150817629.000000
134627352.000000,150812105.000000
134642604.000000,150808479.000000
134763054.000000,150763324.000000
134778649.000000,150754786.000000
134880724.000000,150678285.000000
134893285.000000,150665724.000000
134969786.000000,150563649.000000
134978324.000000,150548054.000000
134999773.000000,150490840.000000
135042415.000000,150434075.000000
135108977.000000,150409376.000000
135178325.000000,150424584.000000
135198240.000000,150438126.000000
135354349.000000,150567730.000000
135554322.000000,150684584.000000
135770694.000000,150767209.000000
135775760.000000,150768240.000000
135775761.000000,150768240.000000
135828846.000000,150779040.000000
135997656.000000,150813385.000000
136128324.000000,150818176.000000
136223949.000000,150821683.000000
136223953.000000,150821683.000000
136229113.000000,150821872.000000
136234233.000000,150821216.000000
136234235.000000,150821216.000000
136333668.000000,150808478.000000
136458847.000000,150792442.000000
136463795.000000,150790957.000000
136463802.000000,150790956.000000
136675747.000000,150727369.000000
136680690.000000,150725886.000000
136761236.000000,150686427.000000
136884049.000000,150626262.000000
136884052.000000,150626260.000000
136888684.000000,150623991.000000
137077243.000000,150489494.000000
137241303.000000,150326005.000000
137376458.000000,150137917.000000
137479078.000000,149930280.000000
137546408.000000,149708671.000000
137576640.000000,149479041.000000
137578327.000000,149410000.000000
137572032.000000,149333434.000000
137559773.000000,149184318.000000
137559772.000000,149184312.000000
137559349.000000,149179167.000000
137502925.000000,148954533.000000
137410570.000000,148742131.000000
137284764.000000,148547665.000000
137128887.000000,148376358.000000
137124836.000000,148373159.000000
137124832.000000,148373155.000000
136951177.000000,148236011.000000
136951172.000000,148236008.000000
136947123.000000,148232810.000000
136942607.000000,148230317.000000
136942604.000000,148230315.000000
136748879.000000,148123373.000000
136748875.000000,148123371.000000
136744355.000000,148120876.000000
136739486.000000,148119152.000000
136739482.000000,148119150.000000
136530903.000000,148045288.000000
136530899.000000,148045287.000000
136526028.000000,148043562.000000
136520935.000000,148042655.000000
136520932.000000,148042654.000000
136303095.000000,148003851.000000
136303089.000000,148003850.000000
136298006.000000,148002945.000000
136220644.000000,148002000.000000
136071581.000000,148000179.000000
136071579.000000,148000179.000000
136066411.000000,148000116.000000
135837464.000000,148035150.000000
135617314.000000,148107106.000000
135612726.000000,148109494.000000
135612722.000000,148109496.000000
135416461.000000,148211663.000000
135411872.000000,148214052.000000
135407739.000000,148217155.000000
135407736.000000,148217157.000000
135230790.000000,148350012.000000
135226655.000000,148353117.000000
135223083.000000,148356855.000000
135208787.000000,148371815.000000
135147263.000000,148407245.000000
135076351.000000,148403788.000000
135018564.000000,148362543.000000
134999711.000000,148328994.000000
134978324.000000,148271946.000000
134969786.000000,148256351.000000
134893285.000000,148154276.000000
134880724.000000,148141715.000000
134778649.000000,148065214.000000
134763054.000000,148056676.000000
134642606.000000,148011522.000000
134627351.000000,148007895.000000
134576486.000000,148002369.000000
134569672.000000,148002000.000000
133897115.000000,148002000.000000
133881876.000000,148006475.000000
133880671.000000,148007865.000000
133879000.000000,148015548.000000
133879000.000000,150799884.000000
133371000.000000,150799884.000000
133371000.000000,149682115.000000
133366525.000000,149666876.000000
133365135.000000,149665671.000000
133357452.000000,149664000.000000
132235116.000000,149664000.000000
132219877.000000,149668475.000000
132218672.000000,149669865.000000
132217001.000000,149677548.000000
132217001.000000,150354669.000000
130508500.000000,150354669.000000
130508500.000000,149137885.000000
132217000.000000,149137885.000000
132221475.000000,149153124.000000
132222865.000000,149154329.000000
132230548.000000,149156000.000000
133352885.000000,149156000.000000
133368124.000000,149151525.000000
133369329.000000,149150135.000000
133371000.000000,149142452.000000
133371000.000000,148020116.000000
133366525.000000,148004877.000000
133365135.000000,148003672.000000
133357452.000000,148002001.000000
132680331.000000,148002001.000000
132673510.000000,148002371.000000
132622648.000000,148007895.000000
132607396.000000,148011521.000000
132486946.000000,148056676.000000
132471351.000000,148065214.000000
132369276.000000,148141715.000000
132356715.000000,148154276.000000
132280214.000000,148256351.000000
132271676.000000,148271946.000000
132226522.000000,148392394.000000
132222895.000000,148407649.000000
132217369.000000,148458514.000000
132217000.000000,148465328.000000
132217000.000000,149137885.000000
130508500.000000,149137885.000000
130508500.000000,144272095.000000
133067001.000000,144272095.000000
133067338.000000,144278614.000000
133077257.000000,144374206.000000
133080149.000000,144387600.000000
133131588.000000,144541784.000000
133137761.000000,144554962.000000
133223063.000000,144692807.000000
133232099.000000,144704208.000000
133346829.000000,144818739.000000
133358240.000000,144827751.000000
133496243.000000,144912816.000000
133509424.000000,144918963.000000
133663710.000000,144970138.000000
133677086.000000,144973005.000000
133771438.000000,144982672.000000
133777854.000000,144983000.000000
133890385.000000,144983000.000000
133905624.000000,144978525.000000
133906829.000000,144977135.000000
133908500.000000,144969452.000000
133908500.000000,144022115.000000
133904025.000000,144006876.000000
133902635.000000,144005671.000000
133894952.000000,144004000.000000
133085116.000000,144004000.000000
133069877.000000,144008475.000000
133068672.000000,144009865.000000
133067001.000000,144017548.000000
133067001.000000,144272095.000000
130508500.000000,144272095.000000
130508500.000000,141940400.000000
132351500.000000,141940400.000000
132351837.000000,141943646.000000
132351837.000000,141943650.000000
132357298.000000,141996277.000000
132362474.000000,142046166.000000
132364655.000000,142052702.000000
132364655.000000,142052704.000000
132408728.000000,142184806.000000
132418450.000000,142213946.000000
132511522.000000,142364348.000000
132636697.000000,142489305.000000
132642927.000000,142493145.000000
132642928.000000,142493146.000000
132756953.000000,142563432.000000
132787262.000000,142582115.000000
132867005.000000,142608564.000000
132948611.000000,142635632.000000
132948613.000000,142635632.000000
132955139.000000,142637797.000000
132961975.000000,142638497.000000
132961978.000000,142638498.000000
133005031.000000,142642909.000000
133059600.000000,142648500.000000
133095032.000000,142648500.000000
133163153.000000,142668502.000000
133209646.000000,142722158.000000
133219750.000000,142792432.000000
133202292.000000,142840615.000000
133137186.000000,142946238.000000
133131037.000000,142959424.000000
133079862.000000,143113710.000000
133076995.000000,143127086.000000
133067328.000000,143221438.000000
133067000.000000,143227855.000000
133067000.000000,143477885.000000
133071475.000000,143493124.000000
133072865.000000,143494329.000000
133080548.000000,143496000.000000
134290500.000000,143496000.000000
134358621.000000,143516002.000000
134405114.000000,143569658.000000
134416500.000000,143622000.000000
134416500.000000,144964884.000000
134420975.000000,144980123.000000
134422365.000000,144981328.000000
134430048.000000,144982999.000000
134547095.000000,144982999.000000
134553614.000000,144982662.000000
134649206.000000,144972743.000000
134662600.000000,144969851.000000
134816784.000000,144918412.000000
134829962.000000,144912239.000000
134967807.000000,144826937.000000
134979208.000000,144817901.000000
135093738.000000,144703172.000000
135100794.000000,144694238.000000
135158712.000000,144653177.000000
135229635.000000,144649947.000000
135291046.000000,144685574.000000
135297846.000000,144693407.000000
135301522.000000,144699348.000000
135426697.000000,144824305.000000
135432927.000000,144828145.000000
135432928.000000,144828146.000000
135570288.000000,144912816.000000
135577262.000000,144917115.000000
135657005.000000,144943564.000000
135738611.000000,144970632.000000
135738613.000000,144970632.000000
135745139.000000,144972797.000000
135751975.000000,144973497.000000
135751978.000000,144973498.000000
135795031.000000,144977909.000000
135849600.000000,144983500.000000
136625400.000000,144983500.000000
136628646.000000,144983163.000000
136628650.000000,144983163.000000
136724308.000000,144973238.000000
136724312.000000,144973237.000000
136731166.000000,144972526.000000
136737702.000000,144970345.000000
136737704.000000,144970345.000000
136869806.000000,144926272.000000
136898946.000000,144916550.000000
137049348.000000,144823478.000000
137174305.000000,144698303.000000
137267115.000000,144547738.000000
137322797.000000,144379861.000000
137333500.000000,144275400.000000
137333500.000000,143224600.000000
137333163.000000,143221350.000000
137323238.000000,143125692.000000
137323237.000000,143125688.000000
137322526.000000,143118834.000000
137266550.000000,142951054.000000
137173478.000000,142800652.000000
137082982.000000,142710313.000000
137048903.000000,142648032.000000
137046000.000000,142621141.000000
137046000.000000,142455884.000000
137066002.000000,142387763.000000
137098832.000000,142353305.000000
137125656.000000,142334172.000000
137125659.000000,142334170.000000
137129860.000000,142331173.000000
137288096.000000,142173489.000000
137418453.000000,141992077.000000
137445608.000000,141937134.000000
137515136.000000,141796453.000000
137515137.000000,141796451.000000
137517430.000000,141791811.000000
137582370.000000,141578069.000000
137611529.000000,141356590.000000
137613156.000000,141290000.000000
137594852.000000,141067361.000000
137540431.000000,140850702.000000
137451354.000000,140645840.000000
137330014.000000,140458277.000000
137179670.000000,140293051.000000
137175619.000000,140289852.000000
137175615.000000,140289848.000000
137008414.000000,140157800.000000
137008410.000000,140157798.000000
137004359.000000,140154598.000000
136962569.000000,140131529.000000
136912598.000000,140081097.000000
136897826.000000,140011654.000000
136922942.000000,139945248.000000
136950293.000000,139918642.000000
136999247.000000,139883723.000000
137007648.000000,139873023.000000
137000660.000000,139859870.000000
136262812.000000,139122022.000000
136248868.000000,139114408.000000
136247035.000000,139114539.000000
136240420.000000,139118790.000000
135496737.000000,139862473.000000
135489977.000000,139874853.000000
135495258.000000,139881907.000000
135541969.000000,139909203.000000
135590693.000000,139960841.000000
135603764.000000,140030624.000000
135577033.000000,140096396.000000
135536584.000000,140129752.000000
135523607.000000,140136507.000000
135519474.000000,140139610.000000
135519471.000000,140139612.000000
135349100.000000,140267530.000000
135344965.000000,140270635.000000
135253781.000000,140366054.000000
135211027.000000,140410793.000000
135149503.000000,140446223.000000
135078590.000000,140442766.000000
135020804.000000,140401520.000000
135005833.000000,140377194.000000
135003865.000000,140372993.000000
135001550.000000,140366054.000000
134908478.000000,140215652.000000
134783303.000000,140090695.000000
134690284.000000,140033357.000000
134638968.000000,140001725.000000
134638966.000000,140001724.000000
134632738.000000,139997885.000000
134578974.000000,139980052.000000
134557640.000000,139972976.000000
134499280.000000,139932545.000000
134488729.000000,139907146.000000
134486424.000000,139908370.000000
134460660.000000,139859870.000000
133722812.000000,139122022.000000
133708868.000000,139114408.000000
133707035.000000,139114539.000000
133700420.000000,139118790.000000
132956737.000000,139862473.000000
132933985.000000,139904139.000000
132931777.000000,139914287.000000
132881574.000000,139964488.000000
132861067.000000,139973424.000000
132786054.000000,139998450.000000
132635652.000000,140091522.000000
132630479.000000,140096704.000000
132572686.000000,140154598.000000
132510695.000000,140216697.000000
132506855.000000,140222927.000000
132506854.000000,140222928.000000
132422466.000000,140359831.000000
132417885.000000,140367262.000000
132362203.000000,140535139.000000
132351500.000000,140639600.000000
132351500.000000,141940400.000000
130508500.000000,141940400.000000
130508500.000000,138721863.000000
132348050.000000,138721863.000000
132360309.000000,138934477.000000
132361745.000000,138944697.000000
132408565.000000,139152446.000000
132411645.000000,139162275.000000
132491770.000000,139359603.000000
132496413.000000,139368794.000000
132576460.000000,139499420.000000
132586916.000000,139508880.000000
132595694.000000,139505096.000000
133337978.000000,138762812.000000
133344356.000000,138751132.000000
134074408.000000,138751132.000000
134074539.000000,138752965.000000
134078790.000000,138759580.000000
134820474.000000,139501264.000000
134832484.000000,139507823.000000
134844223.000000,139498855.000000
134878022.000000,139451819.000000
134879149.000000,139452629.000000
134926659.000000,139408881.000000
134996596.000000,139396661.000000
135062038.000000,139424191.000000
135089870.000000,139456029.000000
135116459.000000,139499419.000000
135126916.000000,139508880.000000
135135694.000000,139505096.000000
135877978.000000,138762812.000000
135884356.000000,138751132.000000
136614408.000000,138751132.000000
136614539.000000,138752965.000000
136618790.000000,138759580.000000
137360474.000000,139501264.000000
137372484.000000,139507823.000000
137384223.000000,139498855.000000
137415004.000000,139456019.000000
137420315.000000,139447180.000000
137514670.000000,139256267.000000
137518469.000000,139246672.000000
137580376.000000,139042915.000000
137582555.000000,139032834.000000
137610590.000000,138819887.000000
137611109.000000,138813212.000000
137612572.000000,138753364.000000
137612378.000000,138746646.000000
137594781.000000,138532604.000000
137593096.000000,138522424.000000
137541214.000000,138315875.000000
137537894.000000,138306124.000000
137452972.000000,138110814.000000
137448105.000000,138101739.000000
137383063.000000,138001197.000000
137372377.000000,137991995.000000
137362812.000000,137996398.000000
136622022.000000,138737188.000000
136614408.000000,138751132.000000
135884356.000000,138751132.000000
135885592.000000,138748868.000000
135885461.000000,138747035.000000
135881210.000000,138740420.000000
135139849.000000,137999059.000000
135128313.000000,137992759.000000
135116028.000000,138002384.000000
135083192.000000,138050520.000000
135028281.000000,138095523.000000
134957756.000000,138103694.000000
134894009.000000,138072440.000000
134873311.000000,138047955.000000
134843062.000000,138001197.000000
134832377.000000,137991995.000000
134822812.000000,137996398.000000
134082022.000000,138737188.000000
134074408.000000,138751132.000000
133344356.000000,138751132.000000
133345592.000000,138748868.000000
133345461.000000,138747035.000000
133341210.000000,138740420.000000
132599849.000000,137999059.000000
132588313.000000,137992759.000000
132576031.000000,138002382.000000
132528089.000000,138072662.000000
132523004.000000,138081613.000000
132433338.000000,138274783.000000
132429775.000000,138284470.000000
132372864.000000,138489681.000000
132370933.000000,138499800.000000
132348302.000000,138711574.000000
132348050.000000,138721863.000000
130508500.000000,138721863.000000
130508500.000000,137334853.000000
132949977.000000,137334853.000000
132955258.000000,137341907.000000
133002479.000000,137369501.000000
133051203.000000,137421139.000000
133064274.000000,137490922.000000
133037543.000000,137556694.000000
132997087.000000,137590053.000000
132988466.000000,137594541.000000
132979734.000000,137600039.000000
132959677.000000,137615099.000000
132951223.000000,137626427.000000
132957968.000000,137638758.000000
133697188.000000,138377978.000000
133711132.000000,138385592.000000
133712965.000000,138385461.000000
133719580.000000,138381210.000000
134463389.000000,137637401.000000
134470410.000000,137624544.000000
134463611.000000,137615213.000000
134459559.000000,137612521.000000
134422116.000000,137591852.000000
134372145.000000,137541420.000000
134357373.000000,137471977.000000
134382489.000000,137405572.000000
134409840.000000,137378965.000000
134459247.000000,137343723.000000
134466211.000000,137334853.000000
135489977.000000,137334853.000000
135495258.000000,137341907.000000
135542479.000000,137369501.000000
135591203.000000,137421139.000000
135604274.000000,137490922.000000
135577543.000000,137556694.000000
135537087.000000,137590053.000000
135528466.000000,137594541.000000
135519734.000000,137600039.000000
135499677.000000,137615099.000000
135491223.000000,137626427.000000
135497968.000000,137638758.000000
136237188.000000,138377978.000000
136251132.000000,138385592.000000
136252965.000000,138385461.000000
136259580.000000,138381210.000000
137003389.000000,137637401.000000
137010410.000000,137624544.000000
137003611.000000,137615213.000000
136999559.000000,137612521.000000
136962116.000000,137591852.000000
136912145.000000,137541420.000000
136897373.000000,137471977.000000
136922489.000000,137405572.000000
136949840.000000,137378965.000000
136999247.000000,137343723.000000
137007648.000000,137333023.000000
137000660.000000,137319870.000000
136262812.000000,136582022.000000
136248868.000000,136574408.000000
136247035.000000,136574539.000000
136240420.000000,136578790.000000
135496737.000000,137322473.000000
135489977.000000,137334853.000000
134466211.000000,137334853.000000
134467648.000000,137333023.000000
134460660.000000,137319870.000000
133722812.000000,136582022.000000
133708868.000000,136574408.000000
133707035.000000,136574539.000000
133700420.000000,136578790.000000
132956737.000000,137322473.000000
132949977.000000,137334853.000000
130508500.000000,137334853.000000
130508500.000000,136181863.000000
132348050.000000,136181863.000000
132360309.000000,136394477.000000
132361745.000000,136404697.000000
132408565.000000,136612446.000000
132411645.000000,136622275.000000
132491770.000000,136819603.000000
132496413.000000,136828794.000000
132576460.000000,136959420.000000
132586916.000000,136968880.000000
132595694.000000,136965096.000000
133337978.000000,136222812.000000
133344356.000000,136211132.000000
134074408.000000,136211132.000000
134074539.000000,136212965.000000
134078790.000000,136219580.000000
134820474.000000,136961264.000000
134832484.000000,136967823.000000
134844223.000000,136958855.000000
134878022.000000,136911819.000000
134879149.000000,136912629.000000
134926659.000000,136868881.000000
134996596.000000,136856661.000000
135062038.000000,136884191.000000
135089870.000000,136916029.000000
135116459.000000,136959419.000000
135126916.000000,136968880.000000
135135694.000000,136965096.000000
135877978.000000,136222812.000000
135884356.000000,136211132.000000
136614408.000000,136211132.000000
136614539.000000,136212965.000000
136618790.000000,136219580.000000
137360474.000000,136961264.000000
137372484.000000,136967823.000000
137384223.000000,136958855.000000
137415004.000000,136916019.000000
137420315.000000,136907180.000000
137514670.000000,136716267.000000
137518469.000000,136706672.000000
137580376.000000,136502915.000000
137582555.000000,136492834.000000
137610590.000000,136279887.000000
137611109.000000,136273212.000000
137612572.000000,136213364.000000
137612378.000000,136206646.000000
137594781.000000,135992604.000000
137593096.000000,135982424.000000
137541214.000000,135775875.000000
137537894.000000,135766124.000000
137452972.000000,135570814.000000
137448105.000000,135561739.000000
137383063.000000,135461197.000000
137372377.000000,135451995.000000
137362812.000000,135456398.000000
136622022.000000,136197188.000000
136614408.000000,136211132.000000
135884356.000000,136211132.000000
135885592.000000,136208868.000000
135885461.000000,136207035.000000
135881210.000000,136200420.000000
135139849.000000,135459059.000000
135128313.000000,135452759.000000
135116028.000000,135462384.000000
135083192.000000,135510520.000000
135028281.000000,135555523.000000
134957756.000000,135563694.000000
134894009.000000,135532440.000000
134873311.000000,135507955.000000
134843062.000000,135461197.000000
134832377.000000,135451995.000000
134822812.000000,135456398.000000
134082022.000000,136197188.000000
134074408.000000,136211132.000000
133344356.000000,136211132.000000
133345592.000000,136208868.000000
133345461.000000,136207035.000000
133341210.000000,136200420.000000
132599849.000000,135459059.000000
132588313.000000,135452759.000000
132576031.000000,135462382.000000
132528089.000000,135532662.000000
132523004.000000,135541613.000000
132433338.000000,135734783.000000
132429775.000000,135744470.000000
132372864.000000,135949681.000000
132370933.000000,135959800.000000
132348302.000000,136171574.000000
132348050.000000,136181863.000000
130508500.000000,136181863.000000
130508500.000000,134794853.000000
132949977.000000,134794853.000000
132955258.000000,134801907.000000
133002479.000000,134829501.000000
133051203.000000,134881139.000000
133064274.000000,134950922.000000
133037543.000000,135016694.000000
132997087.000000,135050053.000000
132988466.000000,135054541.000000
132979734.000000,135060039.000000
132959677.000000,135075099.000000
132951223.000000,135086427.000000
132957968.000000,135098758.000000
133697188.000000,135837978.000000
133711132.000000,135845592.000000
133712965.000000,135845461.000000
133719580.000000,135841210.000000
134463389.000000,135097401.000000
134470410.000000,135084544.000000
134463611.000000,135075213.000000
134459559.000000,135072521.000000
134422116.000000,135051852.000000
134372145.000000,135001420.000000
134357373.000000,134931977.000000
134382489.000000,134865572.000000
134409840.000000,134838965.000000
134459247.000000,134803723.000000
134466211.000000,134794853.000000
135489977.000000,134794853.000000
135495258.000000,134801907.000000
135542479.000000,134829501.000000
135591203.000000,134881139.000000
135604274.000000,134950922.000000
135577543.000000,135016694.000000
135537087.000000,135050053.000000
135528466.000000,135054541.000000
135519734.000000,135060039.000000
135499677.000000,135075099.000000
135491223.000000,135086427.000000
135497968.000000,135098758.000000
136237188.000000,135837978.000000
136251132.000000,135845592.000000
136252965.000000,135845461.000000
136259580.000000,135841210.000000
137003389.000000,135097401.000000
137010410.000000,135084544.000000
137003611.000000,135075213.000000
136999559.000000,135072521.000000
136962116.000000,135051852.000000
136912145.000000,135001420.000000
136897373.000000,134931977.000000
136922489.000000,134865572.000000
136949840.000000,134838965.000000
136999247.000000,134803723.000000
137007648.000000,134793023.000000
137000660.000000,134779870.000000
136262812.000000,134042022.000000
136248868.000000,134034408.000000
136247035.000000,134034539.000000
136240420.000000,134038790.000000
135496737.000000,134782473.000000
135489977.000000,134794853.000000
134466211.000000,134794853.000000
134467648.000000,134793023.000000
134460660.000000,134779870.000000
133722812.000000,134042022.000000
133708868.000000,134034408.000000
133707035.000000,134034539.000000
133700420.000000,134038790.000000
132956737.000000,134782473.000000
132949977.000000,134794853.000000
130508500.000000,134794853.000000
130508500.000000,133641863.000000
132348050.000000,133641863.000000
132360309.000000,133854477.000000
132361745.000000,133864697.000000
132408565.000000,134072446.000000
132411645.000000,134082275.000000
132491770.000000,134279603.000000
132496413.000000,134288794.000000
132576460.000000,134419420.000000
132586916.000000,134428880.000000
132595694.000000,134425096.000000
133337978.000000,133682812.000000
133344356.000000,133671132.000000
134074408.000000,133671132.000000
134074539.000000,133672965.000000
134078790.000000,133679580.000000
134820474.000000,134421264.000000
134832484.000000,134427823.000000
134844223.000000,134418855.000000
134878022.000000,134371819.000000
134879149.000000,134372629.000000
134926659.000000,134328881.000000
134996596.000000,134316661.000000
135062038.000000,134344191.000000
135089870.000000,134376029.000000
135116459.000000,134419419.000000
135126916.000000,134428880.000000
135135694.000000,134425096.000000
135877978.000000,133682812.000000
135884356.000000,133671132.000000
136614408.000000,133671132.000000
136614539.000000,133672965.000000
136618790.000000,133679580.000000
137360474.000000,134421264.000000
137372484.000000,134427823.000000
137384223.000000,134418855.000000
137415004.000000,134376019.000000
137420315.000000,134367180.000000
137514670.000000,134176267.000000
137518469.000000,134166672.000000
137580376.000000,133962915.000000
137582555.000000,133952834.000000
137610590.000000,133739887.000000
137611109.000000,133733212.000000
137612572.000000,133673364.000000
137612378.000000,133666646.000000
137594781.000000,133452604.000000
137593096.000000,133442424.000000
137541214.000000,133235875.000000
137537894.000000,133226124.000000
137452972.000000,133030814.000000
137448105.000000,133021739.000000
137383063.000000,132921197.000000
137372377.000000,132911995.000000
137362812.000000,132916398.000000
136622022.000000,133657188.000000
136614408.000000,133671132.000000
135884356.000000,133671132.000000
135885592.000000,133668868.000000
135885461.000000,133667035.000000
135881210.000000,133660420.000000
135139849.000000,132919059.000000
135128313.000000,132912759.000000
135116028.000000,132922384.000000
135083192.000000,132970520.000000
135028281.000000,133015523.000000
134957756.000000,133023694.000000
134894009.000000,132992440.000000
134873311.000000,132967955.000000
134843062.000000,132921197.000000
134832377.000000,132911995.000000
134822812.000000,132916398.000000
134082022.000000,133657188.000000
134074408.000000,133671132.000000
133344356.000000,133671132.000000
133345592.000000,133668868.000000
133345461.000000,133667035.000000
133341210.000000,133660420.000000
132599849.000000,132919059.000000
132588313.000000,132912759.000000
132576031.000000,132922382.000000
132528089.000000,132992662.000000
132523004.000000,133001613.000000
132433338.000000,133194783.000000
132429775.000000,133204470.000000
132372864.000000,133409681.000000
132370933.000000,133419800.000000
132348302.000000,133631574.000000
132348050.000000,133641863.000000
130508500.000000,133641863.000000
130508500.000000,131096695.000000
132347251.000000,131096695.000000
132347548.000000,131101848.000000
132347548.000000,131101851.000000
132353011.000000,131196590.000000
132360110.000000,131319715.000000
132361247.000000,131324761.000000
132361248.000000,131324767.000000
132381119.000000,131412939.000000
132409222.000000,131537639.000000
132493266.000000,131744616.000000
132609987.000000,131935088.000000
132756250.000000,132103938.000000
132928126.000000,132246632.000000
133001955.000000,132289774.000000
133050679.000000,132341412.000000
133063750.000000,132411195.000000
133037019.000000,132476967.000000
132996562.000000,132510327.000000
132988460.000000,132514544.000000
132979734.000000,132520039.000000
132959677.000000,132535099.000000
132951223.000000,132546427.000000
132957968.000000,132558758.000000
133697188.000000,133297978.000000
133711132.000000,133305592.000000
133712965.000000,133305461.000000
133719580.000000,133301210.000000
134463389.000000,132557401.000000
134470410.000000,132544544.000000
134463611.000000,132535213.000000
134459559.000000,132532521.000000
134422602.000000,132512120.000000
134372631.000000,132461687.000000
134357859.000000,132392245.000000
134382975.000000,132325839.000000
134410327.000000,132299232.000000
134433797.000000,132282491.000000
134589860.000000,132171173.000000
134748096.000000,132013489.000000
134800203.000000,131940974.000000
134856198.000000,131897326.000000
134902526.000000,131888500.000000
135052491.000000,131888500.000000
135120612.000000,131908502.000000
135149402.000000,131935595.000000
135149987.000000,131935088.000000
135296250.000000,132103938.000000
135468126.000000,132246632.000000
135541955.000000,132289774.000000
135590679.000000,132341412.000000
135603750.000000,132411195.000000
135577019.000000,132476967.000000
135536562.000000,132510327.000000
135528460.000000,132514544.000000
135519734.000000,132520039.000000
135499677.000000,132535099.000000
135491223.000000,132546427.000000
135497968.000000,132558758.000000
136237188.000000,133297978.000000
136251132.000000,133305592.000000
136252965.000000,133305461.000000
136259580.000000,133301210.000000
137003389.000000,132557401.000000
137010410.000000,132544544.000000
137003611.000000,132535213.000000
136999559.000000,132532521.000000
136962602.000000,132512120.000000
136912631.000000,132461687.000000
136897859.000000,132392245.000000
136922975.000000,132325839.000000
136950327.000000,132299232.000000
136973797.000000,132282491.000000
137129860.000000,132171173.000000
137288096.000000,132013489.000000
137347594.000000,131930689.000000
137415435.000000,131836277.000000
137418453.000000,131832077.000000
137517430.000000,131631811.000000
137582370.000000,131418069.000000
137611529.000000,131196590.000000
137613156.000000,131130000.000000
137594852.000000,130907361.000000
137540431.000000,130690702.000000
137451354.000000,130485840.000000
137377384.000000,130371500.000000
137332822.000000,130302617.000000
137332818.000000,130302612.000000
137330014.000000,130298277.000000
137179670.000000,130133051.000000
137175620.000000,130129852.000000
137056407.000000,130035703.000000
137015345.000000,129977785.000000
137008500.000000,129936821.000000
137008500.000000,129678543.000000
137027240.000000,129612427.000000
137063275.000000,129553968.000000
137063276.000000,129553966.000000
137067115.000000,129547738.000000
137122797.000000,129379861.000000
137133500.000000,129275400.000000
137133500.000000,128224600.000000
137133163.000000,128221350.000000
137123238.000000,128125692.000000
137123237.000000,128125688.000000
137122526.000000,128118834.000000
137066550.000000,127951054.000000
136973478.000000,127800652.000000
136848303.000000,127675695.000000
136842072.000000,127671854.000000
136703968.000000,127586725.000000
136703966.000000,127586724.000000
136697738.000000,127582885.000000
136617995.000000,127556436.000000
136536389.000000,127529368.000000
136536387.000000,127529368.000000
136529861.000000,127527203.000000
136523025.000000,127526503.000000
136523022.000000,127526502.000000
136479969.000000,127522091.000000
136425400.000000,127516500.000000
135649600.000000,127516500.000000
135646354.000000,127516837.000000
135646350.000000,127516837.000000
135550692.000000,127526762.000000
135550688.000000,127526763.000000
135543834.000000,127527474.000000
135537298.000000,127529655.000000
135537296.000000,127529655.000000
135520928.000000,127535116.000000
135376054.000000,127583450.000000
135225652.000000,127676522.000000
135100695.000000,127801697.000000
135097898.000000,127806235.000000
135040647.000000,127846824.000000
134969724.000000,127850054.000000
134908313.000000,127814428.000000
134900938.000000,127805932.000000
134892902.000000,127795793.000000
134778171.000000,127681261.000000
134766760.000000,127672249.000000
134628757.000000,127587184.000000
134615576.000000,127581037.000000
134461290.000000,127529862.000000
134447914.000000,127526995.000000
134353562.000000,127517328.000000
134347145.000000,127517000.000000
134234615.000000,127517000.000000
134219376.000000,127521475.000000
134218171.000000,127522865.000000
134216500.000000,127530548.000000
134216500.000000,128878000.000000
134196498.000000,128946121.000000
134142842.000000,128992614.000000
134090500.000000,129004000.000000
132885116.000000,129004000.000000
132869877.000000,129008475.000000
132868672.000000,129009865.000000
132867001.000000,129017548.000000
132867001.000000,129272095.000000
132867338.000000,129278614.000000
132877257.000000,129374206.000000
132880149.000000,129387600.000000
132931588.000000,129541784.000000
132937761.000000,129554962.000000
133023063.000000,129692807.000000
133032099.000000,129704208.000000
133073034.000000,129745072.000000
133107113.000000,129807355.000000
133102110.000000,129878175.000000
133059613.000000,129935048.000000
133042210.000000,129946000.000000
132983607.000000,129976507.000000
132979474.000000,129979610.000000
132979471.000000,129979612.000000
132809100.000000,130107530.000000
132804965.000000,130110635.000000
132650629.000000,130272138.000000
132647720.000000,130276403.000000
132647714.000000,130276411.000000
132596493.000000,130351498.000000
132524743.000000,130456680.000000
132430688.000000,130659305.000000
132370989.000000,130874570.000000
132347251.000000,131096695.000000
130508500.000000,131096695.000000
130508500.000000,128477885.000000
132867000.000000,128477885.000000
132871475.000000,128493124.000000
132872865.000000,128494329.000000
132880548.000000,128496000.000000
133690385.000000,128496000.000000
133705624.000000,128491525.000000
133706829.000000,128490135.000000
133708500.000000,128482452.000000
133708500.000000,127535116.000000
133704025.000000,127519877.000000
133702635.000000,127518672.000000
133694952.000000,127517001.000000
133577905.000000,127517001.000000
133571386.000000,127517338.000000
133475794.000000,127527257.000000
133462400.000000,127530149.000000
133308216.000000,127581588.000000
133295038.000000,127587761.000000
133157193.000000,127673063.000000
133145792.000000,127682099.000000
133031261.000000,127796829.000000
133022249.000000,127808240.000000
132937184.000000,127946243.000000
132931037.000000,127959424.000000
132879862.000000,128113710.000000
132876995.000000,128127086.000000
132867328.000000,128221438.000000
132867000.000000,128227855.000000
132867000.000000,128477885.000000
130508500.000000,128477885.000000
130508500.000000,75722520.000000
130528502.000000,75654399.000000
130582158.000000,75607906.000000
130652432.000000,75597802.000000
Z" /> 
</g>
</g>
</g> 
</svg>
