M48
; DRILL file {KiCad 6.0.10+dfsg-1~bpo11+1} date Saturday, 04 February, 2023 10:57:42 AM
; FORMAT={-:-/ absolute / inch / decimal}
; #@! TF.CreationDate,2023-02-04T10:57:42+08:00
; #@! TF.GenerationSoftware,Kicad,Pcbnew,6.0.10+dfsg-1~bpo11+1
; #@! TF.FileFunction,Plated,1,2,PTH
FMAT,2
INCH
; #@! TA.AperFunction,Plated,PTH,ViaDrill
T1C0.0157
; #@! TA.AperFunction,Plated,PTH,ComponentDrill
T2C0.0354
; #@! TA.AperFunction,Plated,PTH,ComponentDrill
T3C0.0394
; #@! TA.AperFunction,Plated,PTH,ComponentDrill
T4C0.0480
; #@! TA.AperFunction,Plated,PTH,ComponentDrill
T5C0.0559
; #@! TA.AperFunction,Plated,PTH,ComponentDrill
T6C0.0563
; #@! TA.AperFunction,Plated,PTH,ComponentDrill
T7C0.1260
; #@! TA.AperFunction,Plated,PTH,ComponentDrill
T8C0.2756
%
G90
G05
T1
X5.1476Y-6.4764
X5.1772Y-6.4272
X5.1969Y-5.0886
X5.1969Y-5.1673
X5.1969Y-5.2559
X5.1969Y-5.2953
X5.1969Y-5.3839
X5.1969Y-5.4331
X5.1969Y-5.502
X5.1969Y-5.8071
X5.2067Y-4.9114
X5.2067Y-5.6004
X5.2067Y-5.6299
X5.2067Y-5.9744
X5.2165Y-4.9803
X5.2165Y-5.6988
X5.2165Y-6.2205
X5.2165Y-6.3287
X5.2264Y-6.0925
X5.2264Y-6.4764
X5.2461Y-5.7283
X5.2461Y-6.1811
X5.2657Y-5.0
X5.2953Y-5.7382
X5.3839Y-5.7382
X5.3937Y-6.0827
X5.4035Y-6.1417
X5.4035Y-6.2598
X5.4035Y-6.4469
X5.4134Y-5.9941
X5.4134Y-6.3287
X5.4232Y-5.6004
X5.4232Y-6.1713
X5.4331Y-5.6791
X5.4331Y-6.4075
T2
X5.2608Y-5.8823
X5.3608Y-5.8823
T3
X5.2642Y-5.1626
X5.2642Y-5.2626
X5.2642Y-5.3626
X5.2642Y-5.4626
X5.2642Y-5.5626
X5.3642Y-5.1626
X5.3642Y-5.2626
X5.3642Y-5.3626
X5.3642Y-5.4626
X5.3642Y-5.5626
T4
X5.315Y-6.0295
T5
X5.315Y-6.1516
T6
X5.315Y-6.4783
T8
X4.4862Y-2.9032
X4.4862Y-3.6909
T2
G00X5.1949Y-2.5768
M15
G01X5.2461Y-2.5768
M16
G05
G00X5.1949Y-2.7618
M15
G01X5.2461Y-2.7618
M16
G05
G00X5.1949Y-2.9469
M15
G01X5.2461Y-2.9469
M16
G05
G00X5.3839Y-2.5768
M15
G01X5.435Y-2.5768
M16
G05
G00X5.3839Y-2.7618
M15
G01X5.435Y-2.7618
M16
G05
G00X5.3839Y-2.9469
M15
G01X5.435Y-2.9469
M16
G05
T7
G00X4.5886Y-2.0827
M15
G01X4.5886Y-2.0827
M16
G05
G00X4.5886Y-6.9055
M15
G01X4.5886Y-6.9055
M16
G05
T0
M30
