<?xml version="1.0" standalone="no"?>
 <!DOCTYPE svg PUBLIC "-//W3C//DTD SVG 1.1//EN" 
 "http://www.w3.org/Graphics/SVG/1.1/DTD/svg11.dtd"> 
<svg
  xmlns:svg="http://www.w3.org/2000/svg"
  xmlns="http://www.w3.org/2000/svg"
  xmlns:xlink="http://www.w3.org/1999/xlink"
  version="1.1"
  width="29.700220cm" height="21.000720cm" viewBox="0 0 297002200 210007200">
<title>SVG Picture created as MiniLFO-F_Paste.svg date 2023/02/04 10:57:40 </title>
  <desc>Picture generated by PCBNEW </desc>
<g style="fill:#000000; fill-opacity:1.000000;stroke:#000000; stroke-opacity:1.000000;
stroke-linecap:round; stroke-linejoin:round;"
 transform="translate(0 0) scale(1 1)">
</g>
<g style="fill:#000000; fill-opacity:0.0; 
stroke:#000000; stroke-width:0.000000; stroke-opacity:1; 
stroke-linecap:round; stroke-linejoin:round;">
<g >
</g>
<g >
</g>
<g style="fill:#000000; fill-opacity:0.0; 
stroke:#000000; stroke-width:0.000000; stroke-opacity:1; 
stroke-linecap:round; stroke-linejoin:round;">
</g>
<g style="fill:#000000; fill-opacity:0.0; 
stroke:#000000; stroke-width:1.000000; stroke-opacity:1; 
stroke-linecap:round; stroke-linejoin:round;">
</g>
<g style="fill:#000000; fill-opacity:1.0; 
stroke:#000000; stroke-width:1.000000; stroke-opacity:1; 
stroke-linecap:round; stroke-linejoin:round;">
<path style="fill:#000000; fill-opacity:1.0; 
stroke:#000000; stroke-width:1.000000; stroke-opacity:1; 
stroke-linecap:round; stroke-linejoin:round;fill-rule:evenodd;"
d="M 133575000.000000,143275000.000000
133594030.000000,143179329.000000
133648223.000000,143098223.000000
133729329.000000,143044030.000000
133825000.000000,143025000.000000
134500000.000000,143025000.000000
134595671.000000,143044030.000000
134676777.000000,143098223.000000
134730970.000000,143179329.000000
134750000.000000,143275000.000000
134750000.000000,144225000.000000
134730970.000000,144320671.000000
134676777.000000,144401777.000000
134595671.000000,144455970.000000
134500000.000000,144475000.000000
133825000.000000,144475000.000000
133729329.000000,144455970.000000
133648223.000000,144401777.000000
133594030.000000,144320671.000000
133575000.000000,144225000.000000
Z" /> 
<path style="fill:#000000; fill-opacity:1.0; 
stroke:#000000; stroke-width:1.000000; stroke-opacity:1; 
stroke-linecap:round; stroke-linejoin:round;fill-rule:evenodd;"
d="M 135650000.000000,143275000.000000
135669030.000000,143179329.000000
135723223.000000,143098223.000000
135804329.000000,143044030.000000
135900000.000000,143025000.000000
136575000.000000,143025000.000000
136670671.000000,143044030.000000
136751777.000000,143098223.000000
136805970.000000,143179329.000000
136825000.000000,143275000.000000
136825000.000000,144225000.000000
136805970.000000,144320671.000000
136751777.000000,144401777.000000
136670671.000000,144455970.000000
136575000.000000,144475000.000000
135900000.000000,144475000.000000
135804329.000000,144455970.000000
135723223.000000,144401777.000000
135669030.000000,144320671.000000
135650000.000000,144225000.000000
Z" /> 
</g>
<g >
</g>
<g style="fill:#000000; fill-opacity:1.0; 
stroke:#000000; stroke-width:1.000000; stroke-opacity:1; 
stroke-linecap:round; stroke-linejoin:round;">
<path style="fill:#000000; fill-opacity:1.0; 
stroke:#000000; stroke-width:1.000000; stroke-opacity:1; 
stroke-linecap:round; stroke-linejoin:round;fill-rule:evenodd;"
d="M 137025000.000000,80462500.000000
136929329.000000,80443470.000000
136848223.000000,80389277.000000
136794030.000000,80308171.000000
136775000.000000,80212500.000000
136775000.000000,79537500.000000
136794030.000000,79441829.000000
136848223.000000,79360723.000000
136929329.000000,79306530.000000
137025000.000000,79287500.000000
137975000.000000,79287500.000000
138070671.000000,79306530.000000
138151777.000000,79360723.000000
138205970.000000,79441829.000000
138225000.000000,79537500.000000
138225000.000000,80212500.000000
138205970.000000,80308171.000000
138151777.000000,80389277.000000
138070671.000000,80443470.000000
137975000.000000,80462500.000000
Z" /> 
<path style="fill:#000000; fill-opacity:1.0; 
stroke:#000000; stroke-width:1.000000; stroke-opacity:1; 
stroke-linecap:round; stroke-linejoin:round;fill-rule:evenodd;"
d="M 137025000.000000,78387500.000000
136929329.000000,78368470.000000
136848223.000000,78314277.000000
136794030.000000,78233171.000000
136775000.000000,78137500.000000
136775000.000000,77462500.000000
136794030.000000,77366829.000000
136848223.000000,77285723.000000
136929329.000000,77231530.000000
137025000.000000,77212500.000000
137975000.000000,77212500.000000
138070671.000000,77231530.000000
138151777.000000,77285723.000000
138205970.000000,77366829.000000
138225000.000000,77462500.000000
138225000.000000,78137500.000000
138205970.000000,78233171.000000
138151777.000000,78314277.000000
138070671.000000,78368470.000000
137975000.000000,78387500.000000
Z" /> 
</g>
<g >
</g>
<g >
</g>
<g >
</g>
<g style="fill:#000000; fill-opacity:1.0; 
stroke:#000000; stroke-width:1.000000; stroke-opacity:1; 
stroke-linecap:round; stroke-linejoin:round;">
<path style="fill:#000000; fill-opacity:1.0; 
stroke:#000000; stroke-width:1.000000; stroke-opacity:1; 
stroke-linecap:round; stroke-linejoin:round;fill-rule:evenodd;"
d="M 136625000.000000,129225000.000000
136605970.000000,129320671.000000
136551777.000000,129401777.000000
136470671.000000,129455970.000000
136375000.000000,129475000.000000
135700000.000000,129475000.000000
135604329.000000,129455970.000000
135523223.000000,129401777.000000
135469030.000000,129320671.000000
135450000.000000,129225000.000000
135450000.000000,128275000.000000
135469030.000000,128179329.000000
135523223.000000,128098223.000000
135604329.000000,128044030.000000
135700000.000000,128025000.000000
136375000.000000,128025000.000000
136470671.000000,128044030.000000
136551777.000000,128098223.000000
136605970.000000,128179329.000000
136625000.000000,128275000.000000
Z" /> 
<path style="fill:#000000; fill-opacity:1.0; 
stroke:#000000; stroke-width:1.000000; stroke-opacity:1; 
stroke-linecap:round; stroke-linejoin:round;fill-rule:evenodd;"
d="M 134550000.000000,129225000.000000
134530970.000000,129320671.000000
134476777.000000,129401777.000000
134395671.000000,129455970.000000
134300000.000000,129475000.000000
133625000.000000,129475000.000000
133529329.000000,129455970.000000
133448223.000000,129401777.000000
133394030.000000,129320671.000000
133375000.000000,129225000.000000
133375000.000000,128275000.000000
133394030.000000,128179329.000000
133448223.000000,128098223.000000
133529329.000000,128044030.000000
133625000.000000,128025000.000000
134300000.000000,128025000.000000
134395671.000000,128044030.000000
134476777.000000,128098223.000000
134530970.000000,128179329.000000
134550000.000000,128275000.000000
Z" /> 
</g>
<g >
</g>
<g style="fill:#000000; fill-opacity:1.0; 
stroke:#000000; stroke-width:1.000000; stroke-opacity:1; 
stroke-linecap:round; stroke-linejoin:round;">
<path style="fill:#000000; fill-opacity:1.0; 
stroke:#000000; stroke-width:1.000000; stroke-opacity:1; 
stroke-linecap:round; stroke-linejoin:round;fill-rule:evenodd;"
d="M 132125000.000000,80475000.000000
132029329.000000,80455970.000000
131948223.000000,80401777.000000
131894030.000000,80320671.000000
131875000.000000,80225000.000000
131875000.000000,79550000.000000
131894030.000000,79454329.000000
131948223.000000,79373223.000000
132029329.000000,79319030.000000
132125000.000000,79300000.000000
133075000.000000,79300000.000000
133170671.000000,79319030.000000
133251777.000000,79373223.000000
133305970.000000,79454329.000000
133325000.000000,79550000.000000
133325000.000000,80225000.000000
133305970.000000,80320671.000000
133251777.000000,80401777.000000
133170671.000000,80455970.000000
133075000.000000,80475000.000000
Z" /> 
<path style="fill:#000000; fill-opacity:1.0; 
stroke:#000000; stroke-width:1.000000; stroke-opacity:1; 
stroke-linecap:round; stroke-linejoin:round;fill-rule:evenodd;"
d="M 132125000.000000,78400000.000000
132029329.000000,78380970.000000
131948223.000000,78326777.000000
131894030.000000,78245671.000000
131875000.000000,78150000.000000
131875000.000000,77475000.000000
131894030.000000,77379329.000000
131948223.000000,77298223.000000
132029329.000000,77244030.000000
132125000.000000,77225000.000000
133075000.000000,77225000.000000
133170671.000000,77244030.000000
133251777.000000,77298223.000000
133305970.000000,77379329.000000
133325000.000000,77475000.000000
133325000.000000,78150000.000000
133305970.000000,78245671.000000
133251777.000000,78326777.000000
133170671.000000,78380970.000000
133075000.000000,78400000.000000
Z" /> 
</g>
<g >
</g>
<g >
</g>
<g >
</g>
<g >
</g>
<g >
</g>
<g >
</g>
<g >
</g>
</g> 
</svg>
