<?xml version="1.0" standalone="no"?>
 <!DOCTYPE svg PUBLIC "-//W3C//DTD SVG 1.1//EN" 
 "http://www.w3.org/Graphics/SVG/1.1/DTD/svg11.dtd"> 
<svg
  xmlns:svg="http://www.w3.org/2000/svg"
  xmlns="http://www.w3.org/2000/svg"
  xmlns:xlink="http://www.w3.org/1999/xlink"
  version="1.1"
  width="29.700220cm" height="21.000720cm" viewBox="0 0 297002200 210007200">
<title>SVG Picture created as MiniLFO-B_Cu.svg date 2023/02/04 10:57:40 </title>
  <desc>Picture generated by PCBNEW </desc>
<g style="fill:#000000; fill-opacity:1.000000;stroke:#000000; stroke-opacity:1.000000;
stroke-linecap:round; stroke-linejoin:round;"
 transform="translate(0 0) scale(1 1)">
</g>
<g style="fill:#000000; fill-opacity:0.0; 
stroke:#000000; stroke-width:0.000000; stroke-opacity:1; 
stroke-linecap:round; stroke-linejoin:round;">
<g >
</g>
<g style="fill:#000000; fill-opacity:0.0; 
stroke:#000000; stroke-width:1800000.000000; stroke-opacity:1; 
stroke-linecap:round; stroke-linejoin:round;">
<path d="M131900000 70150000
L133300000 70150000
" />
<path d="M131900000 65450000
L133300000 65450000
" />
<path d="M131900000 74850000
L133300000 74850000
" />
<path d="M136700000 70150000
L138100000 70150000
" />
<path d="M136700000 65450000
L138100000 65450000
" />
<path d="M136700000 74850000
L138100000 74850000
" />
</g>
<g >
</g>
<g >
</g>
<g >
</g>
<g style="fill:#000000; fill-opacity:0.0; 
stroke:#000000; stroke-width:1800000.000000; stroke-opacity:1; 
stroke-linecap:round; stroke-linejoin:round;">
</g>
<g style="fill:#000000; fill-opacity:0.0; 
stroke:#000000; stroke-width:1.000000; stroke-opacity:1; 
stroke-linecap:round; stroke-linejoin:round;">
</g>
<g style="fill:#000000; fill-opacity:1.0; 
stroke:#000000; stroke-width:1.000000; stroke-opacity:1; 
stroke-linecap:round; stroke-linejoin:round;">
<path style="fill:#000000; fill-opacity:1.0; 
stroke:#000000; stroke-width:1.000000; stroke-opacity:1; 
stroke-linecap:round; stroke-linejoin:round;fill-rule:evenodd;"
d="M 135965000.000000,152235000.000000
135965000.000000,154065000.000000
134035000.000000,154065000.000000
134035000.000000,152235000.000000
Z" /> 
<circle cx="135000000.000000" cy="164550000.000000" r="1065000.000000" /> 
</g>
<g style="fill:#000000; fill-opacity:1.0; 
stroke:#000000; stroke-width:21200.000000; stroke-opacity:1; 
stroke-linecap:round; stroke-linejoin:round;">
</g>
<g style="fill:#000000; fill-opacity:1.0; 
stroke:#000000; stroke-width:1.000000; stroke-opacity:1; 
stroke-linecap:round; stroke-linejoin:round;">
<circle cx="135000000.000000" cy="156250000.000000" r="1065000.000000" /> 
</g>
<g style="fill:#000000; fill-opacity:1.0; 
stroke:#000000; stroke-width:21200.000000; stroke-opacity:1; 
stroke-linecap:round; stroke-linejoin:round;">
</g>
<g >
</g>
<g style="fill:#000000; fill-opacity:1.0; 
stroke:#000000; stroke-width:21200.000000; stroke-opacity:1; 
stroke-linecap:round; stroke-linejoin:round;">
</g>
<g style="fill:#000000; fill-opacity:1.0; 
stroke:#000000; stroke-width:1.000000; stroke-opacity:1; 
stroke-linecap:round; stroke-linejoin:round;">
<circle cx="113950000.000000" cy="73742500.000000" r="4000000.000000" /> 
</g>
<g style="fill:#000000; fill-opacity:1.0; 
stroke:#000000; stroke-width:21200.000000; stroke-opacity:1; 
stroke-linecap:round; stroke-linejoin:round;">
</g>
<g >
</g>
<g >
</g>
<g >
</g>
<g style="fill:#000000; fill-opacity:1.0; 
stroke:#000000; stroke-width:21200.000000; stroke-opacity:1; 
stroke-linecap:round; stroke-linejoin:round;">
</g>
<g style="fill:#000000; fill-opacity:1.0; 
stroke:#000000; stroke-width:1.000000; stroke-opacity:1; 
stroke-linecap:round; stroke-linejoin:round;">
<circle cx="116550000.000000" cy="175400000.000000" r="2100000.000000" /> 
<circle cx="116550000.000000" cy="52900000.000000" r="2100000.000000" /> 
</g>
<g >
</g>
<g style="fill:#000000; fill-opacity:1.0; 
stroke:#000000; stroke-width:1.000000; stroke-opacity:1; 
stroke-linecap:round; stroke-linejoin:round;">
<path style="fill:#000000; fill-opacity:1.0; 
stroke:#000000; stroke-width:1.000000; stroke-opacity:1; 
stroke-linecap:round; stroke-linejoin:round;fill-rule:evenodd;"
d="M 132725000.000000,150310000.000000
132725000.000000,148510000.000000
134525000.000000,148510000.000000
134525000.000000,150310000.000000
Z" /> 
<circle cx="136165000.000000" cy="149410000.000000" r="900000.000000" /> 
</g>
<g style="fill:#000000; fill-opacity:1.0; 
stroke:#000000; stroke-width:21200.000000; stroke-opacity:1; 
stroke-linecap:round; stroke-linejoin:round;">
</g>
<g >
</g>
<g style="fill:#000000; fill-opacity:1.0; 
stroke:#000000; stroke-width:21200.000000; stroke-opacity:1; 
stroke-linecap:round; stroke-linejoin:round;">
</g>
<g style="fill:#000000; fill-opacity:1.0; 
stroke:#000000; stroke-width:1.000000; stroke-opacity:1; 
stroke-linecap:round; stroke-linejoin:round;">
<circle cx="113950000.000000" cy="93750000.000000" r="4000000.000000" /> 
</g>
<g style="fill:#000000; fill-opacity:1.0; 
stroke:#000000; stroke-width:21200.000000; stroke-opacity:1; 
stroke-linecap:round; stroke-linejoin:round;">
</g>
<g >
</g>
<g style="fill:#000000; fill-opacity:1.0; 
stroke:#000000; stroke-width:21200.000000; stroke-opacity:1; 
stroke-linecap:round; stroke-linejoin:round;">
</g>
<g style="fill:#000000; fill-opacity:1.0; 
stroke:#000000; stroke-width:1.000000; stroke-opacity:1; 
stroke-linecap:round; stroke-linejoin:round;">
<path style="fill:#000000; fill-opacity:1.0; 
stroke:#000000; stroke-width:1.000000; stroke-opacity:1; 
stroke-linecap:round; stroke-linejoin:round;fill-rule:evenodd;"
d="M 132860000.000000,140690000.000000
132879030.000000,140594329.000000
132933223.000000,140513223.000000
133014329.000000,140459030.000000
133110000.000000,140440000.000000
134310000.000000,140440000.000000
134405671.000000,140459030.000000
134486777.000000,140513223.000000
134540970.000000,140594329.000000
134560000.000000,140690000.000000
134560000.000000,141890000.000000
134540970.000000,141985671.000000
134486777.000000,142066777.000000
134405671.000000,142120970.000000
134310000.000000,142140000.000000
133110000.000000,142140000.000000
133014329.000000,142120970.000000
132933223.000000,142066777.000000
132879030.000000,141985671.000000
132860000.000000,141890000.000000
Z" /> 
<circle cx="136250000.000000" cy="141290000.000000" r="850000.000000" /> 
</g>
<g style="fill:#000000; fill-opacity:1.0; 
stroke:#000000; stroke-width:21200.000000; stroke-opacity:1; 
stroke-linecap:round; stroke-linejoin:round;">
</g>
<g style="fill:#000000; fill-opacity:1.0; 
stroke:#000000; stroke-width:1.000000; stroke-opacity:1; 
stroke-linecap:round; stroke-linejoin:round;">
<circle cx="133710000.000000" cy="138750000.000000" r="850000.000000" /> 
</g>
<g style="fill:#000000; fill-opacity:1.0; 
stroke:#000000; stroke-width:21200.000000; stroke-opacity:1; 
stroke-linecap:round; stroke-linejoin:round;">
</g>
<g style="fill:#000000; fill-opacity:1.0; 
stroke:#000000; stroke-width:1.000000; stroke-opacity:1; 
stroke-linecap:round; stroke-linejoin:round;">
<circle cx="136250000.000000" cy="138750000.000000" r="850000.000000" /> 
</g>
<g style="fill:#000000; fill-opacity:1.0; 
stroke:#000000; stroke-width:21200.000000; stroke-opacity:1; 
stroke-linecap:round; stroke-linejoin:round;">
</g>
<g style="fill:#000000; fill-opacity:1.0; 
stroke:#000000; stroke-width:1.000000; stroke-opacity:1; 
stroke-linecap:round; stroke-linejoin:round;">
<circle cx="133710000.000000" cy="136210000.000000" r="850000.000000" /> 
</g>
<g style="fill:#000000; fill-opacity:1.0; 
stroke:#000000; stroke-width:21200.000000; stroke-opacity:1; 
stroke-linecap:round; stroke-linejoin:round;">
</g>
<g style="fill:#000000; fill-opacity:1.0; 
stroke:#000000; stroke-width:1.000000; stroke-opacity:1; 
stroke-linecap:round; stroke-linejoin:round;">
<circle cx="136250000.000000" cy="136210000.000000" r="850000.000000" /> 
</g>
<g style="fill:#000000; fill-opacity:1.0; 
stroke:#000000; stroke-width:21200.000000; stroke-opacity:1; 
stroke-linecap:round; stroke-linejoin:round;">
</g>
<g style="fill:#000000; fill-opacity:1.0; 
stroke:#000000; stroke-width:1.000000; stroke-opacity:1; 
stroke-linecap:round; stroke-linejoin:round;">
<circle cx="133710000.000000" cy="133670000.000000" r="850000.000000" /> 
</g>
<g style="fill:#000000; fill-opacity:1.0; 
stroke:#000000; stroke-width:21200.000000; stroke-opacity:1; 
stroke-linecap:round; stroke-linejoin:round;">
</g>
<g style="fill:#000000; fill-opacity:1.0; 
stroke:#000000; stroke-width:1.000000; stroke-opacity:1; 
stroke-linecap:round; stroke-linejoin:round;">
<circle cx="136250000.000000" cy="133670000.000000" r="850000.000000" /> 
</g>
<g style="fill:#000000; fill-opacity:1.0; 
stroke:#000000; stroke-width:21200.000000; stroke-opacity:1; 
stroke-linecap:round; stroke-linejoin:round;">
</g>
<g style="fill:#000000; fill-opacity:1.0; 
stroke:#000000; stroke-width:1.000000; stroke-opacity:1; 
stroke-linecap:round; stroke-linejoin:round;">
<circle cx="133710000.000000" cy="131130000.000000" r="850000.000000" /> 
</g>
<g style="fill:#000000; fill-opacity:1.0; 
stroke:#000000; stroke-width:21200.000000; stroke-opacity:1; 
stroke-linecap:round; stroke-linejoin:round;">
</g>
<g style="fill:#000000; fill-opacity:1.0; 
stroke:#000000; stroke-width:1.000000; stroke-opacity:1; 
stroke-linecap:round; stroke-linejoin:round;">
<circle cx="136250000.000000" cy="131130000.000000" r="850000.000000" /> 
</g>
<g style="fill:#000000; fill-opacity:1.0; 
stroke:#000000; stroke-width:21200.000000; stroke-opacity:1; 
stroke-linecap:round; stroke-linejoin:round;">
</g>
<g >
</g>
<g style="fill:#000000; fill-opacity:1.0; 
stroke:#000000; stroke-width:21200.000000; stroke-opacity:1; 
stroke-linecap:round; stroke-linejoin:round;">
</g>
<g style="fill:#000000; fill-opacity:1.0; 
stroke:#000000; stroke-width:1.000000; stroke-opacity:1; 
stroke-linecap:round; stroke-linejoin:round;">
<circle cx="132750000.000000" cy="154750000.000000" r="400000.000000" /> 
</g>
<g style="fill:#000000; fill-opacity:1.0; 
stroke:#000000; stroke-width:21200.000000; stroke-opacity:1; 
stroke-linecap:round; stroke-linejoin:round;">
</g>
<g style="fill:#000000; fill-opacity:1.0; 
stroke:#000000; stroke-width:1.000000; stroke-opacity:1; 
stroke-linecap:round; stroke-linejoin:round;">
<circle cx="137000000.000000" cy="154500000.000000" r="400000.000000" /> 
</g>
<g style="fill:#000000; fill-opacity:1.0; 
stroke:#000000; stroke-width:21200.000000; stroke-opacity:1; 
stroke-linecap:round; stroke-linejoin:round;">
</g>
<g style="fill:#000000; fill-opacity:1.0; 
stroke:#000000; stroke-width:1.000000; stroke-opacity:1; 
stroke-linecap:round; stroke-linejoin:round;">
<circle cx="137750000.000000" cy="142250000.000000" r="400000.000000" /> 
</g>
<g style="fill:#000000; fill-opacity:1.0; 
stroke:#000000; stroke-width:21200.000000; stroke-opacity:1; 
stroke-linecap:round; stroke-linejoin:round;">
</g>
<g style="fill:#000000; fill-opacity:1.0; 
stroke:#000000; stroke-width:1.000000; stroke-opacity:1; 
stroke-linecap:round; stroke-linejoin:round;">
<circle cx="132000000.000000" cy="133500000.000000" r="400000.000000" /> 
</g>
<g style="fill:#000000; fill-opacity:1.0; 
stroke:#000000; stroke-width:21200.000000; stroke-opacity:1; 
stroke-linecap:round; stroke-linejoin:round;">
</g>
<g style="fill:#000000; fill-opacity:1.0; 
stroke:#000000; stroke-width:1.000000; stroke-opacity:1; 
stroke-linecap:round; stroke-linejoin:round;">
<circle cx="137250000.000000" cy="163750000.000000" r="400000.000000" /> 
</g>
<g style="fill:#000000; fill-opacity:1.0; 
stroke:#000000; stroke-width:21200.000000; stroke-opacity:1; 
stroke-linecap:round; stroke-linejoin:round;">
</g>
<g style="fill:#000000; fill-opacity:1.0; 
stroke:#000000; stroke-width:1.000000; stroke-opacity:1; 
stroke-linecap:round; stroke-linejoin:round;">
<circle cx="132500000.000000" cy="160750000.000000" r="400000.000000" /> 
</g>
<g style="fill:#000000; fill-opacity:1.0; 
stroke:#000000; stroke-width:21200.000000; stroke-opacity:1; 
stroke-linecap:round; stroke-linejoin:round;">
</g>
<g style="fill:#000000; fill-opacity:1.0; 
stroke:#000000; stroke-width:1.000000; stroke-opacity:1; 
stroke-linecap:round; stroke-linejoin:round;">
<circle cx="133250000.000000" cy="145500000.000000" r="400000.000000" /> 
</g>
<g style="fill:#000000; fill-opacity:1.0; 
stroke:#000000; stroke-width:21200.000000; stroke-opacity:1; 
stroke-linecap:round; stroke-linejoin:round;">
</g>
<g style="fill:#000000; fill-opacity:1.0; 
stroke:#000000; stroke-width:1.000000; stroke-opacity:1; 
stroke-linecap:round; stroke-linejoin:round;">
<circle cx="136750000.000000" cy="145750000.000000" r="400000.000000" /> 
</g>
<g style="fill:#000000; fill-opacity:1.0; 
stroke:#000000; stroke-width:21200.000000; stroke-opacity:1; 
stroke-linecap:round; stroke-linejoin:round;">
</g>
<g style="fill:#000000; fill-opacity:1.0; 
stroke:#000000; stroke-width:1.000000; stroke-opacity:1; 
stroke-linecap:round; stroke-linejoin:round;">
<circle cx="132250000.000000" cy="143000000.000000" r="400000.000000" /> 
</g>
<g style="fill:#000000; fill-opacity:1.0; 
stroke:#000000; stroke-width:21200.000000; stroke-opacity:1; 
stroke-linecap:round; stroke-linejoin:round;">
</g>
<g style="fill:#000000; fill-opacity:1.0; 
stroke:#000000; stroke-width:1.000000; stroke-opacity:1; 
stroke-linecap:round; stroke-linejoin:round;">
<circle cx="132750000.000000" cy="164500000.000000" r="400000.000000" /> 
</g>
<g style="fill:#000000; fill-opacity:1.0; 
stroke:#000000; stroke-width:21200.000000; stroke-opacity:1; 
stroke-linecap:round; stroke-linejoin:round;">
</g>
<g style="fill:#000000; fill-opacity:1.0; 
stroke:#000000; stroke-width:1.000000; stroke-opacity:1; 
stroke-linecap:round; stroke-linejoin:round;">
<circle cx="132500000.000000" cy="126500000.000000" r="400000.000000" /> 
</g>
<g style="fill:#000000; fill-opacity:1.0; 
stroke:#000000; stroke-width:21200.000000; stroke-opacity:1; 
stroke-linecap:round; stroke-linejoin:round;">
</g>
<g style="fill:#000000; fill-opacity:1.0; 
stroke:#000000; stroke-width:1.000000; stroke-opacity:1; 
stroke-linecap:round; stroke-linejoin:round;">
<circle cx="132000000.000000" cy="147500000.000000" r="400000.000000" /> 
</g>
<g style="fill:#000000; fill-opacity:1.0; 
stroke:#000000; stroke-width:21200.000000; stroke-opacity:1; 
stroke-linecap:round; stroke-linejoin:round;">
</g>
<g style="fill:#000000; fill-opacity:1.0; 
stroke:#000000; stroke-width:1.000000; stroke-opacity:1; 
stroke-linecap:round; stroke-linejoin:round;">
<circle cx="132000000.000000" cy="139750000.000000" r="400000.000000" /> 
</g>
<g style="fill:#000000; fill-opacity:1.0; 
stroke:#000000; stroke-width:21200.000000; stroke-opacity:1; 
stroke-linecap:round; stroke-linejoin:round;">
</g>
<g style="fill:#000000; fill-opacity:1.0; 
stroke:#000000; stroke-width:1.000000; stroke-opacity:1; 
stroke-linecap:round; stroke-linejoin:round;">
<circle cx="132000000.000000" cy="134500000.000000" r="400000.000000" /> 
</g>
<g style="fill:#000000; fill-opacity:1.0; 
stroke:#000000; stroke-width:21200.000000; stroke-opacity:1; 
stroke-linecap:round; stroke-linejoin:round;">
</g>
<g style="fill:#000000; fill-opacity:1.0; 
stroke:#000000; stroke-width:1.000000; stroke-opacity:1; 
stroke-linecap:round; stroke-linejoin:round;">
<circle cx="137500000.000000" cy="160750000.000000" r="400000.000000" /> 
</g>
<g style="fill:#000000; fill-opacity:1.0; 
stroke:#000000; stroke-width:21200.000000; stroke-opacity:1; 
stroke-linecap:round; stroke-linejoin:round;">
</g>
<g style="fill:#000000; fill-opacity:1.0; 
stroke:#000000; stroke-width:1.000000; stroke-opacity:1; 
stroke-linecap:round; stroke-linejoin:round;">
<circle cx="132500000.000000" cy="158000000.000000" r="400000.000000" /> 
</g>
<g style="fill:#000000; fill-opacity:1.0; 
stroke:#000000; stroke-width:21200.000000; stroke-opacity:1; 
stroke-linecap:round; stroke-linejoin:round;">
</g>
<g style="fill:#000000; fill-opacity:1.0; 
stroke:#000000; stroke-width:1.000000; stroke-opacity:1; 
stroke-linecap:round; stroke-linejoin:round;">
<circle cx="137500000.000000" cy="152250000.000000" r="400000.000000" /> 
</g>
<g style="fill:#000000; fill-opacity:1.0; 
stroke:#000000; stroke-width:21200.000000; stroke-opacity:1; 
stroke-linecap:round; stroke-linejoin:round;">
</g>
<g style="fill:#000000; fill-opacity:1.0; 
stroke:#000000; stroke-width:1.000000; stroke-opacity:1; 
stroke-linecap:round; stroke-linejoin:round;">
<circle cx="133750000.000000" cy="127000000.000000" r="400000.000000" /> 
</g>
<g style="fill:#000000; fill-opacity:1.0; 
stroke:#000000; stroke-width:21200.000000; stroke-opacity:1; 
stroke-linecap:round; stroke-linejoin:round;">
</g>
<g style="fill:#000000; fill-opacity:1.0; 
stroke:#000000; stroke-width:1.000000; stroke-opacity:1; 
stroke-linecap:round; stroke-linejoin:round;">
<circle cx="138000000.000000" cy="144250000.000000" r="400000.000000" /> 
</g>
<g style="fill:#000000; fill-opacity:1.0; 
stroke:#000000; stroke-width:21200.000000; stroke-opacity:1; 
stroke-linecap:round; stroke-linejoin:round;">
</g>
<g style="fill:#000000; fill-opacity:1.0; 
stroke:#000000; stroke-width:1.000000; stroke-opacity:1; 
stroke-linecap:round; stroke-linejoin:round;">
<circle cx="130750000.000000" cy="164500000.000000" r="400000.000000" /> 
</g>
<g style="fill:#000000; fill-opacity:1.0; 
stroke:#000000; stroke-width:21200.000000; stroke-opacity:1; 
stroke-linecap:round; stroke-linejoin:round;">
</g>
<g style="fill:#000000; fill-opacity:1.0; 
stroke:#000000; stroke-width:1.000000; stroke-opacity:1; 
stroke-linecap:round; stroke-linejoin:round;">
<circle cx="138000000.000000" cy="162750000.000000" r="400000.000000" /> 
</g>
<g style="fill:#000000; fill-opacity:1.0; 
stroke:#000000; stroke-width:21200.000000; stroke-opacity:1; 
stroke-linecap:round; stroke-linejoin:round;">
</g>
<g style="fill:#000000; fill-opacity:1.0; 
stroke:#000000; stroke-width:1.000000; stroke-opacity:1; 
stroke-linecap:round; stroke-linejoin:round;">
<circle cx="137250000.000000" cy="159000000.000000" r="400000.000000" /> 
</g>
<g style="fill:#000000; fill-opacity:1.0; 
stroke:#000000; stroke-width:21200.000000; stroke-opacity:1; 
stroke-linecap:round; stroke-linejoin:round;">
</g>
<g style="fill:#000000; fill-opacity:1.0; 
stroke:#000000; stroke-width:1.000000; stroke-opacity:1; 
stroke-linecap:round; stroke-linejoin:round;">
<circle cx="132000000.000000" cy="138000000.000000" r="400000.000000" /> 
</g>
<g style="fill:#000000; fill-opacity:1.0; 
stroke:#000000; stroke-width:21200.000000; stroke-opacity:1; 
stroke-linecap:round; stroke-linejoin:round;">
</g>
<g style="fill:#000000; fill-opacity:1.0; 
stroke:#000000; stroke-width:1.000000; stroke-opacity:1; 
stroke-linecap:round; stroke-linejoin:round;">
<circle cx="137750000.000000" cy="156750000.000000" r="400000.000000" /> 
</g>
<g style="fill:#000000; fill-opacity:1.0; 
stroke:#000000; stroke-width:21200.000000; stroke-opacity:1; 
stroke-linecap:round; stroke-linejoin:round;">
</g>
<g style="fill:#000000; fill-opacity:1.0; 
stroke:#000000; stroke-width:1.000000; stroke-opacity:1; 
stroke-linecap:round; stroke-linejoin:round;">
<circle cx="132250000.000000" cy="142250000.000000" r="400000.000000" /> 
</g>
<g style="fill:#000000; fill-opacity:1.0; 
stroke:#000000; stroke-width:21200.000000; stroke-opacity:1; 
stroke-linecap:round; stroke-linejoin:round;">
</g>
<g style="fill:#000000; fill-opacity:1.0; 
stroke:#000000; stroke-width:1.000000; stroke-opacity:1; 
stroke-linecap:round; stroke-linejoin:round;">
<circle cx="133250000.000000" cy="157000000.000000" r="400000.000000" /> 
</g>
<g style="fill:#000000; fill-opacity:1.0; 
stroke:#000000; stroke-width:21200.000000; stroke-opacity:1; 
stroke-linecap:round; stroke-linejoin:round;">
</g>
<g style="fill:#000000; fill-opacity:1.0; 
stroke:#000000; stroke-width:1.000000; stroke-opacity:1; 
stroke-linecap:round; stroke-linejoin:round;">
<circle cx="134500000.000000" cy="145750000.000000" r="400000.000000" /> 
</g>
<g style="fill:#000000; fill-opacity:1.0; 
stroke:#000000; stroke-width:21200.000000; stroke-opacity:1; 
stroke-linecap:round; stroke-linejoin:round;">
</g>
<g style="fill:#000000; fill-opacity:1.0; 
stroke:#000000; stroke-width:1.000000; stroke-opacity:1; 
stroke-linecap:round; stroke-linejoin:round;">
<circle cx="132000000.000000" cy="136750000.000000" r="400000.000000" /> 
</g>
<g style="fill:#000000; fill-opacity:1.0; 
stroke:#000000; stroke-width:21200.000000; stroke-opacity:1; 
stroke-linecap:round; stroke-linejoin:round;">
</g>
<g style="fill:#000000; fill-opacity:1.0; 
stroke:#000000; stroke-width:1.000000; stroke-opacity:1; 
stroke-linecap:round; stroke-linejoin:round;">
<circle cx="132000000.000000" cy="129250000.000000" r="400000.000000" /> 
</g>
<g style="fill:#000000; fill-opacity:1.0; 
stroke:#000000; stroke-width:21200.000000; stroke-opacity:1; 
stroke-linecap:round; stroke-linejoin:round;">
</g>
<g style="fill:#000000; fill-opacity:1.0; 
stroke:#000000; stroke-width:1.000000; stroke-opacity:1; 
stroke-linecap:round; stroke-linejoin:round;">
<circle cx="132250000.000000" cy="124750000.000000" r="400000.000000" /> 
</g>
<g style="fill:#000000; fill-opacity:1.0; 
stroke:#000000; stroke-width:21200.000000; stroke-opacity:1; 
stroke-linecap:round; stroke-linejoin:round;">
</g>
<g style="fill:#000000; fill-opacity:1.0; 
stroke:#000000; stroke-width:1.000000; stroke-opacity:1; 
stroke-linecap:round; stroke-linejoin:round;">
<circle cx="131500000.000000" cy="163250000.000000" r="400000.000000" /> 
</g>
<g style="fill:#000000; fill-opacity:1.0; 
stroke:#000000; stroke-width:21200.000000; stroke-opacity:1; 
stroke-linecap:round; stroke-linejoin:round;">
</g>
<g style="fill:#000000; fill-opacity:1.0; 
stroke:#000000; stroke-width:1.000000; stroke-opacity:1; 
stroke-linecap:round; stroke-linejoin:round;">
<circle cx="132000000.000000" cy="131250000.000000" r="400000.000000" /> 
</g>
<g style="fill:#000000; fill-opacity:1.0; 
stroke:#000000; stroke-width:21200.000000; stroke-opacity:1; 
stroke-linecap:round; stroke-linejoin:round;">
</g>
<g style="fill:#000000; fill-opacity:1.0; 
stroke:#000000; stroke-width:1.000000; stroke-opacity:1; 
stroke-linecap:round; stroke-linejoin:round;">
<circle cx="132250000.000000" cy="151750000.000000" r="400000.000000" /> 
</g>
<g style="fill:#000000; fill-opacity:1.0; 
stroke:#000000; stroke-width:21200.000000; stroke-opacity:1; 
stroke-linecap:round; stroke-linejoin:round;">
</g>
<g style="fill:#000000; fill-opacity:1.0; 
stroke:#000000; stroke-width:1.000000; stroke-opacity:1; 
stroke-linecap:round; stroke-linejoin:round;">
<circle cx="132500000.000000" cy="144750000.000000" r="400000.000000" /> 
</g>
<g style="fill:#000000; fill-opacity:1.0; 
stroke:#000000; stroke-width:21200.000000; stroke-opacity:1; 
stroke-linecap:round; stroke-linejoin:round;">
</g>
<g style="fill:#000000; fill-opacity:1.0; 
stroke:#000000; stroke-width:1.000000; stroke-opacity:1; 
stroke-linecap:round; stroke-linejoin:round;">
<circle cx="137250000.000000" cy="156000000.000000" r="400000.000000" /> 
</g>
<g style="fill:#000000; fill-opacity:1.0; 
stroke:#000000; stroke-width:21200.000000; stroke-opacity:1; 
stroke-linecap:round; stroke-linejoin:round;">
</g>
<g >
</g>
<g >
</g>
<g style="fill:#000000; fill-opacity:1.0; 
stroke:#000000; stroke-width:21200.000000; stroke-opacity:1; 
stroke-linecap:round; stroke-linejoin:round;">
<g >
</g>
<g style="fill:#000000; fill-opacity:1.0; 
stroke:#000000; stroke-width:1.000000; stroke-opacity:1; 
stroke-linecap:round; stroke-linejoin:round;">
<path style="fill:#000000; fill-opacity:1.0; 
stroke:#000000; stroke-width:1.000000; stroke-opacity:1; 
stroke-linecap:round; stroke-linejoin:round;fill-rule:evenodd;"
d="M 139433313.000000,63528502.000000
139479806.000000,63582158.000000
139491192.000000,63634561.000000
139490734.000000,64576280.000000
139470699.000000,64644391.000000
139417021.000000,64690858.000000
139346742.000000,64700928.000000
139282175.000000,64671403.000000
139257014.000000,64641583.000000
139244936.000000,64621678.000000
139244934.000000,64621675.000000
139242168.000000,64617117.000000
139210106.000000,64580169.000000
139089007.000000,64440614.000000
139089005.000000,64440612.000000
139085507.000000,64436581.000000
139081381.000000,64433198.000000
139081377.000000,64433194.000000
138904795.000000,64288407.000000
138900667.000000,64285022.000000
138896031.000000,64282383.000000
138896028.000000,64282381.000000
138697577.000000,64169416.000000
138692934.000000,64166773.000000
138468247.000000,64085216.000000
138462998.000000,64084267.000000
138462995.000000,64084266.000000
138237115.000000,64043420.000000
138237107.000000,64043419.000000
138233031.000000,64042682.000000
138214641.000000,64041815.000000
138209456.000000,64041570.000000
138209449.000000,64041570.000000
138207968.000000,64041500.000000
136639988.000000,64041500.000000
136461825.000000,64056617.000000
136456661.000000,64057957.000000
136456657.000000,64057958.000000
136235625.000000,64115327.000000
136235620.000000,64115329.000000
136230460.000000,64116668.000000
136225594.000000,64118860.000000
136017381.000000,64212653.000000
136017378.000000,64212654.000000
136012520.000000,64214843.000000
135814238.000000,64348334.000000
135641282.000000,64513326.000000
135498598.000000,64705100.000000
135390267.000000,64918172.000000
135354826.000000,65032312.000000
135320968.000000,65141349.000000
135320967.000000,65141355.000000
135319384.000000,65146452.000000
135287977.000000,65383411.000000
135296945.000000,65622274.000000
135346030.000000,65856211.000000
135433829.000000,66078533.000000
135557832.000000,66282883.000000
135561329.000000,66286913.000000
135651090.000000,66390353.000000
135714493.000000,66463419.000000
135718619.000000,66466802.000000
135718623.000000,66466806.000000
135817629.000000,66547985.000000
135899333.000000,66614978.000000
135903969.000000,66617617.000000
135903972.000000,66617619.000000
136017386.000000,66682178.000000
136107066.000000,66733227.000000
136331753.000000,66814784.000000
136337002.000000,66815733.000000
136337005.000000,66815734.000000
136562885.000000,66856580.000000
136562893.000000,66856581.000000
136566969.000000,66857318.000000
136585359.000000,66858185.000000
136590544.000000,66858430.000000
136590551.000000,66858430.000000
136592032.000000,66858500.000000
138160012.000000,66858500.000000
138338175.000000,66843383.000000
138343339.000000,66842043.000000
138343343.000000,66842042.000000
138564375.000000,66784673.000000
138564380.000000,66784671.000000
138569540.000000,66783332.000000
138686636.000000,66730584.000000
138782619.000000,66687347.000000
138782622.000000,66687346.000000
138787480.000000,66685157.000000
138985762.000000,66551666.000000
139158718.000000,66386674.000000
139206792.000000,66322060.000000
139262798.000000,66246786.000000
139319508.000000,66204073.000000
139390309.000000,66198800.000000
139452721.000000,66232643.000000
139486928.000000,66294855.000000
139489887.000000,66322060.000000
139488482.000000,69217604.000000
139488455.000000,69272523.000000
139468420.000000,69340634.000000
139414742.000000,69387101.000000
139344463.000000,69397171.000000
139279896.000000,69367646.000000
139254737.000000,69337828.000000
139244941.000000,69321685.000000
139244935.000000,69321676.000000
139242168.000000,69317117.000000
139152103.000000,69213326.000000
139089007.000000,69140614.000000
139089005.000000,69140612.000000
139085507.000000,69136581.000000
139081381.000000,69133198.000000
139081377.000000,69133194.000000
138904795.000000,68988407.000000
138900667.000000,68985022.000000
138896031.000000,68982383.000000
138896028.000000,68982381.000000
138697577.000000,68869416.000000
138692934.000000,68866773.000000
138468247.000000,68785216.000000
138462998.000000,68784267.000000
138462995.000000,68784266.000000
138237115.000000,68743420.000000
138237107.000000,68743419.000000
138233031.000000,68742682.000000
138214641.000000,68741815.000000
138209456.000000,68741570.000000
138209449.000000,68741570.000000
138207968.000000,68741500.000000
136639988.000000,68741500.000000
136461825.000000,68756617.000000
136456661.000000,68757957.000000
136456657.000000,68757958.000000
136235625.000000,68815327.000000
136235620.000000,68815329.000000
136230460.000000,68816668.000000
136225594.000000,68818860.000000
136017381.000000,68912653.000000
136017378.000000,68912654.000000
136012520.000000,68914843.000000
135814238.000000,69048334.000000
135641282.000000,69213326.000000
135498598.000000,69405100.000000
135390267.000000,69618172.000000
135354826.000000,69732312.000000
135320968.000000,69841349.000000
135320967.000000,69841355.000000
135319384.000000,69846452.000000
135287977.000000,70083411.000000
135296945.000000,70322274.000000
135346030.000000,70556211.000000
135433829.000000,70778533.000000
135557832.000000,70982883.000000
135561329.000000,70986913.000000
135651090.000000,71090353.000000
135714493.000000,71163419.000000
135718619.000000,71166802.000000
135718623.000000,71166806.000000
135817629.000000,71247985.000000
135899333.000000,71314978.000000
135903969.000000,71317617.000000
135903972.000000,71317619.000000
136017386.000000,71382178.000000
136107066.000000,71433227.000000
136331753.000000,71514784.000000
136337002.000000,71515733.000000
136337005.000000,71515734.000000
136562885.000000,71556580.000000
136562893.000000,71556581.000000
136566969.000000,71557318.000000
136585359.000000,71558185.000000
136590544.000000,71558430.000000
136590551.000000,71558430.000000
136592032.000000,71558500.000000
138160012.000000,71558500.000000
138338175.000000,71543383.000000
138343339.000000,71542043.000000
138343343.000000,71542042.000000
138564375.000000,71484673.000000
138564380.000000,71484671.000000
138569540.000000,71483332.000000
138686636.000000,71430584.000000
138782619.000000,71387347.000000
138782622.000000,71387346.000000
138787480.000000,71385157.000000
138985762.000000,71251666.000000
139158718.000000,71086674.000000
139260515.000000,70949854.000000
139317225.000000,70907141.000000
139388026.000000,70901868.000000
139450438.000000,70935710.000000
139484645.000000,70997923.000000
139487604.000000,71025128.000000
139486175.000000,73968767.000000
139466140.000000,74036878.000000
139412462.000000,74083345.000000
139342183.000000,74093415.000000
139277616.000000,74063890.000000
139252455.000000,74034069.000000
139244939.000000,74021682.000000
139244934.000000,74021675.000000
139242168.000000,74017117.000000
139152103.000000,73913326.000000
139089007.000000,73840614.000000
139089005.000000,73840612.000000
139085507.000000,73836581.000000
139081381.000000,73833198.000000
139081377.000000,73833194.000000
138904795.000000,73688407.000000
138900667.000000,73685022.000000
138896031.000000,73682383.000000
138896028.000000,73682381.000000
138697577.000000,73569416.000000
138692934.000000,73566773.000000
138468247.000000,73485216.000000
138462998.000000,73484267.000000
138462995.000000,73484266.000000
138237115.000000,73443420.000000
138237107.000000,73443419.000000
138233031.000000,73442682.000000
138214641.000000,73441815.000000
138209456.000000,73441570.000000
138209449.000000,73441570.000000
138207968.000000,73441500.000000
136639988.000000,73441500.000000
136461825.000000,73456617.000000
136456661.000000,73457957.000000
136456657.000000,73457958.000000
136235625.000000,73515327.000000
136235620.000000,73515329.000000
136230460.000000,73516668.000000
136225594.000000,73518860.000000
136017381.000000,73612653.000000
136017378.000000,73612654.000000
136012520.000000,73614843.000000
135814238.000000,73748334.000000
135641282.000000,73913326.000000
135498598.000000,74105100.000000
135390267.000000,74318172.000000
135354825.000000,74432312.000000
135320968.000000,74541349.000000
135320967.000000,74541355.000000
135319384.000000,74546452.000000
135287977.000000,74783411.000000
135296945.000000,75022274.000000
135346030.000000,75256211.000000
135433829.000000,75478533.000000
135557832.000000,75682883.000000
135561329.000000,75686913.000000
135651090.000000,75790353.000000
135714493.000000,75863419.000000
135718619.000000,75866802.000000
135718623.000000,75866806.000000
135817629.000000,75947985.000000
135899333.000000,76014978.000000
135903969.000000,76017617.000000
135903972.000000,76017619.000000
136017386.000000,76082178.000000
136107066.000000,76133227.000000
136331753.000000,76214784.000000
136337002.000000,76215733.000000
136337005.000000,76215734.000000
136562885.000000,76256580.000000
136562893.000000,76256581.000000
136566969.000000,76257318.000000
136585359.000000,76258185.000000
136590544.000000,76258430.000000
136590551.000000,76258430.000000
136592032.000000,76258500.000000
138160012.000000,76258500.000000
138338175.000000,76243383.000000
138343339.000000,76242043.000000
138343343.000000,76242042.000000
138564375.000000,76184673.000000
138564380.000000,76184671.000000
138569540.000000,76183332.000000
138686636.000000,76130584.000000
138782619.000000,76087347.000000
138782622.000000,76087346.000000
138787480.000000,76085157.000000
138985762.000000,75951666.000000
139158718.000000,75786674.000000
139206450.000000,75722520.000000
139258232.000000,75652923.000000
139314942.000000,75610210.000000
139385743.000000,75604937.000000
139448155.000000,75638780.000000
139482362.000000,75700992.000000
139485321.000000,75728194.000000
139459087.000000,129770165.000000
139442046.000000,164874061.000000
139422011.000000,164942172.000000
139368333.000000,164988639.000000
139316046.000000,165000000.000000
136670007.000000,165000000.000000
136601886.000000,164979998.000000
136555393.000000,164926342.000000
136545289.000000,164856068.000000
136547489.000000,164844585.000000
136557777.000000,164801733.000000
136557778.000000,164801725.000000
136558934.000000,164796911.000000
136578366.000000,164550000.000000
136558934.000000,164303089.000000
136557780.000000,164298282.000000
136557779.000000,164298276.000000
136502270.000000,164067070.000000
136501115.000000,164062258.000000
136406334.000000,163833437.000000
136276925.000000,163622260.000000
136116073.000000,163433927.000000
135927740.000000,163273075.000000
135716563.000000,163143666.000000
135711993.000000,163141773.000000
135711989.000000,163141771.000000
135492315.000000,163050779.000000
135492313.000000,163050778.000000
135487742.000000,163048885.000000
135402830.000000,163028499.000000
135251724.000000,162992221.000000
135251718.000000,162992220.000000
135246911.000000,162991066.000000
135000000.000000,162971634.000000
134753089.000000,162991066.000000
134748282.000000,162992220.000000
134748276.000000,162992221.000000
134597170.000000,163028499.000000
134512258.000000,163048885.000000
134507687.000000,163050778.000000
134507685.000000,163050779.000000
134288011.000000,163141771.000000
134288007.000000,163141773.000000
134283437.000000,163143666.000000
134072260.000000,163273075.000000
133883927.000000,163433927.000000
133723075.000000,163622260.000000
133593666.000000,163833437.000000
133498885.000000,164062258.000000
133497730.000000,164067070.000000
133442221.000000,164298276.000000
133442220.000000,164298282.000000
133441066.000000,164303089.000000
133421634.000000,164550000.000000
133441066.000000,164796911.000000
133442222.000000,164801725.000000
133442223.000000,164801733.000000
133452511.000000,164844585.000000
133448965.000000,164915493.000000
133407646.000000,164973227.000000
133341672.000000,164999458.000000
133329993.000000,165000000.000000
130634500.000000,165000000.000000
130566379.000000,164979998.000000
130519886.000000,164926342.000000
130508500.000000,164874000.000000
130508500.000000,156250000.000000
133421634.000000,156250000.000000
133441066.000000,156496911.000000
133442220.000000,156501718.000000
133442221.000000,156501724.000000
133478499.000000,156652830.000000
133498885.000000,156737742.000000
133593666.000000,156966563.000000
133723075.000000,157177740.000000
133883927.000000,157366073.000000
134072260.000000,157526925.000000
134283437.000000,157656334.000000
134288007.000000,157658227.000000
134288011.000000,157658229.000000
134507685.000000,157749221.000000
134512258.000000,157751115.000000
134597170.000000,157771501.000000
134748276.000000,157807779.000000
134748282.000000,157807780.000000
134753089.000000,157808934.000000
135000000.000000,157828366.000000
135246911.000000,157808934.000000
135251718.000000,157807780.000000
135251724.000000,157807779.000000
135402830.000000,157771501.000000
135487742.000000,157751115.000000
135492315.000000,157749221.000000
135711989.000000,157658229.000000
135711993.000000,157658227.000000
135716563.000000,157656334.000000
135927740.000000,157526925.000000
136116073.000000,157366073.000000
136276925.000000,157177740.000000
136406334.000000,156966563.000000
136501115.000000,156737742.000000
136521501.000000,156652830.000000
136557779.000000,156501724.000000
136557780.000000,156501718.000000
136558934.000000,156496911.000000
136578366.000000,156250000.000000
136558934.000000,156003089.000000
136557780.000000,155998282.000000
136557779.000000,155998276.000000
136502270.000000,155767070.000000
136501115.000000,155762258.000000
136406334.000000,155533437.000000
136276925.000000,155322260.000000
136116073.000000,155133927.000000
135927740.000000,154973075.000000
135716563.000000,154843666.000000
135648342.000000,154815408.000000
135593062.000000,154770859.000000
135570641.000000,154703496.000000
135588199.000000,154634705.000000
135640162.000000,154586326.000000
135696561.000000,154572999.000000
136009669.000000,154572999.000000
136016490.000000,154572629.000000
136067352.000000,154567105.000000
136082604.000000,154563479.000000
136203054.000000,154518324.000000
136218649.000000,154509786.000000
136320724.000000,154433285.000000
136333285.000000,154420724.000000
136409786.000000,154318649.000000
136418324.000000,154303054.000000
136463478.000000,154182606.000000
136467105.000000,154167351.000000
136472631.000000,154116486.000000
136473000.000000,154109672.000000
136473000.000000,153422115.000000
136468525.000000,153406876.000000
136467135.000000,153405671.000000
136459452.000000,153404000.000000
133545116.000000,153404000.000000
133529877.000000,153408475.000000
133528672.000000,153409865.000000
133527001.000000,153417548.000000
133527001.000000,154109669.000000
133527371.000000,154116490.000000
133532895.000000,154167352.000000
133536521.000000,154182604.000000
133581676.000000,154303054.000000
133590214.000000,154318649.000000
133666715.000000,154420724.000000
133679276.000000,154433285.000000
133781351.000000,154509786.000000
133796946.000000,154518324.000000
133917394.000000,154563478.000000
133932649.000000,154567105.000000
133983514.000000,154572631.000000
133990328.000000,154573000.000000
134303438.000000,154573000.000000
134371559.000000,154593002.000000
134418052.000000,154646658.000000
134428156.000000,154716932.000000
134398662.000000,154781512.000000
134351657.000000,154815408.000000
134323360.000000,154827129.000000
134288011.000000,154841771.000000
134288007.000000,154841773.000000
134283437.000000,154843666.000000
134072260.000000,154973075.000000
133883927.000000,155133927.000000
133723075.000000,155322260.000000
133593666.000000,155533437.000000
133498885.000000,155762258.000000
133497730.000000,155767070.000000
133442221.000000,155998276.000000
133442220.000000,155998282.000000
133441066.000000,156003089.000000
133421634.000000,156250000.000000
130508500.000000,156250000.000000
130508500.000000,152877885.000000
133527000.000000,152877885.000000
133531475.000000,152893124.000000
133532865.000000,152894329.000000
133540548.000000,152896000.000000
134727885.000000,152896000.000000
134743124.000000,152891525.000000
134744329.000000,152890135.000000
134746000.000000,152882452.000000
134746000.000000,152877885.000000
135254000.000000,152877885.000000
135258475.000000,152893124.000000
135259865.000000,152894329.000000
135267548.000000,152896000.000000
136454884.000000,152896000.000000
136470123.000000,152891525.000000
136471328.000000,152890135.000000
136472999.000000,152882452.000000
136472999.000000,152190331.000000
136472629.000000,152183510.000000
136467105.000000,152132648.000000
136463479.000000,152117396.000000
136418324.000000,151996946.000000
136409786.000000,151981351.000000
136333285.000000,151879276.000000
136320724.000000,151866715.000000
136218649.000000,151790214.000000
136203054.000000,151781676.000000
136082606.000000,151736522.000000
136067351.000000,151732895.000000
136016486.000000,151727369.000000
136009672.000000,151727000.000000
135272115.000000,151727000.000000
135256876.000000,151731475.000000
135255671.000000,151732865.000000
135254000.000000,151740548.000000
135254000.000000,152877885.000000
134746000.000000,152877885.000000
134746000.000000,151745116.000000
134741525.000000,151729877.000000
134740135.000000,151728672.000000
134732452.000000,151727001.000000
133990331.000000,151727001.000000
133983510.000000,151727371.000000
133932648.000000,151732895.000000
133917396.000000,151736521.000000
133796946.000000,151781676.000000
133781351.000000,151790214.000000
133679276.000000,151866715.000000
133666715.000000,151879276.000000
133590214.000000,151981351.000000
133581676.000000,151996946.000000
133536522.000000,152117394.000000
133532895.000000,152132649.000000
133527369.000000,152183514.000000
133527000.000000,152190328.000000
133527000.000000,152877885.000000
130508500.000000,152877885.000000
130508500.000000,150354669.000000
132217001.000000,150354669.000000
132217371.000000,150361490.000000
132222895.000000,150412352.000000
132226521.000000,150427604.000000
132271676.000000,150548054.000000
132280214.000000,150563649.000000
132356715.000000,150665724.000000
132369276.000000,150678285.000000
132471351.000000,150754786.000000
132486946.000000,150763324.000000
132607394.000000,150808478.000000
132622649.000000,150812105.000000
132673514.000000,150817631.000000
132680328.000000,150818000.000000
133352885.000000,150818000.000000
133368124.000000,150813525.000000
133369329.000000,150812135.000000
133371000.000000,150804452.000000
133371000.000000,150799884.000000
133879000.000000,150799884.000000
133883475.000000,150815123.000000
133884865.000000,150816328.000000
133892548.000000,150817999.000000
134569669.000000,150817999.000000
134576490.000000,150817629.000000
134627352.000000,150812105.000000
134642604.000000,150808479.000000
134763054.000000,150763324.000000
134778649.000000,150754786.000000
134880724.000000,150678285.000000
134893285.000000,150665724.000000
134969786.000000,150563649.000000
134978324.000000,150548054.000000
134999773.000000,150490840.000000
135042415.000000,150434075.000000
135108977.000000,150409376.000000
135178325.000000,150424584.000000
135198240.000000,150438126.000000
135354349.000000,150567730.000000
135554322.000000,150684584.000000
135770694.000000,150767209.000000
135775760.000000,150768240.000000
135775761.000000,150768240.000000
135828846.000000,150779040.000000
135997656.000000,150813385.000000
136128324.000000,150818176.000000
136223949.000000,150821683.000000
136223953.000000,150821683.000000
136229113.000000,150821872.000000
136234233.000000,150821216.000000
136234235.000000,150821216.000000
136333668.000000,150808478.000000
136458847.000000,150792442.000000
136463795.000000,150790957.000000
136463802.000000,150790956.000000
136675747.000000,150727369.000000
136680690.000000,150725886.000000
136761236.000000,150686427.000000
136884049.000000,150626262.000000
136884052.000000,150626260.000000
136888684.000000,150623991.000000
137077243.000000,150489494.000000
137241303.000000,150326005.000000
137376458.000000,150137917.000000
137479078.000000,149930280.000000
137546408.000000,149708671.000000
137576640.000000,149479041.000000
137578327.000000,149410000.000000
137572032.000000,149333434.000000
137559773.000000,149184318.000000
137559772.000000,149184312.000000
137559349.000000,149179167.000000
137502925.000000,148954533.000000
137410570.000000,148742131.000000
137284764.000000,148547665.000000
137128887.000000,148376358.000000
137124836.000000,148373159.000000
137124832.000000,148373155.000000
136951177.000000,148236011.000000
136951172.000000,148236008.000000
136947123.000000,148232810.000000
136942607.000000,148230317.000000
136942604.000000,148230315.000000
136748879.000000,148123373.000000
136748875.000000,148123371.000000
136744355.000000,148120876.000000
136739486.000000,148119152.000000
136739482.000000,148119150.000000
136530903.000000,148045288.000000
136530899.000000,148045287.000000
136526028.000000,148043562.000000
136520935.000000,148042655.000000
136520932.000000,148042654.000000
136303095.000000,148003851.000000
136303089.000000,148003850.000000
136298006.000000,148002945.000000
136220644.000000,148002000.000000
136071581.000000,148000179.000000
136071579.000000,148000179.000000
136066411.000000,148000116.000000
135837464.000000,148035150.000000
135617314.000000,148107106.000000
135612726.000000,148109494.000000
135612722.000000,148109496.000000
135416461.000000,148211663.000000
135411872.000000,148214052.000000
135407739.000000,148217155.000000
135407736.000000,148217157.000000
135230790.000000,148350012.000000
135226655.000000,148353117.000000
135223083.000000,148356855.000000
135208787.000000,148371815.000000
135147263.000000,148407245.000000
135076351.000000,148403788.000000
135018564.000000,148362543.000000
134999711.000000,148328994.000000
134978324.000000,148271946.000000
134969786.000000,148256351.000000
134893285.000000,148154276.000000
134880724.000000,148141715.000000
134778649.000000,148065214.000000
134763054.000000,148056676.000000
134642606.000000,148011522.000000
134627351.000000,148007895.000000
134576486.000000,148002369.000000
134569672.000000,148002000.000000
133897115.000000,148002000.000000
133881876.000000,148006475.000000
133880671.000000,148007865.000000
133879000.000000,148015548.000000
133879000.000000,150799884.000000
133371000.000000,150799884.000000
133371000.000000,149682115.000000
133366525.000000,149666876.000000
133365135.000000,149665671.000000
133357452.000000,149664000.000000
132235116.000000,149664000.000000
132219877.000000,149668475.000000
132218672.000000,149669865.000000
132217001.000000,149677548.000000
132217001.000000,150354669.000000
130508500.000000,150354669.000000
130508500.000000,149137885.000000
132217000.000000,149137885.000000
132221475.000000,149153124.000000
132222865.000000,149154329.000000
132230548.000000,149156000.000000
133352885.000000,149156000.000000
133368124.000000,149151525.000000
133369329.000000,149150135.000000
133371000.000000,149142452.000000
133371000.000000,148020116.000000
133366525.000000,148004877.000000
133365135.000000,148003672.000000
133357452.000000,148002001.000000
132680331.000000,148002001.000000
132673510.000000,148002371.000000
132622648.000000,148007895.000000
132607396.000000,148011521.000000
132486946.000000,148056676.000000
132471351.000000,148065214.000000
132369276.000000,148141715.000000
132356715.000000,148154276.000000
132280214.000000,148256351.000000
132271676.000000,148271946.000000
132226522.000000,148392394.000000
132222895.000000,148407649.000000
132217369.000000,148458514.000000
132217000.000000,148465328.000000
132217000.000000,149137885.000000
130508500.000000,149137885.000000
130508500.000000,141940400.000000
132351500.000000,141940400.000000
132351837.000000,141943646.000000
132351837.000000,141943650.000000
132357298.000000,141996277.000000
132362474.000000,142046166.000000
132364655.000000,142052702.000000
132364655.000000,142052704.000000
132408728.000000,142184806.000000
132418450.000000,142213946.000000
132511522.000000,142364348.000000
132636697.000000,142489305.000000
132642927.000000,142493145.000000
132642928.000000,142493146.000000
132780090.000000,142577694.000000
132787262.000000,142582115.000000
132841371.000000,142600062.000000
132948611.000000,142635632.000000
132948613.000000,142635632.000000
132955139.000000,142637797.000000
132961975.000000,142638497.000000
132961978.000000,142638498.000000
133001372.000000,142642534.000000
133059600.000000,142648500.000000
134360400.000000,142648500.000000
134363646.000000,142648163.000000
134363650.000000,142648163.000000
134459308.000000,142638238.000000
134459312.000000,142638237.000000
134466166.000000,142637526.000000
134472702.000000,142635345.000000
134472704.000000,142635345.000000
134604806.000000,142591272.000000
134633946.000000,142581550.000000
134784348.000000,142488478.000000
134909305.000000,142363303.000000
135002115.000000,142212738.000000
135004418.000000,142205795.000000
135006763.000000,142200766.000000
135053680.000000,142147481.000000
135121958.000000,142128021.000000
135189918.000000,142148564.000000
135216194.000000,142171520.000000
135292860.000000,142260025.000000
135296250.000000,142263938.000000
135468126.000000,142406632.000000
135661000.000000,142519338.000000
135869692.000000,142599030.000000
135874760.000000,142600061.000000
135874763.000000,142600062.000000
135982017.000000,142621883.000000
136088597.000000,142643567.000000
136093772.000000,142643757.000000
136093774.000000,142643757.000000
136306673.000000,142651564.000000
136306677.000000,142651564.000000
136311837.000000,142651753.000000
136316957.000000,142651097.000000
136316959.000000,142651097.000000
136528288.000000,142624025.000000
136528289.000000,142624025.000000
136533416.000000,142623368.000000
136538366.000000,142621883.000000
136742429.000000,142560661.000000
136742434.000000,142560659.000000
136747384.000000,142559174.000000
136947994.000000,142460896.000000
137129860.000000,142331173.000000
137288096.000000,142173489.000000
137418453.000000,141992077.000000
137445608.000000,141937134.000000
137515136.000000,141796453.000000
137515137.000000,141796451.000000
137517430.000000,141791811.000000
137582370.000000,141578069.000000
137611529.000000,141356590.000000
137613156.000000,141290000.000000
137594852.000000,141067361.000000
137540431.000000,140850702.000000
137451354.000000,140645840.000000
137330014.000000,140458277.000000
137179670.000000,140293051.000000
137175619.000000,140289852.000000
137175615.000000,140289848.000000
137008414.000000,140157800.000000
137008410.000000,140157798.000000
137004359.000000,140154598.000000
136962569.000000,140131529.000000
136912598.000000,140081097.000000
136897826.000000,140011654.000000
136922942.000000,139945248.000000
136950293.000000,139918642.000000
136999247.000000,139883723.000000
137007648.000000,139873023.000000
137000660.000000,139859870.000000
136262812.000000,139122022.000000
136248868.000000,139114408.000000
136247035.000000,139114539.000000
136240420.000000,139118790.000000
135496737.000000,139862473.000000
135489977.000000,139874853.000000
135495258.000000,139881907.000000
135541969.000000,139909203.000000
135590693.000000,139960841.000000
135603764.000000,140030624.000000
135577033.000000,140096396.000000
135536584.000000,140129752.000000
135523607.000000,140136507.000000
135519474.000000,140139610.000000
135519471.000000,140139612.000000
135349100.000000,140267530.000000
135344965.000000,140270635.000000
135253781.000000,140366054.000000
135211027.000000,140410793.000000
135149503.000000,140446223.000000
135078590.000000,140442766.000000
135020804.000000,140401520.000000
135005833.000000,140377194.000000
135003865.000000,140372994.000000
135001550.000000,140366054.000000
134908478.000000,140215652.000000
134783303.000000,140090695.000000
134690284.000000,140033357.000000
134638968.000000,140001725.000000
134638966.000000,140001724.000000
134632738.000000,139997885.000000
134578974.000000,139980052.000000
134557640.000000,139972976.000000
134499280.000000,139932545.000000
134488729.000000,139907146.000000
134486424.000000,139908370.000000
134460660.000000,139859870.000000
133722812.000000,139122022.000000
133708868.000000,139114408.000000
133707035.000000,139114539.000000
133700420.000000,139118790.000000
132956737.000000,139862473.000000
132933985.000000,139904139.000000
132931777.000000,139914287.000000
132881574.000000,139964488.000000
132861067.000000,139973424.000000
132786054.000000,139998450.000000
132635652.000000,140091522.000000
132630479.000000,140096704.000000
132572686.000000,140154598.000000
132510695.000000,140216697.000000
132506855.000000,140222927.000000
132506854.000000,140222928.000000
132422466.000000,140359831.000000
132417885.000000,140367262.000000
132362203.000000,140535139.000000
132351500.000000,140639600.000000
132351500.000000,141940400.000000
130508500.000000,141940400.000000
130508500.000000,138721863.000000
132348050.000000,138721863.000000
132360309.000000,138934477.000000
132361745.000000,138944697.000000
132408565.000000,139152446.000000
132411645.000000,139162275.000000
132491770.000000,139359603.000000
132496413.000000,139368794.000000
132576460.000000,139499420.000000
132586916.000000,139508880.000000
132595694.000000,139505096.000000
133337978.000000,138762812.000000
133344356.000000,138751132.000000
134074408.000000,138751132.000000
134074539.000000,138752965.000000
134078790.000000,138759580.000000
134820474.000000,139501264.000000
134832484.000000,139507823.000000
134844223.000000,139498855.000000
134878022.000000,139451819.000000
134879149.000000,139452629.000000
134926659.000000,139408881.000000
134996596.000000,139396661.000000
135062038.000000,139424191.000000
135089870.000000,139456029.000000
135116459.000000,139499419.000000
135126916.000000,139508880.000000
135135694.000000,139505096.000000
135877978.000000,138762812.000000
135884356.000000,138751132.000000
136614408.000000,138751132.000000
136614539.000000,138752965.000000
136618790.000000,138759580.000000
137360474.000000,139501264.000000
137372484.000000,139507823.000000
137384223.000000,139498855.000000
137415004.000000,139456019.000000
137420315.000000,139447180.000000
137514670.000000,139256267.000000
137518469.000000,139246672.000000
137580376.000000,139042915.000000
137582555.000000,139032834.000000
137610590.000000,138819887.000000
137611109.000000,138813212.000000
137612572.000000,138753364.000000
137612378.000000,138746646.000000
137594781.000000,138532604.000000
137593096.000000,138522424.000000
137541214.000000,138315875.000000
137537894.000000,138306124.000000
137452972.000000,138110814.000000
137448105.000000,138101739.000000
137383063.000000,138001197.000000
137372377.000000,137991995.000000
137362812.000000,137996398.000000
136622022.000000,138737188.000000
136614408.000000,138751132.000000
135884356.000000,138751132.000000
135885592.000000,138748868.000000
135885461.000000,138747035.000000
135881210.000000,138740420.000000
135139849.000000,137999059.000000
135128313.000000,137992759.000000
135116028.000000,138002384.000000
135083192.000000,138050520.000000
135028281.000000,138095523.000000
134957756.000000,138103694.000000
134894009.000000,138072440.000000
134873311.000000,138047955.000000
134843062.000000,138001197.000000
134832377.000000,137991995.000000
134822812.000000,137996398.000000
134082022.000000,138737188.000000
134074408.000000,138751132.000000
133344356.000000,138751132.000000
133345592.000000,138748868.000000
133345461.000000,138747035.000000
133341210.000000,138740420.000000
132599849.000000,137999059.000000
132588313.000000,137992759.000000
132576031.000000,138002382.000000
132528089.000000,138072662.000000
132523004.000000,138081613.000000
132433338.000000,138274783.000000
132429775.000000,138284470.000000
132372864.000000,138489681.000000
132370933.000000,138499800.000000
132348302.000000,138711574.000000
132348050.000000,138721863.000000
130508500.000000,138721863.000000
130508500.000000,137334853.000000
132949977.000000,137334853.000000
132955258.000000,137341907.000000
133002479.000000,137369501.000000
133051203.000000,137421139.000000
133064274.000000,137490922.000000
133037543.000000,137556694.000000
132997087.000000,137590053.000000
132988466.000000,137594541.000000
132979734.000000,137600039.000000
132959677.000000,137615099.000000
132951223.000000,137626427.000000
132957968.000000,137638758.000000
133697188.000000,138377978.000000
133711132.000000,138385592.000000
133712965.000000,138385461.000000
133719580.000000,138381210.000000
134463389.000000,137637401.000000
134470410.000000,137624544.000000
134463611.000000,137615213.000000
134459559.000000,137612521.000000
134422116.000000,137591852.000000
134372145.000000,137541420.000000
134357373.000000,137471977.000000
134382489.000000,137405572.000000
134409840.000000,137378965.000000
134459247.000000,137343723.000000
134466211.000000,137334853.000000
135489977.000000,137334853.000000
135495258.000000,137341907.000000
135542479.000000,137369501.000000
135591203.000000,137421139.000000
135604274.000000,137490922.000000
135577543.000000,137556694.000000
135537087.000000,137590053.000000
135528466.000000,137594541.000000
135519734.000000,137600039.000000
135499677.000000,137615099.000000
135491223.000000,137626427.000000
135497968.000000,137638758.000000
136237188.000000,138377978.000000
136251132.000000,138385592.000000
136252965.000000,138385461.000000
136259580.000000,138381210.000000
137003389.000000,137637401.000000
137010410.000000,137624544.000000
137003611.000000,137615213.000000
136999559.000000,137612521.000000
136962116.000000,137591852.000000
136912145.000000,137541420.000000
136897373.000000,137471977.000000
136922489.000000,137405572.000000
136949840.000000,137378965.000000
136999247.000000,137343723.000000
137007648.000000,137333023.000000
137000660.000000,137319870.000000
136262812.000000,136582022.000000
136248868.000000,136574408.000000
136247035.000000,136574539.000000
136240420.000000,136578790.000000
135496737.000000,137322473.000000
135489977.000000,137334853.000000
134466211.000000,137334853.000000
134467648.000000,137333023.000000
134460660.000000,137319870.000000
133722812.000000,136582022.000000
133708868.000000,136574408.000000
133707035.000000,136574539.000000
133700420.000000,136578790.000000
132956737.000000,137322473.000000
132949977.000000,137334853.000000
130508500.000000,137334853.000000
130508500.000000,136181863.000000
132348050.000000,136181863.000000
132360309.000000,136394477.000000
132361745.000000,136404697.000000
132408565.000000,136612446.000000
132411645.000000,136622275.000000
132491770.000000,136819603.000000
132496413.000000,136828794.000000
132576460.000000,136959420.000000
132586916.000000,136968880.000000
132595694.000000,136965096.000000
133337978.000000,136222812.000000
133344356.000000,136211132.000000
134074408.000000,136211132.000000
134074539.000000,136212965.000000
134078790.000000,136219580.000000
134820474.000000,136961264.000000
134832484.000000,136967823.000000
134844223.000000,136958855.000000
134878022.000000,136911819.000000
134879149.000000,136912629.000000
134926659.000000,136868881.000000
134996596.000000,136856661.000000
135062038.000000,136884191.000000
135089870.000000,136916029.000000
135116459.000000,136959419.000000
135126916.000000,136968880.000000
135135694.000000,136965096.000000
135877978.000000,136222812.000000
135884356.000000,136211132.000000
136614408.000000,136211132.000000
136614539.000000,136212965.000000
136618790.000000,136219580.000000
137360474.000000,136961264.000000
137372484.000000,136967823.000000
137384223.000000,136958855.000000
137415004.000000,136916019.000000
137420315.000000,136907180.000000
137514670.000000,136716267.000000
137518469.000000,136706672.000000
137580376.000000,136502915.000000
137582555.000000,136492834.000000
137610590.000000,136279887.000000
137611109.000000,136273212.000000
137612572.000000,136213364.000000
137612378.000000,136206646.000000
137594781.000000,135992604.000000
137593096.000000,135982424.000000
137541214.000000,135775875.000000
137537894.000000,135766124.000000
137452972.000000,135570814.000000
137448105.000000,135561739.000000
137383063.000000,135461197.000000
137372377.000000,135451995.000000
137362812.000000,135456398.000000
136622022.000000,136197188.000000
136614408.000000,136211132.000000
135884356.000000,136211132.000000
135885592.000000,136208868.000000
135885461.000000,136207035.000000
135881210.000000,136200420.000000
135139849.000000,135459059.000000
135128313.000000,135452759.000000
135116028.000000,135462384.000000
135083192.000000,135510520.000000
135028281.000000,135555523.000000
134957756.000000,135563694.000000
134894009.000000,135532440.000000
134873311.000000,135507955.000000
134843062.000000,135461197.000000
134832377.000000,135451995.000000
134822812.000000,135456398.000000
134082022.000000,136197188.000000
134074408.000000,136211132.000000
133344356.000000,136211132.000000
133345592.000000,136208868.000000
133345461.000000,136207035.000000
133341210.000000,136200420.000000
132599849.000000,135459059.000000
132588313.000000,135452759.000000
132576031.000000,135462382.000000
132528089.000000,135532662.000000
132523004.000000,135541613.000000
132433338.000000,135734783.000000
132429775.000000,135744470.000000
132372864.000000,135949681.000000
132370933.000000,135959800.000000
132348302.000000,136171574.000000
132348050.000000,136181863.000000
130508500.000000,136181863.000000
130508500.000000,134794853.000000
132949977.000000,134794853.000000
132955258.000000,134801907.000000
133002479.000000,134829501.000000
133051203.000000,134881139.000000
133064274.000000,134950922.000000
133037543.000000,135016694.000000
132997087.000000,135050053.000000
132988466.000000,135054541.000000
132979734.000000,135060039.000000
132959677.000000,135075099.000000
132951223.000000,135086427.000000
132957968.000000,135098758.000000
133697188.000000,135837978.000000
133711132.000000,135845592.000000
133712965.000000,135845461.000000
133719580.000000,135841210.000000
134463389.000000,135097401.000000
134470410.000000,135084544.000000
134463611.000000,135075213.000000
134459559.000000,135072521.000000
134422116.000000,135051852.000000
134372145.000000,135001420.000000
134357373.000000,134931977.000000
134382489.000000,134865572.000000
134409840.000000,134838965.000000
134459247.000000,134803723.000000
134466211.000000,134794853.000000
135489977.000000,134794853.000000
135495258.000000,134801907.000000
135542479.000000,134829501.000000
135591203.000000,134881139.000000
135604274.000000,134950922.000000
135577543.000000,135016694.000000
135537087.000000,135050053.000000
135528466.000000,135054541.000000
135519734.000000,135060039.000000
135499677.000000,135075099.000000
135491223.000000,135086427.000000
135497968.000000,135098758.000000
136237188.000000,135837978.000000
136251132.000000,135845592.000000
136252965.000000,135845461.000000
136259580.000000,135841210.000000
137003389.000000,135097401.000000
137010410.000000,135084544.000000
137003611.000000,135075213.000000
136999559.000000,135072521.000000
136962116.000000,135051852.000000
136912145.000000,135001420.000000
136897373.000000,134931977.000000
136922489.000000,134865572.000000
136949840.000000,134838965.000000
136999247.000000,134803723.000000
137007648.000000,134793023.000000
137000660.000000,134779870.000000
136262812.000000,134042022.000000
136248868.000000,134034408.000000
136247035.000000,134034539.000000
136240420.000000,134038790.000000
135496737.000000,134782473.000000
135489977.000000,134794853.000000
134466211.000000,134794853.000000
134467648.000000,134793023.000000
134460660.000000,134779870.000000
133722812.000000,134042022.000000
133708868.000000,134034408.000000
133707035.000000,134034539.000000
133700420.000000,134038790.000000
132956737.000000,134782473.000000
132949977.000000,134794853.000000
130508500.000000,134794853.000000
130508500.000000,133641863.000000
132348050.000000,133641863.000000
132360309.000000,133854477.000000
132361745.000000,133864697.000000
132408565.000000,134072446.000000
132411645.000000,134082275.000000
132491770.000000,134279603.000000
132496413.000000,134288794.000000
132576460.000000,134419420.000000
132586916.000000,134428880.000000
132595694.000000,134425096.000000
133337978.000000,133682812.000000
133344356.000000,133671132.000000
134074408.000000,133671132.000000
134074539.000000,133672965.000000
134078790.000000,133679580.000000
134820474.000000,134421264.000000
134832484.000000,134427823.000000
134844223.000000,134418855.000000
134878022.000000,134371819.000000
134879149.000000,134372629.000000
134926659.000000,134328881.000000
134996596.000000,134316661.000000
135062038.000000,134344191.000000
135089870.000000,134376029.000000
135116459.000000,134419419.000000
135126916.000000,134428880.000000
135135694.000000,134425096.000000
135877978.000000,133682812.000000
135884356.000000,133671132.000000
136614408.000000,133671132.000000
136614539.000000,133672965.000000
136618790.000000,133679580.000000
137360474.000000,134421264.000000
137372484.000000,134427823.000000
137384223.000000,134418855.000000
137415004.000000,134376019.000000
137420315.000000,134367180.000000
137514670.000000,134176267.000000
137518469.000000,134166672.000000
137580376.000000,133962915.000000
137582555.000000,133952834.000000
137610590.000000,133739887.000000
137611109.000000,133733212.000000
137612572.000000,133673364.000000
137612378.000000,133666646.000000
137594781.000000,133452604.000000
137593096.000000,133442424.000000
137541214.000000,133235875.000000
137537894.000000,133226124.000000
137452972.000000,133030814.000000
137448105.000000,133021739.000000
137383063.000000,132921197.000000
137372377.000000,132911995.000000
137362812.000000,132916398.000000
136622022.000000,133657188.000000
136614408.000000,133671132.000000
135884356.000000,133671132.000000
135885592.000000,133668868.000000
135885461.000000,133667035.000000
135881210.000000,133660420.000000
135139849.000000,132919059.000000
135128313.000000,132912759.000000
135116028.000000,132922384.000000
135083192.000000,132970520.000000
135028281.000000,133015523.000000
134957756.000000,133023694.000000
134894009.000000,132992440.000000
134873311.000000,132967955.000000
134843062.000000,132921197.000000
134832377.000000,132911995.000000
134822812.000000,132916398.000000
134082022.000000,133657188.000000
134074408.000000,133671132.000000
133344356.000000,133671132.000000
133345592.000000,133668868.000000
133345461.000000,133667035.000000
133341210.000000,133660420.000000
132599849.000000,132919059.000000
132588313.000000,132912759.000000
132576031.000000,132922382.000000
132528089.000000,132992662.000000
132523004.000000,133001613.000000
132433338.000000,133194783.000000
132429775.000000,133204470.000000
132372864.000000,133409681.000000
132370933.000000,133419800.000000
132348302.000000,133631574.000000
132348050.000000,133641863.000000
130508500.000000,133641863.000000
130508500.000000,131096695.000000
132347251.000000,131096695.000000
132347548.000000,131101848.000000
132347548.000000,131101851.000000
132353011.000000,131196590.000000
132360110.000000,131319715.000000
132361247.000000,131324761.000000
132361248.000000,131324767.000000
132381119.000000,131412939.000000
132409222.000000,131537639.000000
132493266.000000,131744616.000000
132544019.000000,131827438.000000
132607291.000000,131930688.000000
132609987.000000,131935088.000000
132756250.000000,132103938.000000
132928126.000000,132246632.000000
133001955.000000,132289774.000000
133050679.000000,132341412.000000
133063750.000000,132411195.000000
133037019.000000,132476967.000000
132996562.000000,132510327.000000
132988460.000000,132514544.000000
132979734.000000,132520039.000000
132959677.000000,132535099.000000
132951223.000000,132546427.000000
132957968.000000,132558758.000000
133697188.000000,133297978.000000
133711132.000000,133305592.000000
133712965.000000,133305461.000000
133719580.000000,133301210.000000
134463389.000000,132557401.000000
134470410.000000,132544544.000000
134463611.000000,132535213.000000
134459559.000000,132532521.000000
134422602.000000,132512120.000000
134372631.000000,132461687.000000
134357859.000000,132392245.000000
134382975.000000,132325839.000000
134410327.000000,132299232.000000
134433797.000000,132282491.000000
134589860.000000,132171173.000000
134748096.000000,132013489.000000
134807594.000000,131930689.000000
134878453.000000,131832077.000000
134879776.000000,131833028.000000
134926645.000000,131789857.000000
134996580.000000,131777625.000000
135062026.000000,131805144.000000
135089875.000000,131836994.000000
135149987.000000,131935088.000000
135296250.000000,132103938.000000
135468126.000000,132246632.000000
135541955.000000,132289774.000000
135590679.000000,132341412.000000
135603750.000000,132411195.000000
135577019.000000,132476967.000000
135536562.000000,132510327.000000
135528460.000000,132514544.000000
135519734.000000,132520039.000000
135499677.000000,132535099.000000
135491223.000000,132546427.000000
135497968.000000,132558758.000000
136237188.000000,133297978.000000
136251132.000000,133305592.000000
136252965.000000,133305461.000000
136259580.000000,133301210.000000
137003389.000000,132557401.000000
137010410.000000,132544544.000000
137003611.000000,132535213.000000
136999559.000000,132532521.000000
136962602.000000,132512120.000000
136912631.000000,132461687.000000
136897859.000000,132392245.000000
136922975.000000,132325839.000000
136950327.000000,132299232.000000
136973797.000000,132282491.000000
137129860.000000,132171173.000000
137288096.000000,132013489.000000
137347594.000000,131930689.000000
137415435.000000,131836277.000000
137418453.000000,131832077.000000
137439320.000000,131789857.000000
137515136.000000,131636453.000000
137515137.000000,131636451.000000
137517430.000000,131631811.000000
137582370.000000,131418069.000000
137611529.000000,131196590.000000
137613156.000000,131130000.000000
137594852.000000,130907361.000000
137540431.000000,130690702.000000
137451354.000000,130485840.000000
137330014.000000,130298277.000000
137179670.000000,130133051.000000
137175619.000000,130129852.000000
137175615.000000,130129848.000000
137008414.000000,129997800.000000
137008410.000000,129997798.000000
137004359.000000,129994598.000000
136808789.000000,129886638.000000
136803920.000000,129884914.000000
136803916.000000,129884912.000000
136603087.000000,129813795.000000
136603083.000000,129813794.000000
136598212.000000,129812069.000000
136593119.000000,129811162.000000
136593116.000000,129811161.000000
136383373.000000,129773800.000000
136383367.000000,129773799.000000
136378284.000000,129772894.000000
136304452.000000,129771992.000000
136160081.000000,129770228.000000
136160079.000000,129770228.000000
136154911.000000,129770165.000000
135934091.000000,129803955.000000
135721756.000000,129873357.000000
135523607.000000,129976507.000000
135519474.000000,129979610.000000
135519471.000000,129979612.000000
135495247.000000,129997800.000000
135344965.000000,130110635.000000
135190629.000000,130272138.000000
135083201.000000,130429621.000000
135028293.000000,130474621.000000
134957768.000000,130482792.000000
134894021.000000,130451538.000000
134873324.000000,130427054.000000
134792822.000000,130302617.000000
134792820.000000,130302614.000000
134790014.000000,130298277.000000
134639670.000000,130133051.000000
134635619.000000,130129852.000000
134635615.000000,130129848.000000
134468414.000000,129997800.000000
134468410.000000,129997798.000000
134464359.000000,129994598.000000
134268789.000000,129886638.000000
134263920.000000,129884914.000000
134263916.000000,129884912.000000
134063087.000000,129813795.000000
134063083.000000,129813794.000000
134058212.000000,129812069.000000
134053119.000000,129811162.000000
134053116.000000,129811161.000000
133843373.000000,129773800.000000
133843367.000000,129773799.000000
133838284.000000,129772894.000000
133764452.000000,129771992.000000
133620081.000000,129770228.000000
133620079.000000,129770228.000000
133614911.000000,129770165.000000
133394091.000000,129803955.000000
133181756.000000,129873357.000000
132983607.000000,129976507.000000
132979474.000000,129979610.000000
132979471.000000,129979612.000000
132955247.000000,129997800.000000
132804965.000000,130110635.000000
132650629.000000,130272138.000000
132524743.000000,130456680.000000
132430688.000000,130659305.000000
132370989.000000,130874570.000000
132347251.000000,131096695.000000
130508500.000000,131096695.000000
130508500.000000,75722520.000000
130528502.000000,75654399.000000
130582158.000000,75607906.000000
130652432.000000,75597802.000000
130717012.000000,75627296.000000
130742218.000000,75657154.000000
130755059.000000,75678315.000000
130755065.000000,75678323.000000
130757832.000000,75682883.000000
130761329.000000,75686913.000000
130851090.000000,75790353.000000
130914493.000000,75863419.000000
130918619.000000,75866802.000000
130918623.000000,75866806.000000
131017629.000000,75947985.000000
131099333.000000,76014978.000000
131103969.000000,76017617.000000
131103972.000000,76017619.000000
131217386.000000,76082178.000000
131307066.000000,76133227.000000
131531753.000000,76214784.000000
131537002.000000,76215733.000000
131537005.000000,76215734.000000
131762885.000000,76256580.000000
131762893.000000,76256581.000000
131766969.000000,76257318.000000
131785359.000000,76258185.000000
131790544.000000,76258430.000000
131790551.000000,76258430.000000
131792032.000000,76258500.000000
133360012.000000,76258500.000000
133538175.000000,76243383.000000
133543339.000000,76242043.000000
133543343.000000,76242042.000000
133764375.000000,76184673.000000
133764380.000000,76184671.000000
133769540.000000,76183332.000000
133886636.000000,76130584.000000
133982619.000000,76087347.000000
133982622.000000,76087346.000000
133987480.000000,76085157.000000
134185762.000000,75951666.000000
134358718.000000,75786674.000000
134501402.000000,75594900.000000
134609733.000000,75381828.000000
134650361.000000,75250984.000000
134679032.000000,75158651.000000
134679033.000000,75158645.000000
134680616.000000,75153548.000000
134712023.000000,74916589.000000
134703055.000000,74677726.000000
134653970.000000,74443789.000000
134566171.000000,74221467.000000
134442168.000000,74017117.000000
134352103.000000,73913326.000000
134289007.000000,73840614.000000
134289005.000000,73840612.000000
134285507.000000,73836581.000000
134281381.000000,73833198.000000
134281377.000000,73833194.000000
134104795.000000,73688407.000000
134100667.000000,73685022.000000
134096031.000000,73682383.000000
134096028.000000,73682381.000000
133897577.000000,73569416.000000
133892934.000000,73566773.000000
133668247.000000,73485216.000000
133662998.000000,73484267.000000
133662995.000000,73484266.000000
133437115.000000,73443420.000000
133437107.000000,73443419.000000
133433031.000000,73442682.000000
133414641.000000,73441815.000000
133409456.000000,73441570.000000
133409449.000000,73441570.000000
133407968.000000,73441500.000000
131839988.000000,73441500.000000
131661825.000000,73456617.000000
131656661.000000,73457957.000000
131656657.000000,73457958.000000
131435625.000000,73515327.000000
131435620.000000,73515329.000000
131430460.000000,73516668.000000
131425594.000000,73518860.000000
131217381.000000,73612653.000000
131217378.000000,73612654.000000
131212520.000000,73614843.000000
131014238.000000,73748334.000000
130841282.000000,73913326.000000
130838099.000000,73917603.000000
130838099.000000,73917604.000000
130735589.000000,74055382.000000
130678879.000000,74098095.000000
130608078.000000,74103368.000000
130545666.000000,74069525.000000
130511459.000000,74007313.000000
130508500.000000,73980169.000000
130508500.000000,71022520.000000
130528502.000000,70954399.000000
130582158.000000,70907906.000000
130652432.000000,70897802.000000
130717012.000000,70927296.000000
130742218.000000,70957154.000000
130755059.000000,70978315.000000
130755065.000000,70978323.000000
130757832.000000,70982883.000000
130761329.000000,70986913.000000
130851090.000000,71090353.000000
130914493.000000,71163419.000000
130918619.000000,71166802.000000
130918623.000000,71166806.000000
131017629.000000,71247985.000000
131099333.000000,71314978.000000
131103969.000000,71317617.000000
131103972.000000,71317619.000000
131217386.000000,71382178.000000
131307066.000000,71433227.000000
131531753.000000,71514784.000000
131537002.000000,71515733.000000
131537005.000000,71515734.000000
131762885.000000,71556580.000000
131762893.000000,71556581.000000
131766969.000000,71557318.000000
131785359.000000,71558185.000000
131790544.000000,71558430.000000
131790551.000000,71558430.000000
131792032.000000,71558500.000000
133360012.000000,71558500.000000
133538175.000000,71543383.000000
133543339.000000,71542043.000000
133543343.000000,71542042.000000
133764375.000000,71484673.000000
133764380.000000,71484671.000000
133769540.000000,71483332.000000
133886636.000000,71430584.000000
133982619.000000,71387347.000000
133982622.000000,71387346.000000
133987480.000000,71385157.000000
134185762.000000,71251666.000000
134358718.000000,71086674.000000
134501402.000000,70894900.000000
134609733.000000,70681828.000000
134650361.000000,70550984.000000
134679032.000000,70458651.000000
134679033.000000,70458645.000000
134680616.000000,70453548.000000
134712023.000000,70216589.000000
134703055.000000,69977726.000000
134653970.000000,69743789.000000
134566171.000000,69521467.000000
134442168.000000,69317117.000000
134352103.000000,69213326.000000
134289007.000000,69140614.000000
134289005.000000,69140612.000000
134285507.000000,69136581.000000
134281381.000000,69133198.000000
134281377.000000,69133194.000000
134104795.000000,68988407.000000
134100667.000000,68985022.000000
134096031.000000,68982383.000000
134096028.000000,68982381.000000
133897577.000000,68869416.000000
133892934.000000,68866773.000000
133668247.000000,68785216.000000
133662998.000000,68784267.000000
133662995.000000,68784266.000000
133437115.000000,68743420.000000
133437107.000000,68743419.000000
133433031.000000,68742682.000000
133414641.000000,68741815.000000
133409456.000000,68741570.000000
133409449.000000,68741570.000000
133407968.000000,68741500.000000
131839988.000000,68741500.000000
131661825.000000,68756617.000000
131656661.000000,68757957.000000
131656657.000000,68757958.000000
131435625.000000,68815327.000000
131435620.000000,68815329.000000
131430460.000000,68816668.000000
131425594.000000,68818860.000000
131217381.000000,68912653.000000
131217378.000000,68912654.000000
131212520.000000,68914843.000000
131014238.000000,69048334.000000
130841282.000000,69213326.000000
130838099.000000,69217603.000000
130838099.000000,69217604.000000
130735589.000000,69355382.000000
130678879.000000,69398095.000000
130608078.000000,69403368.000000
130545666.000000,69369525.000000
130511459.000000,69307313.000000
130508500.000000,69280169.000000
130508500.000000,66322520.000000
130528502.000000,66254399.000000
130582158.000000,66207906.000000
130652432.000000,66197802.000000
130717012.000000,66227296.000000
130742218.000000,66257154.000000
130755059.000000,66278315.000000
130755065.000000,66278323.000000
130757832.000000,66282883.000000
130761329.000000,66286913.000000
130851090.000000,66390353.000000
130914493.000000,66463419.000000
130918619.000000,66466802.000000
130918623.000000,66466806.000000
131017629.000000,66547985.000000
131099333.000000,66614978.000000
131103969.000000,66617617.000000
131103972.000000,66617619.000000
131217386.000000,66682178.000000
131307066.000000,66733227.000000
131531753.000000,66814784.000000
131537002.000000,66815733.000000
131537005.000000,66815734.000000
131762885.000000,66856580.000000
131762893.000000,66856581.000000
131766969.000000,66857318.000000
131785359.000000,66858185.000000
131790544.000000,66858430.000000
131790551.000000,66858430.000000
131792032.000000,66858500.000000
133360012.000000,66858500.000000
133538175.000000,66843383.000000
133543339.000000,66842043.000000
133543343.000000,66842042.000000
133764375.000000,66784673.000000
133764380.000000,66784671.000000
133769540.000000,66783332.000000
133886636.000000,66730584.000000
133982619.000000,66687347.000000
133982622.000000,66687346.000000
133987480.000000,66685157.000000
134185762.000000,66551666.000000
134358718.000000,66386674.000000
134501402.000000,66194900.000000
134609733.000000,65981828.000000
134650361.000000,65850984.000000
134679032.000000,65758651.000000
134679033.000000,65758645.000000
134680616.000000,65753548.000000
134712023.000000,65516589.000000
134703055.000000,65277726.000000
134653970.000000,65043789.000000
134566171.000000,64821467.000000
134442168.000000,64617117.000000
134410106.000000,64580169.000000
134289007.000000,64440614.000000
134289005.000000,64440612.000000
134285507.000000,64436581.000000
134281381.000000,64433198.000000
134281377.000000,64433194.000000
134104795.000000,64288407.000000
134100667.000000,64285022.000000
134096031.000000,64282383.000000
134096028.000000,64282381.000000
133897577.000000,64169416.000000
133892934.000000,64166773.000000
133668247.000000,64085216.000000
133662998.000000,64084267.000000
133662995.000000,64084266.000000
133437115.000000,64043420.000000
133437107.000000,64043419.000000
133433031.000000,64042682.000000
133414641.000000,64041815.000000
133409456.000000,64041570.000000
133409449.000000,64041570.000000
133407968.000000,64041500.000000
131839988.000000,64041500.000000
131661825.000000,64056617.000000
131656661.000000,64057957.000000
131656657.000000,64057958.000000
131435625.000000,64115327.000000
131435620.000000,64115329.000000
131430460.000000,64116668.000000
131425594.000000,64118860.000000
131217381.000000,64212653.000000
131217378.000000,64212654.000000
131212520.000000,64214843.000000
131014238.000000,64348334.000000
130841282.000000,64513326.000000
130838099.000000,64517603.000000
130838099.000000,64517604.000000
130735589.000000,64655382.000000
130678879.000000,64698095.000000
130608078.000000,64703368.000000
130545666.000000,64669525.000000
130511459.000000,64607313.000000
130508500.000000,64580169.000000
130508500.000000,63634500.000000
130528502.000000,63566379.000000
130582158.000000,63519886.000000
130634500.000000,63508500.000000
139365192.000000,63508500.000000
Z" /> 
</g>
</g>
</g> 
</svg>
